G04 #@! TF.FileFunction,Copper,L1,Top,Signal*
%FSLAX46Y46*%
G04 Gerber Fmt 4.6, Leading zero omitted, Abs format (unit mm)*
G04 Created by KiCad (PCBNEW 4.0.7-e2-6376~58~ubuntu16.04.1) date Wed Jul  4 10:12:21 2018*
%MOMM*%
%LPD*%
G01*
G04 APERTURE LIST*
%ADD10C,0.100000*%
%ADD11C,0.010000*%
%ADD12C,1.160000*%
%ADD13O,3.200000X1.800000*%
%ADD14R,1.700000X1.700000*%
%ADD15O,1.700000X1.700000*%
%ADD16R,1.600000X1.600000*%
%ADD17O,1.600000X2.000000*%
%ADD18R,1.400000X1.400000*%
%ADD19C,1.400000*%
%ADD20C,4.572000*%
%ADD21R,3.960000X1.980000*%
%ADD22O,3.960000X1.980000*%
%ADD23C,1.500000*%
%ADD24C,3.000000*%
%ADD25C,7.000000*%
%ADD26C,1.590000*%
%ADD27C,2.200000*%
%ADD28R,1.300000X1.500000*%
%ADD29R,1.500000X1.300000*%
%ADD30C,0.600000*%
%ADD31C,0.800000*%
%ADD32C,1.000000*%
%ADD33C,0.400000*%
%ADD34C,0.050000*%
G04 APERTURE END LIST*
D10*
D11*
G36*
X72001687Y-129464995D02*
X72007337Y-129485688D01*
X72025260Y-129576407D01*
X72045397Y-129715323D01*
X72063456Y-129872752D01*
X72063823Y-129876457D01*
X72080064Y-130020352D01*
X72096604Y-130133288D01*
X72110137Y-130193075D01*
X72111341Y-130195523D01*
X72148917Y-130194159D01*
X72215203Y-130148041D01*
X72223984Y-130140010D01*
X72304571Y-130081616D01*
X72343532Y-130083480D01*
X72331149Y-130134514D01*
X72278631Y-130202353D01*
X72223963Y-130273799D01*
X72209879Y-130321278D01*
X72212106Y-130324701D01*
X72259447Y-130338656D01*
X72366577Y-130355952D01*
X72515361Y-130373942D01*
X72619312Y-130384168D01*
X72827272Y-130403913D01*
X72960416Y-130419646D01*
X73021886Y-130432852D01*
X73014827Y-130445010D01*
X72942381Y-130457605D01*
X72807692Y-130472117D01*
X72806169Y-130472265D01*
X72632503Y-130489639D01*
X72458410Y-130507964D01*
X72343660Y-130520749D01*
X72154689Y-130542764D01*
X72262657Y-130655459D01*
X72329637Y-130741292D01*
X72342454Y-130791023D01*
X72307127Y-130793812D01*
X72229672Y-130738821D01*
X72220881Y-130730705D01*
X72167980Y-130685108D01*
X72131811Y-130673049D01*
X72107476Y-130704353D01*
X72090077Y-130788845D01*
X72074717Y-130936349D01*
X72065873Y-131041655D01*
X72044380Y-131227187D01*
X72016505Y-131342932D01*
X71983291Y-131386025D01*
X71949819Y-131360530D01*
X71935241Y-131304602D01*
X71918898Y-131192341D01*
X71903797Y-131045422D01*
X71900539Y-131005432D01*
X71884631Y-130836415D01*
X71865952Y-130737162D01*
X71840252Y-130699298D01*
X71803280Y-130714448D01*
X71770631Y-130749430D01*
X71714221Y-130798554D01*
X71687692Y-130808046D01*
X71654307Y-130782423D01*
X71666049Y-130721016D01*
X71716758Y-130647012D01*
X71735285Y-130628823D01*
X71817169Y-130554718D01*
X71725515Y-130528969D01*
X71631694Y-130512347D01*
X71500262Y-130500041D01*
X71438477Y-130497073D01*
X71283588Y-130486725D01*
X71130265Y-130468183D01*
X71086785Y-130460715D01*
X71009755Y-130444668D01*
X70985854Y-130433348D01*
X71022142Y-130423281D01*
X71125676Y-130410992D01*
X71204015Y-130403015D01*
X71373289Y-130385385D01*
X71538907Y-130367132D01*
X71648017Y-130354272D01*
X71818481Y-130333018D01*
X71709482Y-130219247D01*
X71642784Y-130133919D01*
X71628527Y-130083092D01*
X71661381Y-130077983D01*
X71736016Y-130129811D01*
X71747124Y-130140010D01*
X71814996Y-130190702D01*
X71856925Y-130198160D01*
X71859072Y-130195523D01*
X71872384Y-130142417D01*
X71888920Y-130035465D01*
X71903841Y-129909276D01*
X71921816Y-129751164D01*
X71941364Y-129603071D01*
X71954610Y-129518507D01*
X71971807Y-129431092D01*
X71984521Y-129415109D01*
X72001687Y-129464995D01*
X72001687Y-129464995D01*
G37*
X72001687Y-129464995D02*
X72007337Y-129485688D01*
X72025260Y-129576407D01*
X72045397Y-129715323D01*
X72063456Y-129872752D01*
X72063823Y-129876457D01*
X72080064Y-130020352D01*
X72096604Y-130133288D01*
X72110137Y-130193075D01*
X72111341Y-130195523D01*
X72148917Y-130194159D01*
X72215203Y-130148041D01*
X72223984Y-130140010D01*
X72304571Y-130081616D01*
X72343532Y-130083480D01*
X72331149Y-130134514D01*
X72278631Y-130202353D01*
X72223963Y-130273799D01*
X72209879Y-130321278D01*
X72212106Y-130324701D01*
X72259447Y-130338656D01*
X72366577Y-130355952D01*
X72515361Y-130373942D01*
X72619312Y-130384168D01*
X72827272Y-130403913D01*
X72960416Y-130419646D01*
X73021886Y-130432852D01*
X73014827Y-130445010D01*
X72942381Y-130457605D01*
X72807692Y-130472117D01*
X72806169Y-130472265D01*
X72632503Y-130489639D01*
X72458410Y-130507964D01*
X72343660Y-130520749D01*
X72154689Y-130542764D01*
X72262657Y-130655459D01*
X72329637Y-130741292D01*
X72342454Y-130791023D01*
X72307127Y-130793812D01*
X72229672Y-130738821D01*
X72220881Y-130730705D01*
X72167980Y-130685108D01*
X72131811Y-130673049D01*
X72107476Y-130704353D01*
X72090077Y-130788845D01*
X72074717Y-130936349D01*
X72065873Y-131041655D01*
X72044380Y-131227187D01*
X72016505Y-131342932D01*
X71983291Y-131386025D01*
X71949819Y-131360530D01*
X71935241Y-131304602D01*
X71918898Y-131192341D01*
X71903797Y-131045422D01*
X71900539Y-131005432D01*
X71884631Y-130836415D01*
X71865952Y-130737162D01*
X71840252Y-130699298D01*
X71803280Y-130714448D01*
X71770631Y-130749430D01*
X71714221Y-130798554D01*
X71687692Y-130808046D01*
X71654307Y-130782423D01*
X71666049Y-130721016D01*
X71716758Y-130647012D01*
X71735285Y-130628823D01*
X71817169Y-130554718D01*
X71725515Y-130528969D01*
X71631694Y-130512347D01*
X71500262Y-130500041D01*
X71438477Y-130497073D01*
X71283588Y-130486725D01*
X71130265Y-130468183D01*
X71086785Y-130460715D01*
X71009755Y-130444668D01*
X70985854Y-130433348D01*
X71022142Y-130423281D01*
X71125676Y-130410992D01*
X71204015Y-130403015D01*
X71373289Y-130385385D01*
X71538907Y-130367132D01*
X71648017Y-130354272D01*
X71818481Y-130333018D01*
X71709482Y-130219247D01*
X71642784Y-130133919D01*
X71628527Y-130083092D01*
X71661381Y-130077983D01*
X71736016Y-130129811D01*
X71747124Y-130140010D01*
X71814996Y-130190702D01*
X71856925Y-130198160D01*
X71859072Y-130195523D01*
X71872384Y-130142417D01*
X71888920Y-130035465D01*
X71903841Y-129909276D01*
X71921816Y-129751164D01*
X71941364Y-129603071D01*
X71954610Y-129518507D01*
X71971807Y-129431092D01*
X71984521Y-129415109D01*
X72001687Y-129464995D01*
G36*
X73964869Y-130068174D02*
X74039175Y-130079648D01*
X74070410Y-130105564D01*
X74076169Y-130143738D01*
X74067226Y-130188136D01*
X74028271Y-130211741D01*
X73941114Y-130220898D01*
X73851477Y-130222105D01*
X73626785Y-130222319D01*
X73890554Y-130380578D01*
X74033933Y-130472737D01*
X74117213Y-130543601D01*
X74151677Y-130603693D01*
X74154323Y-130626549D01*
X74139715Y-130712541D01*
X74087665Y-130767464D01*
X73985836Y-130797225D01*
X73821891Y-130807731D01*
X73775277Y-130808046D01*
X73627845Y-130806101D01*
X73542134Y-130797273D01*
X73501746Y-130777069D01*
X73490284Y-130740997D01*
X73490015Y-130729892D01*
X73498282Y-130686912D01*
X73534787Y-130663239D01*
X73617092Y-130653216D01*
X73734246Y-130651207D01*
X73978477Y-130650677D01*
X73734246Y-130505915D01*
X73602078Y-130422351D01*
X73526766Y-130358232D01*
X73494484Y-130299652D01*
X73490015Y-130260260D01*
X73505543Y-130163787D01*
X73560511Y-130103988D01*
X73667501Y-130073660D01*
X73829985Y-130065584D01*
X73964869Y-130068174D01*
X73964869Y-130068174D01*
G37*
X73964869Y-130068174D02*
X74039175Y-130079648D01*
X74070410Y-130105564D01*
X74076169Y-130143738D01*
X74067226Y-130188136D01*
X74028271Y-130211741D01*
X73941114Y-130220898D01*
X73851477Y-130222105D01*
X73626785Y-130222319D01*
X73890554Y-130380578D01*
X74033933Y-130472737D01*
X74117213Y-130543601D01*
X74151677Y-130603693D01*
X74154323Y-130626549D01*
X74139715Y-130712541D01*
X74087665Y-130767464D01*
X73985836Y-130797225D01*
X73821891Y-130807731D01*
X73775277Y-130808046D01*
X73627845Y-130806101D01*
X73542134Y-130797273D01*
X73501746Y-130777069D01*
X73490284Y-130740997D01*
X73490015Y-130729892D01*
X73498282Y-130686912D01*
X73534787Y-130663239D01*
X73617092Y-130653216D01*
X73734246Y-130651207D01*
X73978477Y-130650677D01*
X73734246Y-130505915D01*
X73602078Y-130422351D01*
X73526766Y-130358232D01*
X73494484Y-130299652D01*
X73490015Y-130260260D01*
X73505543Y-130163787D01*
X73560511Y-130103988D01*
X73667501Y-130073660D01*
X73829985Y-130065584D01*
X73964869Y-130068174D01*
G36*
X74570811Y-130068162D02*
X74599354Y-130085655D01*
X74615035Y-130132704D01*
X74621707Y-130223946D01*
X74623221Y-130374021D01*
X74623246Y-130436815D01*
X74622568Y-130608793D01*
X74617964Y-130717256D01*
X74605583Y-130776844D01*
X74581572Y-130802196D01*
X74542078Y-130807952D01*
X74525554Y-130808046D01*
X74480296Y-130805468D01*
X74451753Y-130787974D01*
X74436072Y-130740926D01*
X74429401Y-130649684D01*
X74427886Y-130499609D01*
X74427861Y-130436815D01*
X74428540Y-130264837D01*
X74433143Y-130156374D01*
X74445524Y-130096786D01*
X74469536Y-130071433D01*
X74509029Y-130065678D01*
X74525554Y-130065584D01*
X74570811Y-130068162D01*
X74570811Y-130068162D01*
G37*
X74570811Y-130068162D02*
X74599354Y-130085655D01*
X74615035Y-130132704D01*
X74621707Y-130223946D01*
X74623221Y-130374021D01*
X74623246Y-130436815D01*
X74622568Y-130608793D01*
X74617964Y-130717256D01*
X74605583Y-130776844D01*
X74581572Y-130802196D01*
X74542078Y-130807952D01*
X74525554Y-130808046D01*
X74480296Y-130805468D01*
X74451753Y-130787974D01*
X74436072Y-130740926D01*
X74429401Y-130649684D01*
X74427886Y-130499609D01*
X74427861Y-130436815D01*
X74428540Y-130264837D01*
X74433143Y-130156374D01*
X74445524Y-130096786D01*
X74469536Y-130071433D01*
X74509029Y-130065678D01*
X74525554Y-130065584D01*
X74570811Y-130068162D01*
G36*
X75371638Y-130068174D02*
X75445945Y-130079648D01*
X75477179Y-130105564D01*
X75482938Y-130143738D01*
X75473610Y-130188903D01*
X75433276Y-130212431D01*
X75343416Y-130221058D01*
X75268015Y-130221892D01*
X75053092Y-130221892D01*
X75053092Y-130514969D01*
X75051246Y-130664815D01*
X75042829Y-130752736D01*
X75023522Y-130794928D01*
X74989007Y-130807586D01*
X74974938Y-130808046D01*
X74936571Y-130801732D01*
X74913307Y-130772488D01*
X74901423Y-130704860D01*
X74897196Y-130583396D01*
X74896785Y-130483707D01*
X74902683Y-130302562D01*
X74919300Y-130174126D01*
X74943677Y-130112476D01*
X75007203Y-130086908D01*
X75124100Y-130070091D01*
X75236754Y-130065584D01*
X75371638Y-130068174D01*
X75371638Y-130068174D01*
G37*
X75371638Y-130068174D02*
X75445945Y-130079648D01*
X75477179Y-130105564D01*
X75482938Y-130143738D01*
X75473610Y-130188903D01*
X75433276Y-130212431D01*
X75343416Y-130221058D01*
X75268015Y-130221892D01*
X75053092Y-130221892D01*
X75053092Y-130514969D01*
X75051246Y-130664815D01*
X75042829Y-130752736D01*
X75023522Y-130794928D01*
X74989007Y-130807586D01*
X74974938Y-130808046D01*
X74936571Y-130801732D01*
X74913307Y-130772488D01*
X74901423Y-130704860D01*
X74897196Y-130583396D01*
X74896785Y-130483707D01*
X74902683Y-130302562D01*
X74919300Y-130174126D01*
X74943677Y-130112476D01*
X75007203Y-130086908D01*
X75124100Y-130070091D01*
X75236754Y-130065584D01*
X75371638Y-130068174D01*
G36*
X75899426Y-130068162D02*
X75927969Y-130085655D01*
X75943651Y-130132704D01*
X75950322Y-130223946D01*
X75951837Y-130374021D01*
X75951861Y-130436815D01*
X75951183Y-130608793D01*
X75946579Y-130717256D01*
X75934198Y-130776844D01*
X75910187Y-130802196D01*
X75870694Y-130807952D01*
X75854169Y-130808046D01*
X75808912Y-130805468D01*
X75780369Y-130787974D01*
X75764688Y-130740926D01*
X75758016Y-130649684D01*
X75756502Y-130499609D01*
X75756477Y-130436815D01*
X75757155Y-130264837D01*
X75761759Y-130156374D01*
X75774140Y-130096786D01*
X75798151Y-130071433D01*
X75837644Y-130065678D01*
X75854169Y-130065584D01*
X75899426Y-130068162D01*
X75899426Y-130068162D01*
G37*
X75899426Y-130068162D02*
X75927969Y-130085655D01*
X75943651Y-130132704D01*
X75950322Y-130223946D01*
X75951837Y-130374021D01*
X75951861Y-130436815D01*
X75951183Y-130608793D01*
X75946579Y-130717256D01*
X75934198Y-130776844D01*
X75910187Y-130802196D01*
X75870694Y-130807952D01*
X75854169Y-130808046D01*
X75808912Y-130805468D01*
X75780369Y-130787974D01*
X75764688Y-130740926D01*
X75758016Y-130649684D01*
X75756502Y-130499609D01*
X75756477Y-130436815D01*
X75757155Y-130264837D01*
X75761759Y-130156374D01*
X75774140Y-130096786D01*
X75798151Y-130071433D01*
X75837644Y-130065678D01*
X75854169Y-130065584D01*
X75899426Y-130068162D01*
G36*
X76849921Y-130071898D02*
X76873185Y-130101142D01*
X76885069Y-130168770D01*
X76889296Y-130290233D01*
X76889708Y-130389923D01*
X76883809Y-130571068D01*
X76867192Y-130699504D01*
X76842815Y-130761153D01*
X76783723Y-130783301D01*
X76673920Y-130799059D01*
X76539508Y-130807508D01*
X76406589Y-130807726D01*
X76301263Y-130798796D01*
X76251451Y-130781994D01*
X76239792Y-130733606D01*
X76230829Y-130626489D01*
X76225923Y-130480056D01*
X76225400Y-130410764D01*
X76226752Y-130245517D01*
X76233076Y-130143402D01*
X76247767Y-130089411D01*
X76274224Y-130068536D01*
X76303554Y-130065584D01*
X76343513Y-130072506D01*
X76366958Y-130104070D01*
X76378210Y-130176471D01*
X76381585Y-130305905D01*
X76381708Y-130358661D01*
X76381708Y-130651738D01*
X76733400Y-130651738D01*
X76733400Y-130358661D01*
X76735246Y-130208814D01*
X76743663Y-130120893D01*
X76762970Y-130078702D01*
X76797486Y-130066044D01*
X76811554Y-130065584D01*
X76849921Y-130071898D01*
X76849921Y-130071898D01*
G37*
X76849921Y-130071898D02*
X76873185Y-130101142D01*
X76885069Y-130168770D01*
X76889296Y-130290233D01*
X76889708Y-130389923D01*
X76883809Y-130571068D01*
X76867192Y-130699504D01*
X76842815Y-130761153D01*
X76783723Y-130783301D01*
X76673920Y-130799059D01*
X76539508Y-130807508D01*
X76406589Y-130807726D01*
X76301263Y-130798796D01*
X76251451Y-130781994D01*
X76239792Y-130733606D01*
X76230829Y-130626489D01*
X76225923Y-130480056D01*
X76225400Y-130410764D01*
X76226752Y-130245517D01*
X76233076Y-130143402D01*
X76247767Y-130089411D01*
X76274224Y-130068536D01*
X76303554Y-130065584D01*
X76343513Y-130072506D01*
X76366958Y-130104070D01*
X76378210Y-130176471D01*
X76381585Y-130305905D01*
X76381708Y-130358661D01*
X76381708Y-130651738D01*
X76733400Y-130651738D01*
X76733400Y-130358661D01*
X76735246Y-130208814D01*
X76743663Y-130120893D01*
X76762970Y-130078702D01*
X76797486Y-130066044D01*
X76811554Y-130065584D01*
X76849921Y-130071898D01*
G36*
X77638100Y-130068174D02*
X77712406Y-130079648D01*
X77743640Y-130105564D01*
X77749400Y-130143738D01*
X77740457Y-130188136D01*
X77701502Y-130211741D01*
X77614345Y-130220898D01*
X77524708Y-130222105D01*
X77300015Y-130222319D01*
X77563785Y-130380578D01*
X77707164Y-130472737D01*
X77790444Y-130543601D01*
X77824908Y-130603693D01*
X77827554Y-130626549D01*
X77812945Y-130712541D01*
X77760895Y-130767464D01*
X77659067Y-130797225D01*
X77495122Y-130807731D01*
X77448508Y-130808046D01*
X77301076Y-130806101D01*
X77215364Y-130797273D01*
X77174976Y-130777069D01*
X77163515Y-130740997D01*
X77163246Y-130729892D01*
X77171512Y-130686912D01*
X77208018Y-130663239D01*
X77290323Y-130653216D01*
X77407477Y-130651207D01*
X77651708Y-130650677D01*
X77407477Y-130505915D01*
X77275309Y-130422351D01*
X77199997Y-130358232D01*
X77167715Y-130299652D01*
X77163246Y-130260260D01*
X77178773Y-130163787D01*
X77233742Y-130103988D01*
X77340732Y-130073660D01*
X77503215Y-130065584D01*
X77638100Y-130068174D01*
X77638100Y-130068174D01*
G37*
X77638100Y-130068174D02*
X77712406Y-130079648D01*
X77743640Y-130105564D01*
X77749400Y-130143738D01*
X77740457Y-130188136D01*
X77701502Y-130211741D01*
X77614345Y-130220898D01*
X77524708Y-130222105D01*
X77300015Y-130222319D01*
X77563785Y-130380578D01*
X77707164Y-130472737D01*
X77790444Y-130543601D01*
X77824908Y-130603693D01*
X77827554Y-130626549D01*
X77812945Y-130712541D01*
X77760895Y-130767464D01*
X77659067Y-130797225D01*
X77495122Y-130807731D01*
X77448508Y-130808046D01*
X77301076Y-130806101D01*
X77215364Y-130797273D01*
X77174976Y-130777069D01*
X77163515Y-130740997D01*
X77163246Y-130729892D01*
X77171512Y-130686912D01*
X77208018Y-130663239D01*
X77290323Y-130653216D01*
X77407477Y-130651207D01*
X77651708Y-130650677D01*
X77407477Y-130505915D01*
X77275309Y-130422351D01*
X77199997Y-130358232D01*
X77167715Y-130299652D01*
X77163246Y-130260260D01*
X77178773Y-130163787D01*
X77233742Y-130103988D01*
X77340732Y-130073660D01*
X77503215Y-130065584D01*
X77638100Y-130068174D01*
G36*
X71614323Y-130006969D02*
X71594785Y-130026507D01*
X71575246Y-130006969D01*
X71594785Y-129987430D01*
X71614323Y-130006969D01*
X71614323Y-130006969D01*
G37*
X71614323Y-130006969D02*
X71594785Y-130026507D01*
X71575246Y-130006969D01*
X71594785Y-129987430D01*
X71614323Y-130006969D01*
G36*
X74602160Y-129654055D02*
X74623246Y-129713892D01*
X74600350Y-129775177D01*
X74525554Y-129792046D01*
X74448947Y-129773729D01*
X74427861Y-129713892D01*
X74450758Y-129652606D01*
X74525554Y-129635738D01*
X74602160Y-129654055D01*
X74602160Y-129654055D01*
G37*
X74602160Y-129654055D02*
X74623246Y-129713892D01*
X74600350Y-129775177D01*
X74525554Y-129792046D01*
X74448947Y-129773729D01*
X74427861Y-129713892D01*
X74450758Y-129652606D01*
X74525554Y-129635738D01*
X74602160Y-129654055D01*
G36*
X75930776Y-129654055D02*
X75951861Y-129713892D01*
X75928965Y-129775177D01*
X75854169Y-129792046D01*
X75777562Y-129773729D01*
X75756477Y-129713892D01*
X75779373Y-129652606D01*
X75854169Y-129635738D01*
X75930776Y-129654055D01*
X75930776Y-129654055D01*
G37*
X75930776Y-129654055D02*
X75951861Y-129713892D01*
X75928965Y-129775177D01*
X75854169Y-129792046D01*
X75777562Y-129773729D01*
X75756477Y-129713892D01*
X75779373Y-129652606D01*
X75854169Y-129635738D01*
X75930776Y-129654055D01*
G36*
X77944785Y-129244969D02*
X63290938Y-129244969D01*
X63290938Y-128932353D01*
X77944785Y-128932353D01*
X77944785Y-129244969D01*
X77944785Y-129244969D01*
G37*
X77944785Y-129244969D02*
X63290938Y-129244969D01*
X63290938Y-128932353D01*
X77944785Y-128932353D01*
X77944785Y-129244969D01*
G36*
X63955246Y-127097514D02*
X63954975Y-127377433D01*
X63960548Y-127588866D01*
X63981544Y-127741393D01*
X64027542Y-127844594D01*
X64108123Y-127908048D01*
X64232865Y-127941335D01*
X64411348Y-127954033D01*
X64653152Y-127955723D01*
X64813162Y-127955430D01*
X65479246Y-127955430D01*
X65479246Y-128307123D01*
X64647372Y-128307123D01*
X64369505Y-128306682D01*
X64157790Y-128304661D01*
X64000230Y-128300011D01*
X63884824Y-128291683D01*
X63799574Y-128278630D01*
X63732481Y-128259802D01*
X63671545Y-128234152D01*
X63641141Y-128219200D01*
X63491919Y-128117241D01*
X63387468Y-127973570D01*
X63378861Y-127956920D01*
X63346627Y-127887445D01*
X63323366Y-127817252D01*
X63307630Y-127732354D01*
X63297974Y-127618770D01*
X63292951Y-127462515D01*
X63291115Y-127249605D01*
X63290938Y-127106996D01*
X63290938Y-126431430D01*
X63955246Y-126431430D01*
X63955246Y-127097514D01*
X63955246Y-127097514D01*
G37*
X63955246Y-127097514D02*
X63954975Y-127377433D01*
X63960548Y-127588866D01*
X63981544Y-127741393D01*
X64027542Y-127844594D01*
X64108123Y-127908048D01*
X64232865Y-127941335D01*
X64411348Y-127954033D01*
X64653152Y-127955723D01*
X64813162Y-127955430D01*
X65479246Y-127955430D01*
X65479246Y-128307123D01*
X64647372Y-128307123D01*
X64369505Y-128306682D01*
X64157790Y-128304661D01*
X64000230Y-128300011D01*
X63884824Y-128291683D01*
X63799574Y-128278630D01*
X63732481Y-128259802D01*
X63671545Y-128234152D01*
X63641141Y-128219200D01*
X63491919Y-128117241D01*
X63387468Y-127973570D01*
X63378861Y-127956920D01*
X63346627Y-127887445D01*
X63323366Y-127817252D01*
X63307630Y-127732354D01*
X63297974Y-127618770D01*
X63292951Y-127462515D01*
X63291115Y-127249605D01*
X63290938Y-127106996D01*
X63290938Y-126431430D01*
X63955246Y-126431430D01*
X63955246Y-127097514D01*
G36*
X69738631Y-128307123D02*
X69172878Y-128307123D01*
X68537447Y-127672567D01*
X67902015Y-127038011D01*
X67902015Y-128307123D01*
X67276785Y-128307123D01*
X67276785Y-126431430D01*
X67540554Y-126432316D01*
X67804323Y-126433203D01*
X69074323Y-127650027D01*
X69074323Y-126431430D01*
X69738631Y-126431430D01*
X69738631Y-128307123D01*
X69738631Y-128307123D01*
G37*
X69738631Y-128307123D02*
X69172878Y-128307123D01*
X68537447Y-127672567D01*
X67902015Y-127038011D01*
X67902015Y-128307123D01*
X67276785Y-128307123D01*
X67276785Y-126431430D01*
X67540554Y-126432316D01*
X67804323Y-126433203D01*
X69074323Y-127650027D01*
X69074323Y-126431430D01*
X69738631Y-126431430D01*
X69738631Y-128307123D01*
G36*
X72317708Y-127097514D02*
X72318067Y-127340349D01*
X72320198Y-127517573D01*
X72325679Y-127641731D01*
X72336089Y-127725367D01*
X72353007Y-127781023D01*
X72378012Y-127821244D01*
X72412684Y-127858574D01*
X72413624Y-127859514D01*
X72451036Y-127894431D01*
X72491046Y-127919644D01*
X72546198Y-127936734D01*
X72629035Y-127947278D01*
X72752102Y-127952856D01*
X72927941Y-127955047D01*
X73169096Y-127955430D01*
X73841708Y-127955430D01*
X73841708Y-128307123D01*
X73009834Y-128307123D01*
X72731966Y-128306682D01*
X72520252Y-128304661D01*
X72362691Y-128300011D01*
X72247286Y-128291683D01*
X72162036Y-128278630D01*
X72094942Y-128259802D01*
X72034007Y-128234152D01*
X72003603Y-128219200D01*
X71854381Y-128117241D01*
X71749929Y-127973570D01*
X71741323Y-127956920D01*
X71709089Y-127887445D01*
X71685827Y-127817252D01*
X71670092Y-127732354D01*
X71660436Y-127618770D01*
X71655413Y-127462515D01*
X71653576Y-127249605D01*
X71653400Y-127106996D01*
X71653400Y-126431430D01*
X72317708Y-126431430D01*
X72317708Y-127097514D01*
X72317708Y-127097514D01*
G37*
X72317708Y-127097514D02*
X72318067Y-127340349D01*
X72320198Y-127517573D01*
X72325679Y-127641731D01*
X72336089Y-127725367D01*
X72353007Y-127781023D01*
X72378012Y-127821244D01*
X72412684Y-127858574D01*
X72413624Y-127859514D01*
X72451036Y-127894431D01*
X72491046Y-127919644D01*
X72546198Y-127936734D01*
X72629035Y-127947278D01*
X72752102Y-127952856D01*
X72927941Y-127955047D01*
X73169096Y-127955430D01*
X73841708Y-127955430D01*
X73841708Y-128307123D01*
X73009834Y-128307123D01*
X72731966Y-128306682D01*
X72520252Y-128304661D01*
X72362691Y-128300011D01*
X72247286Y-128291683D01*
X72162036Y-128278630D01*
X72094942Y-128259802D01*
X72034007Y-128234152D01*
X72003603Y-128219200D01*
X71854381Y-128117241D01*
X71749929Y-127973570D01*
X71741323Y-127956920D01*
X71709089Y-127887445D01*
X71685827Y-127817252D01*
X71670092Y-127732354D01*
X71660436Y-127618770D01*
X71655413Y-127462515D01*
X71653576Y-127249605D01*
X71653400Y-127106996D01*
X71653400Y-126431430D01*
X72317708Y-126431430D01*
X72317708Y-127097514D01*
G36*
X77788477Y-126783123D02*
X76227202Y-126783123D01*
X76164908Y-126878194D01*
X76129842Y-126989562D01*
X76166725Y-127090932D01*
X76269487Y-127167741D01*
X76288935Y-127175762D01*
X76361585Y-127188872D01*
X76495843Y-127199978D01*
X76675170Y-127208186D01*
X76883029Y-127212603D01*
X76980175Y-127213115D01*
X77213738Y-127214218D01*
X77383530Y-127218441D01*
X77503917Y-127227354D01*
X77589264Y-127242529D01*
X77653940Y-127265535D01*
X77702905Y-127292124D01*
X77835280Y-127415242D01*
X77915949Y-127579198D01*
X77940522Y-127762628D01*
X77904608Y-127944167D01*
X77856082Y-128037575D01*
X77798985Y-128116631D01*
X77739062Y-128178554D01*
X77666369Y-128225424D01*
X77570961Y-128259321D01*
X77442893Y-128282322D01*
X77272223Y-128296509D01*
X77049004Y-128303960D01*
X76763293Y-128306755D01*
X76567323Y-128307062D01*
X75639246Y-128307123D01*
X75639246Y-127955430D01*
X76395190Y-127955430D01*
X76658921Y-127954821D01*
X76855586Y-127952350D01*
X76996266Y-127947052D01*
X77092043Y-127937962D01*
X77153999Y-127924115D01*
X77193216Y-127904547D01*
X77215805Y-127883969D01*
X77273908Y-127774033D01*
X77261501Y-127665154D01*
X77193628Y-127586415D01*
X77144130Y-127562308D01*
X77067462Y-127545215D01*
X76951611Y-127534101D01*
X76784561Y-127527928D01*
X76554299Y-127525662D01*
X76488303Y-127525584D01*
X76216427Y-127523182D01*
X76010423Y-127513820D01*
X75858099Y-127494269D01*
X75747262Y-127461297D01*
X75665718Y-127411673D01*
X75601276Y-127342166D01*
X75559510Y-127279456D01*
X75498107Y-127114472D01*
X75486504Y-126925459D01*
X75524866Y-126746976D01*
X75556625Y-126682303D01*
X75606271Y-126609356D01*
X75662341Y-126552015D01*
X75734381Y-126508421D01*
X75831940Y-126476718D01*
X75964566Y-126455050D01*
X76141806Y-126441560D01*
X76373208Y-126434392D01*
X76668321Y-126431688D01*
X76846767Y-126431430D01*
X77788477Y-126431430D01*
X77788477Y-126783123D01*
X77788477Y-126783123D01*
G37*
X77788477Y-126783123D02*
X76227202Y-126783123D01*
X76164908Y-126878194D01*
X76129842Y-126989562D01*
X76166725Y-127090932D01*
X76269487Y-127167741D01*
X76288935Y-127175762D01*
X76361585Y-127188872D01*
X76495843Y-127199978D01*
X76675170Y-127208186D01*
X76883029Y-127212603D01*
X76980175Y-127213115D01*
X77213738Y-127214218D01*
X77383530Y-127218441D01*
X77503917Y-127227354D01*
X77589264Y-127242529D01*
X77653940Y-127265535D01*
X77702905Y-127292124D01*
X77835280Y-127415242D01*
X77915949Y-127579198D01*
X77940522Y-127762628D01*
X77904608Y-127944167D01*
X77856082Y-128037575D01*
X77798985Y-128116631D01*
X77739062Y-128178554D01*
X77666369Y-128225424D01*
X77570961Y-128259321D01*
X77442893Y-128282322D01*
X77272223Y-128296509D01*
X77049004Y-128303960D01*
X76763293Y-128306755D01*
X76567323Y-128307062D01*
X75639246Y-128307123D01*
X75639246Y-127955430D01*
X76395190Y-127955430D01*
X76658921Y-127954821D01*
X76855586Y-127952350D01*
X76996266Y-127947052D01*
X77092043Y-127937962D01*
X77153999Y-127924115D01*
X77193216Y-127904547D01*
X77215805Y-127883969D01*
X77273908Y-127774033D01*
X77261501Y-127665154D01*
X77193628Y-127586415D01*
X77144130Y-127562308D01*
X77067462Y-127545215D01*
X76951611Y-127534101D01*
X76784561Y-127527928D01*
X76554299Y-127525662D01*
X76488303Y-127525584D01*
X76216427Y-127523182D01*
X76010423Y-127513820D01*
X75858099Y-127494269D01*
X75747262Y-127461297D01*
X75665718Y-127411673D01*
X75601276Y-127342166D01*
X75559510Y-127279456D01*
X75498107Y-127114472D01*
X75486504Y-126925459D01*
X75524866Y-126746976D01*
X75556625Y-126682303D01*
X75606271Y-126609356D01*
X75662341Y-126552015D01*
X75734381Y-126508421D01*
X75831940Y-126476718D01*
X75964566Y-126455050D01*
X76141806Y-126441560D01*
X76373208Y-126434392D01*
X76668321Y-126431688D01*
X76846767Y-126431430D01*
X77788477Y-126431430D01*
X77788477Y-126783123D01*
G36*
X78042477Y-125903892D02*
X70626443Y-125913762D01*
X69700527Y-125914903D01*
X68849954Y-125915749D01*
X68071915Y-125916286D01*
X67363601Y-125916498D01*
X66722200Y-125916370D01*
X66144904Y-125915889D01*
X65628904Y-125915039D01*
X65171388Y-125913805D01*
X64769547Y-125912173D01*
X64420573Y-125910128D01*
X64121654Y-125907655D01*
X63869981Y-125904739D01*
X63662745Y-125901366D01*
X63497135Y-125897520D01*
X63370342Y-125893188D01*
X63279557Y-125888354D01*
X63221969Y-125883003D01*
X63194768Y-125877121D01*
X63191792Y-125874685D01*
X63189768Y-125830751D01*
X63187932Y-125712891D01*
X63186289Y-125525330D01*
X63184845Y-125272296D01*
X63183606Y-124958015D01*
X63182578Y-124586713D01*
X63181767Y-124162619D01*
X63181178Y-123689957D01*
X63180818Y-123172956D01*
X63180692Y-122615842D01*
X63180807Y-122022840D01*
X63181167Y-121398179D01*
X63181780Y-120746085D01*
X63182651Y-120070784D01*
X63183210Y-119710200D01*
X63192829Y-113848661D01*
X63447246Y-113848661D01*
X63447246Y-125649892D01*
X64404631Y-125649892D01*
X64668861Y-125649458D01*
X64905154Y-125648239D01*
X65102941Y-125646358D01*
X65251651Y-125643937D01*
X65340717Y-125641100D01*
X65362015Y-125638768D01*
X65349689Y-125599264D01*
X65317526Y-125507161D01*
X65276899Y-125394537D01*
X65213134Y-125151054D01*
X65176809Y-124862809D01*
X65168655Y-124558488D01*
X65189403Y-124266777D01*
X65239784Y-124016363D01*
X65241621Y-124010249D01*
X65397915Y-123622298D01*
X65614580Y-123276041D01*
X65884067Y-122977174D01*
X66198826Y-122731395D01*
X66551308Y-122544400D01*
X66933963Y-122421885D01*
X67339242Y-122369548D01*
X67417989Y-122368008D01*
X67732578Y-122382954D01*
X68008721Y-122434444D01*
X68280657Y-122530303D01*
X68429554Y-122599189D01*
X68793015Y-122819415D01*
X69101693Y-123091301D01*
X69351722Y-123407726D01*
X69539241Y-123761570D01*
X69660384Y-124145711D01*
X69711288Y-124553029D01*
X69694282Y-124930116D01*
X69664679Y-125110082D01*
X69623182Y-125291374D01*
X69580794Y-125428857D01*
X69538717Y-125541169D01*
X69510892Y-125618525D01*
X69504189Y-125640123D01*
X69542194Y-125641785D01*
X69651946Y-125643359D01*
X69827037Y-125644819D01*
X70061059Y-125646142D01*
X70347605Y-125647304D01*
X70680267Y-125648280D01*
X71052637Y-125649047D01*
X71458309Y-125649581D01*
X71890875Y-125649858D01*
X72109183Y-125649892D01*
X74714197Y-125649892D01*
X74229106Y-125157958D01*
X73548878Y-124513227D01*
X72854149Y-123944552D01*
X72143005Y-123450857D01*
X71413532Y-123031064D01*
X70663817Y-122684097D01*
X69891945Y-122408877D01*
X69096003Y-122204328D01*
X68918015Y-122168806D01*
X68699715Y-122126816D01*
X68505837Y-122088359D01*
X68350503Y-122056328D01*
X68247837Y-122033618D01*
X68214631Y-122024726D01*
X68212418Y-122007426D01*
X68279447Y-121986030D01*
X68406987Y-121961775D01*
X68586309Y-121935896D01*
X68808681Y-121909631D01*
X69065374Y-121884216D01*
X69347657Y-121860886D01*
X69397444Y-121857225D01*
X70244964Y-121834311D01*
X71103954Y-121885725D01*
X71967390Y-122009856D01*
X72828250Y-122205098D01*
X73679510Y-122469843D01*
X74514148Y-122802481D01*
X75325140Y-123201406D01*
X75366765Y-123224060D01*
X75537441Y-123318771D01*
X75759908Y-123444284D01*
X76018628Y-123591717D01*
X76298062Y-123752186D01*
X76582674Y-123916809D01*
X76799832Y-124043299D01*
X77045517Y-124186452D01*
X77268971Y-124315784D01*
X77461397Y-124426274D01*
X77613998Y-124512899D01*
X77717976Y-124570638D01*
X77764536Y-124594469D01*
X77765928Y-124594815D01*
X77768620Y-124556482D01*
X77771219Y-124444456D01*
X77773708Y-124263200D01*
X77776069Y-124017174D01*
X77778281Y-123710842D01*
X77780327Y-123348663D01*
X77782188Y-122935099D01*
X77783844Y-122474613D01*
X77785278Y-121971666D01*
X77786471Y-121430719D01*
X77787404Y-120856233D01*
X77788057Y-120252672D01*
X77788414Y-119624495D01*
X77788477Y-119221738D01*
X77788477Y-113848661D01*
X63447246Y-113848661D01*
X63192829Y-113848661D01*
X63193246Y-113594661D01*
X78042477Y-113594661D01*
X78042477Y-125903892D01*
X78042477Y-125903892D01*
G37*
X78042477Y-125903892D02*
X70626443Y-125913762D01*
X69700527Y-125914903D01*
X68849954Y-125915749D01*
X68071915Y-125916286D01*
X67363601Y-125916498D01*
X66722200Y-125916370D01*
X66144904Y-125915889D01*
X65628904Y-125915039D01*
X65171388Y-125913805D01*
X64769547Y-125912173D01*
X64420573Y-125910128D01*
X64121654Y-125907655D01*
X63869981Y-125904739D01*
X63662745Y-125901366D01*
X63497135Y-125897520D01*
X63370342Y-125893188D01*
X63279557Y-125888354D01*
X63221969Y-125883003D01*
X63194768Y-125877121D01*
X63191792Y-125874685D01*
X63189768Y-125830751D01*
X63187932Y-125712891D01*
X63186289Y-125525330D01*
X63184845Y-125272296D01*
X63183606Y-124958015D01*
X63182578Y-124586713D01*
X63181767Y-124162619D01*
X63181178Y-123689957D01*
X63180818Y-123172956D01*
X63180692Y-122615842D01*
X63180807Y-122022840D01*
X63181167Y-121398179D01*
X63181780Y-120746085D01*
X63182651Y-120070784D01*
X63183210Y-119710200D01*
X63192829Y-113848661D01*
X63447246Y-113848661D01*
X63447246Y-125649892D01*
X64404631Y-125649892D01*
X64668861Y-125649458D01*
X64905154Y-125648239D01*
X65102941Y-125646358D01*
X65251651Y-125643937D01*
X65340717Y-125641100D01*
X65362015Y-125638768D01*
X65349689Y-125599264D01*
X65317526Y-125507161D01*
X65276899Y-125394537D01*
X65213134Y-125151054D01*
X65176809Y-124862809D01*
X65168655Y-124558488D01*
X65189403Y-124266777D01*
X65239784Y-124016363D01*
X65241621Y-124010249D01*
X65397915Y-123622298D01*
X65614580Y-123276041D01*
X65884067Y-122977174D01*
X66198826Y-122731395D01*
X66551308Y-122544400D01*
X66933963Y-122421885D01*
X67339242Y-122369548D01*
X67417989Y-122368008D01*
X67732578Y-122382954D01*
X68008721Y-122434444D01*
X68280657Y-122530303D01*
X68429554Y-122599189D01*
X68793015Y-122819415D01*
X69101693Y-123091301D01*
X69351722Y-123407726D01*
X69539241Y-123761570D01*
X69660384Y-124145711D01*
X69711288Y-124553029D01*
X69694282Y-124930116D01*
X69664679Y-125110082D01*
X69623182Y-125291374D01*
X69580794Y-125428857D01*
X69538717Y-125541169D01*
X69510892Y-125618525D01*
X69504189Y-125640123D01*
X69542194Y-125641785D01*
X69651946Y-125643359D01*
X69827037Y-125644819D01*
X70061059Y-125646142D01*
X70347605Y-125647304D01*
X70680267Y-125648280D01*
X71052637Y-125649047D01*
X71458309Y-125649581D01*
X71890875Y-125649858D01*
X72109183Y-125649892D01*
X74714197Y-125649892D01*
X74229106Y-125157958D01*
X73548878Y-124513227D01*
X72854149Y-123944552D01*
X72143005Y-123450857D01*
X71413532Y-123031064D01*
X70663817Y-122684097D01*
X69891945Y-122408877D01*
X69096003Y-122204328D01*
X68918015Y-122168806D01*
X68699715Y-122126816D01*
X68505837Y-122088359D01*
X68350503Y-122056328D01*
X68247837Y-122033618D01*
X68214631Y-122024726D01*
X68212418Y-122007426D01*
X68279447Y-121986030D01*
X68406987Y-121961775D01*
X68586309Y-121935896D01*
X68808681Y-121909631D01*
X69065374Y-121884216D01*
X69347657Y-121860886D01*
X69397444Y-121857225D01*
X70244964Y-121834311D01*
X71103954Y-121885725D01*
X71967390Y-122009856D01*
X72828250Y-122205098D01*
X73679510Y-122469843D01*
X74514148Y-122802481D01*
X75325140Y-123201406D01*
X75366765Y-123224060D01*
X75537441Y-123318771D01*
X75759908Y-123444284D01*
X76018628Y-123591717D01*
X76298062Y-123752186D01*
X76582674Y-123916809D01*
X76799832Y-124043299D01*
X77045517Y-124186452D01*
X77268971Y-124315784D01*
X77461397Y-124426274D01*
X77613998Y-124512899D01*
X77717976Y-124570638D01*
X77764536Y-124594469D01*
X77765928Y-124594815D01*
X77768620Y-124556482D01*
X77771219Y-124444456D01*
X77773708Y-124263200D01*
X77776069Y-124017174D01*
X77778281Y-123710842D01*
X77780327Y-123348663D01*
X77782188Y-122935099D01*
X77783844Y-122474613D01*
X77785278Y-121971666D01*
X77786471Y-121430719D01*
X77787404Y-120856233D01*
X77788057Y-120252672D01*
X77788414Y-119624495D01*
X77788477Y-119221738D01*
X77788477Y-113848661D01*
X63447246Y-113848661D01*
X63192829Y-113848661D01*
X63193246Y-113594661D01*
X78042477Y-113594661D01*
X78042477Y-125903892D01*
G36*
X67607553Y-114236997D02*
X67679133Y-114279202D01*
X67808463Y-114354368D01*
X67985434Y-114456691D01*
X68199935Y-114580364D01*
X68441857Y-114719580D01*
X68701089Y-114868535D01*
X68967522Y-115021421D01*
X69231046Y-115172433D01*
X69481550Y-115315765D01*
X69708925Y-115445609D01*
X69903061Y-115556160D01*
X70021872Y-115623544D01*
X70182297Y-115716122D01*
X70314466Y-115795884D01*
X70405313Y-115854693D01*
X70441771Y-115884408D01*
X70441949Y-115885206D01*
X70411502Y-115914942D01*
X70328171Y-115979173D01*
X70204050Y-116068968D01*
X70051233Y-116175394D01*
X70021938Y-116195404D01*
X69250931Y-116747427D01*
X68553278Y-117304517D01*
X67924179Y-117871816D01*
X67358835Y-118454468D01*
X66852446Y-119057617D01*
X66400212Y-119686404D01*
X65997334Y-120345975D01*
X65793786Y-120726200D01*
X65578526Y-121169050D01*
X65399190Y-121588458D01*
X65248340Y-122006324D01*
X65118539Y-122444547D01*
X65002348Y-122925026D01*
X64931844Y-123264068D01*
X64877540Y-123532654D01*
X64835347Y-123726442D01*
X64804663Y-123847745D01*
X64784887Y-123898877D01*
X64775417Y-123882152D01*
X64774622Y-123868635D01*
X64768727Y-123816875D01*
X64753834Y-123706136D01*
X64732457Y-123554741D01*
X64716105Y-123442046D01*
X64694464Y-123262780D01*
X64673143Y-123030234D01*
X64654070Y-122769265D01*
X64639176Y-122504730D01*
X64634196Y-122386969D01*
X64639875Y-121489129D01*
X64723359Y-120594395D01*
X64884318Y-119704059D01*
X65122424Y-118819416D01*
X65437347Y-117941759D01*
X65828760Y-117072381D01*
X66130165Y-116501371D01*
X66228207Y-116327916D01*
X66356810Y-116103157D01*
X66506753Y-115843059D01*
X66668810Y-115563587D01*
X66833760Y-115280706D01*
X66947406Y-115086827D01*
X67488937Y-114165265D01*
X67607553Y-114236997D01*
X67607553Y-114236997D01*
G37*
X67607553Y-114236997D02*
X67679133Y-114279202D01*
X67808463Y-114354368D01*
X67985434Y-114456691D01*
X68199935Y-114580364D01*
X68441857Y-114719580D01*
X68701089Y-114868535D01*
X68967522Y-115021421D01*
X69231046Y-115172433D01*
X69481550Y-115315765D01*
X69708925Y-115445609D01*
X69903061Y-115556160D01*
X70021872Y-115623544D01*
X70182297Y-115716122D01*
X70314466Y-115795884D01*
X70405313Y-115854693D01*
X70441771Y-115884408D01*
X70441949Y-115885206D01*
X70411502Y-115914942D01*
X70328171Y-115979173D01*
X70204050Y-116068968D01*
X70051233Y-116175394D01*
X70021938Y-116195404D01*
X69250931Y-116747427D01*
X68553278Y-117304517D01*
X67924179Y-117871816D01*
X67358835Y-118454468D01*
X66852446Y-119057617D01*
X66400212Y-119686404D01*
X65997334Y-120345975D01*
X65793786Y-120726200D01*
X65578526Y-121169050D01*
X65399190Y-121588458D01*
X65248340Y-122006324D01*
X65118539Y-122444547D01*
X65002348Y-122925026D01*
X64931844Y-123264068D01*
X64877540Y-123532654D01*
X64835347Y-123726442D01*
X64804663Y-123847745D01*
X64784887Y-123898877D01*
X64775417Y-123882152D01*
X64774622Y-123868635D01*
X64768727Y-123816875D01*
X64753834Y-123706136D01*
X64732457Y-123554741D01*
X64716105Y-123442046D01*
X64694464Y-123262780D01*
X64673143Y-123030234D01*
X64654070Y-122769265D01*
X64639176Y-122504730D01*
X64634196Y-122386969D01*
X64639875Y-121489129D01*
X64723359Y-120594395D01*
X64884318Y-119704059D01*
X65122424Y-118819416D01*
X65437347Y-117941759D01*
X65828760Y-117072381D01*
X66130165Y-116501371D01*
X66228207Y-116327916D01*
X66356810Y-116103157D01*
X66506753Y-115843059D01*
X66668810Y-115563587D01*
X66833760Y-115280706D01*
X66947406Y-115086827D01*
X67488937Y-114165265D01*
X67607553Y-114236997D01*
G36*
X75141847Y-119451534D02*
X75350465Y-119455986D01*
X76538015Y-119484715D01*
X76538015Y-121199611D01*
X76537370Y-121557079D01*
X76535525Y-121889157D01*
X76532614Y-122187969D01*
X76528773Y-122445639D01*
X76524137Y-122654290D01*
X76518840Y-122806045D01*
X76513017Y-122893027D01*
X76508708Y-122911158D01*
X76464368Y-122893215D01*
X76364889Y-122846740D01*
X76224771Y-122778671D01*
X76058516Y-122695949D01*
X76049554Y-122691440D01*
X75200049Y-122292077D01*
X74372248Y-121961533D01*
X73556488Y-121697041D01*
X72743108Y-121495836D01*
X71922444Y-121355153D01*
X71093381Y-121272780D01*
X70294947Y-121253083D01*
X69511576Y-121300902D01*
X68732685Y-121417786D01*
X67947688Y-121605282D01*
X67216079Y-121839656D01*
X67052648Y-121895573D01*
X66915375Y-121937915D01*
X66821502Y-121961634D01*
X66790300Y-121964294D01*
X66794491Y-121935836D01*
X66856955Y-121872946D01*
X66969017Y-121781513D01*
X67122001Y-121667425D01*
X67307230Y-121536571D01*
X67516029Y-121394840D01*
X67739722Y-121248120D01*
X67969631Y-121102300D01*
X68197083Y-120963270D01*
X68413400Y-120836916D01*
X68609906Y-120729129D01*
X68610902Y-120728605D01*
X69173936Y-120450216D01*
X69734807Y-120209499D01*
X70301831Y-120004885D01*
X70883323Y-119834802D01*
X71487602Y-119697681D01*
X72122982Y-119591951D01*
X72797780Y-119516042D01*
X73520313Y-119468383D01*
X74298897Y-119447404D01*
X75141847Y-119451534D01*
X75141847Y-119451534D01*
G37*
X75141847Y-119451534D02*
X75350465Y-119455986D01*
X76538015Y-119484715D01*
X76538015Y-121199611D01*
X76537370Y-121557079D01*
X76535525Y-121889157D01*
X76532614Y-122187969D01*
X76528773Y-122445639D01*
X76524137Y-122654290D01*
X76518840Y-122806045D01*
X76513017Y-122893027D01*
X76508708Y-122911158D01*
X76464368Y-122893215D01*
X76364889Y-122846740D01*
X76224771Y-122778671D01*
X76058516Y-122695949D01*
X76049554Y-122691440D01*
X75200049Y-122292077D01*
X74372248Y-121961533D01*
X73556488Y-121697041D01*
X72743108Y-121495836D01*
X71922444Y-121355153D01*
X71093381Y-121272780D01*
X70294947Y-121253083D01*
X69511576Y-121300902D01*
X68732685Y-121417786D01*
X67947688Y-121605282D01*
X67216079Y-121839656D01*
X67052648Y-121895573D01*
X66915375Y-121937915D01*
X66821502Y-121961634D01*
X66790300Y-121964294D01*
X66794491Y-121935836D01*
X66856955Y-121872946D01*
X66969017Y-121781513D01*
X67122001Y-121667425D01*
X67307230Y-121536571D01*
X67516029Y-121394840D01*
X67739722Y-121248120D01*
X67969631Y-121102300D01*
X68197083Y-120963270D01*
X68413400Y-120836916D01*
X68609906Y-120729129D01*
X68610902Y-120728605D01*
X69173936Y-120450216D01*
X69734807Y-120209499D01*
X70301831Y-120004885D01*
X70883323Y-119834802D01*
X71487602Y-119697681D01*
X72122982Y-119591951D01*
X72797780Y-119516042D01*
X73520313Y-119468383D01*
X74298897Y-119447404D01*
X75141847Y-119451534D01*
G36*
X72804559Y-115773841D02*
X72854089Y-115856066D01*
X72933321Y-115990341D01*
X73037303Y-116168077D01*
X73161083Y-116380685D01*
X73299711Y-116619577D01*
X73448233Y-116876162D01*
X73601699Y-117141852D01*
X73755156Y-117408058D01*
X73903654Y-117666191D01*
X74042241Y-117907661D01*
X74165964Y-118123879D01*
X74269872Y-118306257D01*
X74349014Y-118446205D01*
X74398438Y-118535134D01*
X74413395Y-118564519D01*
X74374443Y-118569950D01*
X74269856Y-118580783D01*
X74111879Y-118595851D01*
X73912753Y-118613987D01*
X73684824Y-118634013D01*
X73106628Y-118689948D01*
X72591520Y-118753084D01*
X72124584Y-118825735D01*
X71690906Y-118910214D01*
X71285885Y-119006171D01*
X70401722Y-119265623D01*
X69576374Y-119573771D01*
X68805529Y-119933236D01*
X68084876Y-120346637D01*
X67410105Y-120816595D01*
X66776902Y-121345728D01*
X66180958Y-121936657D01*
X65850622Y-122308815D01*
X65715432Y-122468140D01*
X65622910Y-122576312D01*
X65564992Y-122641627D01*
X65533609Y-122672378D01*
X65520697Y-122676861D01*
X65518189Y-122663370D01*
X65518323Y-122650531D01*
X65534011Y-122591619D01*
X65576899Y-122476550D01*
X65640726Y-122319798D01*
X65719230Y-122135833D01*
X65806147Y-121939127D01*
X65895215Y-121744152D01*
X65980173Y-121565380D01*
X66038206Y-121449123D01*
X66425284Y-120754364D01*
X66846247Y-120115208D01*
X67315414Y-119511591D01*
X67823238Y-118948200D01*
X68139042Y-118628850D01*
X68449297Y-118335198D01*
X68763683Y-118060095D01*
X69091879Y-117796391D01*
X69443565Y-117536937D01*
X69828419Y-117274585D01*
X70256122Y-117002184D01*
X70736352Y-116712586D01*
X71262631Y-116407848D01*
X71483210Y-116282563D01*
X71714945Y-116151717D01*
X71944737Y-116022631D01*
X72159488Y-115902624D01*
X72346096Y-115799014D01*
X72491463Y-115719123D01*
X72582489Y-115670269D01*
X72584697Y-115669125D01*
X72702113Y-115608407D01*
X72804559Y-115773841D01*
X72804559Y-115773841D01*
G37*
X72804559Y-115773841D02*
X72854089Y-115856066D01*
X72933321Y-115990341D01*
X73037303Y-116168077D01*
X73161083Y-116380685D01*
X73299711Y-116619577D01*
X73448233Y-116876162D01*
X73601699Y-117141852D01*
X73755156Y-117408058D01*
X73903654Y-117666191D01*
X74042241Y-117907661D01*
X74165964Y-118123879D01*
X74269872Y-118306257D01*
X74349014Y-118446205D01*
X74398438Y-118535134D01*
X74413395Y-118564519D01*
X74374443Y-118569950D01*
X74269856Y-118580783D01*
X74111879Y-118595851D01*
X73912753Y-118613987D01*
X73684824Y-118634013D01*
X73106628Y-118689948D01*
X72591520Y-118753084D01*
X72124584Y-118825735D01*
X71690906Y-118910214D01*
X71285885Y-119006171D01*
X70401722Y-119265623D01*
X69576374Y-119573771D01*
X68805529Y-119933236D01*
X68084876Y-120346637D01*
X67410105Y-120816595D01*
X66776902Y-121345728D01*
X66180958Y-121936657D01*
X65850622Y-122308815D01*
X65715432Y-122468140D01*
X65622910Y-122576312D01*
X65564992Y-122641627D01*
X65533609Y-122672378D01*
X65520697Y-122676861D01*
X65518189Y-122663370D01*
X65518323Y-122650531D01*
X65534011Y-122591619D01*
X65576899Y-122476550D01*
X65640726Y-122319798D01*
X65719230Y-122135833D01*
X65806147Y-121939127D01*
X65895215Y-121744152D01*
X65980173Y-121565380D01*
X66038206Y-121449123D01*
X66425284Y-120754364D01*
X66846247Y-120115208D01*
X67315414Y-119511591D01*
X67823238Y-118948200D01*
X68139042Y-118628850D01*
X68449297Y-118335198D01*
X68763683Y-118060095D01*
X69091879Y-117796391D01*
X69443565Y-117536937D01*
X69828419Y-117274585D01*
X70256122Y-117002184D01*
X70736352Y-116712586D01*
X71262631Y-116407848D01*
X71483210Y-116282563D01*
X71714945Y-116151717D01*
X71944737Y-116022631D01*
X72159488Y-115902624D01*
X72346096Y-115799014D01*
X72491463Y-115719123D01*
X72582489Y-115670269D01*
X72584697Y-115669125D01*
X72702113Y-115608407D01*
X72804559Y-115773841D01*
D12*
X209786480Y-127010000D03*
X209786480Y-124970000D03*
X212336480Y-125990000D03*
X212336480Y-128030000D03*
D13*
X212136480Y-131880000D03*
X212136480Y-121120000D03*
D12*
X209786480Y-113510000D03*
X209786480Y-111470000D03*
X212336480Y-112490000D03*
X212336480Y-114530000D03*
D13*
X212136480Y-118380000D03*
X212136480Y-107620000D03*
D12*
X209786480Y-100010000D03*
X209786480Y-97970000D03*
X212336480Y-98990000D03*
X212336480Y-101030000D03*
D13*
X212136480Y-104880000D03*
X212136480Y-94120000D03*
D12*
X209786480Y-86510000D03*
X209786480Y-84470000D03*
X212336480Y-85490000D03*
X212336480Y-87530000D03*
D13*
X212136480Y-91380000D03*
X212136480Y-80620000D03*
D14*
X72476360Y-74432160D03*
D15*
X72476360Y-76972160D03*
X59776360Y-74432160D03*
X59776360Y-76972160D03*
D16*
X197457080Y-97053400D03*
D17*
X197457080Y-94413400D03*
X194917080Y-97153400D03*
X194917080Y-94413400D03*
X192377080Y-97153400D03*
X192377080Y-94413400D03*
X189837080Y-97153400D03*
X189837080Y-94413400D03*
X187297080Y-97153400D03*
X187297080Y-94413400D03*
X184757080Y-97153400D03*
X184757080Y-94413400D03*
X182217080Y-97153400D03*
X182217080Y-94413400D03*
X179677080Y-97153400D03*
X179677080Y-94413400D03*
X177137080Y-97153400D03*
X177137080Y-94413400D03*
X174597080Y-97153400D03*
X174597080Y-94413400D03*
X172057080Y-97153400D03*
X172057080Y-94413400D03*
X169517080Y-97153400D03*
X169517080Y-94413400D03*
X166977080Y-97153400D03*
X166977080Y-94413400D03*
X164437080Y-97153400D03*
X164437080Y-94413400D03*
X161897080Y-97153400D03*
X161897080Y-94413400D03*
X159357080Y-97153400D03*
X159357080Y-94413400D03*
X156817080Y-97153400D03*
X156817080Y-94413400D03*
X154277080Y-97153400D03*
X154277080Y-94413400D03*
X151737080Y-97153400D03*
X151737080Y-94413400D03*
X149197080Y-97153400D03*
X149197080Y-94413400D03*
X146657080Y-97153400D03*
X146657080Y-94413400D03*
X144117080Y-97153400D03*
X144117080Y-94413400D03*
X141577080Y-97153400D03*
X141577080Y-94413400D03*
D16*
X197457080Y-48793400D03*
D17*
X197457080Y-46153400D03*
X194917080Y-48893400D03*
X194917080Y-46153400D03*
X192377080Y-48893400D03*
X192377080Y-46153400D03*
X189837080Y-48893400D03*
X189837080Y-46153400D03*
X187297080Y-48893400D03*
X187297080Y-46153400D03*
X184757080Y-48893400D03*
X184757080Y-46153400D03*
X182217080Y-48893400D03*
X182217080Y-46153400D03*
X179677080Y-48893400D03*
X179677080Y-46153400D03*
X177137080Y-48893400D03*
X177137080Y-46153400D03*
X174597080Y-48893400D03*
X174597080Y-46153400D03*
X172057080Y-48893400D03*
X172057080Y-46153400D03*
X169517080Y-48893400D03*
X169517080Y-46153400D03*
X166977080Y-48893400D03*
X166977080Y-46153400D03*
X164437080Y-48893400D03*
X164437080Y-46153400D03*
X161897080Y-48893400D03*
X161897080Y-46153400D03*
X159357080Y-48893400D03*
X159357080Y-46153400D03*
X156817080Y-48893400D03*
X156817080Y-46153400D03*
X154277080Y-48893400D03*
X154277080Y-46153400D03*
X151737080Y-48893400D03*
X151737080Y-46153400D03*
X149197080Y-48893400D03*
X149197080Y-46153400D03*
X146657080Y-48893400D03*
X146657080Y-46153400D03*
X144117080Y-48893400D03*
X144117080Y-46153400D03*
X141577080Y-48893400D03*
X141577080Y-46153400D03*
D18*
X142699820Y-75233060D03*
D19*
X135079820Y-75233060D03*
X142699820Y-62543060D03*
X142699820Y-57453060D03*
X142699820Y-67613060D03*
X135069820Y-62523060D03*
X135069820Y-57443060D03*
X135079820Y-67613060D03*
D20*
X136497080Y-92608400D03*
X202537080Y-95783400D03*
X202537080Y-47523400D03*
X136497080Y-50698400D03*
D21*
X121615200Y-49339500D03*
D22*
X121615200Y-44339500D03*
D23*
X69352160Y-100055120D03*
X69352160Y-102595120D03*
X69352160Y-104625120D03*
X69352160Y-107165120D03*
D24*
X66682160Y-97005120D03*
X66682160Y-110725120D03*
D18*
X144033240Y-121679500D03*
D19*
X136413240Y-121679500D03*
X144033240Y-108989500D03*
X144033240Y-103899500D03*
X144033240Y-114059500D03*
X136403240Y-108969500D03*
X136403240Y-103889500D03*
X136413240Y-114059500D03*
D18*
X175120340Y-121791260D03*
D19*
X167500340Y-121791260D03*
X175120340Y-109101260D03*
X175120340Y-104011260D03*
X175120340Y-114171260D03*
X167490340Y-109081260D03*
X167490340Y-104001260D03*
X167500340Y-114171260D03*
D18*
X168656000Y-75057000D03*
D19*
X161036000Y-75057000D03*
X168656000Y-62367000D03*
X168656000Y-57277000D03*
X168656000Y-67437000D03*
X161026000Y-62347000D03*
X161026000Y-57267000D03*
X161036000Y-67437000D03*
D25*
X101242000Y-119335000D03*
X101242000Y-80235000D03*
D26*
X202036480Y-51439240D03*
X204576480Y-52709240D03*
X202036480Y-53979240D03*
X204576480Y-55249240D03*
X202036480Y-56519240D03*
X204576480Y-57789240D03*
D27*
X212949800Y-67025500D03*
X207949800Y-67025500D03*
X207949800Y-72025500D03*
X212949800Y-72025500D03*
X210449800Y-69525500D03*
D28*
X195496180Y-69086740D03*
X195496180Y-71786740D03*
X199463660Y-71786740D03*
X199463660Y-69086740D03*
D29*
X194331580Y-54985920D03*
X191631580Y-54985920D03*
X189980560Y-57729120D03*
X187280560Y-57729120D03*
D30*
X192730120Y-58618120D03*
X164371020Y-117487700D03*
X158391860Y-117431820D03*
X197479920Y-104439720D03*
X127629920Y-105473500D03*
X195785740Y-76608940D03*
X192841880Y-62082680D03*
D31*
X189980560Y-57729120D02*
X191841120Y-57729120D01*
X191841120Y-57729120D02*
X192730120Y-58618120D01*
D32*
X158447740Y-117487700D02*
X164371020Y-117487700D01*
X158391860Y-117431820D02*
X158447740Y-117487700D01*
X197457080Y-104416880D02*
X197457080Y-97053400D01*
X197479920Y-104439720D02*
X197457080Y-104416880D01*
X199463660Y-71786740D02*
X203219060Y-71786740D01*
X205480300Y-69525500D02*
X210449800Y-69525500D01*
X203219060Y-71786740D02*
X205480300Y-69525500D01*
D31*
X210266340Y-69857580D02*
X210454880Y-69669040D01*
X210441560Y-69682360D02*
X210454880Y-69669040D01*
X144033240Y-121679500D02*
X139672860Y-121679500D01*
X127568960Y-98856800D02*
X139433300Y-98856800D01*
X125227080Y-101198680D02*
X127568960Y-98856800D01*
X125227080Y-107233720D02*
X125227080Y-101198680D01*
X139672860Y-121679500D02*
X125227080Y-107233720D01*
X192377080Y-94513400D02*
X192377080Y-93093560D01*
X183189880Y-89590880D02*
X168656000Y-75057000D01*
X188874400Y-89590880D02*
X183189880Y-89590880D01*
X192377080Y-93093560D02*
X188874400Y-89590880D01*
X175120340Y-121791260D02*
X175120340Y-118290380D01*
X161660840Y-104439720D02*
X164487860Y-101612700D01*
X161660840Y-108966000D02*
X161660840Y-104439720D01*
X164398960Y-111704120D02*
X161660840Y-108966000D01*
X168534080Y-111704120D02*
X164398960Y-111704120D01*
X175120340Y-118290380D02*
X168534080Y-111704120D01*
X155869640Y-101612700D02*
X164487860Y-101612700D01*
X139433300Y-98856800D02*
X142189200Y-101612700D01*
X142189200Y-101612700D02*
X155869640Y-101612700D01*
X192377080Y-98287820D02*
X192377080Y-97053400D01*
X189052200Y-101612700D02*
X192377080Y-98287820D01*
X164487860Y-101612700D02*
X189052200Y-101612700D01*
X168656000Y-75057000D02*
X168706800Y-75057000D01*
X192377080Y-93431380D02*
X192377080Y-94513400D01*
X142699820Y-75233060D02*
X143909580Y-75233060D01*
X143909580Y-75233060D02*
X146293840Y-77617320D01*
X146293840Y-77617320D02*
X166095680Y-77617320D01*
X166095680Y-77617320D02*
X168656000Y-75057000D01*
D32*
X192377080Y-98016040D02*
X192377080Y-97053400D01*
X192377080Y-97053400D02*
X192377080Y-94513400D01*
X69352160Y-107165120D02*
X72118240Y-107165120D01*
X73822560Y-74432160D02*
X72476360Y-74432160D01*
X74523600Y-75133200D02*
X73822560Y-74432160D01*
X74523600Y-79019400D02*
X74523600Y-75133200D01*
X73370440Y-80172560D02*
X74523600Y-79019400D01*
X73370440Y-105912920D02*
X73370440Y-80172560D01*
X72118240Y-107165120D02*
X73370440Y-105912920D01*
D33*
X69656980Y-107165120D02*
X69352160Y-107165120D01*
D32*
X72476360Y-76972160D02*
X72476360Y-77332840D01*
X72476360Y-77332840D02*
X71302880Y-78506320D01*
X71302880Y-78506320D02*
X71302880Y-103944420D01*
X71302880Y-103944420D02*
X70622180Y-104625120D01*
X70622180Y-104625120D02*
X69352160Y-104625120D01*
D33*
X69090520Y-104886760D02*
X69352160Y-104625120D01*
D32*
X69352160Y-102595120D02*
X65523820Y-102595120D01*
X59776360Y-96847660D02*
X59776360Y-76972160D01*
X65523820Y-102595120D02*
X59776360Y-96847660D01*
D31*
X136413240Y-114059500D02*
X136413240Y-114035840D01*
X136413240Y-114035840D02*
X127850900Y-105473500D01*
X127850900Y-105473500D02*
X127629920Y-105473500D01*
X136413240Y-114035840D02*
X133581140Y-111203740D01*
X133581140Y-111203740D02*
X133581140Y-110032800D01*
X136413240Y-114059500D02*
X136413240Y-114033300D01*
X167500340Y-114171260D02*
X167500340Y-117320100D01*
X176086300Y-114171260D02*
X175120340Y-114171260D01*
X179207160Y-117292120D02*
X176086300Y-114171260D01*
X179207160Y-123997720D02*
X179207160Y-117292120D01*
X177251360Y-125953520D02*
X179207160Y-123997720D01*
X173730920Y-125953520D02*
X177251360Y-125953520D01*
X171998640Y-124221240D02*
X173730920Y-125953520D01*
X171998640Y-121818400D02*
X171998640Y-124221240D01*
X167500340Y-117320100D02*
X171998640Y-121818400D01*
X136413240Y-114059500D02*
X136413240Y-113812320D01*
X133581140Y-110726220D02*
X133581140Y-110032800D01*
X133581140Y-110032800D02*
X133581140Y-102567740D01*
X153231380Y-114171260D02*
X167500340Y-114171260D01*
X145315940Y-106255820D02*
X153231380Y-114171260D01*
X142382240Y-106255820D02*
X145315940Y-106255820D01*
X137380980Y-101254560D02*
X142382240Y-106255820D01*
X134894320Y-101254560D02*
X137380980Y-101254560D01*
X133581140Y-102567740D02*
X134894320Y-101254560D01*
X144033240Y-114059500D02*
X143955300Y-114059500D01*
X143955300Y-114059500D02*
X136682480Y-106786680D01*
X133581140Y-108602780D02*
X133581140Y-110726220D01*
X135397240Y-106786680D02*
X133581140Y-108602780D01*
X136682480Y-106786680D02*
X135397240Y-106786680D01*
X134597140Y-59954160D02*
X136230360Y-59954160D01*
X159771080Y-68701920D02*
X161036000Y-67437000D01*
X151505920Y-68701920D02*
X159771080Y-68701920D01*
X147035520Y-64231520D02*
X151505920Y-68701920D01*
X140507720Y-64231520D02*
X147035520Y-64231520D01*
X136230360Y-59954160D02*
X140507720Y-64231520D01*
X161036000Y-67437000D02*
X168656000Y-67437000D01*
X134707160Y-67613060D02*
X133311900Y-66217800D01*
X133311900Y-66217800D02*
X133311900Y-61239400D01*
X133311900Y-61239400D02*
X134597140Y-59954160D01*
X142699820Y-67613060D02*
X134707160Y-67613060D01*
D32*
X175120340Y-114171260D02*
X175120340Y-114241620D01*
X136413240Y-114059500D02*
X136413240Y-113781840D01*
X144033240Y-113842800D02*
X144033240Y-114059500D01*
X161036000Y-67437000D02*
X161036000Y-67632580D01*
X135079820Y-67613060D02*
X135079820Y-67543760D01*
D31*
X144033240Y-114059500D02*
X144033240Y-114434620D01*
X133944360Y-53911500D02*
X131246880Y-53911500D01*
X132323840Y-72811640D02*
X136850120Y-72811640D01*
X128778000Y-69265800D02*
X132323840Y-72811640D01*
X128778000Y-56380380D02*
X128778000Y-69265800D01*
X131246880Y-53911500D02*
X128778000Y-56380380D01*
X133944360Y-53911500D02*
X139039600Y-53911500D01*
X175298100Y-52387500D02*
X183299100Y-60388500D01*
X140563600Y-52387500D02*
X175298100Y-52387500D01*
X139039600Y-53911500D02*
X140563600Y-52387500D01*
X154277080Y-94513400D02*
X154277080Y-90238600D01*
X191997340Y-69086740D02*
X199463660Y-69086740D01*
X183299100Y-60388500D02*
X191997340Y-69086740D01*
X154277080Y-90238600D02*
X136850120Y-72811640D01*
D32*
X195496180Y-69086740D02*
X199463660Y-69086740D01*
X199435720Y-69114680D02*
X199463660Y-69086740D01*
D31*
X194331580Y-54985920D02*
X194331580Y-54672220D01*
X194331580Y-54672220D02*
X189837080Y-50177720D01*
X189837080Y-50177720D02*
X189837080Y-48793400D01*
X202036480Y-56519240D02*
X195864900Y-56519240D01*
X195864900Y-56519240D02*
X194331580Y-54985920D01*
X187280560Y-57729120D02*
X187280560Y-60209440D01*
X207203040Y-54612540D02*
X205299740Y-52709240D01*
X207203040Y-61523880D02*
X207203040Y-54612540D01*
X204129640Y-64597280D02*
X207203040Y-61523880D01*
X191668400Y-64597280D02*
X204129640Y-64597280D01*
X187280560Y-60209440D02*
X191668400Y-64597280D01*
X205299740Y-52709240D02*
X204576480Y-52709240D01*
X187280560Y-57729120D02*
X187280560Y-48809920D01*
X187280560Y-48809920D02*
X187297080Y-48793400D01*
X205299740Y-52709240D02*
X204576480Y-52709240D01*
X187297080Y-48793400D02*
X187297080Y-49380120D01*
X164437080Y-97751880D02*
X164437080Y-97053400D01*
X204576480Y-57789240D02*
X204576480Y-59624160D01*
X195785740Y-76608940D02*
X195783200Y-76606400D01*
X193065400Y-61859160D02*
X192841880Y-62082680D01*
X202341480Y-61859160D02*
X193065400Y-61859160D01*
X204576480Y-59624160D02*
X202341480Y-61859160D01*
X188440060Y-86794340D02*
X184444640Y-86794340D01*
X165828980Y-71836280D02*
X165828980Y-71833740D01*
X169486580Y-71836280D02*
X165828980Y-71836280D01*
X184444640Y-86794340D02*
X169486580Y-71836280D01*
X136436100Y-55321200D02*
X133388100Y-55321200D01*
X174498000Y-55321200D02*
X195783200Y-76606400D01*
X136436100Y-55321200D02*
X174498000Y-55321200D01*
X144465040Y-69921120D02*
X147970240Y-73426320D01*
X133875780Y-69921120D02*
X144465040Y-69921120D01*
X133388100Y-55321200D02*
X131043680Y-57665620D01*
X131043680Y-57665620D02*
X131043680Y-67089020D01*
X131043680Y-67089020D02*
X133875780Y-69921120D01*
X144840960Y-70297040D02*
X147970240Y-73426320D01*
X152328880Y-73426320D02*
X147970240Y-73426320D01*
X162450780Y-71833740D02*
X165828980Y-71833740D01*
X160858200Y-73426320D02*
X162450780Y-71833740D01*
X152328880Y-73426320D02*
X160858200Y-73426320D01*
X188440060Y-86794340D02*
X194917080Y-93271360D01*
X194917080Y-93271360D02*
X194917080Y-94513400D01*
X208823560Y-51046380D02*
X202429340Y-51046380D01*
X215417400Y-57640220D02*
X208823560Y-51046380D01*
X215417400Y-73959720D02*
X215417400Y-57640220D01*
X212770720Y-76606400D02*
X215417400Y-73959720D01*
X195783200Y-76606400D02*
X212770720Y-76606400D01*
X147970240Y-73426320D02*
X144840960Y-70297040D01*
X202429340Y-51046380D02*
X202036480Y-51439240D01*
D32*
X204576480Y-57789240D02*
X204567360Y-57789240D01*
D31*
X212336480Y-125990000D02*
X212336480Y-124729340D01*
X204200760Y-122788680D02*
X198526400Y-128463040D01*
X210395820Y-122788680D02*
X204200760Y-122788680D01*
X212336480Y-124729340D02*
X210395820Y-122788680D01*
X197032880Y-128463040D02*
X198526400Y-128463040D01*
X143807180Y-111480600D02*
X146517360Y-111480600D01*
X146517360Y-111480600D02*
X163499800Y-128463040D01*
X163499800Y-128463040D02*
X197032880Y-128463040D01*
X136403240Y-104076660D02*
X143807180Y-111480600D01*
X136403240Y-103889500D02*
X136403240Y-104076660D01*
D32*
X136403240Y-103889500D02*
X136403240Y-104284940D01*
D31*
X136403240Y-108969500D02*
X136403240Y-110266640D01*
X157228540Y-131091940D02*
X209274540Y-131091940D01*
X136403240Y-110266640D02*
X157228540Y-131091940D01*
X209274540Y-131091940D02*
X212336480Y-128030000D01*
D32*
X136403240Y-108969500D02*
X136403240Y-109237940D01*
D31*
X212336480Y-98990000D02*
X212336480Y-97853600D01*
X172272960Y-65714880D02*
X170451780Y-65714880D01*
X196921120Y-90363040D02*
X172272960Y-65714880D01*
X206776320Y-90363040D02*
X196921120Y-90363040D01*
X208645760Y-92232480D02*
X206776320Y-90363040D01*
X208645760Y-94162880D02*
X208645760Y-92232480D01*
X212336480Y-97853600D02*
X208645760Y-94162880D01*
X137338760Y-57443060D02*
X135069820Y-57443060D01*
X139865100Y-59969400D02*
X137338760Y-57443060D01*
X147066000Y-59969400D02*
X139865100Y-59969400D01*
X151734520Y-64637920D02*
X147066000Y-59969400D01*
X162326320Y-64637920D02*
X151734520Y-64637920D01*
X163403280Y-65714880D02*
X162326320Y-64637920D01*
X170451780Y-65714880D02*
X163403280Y-65714880D01*
X168943020Y-69761100D02*
X171335700Y-69761100D01*
X171335700Y-69761100D02*
X172278040Y-70703440D01*
X187680600Y-83781900D02*
X185356500Y-83781900D01*
X211144180Y-102222300D02*
X212336480Y-101030000D01*
X208597500Y-102222300D02*
X211144180Y-102222300D01*
X206844900Y-100469700D02*
X208597500Y-102222300D01*
X206844900Y-93992700D02*
X206844900Y-100469700D01*
X187680600Y-83781900D02*
X196072760Y-92174060D01*
X196072760Y-92174060D02*
X205026260Y-92174060D01*
X205026260Y-92174060D02*
X206844900Y-93992700D01*
X185356500Y-83781900D02*
X172278040Y-70703440D01*
X135069820Y-62523060D02*
X135418520Y-62523060D01*
X135418520Y-62523060D02*
X138750040Y-65854580D01*
X161925000Y-69761100D02*
X168943020Y-69761100D01*
X138750040Y-65854580D02*
X144645380Y-65854580D01*
X144645380Y-65854580D02*
X149926040Y-71135240D01*
X149926040Y-71135240D02*
X160550860Y-71135240D01*
X160550860Y-71135240D02*
X161925000Y-69761100D01*
X135069820Y-62523060D02*
X135695380Y-62523060D01*
X135069820Y-62523060D02*
X135069820Y-63040500D01*
D32*
X212336480Y-101030000D02*
X212228200Y-101030000D01*
X203987400Y-106898440D02*
X204243940Y-106898440D01*
X210286600Y-109423200D02*
X212336480Y-111473080D01*
X206768700Y-109423200D02*
X210286600Y-109423200D01*
X204243940Y-106898440D02*
X206768700Y-109423200D01*
X212336480Y-111473080D02*
X212336480Y-112490000D01*
X167490340Y-104001260D02*
X170610220Y-104001260D01*
X212336480Y-111473080D02*
X212336480Y-112490000D01*
X173507400Y-106898440D02*
X203987400Y-106898440D01*
X170610220Y-104001260D02*
X173507400Y-106898440D01*
X197891400Y-112095280D02*
X204284580Y-112095280D01*
X212336480Y-115437820D02*
X212336480Y-114530000D01*
X211645500Y-116128800D02*
X212336480Y-115437820D01*
X208318100Y-116128800D02*
X211645500Y-116128800D01*
X204284580Y-112095280D02*
X208318100Y-116128800D01*
X167490340Y-109081260D02*
X171052180Y-109081260D01*
X174066200Y-112095280D02*
X197891400Y-112095280D01*
X171052180Y-109081260D02*
X174066200Y-112095280D01*
D31*
X161026000Y-57267000D02*
X162613500Y-57267000D01*
X210936840Y-82524600D02*
X212336480Y-83924240D01*
X196748400Y-82524600D02*
X210936840Y-82524600D01*
X174269400Y-60045600D02*
X196748400Y-82524600D01*
X165392100Y-60045600D02*
X174269400Y-60045600D01*
X162613500Y-57267000D02*
X165392100Y-60045600D01*
X212336480Y-83924240D02*
X212336480Y-85490000D01*
X166187120Y-64094360D02*
X174038260Y-64094360D01*
X211352560Y-88513920D02*
X212336480Y-87530000D01*
X198457820Y-88513920D02*
X211352560Y-88513920D01*
X174038260Y-64094360D02*
X198457820Y-88513920D01*
X161026000Y-62347000D02*
X162707480Y-62347000D01*
X164454840Y-64094360D02*
X166187120Y-64094360D01*
X162707480Y-62347000D02*
X164454840Y-64094360D01*
D32*
X161026000Y-62347000D02*
X161026000Y-62537500D01*
D34*
G36*
X215826480Y-56034046D02*
X211819847Y-52027413D01*
X212425624Y-51777111D01*
X213171731Y-51032305D01*
X213576019Y-50058670D01*
X213576939Y-49004435D01*
X213174351Y-48030096D01*
X212429545Y-47283989D01*
X211455910Y-46879701D01*
X210401675Y-46878781D01*
X209427336Y-47281369D01*
X208681229Y-48026175D01*
X208276941Y-48999810D01*
X208276399Y-49621380D01*
X205121987Y-49621380D01*
X205342372Y-49401379D01*
X205847504Y-48184888D01*
X205848653Y-46867691D01*
X205345646Y-45650320D01*
X204415059Y-44718108D01*
X203198568Y-44212976D01*
X201881371Y-44211827D01*
X200664000Y-44714834D01*
X199731788Y-45645421D01*
X199226656Y-46861912D01*
X199226007Y-47606283D01*
X199016608Y-47280868D01*
X199143160Y-47091469D01*
X199282080Y-46393072D01*
X199282080Y-45913728D01*
X199143160Y-45215331D01*
X198747550Y-44623258D01*
X198155477Y-44227648D01*
X197457080Y-44088728D01*
X196758683Y-44227648D01*
X196187080Y-44609580D01*
X195615477Y-44227648D01*
X194917080Y-44088728D01*
X194218683Y-44227648D01*
X193647080Y-44609580D01*
X193075477Y-44227648D01*
X192377080Y-44088728D01*
X191678683Y-44227648D01*
X191107080Y-44609580D01*
X190535477Y-44227648D01*
X189837080Y-44088728D01*
X189138683Y-44227648D01*
X188567080Y-44609580D01*
X187995477Y-44227648D01*
X187297080Y-44088728D01*
X186598683Y-44227648D01*
X186027080Y-44609580D01*
X185455477Y-44227648D01*
X184757080Y-44088728D01*
X184058683Y-44227648D01*
X183487080Y-44609580D01*
X182915477Y-44227648D01*
X182217080Y-44088728D01*
X181518683Y-44227648D01*
X180947080Y-44609580D01*
X180375477Y-44227648D01*
X179677080Y-44088728D01*
X178978683Y-44227648D01*
X178407080Y-44609580D01*
X177835477Y-44227648D01*
X177137080Y-44088728D01*
X176438683Y-44227648D01*
X175867080Y-44609580D01*
X175295477Y-44227648D01*
X174597080Y-44088728D01*
X173898683Y-44227648D01*
X173327080Y-44609580D01*
X172755477Y-44227648D01*
X172057080Y-44088728D01*
X171358683Y-44227648D01*
X170787080Y-44609580D01*
X170215477Y-44227648D01*
X169517080Y-44088728D01*
X168818683Y-44227648D01*
X168247080Y-44609580D01*
X167675477Y-44227648D01*
X166977080Y-44088728D01*
X166278683Y-44227648D01*
X165707080Y-44609580D01*
X165135477Y-44227648D01*
X164437080Y-44088728D01*
X163738683Y-44227648D01*
X163167080Y-44609580D01*
X162595477Y-44227648D01*
X161897080Y-44088728D01*
X161198683Y-44227648D01*
X160627080Y-44609580D01*
X160055477Y-44227648D01*
X159357080Y-44088728D01*
X158658683Y-44227648D01*
X158087080Y-44609580D01*
X157515477Y-44227648D01*
X156817080Y-44088728D01*
X156118683Y-44227648D01*
X155547080Y-44609580D01*
X154975477Y-44227648D01*
X154277080Y-44088728D01*
X153578683Y-44227648D01*
X153007080Y-44609580D01*
X152435477Y-44227648D01*
X151737080Y-44088728D01*
X151038683Y-44227648D01*
X150467080Y-44609580D01*
X149895477Y-44227648D01*
X149197080Y-44088728D01*
X148498683Y-44227648D01*
X147927080Y-44609580D01*
X147355477Y-44227648D01*
X146657080Y-44088728D01*
X145958683Y-44227648D01*
X145387080Y-44609580D01*
X144815477Y-44227648D01*
X144117080Y-44088728D01*
X143418683Y-44227648D01*
X142847080Y-44609580D01*
X142275477Y-44227648D01*
X141577080Y-44088728D01*
X140878683Y-44227648D01*
X140286610Y-44623258D01*
X139891000Y-45215331D01*
X139752080Y-45913728D01*
X139752080Y-46393072D01*
X139891000Y-47091469D01*
X140179607Y-47523400D01*
X139891000Y-47955331D01*
X139752080Y-48653728D01*
X139752080Y-49133072D01*
X139891000Y-49831469D01*
X140286610Y-50423542D01*
X140878683Y-50819152D01*
X141577080Y-50958072D01*
X142275477Y-50819152D01*
X142847080Y-50437220D01*
X143418683Y-50819152D01*
X144117080Y-50958072D01*
X144815477Y-50819152D01*
X145387080Y-50437220D01*
X145958683Y-50819152D01*
X146657080Y-50958072D01*
X147355477Y-50819152D01*
X147927080Y-50437220D01*
X148498683Y-50819152D01*
X149197080Y-50958072D01*
X149895477Y-50819152D01*
X150467080Y-50437220D01*
X151038683Y-50819152D01*
X151737080Y-50958072D01*
X152435477Y-50819152D01*
X153007080Y-50437220D01*
X153578683Y-50819152D01*
X154277080Y-50958072D01*
X154975477Y-50819152D01*
X155547080Y-50437220D01*
X156118683Y-50819152D01*
X156817080Y-50958072D01*
X157515477Y-50819152D01*
X158087080Y-50437220D01*
X158658683Y-50819152D01*
X159357080Y-50958072D01*
X160055477Y-50819152D01*
X160627080Y-50437220D01*
X161198683Y-50819152D01*
X161897080Y-50958072D01*
X162595477Y-50819152D01*
X163167080Y-50437220D01*
X163738683Y-50819152D01*
X164437080Y-50958072D01*
X165135477Y-50819152D01*
X165707080Y-50437220D01*
X166278683Y-50819152D01*
X166977080Y-50958072D01*
X167675477Y-50819152D01*
X168247080Y-50437220D01*
X168818683Y-50819152D01*
X169517080Y-50958072D01*
X170215477Y-50819152D01*
X170787080Y-50437220D01*
X171358683Y-50819152D01*
X172057080Y-50958072D01*
X172755477Y-50819152D01*
X173327080Y-50437220D01*
X173898683Y-50819152D01*
X174597080Y-50958072D01*
X175295477Y-50819152D01*
X175867080Y-50437220D01*
X176438683Y-50819152D01*
X177137080Y-50958072D01*
X177835477Y-50819152D01*
X178407080Y-50437220D01*
X178978683Y-50819152D01*
X179677080Y-50958072D01*
X180375477Y-50819152D01*
X180947080Y-50437220D01*
X181518683Y-50819152D01*
X182217080Y-50958072D01*
X182915477Y-50819152D01*
X183487080Y-50437220D01*
X184058683Y-50819152D01*
X184757080Y-50958072D01*
X185455477Y-50819152D01*
X185855560Y-50551825D01*
X185855560Y-56295441D01*
X185801856Y-56329999D01*
X185567818Y-56672525D01*
X185485480Y-57079120D01*
X185485480Y-58379120D01*
X185556952Y-58758962D01*
X185781439Y-59107824D01*
X185855560Y-59158469D01*
X185855560Y-60209440D01*
X185964032Y-60754764D01*
X186272933Y-61217067D01*
X190660773Y-65604907D01*
X191123076Y-65913808D01*
X191668400Y-66022280D01*
X204129640Y-66022280D01*
X204674964Y-65913808D01*
X204700487Y-65896754D01*
X207492805Y-65896754D01*
X207949800Y-66353749D01*
X208406795Y-65896754D01*
X212492805Y-65896754D01*
X212949800Y-66353749D01*
X213406795Y-65896754D01*
X213244498Y-65811765D01*
X212757589Y-65791379D01*
X212655102Y-65811765D01*
X212492805Y-65896754D01*
X208406795Y-65896754D01*
X208244498Y-65811765D01*
X207757589Y-65791379D01*
X207655102Y-65811765D01*
X207492805Y-65896754D01*
X204700487Y-65896754D01*
X205137267Y-65604907D01*
X208210667Y-62531507D01*
X208519568Y-62069204D01*
X208628040Y-61523880D01*
X208628040Y-61065997D01*
X208678609Y-61188384D01*
X209423415Y-61934491D01*
X210397050Y-62338779D01*
X211451285Y-62339699D01*
X212425624Y-61937111D01*
X213171731Y-61192305D01*
X213576019Y-60218670D01*
X213576939Y-59164435D01*
X213174351Y-58190096D01*
X212429545Y-57443989D01*
X211455910Y-57039701D01*
X210401675Y-57038781D01*
X209427336Y-57441369D01*
X208681229Y-58186175D01*
X208628040Y-58314269D01*
X208628040Y-54612540D01*
X208519568Y-54067216D01*
X208210667Y-53604913D01*
X207077134Y-52471380D01*
X208233306Y-52471380D01*
X213992400Y-58230474D01*
X213992400Y-66654651D01*
X213621551Y-67025500D01*
X213992400Y-67396349D01*
X213992400Y-71654651D01*
X213621551Y-72025500D01*
X213992400Y-72396349D01*
X213992400Y-73369466D01*
X212180466Y-75181400D01*
X196373455Y-75181400D01*
X193385045Y-72192990D01*
X194721180Y-72192990D01*
X194721180Y-72561604D01*
X194740210Y-72607547D01*
X194775373Y-72642710D01*
X194821316Y-72661740D01*
X195139930Y-72661740D01*
X195171180Y-72630490D01*
X195171180Y-72161740D01*
X195821180Y-72161740D01*
X195821180Y-72630490D01*
X195852430Y-72661740D01*
X196171044Y-72661740D01*
X196216987Y-72642710D01*
X196252150Y-72607547D01*
X196271180Y-72561604D01*
X196271180Y-72192990D01*
X196239930Y-72161740D01*
X195821180Y-72161740D01*
X195171180Y-72161740D01*
X194752430Y-72161740D01*
X194721180Y-72192990D01*
X193385045Y-72192990D01*
X192203931Y-71011876D01*
X194721180Y-71011876D01*
X194721180Y-71380490D01*
X194752430Y-71411740D01*
X195171180Y-71411740D01*
X195171180Y-70942990D01*
X195821180Y-70942990D01*
X195821180Y-71411740D01*
X196239930Y-71411740D01*
X196271180Y-71380490D01*
X196271180Y-71011876D01*
X196252150Y-70965933D01*
X196216987Y-70930770D01*
X196171044Y-70911740D01*
X195852430Y-70911740D01*
X195821180Y-70942990D01*
X195171180Y-70942990D01*
X195139930Y-70911740D01*
X194821316Y-70911740D01*
X194775373Y-70930770D01*
X194740210Y-70965933D01*
X194721180Y-71011876D01*
X192203931Y-71011876D01*
X191630906Y-70438852D01*
X191997340Y-70511740D01*
X194062501Y-70511740D01*
X194097059Y-70565444D01*
X194439585Y-70799482D01*
X194846180Y-70881820D01*
X196146180Y-70881820D01*
X196526022Y-70810348D01*
X196834667Y-70611740D01*
X197863494Y-70611740D01*
X197850918Y-70630145D01*
X197768580Y-71036740D01*
X197768580Y-72536740D01*
X197840052Y-72916582D01*
X198064539Y-73265444D01*
X198407065Y-73499482D01*
X198813660Y-73581820D01*
X200113660Y-73581820D01*
X200493502Y-73510348D01*
X200802147Y-73311740D01*
X203219060Y-73311740D01*
X203802652Y-73195656D01*
X203864626Y-73154246D01*
X207492805Y-73154246D01*
X207655102Y-73239235D01*
X208142011Y-73259621D01*
X208244498Y-73239235D01*
X208406795Y-73154246D01*
X212492805Y-73154246D01*
X212655102Y-73239235D01*
X213142011Y-73259621D01*
X213244498Y-73239235D01*
X213406795Y-73154246D01*
X212949800Y-72697251D01*
X212492805Y-73154246D01*
X208406795Y-73154246D01*
X207949800Y-72697251D01*
X207492805Y-73154246D01*
X203864626Y-73154246D01*
X204297398Y-72865078D01*
X204944765Y-72217711D01*
X206715679Y-72217711D01*
X206736065Y-72320198D01*
X206821054Y-72482495D01*
X207278049Y-72025500D01*
X208621551Y-72025500D01*
X209078546Y-72482495D01*
X209163535Y-72320198D01*
X209167825Y-72217711D01*
X211715679Y-72217711D01*
X211736065Y-72320198D01*
X211821054Y-72482495D01*
X212278049Y-72025500D01*
X211821054Y-71568505D01*
X211736065Y-71730802D01*
X211715679Y-72217711D01*
X209167825Y-72217711D01*
X209183921Y-71833289D01*
X209163535Y-71730802D01*
X209078546Y-71568505D01*
X208621551Y-72025500D01*
X207278049Y-72025500D01*
X206821054Y-71568505D01*
X206736065Y-71730802D01*
X206715679Y-72217711D01*
X204944765Y-72217711D01*
X206111976Y-71050500D01*
X207646551Y-71050500D01*
X207949800Y-71353749D01*
X208253049Y-71050500D01*
X208969556Y-71050500D01*
X209244513Y-71325937D01*
X210025257Y-71650130D01*
X210870634Y-71650868D01*
X211651943Y-71328038D01*
X212083980Y-70896754D01*
X212492805Y-70896754D01*
X212949800Y-71353749D01*
X213406795Y-70896754D01*
X213244498Y-70811765D01*
X212757589Y-70791379D01*
X212655102Y-70811765D01*
X212492805Y-70896754D01*
X212083980Y-70896754D01*
X212250237Y-70730787D01*
X212574430Y-69950043D01*
X212575168Y-69104666D01*
X212252338Y-68323357D01*
X212083522Y-68154246D01*
X212492805Y-68154246D01*
X212655102Y-68239235D01*
X213142011Y-68259621D01*
X213244498Y-68239235D01*
X213406795Y-68154246D01*
X212949800Y-67697251D01*
X212492805Y-68154246D01*
X212083522Y-68154246D01*
X211655087Y-67725063D01*
X210874343Y-67400870D01*
X210028966Y-67400132D01*
X209247657Y-67722962D01*
X208969634Y-68000500D01*
X208253049Y-68000500D01*
X207949800Y-67697251D01*
X207646551Y-68000500D01*
X205480300Y-68000500D01*
X204896708Y-68116584D01*
X204401962Y-68447162D01*
X202587384Y-70261740D01*
X201063826Y-70261740D01*
X201076402Y-70243335D01*
X201158740Y-69836740D01*
X201158740Y-68336740D01*
X201087268Y-67956898D01*
X200862781Y-67608036D01*
X200520255Y-67373998D01*
X200113660Y-67291660D01*
X198813660Y-67291660D01*
X198433818Y-67363132D01*
X198125173Y-67561740D01*
X196827545Y-67561740D01*
X196552775Y-67373998D01*
X196146180Y-67291660D01*
X194846180Y-67291660D01*
X194466338Y-67363132D01*
X194117476Y-67587619D01*
X194066831Y-67661740D01*
X192587594Y-67661740D01*
X192143565Y-67217711D01*
X206715679Y-67217711D01*
X206736065Y-67320198D01*
X206821054Y-67482495D01*
X207278049Y-67025500D01*
X208621551Y-67025500D01*
X209078546Y-67482495D01*
X209163535Y-67320198D01*
X209167825Y-67217711D01*
X211715679Y-67217711D01*
X211736065Y-67320198D01*
X211821054Y-67482495D01*
X212278049Y-67025500D01*
X211821054Y-66568505D01*
X211736065Y-66730802D01*
X211715679Y-67217711D01*
X209167825Y-67217711D01*
X209183921Y-66833289D01*
X209163535Y-66730802D01*
X209078546Y-66568505D01*
X208621551Y-67025500D01*
X207278049Y-67025500D01*
X206821054Y-66568505D01*
X206736065Y-66730802D01*
X206715679Y-67217711D01*
X192143565Y-67217711D01*
X176305727Y-51379873D01*
X175843424Y-51070972D01*
X175298100Y-50962500D01*
X140563600Y-50962500D01*
X140082465Y-51058204D01*
X140018276Y-51070972D01*
X139807633Y-51211719D01*
X139808653Y-50042691D01*
X139305646Y-48825320D01*
X138375059Y-47893108D01*
X137158568Y-47387976D01*
X135841371Y-47386827D01*
X134624000Y-47889834D01*
X133691788Y-48820421D01*
X133186656Y-50036912D01*
X133185507Y-51354109D01*
X133653401Y-52486500D01*
X131246880Y-52486500D01*
X130701556Y-52594972D01*
X130530542Y-52709240D01*
X130239253Y-52903873D01*
X127770373Y-55372753D01*
X127461472Y-55835056D01*
X127353000Y-56380380D01*
X127353000Y-69265800D01*
X127461472Y-69811124D01*
X127770373Y-70273427D01*
X131316213Y-73819267D01*
X131778516Y-74128168D01*
X132323840Y-74236640D01*
X133636330Y-74236640D01*
X133618289Y-74254650D01*
X133355120Y-74888431D01*
X133354521Y-75574678D01*
X133616583Y-76208918D01*
X134101410Y-76694591D01*
X134735191Y-76957760D01*
X135421438Y-76958359D01*
X136055678Y-76696297D01*
X136541351Y-76211470D01*
X136804520Y-75577689D01*
X136805119Y-74891442D01*
X136727982Y-74704756D01*
X152852080Y-90828854D01*
X152852080Y-92766013D01*
X152435477Y-92487648D01*
X151737080Y-92348728D01*
X151038683Y-92487648D01*
X150467080Y-92869580D01*
X149895477Y-92487648D01*
X149197080Y-92348728D01*
X148498683Y-92487648D01*
X147927080Y-92869580D01*
X147355477Y-92487648D01*
X146657080Y-92348728D01*
X145958683Y-92487648D01*
X145366610Y-92883258D01*
X144971000Y-93475331D01*
X144906808Y-93798046D01*
X144699421Y-93534013D01*
X144642628Y-93452201D01*
X144517080Y-93414157D01*
X144517080Y-93938400D01*
X144612080Y-93938400D01*
X144612080Y-94888400D01*
X144517080Y-94888400D01*
X144517080Y-95412643D01*
X144642628Y-95374599D01*
X144699421Y-95292787D01*
X144906808Y-95028754D01*
X144971000Y-95351469D01*
X145259607Y-95783400D01*
X144971000Y-96215331D01*
X144906808Y-96538046D01*
X144699421Y-96274013D01*
X144642628Y-96192201D01*
X144517080Y-96154157D01*
X144517080Y-96678400D01*
X144612080Y-96678400D01*
X144612080Y-97628400D01*
X144517080Y-97628400D01*
X144517080Y-98152643D01*
X144642628Y-98114599D01*
X144699421Y-98032787D01*
X144906808Y-97768754D01*
X144971000Y-98091469D01*
X145366610Y-98683542D01*
X145958683Y-99079152D01*
X146657080Y-99218072D01*
X147355477Y-99079152D01*
X147927080Y-98697220D01*
X148498683Y-99079152D01*
X149197080Y-99218072D01*
X149895477Y-99079152D01*
X150467080Y-98697220D01*
X151038683Y-99079152D01*
X151737080Y-99218072D01*
X152435477Y-99079152D01*
X153007080Y-98697220D01*
X153578683Y-99079152D01*
X154277080Y-99218072D01*
X154975477Y-99079152D01*
X155547080Y-98697220D01*
X156118683Y-99079152D01*
X156817080Y-99218072D01*
X157515477Y-99079152D01*
X158087080Y-98697220D01*
X158658683Y-99079152D01*
X159357080Y-99218072D01*
X160055477Y-99079152D01*
X160627080Y-98697220D01*
X161198683Y-99079152D01*
X161897080Y-99218072D01*
X162595477Y-99079152D01*
X163167080Y-98697220D01*
X163738683Y-99079152D01*
X164437080Y-99218072D01*
X165135477Y-99079152D01*
X165707080Y-98697220D01*
X166278683Y-99079152D01*
X166977080Y-99218072D01*
X167675477Y-99079152D01*
X168247080Y-98697220D01*
X168818683Y-99079152D01*
X169517080Y-99218072D01*
X170215477Y-99079152D01*
X170787080Y-98697220D01*
X171358683Y-99079152D01*
X172057080Y-99218072D01*
X172755477Y-99079152D01*
X173327080Y-98697220D01*
X173898683Y-99079152D01*
X174597080Y-99218072D01*
X175295477Y-99079152D01*
X175867080Y-98697220D01*
X176438683Y-99079152D01*
X177137080Y-99218072D01*
X177835477Y-99079152D01*
X178407080Y-98697220D01*
X178978683Y-99079152D01*
X179677080Y-99218072D01*
X180375477Y-99079152D01*
X180947080Y-98697220D01*
X181518683Y-99079152D01*
X182217080Y-99218072D01*
X182915477Y-99079152D01*
X183487080Y-98697220D01*
X184058683Y-99079152D01*
X184757080Y-99218072D01*
X185455477Y-99079152D01*
X186027080Y-98697220D01*
X186598683Y-99079152D01*
X187297080Y-99218072D01*
X187995477Y-99079152D01*
X188567080Y-98697220D01*
X189138683Y-99079152D01*
X189498852Y-99150794D01*
X188461946Y-100187700D01*
X142779454Y-100187700D01*
X140440927Y-97849173D01*
X140110517Y-97628400D01*
X140756824Y-97628400D01*
X140779077Y-97758219D01*
X140994739Y-98032787D01*
X141051532Y-98114599D01*
X141177080Y-98152643D01*
X141177080Y-97628400D01*
X141977080Y-97628400D01*
X141977080Y-98152643D01*
X142102628Y-98114599D01*
X142159421Y-98032787D01*
X142375083Y-97758219D01*
X142397336Y-97628400D01*
X143296824Y-97628400D01*
X143319077Y-97758219D01*
X143534739Y-98032787D01*
X143591532Y-98114599D01*
X143717080Y-98152643D01*
X143717080Y-97628400D01*
X143296824Y-97628400D01*
X142397336Y-97628400D01*
X141977080Y-97628400D01*
X141177080Y-97628400D01*
X140756824Y-97628400D01*
X140110517Y-97628400D01*
X139978624Y-97540272D01*
X139433300Y-97431800D01*
X127568960Y-97431800D01*
X127023636Y-97540272D01*
X126561333Y-97849173D01*
X124219453Y-100191053D01*
X123910552Y-100653356D01*
X123802080Y-101198680D01*
X123802080Y-107233720D01*
X123910552Y-107779044D01*
X124219453Y-108241347D01*
X135973040Y-119994934D01*
X135437382Y-120216263D01*
X134951709Y-120701090D01*
X134688540Y-121334871D01*
X134687941Y-122021118D01*
X134950003Y-122655358D01*
X135434830Y-123141031D01*
X136068611Y-123404200D01*
X136754858Y-123404799D01*
X137389098Y-123142737D01*
X137874771Y-122657910D01*
X138098124Y-122120018D01*
X138665233Y-122687127D01*
X139127536Y-122996028D01*
X139672860Y-123104500D01*
X142581736Y-123104500D01*
X142584119Y-123108204D01*
X142926645Y-123342242D01*
X143333240Y-123424580D01*
X144733240Y-123424580D01*
X145113082Y-123353108D01*
X145461944Y-123128621D01*
X145695982Y-122786095D01*
X145778320Y-122379500D01*
X145778320Y-121656974D01*
X156220913Y-132099567D01*
X156683216Y-132408468D01*
X157228540Y-132516940D01*
X209274540Y-132516940D01*
X209574866Y-132457201D01*
X209606585Y-132616666D01*
X210023872Y-133241181D01*
X210648387Y-133658468D01*
X211385053Y-133805000D01*
X212887907Y-133805000D01*
X213624573Y-133658468D01*
X214249088Y-133241181D01*
X214666375Y-132616666D01*
X214812907Y-131880000D01*
X214666375Y-131143334D01*
X214249088Y-130518819D01*
X213624573Y-130101532D01*
X212887907Y-129955000D01*
X212426734Y-129955000D01*
X212811322Y-129570412D01*
X213244452Y-129391446D01*
X213696340Y-128940347D01*
X213941201Y-128350655D01*
X213941758Y-127712146D01*
X213697926Y-127122028D01*
X213586294Y-127010201D01*
X213696340Y-126900347D01*
X213941201Y-126310655D01*
X213941758Y-125672146D01*
X213761480Y-125235840D01*
X213761480Y-124729340D01*
X213653008Y-124184016D01*
X213344107Y-123721713D01*
X212667394Y-123045000D01*
X212887907Y-123045000D01*
X213624573Y-122898468D01*
X214249088Y-122481181D01*
X214666375Y-121856666D01*
X214812907Y-121120000D01*
X214666375Y-120383334D01*
X214249088Y-119758819D01*
X214235889Y-119750000D01*
X214249088Y-119741181D01*
X214666375Y-119116666D01*
X214812907Y-118380000D01*
X214666375Y-117643334D01*
X214249088Y-117018819D01*
X213624573Y-116601532D01*
X213378409Y-116552567D01*
X213414818Y-116516158D01*
X213745396Y-116021412D01*
X213861480Y-115437820D01*
X213861480Y-115042645D01*
X213941201Y-114850655D01*
X213941758Y-114212146D01*
X213697926Y-113622028D01*
X213586294Y-113510201D01*
X213696340Y-113400347D01*
X213941201Y-112810655D01*
X213941758Y-112172146D01*
X213861480Y-111977859D01*
X213861480Y-111473080D01*
X213745396Y-110889488D01*
X213414818Y-110394742D01*
X212565076Y-109545000D01*
X212887907Y-109545000D01*
X213624573Y-109398468D01*
X214249088Y-108981181D01*
X214666375Y-108356666D01*
X214812907Y-107620000D01*
X214666375Y-106883334D01*
X214249088Y-106258819D01*
X214235889Y-106250000D01*
X214249088Y-106241181D01*
X214666375Y-105616666D01*
X214812907Y-104880000D01*
X214666375Y-104143334D01*
X214249088Y-103518819D01*
X213624573Y-103101532D01*
X212887907Y-102955000D01*
X212426734Y-102955000D01*
X212811322Y-102570412D01*
X213244452Y-102391446D01*
X213696340Y-101940347D01*
X213941201Y-101350655D01*
X213941758Y-100712146D01*
X213697926Y-100122028D01*
X213586294Y-100010201D01*
X213696340Y-99900347D01*
X213941201Y-99310655D01*
X213941758Y-98672146D01*
X213761480Y-98235840D01*
X213761480Y-97853600D01*
X213653008Y-97308276D01*
X213344107Y-96845973D01*
X212543134Y-96045000D01*
X212887907Y-96045000D01*
X213624573Y-95898468D01*
X214249088Y-95481181D01*
X214666375Y-94856666D01*
X214812907Y-94120000D01*
X214666375Y-93383334D01*
X214249088Y-92758819D01*
X214235889Y-92750000D01*
X214249088Y-92741181D01*
X214666375Y-92116666D01*
X214812907Y-91380000D01*
X214666375Y-90643334D01*
X214249088Y-90018819D01*
X213624573Y-89601532D01*
X212887907Y-89455000D01*
X212426734Y-89455000D01*
X212811322Y-89070412D01*
X213244452Y-88891446D01*
X213696340Y-88440347D01*
X213941201Y-87850655D01*
X213941758Y-87212146D01*
X213697926Y-86622028D01*
X213586294Y-86510201D01*
X213696340Y-86400347D01*
X213941201Y-85810655D01*
X213941758Y-85172146D01*
X213761480Y-84735840D01*
X213761480Y-83924240D01*
X213653008Y-83378916D01*
X213344107Y-82916613D01*
X212958460Y-82530966D01*
X213624573Y-82398468D01*
X214249088Y-81981181D01*
X214666375Y-81356666D01*
X214812907Y-80620000D01*
X214666375Y-79883334D01*
X214249088Y-79258819D01*
X213624573Y-78841532D01*
X212887907Y-78695000D01*
X211385053Y-78695000D01*
X210648387Y-78841532D01*
X210023872Y-79258819D01*
X209606585Y-79883334D01*
X209460053Y-80620000D01*
X209555451Y-81099600D01*
X197338654Y-81099600D01*
X175277027Y-59037973D01*
X174814724Y-58729072D01*
X174269400Y-58620600D01*
X169751704Y-58620600D01*
X170117531Y-58255410D01*
X170380700Y-57621629D01*
X170381299Y-56935382D01*
X170303131Y-56746200D01*
X173907746Y-56746200D01*
X194775573Y-77614028D01*
X194775576Y-77614030D01*
X194778113Y-77616567D01*
X195240416Y-77925468D01*
X195785740Y-78033940D01*
X195798509Y-78031400D01*
X212770720Y-78031400D01*
X213316044Y-77922928D01*
X213778347Y-77614027D01*
X215826480Y-75565894D01*
X215826480Y-137030280D01*
X88008529Y-137030280D01*
X87995760Y-137027740D01*
X58011240Y-137027740D01*
X58011240Y-122615642D01*
X62150692Y-122615642D01*
X62150735Y-122615858D01*
X62150692Y-122616075D01*
X62150818Y-123173189D01*
X62150866Y-123173430D01*
X62150818Y-123173673D01*
X62151178Y-123690674D01*
X62151235Y-123690959D01*
X62151179Y-123691241D01*
X62151768Y-124163902D01*
X62151837Y-124164245D01*
X62151769Y-124164589D01*
X62152580Y-124588683D01*
X62152669Y-124589124D01*
X62152582Y-124589565D01*
X62153610Y-124960866D01*
X62153732Y-124961470D01*
X62153614Y-124962076D01*
X62154853Y-125276356D01*
X62155037Y-125277265D01*
X62154862Y-125278174D01*
X62156306Y-125531208D01*
X62156628Y-125532778D01*
X62156329Y-125534352D01*
X62157972Y-125721913D01*
X62158700Y-125725414D01*
X62158057Y-125728934D01*
X62159893Y-125846794D01*
X62163247Y-125862384D01*
X62160859Y-125878152D01*
X62162883Y-125922086D01*
X62169581Y-125949175D01*
X62166881Y-125976949D01*
X62181940Y-126026364D01*
X62181360Y-126061254D01*
X62223974Y-126169169D01*
X62259344Y-126312225D01*
X62275898Y-126334688D01*
X62278489Y-126343193D01*
X62260938Y-126431430D01*
X62260938Y-127106996D01*
X62261065Y-127107635D01*
X62260939Y-127108274D01*
X62261116Y-127250883D01*
X62261876Y-127254680D01*
X62261153Y-127258487D01*
X62262989Y-127471397D01*
X62265496Y-127483458D01*
X62263483Y-127495608D01*
X62268506Y-127651864D01*
X62274739Y-127678669D01*
X62271676Y-127706018D01*
X62281332Y-127819602D01*
X62295550Y-127868832D01*
X62294880Y-127920069D01*
X62310616Y-128004967D01*
X62336904Y-128070856D01*
X62345653Y-128141253D01*
X62368914Y-128211446D01*
X62398272Y-128263158D01*
X62412294Y-128320943D01*
X62441885Y-128384723D01*
X62339342Y-128538189D01*
X62260938Y-128932353D01*
X62260938Y-129244969D01*
X62339342Y-129639133D01*
X62562618Y-129973289D01*
X62896774Y-130196565D01*
X63290938Y-130274969D01*
X69974380Y-130274969D01*
X69963520Y-130307913D01*
X69966324Y-130345603D01*
X69957122Y-130382257D01*
X69981146Y-130544814D01*
X69993339Y-130708691D01*
X70010353Y-130742438D01*
X70015878Y-130779825D01*
X70100283Y-130920818D01*
X70174259Y-131067551D01*
X70202892Y-131092218D01*
X70222304Y-131124645D01*
X70354241Y-131222605D01*
X70377652Y-131242774D01*
X70429804Y-131295877D01*
X70448523Y-131303829D01*
X70478737Y-131329859D01*
X70514630Y-131341691D01*
X70544974Y-131364221D01*
X70568874Y-131375541D01*
X70687310Y-131405275D01*
X70799694Y-131453020D01*
X70876724Y-131469067D01*
X70895189Y-131469234D01*
X70909514Y-131474732D01*
X70924507Y-131499746D01*
X70931215Y-131504721D01*
X70935829Y-131518156D01*
X70938543Y-131564398D01*
X70953121Y-131620326D01*
X71014181Y-131746301D01*
X71059653Y-131878705D01*
X71101102Y-131925630D01*
X71128410Y-131981970D01*
X71233030Y-132074988D01*
X71325710Y-132179913D01*
X71359182Y-132205408D01*
X71404781Y-132227693D01*
X71428751Y-132249005D01*
X71496504Y-132272520D01*
X71537096Y-132292359D01*
X71714567Y-132380353D01*
X71717561Y-132380556D01*
X71720254Y-132381872D01*
X71917923Y-132394121D01*
X72115535Y-132407500D01*
X72118376Y-132406542D01*
X72121371Y-132406728D01*
X72308807Y-132342356D01*
X72496370Y-132279137D01*
X72498627Y-132277166D01*
X72501466Y-132276191D01*
X72649979Y-132145009D01*
X72799094Y-132014806D01*
X72832308Y-131971713D01*
X72838733Y-131958754D01*
X72849362Y-131948943D01*
X72927767Y-131779187D01*
X72987312Y-131659095D01*
X73028184Y-131691749D01*
X73035181Y-131693772D01*
X73040934Y-131698238D01*
X73081322Y-131718442D01*
X73259784Y-131767352D01*
X73436605Y-131821853D01*
X73522316Y-131830681D01*
X73568696Y-131826322D01*
X73614258Y-131836011D01*
X73761690Y-131837956D01*
X73771970Y-131836052D01*
X73782237Y-131838022D01*
X73828851Y-131837707D01*
X73858127Y-131831678D01*
X73887761Y-131835623D01*
X74051706Y-131825117D01*
X74161549Y-131795856D01*
X74229821Y-131789833D01*
X74319095Y-131822775D01*
X74371218Y-131820731D01*
X74421720Y-131833801D01*
X74466977Y-131836379D01*
X74499333Y-131831837D01*
X74531413Y-131838029D01*
X74547937Y-131837935D01*
X74592240Y-131828860D01*
X74609543Y-131831816D01*
X74641164Y-131824628D01*
X74690625Y-131827184D01*
X74730118Y-131821428D01*
X74754883Y-131812638D01*
X74769315Y-131818061D01*
X74807682Y-131824375D01*
X74816759Y-131824073D01*
X74820021Y-131825117D01*
X74843119Y-131823197D01*
X74885015Y-131821803D01*
X74946593Y-131836712D01*
X74975998Y-131832113D01*
X75008597Y-131837496D01*
X75022666Y-131837036D01*
X75121781Y-131813930D01*
X75209346Y-131811018D01*
X75261161Y-131787509D01*
X75343651Y-131774606D01*
X75378166Y-131761948D01*
X75380288Y-131760654D01*
X75382740Y-131760258D01*
X75401418Y-131748740D01*
X75412072Y-131746256D01*
X75460924Y-131758899D01*
X75465424Y-131761869D01*
X75492857Y-131767164D01*
X75506742Y-131770757D01*
X75647711Y-131822775D01*
X75699833Y-131820731D01*
X75750334Y-131833801D01*
X75795591Y-131836379D01*
X75827948Y-131831837D01*
X75860028Y-131838029D01*
X75876553Y-131837935D01*
X75920856Y-131828860D01*
X75938158Y-131831816D01*
X75969782Y-131824628D01*
X76019244Y-131827183D01*
X76058737Y-131821428D01*
X76122742Y-131798709D01*
X76214247Y-131825114D01*
X76319573Y-131834044D01*
X76364209Y-131829034D01*
X76408278Y-131837725D01*
X76541197Y-131837507D01*
X76572493Y-131831228D01*
X76604125Y-131835479D01*
X76738537Y-131827030D01*
X76778724Y-131816377D01*
X76820238Y-131818613D01*
X76930041Y-131802855D01*
X76985162Y-131783426D01*
X77109836Y-131821853D01*
X77195548Y-131830681D01*
X77241927Y-131826322D01*
X77287489Y-131836011D01*
X77434921Y-131837956D01*
X77445201Y-131836052D01*
X77455468Y-131838022D01*
X77502082Y-131837707D01*
X77531358Y-131831678D01*
X77560992Y-131835623D01*
X77724937Y-131825117D01*
X77834783Y-131795855D01*
X77948014Y-131785865D01*
X78049842Y-131756104D01*
X78112046Y-131723665D01*
X78180465Y-131708135D01*
X78288660Y-131631561D01*
X78406184Y-131570273D01*
X78451241Y-131516497D01*
X78508506Y-131475968D01*
X78560556Y-131421045D01*
X78614963Y-131334687D01*
X78685081Y-131260518D01*
X78721035Y-131166324D01*
X78774781Y-131081015D01*
X78791999Y-130980407D01*
X78828395Y-130885054D01*
X78843004Y-130799062D01*
X78840190Y-130698819D01*
X78842574Y-130684888D01*
X78839407Y-130670935D01*
X78838914Y-130653369D01*
X78850720Y-130508099D01*
X78848074Y-130485243D01*
X78846022Y-130478871D01*
X78846479Y-130472189D01*
X78832675Y-130431136D01*
X78831726Y-130397334D01*
X78789822Y-130303693D01*
X78784487Y-130287826D01*
X78759451Y-130210099D01*
X78759552Y-130168491D01*
X78765085Y-130049819D01*
X78769210Y-130010131D01*
X78767244Y-130003521D01*
X78767871Y-129990063D01*
X78762111Y-129951889D01*
X78760089Y-129946283D01*
X78760092Y-129945239D01*
X78757019Y-129937770D01*
X78735924Y-129879273D01*
X78896381Y-129639133D01*
X78974785Y-129244969D01*
X78974785Y-128932353D01*
X78896381Y-128538189D01*
X78817803Y-128420589D01*
X78818626Y-128419005D01*
X78859334Y-128278906D01*
X78915025Y-128144059D01*
X78950939Y-127962520D01*
X78950764Y-127794032D01*
X78961402Y-127625867D01*
X78936829Y-127442437D01*
X78883030Y-127285125D01*
X78840142Y-127124481D01*
X78776362Y-126994850D01*
X78818477Y-126783123D01*
X78818477Y-126561132D01*
X78882884Y-126464462D01*
X78994073Y-126298056D01*
X78994209Y-126297371D01*
X78994597Y-126296789D01*
X79033485Y-126099919D01*
X79072477Y-125903892D01*
X79072477Y-120231129D01*
X96716216Y-120231129D01*
X97403655Y-121894858D01*
X98675447Y-123168871D01*
X100337973Y-123859213D01*
X102138129Y-123860784D01*
X103801858Y-123173345D01*
X105075871Y-121901553D01*
X105766213Y-120239027D01*
X105767784Y-118438871D01*
X105080345Y-116775142D01*
X103808553Y-115501129D01*
X102146027Y-114810787D01*
X100345871Y-114809216D01*
X98682142Y-115496655D01*
X97408129Y-116768447D01*
X96717787Y-118430973D01*
X96716216Y-120231129D01*
X79072477Y-120231129D01*
X79072477Y-113594661D01*
X78994073Y-113200497D01*
X78770797Y-112866341D01*
X78436641Y-112643065D01*
X78042477Y-112564661D01*
X63193246Y-112564661D01*
X62996542Y-112603788D01*
X62800645Y-112642420D01*
X62799929Y-112642896D01*
X62799082Y-112643065D01*
X62632293Y-112754510D01*
X62466123Y-112865147D01*
X62465644Y-112865861D01*
X62464926Y-112866341D01*
X62353623Y-113032917D01*
X62242298Y-113198936D01*
X62242129Y-113199781D01*
X62241650Y-113200497D01*
X62202647Y-113396579D01*
X62163247Y-113592970D01*
X62162830Y-113846970D01*
X62162830Y-113846971D01*
X62153211Y-119708510D01*
X62153220Y-119708557D01*
X62153211Y-119708604D01*
X62152652Y-120069187D01*
X62152679Y-120069322D01*
X62152652Y-120069455D01*
X62151781Y-120744757D01*
X62151816Y-120744936D01*
X62151780Y-120745117D01*
X62151167Y-121397211D01*
X62151204Y-121397399D01*
X62151167Y-121397586D01*
X62150807Y-122022246D01*
X62150846Y-122022443D01*
X62150807Y-122022640D01*
X62150692Y-122615642D01*
X58011240Y-122615642D01*
X58011240Y-112160292D01*
X65918739Y-112160292D01*
X66133459Y-112288460D01*
X66773491Y-112379437D01*
X67230861Y-112288460D01*
X67445581Y-112160292D01*
X66682160Y-111396871D01*
X65918739Y-112160292D01*
X58011240Y-112160292D01*
X58011240Y-110816451D01*
X65027843Y-110816451D01*
X65118820Y-111273821D01*
X65246988Y-111488541D01*
X66010409Y-110725120D01*
X67353911Y-110725120D01*
X68117332Y-111488541D01*
X68245500Y-111273821D01*
X68336477Y-110633789D01*
X68245500Y-110176419D01*
X68117332Y-109961699D01*
X67353911Y-110725120D01*
X66010409Y-110725120D01*
X65246988Y-109961699D01*
X65118820Y-110176419D01*
X65027843Y-110816451D01*
X58011240Y-110816451D01*
X58011240Y-109289948D01*
X65918739Y-109289948D01*
X66682160Y-110053369D01*
X67445581Y-109289948D01*
X67230861Y-109161780D01*
X66590829Y-109070803D01*
X66133459Y-109161780D01*
X65918739Y-109289948D01*
X58011240Y-109289948D01*
X58011240Y-77561296D01*
X58044086Y-77726424D01*
X58251360Y-78036632D01*
X58251360Y-96847660D01*
X58367444Y-97431252D01*
X58698022Y-97925998D01*
X64445482Y-103673458D01*
X64940228Y-104004036D01*
X65523820Y-104120120D01*
X67639913Y-104120120D01*
X67577469Y-104270502D01*
X67576853Y-104976640D01*
X67846511Y-105629263D01*
X68111931Y-105895146D01*
X67848266Y-106158351D01*
X67577469Y-106810502D01*
X67576853Y-107516640D01*
X67846511Y-108169263D01*
X68345391Y-108669014D01*
X68997542Y-108939811D01*
X69703680Y-108940427D01*
X70309470Y-108690120D01*
X72118240Y-108690120D01*
X72701832Y-108574036D01*
X73196578Y-108243458D01*
X74448778Y-106991258D01*
X74779356Y-106496512D01*
X74895440Y-105912920D01*
X74895440Y-96678400D01*
X140756824Y-96678400D01*
X141177080Y-96678400D01*
X141977080Y-96678400D01*
X142397336Y-96678400D01*
X143296824Y-96678400D01*
X143717080Y-96678400D01*
X143717080Y-96154157D01*
X143591532Y-96192201D01*
X143534739Y-96274013D01*
X143319077Y-96548581D01*
X143296824Y-96678400D01*
X142397336Y-96678400D01*
X142375083Y-96548581D01*
X142159421Y-96274013D01*
X142102628Y-96192201D01*
X141977080Y-96154157D01*
X141977080Y-96678400D01*
X141177080Y-96678400D01*
X141177080Y-96154157D01*
X141051532Y-96192201D01*
X140994739Y-96274013D01*
X140779077Y-96548581D01*
X140756824Y-96678400D01*
X74895440Y-96678400D01*
X74895440Y-93264109D01*
X133185507Y-93264109D01*
X133688514Y-94481480D01*
X134619101Y-95413692D01*
X135835592Y-95918824D01*
X137152789Y-95919973D01*
X138370160Y-95416966D01*
X138899648Y-94888400D01*
X140756824Y-94888400D01*
X140779077Y-95018219D01*
X140994739Y-95292787D01*
X141051532Y-95374599D01*
X141177080Y-95412643D01*
X141177080Y-94888400D01*
X141977080Y-94888400D01*
X141977080Y-95412643D01*
X142102628Y-95374599D01*
X142159421Y-95292787D01*
X142375083Y-95018219D01*
X142397336Y-94888400D01*
X143296824Y-94888400D01*
X143319077Y-95018219D01*
X143534739Y-95292787D01*
X143591532Y-95374599D01*
X143717080Y-95412643D01*
X143717080Y-94888400D01*
X143296824Y-94888400D01*
X142397336Y-94888400D01*
X141977080Y-94888400D01*
X141177080Y-94888400D01*
X140756824Y-94888400D01*
X138899648Y-94888400D01*
X139302372Y-94486379D01*
X139529913Y-93938400D01*
X140756824Y-93938400D01*
X141177080Y-93938400D01*
X141977080Y-93938400D01*
X142397336Y-93938400D01*
X143296824Y-93938400D01*
X143717080Y-93938400D01*
X143717080Y-93414157D01*
X143591532Y-93452201D01*
X143534739Y-93534013D01*
X143319077Y-93808581D01*
X143296824Y-93938400D01*
X142397336Y-93938400D01*
X142375083Y-93808581D01*
X142159421Y-93534013D01*
X142102628Y-93452201D01*
X141977080Y-93414157D01*
X141977080Y-93938400D01*
X141177080Y-93938400D01*
X141177080Y-93414157D01*
X141051532Y-93452201D01*
X140994739Y-93534013D01*
X140779077Y-93808581D01*
X140756824Y-93938400D01*
X139529913Y-93938400D01*
X139807504Y-93269888D01*
X139808653Y-91952691D01*
X139305646Y-90735320D01*
X138375059Y-89803108D01*
X137158568Y-89297976D01*
X135841371Y-89296827D01*
X134624000Y-89799834D01*
X133691788Y-90730421D01*
X133186656Y-91946912D01*
X133185507Y-93264109D01*
X74895440Y-93264109D01*
X74895440Y-81131129D01*
X96716216Y-81131129D01*
X97403655Y-82794858D01*
X98675447Y-84068871D01*
X100337973Y-84759213D01*
X102138129Y-84760784D01*
X103801858Y-84073345D01*
X105075871Y-82801553D01*
X105766213Y-81139027D01*
X105767784Y-79338871D01*
X105080345Y-77675142D01*
X103808553Y-76401129D01*
X102146027Y-75710787D01*
X100345871Y-75709216D01*
X98682142Y-76396655D01*
X97408129Y-77668447D01*
X96717787Y-79330973D01*
X96716216Y-81131129D01*
X74895440Y-81131129D01*
X74895440Y-80804236D01*
X75601935Y-80097740D01*
X75601938Y-80097738D01*
X75932516Y-79602992D01*
X75936163Y-79584658D01*
X76048601Y-79019400D01*
X76048600Y-79019395D01*
X76048600Y-75133200D01*
X75932516Y-74549608D01*
X75601938Y-74054862D01*
X74900898Y-73353822D01*
X74406152Y-73023244D01*
X74152236Y-72972737D01*
X74075481Y-72853456D01*
X73732955Y-72619418D01*
X73326360Y-72537080D01*
X71626360Y-72537080D01*
X71246518Y-72608552D01*
X70897656Y-72833039D01*
X70663618Y-73175565D01*
X70581280Y-73582160D01*
X70581280Y-75282160D01*
X70652752Y-75662002D01*
X70877239Y-76010864D01*
X70880796Y-76013295D01*
X70744086Y-76217896D01*
X70601360Y-76935427D01*
X70601360Y-77008893D01*
X70608373Y-77044151D01*
X70224542Y-77427982D01*
X69893964Y-77922728D01*
X69777880Y-78506320D01*
X69777880Y-99219854D01*
X69646776Y-99088750D01*
X69544503Y-99191023D01*
X69524592Y-99179800D01*
X69179728Y-99179800D01*
X69069370Y-99242000D01*
X69352160Y-99524790D01*
X69437013Y-99439937D01*
X69777880Y-99780804D01*
X69777880Y-100329436D01*
X69437013Y-100670303D01*
X69352160Y-100585450D01*
X69117695Y-100819915D01*
X69000640Y-100819813D01*
X68394850Y-101070120D01*
X66155496Y-101070120D01*
X64968064Y-99882688D01*
X68476840Y-99882688D01*
X68476840Y-100227552D01*
X68539040Y-100337910D01*
X68821830Y-100055120D01*
X68539040Y-99772330D01*
X68476840Y-99882688D01*
X64968064Y-99882688D01*
X63525668Y-98440292D01*
X65918739Y-98440292D01*
X66133459Y-98568460D01*
X66773491Y-98659437D01*
X67230861Y-98568460D01*
X67445581Y-98440292D01*
X66682160Y-97676871D01*
X65918739Y-98440292D01*
X63525668Y-98440292D01*
X62181827Y-97096451D01*
X65027843Y-97096451D01*
X65118820Y-97553821D01*
X65246988Y-97768541D01*
X66010409Y-97005120D01*
X67353911Y-97005120D01*
X68117332Y-97768541D01*
X68245500Y-97553821D01*
X68336477Y-96913789D01*
X68245500Y-96456419D01*
X68117332Y-96241699D01*
X67353911Y-97005120D01*
X66010409Y-97005120D01*
X65246988Y-96241699D01*
X65118820Y-96456419D01*
X65027843Y-97096451D01*
X62181827Y-97096451D01*
X61301360Y-96215984D01*
X61301360Y-95569948D01*
X65918739Y-95569948D01*
X66682160Y-96333369D01*
X67445581Y-95569948D01*
X67230861Y-95441780D01*
X66590829Y-95350803D01*
X66133459Y-95441780D01*
X65918739Y-95569948D01*
X61301360Y-95569948D01*
X61301360Y-78036632D01*
X61508634Y-77726424D01*
X61651360Y-77008893D01*
X61651360Y-76935427D01*
X61508634Y-76217896D01*
X61102185Y-75609602D01*
X60493891Y-75203153D01*
X60384404Y-75181375D01*
X60576622Y-74989207D01*
X60622661Y-74857160D01*
X60201360Y-74857160D01*
X60201360Y-74927160D01*
X59351360Y-74927160D01*
X59351360Y-74857160D01*
X58930059Y-74857160D01*
X58976098Y-74989207D01*
X59168316Y-75181375D01*
X59058829Y-75203153D01*
X58450535Y-75609602D01*
X58044086Y-76217896D01*
X58011240Y-76383024D01*
X58011240Y-74007160D01*
X58930059Y-74007160D01*
X59351360Y-74007160D01*
X60201360Y-74007160D01*
X60622661Y-74007160D01*
X60576622Y-73875113D01*
X60333398Y-73631952D01*
X60201360Y-73589522D01*
X60201360Y-74007160D01*
X59351360Y-74007160D01*
X59351360Y-73589522D01*
X59219322Y-73631952D01*
X58976098Y-73875113D01*
X58930059Y-74007160D01*
X58011240Y-74007160D01*
X58011240Y-68091220D01*
X87934800Y-68091220D01*
X88355752Y-68007487D01*
X88712617Y-67769037D01*
X88951067Y-67412172D01*
X89034800Y-66991220D01*
X89034800Y-48349500D01*
X118590120Y-48349500D01*
X118590120Y-50329500D01*
X118661592Y-50709342D01*
X118886079Y-51058204D01*
X119228605Y-51292242D01*
X119635200Y-51374580D01*
X123595200Y-51374580D01*
X123975042Y-51303108D01*
X124323904Y-51078621D01*
X124557942Y-50736095D01*
X124640280Y-50329500D01*
X124640280Y-48349500D01*
X124568808Y-47969658D01*
X124344321Y-47620796D01*
X124001795Y-47386758D01*
X123595200Y-47304420D01*
X119635200Y-47304420D01*
X119255358Y-47375892D01*
X118906496Y-47600379D01*
X118672458Y-47942905D01*
X118590120Y-48349500D01*
X89034800Y-48349500D01*
X89034800Y-44814500D01*
X119651091Y-44814500D01*
X119703164Y-44966457D01*
X119759665Y-45187851D01*
X120150200Y-45454500D01*
X121140200Y-45454500D01*
X121140200Y-44814500D01*
X122090200Y-44814500D01*
X122090200Y-45454500D01*
X123080200Y-45454500D01*
X123470735Y-45187851D01*
X123527236Y-44966457D01*
X123579309Y-44814500D01*
X122090200Y-44814500D01*
X121140200Y-44814500D01*
X119651091Y-44814500D01*
X89034800Y-44814500D01*
X89034800Y-43864500D01*
X119651091Y-43864500D01*
X121140200Y-43864500D01*
X121140200Y-43224500D01*
X122090200Y-43224500D01*
X122090200Y-43864500D01*
X123579309Y-43864500D01*
X123527236Y-43712543D01*
X123470735Y-43491149D01*
X123080200Y-43224500D01*
X122090200Y-43224500D01*
X121140200Y-43224500D01*
X120150200Y-43224500D01*
X119759665Y-43491149D01*
X119703164Y-43712543D01*
X119651091Y-43864500D01*
X89034800Y-43864500D01*
X89034800Y-39230280D01*
X215826480Y-39230280D01*
X215826480Y-56034046D01*
X215826480Y-56034046D01*
G37*
X215826480Y-56034046D02*
X211819847Y-52027413D01*
X212425624Y-51777111D01*
X213171731Y-51032305D01*
X213576019Y-50058670D01*
X213576939Y-49004435D01*
X213174351Y-48030096D01*
X212429545Y-47283989D01*
X211455910Y-46879701D01*
X210401675Y-46878781D01*
X209427336Y-47281369D01*
X208681229Y-48026175D01*
X208276941Y-48999810D01*
X208276399Y-49621380D01*
X205121987Y-49621380D01*
X205342372Y-49401379D01*
X205847504Y-48184888D01*
X205848653Y-46867691D01*
X205345646Y-45650320D01*
X204415059Y-44718108D01*
X203198568Y-44212976D01*
X201881371Y-44211827D01*
X200664000Y-44714834D01*
X199731788Y-45645421D01*
X199226656Y-46861912D01*
X199226007Y-47606283D01*
X199016608Y-47280868D01*
X199143160Y-47091469D01*
X199282080Y-46393072D01*
X199282080Y-45913728D01*
X199143160Y-45215331D01*
X198747550Y-44623258D01*
X198155477Y-44227648D01*
X197457080Y-44088728D01*
X196758683Y-44227648D01*
X196187080Y-44609580D01*
X195615477Y-44227648D01*
X194917080Y-44088728D01*
X194218683Y-44227648D01*
X193647080Y-44609580D01*
X193075477Y-44227648D01*
X192377080Y-44088728D01*
X191678683Y-44227648D01*
X191107080Y-44609580D01*
X190535477Y-44227648D01*
X189837080Y-44088728D01*
X189138683Y-44227648D01*
X188567080Y-44609580D01*
X187995477Y-44227648D01*
X187297080Y-44088728D01*
X186598683Y-44227648D01*
X186027080Y-44609580D01*
X185455477Y-44227648D01*
X184757080Y-44088728D01*
X184058683Y-44227648D01*
X183487080Y-44609580D01*
X182915477Y-44227648D01*
X182217080Y-44088728D01*
X181518683Y-44227648D01*
X180947080Y-44609580D01*
X180375477Y-44227648D01*
X179677080Y-44088728D01*
X178978683Y-44227648D01*
X178407080Y-44609580D01*
X177835477Y-44227648D01*
X177137080Y-44088728D01*
X176438683Y-44227648D01*
X175867080Y-44609580D01*
X175295477Y-44227648D01*
X174597080Y-44088728D01*
X173898683Y-44227648D01*
X173327080Y-44609580D01*
X172755477Y-44227648D01*
X172057080Y-44088728D01*
X171358683Y-44227648D01*
X170787080Y-44609580D01*
X170215477Y-44227648D01*
X169517080Y-44088728D01*
X168818683Y-44227648D01*
X168247080Y-44609580D01*
X167675477Y-44227648D01*
X166977080Y-44088728D01*
X166278683Y-44227648D01*
X165707080Y-44609580D01*
X165135477Y-44227648D01*
X164437080Y-44088728D01*
X163738683Y-44227648D01*
X163167080Y-44609580D01*
X162595477Y-44227648D01*
X161897080Y-44088728D01*
X161198683Y-44227648D01*
X160627080Y-44609580D01*
X160055477Y-44227648D01*
X159357080Y-44088728D01*
X158658683Y-44227648D01*
X158087080Y-44609580D01*
X157515477Y-44227648D01*
X156817080Y-44088728D01*
X156118683Y-44227648D01*
X155547080Y-44609580D01*
X154975477Y-44227648D01*
X154277080Y-44088728D01*
X153578683Y-44227648D01*
X153007080Y-44609580D01*
X152435477Y-44227648D01*
X151737080Y-44088728D01*
X151038683Y-44227648D01*
X150467080Y-44609580D01*
X149895477Y-44227648D01*
X149197080Y-44088728D01*
X148498683Y-44227648D01*
X147927080Y-44609580D01*
X147355477Y-44227648D01*
X146657080Y-44088728D01*
X145958683Y-44227648D01*
X145387080Y-44609580D01*
X144815477Y-44227648D01*
X144117080Y-44088728D01*
X143418683Y-44227648D01*
X142847080Y-44609580D01*
X142275477Y-44227648D01*
X141577080Y-44088728D01*
X140878683Y-44227648D01*
X140286610Y-44623258D01*
X139891000Y-45215331D01*
X139752080Y-45913728D01*
X139752080Y-46393072D01*
X139891000Y-47091469D01*
X140179607Y-47523400D01*
X139891000Y-47955331D01*
X139752080Y-48653728D01*
X139752080Y-49133072D01*
X139891000Y-49831469D01*
X140286610Y-50423542D01*
X140878683Y-50819152D01*
X141577080Y-50958072D01*
X142275477Y-50819152D01*
X142847080Y-50437220D01*
X143418683Y-50819152D01*
X144117080Y-50958072D01*
X144815477Y-50819152D01*
X145387080Y-50437220D01*
X145958683Y-50819152D01*
X146657080Y-50958072D01*
X147355477Y-50819152D01*
X147927080Y-50437220D01*
X148498683Y-50819152D01*
X149197080Y-50958072D01*
X149895477Y-50819152D01*
X150467080Y-50437220D01*
X151038683Y-50819152D01*
X151737080Y-50958072D01*
X152435477Y-50819152D01*
X153007080Y-50437220D01*
X153578683Y-50819152D01*
X154277080Y-50958072D01*
X154975477Y-50819152D01*
X155547080Y-50437220D01*
X156118683Y-50819152D01*
X156817080Y-50958072D01*
X157515477Y-50819152D01*
X158087080Y-50437220D01*
X158658683Y-50819152D01*
X159357080Y-50958072D01*
X160055477Y-50819152D01*
X160627080Y-50437220D01*
X161198683Y-50819152D01*
X161897080Y-50958072D01*
X162595477Y-50819152D01*
X163167080Y-50437220D01*
X163738683Y-50819152D01*
X164437080Y-50958072D01*
X165135477Y-50819152D01*
X165707080Y-50437220D01*
X166278683Y-50819152D01*
X166977080Y-50958072D01*
X167675477Y-50819152D01*
X168247080Y-50437220D01*
X168818683Y-50819152D01*
X169517080Y-50958072D01*
X170215477Y-50819152D01*
X170787080Y-50437220D01*
X171358683Y-50819152D01*
X172057080Y-50958072D01*
X172755477Y-50819152D01*
X173327080Y-50437220D01*
X173898683Y-50819152D01*
X174597080Y-50958072D01*
X175295477Y-50819152D01*
X175867080Y-50437220D01*
X176438683Y-50819152D01*
X177137080Y-50958072D01*
X177835477Y-50819152D01*
X178407080Y-50437220D01*
X178978683Y-50819152D01*
X179677080Y-50958072D01*
X180375477Y-50819152D01*
X180947080Y-50437220D01*
X181518683Y-50819152D01*
X182217080Y-50958072D01*
X182915477Y-50819152D01*
X183487080Y-50437220D01*
X184058683Y-50819152D01*
X184757080Y-50958072D01*
X185455477Y-50819152D01*
X185855560Y-50551825D01*
X185855560Y-56295441D01*
X185801856Y-56329999D01*
X185567818Y-56672525D01*
X185485480Y-57079120D01*
X185485480Y-58379120D01*
X185556952Y-58758962D01*
X185781439Y-59107824D01*
X185855560Y-59158469D01*
X185855560Y-60209440D01*
X185964032Y-60754764D01*
X186272933Y-61217067D01*
X190660773Y-65604907D01*
X191123076Y-65913808D01*
X191668400Y-66022280D01*
X204129640Y-66022280D01*
X204674964Y-65913808D01*
X204700487Y-65896754D01*
X207492805Y-65896754D01*
X207949800Y-66353749D01*
X208406795Y-65896754D01*
X212492805Y-65896754D01*
X212949800Y-66353749D01*
X213406795Y-65896754D01*
X213244498Y-65811765D01*
X212757589Y-65791379D01*
X212655102Y-65811765D01*
X212492805Y-65896754D01*
X208406795Y-65896754D01*
X208244498Y-65811765D01*
X207757589Y-65791379D01*
X207655102Y-65811765D01*
X207492805Y-65896754D01*
X204700487Y-65896754D01*
X205137267Y-65604907D01*
X208210667Y-62531507D01*
X208519568Y-62069204D01*
X208628040Y-61523880D01*
X208628040Y-61065997D01*
X208678609Y-61188384D01*
X209423415Y-61934491D01*
X210397050Y-62338779D01*
X211451285Y-62339699D01*
X212425624Y-61937111D01*
X213171731Y-61192305D01*
X213576019Y-60218670D01*
X213576939Y-59164435D01*
X213174351Y-58190096D01*
X212429545Y-57443989D01*
X211455910Y-57039701D01*
X210401675Y-57038781D01*
X209427336Y-57441369D01*
X208681229Y-58186175D01*
X208628040Y-58314269D01*
X208628040Y-54612540D01*
X208519568Y-54067216D01*
X208210667Y-53604913D01*
X207077134Y-52471380D01*
X208233306Y-52471380D01*
X213992400Y-58230474D01*
X213992400Y-66654651D01*
X213621551Y-67025500D01*
X213992400Y-67396349D01*
X213992400Y-71654651D01*
X213621551Y-72025500D01*
X213992400Y-72396349D01*
X213992400Y-73369466D01*
X212180466Y-75181400D01*
X196373455Y-75181400D01*
X193385045Y-72192990D01*
X194721180Y-72192990D01*
X194721180Y-72561604D01*
X194740210Y-72607547D01*
X194775373Y-72642710D01*
X194821316Y-72661740D01*
X195139930Y-72661740D01*
X195171180Y-72630490D01*
X195171180Y-72161740D01*
X195821180Y-72161740D01*
X195821180Y-72630490D01*
X195852430Y-72661740D01*
X196171044Y-72661740D01*
X196216987Y-72642710D01*
X196252150Y-72607547D01*
X196271180Y-72561604D01*
X196271180Y-72192990D01*
X196239930Y-72161740D01*
X195821180Y-72161740D01*
X195171180Y-72161740D01*
X194752430Y-72161740D01*
X194721180Y-72192990D01*
X193385045Y-72192990D01*
X192203931Y-71011876D01*
X194721180Y-71011876D01*
X194721180Y-71380490D01*
X194752430Y-71411740D01*
X195171180Y-71411740D01*
X195171180Y-70942990D01*
X195821180Y-70942990D01*
X195821180Y-71411740D01*
X196239930Y-71411740D01*
X196271180Y-71380490D01*
X196271180Y-71011876D01*
X196252150Y-70965933D01*
X196216987Y-70930770D01*
X196171044Y-70911740D01*
X195852430Y-70911740D01*
X195821180Y-70942990D01*
X195171180Y-70942990D01*
X195139930Y-70911740D01*
X194821316Y-70911740D01*
X194775373Y-70930770D01*
X194740210Y-70965933D01*
X194721180Y-71011876D01*
X192203931Y-71011876D01*
X191630906Y-70438852D01*
X191997340Y-70511740D01*
X194062501Y-70511740D01*
X194097059Y-70565444D01*
X194439585Y-70799482D01*
X194846180Y-70881820D01*
X196146180Y-70881820D01*
X196526022Y-70810348D01*
X196834667Y-70611740D01*
X197863494Y-70611740D01*
X197850918Y-70630145D01*
X197768580Y-71036740D01*
X197768580Y-72536740D01*
X197840052Y-72916582D01*
X198064539Y-73265444D01*
X198407065Y-73499482D01*
X198813660Y-73581820D01*
X200113660Y-73581820D01*
X200493502Y-73510348D01*
X200802147Y-73311740D01*
X203219060Y-73311740D01*
X203802652Y-73195656D01*
X203864626Y-73154246D01*
X207492805Y-73154246D01*
X207655102Y-73239235D01*
X208142011Y-73259621D01*
X208244498Y-73239235D01*
X208406795Y-73154246D01*
X212492805Y-73154246D01*
X212655102Y-73239235D01*
X213142011Y-73259621D01*
X213244498Y-73239235D01*
X213406795Y-73154246D01*
X212949800Y-72697251D01*
X212492805Y-73154246D01*
X208406795Y-73154246D01*
X207949800Y-72697251D01*
X207492805Y-73154246D01*
X203864626Y-73154246D01*
X204297398Y-72865078D01*
X204944765Y-72217711D01*
X206715679Y-72217711D01*
X206736065Y-72320198D01*
X206821054Y-72482495D01*
X207278049Y-72025500D01*
X208621551Y-72025500D01*
X209078546Y-72482495D01*
X209163535Y-72320198D01*
X209167825Y-72217711D01*
X211715679Y-72217711D01*
X211736065Y-72320198D01*
X211821054Y-72482495D01*
X212278049Y-72025500D01*
X211821054Y-71568505D01*
X211736065Y-71730802D01*
X211715679Y-72217711D01*
X209167825Y-72217711D01*
X209183921Y-71833289D01*
X209163535Y-71730802D01*
X209078546Y-71568505D01*
X208621551Y-72025500D01*
X207278049Y-72025500D01*
X206821054Y-71568505D01*
X206736065Y-71730802D01*
X206715679Y-72217711D01*
X204944765Y-72217711D01*
X206111976Y-71050500D01*
X207646551Y-71050500D01*
X207949800Y-71353749D01*
X208253049Y-71050500D01*
X208969556Y-71050500D01*
X209244513Y-71325937D01*
X210025257Y-71650130D01*
X210870634Y-71650868D01*
X211651943Y-71328038D01*
X212083980Y-70896754D01*
X212492805Y-70896754D01*
X212949800Y-71353749D01*
X213406795Y-70896754D01*
X213244498Y-70811765D01*
X212757589Y-70791379D01*
X212655102Y-70811765D01*
X212492805Y-70896754D01*
X212083980Y-70896754D01*
X212250237Y-70730787D01*
X212574430Y-69950043D01*
X212575168Y-69104666D01*
X212252338Y-68323357D01*
X212083522Y-68154246D01*
X212492805Y-68154246D01*
X212655102Y-68239235D01*
X213142011Y-68259621D01*
X213244498Y-68239235D01*
X213406795Y-68154246D01*
X212949800Y-67697251D01*
X212492805Y-68154246D01*
X212083522Y-68154246D01*
X211655087Y-67725063D01*
X210874343Y-67400870D01*
X210028966Y-67400132D01*
X209247657Y-67722962D01*
X208969634Y-68000500D01*
X208253049Y-68000500D01*
X207949800Y-67697251D01*
X207646551Y-68000500D01*
X205480300Y-68000500D01*
X204896708Y-68116584D01*
X204401962Y-68447162D01*
X202587384Y-70261740D01*
X201063826Y-70261740D01*
X201076402Y-70243335D01*
X201158740Y-69836740D01*
X201158740Y-68336740D01*
X201087268Y-67956898D01*
X200862781Y-67608036D01*
X200520255Y-67373998D01*
X200113660Y-67291660D01*
X198813660Y-67291660D01*
X198433818Y-67363132D01*
X198125173Y-67561740D01*
X196827545Y-67561740D01*
X196552775Y-67373998D01*
X196146180Y-67291660D01*
X194846180Y-67291660D01*
X194466338Y-67363132D01*
X194117476Y-67587619D01*
X194066831Y-67661740D01*
X192587594Y-67661740D01*
X192143565Y-67217711D01*
X206715679Y-67217711D01*
X206736065Y-67320198D01*
X206821054Y-67482495D01*
X207278049Y-67025500D01*
X208621551Y-67025500D01*
X209078546Y-67482495D01*
X209163535Y-67320198D01*
X209167825Y-67217711D01*
X211715679Y-67217711D01*
X211736065Y-67320198D01*
X211821054Y-67482495D01*
X212278049Y-67025500D01*
X211821054Y-66568505D01*
X211736065Y-66730802D01*
X211715679Y-67217711D01*
X209167825Y-67217711D01*
X209183921Y-66833289D01*
X209163535Y-66730802D01*
X209078546Y-66568505D01*
X208621551Y-67025500D01*
X207278049Y-67025500D01*
X206821054Y-66568505D01*
X206736065Y-66730802D01*
X206715679Y-67217711D01*
X192143565Y-67217711D01*
X176305727Y-51379873D01*
X175843424Y-51070972D01*
X175298100Y-50962500D01*
X140563600Y-50962500D01*
X140082465Y-51058204D01*
X140018276Y-51070972D01*
X139807633Y-51211719D01*
X139808653Y-50042691D01*
X139305646Y-48825320D01*
X138375059Y-47893108D01*
X137158568Y-47387976D01*
X135841371Y-47386827D01*
X134624000Y-47889834D01*
X133691788Y-48820421D01*
X133186656Y-50036912D01*
X133185507Y-51354109D01*
X133653401Y-52486500D01*
X131246880Y-52486500D01*
X130701556Y-52594972D01*
X130530542Y-52709240D01*
X130239253Y-52903873D01*
X127770373Y-55372753D01*
X127461472Y-55835056D01*
X127353000Y-56380380D01*
X127353000Y-69265800D01*
X127461472Y-69811124D01*
X127770373Y-70273427D01*
X131316213Y-73819267D01*
X131778516Y-74128168D01*
X132323840Y-74236640D01*
X133636330Y-74236640D01*
X133618289Y-74254650D01*
X133355120Y-74888431D01*
X133354521Y-75574678D01*
X133616583Y-76208918D01*
X134101410Y-76694591D01*
X134735191Y-76957760D01*
X135421438Y-76958359D01*
X136055678Y-76696297D01*
X136541351Y-76211470D01*
X136804520Y-75577689D01*
X136805119Y-74891442D01*
X136727982Y-74704756D01*
X152852080Y-90828854D01*
X152852080Y-92766013D01*
X152435477Y-92487648D01*
X151737080Y-92348728D01*
X151038683Y-92487648D01*
X150467080Y-92869580D01*
X149895477Y-92487648D01*
X149197080Y-92348728D01*
X148498683Y-92487648D01*
X147927080Y-92869580D01*
X147355477Y-92487648D01*
X146657080Y-92348728D01*
X145958683Y-92487648D01*
X145366610Y-92883258D01*
X144971000Y-93475331D01*
X144906808Y-93798046D01*
X144699421Y-93534013D01*
X144642628Y-93452201D01*
X144517080Y-93414157D01*
X144517080Y-93938400D01*
X144612080Y-93938400D01*
X144612080Y-94888400D01*
X144517080Y-94888400D01*
X144517080Y-95412643D01*
X144642628Y-95374599D01*
X144699421Y-95292787D01*
X144906808Y-95028754D01*
X144971000Y-95351469D01*
X145259607Y-95783400D01*
X144971000Y-96215331D01*
X144906808Y-96538046D01*
X144699421Y-96274013D01*
X144642628Y-96192201D01*
X144517080Y-96154157D01*
X144517080Y-96678400D01*
X144612080Y-96678400D01*
X144612080Y-97628400D01*
X144517080Y-97628400D01*
X144517080Y-98152643D01*
X144642628Y-98114599D01*
X144699421Y-98032787D01*
X144906808Y-97768754D01*
X144971000Y-98091469D01*
X145366610Y-98683542D01*
X145958683Y-99079152D01*
X146657080Y-99218072D01*
X147355477Y-99079152D01*
X147927080Y-98697220D01*
X148498683Y-99079152D01*
X149197080Y-99218072D01*
X149895477Y-99079152D01*
X150467080Y-98697220D01*
X151038683Y-99079152D01*
X151737080Y-99218072D01*
X152435477Y-99079152D01*
X153007080Y-98697220D01*
X153578683Y-99079152D01*
X154277080Y-99218072D01*
X154975477Y-99079152D01*
X155547080Y-98697220D01*
X156118683Y-99079152D01*
X156817080Y-99218072D01*
X157515477Y-99079152D01*
X158087080Y-98697220D01*
X158658683Y-99079152D01*
X159357080Y-99218072D01*
X160055477Y-99079152D01*
X160627080Y-98697220D01*
X161198683Y-99079152D01*
X161897080Y-99218072D01*
X162595477Y-99079152D01*
X163167080Y-98697220D01*
X163738683Y-99079152D01*
X164437080Y-99218072D01*
X165135477Y-99079152D01*
X165707080Y-98697220D01*
X166278683Y-99079152D01*
X166977080Y-99218072D01*
X167675477Y-99079152D01*
X168247080Y-98697220D01*
X168818683Y-99079152D01*
X169517080Y-99218072D01*
X170215477Y-99079152D01*
X170787080Y-98697220D01*
X171358683Y-99079152D01*
X172057080Y-99218072D01*
X172755477Y-99079152D01*
X173327080Y-98697220D01*
X173898683Y-99079152D01*
X174597080Y-99218072D01*
X175295477Y-99079152D01*
X175867080Y-98697220D01*
X176438683Y-99079152D01*
X177137080Y-99218072D01*
X177835477Y-99079152D01*
X178407080Y-98697220D01*
X178978683Y-99079152D01*
X179677080Y-99218072D01*
X180375477Y-99079152D01*
X180947080Y-98697220D01*
X181518683Y-99079152D01*
X182217080Y-99218072D01*
X182915477Y-99079152D01*
X183487080Y-98697220D01*
X184058683Y-99079152D01*
X184757080Y-99218072D01*
X185455477Y-99079152D01*
X186027080Y-98697220D01*
X186598683Y-99079152D01*
X187297080Y-99218072D01*
X187995477Y-99079152D01*
X188567080Y-98697220D01*
X189138683Y-99079152D01*
X189498852Y-99150794D01*
X188461946Y-100187700D01*
X142779454Y-100187700D01*
X140440927Y-97849173D01*
X140110517Y-97628400D01*
X140756824Y-97628400D01*
X140779077Y-97758219D01*
X140994739Y-98032787D01*
X141051532Y-98114599D01*
X141177080Y-98152643D01*
X141177080Y-97628400D01*
X141977080Y-97628400D01*
X141977080Y-98152643D01*
X142102628Y-98114599D01*
X142159421Y-98032787D01*
X142375083Y-97758219D01*
X142397336Y-97628400D01*
X143296824Y-97628400D01*
X143319077Y-97758219D01*
X143534739Y-98032787D01*
X143591532Y-98114599D01*
X143717080Y-98152643D01*
X143717080Y-97628400D01*
X143296824Y-97628400D01*
X142397336Y-97628400D01*
X141977080Y-97628400D01*
X141177080Y-97628400D01*
X140756824Y-97628400D01*
X140110517Y-97628400D01*
X139978624Y-97540272D01*
X139433300Y-97431800D01*
X127568960Y-97431800D01*
X127023636Y-97540272D01*
X126561333Y-97849173D01*
X124219453Y-100191053D01*
X123910552Y-100653356D01*
X123802080Y-101198680D01*
X123802080Y-107233720D01*
X123910552Y-107779044D01*
X124219453Y-108241347D01*
X135973040Y-119994934D01*
X135437382Y-120216263D01*
X134951709Y-120701090D01*
X134688540Y-121334871D01*
X134687941Y-122021118D01*
X134950003Y-122655358D01*
X135434830Y-123141031D01*
X136068611Y-123404200D01*
X136754858Y-123404799D01*
X137389098Y-123142737D01*
X137874771Y-122657910D01*
X138098124Y-122120018D01*
X138665233Y-122687127D01*
X139127536Y-122996028D01*
X139672860Y-123104500D01*
X142581736Y-123104500D01*
X142584119Y-123108204D01*
X142926645Y-123342242D01*
X143333240Y-123424580D01*
X144733240Y-123424580D01*
X145113082Y-123353108D01*
X145461944Y-123128621D01*
X145695982Y-122786095D01*
X145778320Y-122379500D01*
X145778320Y-121656974D01*
X156220913Y-132099567D01*
X156683216Y-132408468D01*
X157228540Y-132516940D01*
X209274540Y-132516940D01*
X209574866Y-132457201D01*
X209606585Y-132616666D01*
X210023872Y-133241181D01*
X210648387Y-133658468D01*
X211385053Y-133805000D01*
X212887907Y-133805000D01*
X213624573Y-133658468D01*
X214249088Y-133241181D01*
X214666375Y-132616666D01*
X214812907Y-131880000D01*
X214666375Y-131143334D01*
X214249088Y-130518819D01*
X213624573Y-130101532D01*
X212887907Y-129955000D01*
X212426734Y-129955000D01*
X212811322Y-129570412D01*
X213244452Y-129391446D01*
X213696340Y-128940347D01*
X213941201Y-128350655D01*
X213941758Y-127712146D01*
X213697926Y-127122028D01*
X213586294Y-127010201D01*
X213696340Y-126900347D01*
X213941201Y-126310655D01*
X213941758Y-125672146D01*
X213761480Y-125235840D01*
X213761480Y-124729340D01*
X213653008Y-124184016D01*
X213344107Y-123721713D01*
X212667394Y-123045000D01*
X212887907Y-123045000D01*
X213624573Y-122898468D01*
X214249088Y-122481181D01*
X214666375Y-121856666D01*
X214812907Y-121120000D01*
X214666375Y-120383334D01*
X214249088Y-119758819D01*
X214235889Y-119750000D01*
X214249088Y-119741181D01*
X214666375Y-119116666D01*
X214812907Y-118380000D01*
X214666375Y-117643334D01*
X214249088Y-117018819D01*
X213624573Y-116601532D01*
X213378409Y-116552567D01*
X213414818Y-116516158D01*
X213745396Y-116021412D01*
X213861480Y-115437820D01*
X213861480Y-115042645D01*
X213941201Y-114850655D01*
X213941758Y-114212146D01*
X213697926Y-113622028D01*
X213586294Y-113510201D01*
X213696340Y-113400347D01*
X213941201Y-112810655D01*
X213941758Y-112172146D01*
X213861480Y-111977859D01*
X213861480Y-111473080D01*
X213745396Y-110889488D01*
X213414818Y-110394742D01*
X212565076Y-109545000D01*
X212887907Y-109545000D01*
X213624573Y-109398468D01*
X214249088Y-108981181D01*
X214666375Y-108356666D01*
X214812907Y-107620000D01*
X214666375Y-106883334D01*
X214249088Y-106258819D01*
X214235889Y-106250000D01*
X214249088Y-106241181D01*
X214666375Y-105616666D01*
X214812907Y-104880000D01*
X214666375Y-104143334D01*
X214249088Y-103518819D01*
X213624573Y-103101532D01*
X212887907Y-102955000D01*
X212426734Y-102955000D01*
X212811322Y-102570412D01*
X213244452Y-102391446D01*
X213696340Y-101940347D01*
X213941201Y-101350655D01*
X213941758Y-100712146D01*
X213697926Y-100122028D01*
X213586294Y-100010201D01*
X213696340Y-99900347D01*
X213941201Y-99310655D01*
X213941758Y-98672146D01*
X213761480Y-98235840D01*
X213761480Y-97853600D01*
X213653008Y-97308276D01*
X213344107Y-96845973D01*
X212543134Y-96045000D01*
X212887907Y-96045000D01*
X213624573Y-95898468D01*
X214249088Y-95481181D01*
X214666375Y-94856666D01*
X214812907Y-94120000D01*
X214666375Y-93383334D01*
X214249088Y-92758819D01*
X214235889Y-92750000D01*
X214249088Y-92741181D01*
X214666375Y-92116666D01*
X214812907Y-91380000D01*
X214666375Y-90643334D01*
X214249088Y-90018819D01*
X213624573Y-89601532D01*
X212887907Y-89455000D01*
X212426734Y-89455000D01*
X212811322Y-89070412D01*
X213244452Y-88891446D01*
X213696340Y-88440347D01*
X213941201Y-87850655D01*
X213941758Y-87212146D01*
X213697926Y-86622028D01*
X213586294Y-86510201D01*
X213696340Y-86400347D01*
X213941201Y-85810655D01*
X213941758Y-85172146D01*
X213761480Y-84735840D01*
X213761480Y-83924240D01*
X213653008Y-83378916D01*
X213344107Y-82916613D01*
X212958460Y-82530966D01*
X213624573Y-82398468D01*
X214249088Y-81981181D01*
X214666375Y-81356666D01*
X214812907Y-80620000D01*
X214666375Y-79883334D01*
X214249088Y-79258819D01*
X213624573Y-78841532D01*
X212887907Y-78695000D01*
X211385053Y-78695000D01*
X210648387Y-78841532D01*
X210023872Y-79258819D01*
X209606585Y-79883334D01*
X209460053Y-80620000D01*
X209555451Y-81099600D01*
X197338654Y-81099600D01*
X175277027Y-59037973D01*
X174814724Y-58729072D01*
X174269400Y-58620600D01*
X169751704Y-58620600D01*
X170117531Y-58255410D01*
X170380700Y-57621629D01*
X170381299Y-56935382D01*
X170303131Y-56746200D01*
X173907746Y-56746200D01*
X194775573Y-77614028D01*
X194775576Y-77614030D01*
X194778113Y-77616567D01*
X195240416Y-77925468D01*
X195785740Y-78033940D01*
X195798509Y-78031400D01*
X212770720Y-78031400D01*
X213316044Y-77922928D01*
X213778347Y-77614027D01*
X215826480Y-75565894D01*
X215826480Y-137030280D01*
X88008529Y-137030280D01*
X87995760Y-137027740D01*
X58011240Y-137027740D01*
X58011240Y-122615642D01*
X62150692Y-122615642D01*
X62150735Y-122615858D01*
X62150692Y-122616075D01*
X62150818Y-123173189D01*
X62150866Y-123173430D01*
X62150818Y-123173673D01*
X62151178Y-123690674D01*
X62151235Y-123690959D01*
X62151179Y-123691241D01*
X62151768Y-124163902D01*
X62151837Y-124164245D01*
X62151769Y-124164589D01*
X62152580Y-124588683D01*
X62152669Y-124589124D01*
X62152582Y-124589565D01*
X62153610Y-124960866D01*
X62153732Y-124961470D01*
X62153614Y-124962076D01*
X62154853Y-125276356D01*
X62155037Y-125277265D01*
X62154862Y-125278174D01*
X62156306Y-125531208D01*
X62156628Y-125532778D01*
X62156329Y-125534352D01*
X62157972Y-125721913D01*
X62158700Y-125725414D01*
X62158057Y-125728934D01*
X62159893Y-125846794D01*
X62163247Y-125862384D01*
X62160859Y-125878152D01*
X62162883Y-125922086D01*
X62169581Y-125949175D01*
X62166881Y-125976949D01*
X62181940Y-126026364D01*
X62181360Y-126061254D01*
X62223974Y-126169169D01*
X62259344Y-126312225D01*
X62275898Y-126334688D01*
X62278489Y-126343193D01*
X62260938Y-126431430D01*
X62260938Y-127106996D01*
X62261065Y-127107635D01*
X62260939Y-127108274D01*
X62261116Y-127250883D01*
X62261876Y-127254680D01*
X62261153Y-127258487D01*
X62262989Y-127471397D01*
X62265496Y-127483458D01*
X62263483Y-127495608D01*
X62268506Y-127651864D01*
X62274739Y-127678669D01*
X62271676Y-127706018D01*
X62281332Y-127819602D01*
X62295550Y-127868832D01*
X62294880Y-127920069D01*
X62310616Y-128004967D01*
X62336904Y-128070856D01*
X62345653Y-128141253D01*
X62368914Y-128211446D01*
X62398272Y-128263158D01*
X62412294Y-128320943D01*
X62441885Y-128384723D01*
X62339342Y-128538189D01*
X62260938Y-128932353D01*
X62260938Y-129244969D01*
X62339342Y-129639133D01*
X62562618Y-129973289D01*
X62896774Y-130196565D01*
X63290938Y-130274969D01*
X69974380Y-130274969D01*
X69963520Y-130307913D01*
X69966324Y-130345603D01*
X69957122Y-130382257D01*
X69981146Y-130544814D01*
X69993339Y-130708691D01*
X70010353Y-130742438D01*
X70015878Y-130779825D01*
X70100283Y-130920818D01*
X70174259Y-131067551D01*
X70202892Y-131092218D01*
X70222304Y-131124645D01*
X70354241Y-131222605D01*
X70377652Y-131242774D01*
X70429804Y-131295877D01*
X70448523Y-131303829D01*
X70478737Y-131329859D01*
X70514630Y-131341691D01*
X70544974Y-131364221D01*
X70568874Y-131375541D01*
X70687310Y-131405275D01*
X70799694Y-131453020D01*
X70876724Y-131469067D01*
X70895189Y-131469234D01*
X70909514Y-131474732D01*
X70924507Y-131499746D01*
X70931215Y-131504721D01*
X70935829Y-131518156D01*
X70938543Y-131564398D01*
X70953121Y-131620326D01*
X71014181Y-131746301D01*
X71059653Y-131878705D01*
X71101102Y-131925630D01*
X71128410Y-131981970D01*
X71233030Y-132074988D01*
X71325710Y-132179913D01*
X71359182Y-132205408D01*
X71404781Y-132227693D01*
X71428751Y-132249005D01*
X71496504Y-132272520D01*
X71537096Y-132292359D01*
X71714567Y-132380353D01*
X71717561Y-132380556D01*
X71720254Y-132381872D01*
X71917923Y-132394121D01*
X72115535Y-132407500D01*
X72118376Y-132406542D01*
X72121371Y-132406728D01*
X72308807Y-132342356D01*
X72496370Y-132279137D01*
X72498627Y-132277166D01*
X72501466Y-132276191D01*
X72649979Y-132145009D01*
X72799094Y-132014806D01*
X72832308Y-131971713D01*
X72838733Y-131958754D01*
X72849362Y-131948943D01*
X72927767Y-131779187D01*
X72987312Y-131659095D01*
X73028184Y-131691749D01*
X73035181Y-131693772D01*
X73040934Y-131698238D01*
X73081322Y-131718442D01*
X73259784Y-131767352D01*
X73436605Y-131821853D01*
X73522316Y-131830681D01*
X73568696Y-131826322D01*
X73614258Y-131836011D01*
X73761690Y-131837956D01*
X73771970Y-131836052D01*
X73782237Y-131838022D01*
X73828851Y-131837707D01*
X73858127Y-131831678D01*
X73887761Y-131835623D01*
X74051706Y-131825117D01*
X74161549Y-131795856D01*
X74229821Y-131789833D01*
X74319095Y-131822775D01*
X74371218Y-131820731D01*
X74421720Y-131833801D01*
X74466977Y-131836379D01*
X74499333Y-131831837D01*
X74531413Y-131838029D01*
X74547937Y-131837935D01*
X74592240Y-131828860D01*
X74609543Y-131831816D01*
X74641164Y-131824628D01*
X74690625Y-131827184D01*
X74730118Y-131821428D01*
X74754883Y-131812638D01*
X74769315Y-131818061D01*
X74807682Y-131824375D01*
X74816759Y-131824073D01*
X74820021Y-131825117D01*
X74843119Y-131823197D01*
X74885015Y-131821803D01*
X74946593Y-131836712D01*
X74975998Y-131832113D01*
X75008597Y-131837496D01*
X75022666Y-131837036D01*
X75121781Y-131813930D01*
X75209346Y-131811018D01*
X75261161Y-131787509D01*
X75343651Y-131774606D01*
X75378166Y-131761948D01*
X75380288Y-131760654D01*
X75382740Y-131760258D01*
X75401418Y-131748740D01*
X75412072Y-131746256D01*
X75460924Y-131758899D01*
X75465424Y-131761869D01*
X75492857Y-131767164D01*
X75506742Y-131770757D01*
X75647711Y-131822775D01*
X75699833Y-131820731D01*
X75750334Y-131833801D01*
X75795591Y-131836379D01*
X75827948Y-131831837D01*
X75860028Y-131838029D01*
X75876553Y-131837935D01*
X75920856Y-131828860D01*
X75938158Y-131831816D01*
X75969782Y-131824628D01*
X76019244Y-131827183D01*
X76058737Y-131821428D01*
X76122742Y-131798709D01*
X76214247Y-131825114D01*
X76319573Y-131834044D01*
X76364209Y-131829034D01*
X76408278Y-131837725D01*
X76541197Y-131837507D01*
X76572493Y-131831228D01*
X76604125Y-131835479D01*
X76738537Y-131827030D01*
X76778724Y-131816377D01*
X76820238Y-131818613D01*
X76930041Y-131802855D01*
X76985162Y-131783426D01*
X77109836Y-131821853D01*
X77195548Y-131830681D01*
X77241927Y-131826322D01*
X77287489Y-131836011D01*
X77434921Y-131837956D01*
X77445201Y-131836052D01*
X77455468Y-131838022D01*
X77502082Y-131837707D01*
X77531358Y-131831678D01*
X77560992Y-131835623D01*
X77724937Y-131825117D01*
X77834783Y-131795855D01*
X77948014Y-131785865D01*
X78049842Y-131756104D01*
X78112046Y-131723665D01*
X78180465Y-131708135D01*
X78288660Y-131631561D01*
X78406184Y-131570273D01*
X78451241Y-131516497D01*
X78508506Y-131475968D01*
X78560556Y-131421045D01*
X78614963Y-131334687D01*
X78685081Y-131260518D01*
X78721035Y-131166324D01*
X78774781Y-131081015D01*
X78791999Y-130980407D01*
X78828395Y-130885054D01*
X78843004Y-130799062D01*
X78840190Y-130698819D01*
X78842574Y-130684888D01*
X78839407Y-130670935D01*
X78838914Y-130653369D01*
X78850720Y-130508099D01*
X78848074Y-130485243D01*
X78846022Y-130478871D01*
X78846479Y-130472189D01*
X78832675Y-130431136D01*
X78831726Y-130397334D01*
X78789822Y-130303693D01*
X78784487Y-130287826D01*
X78759451Y-130210099D01*
X78759552Y-130168491D01*
X78765085Y-130049819D01*
X78769210Y-130010131D01*
X78767244Y-130003521D01*
X78767871Y-129990063D01*
X78762111Y-129951889D01*
X78760089Y-129946283D01*
X78760092Y-129945239D01*
X78757019Y-129937770D01*
X78735924Y-129879273D01*
X78896381Y-129639133D01*
X78974785Y-129244969D01*
X78974785Y-128932353D01*
X78896381Y-128538189D01*
X78817803Y-128420589D01*
X78818626Y-128419005D01*
X78859334Y-128278906D01*
X78915025Y-128144059D01*
X78950939Y-127962520D01*
X78950764Y-127794032D01*
X78961402Y-127625867D01*
X78936829Y-127442437D01*
X78883030Y-127285125D01*
X78840142Y-127124481D01*
X78776362Y-126994850D01*
X78818477Y-126783123D01*
X78818477Y-126561132D01*
X78882884Y-126464462D01*
X78994073Y-126298056D01*
X78994209Y-126297371D01*
X78994597Y-126296789D01*
X79033485Y-126099919D01*
X79072477Y-125903892D01*
X79072477Y-120231129D01*
X96716216Y-120231129D01*
X97403655Y-121894858D01*
X98675447Y-123168871D01*
X100337973Y-123859213D01*
X102138129Y-123860784D01*
X103801858Y-123173345D01*
X105075871Y-121901553D01*
X105766213Y-120239027D01*
X105767784Y-118438871D01*
X105080345Y-116775142D01*
X103808553Y-115501129D01*
X102146027Y-114810787D01*
X100345871Y-114809216D01*
X98682142Y-115496655D01*
X97408129Y-116768447D01*
X96717787Y-118430973D01*
X96716216Y-120231129D01*
X79072477Y-120231129D01*
X79072477Y-113594661D01*
X78994073Y-113200497D01*
X78770797Y-112866341D01*
X78436641Y-112643065D01*
X78042477Y-112564661D01*
X63193246Y-112564661D01*
X62996542Y-112603788D01*
X62800645Y-112642420D01*
X62799929Y-112642896D01*
X62799082Y-112643065D01*
X62632293Y-112754510D01*
X62466123Y-112865147D01*
X62465644Y-112865861D01*
X62464926Y-112866341D01*
X62353623Y-113032917D01*
X62242298Y-113198936D01*
X62242129Y-113199781D01*
X62241650Y-113200497D01*
X62202647Y-113396579D01*
X62163247Y-113592970D01*
X62162830Y-113846970D01*
X62162830Y-113846971D01*
X62153211Y-119708510D01*
X62153220Y-119708557D01*
X62153211Y-119708604D01*
X62152652Y-120069187D01*
X62152679Y-120069322D01*
X62152652Y-120069455D01*
X62151781Y-120744757D01*
X62151816Y-120744936D01*
X62151780Y-120745117D01*
X62151167Y-121397211D01*
X62151204Y-121397399D01*
X62151167Y-121397586D01*
X62150807Y-122022246D01*
X62150846Y-122022443D01*
X62150807Y-122022640D01*
X62150692Y-122615642D01*
X58011240Y-122615642D01*
X58011240Y-112160292D01*
X65918739Y-112160292D01*
X66133459Y-112288460D01*
X66773491Y-112379437D01*
X67230861Y-112288460D01*
X67445581Y-112160292D01*
X66682160Y-111396871D01*
X65918739Y-112160292D01*
X58011240Y-112160292D01*
X58011240Y-110816451D01*
X65027843Y-110816451D01*
X65118820Y-111273821D01*
X65246988Y-111488541D01*
X66010409Y-110725120D01*
X67353911Y-110725120D01*
X68117332Y-111488541D01*
X68245500Y-111273821D01*
X68336477Y-110633789D01*
X68245500Y-110176419D01*
X68117332Y-109961699D01*
X67353911Y-110725120D01*
X66010409Y-110725120D01*
X65246988Y-109961699D01*
X65118820Y-110176419D01*
X65027843Y-110816451D01*
X58011240Y-110816451D01*
X58011240Y-109289948D01*
X65918739Y-109289948D01*
X66682160Y-110053369D01*
X67445581Y-109289948D01*
X67230861Y-109161780D01*
X66590829Y-109070803D01*
X66133459Y-109161780D01*
X65918739Y-109289948D01*
X58011240Y-109289948D01*
X58011240Y-77561296D01*
X58044086Y-77726424D01*
X58251360Y-78036632D01*
X58251360Y-96847660D01*
X58367444Y-97431252D01*
X58698022Y-97925998D01*
X64445482Y-103673458D01*
X64940228Y-104004036D01*
X65523820Y-104120120D01*
X67639913Y-104120120D01*
X67577469Y-104270502D01*
X67576853Y-104976640D01*
X67846511Y-105629263D01*
X68111931Y-105895146D01*
X67848266Y-106158351D01*
X67577469Y-106810502D01*
X67576853Y-107516640D01*
X67846511Y-108169263D01*
X68345391Y-108669014D01*
X68997542Y-108939811D01*
X69703680Y-108940427D01*
X70309470Y-108690120D01*
X72118240Y-108690120D01*
X72701832Y-108574036D01*
X73196578Y-108243458D01*
X74448778Y-106991258D01*
X74779356Y-106496512D01*
X74895440Y-105912920D01*
X74895440Y-96678400D01*
X140756824Y-96678400D01*
X141177080Y-96678400D01*
X141977080Y-96678400D01*
X142397336Y-96678400D01*
X143296824Y-96678400D01*
X143717080Y-96678400D01*
X143717080Y-96154157D01*
X143591532Y-96192201D01*
X143534739Y-96274013D01*
X143319077Y-96548581D01*
X143296824Y-96678400D01*
X142397336Y-96678400D01*
X142375083Y-96548581D01*
X142159421Y-96274013D01*
X142102628Y-96192201D01*
X141977080Y-96154157D01*
X141977080Y-96678400D01*
X141177080Y-96678400D01*
X141177080Y-96154157D01*
X141051532Y-96192201D01*
X140994739Y-96274013D01*
X140779077Y-96548581D01*
X140756824Y-96678400D01*
X74895440Y-96678400D01*
X74895440Y-93264109D01*
X133185507Y-93264109D01*
X133688514Y-94481480D01*
X134619101Y-95413692D01*
X135835592Y-95918824D01*
X137152789Y-95919973D01*
X138370160Y-95416966D01*
X138899648Y-94888400D01*
X140756824Y-94888400D01*
X140779077Y-95018219D01*
X140994739Y-95292787D01*
X141051532Y-95374599D01*
X141177080Y-95412643D01*
X141177080Y-94888400D01*
X141977080Y-94888400D01*
X141977080Y-95412643D01*
X142102628Y-95374599D01*
X142159421Y-95292787D01*
X142375083Y-95018219D01*
X142397336Y-94888400D01*
X143296824Y-94888400D01*
X143319077Y-95018219D01*
X143534739Y-95292787D01*
X143591532Y-95374599D01*
X143717080Y-95412643D01*
X143717080Y-94888400D01*
X143296824Y-94888400D01*
X142397336Y-94888400D01*
X141977080Y-94888400D01*
X141177080Y-94888400D01*
X140756824Y-94888400D01*
X138899648Y-94888400D01*
X139302372Y-94486379D01*
X139529913Y-93938400D01*
X140756824Y-93938400D01*
X141177080Y-93938400D01*
X141977080Y-93938400D01*
X142397336Y-93938400D01*
X143296824Y-93938400D01*
X143717080Y-93938400D01*
X143717080Y-93414157D01*
X143591532Y-93452201D01*
X143534739Y-93534013D01*
X143319077Y-93808581D01*
X143296824Y-93938400D01*
X142397336Y-93938400D01*
X142375083Y-93808581D01*
X142159421Y-93534013D01*
X142102628Y-93452201D01*
X141977080Y-93414157D01*
X141977080Y-93938400D01*
X141177080Y-93938400D01*
X141177080Y-93414157D01*
X141051532Y-93452201D01*
X140994739Y-93534013D01*
X140779077Y-93808581D01*
X140756824Y-93938400D01*
X139529913Y-93938400D01*
X139807504Y-93269888D01*
X139808653Y-91952691D01*
X139305646Y-90735320D01*
X138375059Y-89803108D01*
X137158568Y-89297976D01*
X135841371Y-89296827D01*
X134624000Y-89799834D01*
X133691788Y-90730421D01*
X133186656Y-91946912D01*
X133185507Y-93264109D01*
X74895440Y-93264109D01*
X74895440Y-81131129D01*
X96716216Y-81131129D01*
X97403655Y-82794858D01*
X98675447Y-84068871D01*
X100337973Y-84759213D01*
X102138129Y-84760784D01*
X103801858Y-84073345D01*
X105075871Y-82801553D01*
X105766213Y-81139027D01*
X105767784Y-79338871D01*
X105080345Y-77675142D01*
X103808553Y-76401129D01*
X102146027Y-75710787D01*
X100345871Y-75709216D01*
X98682142Y-76396655D01*
X97408129Y-77668447D01*
X96717787Y-79330973D01*
X96716216Y-81131129D01*
X74895440Y-81131129D01*
X74895440Y-80804236D01*
X75601935Y-80097740D01*
X75601938Y-80097738D01*
X75932516Y-79602992D01*
X75936163Y-79584658D01*
X76048601Y-79019400D01*
X76048600Y-79019395D01*
X76048600Y-75133200D01*
X75932516Y-74549608D01*
X75601938Y-74054862D01*
X74900898Y-73353822D01*
X74406152Y-73023244D01*
X74152236Y-72972737D01*
X74075481Y-72853456D01*
X73732955Y-72619418D01*
X73326360Y-72537080D01*
X71626360Y-72537080D01*
X71246518Y-72608552D01*
X70897656Y-72833039D01*
X70663618Y-73175565D01*
X70581280Y-73582160D01*
X70581280Y-75282160D01*
X70652752Y-75662002D01*
X70877239Y-76010864D01*
X70880796Y-76013295D01*
X70744086Y-76217896D01*
X70601360Y-76935427D01*
X70601360Y-77008893D01*
X70608373Y-77044151D01*
X70224542Y-77427982D01*
X69893964Y-77922728D01*
X69777880Y-78506320D01*
X69777880Y-99219854D01*
X69646776Y-99088750D01*
X69544503Y-99191023D01*
X69524592Y-99179800D01*
X69179728Y-99179800D01*
X69069370Y-99242000D01*
X69352160Y-99524790D01*
X69437013Y-99439937D01*
X69777880Y-99780804D01*
X69777880Y-100329436D01*
X69437013Y-100670303D01*
X69352160Y-100585450D01*
X69117695Y-100819915D01*
X69000640Y-100819813D01*
X68394850Y-101070120D01*
X66155496Y-101070120D01*
X64968064Y-99882688D01*
X68476840Y-99882688D01*
X68476840Y-100227552D01*
X68539040Y-100337910D01*
X68821830Y-100055120D01*
X68539040Y-99772330D01*
X68476840Y-99882688D01*
X64968064Y-99882688D01*
X63525668Y-98440292D01*
X65918739Y-98440292D01*
X66133459Y-98568460D01*
X66773491Y-98659437D01*
X67230861Y-98568460D01*
X67445581Y-98440292D01*
X66682160Y-97676871D01*
X65918739Y-98440292D01*
X63525668Y-98440292D01*
X62181827Y-97096451D01*
X65027843Y-97096451D01*
X65118820Y-97553821D01*
X65246988Y-97768541D01*
X66010409Y-97005120D01*
X67353911Y-97005120D01*
X68117332Y-97768541D01*
X68245500Y-97553821D01*
X68336477Y-96913789D01*
X68245500Y-96456419D01*
X68117332Y-96241699D01*
X67353911Y-97005120D01*
X66010409Y-97005120D01*
X65246988Y-96241699D01*
X65118820Y-96456419D01*
X65027843Y-97096451D01*
X62181827Y-97096451D01*
X61301360Y-96215984D01*
X61301360Y-95569948D01*
X65918739Y-95569948D01*
X66682160Y-96333369D01*
X67445581Y-95569948D01*
X67230861Y-95441780D01*
X66590829Y-95350803D01*
X66133459Y-95441780D01*
X65918739Y-95569948D01*
X61301360Y-95569948D01*
X61301360Y-78036632D01*
X61508634Y-77726424D01*
X61651360Y-77008893D01*
X61651360Y-76935427D01*
X61508634Y-76217896D01*
X61102185Y-75609602D01*
X60493891Y-75203153D01*
X60384404Y-75181375D01*
X60576622Y-74989207D01*
X60622661Y-74857160D01*
X60201360Y-74857160D01*
X60201360Y-74927160D01*
X59351360Y-74927160D01*
X59351360Y-74857160D01*
X58930059Y-74857160D01*
X58976098Y-74989207D01*
X59168316Y-75181375D01*
X59058829Y-75203153D01*
X58450535Y-75609602D01*
X58044086Y-76217896D01*
X58011240Y-76383024D01*
X58011240Y-74007160D01*
X58930059Y-74007160D01*
X59351360Y-74007160D01*
X60201360Y-74007160D01*
X60622661Y-74007160D01*
X60576622Y-73875113D01*
X60333398Y-73631952D01*
X60201360Y-73589522D01*
X60201360Y-74007160D01*
X59351360Y-74007160D01*
X59351360Y-73589522D01*
X59219322Y-73631952D01*
X58976098Y-73875113D01*
X58930059Y-74007160D01*
X58011240Y-74007160D01*
X58011240Y-68091220D01*
X87934800Y-68091220D01*
X88355752Y-68007487D01*
X88712617Y-67769037D01*
X88951067Y-67412172D01*
X89034800Y-66991220D01*
X89034800Y-48349500D01*
X118590120Y-48349500D01*
X118590120Y-50329500D01*
X118661592Y-50709342D01*
X118886079Y-51058204D01*
X119228605Y-51292242D01*
X119635200Y-51374580D01*
X123595200Y-51374580D01*
X123975042Y-51303108D01*
X124323904Y-51078621D01*
X124557942Y-50736095D01*
X124640280Y-50329500D01*
X124640280Y-48349500D01*
X124568808Y-47969658D01*
X124344321Y-47620796D01*
X124001795Y-47386758D01*
X123595200Y-47304420D01*
X119635200Y-47304420D01*
X119255358Y-47375892D01*
X118906496Y-47600379D01*
X118672458Y-47942905D01*
X118590120Y-48349500D01*
X89034800Y-48349500D01*
X89034800Y-44814500D01*
X119651091Y-44814500D01*
X119703164Y-44966457D01*
X119759665Y-45187851D01*
X120150200Y-45454500D01*
X121140200Y-45454500D01*
X121140200Y-44814500D01*
X122090200Y-44814500D01*
X122090200Y-45454500D01*
X123080200Y-45454500D01*
X123470735Y-45187851D01*
X123527236Y-44966457D01*
X123579309Y-44814500D01*
X122090200Y-44814500D01*
X121140200Y-44814500D01*
X119651091Y-44814500D01*
X89034800Y-44814500D01*
X89034800Y-43864500D01*
X119651091Y-43864500D01*
X121140200Y-43864500D01*
X121140200Y-43224500D01*
X122090200Y-43224500D01*
X122090200Y-43864500D01*
X123579309Y-43864500D01*
X123527236Y-43712543D01*
X123470735Y-43491149D01*
X123080200Y-43224500D01*
X122090200Y-43224500D01*
X121140200Y-43224500D01*
X120150200Y-43224500D01*
X119759665Y-43491149D01*
X119703164Y-43712543D01*
X119651091Y-43864500D01*
X89034800Y-43864500D01*
X89034800Y-39230280D01*
X215826480Y-39230280D01*
X215826480Y-56034046D01*
G36*
X152686056Y-115487788D02*
X153231380Y-115596260D01*
X166075340Y-115596260D01*
X166075340Y-117320100D01*
X166183812Y-117865424D01*
X166492713Y-118327727D01*
X170573640Y-122408654D01*
X170573640Y-124221240D01*
X170682112Y-124766564D01*
X170991013Y-125228867D01*
X172723293Y-126961147D01*
X172838372Y-127038040D01*
X164090054Y-127038040D01*
X159184892Y-122132878D01*
X165775041Y-122132878D01*
X166037103Y-122767118D01*
X166521930Y-123252791D01*
X167155711Y-123515960D01*
X167841958Y-123516559D01*
X168476198Y-123254497D01*
X168961871Y-122769670D01*
X169225040Y-122135889D01*
X169225639Y-121449642D01*
X168963577Y-120815402D01*
X168478750Y-120329729D01*
X167844969Y-120066560D01*
X167158722Y-120065961D01*
X166524482Y-120328023D01*
X166038809Y-120812850D01*
X165775640Y-121446631D01*
X165775041Y-122132878D01*
X159184892Y-122132878D01*
X152245295Y-115193281D01*
X152686056Y-115487788D01*
X152686056Y-115487788D01*
G37*
X152686056Y-115487788D02*
X153231380Y-115596260D01*
X166075340Y-115596260D01*
X166075340Y-117320100D01*
X166183812Y-117865424D01*
X166492713Y-118327727D01*
X170573640Y-122408654D01*
X170573640Y-124221240D01*
X170682112Y-124766564D01*
X170991013Y-125228867D01*
X172723293Y-126961147D01*
X172838372Y-127038040D01*
X164090054Y-127038040D01*
X159184892Y-122132878D01*
X165775041Y-122132878D01*
X166037103Y-122767118D01*
X166521930Y-123252791D01*
X167155711Y-123515960D01*
X167841958Y-123516559D01*
X168476198Y-123254497D01*
X168961871Y-122769670D01*
X169225040Y-122135889D01*
X169225639Y-121449642D01*
X168963577Y-120815402D01*
X168478750Y-120329729D01*
X167844969Y-120066560D01*
X167158722Y-120065961D01*
X166524482Y-120328023D01*
X166038809Y-120812850D01*
X165775640Y-121446631D01*
X165775041Y-122132878D01*
X159184892Y-122132878D01*
X152245295Y-115193281D01*
X152686056Y-115487788D01*
G36*
X199731788Y-93905421D02*
X199226656Y-95121912D01*
X199225507Y-96439109D01*
X199728514Y-97656480D01*
X200659101Y-98588692D01*
X201875592Y-99093824D01*
X203192789Y-99094973D01*
X204410160Y-98591966D01*
X205342372Y-97661379D01*
X205419900Y-97474671D01*
X205419900Y-100469700D01*
X205528372Y-101015024D01*
X205837273Y-101477327D01*
X207589873Y-103229927D01*
X208052176Y-103538828D01*
X208597500Y-103647300D01*
X209938024Y-103647300D01*
X209606585Y-104143334D01*
X209460053Y-104880000D01*
X209606585Y-105616666D01*
X210023872Y-106241181D01*
X210037071Y-106250000D01*
X210023872Y-106258819D01*
X209606585Y-106883334D01*
X209460053Y-107620000D01*
X209515390Y-107898200D01*
X207400376Y-107898200D01*
X205322278Y-105820102D01*
X204827532Y-105489524D01*
X204243940Y-105373440D01*
X176197431Y-105373440D01*
X176581871Y-104989670D01*
X176845040Y-104355889D01*
X176845639Y-103669642D01*
X176584527Y-103037700D01*
X189052200Y-103037700D01*
X189597524Y-102929228D01*
X190059827Y-102620327D01*
X193384707Y-99295447D01*
X193693608Y-98833144D01*
X193708255Y-98759507D01*
X193712015Y-98740608D01*
X194218683Y-99079152D01*
X194917080Y-99218072D01*
X195615477Y-99079152D01*
X196207550Y-98683542D01*
X196603160Y-98091469D01*
X196626151Y-97975888D01*
X196632216Y-97978400D01*
X197025830Y-97978400D01*
X197057080Y-97947150D01*
X197057080Y-97453400D01*
X197857080Y-97453400D01*
X197857080Y-97947150D01*
X197888330Y-97978400D01*
X198281944Y-97978400D01*
X198327887Y-97959370D01*
X198363050Y-97924207D01*
X198382080Y-97878264D01*
X198382080Y-97484650D01*
X198350830Y-97453400D01*
X197857080Y-97453400D01*
X197057080Y-97453400D01*
X196962080Y-97453400D01*
X196962080Y-96653400D01*
X197057080Y-96653400D01*
X197057080Y-96159650D01*
X197857080Y-96159650D01*
X197857080Y-96653400D01*
X198350830Y-96653400D01*
X198382080Y-96622150D01*
X198382080Y-96228536D01*
X198363050Y-96182593D01*
X198327887Y-96147430D01*
X198281944Y-96128400D01*
X197888330Y-96128400D01*
X197857080Y-96159650D01*
X197057080Y-96159650D01*
X197025830Y-96128400D01*
X196632216Y-96128400D01*
X196586273Y-96147430D01*
X196569199Y-96164504D01*
X196314553Y-95783400D01*
X196603160Y-95351469D01*
X196667352Y-95028754D01*
X196874739Y-95292787D01*
X196931532Y-95374599D01*
X197057080Y-95412643D01*
X197057080Y-94888400D01*
X197857080Y-94888400D01*
X197857080Y-95412643D01*
X197982628Y-95374599D01*
X198039421Y-95292787D01*
X198255083Y-95018219D01*
X198277336Y-94888400D01*
X197857080Y-94888400D01*
X197057080Y-94888400D01*
X196962080Y-94888400D01*
X196962080Y-93938400D01*
X197057080Y-93938400D01*
X197057080Y-93918400D01*
X197857080Y-93918400D01*
X197857080Y-93938400D01*
X198277336Y-93938400D01*
X198255083Y-93808581D01*
X198090513Y-93599060D01*
X200038684Y-93599060D01*
X199731788Y-93905421D01*
X199731788Y-93905421D01*
G37*
X199731788Y-93905421D02*
X199226656Y-95121912D01*
X199225507Y-96439109D01*
X199728514Y-97656480D01*
X200659101Y-98588692D01*
X201875592Y-99093824D01*
X203192789Y-99094973D01*
X204410160Y-98591966D01*
X205342372Y-97661379D01*
X205419900Y-97474671D01*
X205419900Y-100469700D01*
X205528372Y-101015024D01*
X205837273Y-101477327D01*
X207589873Y-103229927D01*
X208052176Y-103538828D01*
X208597500Y-103647300D01*
X209938024Y-103647300D01*
X209606585Y-104143334D01*
X209460053Y-104880000D01*
X209606585Y-105616666D01*
X210023872Y-106241181D01*
X210037071Y-106250000D01*
X210023872Y-106258819D01*
X209606585Y-106883334D01*
X209460053Y-107620000D01*
X209515390Y-107898200D01*
X207400376Y-107898200D01*
X205322278Y-105820102D01*
X204827532Y-105489524D01*
X204243940Y-105373440D01*
X176197431Y-105373440D01*
X176581871Y-104989670D01*
X176845040Y-104355889D01*
X176845639Y-103669642D01*
X176584527Y-103037700D01*
X189052200Y-103037700D01*
X189597524Y-102929228D01*
X190059827Y-102620327D01*
X193384707Y-99295447D01*
X193693608Y-98833144D01*
X193708255Y-98759507D01*
X193712015Y-98740608D01*
X194218683Y-99079152D01*
X194917080Y-99218072D01*
X195615477Y-99079152D01*
X196207550Y-98683542D01*
X196603160Y-98091469D01*
X196626151Y-97975888D01*
X196632216Y-97978400D01*
X197025830Y-97978400D01*
X197057080Y-97947150D01*
X197057080Y-97453400D01*
X197857080Y-97453400D01*
X197857080Y-97947150D01*
X197888330Y-97978400D01*
X198281944Y-97978400D01*
X198327887Y-97959370D01*
X198363050Y-97924207D01*
X198382080Y-97878264D01*
X198382080Y-97484650D01*
X198350830Y-97453400D01*
X197857080Y-97453400D01*
X197057080Y-97453400D01*
X196962080Y-97453400D01*
X196962080Y-96653400D01*
X197057080Y-96653400D01*
X197057080Y-96159650D01*
X197857080Y-96159650D01*
X197857080Y-96653400D01*
X198350830Y-96653400D01*
X198382080Y-96622150D01*
X198382080Y-96228536D01*
X198363050Y-96182593D01*
X198327887Y-96147430D01*
X198281944Y-96128400D01*
X197888330Y-96128400D01*
X197857080Y-96159650D01*
X197057080Y-96159650D01*
X197025830Y-96128400D01*
X196632216Y-96128400D01*
X196586273Y-96147430D01*
X196569199Y-96164504D01*
X196314553Y-95783400D01*
X196603160Y-95351469D01*
X196667352Y-95028754D01*
X196874739Y-95292787D01*
X196931532Y-95374599D01*
X197057080Y-95412643D01*
X197057080Y-94888400D01*
X197857080Y-94888400D01*
X197857080Y-95412643D01*
X197982628Y-95374599D01*
X198039421Y-95292787D01*
X198255083Y-95018219D01*
X198277336Y-94888400D01*
X197857080Y-94888400D01*
X197057080Y-94888400D01*
X196962080Y-94888400D01*
X196962080Y-93938400D01*
X197057080Y-93938400D01*
X197057080Y-93918400D01*
X197857080Y-93918400D01*
X197857080Y-93938400D01*
X198277336Y-93938400D01*
X198255083Y-93808581D01*
X198090513Y-93599060D01*
X200038684Y-93599060D01*
X199731788Y-93905421D01*
G36*
X145286213Y-78624947D02*
X145748516Y-78933848D01*
X146293840Y-79042320D01*
X166095680Y-79042320D01*
X166641004Y-78933848D01*
X167103307Y-78624947D01*
X168656000Y-77072254D01*
X182182253Y-90598507D01*
X182644556Y-90907408D01*
X183189880Y-91015880D01*
X188284146Y-91015880D01*
X189653509Y-92385243D01*
X189138683Y-92487648D01*
X188567080Y-92869580D01*
X187995477Y-92487648D01*
X187297080Y-92348728D01*
X186598683Y-92487648D01*
X186027080Y-92869580D01*
X185455477Y-92487648D01*
X184757080Y-92348728D01*
X184058683Y-92487648D01*
X183487080Y-92869580D01*
X182915477Y-92487648D01*
X182217080Y-92348728D01*
X181518683Y-92487648D01*
X180947080Y-92869580D01*
X180375477Y-92487648D01*
X179677080Y-92348728D01*
X178978683Y-92487648D01*
X178407080Y-92869580D01*
X177835477Y-92487648D01*
X177137080Y-92348728D01*
X176438683Y-92487648D01*
X175867080Y-92869580D01*
X175295477Y-92487648D01*
X174597080Y-92348728D01*
X173898683Y-92487648D01*
X173327080Y-92869580D01*
X172755477Y-92487648D01*
X172057080Y-92348728D01*
X171358683Y-92487648D01*
X170787080Y-92869580D01*
X170215477Y-92487648D01*
X169517080Y-92348728D01*
X168818683Y-92487648D01*
X168247080Y-92869580D01*
X167675477Y-92487648D01*
X166977080Y-92348728D01*
X166278683Y-92487648D01*
X165707080Y-92869580D01*
X165135477Y-92487648D01*
X164437080Y-92348728D01*
X163738683Y-92487648D01*
X163167080Y-92869580D01*
X162595477Y-92487648D01*
X161897080Y-92348728D01*
X161198683Y-92487648D01*
X160627080Y-92869580D01*
X160055477Y-92487648D01*
X159357080Y-92348728D01*
X158658683Y-92487648D01*
X158066610Y-92883258D01*
X157671000Y-93475331D01*
X157606808Y-93798046D01*
X157399421Y-93534013D01*
X157342628Y-93452201D01*
X157217080Y-93414157D01*
X157217080Y-93938400D01*
X157312080Y-93938400D01*
X157312080Y-94888400D01*
X157217080Y-94888400D01*
X157217080Y-94908400D01*
X156417080Y-94908400D01*
X156417080Y-94888400D01*
X156322080Y-94888400D01*
X156322080Y-93938400D01*
X156417080Y-93938400D01*
X156417080Y-93414157D01*
X156291532Y-93452201D01*
X156234739Y-93534013D01*
X156027352Y-93798046D01*
X155963160Y-93475331D01*
X155702080Y-93084597D01*
X155702080Y-90238600D01*
X155593608Y-89693276D01*
X155284707Y-89230973D01*
X143031874Y-76978140D01*
X143399820Y-76978140D01*
X143601464Y-76940198D01*
X145286213Y-78624947D01*
X145286213Y-78624947D01*
G37*
X145286213Y-78624947D02*
X145748516Y-78933848D01*
X146293840Y-79042320D01*
X166095680Y-79042320D01*
X166641004Y-78933848D01*
X167103307Y-78624947D01*
X168656000Y-77072254D01*
X182182253Y-90598507D01*
X182644556Y-90907408D01*
X183189880Y-91015880D01*
X188284146Y-91015880D01*
X189653509Y-92385243D01*
X189138683Y-92487648D01*
X188567080Y-92869580D01*
X187995477Y-92487648D01*
X187297080Y-92348728D01*
X186598683Y-92487648D01*
X186027080Y-92869580D01*
X185455477Y-92487648D01*
X184757080Y-92348728D01*
X184058683Y-92487648D01*
X183487080Y-92869580D01*
X182915477Y-92487648D01*
X182217080Y-92348728D01*
X181518683Y-92487648D01*
X180947080Y-92869580D01*
X180375477Y-92487648D01*
X179677080Y-92348728D01*
X178978683Y-92487648D01*
X178407080Y-92869580D01*
X177835477Y-92487648D01*
X177137080Y-92348728D01*
X176438683Y-92487648D01*
X175867080Y-92869580D01*
X175295477Y-92487648D01*
X174597080Y-92348728D01*
X173898683Y-92487648D01*
X173327080Y-92869580D01*
X172755477Y-92487648D01*
X172057080Y-92348728D01*
X171358683Y-92487648D01*
X170787080Y-92869580D01*
X170215477Y-92487648D01*
X169517080Y-92348728D01*
X168818683Y-92487648D01*
X168247080Y-92869580D01*
X167675477Y-92487648D01*
X166977080Y-92348728D01*
X166278683Y-92487648D01*
X165707080Y-92869580D01*
X165135477Y-92487648D01*
X164437080Y-92348728D01*
X163738683Y-92487648D01*
X163167080Y-92869580D01*
X162595477Y-92487648D01*
X161897080Y-92348728D01*
X161198683Y-92487648D01*
X160627080Y-92869580D01*
X160055477Y-92487648D01*
X159357080Y-92348728D01*
X158658683Y-92487648D01*
X158066610Y-92883258D01*
X157671000Y-93475331D01*
X157606808Y-93798046D01*
X157399421Y-93534013D01*
X157342628Y-93452201D01*
X157217080Y-93414157D01*
X157217080Y-93938400D01*
X157312080Y-93938400D01*
X157312080Y-94888400D01*
X157217080Y-94888400D01*
X157217080Y-94908400D01*
X156417080Y-94908400D01*
X156417080Y-94888400D01*
X156322080Y-94888400D01*
X156322080Y-93938400D01*
X156417080Y-93938400D01*
X156417080Y-93414157D01*
X156291532Y-93452201D01*
X156234739Y-93534013D01*
X156027352Y-93798046D01*
X155963160Y-93475331D01*
X155702080Y-93084597D01*
X155702080Y-90238600D01*
X155593608Y-89693276D01*
X155284707Y-89230973D01*
X143031874Y-76978140D01*
X143399820Y-76978140D01*
X143601464Y-76940198D01*
X145286213Y-78624947D01*
G36*
X188829453Y-51185347D02*
X192006580Y-54362474D01*
X192006580Y-54660920D01*
X192305026Y-54660920D01*
X192536500Y-54892394D01*
X192536500Y-55635920D01*
X192607972Y-56015762D01*
X192832459Y-56364624D01*
X193174985Y-56598662D01*
X193581580Y-56681000D01*
X194011406Y-56681000D01*
X194857273Y-57526867D01*
X195319576Y-57835768D01*
X195864900Y-57944240D01*
X200887370Y-57944240D01*
X201004187Y-58061261D01*
X201672871Y-58338923D01*
X202396912Y-58339555D01*
X202770792Y-58185071D01*
X203032659Y-58818840D01*
X203151480Y-58937868D01*
X203151480Y-59033906D01*
X201751226Y-60434160D01*
X193065400Y-60434160D01*
X192520076Y-60542632D01*
X192057773Y-60851533D01*
X191834253Y-61075053D01*
X191525352Y-61537356D01*
X191416880Y-62082680D01*
X191478416Y-62392042D01*
X188705560Y-59619186D01*
X188705560Y-59162799D01*
X188759264Y-59128241D01*
X188993302Y-58785715D01*
X189075640Y-58379120D01*
X189075640Y-58085370D01*
X189105560Y-58085370D01*
X189105560Y-58403984D01*
X189124590Y-58449927D01*
X189159753Y-58485090D01*
X189205696Y-58504120D01*
X189574310Y-58504120D01*
X189605560Y-58472870D01*
X189605560Y-58054120D01*
X190355560Y-58054120D01*
X190355560Y-58472870D01*
X190386810Y-58504120D01*
X190755424Y-58504120D01*
X190801367Y-58485090D01*
X190836530Y-58449927D01*
X190855560Y-58403984D01*
X190855560Y-58085370D01*
X190824310Y-58054120D01*
X190355560Y-58054120D01*
X189605560Y-58054120D01*
X189136810Y-58054120D01*
X189105560Y-58085370D01*
X189075640Y-58085370D01*
X189075640Y-57079120D01*
X189070962Y-57054256D01*
X189105560Y-57054256D01*
X189105560Y-57372870D01*
X189136810Y-57404120D01*
X189605560Y-57404120D01*
X189605560Y-56985370D01*
X190355560Y-56985370D01*
X190355560Y-57404120D01*
X190824310Y-57404120D01*
X190855560Y-57372870D01*
X190855560Y-57054256D01*
X190836530Y-57008313D01*
X190801367Y-56973150D01*
X190755424Y-56954120D01*
X190386810Y-56954120D01*
X190355560Y-56985370D01*
X189605560Y-56985370D01*
X189574310Y-56954120D01*
X189205696Y-56954120D01*
X189159753Y-56973150D01*
X189124590Y-57008313D01*
X189105560Y-57054256D01*
X189070962Y-57054256D01*
X189004168Y-56699278D01*
X188779681Y-56350416D01*
X188705560Y-56299771D01*
X188705560Y-55342170D01*
X190756580Y-55342170D01*
X190756580Y-55660784D01*
X190775610Y-55706727D01*
X190810773Y-55741890D01*
X190856716Y-55760920D01*
X191225330Y-55760920D01*
X191256580Y-55729670D01*
X191256580Y-55310920D01*
X192006580Y-55310920D01*
X192006580Y-55729670D01*
X192037830Y-55760920D01*
X192406444Y-55760920D01*
X192452387Y-55741890D01*
X192487550Y-55706727D01*
X192506580Y-55660784D01*
X192506580Y-55342170D01*
X192475330Y-55310920D01*
X192006580Y-55310920D01*
X191256580Y-55310920D01*
X190787830Y-55310920D01*
X190756580Y-55342170D01*
X188705560Y-55342170D01*
X188705560Y-54311056D01*
X190756580Y-54311056D01*
X190756580Y-54629670D01*
X190787830Y-54660920D01*
X191256580Y-54660920D01*
X191256580Y-54242170D01*
X191225330Y-54210920D01*
X190856716Y-54210920D01*
X190810773Y-54229950D01*
X190775610Y-54265113D01*
X190756580Y-54311056D01*
X188705560Y-54311056D01*
X188705560Y-50999928D01*
X188829453Y-51185347D01*
X188829453Y-51185347D01*
G37*
X188829453Y-51185347D02*
X192006580Y-54362474D01*
X192006580Y-54660920D01*
X192305026Y-54660920D01*
X192536500Y-54892394D01*
X192536500Y-55635920D01*
X192607972Y-56015762D01*
X192832459Y-56364624D01*
X193174985Y-56598662D01*
X193581580Y-56681000D01*
X194011406Y-56681000D01*
X194857273Y-57526867D01*
X195319576Y-57835768D01*
X195864900Y-57944240D01*
X200887370Y-57944240D01*
X201004187Y-58061261D01*
X201672871Y-58338923D01*
X202396912Y-58339555D01*
X202770792Y-58185071D01*
X203032659Y-58818840D01*
X203151480Y-58937868D01*
X203151480Y-59033906D01*
X201751226Y-60434160D01*
X193065400Y-60434160D01*
X192520076Y-60542632D01*
X192057773Y-60851533D01*
X191834253Y-61075053D01*
X191525352Y-61537356D01*
X191416880Y-62082680D01*
X191478416Y-62392042D01*
X188705560Y-59619186D01*
X188705560Y-59162799D01*
X188759264Y-59128241D01*
X188993302Y-58785715D01*
X189075640Y-58379120D01*
X189075640Y-58085370D01*
X189105560Y-58085370D01*
X189105560Y-58403984D01*
X189124590Y-58449927D01*
X189159753Y-58485090D01*
X189205696Y-58504120D01*
X189574310Y-58504120D01*
X189605560Y-58472870D01*
X189605560Y-58054120D01*
X190355560Y-58054120D01*
X190355560Y-58472870D01*
X190386810Y-58504120D01*
X190755424Y-58504120D01*
X190801367Y-58485090D01*
X190836530Y-58449927D01*
X190855560Y-58403984D01*
X190855560Y-58085370D01*
X190824310Y-58054120D01*
X190355560Y-58054120D01*
X189605560Y-58054120D01*
X189136810Y-58054120D01*
X189105560Y-58085370D01*
X189075640Y-58085370D01*
X189075640Y-57079120D01*
X189070962Y-57054256D01*
X189105560Y-57054256D01*
X189105560Y-57372870D01*
X189136810Y-57404120D01*
X189605560Y-57404120D01*
X189605560Y-56985370D01*
X190355560Y-56985370D01*
X190355560Y-57404120D01*
X190824310Y-57404120D01*
X190855560Y-57372870D01*
X190855560Y-57054256D01*
X190836530Y-57008313D01*
X190801367Y-56973150D01*
X190755424Y-56954120D01*
X190386810Y-56954120D01*
X190355560Y-56985370D01*
X189605560Y-56985370D01*
X189574310Y-56954120D01*
X189205696Y-56954120D01*
X189159753Y-56973150D01*
X189124590Y-57008313D01*
X189105560Y-57054256D01*
X189070962Y-57054256D01*
X189004168Y-56699278D01*
X188779681Y-56350416D01*
X188705560Y-56299771D01*
X188705560Y-55342170D01*
X190756580Y-55342170D01*
X190756580Y-55660784D01*
X190775610Y-55706727D01*
X190810773Y-55741890D01*
X190856716Y-55760920D01*
X191225330Y-55760920D01*
X191256580Y-55729670D01*
X191256580Y-55310920D01*
X192006580Y-55310920D01*
X192006580Y-55729670D01*
X192037830Y-55760920D01*
X192406444Y-55760920D01*
X192452387Y-55741890D01*
X192487550Y-55706727D01*
X192506580Y-55660784D01*
X192506580Y-55342170D01*
X192475330Y-55310920D01*
X192006580Y-55310920D01*
X191256580Y-55310920D01*
X190787830Y-55310920D01*
X190756580Y-55342170D01*
X188705560Y-55342170D01*
X188705560Y-54311056D01*
X190756580Y-54311056D01*
X190756580Y-54629670D01*
X190787830Y-54660920D01*
X191256580Y-54660920D01*
X191256580Y-54242170D01*
X191225330Y-54210920D01*
X190856716Y-54210920D01*
X190810773Y-54229950D01*
X190775610Y-54265113D01*
X190756580Y-54311056D01*
X188705560Y-54311056D01*
X188705560Y-50999928D01*
X188829453Y-51185347D01*
M02*
