G04 #@! TF.FileFunction,Copper,L2,Bot,Signal*
%FSLAX46Y46*%
G04 Gerber Fmt 4.6, Leading zero omitted, Abs format (unit mm)*
G04 Created by KiCad (PCBNEW 4.0.7-e2-6376~58~ubuntu16.04.1) date Wed Jul  4 10:12:21 2018*
%MOMM*%
%LPD*%
G01*
G04 APERTURE LIST*
%ADD10C,0.100000*%
%ADD11C,1.160000*%
%ADD12O,3.200000X1.800000*%
%ADD13R,1.700000X1.700000*%
%ADD14O,1.700000X1.700000*%
%ADD15R,1.600000X1.600000*%
%ADD16O,1.600000X2.000000*%
%ADD17R,1.400000X1.400000*%
%ADD18C,1.400000*%
%ADD19C,4.572000*%
%ADD20R,3.960000X1.980000*%
%ADD21O,3.960000X1.980000*%
%ADD22C,1.500000*%
%ADD23C,3.000000*%
%ADD24R,0.900000X0.800000*%
%ADD25R,0.800000X0.900000*%
%ADD26C,7.000000*%
%ADD27C,1.590000*%
%ADD28C,2.200000*%
%ADD29R,1.500000X1.300000*%
%ADD30R,1.300000X1.500000*%
%ADD31C,0.600000*%
%ADD32C,0.800000*%
%ADD33C,1.000000*%
%ADD34C,0.050000*%
G04 APERTURE END LIST*
D10*
D11*
X209786480Y-127010000D03*
X209786480Y-124970000D03*
X212336480Y-125990000D03*
X212336480Y-128030000D03*
D12*
X212136480Y-131880000D03*
X212136480Y-121120000D03*
D11*
X209786480Y-113510000D03*
X209786480Y-111470000D03*
X212336480Y-112490000D03*
X212336480Y-114530000D03*
D12*
X212136480Y-118380000D03*
X212136480Y-107620000D03*
D11*
X209786480Y-100010000D03*
X209786480Y-97970000D03*
X212336480Y-98990000D03*
X212336480Y-101030000D03*
D12*
X212136480Y-104880000D03*
X212136480Y-94120000D03*
D11*
X209786480Y-86510000D03*
X209786480Y-84470000D03*
X212336480Y-85490000D03*
X212336480Y-87530000D03*
D12*
X212136480Y-91380000D03*
X212136480Y-80620000D03*
D13*
X72476360Y-74432160D03*
D14*
X72476360Y-76972160D03*
X59776360Y-74432160D03*
X59776360Y-76972160D03*
D15*
X197457080Y-97053400D03*
D16*
X197457080Y-94413400D03*
X194917080Y-97153400D03*
X194917080Y-94413400D03*
X192377080Y-97153400D03*
X192377080Y-94413400D03*
X189837080Y-97153400D03*
X189837080Y-94413400D03*
X187297080Y-97153400D03*
X187297080Y-94413400D03*
X184757080Y-97153400D03*
X184757080Y-94413400D03*
X182217080Y-97153400D03*
X182217080Y-94413400D03*
X179677080Y-97153400D03*
X179677080Y-94413400D03*
X177137080Y-97153400D03*
X177137080Y-94413400D03*
X174597080Y-97153400D03*
X174597080Y-94413400D03*
X172057080Y-97153400D03*
X172057080Y-94413400D03*
X169517080Y-97153400D03*
X169517080Y-94413400D03*
X166977080Y-97153400D03*
X166977080Y-94413400D03*
X164437080Y-97153400D03*
X164437080Y-94413400D03*
X161897080Y-97153400D03*
X161897080Y-94413400D03*
X159357080Y-97153400D03*
X159357080Y-94413400D03*
X156817080Y-97153400D03*
X156817080Y-94413400D03*
X154277080Y-97153400D03*
X154277080Y-94413400D03*
X151737080Y-97153400D03*
X151737080Y-94413400D03*
X149197080Y-97153400D03*
X149197080Y-94413400D03*
X146657080Y-97153400D03*
X146657080Y-94413400D03*
X144117080Y-97153400D03*
X144117080Y-94413400D03*
X141577080Y-97153400D03*
X141577080Y-94413400D03*
D15*
X197457080Y-48793400D03*
D16*
X197457080Y-46153400D03*
X194917080Y-48893400D03*
X194917080Y-46153400D03*
X192377080Y-48893400D03*
X192377080Y-46153400D03*
X189837080Y-48893400D03*
X189837080Y-46153400D03*
X187297080Y-48893400D03*
X187297080Y-46153400D03*
X184757080Y-48893400D03*
X184757080Y-46153400D03*
X182217080Y-48893400D03*
X182217080Y-46153400D03*
X179677080Y-48893400D03*
X179677080Y-46153400D03*
X177137080Y-48893400D03*
X177137080Y-46153400D03*
X174597080Y-48893400D03*
X174597080Y-46153400D03*
X172057080Y-48893400D03*
X172057080Y-46153400D03*
X169517080Y-48893400D03*
X169517080Y-46153400D03*
X166977080Y-48893400D03*
X166977080Y-46153400D03*
X164437080Y-48893400D03*
X164437080Y-46153400D03*
X161897080Y-48893400D03*
X161897080Y-46153400D03*
X159357080Y-48893400D03*
X159357080Y-46153400D03*
X156817080Y-48893400D03*
X156817080Y-46153400D03*
X154277080Y-48893400D03*
X154277080Y-46153400D03*
X151737080Y-48893400D03*
X151737080Y-46153400D03*
X149197080Y-48893400D03*
X149197080Y-46153400D03*
X146657080Y-48893400D03*
X146657080Y-46153400D03*
X144117080Y-48893400D03*
X144117080Y-46153400D03*
X141577080Y-48893400D03*
X141577080Y-46153400D03*
D17*
X142699820Y-75233060D03*
D18*
X135079820Y-75233060D03*
X142699820Y-62543060D03*
X142699820Y-57453060D03*
X142699820Y-67613060D03*
X135069820Y-62523060D03*
X135069820Y-57443060D03*
X135079820Y-67613060D03*
D19*
X136497080Y-92608400D03*
X202537080Y-95783400D03*
X202537080Y-47523400D03*
X136497080Y-50698400D03*
D20*
X121615200Y-49339500D03*
D21*
X121615200Y-44339500D03*
D22*
X69352160Y-100055120D03*
X69352160Y-102595120D03*
X69352160Y-104625120D03*
X69352160Y-107165120D03*
D23*
X66682160Y-97005120D03*
X66682160Y-110725120D03*
D17*
X144033240Y-121679500D03*
D18*
X136413240Y-121679500D03*
X144033240Y-108989500D03*
X144033240Y-103899500D03*
X144033240Y-114059500D03*
X136403240Y-108969500D03*
X136403240Y-103889500D03*
X136413240Y-114059500D03*
D17*
X175120340Y-121791260D03*
D18*
X167500340Y-121791260D03*
X175120340Y-109101260D03*
X175120340Y-104011260D03*
X175120340Y-114171260D03*
X167490340Y-109081260D03*
X167490340Y-104001260D03*
X167500340Y-114171260D03*
D17*
X168656000Y-75057000D03*
D18*
X161036000Y-75057000D03*
X168656000Y-62367000D03*
X168656000Y-57277000D03*
X168656000Y-67437000D03*
X161026000Y-62347000D03*
X161026000Y-57267000D03*
X161036000Y-67437000D03*
D24*
X139828780Y-116438640D03*
X139828780Y-118338640D03*
X137828780Y-117388640D03*
D25*
X170121540Y-115598700D03*
X172021540Y-115598700D03*
X171071540Y-117598700D03*
X136982240Y-80623920D03*
X135082240Y-80623920D03*
X136032240Y-78623920D03*
X163212820Y-80240380D03*
X161312820Y-80240380D03*
X162262820Y-78240380D03*
D26*
X101242000Y-119335000D03*
X101242000Y-80235000D03*
D27*
X202036480Y-51439240D03*
X204576480Y-52709240D03*
X202036480Y-53979240D03*
X204576480Y-55249240D03*
X202036480Y-56519240D03*
X204576480Y-57789240D03*
D28*
X212949800Y-67025500D03*
X207949800Y-67025500D03*
X207949800Y-72025500D03*
X212949800Y-72025500D03*
X210449800Y-69525500D03*
D25*
X141118300Y-121719340D03*
X139018300Y-121719340D03*
X139947360Y-75303380D03*
X137847360Y-75303380D03*
X172322200Y-121859040D03*
X170222200Y-121859040D03*
X165997600Y-75039220D03*
X163897600Y-75039220D03*
D29*
X151730700Y-114355880D03*
X149030700Y-114355880D03*
X151443680Y-66385440D03*
X148743680Y-66385440D03*
X182276740Y-114388900D03*
X179576740Y-114388900D03*
X176645560Y-66832480D03*
X173945560Y-66832480D03*
X151654500Y-106474260D03*
X148954500Y-106474260D03*
X149940000Y-58369200D03*
X147240000Y-58369200D03*
X182236100Y-107119420D03*
X179536100Y-107119420D03*
X175751480Y-58059320D03*
X173051480Y-58059320D03*
X151611320Y-71526400D03*
X148911320Y-71526400D03*
X187018940Y-114294920D03*
X189718940Y-114294920D03*
X154275800Y-118772940D03*
X156975800Y-118772940D03*
X180539400Y-67589400D03*
X183239400Y-67589400D03*
X151667200Y-76555600D03*
X148967200Y-76555600D03*
X187128160Y-119936260D03*
X189828160Y-119936260D03*
X154191980Y-124360940D03*
X156891980Y-124360940D03*
X180615600Y-72847200D03*
X183315600Y-72847200D03*
X149978100Y-53225700D03*
X147278100Y-53225700D03*
X187166260Y-104353360D03*
X189866260Y-104353360D03*
X175695600Y-53644800D03*
X172995600Y-53644800D03*
X153183600Y-55854600D03*
X155883600Y-55854600D03*
X187090060Y-109153960D03*
X189790060Y-109153960D03*
X156079200Y-109509560D03*
X158779200Y-109509560D03*
X179030640Y-55935880D03*
X181730640Y-55935880D03*
D30*
X132379720Y-115774480D03*
X132379720Y-118474480D03*
X164203380Y-108649780D03*
X164203380Y-111349780D03*
D29*
X144486620Y-79880460D03*
X141786620Y-79880460D03*
X170971200Y-79832200D03*
X168271200Y-79832200D03*
X156079200Y-104175560D03*
X158779200Y-104175560D03*
D31*
X192730120Y-58618120D03*
X164371020Y-117487700D03*
X158391860Y-117431820D03*
X197479920Y-104439720D03*
X127629920Y-105473500D03*
X195785740Y-76608940D03*
X192841880Y-62082680D03*
D32*
X158779200Y-109509560D02*
X158779200Y-104175560D01*
X164371020Y-117487700D02*
X164371020Y-115831620D01*
D33*
X157050740Y-118772940D02*
X158391860Y-117431820D01*
D32*
X158779200Y-110239800D02*
X158779200Y-109509560D01*
X164371020Y-115831620D02*
X158779200Y-110239800D01*
D33*
X156975800Y-118772940D02*
X157050740Y-118772940D01*
X189866260Y-104353360D02*
X197393560Y-104353360D01*
X197393560Y-104353360D02*
X197479920Y-104439720D01*
X165997600Y-75039220D02*
X168638220Y-75039220D01*
X168638220Y-75039220D02*
X168656000Y-75057000D01*
D32*
X172322200Y-121859040D02*
X175052560Y-121859040D01*
X175052560Y-121859040D02*
X175120340Y-121791260D01*
X141118300Y-121719340D02*
X143993400Y-121719340D01*
X143993400Y-121719340D02*
X144033240Y-121679500D01*
X139947360Y-75303380D02*
X142629500Y-75303380D01*
X142629500Y-75303380D02*
X142699820Y-75233060D01*
X128686560Y-104416860D02*
X128686560Y-101300280D01*
X127629920Y-105473500D02*
X128686560Y-104416860D01*
X128686560Y-101300280D02*
X128686560Y-67558920D01*
D33*
X121615200Y-60198000D02*
X121615200Y-60579000D01*
X121615200Y-49339500D02*
X121615200Y-60198000D01*
X128649260Y-67613060D02*
X135079820Y-67613060D01*
X121615200Y-60579000D02*
X128649260Y-67613060D01*
X144033240Y-114059500D02*
X143917200Y-114059500D01*
X144033240Y-114059500D02*
X144033240Y-114327940D01*
D32*
X135079820Y-67613060D02*
X135065380Y-67627500D01*
X132379720Y-118474480D02*
X133960880Y-118474480D01*
X139254780Y-115864640D02*
X139828780Y-116438640D01*
X136570720Y-115864640D02*
X139254780Y-115864640D01*
X133960880Y-118474480D02*
X136570720Y-115864640D01*
D33*
X164203380Y-111349780D02*
X168291500Y-111349780D01*
X170121540Y-113179820D02*
X170121540Y-115598700D01*
X168291500Y-111349780D02*
X170121540Y-113179820D01*
D32*
X136982240Y-80623920D02*
X141043160Y-80623920D01*
X141043160Y-80623920D02*
X141786620Y-79880460D01*
X163212820Y-80240380D02*
X167863020Y-80240380D01*
X167863020Y-80240380D02*
X168271200Y-79832200D01*
D33*
X132379720Y-115774480D02*
X132379720Y-104094280D01*
X169517080Y-98585000D02*
X169517080Y-97053400D01*
X168445180Y-99656900D02*
X169517080Y-98585000D01*
X136817100Y-99656900D02*
X168445180Y-99656900D01*
X132379720Y-104094280D02*
X136817100Y-99656900D01*
X164203380Y-108649780D02*
X164203380Y-103487220D01*
X170916600Y-101650800D02*
X172057080Y-100510320D01*
X166039800Y-101650800D02*
X170916600Y-101650800D01*
X164203380Y-103487220D02*
X166039800Y-101650800D01*
X172057080Y-100510320D02*
X172057080Y-97053400D01*
D32*
X144486620Y-79880460D02*
X144688560Y-79880460D01*
X144688560Y-79880460D02*
X154508200Y-89700100D01*
X169517080Y-93134200D02*
X169517080Y-94513400D01*
X166082980Y-89700100D02*
X169517080Y-93134200D01*
X154508200Y-89700100D02*
X166082980Y-89700100D01*
X170971200Y-79832200D02*
X172425360Y-79832200D01*
X184757080Y-92163920D02*
X184757080Y-94513400D01*
X172425360Y-79832200D02*
X184757080Y-92163920D01*
X136413240Y-121679500D02*
X136628340Y-121679500D01*
X136628340Y-121679500D02*
X137828780Y-120479060D01*
X137828780Y-120479060D02*
X137828780Y-117388640D01*
X136413240Y-121679500D02*
X138978460Y-121679500D01*
X138978460Y-121679500D02*
X139018300Y-121719340D01*
X135079820Y-75233060D02*
X135079820Y-77671500D01*
X135079820Y-77671500D02*
X136032240Y-78623920D01*
X135079820Y-75233060D02*
X137777040Y-75233060D01*
X137777040Y-75233060D02*
X137847360Y-75303380D01*
D33*
X167500340Y-121791260D02*
X167500340Y-121169900D01*
X167500340Y-121169900D02*
X171071540Y-117598700D01*
D32*
X167500340Y-121791260D02*
X170154420Y-121791260D01*
X170154420Y-121791260D02*
X170222200Y-121859040D01*
D33*
X161036000Y-75057000D02*
X163879820Y-75057000D01*
X163879820Y-75057000D02*
X163897600Y-75039220D01*
D32*
X161036000Y-75057000D02*
X161036000Y-77013560D01*
X161036000Y-77013560D02*
X162262820Y-78240380D01*
X192824100Y-73647300D02*
X195785740Y-76608940D01*
X192824100Y-62100460D02*
X192824100Y-73647300D01*
X192841880Y-62082680D02*
X192824100Y-62100460D01*
D33*
X154191980Y-124360940D02*
X154191980Y-118856760D01*
X154191980Y-118856760D02*
X154275800Y-118772940D01*
X151730700Y-114355880D02*
X152074880Y-114355880D01*
X152074880Y-114355880D02*
X154275800Y-116556800D01*
X154275800Y-116556800D02*
X154275800Y-118772940D01*
X149030700Y-114355880D02*
X149030700Y-126343420D01*
X205823820Y-129959100D02*
X213283800Y-129959100D01*
X204129640Y-131653280D02*
X205823820Y-129959100D01*
X154340560Y-131653280D02*
X204129640Y-131653280D01*
X149030700Y-126343420D02*
X154340560Y-131653280D01*
X213283800Y-129959100D02*
X214942420Y-128300480D01*
X149030700Y-114355880D02*
X149030700Y-114982000D01*
X213283800Y-129959100D02*
X214942420Y-128300480D01*
X214942420Y-126077980D02*
X212750400Y-123885960D01*
X214942420Y-128300480D02*
X214942420Y-126077980D01*
X210870520Y-123885960D02*
X209786480Y-124970000D01*
X212750400Y-123885960D02*
X210870520Y-123885960D01*
X149030700Y-114355880D02*
X149030700Y-113811040D01*
X209786480Y-124970000D02*
X209786480Y-124731520D01*
X149030700Y-114355880D02*
X149030700Y-113986960D01*
X149030700Y-113986960D02*
X144033240Y-108989500D01*
D32*
X151611320Y-71526400D02*
X151611320Y-76499720D01*
X151611320Y-76499720D02*
X151667200Y-76555600D01*
X151443680Y-66385440D02*
X151443680Y-71358760D01*
X151443680Y-71358760D02*
X151611320Y-71526400D01*
X148743680Y-65759320D02*
X149999700Y-64503300D01*
X149999700Y-64503300D02*
X153695400Y-64503300D01*
X153695400Y-64503300D02*
X160332420Y-71140320D01*
X160332420Y-71140320D02*
X168203880Y-71140320D01*
X148743680Y-66385440D02*
X148743680Y-65759320D01*
X142699820Y-62543060D02*
X144901300Y-62543060D01*
X144901300Y-62543060D02*
X148743680Y-66385440D01*
X206463900Y-96088200D02*
X208345700Y-97970000D01*
X206463900Y-93992700D02*
X206463900Y-96088200D01*
X204216000Y-91744800D02*
X206463900Y-93992700D01*
X188808360Y-91744800D02*
X204216000Y-91744800D01*
X168203880Y-71140320D02*
X188808360Y-91744800D01*
X208345700Y-97970000D02*
X209786480Y-97970000D01*
D33*
X187018940Y-114294920D02*
X187018940Y-119827040D01*
X187018940Y-119827040D02*
X187128160Y-119936260D01*
X182276740Y-114388900D02*
X186924960Y-114388900D01*
X186924960Y-114388900D02*
X187018940Y-114294920D01*
X179576740Y-114388900D02*
X179576740Y-119170460D01*
X208208880Y-117627400D02*
X209633820Y-116202460D01*
X208208880Y-120784620D02*
X208208880Y-117627400D01*
X206113380Y-122880120D02*
X208208880Y-120784620D01*
X183286400Y-122880120D02*
X206113380Y-122880120D01*
X179576740Y-119170460D02*
X183286400Y-122880120D01*
X209786480Y-111470000D02*
X211396400Y-109860080D01*
X214160100Y-109860080D02*
X215473280Y-111173260D01*
X215473280Y-111173260D02*
X215473280Y-115084860D01*
X215473280Y-115084860D02*
X214355680Y-116202460D01*
X214355680Y-116202460D02*
X209633820Y-116202460D01*
X211396400Y-109860080D02*
X214160100Y-109860080D01*
X179576740Y-114388900D02*
X179576740Y-113557660D01*
X179576740Y-113557660D02*
X175120340Y-109101260D01*
D32*
X175120340Y-109101260D02*
X175166660Y-109101260D01*
X180539400Y-67589400D02*
X177402480Y-67589400D01*
X177402480Y-67589400D02*
X176645560Y-66832480D01*
D33*
X180539400Y-67589400D02*
X180539400Y-72771000D01*
X180539400Y-72771000D02*
X180615600Y-72847200D01*
D32*
X173945560Y-66832480D02*
X173945560Y-65055760D01*
X171256800Y-62367000D02*
X168656000Y-62367000D01*
X173945560Y-65055760D02*
X171256800Y-62367000D01*
X173945560Y-66832480D02*
X173945560Y-69785240D01*
X173945560Y-69785240D02*
X174625000Y-70464680D01*
X209786480Y-84470000D02*
X188630320Y-84470000D01*
X188630320Y-84470000D02*
X174625000Y-70464680D01*
D33*
X151654500Y-106474260D02*
X153720800Y-106474260D01*
X156079200Y-108832660D02*
X156079200Y-109509560D01*
X153720800Y-106474260D02*
X156079200Y-108832660D01*
X151654500Y-106474260D02*
X153780500Y-106474260D01*
X153780500Y-106474260D02*
X156079200Y-104175560D01*
X209786480Y-127010000D02*
X166126000Y-127010000D01*
X148954500Y-107379780D02*
X148954500Y-106474260D01*
X154061160Y-112486440D02*
X148954500Y-107379780D01*
X158363920Y-112486440D02*
X154061160Y-112486440D01*
X161213800Y-115336320D02*
X158363920Y-112486440D01*
X161213800Y-122097800D02*
X161213800Y-115336320D01*
X166126000Y-127010000D02*
X161213800Y-122097800D01*
X209445960Y-127350520D02*
X209786480Y-127010000D01*
X144033240Y-103899500D02*
X146379740Y-103899500D01*
X146379740Y-103899500D02*
X148954500Y-106474260D01*
D32*
X149978100Y-53225700D02*
X149978100Y-54479180D01*
X151353520Y-55854600D02*
X153183600Y-55854600D01*
X149978100Y-54479180D02*
X151353520Y-55854600D01*
X149940000Y-58369200D02*
X149940000Y-53263800D01*
X149940000Y-53263800D02*
X149978100Y-53225700D01*
X147240000Y-58369200D02*
X147240000Y-59559200D01*
X156514800Y-61747400D02*
X159951420Y-65184020D01*
X149428200Y-61747400D02*
X156514800Y-61747400D01*
X147240000Y-59559200D02*
X149428200Y-61747400D01*
X142699820Y-57453060D02*
X146323860Y-57453060D01*
X146323860Y-57453060D02*
X147240000Y-58369200D01*
X166687500Y-65184020D02*
X159951420Y-65184020D01*
X170111420Y-65184020D02*
X166687500Y-65184020D01*
X171132500Y-66205100D02*
X170111420Y-65184020D01*
X171132500Y-70502780D02*
X171132500Y-66205100D01*
X189115700Y-88485980D02*
X171132500Y-70502780D01*
X204213460Y-88485980D02*
X189115700Y-88485980D01*
X208711800Y-92984320D02*
X204213460Y-88485980D01*
X208711800Y-94828360D02*
X208711800Y-92984320D01*
X210192620Y-96309180D02*
X208711800Y-94828360D01*
X213733380Y-96309180D02*
X210192620Y-96309180D01*
X215303100Y-97878900D02*
X213733380Y-96309180D01*
X215303100Y-101285040D02*
X215303100Y-97878900D01*
X213908640Y-102679500D02*
X215303100Y-101285040D01*
X211226400Y-102679500D02*
X213908640Y-102679500D01*
X209786480Y-101239580D02*
X211226400Y-102679500D01*
X209786480Y-100010000D02*
X209786480Y-101239580D01*
X159951420Y-65184020D02*
X159486600Y-64719200D01*
D33*
X187166260Y-104353360D02*
X187166260Y-109077760D01*
X187166260Y-109077760D02*
X187090060Y-109153960D01*
X182236100Y-107119420D02*
X184400200Y-107119420D01*
X184400200Y-107119420D02*
X187166260Y-104353360D01*
X175120340Y-104011260D02*
X182996040Y-104011260D01*
X208531400Y-113510000D02*
X209786480Y-113510000D01*
X205816200Y-110794800D02*
X208531400Y-113510000D01*
X205816200Y-107137200D02*
X205816200Y-110794800D01*
X199796400Y-101117400D02*
X205816200Y-107137200D01*
X185889900Y-101117400D02*
X199796400Y-101117400D01*
X182996040Y-104011260D02*
X185889900Y-101117400D01*
X175120340Y-104011260D02*
X176427940Y-104011260D01*
X176427940Y-104011260D02*
X179536100Y-107119420D01*
D32*
X175695600Y-53644800D02*
X175695600Y-53999120D01*
X175695600Y-53999120D02*
X177632360Y-55935880D01*
X177632360Y-55935880D02*
X179030640Y-55935880D01*
X175695600Y-53644800D02*
X175695600Y-58003440D01*
X175695600Y-58003440D02*
X175751480Y-58059320D01*
X209786480Y-86510000D02*
X209786480Y-88359240D01*
X187490100Y-67056000D02*
X182689500Y-62255400D01*
X187490100Y-72656700D02*
X187490100Y-67056000D01*
X195971160Y-81137760D02*
X187490100Y-72656700D01*
X209214720Y-81137760D02*
X195971160Y-81137760D01*
X210807300Y-82730340D02*
X209214720Y-81137760D01*
X212735160Y-82730340D02*
X210807300Y-82730340D01*
X214635080Y-84630260D02*
X212735160Y-82730340D01*
X214635080Y-87703660D02*
X214635080Y-84630260D01*
X212930740Y-89408000D02*
X214635080Y-87703660D01*
X210835240Y-89408000D02*
X212930740Y-89408000D01*
X209786480Y-88359240D02*
X210835240Y-89408000D01*
X173051480Y-58059320D02*
X173051480Y-58827680D01*
X173051480Y-58827680D02*
X176479200Y-62255400D01*
X176479200Y-62255400D02*
X182689500Y-62255400D01*
X168656000Y-57277000D02*
X172269160Y-57277000D01*
X172269160Y-57277000D02*
X173051480Y-58059320D01*
X136403240Y-103889500D02*
X136556440Y-103889500D01*
X135069820Y-57443060D02*
X135069820Y-57505840D01*
D34*
G36*
X215826480Y-83897669D02*
X215642707Y-83622633D01*
X214100523Y-82080449D01*
X214249088Y-81981181D01*
X214666375Y-81356666D01*
X214812907Y-80620000D01*
X214666375Y-79883334D01*
X214249088Y-79258819D01*
X213624573Y-78841532D01*
X212887907Y-78695000D01*
X211385053Y-78695000D01*
X210648387Y-78841532D01*
X210023872Y-79258819D01*
X209661215Y-79801574D01*
X209214720Y-79712760D01*
X196561414Y-79712760D01*
X188915100Y-72066446D01*
X188915100Y-67056000D01*
X188806628Y-66510676D01*
X188497727Y-66048373D01*
X184549814Y-62100460D01*
X191399100Y-62100460D01*
X191399100Y-73647300D01*
X191507572Y-74192624D01*
X191816473Y-74654927D01*
X194778113Y-77616567D01*
X195240416Y-77925468D01*
X195785740Y-78033939D01*
X196331063Y-77925468D01*
X196793367Y-77616567D01*
X197102268Y-77154263D01*
X197210739Y-76608940D01*
X197102268Y-76063616D01*
X196793367Y-75601313D01*
X194346300Y-73154246D01*
X207492805Y-73154246D01*
X207655102Y-73239235D01*
X208142011Y-73259621D01*
X208244498Y-73239235D01*
X208406795Y-73154246D01*
X212492805Y-73154246D01*
X212655102Y-73239235D01*
X213142011Y-73259621D01*
X213244498Y-73239235D01*
X213406795Y-73154246D01*
X212949800Y-72697251D01*
X212492805Y-73154246D01*
X208406795Y-73154246D01*
X207949800Y-72697251D01*
X207492805Y-73154246D01*
X194346300Y-73154246D01*
X194249100Y-73057046D01*
X194249100Y-72217711D01*
X206715679Y-72217711D01*
X206736065Y-72320198D01*
X206821054Y-72482495D01*
X207278049Y-72025500D01*
X208621551Y-72025500D01*
X209078546Y-72482495D01*
X209163535Y-72320198D01*
X209167825Y-72217711D01*
X211715679Y-72217711D01*
X211736065Y-72320198D01*
X211821054Y-72482495D01*
X212278049Y-72025500D01*
X213621551Y-72025500D01*
X214078546Y-72482495D01*
X214163535Y-72320198D01*
X214183921Y-71833289D01*
X214163535Y-71730802D01*
X214078546Y-71568505D01*
X213621551Y-72025500D01*
X212278049Y-72025500D01*
X211821054Y-71568505D01*
X211736065Y-71730802D01*
X211715679Y-72217711D01*
X209167825Y-72217711D01*
X209183921Y-71833289D01*
X209163535Y-71730802D01*
X209078546Y-71568505D01*
X208621551Y-72025500D01*
X207278049Y-72025500D01*
X206821054Y-71568505D01*
X206736065Y-71730802D01*
X206715679Y-72217711D01*
X194249100Y-72217711D01*
X194249100Y-70896754D01*
X207492805Y-70896754D01*
X207949800Y-71353749D01*
X208406795Y-70896754D01*
X208244498Y-70811765D01*
X207757589Y-70791379D01*
X207655102Y-70811765D01*
X207492805Y-70896754D01*
X194249100Y-70896754D01*
X194249100Y-69946334D01*
X208324432Y-69946334D01*
X208647262Y-70727643D01*
X209244513Y-71325937D01*
X210025257Y-71650130D01*
X210870634Y-71650868D01*
X211651943Y-71328038D01*
X212083980Y-70896754D01*
X212492805Y-70896754D01*
X212949800Y-71353749D01*
X213406795Y-70896754D01*
X213244498Y-70811765D01*
X212757589Y-70791379D01*
X212655102Y-70811765D01*
X212492805Y-70896754D01*
X212083980Y-70896754D01*
X212250237Y-70730787D01*
X212574430Y-69950043D01*
X212575168Y-69104666D01*
X212252338Y-68323357D01*
X212083522Y-68154246D01*
X212492805Y-68154246D01*
X212655102Y-68239235D01*
X213142011Y-68259621D01*
X213244498Y-68239235D01*
X213406795Y-68154246D01*
X212949800Y-67697251D01*
X212492805Y-68154246D01*
X212083522Y-68154246D01*
X211655087Y-67725063D01*
X210874343Y-67400870D01*
X210028966Y-67400132D01*
X209247657Y-67722962D01*
X208649363Y-68320213D01*
X208325170Y-69100957D01*
X208324432Y-69946334D01*
X194249100Y-69946334D01*
X194249100Y-68154246D01*
X207492805Y-68154246D01*
X207655102Y-68239235D01*
X208142011Y-68259621D01*
X208244498Y-68239235D01*
X208406795Y-68154246D01*
X207949800Y-67697251D01*
X207492805Y-68154246D01*
X194249100Y-68154246D01*
X194249100Y-67217711D01*
X206715679Y-67217711D01*
X206736065Y-67320198D01*
X206821054Y-67482495D01*
X207278049Y-67025500D01*
X208621551Y-67025500D01*
X209078546Y-67482495D01*
X209163535Y-67320198D01*
X209167825Y-67217711D01*
X211715679Y-67217711D01*
X211736065Y-67320198D01*
X211821054Y-67482495D01*
X212278049Y-67025500D01*
X213621551Y-67025500D01*
X214078546Y-67482495D01*
X214163535Y-67320198D01*
X214183921Y-66833289D01*
X214163535Y-66730802D01*
X214078546Y-66568505D01*
X213621551Y-67025500D01*
X212278049Y-67025500D01*
X211821054Y-66568505D01*
X211736065Y-66730802D01*
X211715679Y-67217711D01*
X209167825Y-67217711D01*
X209183921Y-66833289D01*
X209163535Y-66730802D01*
X209078546Y-66568505D01*
X208621551Y-67025500D01*
X207278049Y-67025500D01*
X206821054Y-66568505D01*
X206736065Y-66730802D01*
X206715679Y-67217711D01*
X194249100Y-67217711D01*
X194249100Y-65896754D01*
X207492805Y-65896754D01*
X207949800Y-66353749D01*
X208406795Y-65896754D01*
X212492805Y-65896754D01*
X212949800Y-66353749D01*
X213406795Y-65896754D01*
X213244498Y-65811765D01*
X212757589Y-65791379D01*
X212655102Y-65811765D01*
X212492805Y-65896754D01*
X208406795Y-65896754D01*
X208244498Y-65811765D01*
X207757589Y-65791379D01*
X207655102Y-65811765D01*
X207492805Y-65896754D01*
X194249100Y-65896754D01*
X194249100Y-62172066D01*
X194266880Y-62082680D01*
X194158408Y-61537356D01*
X193849507Y-61075053D01*
X193387204Y-60766152D01*
X192841880Y-60657680D01*
X192296557Y-60766152D01*
X191834253Y-61075053D01*
X191816473Y-61092833D01*
X191507572Y-61555136D01*
X191399100Y-62100460D01*
X184549814Y-62100460D01*
X183697127Y-61247773D01*
X183234824Y-60938872D01*
X182689500Y-60830400D01*
X177069454Y-60830400D01*
X176453099Y-60214045D01*
X208276021Y-60214045D01*
X208678609Y-61188384D01*
X209423415Y-61934491D01*
X210397050Y-62338779D01*
X211451285Y-62339699D01*
X212425624Y-61937111D01*
X213171731Y-61192305D01*
X213576019Y-60218670D01*
X213576939Y-59164435D01*
X213174351Y-58190096D01*
X212429545Y-57443989D01*
X211455910Y-57039701D01*
X210401675Y-57038781D01*
X209427336Y-57441369D01*
X208681229Y-58186175D01*
X208276941Y-59159810D01*
X208276021Y-60214045D01*
X176453099Y-60214045D01*
X175993454Y-59754400D01*
X176501480Y-59754400D01*
X176881322Y-59682928D01*
X177230184Y-59458441D01*
X177464222Y-59115915D01*
X177546560Y-58709320D01*
X177546560Y-57409320D01*
X177533755Y-57341266D01*
X177585688Y-57351596D01*
X177874045Y-57548622D01*
X178280640Y-57630960D01*
X179780640Y-57630960D01*
X180160482Y-57559488D01*
X180509344Y-57335001D01*
X180743382Y-56992475D01*
X180825720Y-56585880D01*
X180825720Y-56292130D01*
X180855640Y-56292130D01*
X180855640Y-56610744D01*
X180874670Y-56656687D01*
X180909833Y-56691850D01*
X180955776Y-56710880D01*
X181324390Y-56710880D01*
X181355640Y-56679630D01*
X181355640Y-56260880D01*
X182105640Y-56260880D01*
X182105640Y-56679630D01*
X182136890Y-56710880D01*
X182505504Y-56710880D01*
X182551447Y-56691850D01*
X182586610Y-56656687D01*
X182605640Y-56610744D01*
X182605640Y-56292130D01*
X182574390Y-56260880D01*
X182105640Y-56260880D01*
X181355640Y-56260880D01*
X180886890Y-56260880D01*
X180855640Y-56292130D01*
X180825720Y-56292130D01*
X180825720Y-55285880D01*
X180821042Y-55261016D01*
X180855640Y-55261016D01*
X180855640Y-55579630D01*
X180886890Y-55610880D01*
X181355640Y-55610880D01*
X181355640Y-55192130D01*
X182105640Y-55192130D01*
X182105640Y-55610880D01*
X182574390Y-55610880D01*
X182605640Y-55579630D01*
X182605640Y-55261016D01*
X182586610Y-55215073D01*
X182551447Y-55179910D01*
X182505504Y-55160880D01*
X182136890Y-55160880D01*
X182105640Y-55192130D01*
X181355640Y-55192130D01*
X181324390Y-55160880D01*
X180955776Y-55160880D01*
X180909833Y-55179910D01*
X180874670Y-55215073D01*
X180855640Y-55261016D01*
X180821042Y-55261016D01*
X180754248Y-54906038D01*
X180529761Y-54557176D01*
X180187235Y-54323138D01*
X179780640Y-54240800D01*
X178280640Y-54240800D01*
X178004494Y-54292760D01*
X177490680Y-53778946D01*
X177490680Y-52994800D01*
X177419208Y-52614958D01*
X177194721Y-52266096D01*
X176852195Y-52032058D01*
X176445600Y-51949720D01*
X174945600Y-51949720D01*
X174565758Y-52021192D01*
X174216896Y-52245679D01*
X173982858Y-52588205D01*
X173900520Y-52994800D01*
X173900520Y-54294800D01*
X173971992Y-54674642D01*
X174196479Y-55023504D01*
X174270600Y-55074149D01*
X174270600Y-56489300D01*
X174208075Y-56446578D01*
X173801480Y-56364240D01*
X173371654Y-56364240D01*
X173276787Y-56269373D01*
X172814484Y-55960472D01*
X172269160Y-55852000D01*
X169670877Y-55852000D01*
X169634410Y-55815469D01*
X169000629Y-55552300D01*
X168314382Y-55551701D01*
X167680142Y-55813763D01*
X167194469Y-56298590D01*
X166931300Y-56932371D01*
X166930701Y-57618618D01*
X167192763Y-58252858D01*
X167677590Y-58738531D01*
X168311371Y-59001700D01*
X168997618Y-59002299D01*
X169631858Y-58740237D01*
X169670162Y-58702000D01*
X171256400Y-58702000D01*
X171256400Y-58709320D01*
X171327872Y-59089162D01*
X171552359Y-59438024D01*
X171894885Y-59672062D01*
X171941019Y-59681404D01*
X172043853Y-59835307D01*
X175471573Y-63263027D01*
X175933876Y-63571928D01*
X176479200Y-63680400D01*
X182099246Y-63680400D01*
X186065100Y-67646254D01*
X186065100Y-72656700D01*
X186173572Y-73202024D01*
X186482473Y-73664327D01*
X194963533Y-82145387D01*
X195425836Y-82454288D01*
X195971160Y-82562760D01*
X208624466Y-82562760D01*
X209084957Y-83023251D01*
X209032320Y-83045000D01*
X189220575Y-83045000D01*
X180717854Y-74542280D01*
X181365600Y-74542280D01*
X181745442Y-74470808D01*
X182094304Y-74246321D01*
X182328342Y-73903795D01*
X182410680Y-73497200D01*
X182410680Y-73203450D01*
X182440600Y-73203450D01*
X182440600Y-73522064D01*
X182459630Y-73568007D01*
X182494793Y-73603170D01*
X182540736Y-73622200D01*
X182909350Y-73622200D01*
X182940600Y-73590950D01*
X182940600Y-73172200D01*
X183690600Y-73172200D01*
X183690600Y-73590950D01*
X183721850Y-73622200D01*
X184090464Y-73622200D01*
X184136407Y-73603170D01*
X184171570Y-73568007D01*
X184190600Y-73522064D01*
X184190600Y-73203450D01*
X184159350Y-73172200D01*
X183690600Y-73172200D01*
X182940600Y-73172200D01*
X182471850Y-73172200D01*
X182440600Y-73203450D01*
X182410680Y-73203450D01*
X182410680Y-72197200D01*
X182406002Y-72172336D01*
X182440600Y-72172336D01*
X182440600Y-72490950D01*
X182471850Y-72522200D01*
X182940600Y-72522200D01*
X182940600Y-72103450D01*
X183690600Y-72103450D01*
X183690600Y-72522200D01*
X184159350Y-72522200D01*
X184190600Y-72490950D01*
X184190600Y-72172336D01*
X184171570Y-72126393D01*
X184136407Y-72091230D01*
X184090464Y-72072200D01*
X183721850Y-72072200D01*
X183690600Y-72103450D01*
X182940600Y-72103450D01*
X182909350Y-72072200D01*
X182540736Y-72072200D01*
X182494793Y-72091230D01*
X182459630Y-72126393D01*
X182440600Y-72172336D01*
X182406002Y-72172336D01*
X182339208Y-71817358D01*
X182114721Y-71468496D01*
X182064400Y-71434113D01*
X182064400Y-68920765D01*
X182252142Y-68645995D01*
X182334480Y-68239400D01*
X182334480Y-67945650D01*
X182364400Y-67945650D01*
X182364400Y-68264264D01*
X182383430Y-68310207D01*
X182418593Y-68345370D01*
X182464536Y-68364400D01*
X182833150Y-68364400D01*
X182864400Y-68333150D01*
X182864400Y-67914400D01*
X183614400Y-67914400D01*
X183614400Y-68333150D01*
X183645650Y-68364400D01*
X184014264Y-68364400D01*
X184060207Y-68345370D01*
X184095370Y-68310207D01*
X184114400Y-68264264D01*
X184114400Y-67945650D01*
X184083150Y-67914400D01*
X183614400Y-67914400D01*
X182864400Y-67914400D01*
X182395650Y-67914400D01*
X182364400Y-67945650D01*
X182334480Y-67945650D01*
X182334480Y-66939400D01*
X182329802Y-66914536D01*
X182364400Y-66914536D01*
X182364400Y-67233150D01*
X182395650Y-67264400D01*
X182864400Y-67264400D01*
X182864400Y-66845650D01*
X183614400Y-66845650D01*
X183614400Y-67264400D01*
X184083150Y-67264400D01*
X184114400Y-67233150D01*
X184114400Y-66914536D01*
X184095370Y-66868593D01*
X184060207Y-66833430D01*
X184014264Y-66814400D01*
X183645650Y-66814400D01*
X183614400Y-66845650D01*
X182864400Y-66845650D01*
X182833150Y-66814400D01*
X182464536Y-66814400D01*
X182418593Y-66833430D01*
X182383430Y-66868593D01*
X182364400Y-66914536D01*
X182329802Y-66914536D01*
X182263008Y-66559558D01*
X182038521Y-66210696D01*
X181695995Y-65976658D01*
X181289400Y-65894320D01*
X179789400Y-65894320D01*
X179409558Y-65965792D01*
X179100913Y-66164400D01*
X178437238Y-66164400D01*
X178369168Y-65802638D01*
X178144681Y-65453776D01*
X177802155Y-65219738D01*
X177395560Y-65137400D01*
X175895560Y-65137400D01*
X175515718Y-65208872D01*
X175370560Y-65302279D01*
X175370560Y-65055760D01*
X175262088Y-64510436D01*
X174953187Y-64048133D01*
X172264427Y-61359373D01*
X171802124Y-61050472D01*
X171256800Y-60942000D01*
X169670877Y-60942000D01*
X169634410Y-60905469D01*
X169000629Y-60642300D01*
X168314382Y-60641701D01*
X167680142Y-60903763D01*
X167194469Y-61388590D01*
X166931300Y-62022371D01*
X166930701Y-62708618D01*
X167192763Y-63342858D01*
X167608200Y-63759020D01*
X162053164Y-63759020D01*
X162487531Y-63325410D01*
X162750700Y-62691629D01*
X162751299Y-62005382D01*
X162489237Y-61371142D01*
X162004410Y-60885469D01*
X161370629Y-60622300D01*
X160684382Y-60621701D01*
X160050142Y-60883763D01*
X159564469Y-61368590D01*
X159301300Y-62002371D01*
X159300850Y-62518196D01*
X157522427Y-60739773D01*
X157060124Y-60430872D01*
X156514800Y-60322400D01*
X150018454Y-60322400D01*
X149760334Y-60064280D01*
X150690000Y-60064280D01*
X151069842Y-59992808D01*
X151418704Y-59768321D01*
X151652742Y-59425795D01*
X151735080Y-59019200D01*
X151735080Y-57719200D01*
X151714273Y-57608618D01*
X159300701Y-57608618D01*
X159562763Y-58242858D01*
X160047590Y-58728531D01*
X160681371Y-58991700D01*
X161367618Y-58992299D01*
X162001858Y-58730237D01*
X162487531Y-58245410D01*
X162750700Y-57611629D01*
X162751299Y-56925382D01*
X162489237Y-56291142D01*
X162004410Y-55805469D01*
X161370629Y-55542300D01*
X160684382Y-55541701D01*
X160050142Y-55803763D01*
X159564469Y-56288590D01*
X159301300Y-56922371D01*
X159300701Y-57608618D01*
X151714273Y-57608618D01*
X151663608Y-57339358D01*
X151625155Y-57279600D01*
X151752235Y-57279600D01*
X152027005Y-57467342D01*
X152433600Y-57549680D01*
X153933600Y-57549680D01*
X154313442Y-57478208D01*
X154662304Y-57253721D01*
X154896342Y-56911195D01*
X154978680Y-56504600D01*
X154978680Y-56210850D01*
X155008600Y-56210850D01*
X155008600Y-56529464D01*
X155027630Y-56575407D01*
X155062793Y-56610570D01*
X155108736Y-56629600D01*
X155477350Y-56629600D01*
X155508600Y-56598350D01*
X155508600Y-56179600D01*
X156258600Y-56179600D01*
X156258600Y-56598350D01*
X156289850Y-56629600D01*
X156658464Y-56629600D01*
X156704407Y-56610570D01*
X156739570Y-56575407D01*
X156758600Y-56529464D01*
X156758600Y-56210850D01*
X156727350Y-56179600D01*
X156258600Y-56179600D01*
X155508600Y-56179600D01*
X155039850Y-56179600D01*
X155008600Y-56210850D01*
X154978680Y-56210850D01*
X154978680Y-55204600D01*
X154974002Y-55179736D01*
X155008600Y-55179736D01*
X155008600Y-55498350D01*
X155039850Y-55529600D01*
X155508600Y-55529600D01*
X155508600Y-55110850D01*
X156258600Y-55110850D01*
X156258600Y-55529600D01*
X156727350Y-55529600D01*
X156758600Y-55498350D01*
X156758600Y-55179736D01*
X156739570Y-55133793D01*
X156704407Y-55098630D01*
X156658464Y-55079600D01*
X156289850Y-55079600D01*
X156258600Y-55110850D01*
X155508600Y-55110850D01*
X155477350Y-55079600D01*
X155108736Y-55079600D01*
X155062793Y-55098630D01*
X155027630Y-55133793D01*
X155008600Y-55179736D01*
X154974002Y-55179736D01*
X154907208Y-54824758D01*
X154682721Y-54475896D01*
X154340195Y-54241858D01*
X153933600Y-54159520D01*
X152433600Y-54159520D01*
X152053758Y-54230992D01*
X151865991Y-54351817D01*
X151708630Y-54194456D01*
X151747795Y-54001050D01*
X172120600Y-54001050D01*
X172120600Y-54319664D01*
X172139630Y-54365607D01*
X172174793Y-54400770D01*
X172220736Y-54419800D01*
X172589350Y-54419800D01*
X172620600Y-54388550D01*
X172620600Y-53969800D01*
X173370600Y-53969800D01*
X173370600Y-54388550D01*
X173401850Y-54419800D01*
X173770464Y-54419800D01*
X173816407Y-54400770D01*
X173851570Y-54365607D01*
X173870600Y-54319664D01*
X173870600Y-54001050D01*
X173839350Y-53969800D01*
X173370600Y-53969800D01*
X172620600Y-53969800D01*
X172151850Y-53969800D01*
X172120600Y-54001050D01*
X151747795Y-54001050D01*
X151773180Y-53875700D01*
X151773180Y-52969936D01*
X172120600Y-52969936D01*
X172120600Y-53288550D01*
X172151850Y-53319800D01*
X172620600Y-53319800D01*
X172620600Y-52901050D01*
X173370600Y-52901050D01*
X173370600Y-53319800D01*
X173839350Y-53319800D01*
X173870600Y-53288550D01*
X173870600Y-52969936D01*
X173851570Y-52923993D01*
X173816407Y-52888830D01*
X173770464Y-52869800D01*
X173401850Y-52869800D01*
X173370600Y-52901050D01*
X172620600Y-52901050D01*
X172589350Y-52869800D01*
X172220736Y-52869800D01*
X172174793Y-52888830D01*
X172139630Y-52923993D01*
X172120600Y-52969936D01*
X151773180Y-52969936D01*
X151773180Y-52575700D01*
X151701708Y-52195858D01*
X151477221Y-51846996D01*
X151134695Y-51612958D01*
X150728100Y-51530620D01*
X149228100Y-51530620D01*
X148848258Y-51602092D01*
X148499396Y-51826579D01*
X148265358Y-52169105D01*
X148183020Y-52575700D01*
X148183020Y-53875700D01*
X148254492Y-54255542D01*
X148478979Y-54604404D01*
X148515000Y-54629016D01*
X148515000Y-56837361D01*
X148396595Y-56756458D01*
X147990000Y-56674120D01*
X147560174Y-56674120D01*
X147331487Y-56445433D01*
X146869184Y-56136532D01*
X146323860Y-56028060D01*
X143714697Y-56028060D01*
X143678230Y-55991529D01*
X143044449Y-55728360D01*
X142358202Y-55727761D01*
X141723962Y-55989823D01*
X141238289Y-56474650D01*
X140975120Y-57108431D01*
X140974521Y-57794678D01*
X141236583Y-58428918D01*
X141721410Y-58914591D01*
X142355191Y-59177760D01*
X143041438Y-59178359D01*
X143675678Y-58916297D01*
X143713982Y-58878060D01*
X145444920Y-58878060D01*
X145444920Y-59019200D01*
X145516392Y-59399042D01*
X145740879Y-59747904D01*
X145870098Y-59836196D01*
X145923472Y-60104524D01*
X146232373Y-60566827D01*
X148420573Y-62755027D01*
X148882876Y-63063928D01*
X149428200Y-63172400D01*
X149526625Y-63172400D01*
X149454377Y-63186771D01*
X148992073Y-63495672D01*
X148430620Y-64057126D01*
X145908927Y-61535433D01*
X145446624Y-61226532D01*
X144901300Y-61118060D01*
X143714697Y-61118060D01*
X143678230Y-61081529D01*
X143044449Y-60818360D01*
X142358202Y-60817761D01*
X141723962Y-61079823D01*
X141238289Y-61564650D01*
X140975120Y-62198431D01*
X140974521Y-62884678D01*
X141236583Y-63518918D01*
X141721410Y-64004591D01*
X142355191Y-64267760D01*
X143041438Y-64268359D01*
X143675678Y-64006297D01*
X143713982Y-63968060D01*
X144311046Y-63968060D01*
X146948600Y-66605614D01*
X146948600Y-67035440D01*
X147020072Y-67415282D01*
X147244559Y-67764144D01*
X147587085Y-67998182D01*
X147993680Y-68080520D01*
X149493680Y-68080520D01*
X149873522Y-68009048D01*
X150018680Y-67915641D01*
X150018680Y-70294030D01*
X149898578Y-70469805D01*
X149816240Y-70876400D01*
X149816240Y-72176400D01*
X149887712Y-72556242D01*
X150112199Y-72905104D01*
X150186320Y-72955749D01*
X150186320Y-75159664D01*
X149954458Y-75499005D01*
X149872120Y-75905600D01*
X149872120Y-77205600D01*
X149943592Y-77585442D01*
X150168079Y-77934304D01*
X150510605Y-78168342D01*
X150917200Y-78250680D01*
X152417200Y-78250680D01*
X152797042Y-78179208D01*
X153145904Y-77954721D01*
X153379942Y-77612195D01*
X153462280Y-77205600D01*
X153462280Y-75905600D01*
X153390808Y-75525758D01*
X153166321Y-75176896D01*
X153036320Y-75088070D01*
X153036320Y-72960079D01*
X153090024Y-72925521D01*
X153324062Y-72582995D01*
X153406400Y-72176400D01*
X153406400Y-70876400D01*
X153334928Y-70496558D01*
X153110441Y-70147696D01*
X152868680Y-69982508D01*
X152868680Y-67819119D01*
X152922384Y-67784561D01*
X153156422Y-67442035D01*
X153238760Y-67035440D01*
X153238760Y-66061914D01*
X159324793Y-72147947D01*
X159787096Y-72456848D01*
X160332420Y-72565320D01*
X167613626Y-72565320D01*
X168360226Y-73311920D01*
X167956000Y-73311920D01*
X167576158Y-73383392D01*
X167372846Y-73514220D01*
X165997600Y-73514220D01*
X165847182Y-73544140D01*
X165597600Y-73544140D01*
X165217758Y-73615612D01*
X164945086Y-73791072D01*
X164704195Y-73626478D01*
X164297600Y-73544140D01*
X164048018Y-73544140D01*
X163897600Y-73514220D01*
X163808214Y-73532000D01*
X161861560Y-73532000D01*
X161380629Y-73332300D01*
X160694382Y-73331701D01*
X160060142Y-73593763D01*
X159574469Y-74078590D01*
X159311300Y-74712371D01*
X159310701Y-75398618D01*
X159572763Y-76032858D01*
X159611000Y-76071162D01*
X159611000Y-77013560D01*
X159719472Y-77558884D01*
X160028373Y-78021187D01*
X160845593Y-78838408D01*
X160889212Y-79070222D01*
X161113699Y-79419084D01*
X161456225Y-79653122D01*
X161539470Y-79669980D01*
X161512820Y-79696630D01*
X161512820Y-80015380D01*
X161712820Y-80015380D01*
X161712820Y-80465380D01*
X161512820Y-80465380D01*
X161512820Y-80784130D01*
X161544070Y-80815380D01*
X161737684Y-80815380D01*
X161783627Y-80796350D01*
X161787038Y-80792939D01*
X161839212Y-81070222D01*
X162063699Y-81419084D01*
X162406225Y-81653122D01*
X162812820Y-81735460D01*
X163612820Y-81735460D01*
X163985264Y-81665380D01*
X167863020Y-81665380D01*
X168408344Y-81556908D01*
X168452685Y-81527280D01*
X169021200Y-81527280D01*
X169401042Y-81455808D01*
X169622214Y-81313487D01*
X169814605Y-81444942D01*
X170221200Y-81527280D01*
X171721200Y-81527280D01*
X172044376Y-81466470D01*
X183332080Y-92754174D01*
X183332080Y-92766013D01*
X182915477Y-92487648D01*
X182217080Y-92348728D01*
X181518683Y-92487648D01*
X180947080Y-92869580D01*
X180375477Y-92487648D01*
X179677080Y-92348728D01*
X178978683Y-92487648D01*
X178407080Y-92869580D01*
X177835477Y-92487648D01*
X177137080Y-92348728D01*
X176438683Y-92487648D01*
X175867080Y-92869580D01*
X175295477Y-92487648D01*
X174597080Y-92348728D01*
X173898683Y-92487648D01*
X173327080Y-92869580D01*
X172755477Y-92487648D01*
X172057080Y-92348728D01*
X171358683Y-92487648D01*
X170877435Y-92809207D01*
X170833608Y-92588876D01*
X170524707Y-92126573D01*
X167090607Y-88692473D01*
X166628304Y-88383572D01*
X166082980Y-88275100D01*
X155098454Y-88275100D01*
X147319984Y-80496630D01*
X160787820Y-80496630D01*
X160787820Y-80715244D01*
X160806850Y-80761187D01*
X160842013Y-80796350D01*
X160887956Y-80815380D01*
X161081570Y-80815380D01*
X161112820Y-80784130D01*
X161112820Y-80465380D01*
X160819070Y-80465380D01*
X160787820Y-80496630D01*
X147319984Y-80496630D01*
X146588870Y-79765516D01*
X160787820Y-79765516D01*
X160787820Y-79984130D01*
X160819070Y-80015380D01*
X161112820Y-80015380D01*
X161112820Y-79696630D01*
X161081570Y-79665380D01*
X160887956Y-79665380D01*
X160842013Y-79684410D01*
X160806850Y-79719573D01*
X160787820Y-79765516D01*
X146588870Y-79765516D01*
X146281700Y-79458346D01*
X146281700Y-79230460D01*
X146210228Y-78850618D01*
X145985741Y-78501756D01*
X145643215Y-78267718D01*
X145236620Y-78185380D01*
X143736620Y-78185380D01*
X143356778Y-78256852D01*
X143135606Y-78399173D01*
X142943215Y-78267718D01*
X142536620Y-78185380D01*
X141036620Y-78185380D01*
X140656778Y-78256852D01*
X140307916Y-78481339D01*
X140073878Y-78823865D01*
X139997927Y-79198920D01*
X137728304Y-79198920D01*
X137462891Y-79145172D01*
X137477320Y-79073920D01*
X137477320Y-78173920D01*
X137405848Y-77794078D01*
X137181361Y-77445216D01*
X136838835Y-77211178D01*
X136582930Y-77159356D01*
X136504820Y-77081246D01*
X136504820Y-76658060D01*
X136955788Y-76658060D01*
X137040765Y-76716122D01*
X137447360Y-76798460D01*
X138247360Y-76798460D01*
X138627202Y-76726988D01*
X138899874Y-76551528D01*
X139140765Y-76716122D01*
X139547360Y-76798460D01*
X140347360Y-76798460D01*
X140719804Y-76728380D01*
X141348195Y-76728380D01*
X141593225Y-76895802D01*
X141999820Y-76978140D01*
X143399820Y-76978140D01*
X143752121Y-76911850D01*
X148092200Y-76911850D01*
X148092200Y-77230464D01*
X148111230Y-77276407D01*
X148146393Y-77311570D01*
X148192336Y-77330600D01*
X148560950Y-77330600D01*
X148592200Y-77299350D01*
X148592200Y-76880600D01*
X149342200Y-76880600D01*
X149342200Y-77299350D01*
X149373450Y-77330600D01*
X149742064Y-77330600D01*
X149788007Y-77311570D01*
X149823170Y-77276407D01*
X149842200Y-77230464D01*
X149842200Y-76911850D01*
X149810950Y-76880600D01*
X149342200Y-76880600D01*
X148592200Y-76880600D01*
X148123450Y-76880600D01*
X148092200Y-76911850D01*
X143752121Y-76911850D01*
X143779662Y-76906668D01*
X144128524Y-76682181D01*
X144362562Y-76339655D01*
X144444900Y-75933060D01*
X144444900Y-75880736D01*
X148092200Y-75880736D01*
X148092200Y-76199350D01*
X148123450Y-76230600D01*
X148592200Y-76230600D01*
X148592200Y-75811850D01*
X149342200Y-75811850D01*
X149342200Y-76230600D01*
X149810950Y-76230600D01*
X149842200Y-76199350D01*
X149842200Y-75880736D01*
X149823170Y-75834793D01*
X149788007Y-75799630D01*
X149742064Y-75780600D01*
X149373450Y-75780600D01*
X149342200Y-75811850D01*
X148592200Y-75811850D01*
X148560950Y-75780600D01*
X148192336Y-75780600D01*
X148146393Y-75799630D01*
X148111230Y-75834793D01*
X148092200Y-75880736D01*
X144444900Y-75880736D01*
X144444900Y-74533060D01*
X144373428Y-74153218D01*
X144148941Y-73804356D01*
X143806415Y-73570318D01*
X143399820Y-73487980D01*
X141999820Y-73487980D01*
X141619978Y-73559452D01*
X141271116Y-73783939D01*
X141206587Y-73878380D01*
X140693424Y-73878380D01*
X140347360Y-73808300D01*
X139547360Y-73808300D01*
X139167518Y-73879772D01*
X138894846Y-74055232D01*
X138653955Y-73890638D01*
X138247360Y-73808300D01*
X137778247Y-73808300D01*
X137777040Y-73808060D01*
X136094697Y-73808060D01*
X136058230Y-73771529D01*
X135424449Y-73508360D01*
X134738202Y-73507761D01*
X134103962Y-73769823D01*
X133618289Y-74254650D01*
X133355120Y-74888431D01*
X133354521Y-75574678D01*
X133616583Y-76208918D01*
X133654820Y-76247222D01*
X133654820Y-77671500D01*
X133763292Y-78216824D01*
X134072193Y-78679127D01*
X134615013Y-79221947D01*
X134658632Y-79453762D01*
X134883119Y-79802624D01*
X135225645Y-80036662D01*
X135308890Y-80053520D01*
X135282240Y-80080170D01*
X135282240Y-80398920D01*
X135482240Y-80398920D01*
X135482240Y-80848920D01*
X135282240Y-80848920D01*
X135282240Y-81167670D01*
X135313490Y-81198920D01*
X135507104Y-81198920D01*
X135553047Y-81179890D01*
X135556458Y-81176479D01*
X135608632Y-81453762D01*
X135833119Y-81802624D01*
X136175645Y-82036662D01*
X136582240Y-82119000D01*
X137382240Y-82119000D01*
X137754684Y-82048920D01*
X141043160Y-82048920D01*
X141588484Y-81940448D01*
X142050787Y-81631547D01*
X142106794Y-81575540D01*
X142536620Y-81575540D01*
X142916462Y-81504068D01*
X143137634Y-81361747D01*
X143330025Y-81493202D01*
X143736620Y-81575540D01*
X144368386Y-81575540D01*
X153500573Y-90707727D01*
X153962876Y-91016628D01*
X154508200Y-91125100D01*
X165492726Y-91125100D01*
X166759611Y-92391985D01*
X166278683Y-92487648D01*
X165707080Y-92869580D01*
X165135477Y-92487648D01*
X164437080Y-92348728D01*
X163738683Y-92487648D01*
X163167080Y-92869580D01*
X162595477Y-92487648D01*
X161897080Y-92348728D01*
X161198683Y-92487648D01*
X160627080Y-92869580D01*
X160055477Y-92487648D01*
X159357080Y-92348728D01*
X158658683Y-92487648D01*
X158066610Y-92883258D01*
X157671000Y-93475331D01*
X157606808Y-93798046D01*
X157399421Y-93534013D01*
X157342628Y-93452201D01*
X157217080Y-93414157D01*
X157217080Y-93938400D01*
X157312080Y-93938400D01*
X157312080Y-94888400D01*
X157217080Y-94888400D01*
X157217080Y-94908400D01*
X156417080Y-94908400D01*
X156417080Y-94888400D01*
X156322080Y-94888400D01*
X156322080Y-93938400D01*
X156417080Y-93938400D01*
X156417080Y-93414157D01*
X156291532Y-93452201D01*
X156234739Y-93534013D01*
X156027352Y-93798046D01*
X155963160Y-93475331D01*
X155567550Y-92883258D01*
X154975477Y-92487648D01*
X154277080Y-92348728D01*
X153578683Y-92487648D01*
X153007080Y-92869580D01*
X152435477Y-92487648D01*
X151737080Y-92348728D01*
X151038683Y-92487648D01*
X150467080Y-92869580D01*
X149895477Y-92487648D01*
X149197080Y-92348728D01*
X148498683Y-92487648D01*
X147927080Y-92869580D01*
X147355477Y-92487648D01*
X146657080Y-92348728D01*
X145958683Y-92487648D01*
X145366610Y-92883258D01*
X144971000Y-93475331D01*
X144906808Y-93798046D01*
X144699421Y-93534013D01*
X144642628Y-93452201D01*
X144517080Y-93414157D01*
X144517080Y-93938400D01*
X144612080Y-93938400D01*
X144612080Y-94888400D01*
X144517080Y-94888400D01*
X144517080Y-95412643D01*
X144642628Y-95374599D01*
X144699421Y-95292787D01*
X144906808Y-95028754D01*
X144971000Y-95351469D01*
X145259607Y-95783400D01*
X144971000Y-96215331D01*
X144906808Y-96538046D01*
X144699421Y-96274013D01*
X144642628Y-96192201D01*
X144517080Y-96154157D01*
X144517080Y-96678400D01*
X144612080Y-96678400D01*
X144612080Y-97628400D01*
X144517080Y-97628400D01*
X144517080Y-97648400D01*
X143717080Y-97648400D01*
X143717080Y-97628400D01*
X143296824Y-97628400D01*
X143319077Y-97758219D01*
X143534739Y-98032787D01*
X143591532Y-98114599D01*
X143642078Y-98129916D01*
X143642078Y-98131900D01*
X142052082Y-98131900D01*
X142052082Y-98129916D01*
X142102628Y-98114599D01*
X142159421Y-98032787D01*
X142375083Y-97758219D01*
X142397336Y-97628400D01*
X141977080Y-97628400D01*
X141977080Y-97648400D01*
X141177080Y-97648400D01*
X141177080Y-97628400D01*
X140756824Y-97628400D01*
X140779077Y-97758219D01*
X140994739Y-98032787D01*
X141051532Y-98114599D01*
X141102078Y-98129916D01*
X141102078Y-98131900D01*
X136817100Y-98131900D01*
X136233508Y-98247984D01*
X135738762Y-98578562D01*
X131301382Y-103015942D01*
X130970804Y-103510688D01*
X130854720Y-104094280D01*
X130854720Y-114489470D01*
X130766978Y-114617885D01*
X130684640Y-115024480D01*
X130684640Y-116524480D01*
X130756112Y-116904322D01*
X130898433Y-117125494D01*
X130766978Y-117317885D01*
X130684640Y-117724480D01*
X130684640Y-119224480D01*
X130756112Y-119604322D01*
X130980599Y-119953184D01*
X131323125Y-120187222D01*
X131729720Y-120269560D01*
X133029720Y-120269560D01*
X133409562Y-120198088D01*
X133758424Y-119973601D01*
X133809069Y-119899480D01*
X133960880Y-119899480D01*
X134506204Y-119791008D01*
X134968507Y-119482107D01*
X136385687Y-118064927D01*
X136403780Y-118161084D01*
X136403780Y-119888806D01*
X136338152Y-119954434D01*
X136071622Y-119954201D01*
X135437382Y-120216263D01*
X134951709Y-120701090D01*
X134688540Y-121334871D01*
X134687941Y-122021118D01*
X134950003Y-122655358D01*
X135434830Y-123141031D01*
X136068611Y-123404200D01*
X136754858Y-123404799D01*
X137389098Y-123142737D01*
X137427402Y-123104500D01*
X138171337Y-123104500D01*
X138211705Y-123132082D01*
X138618300Y-123214420D01*
X139418300Y-123214420D01*
X139798142Y-123142948D01*
X140070814Y-122967488D01*
X140311705Y-123132082D01*
X140718300Y-123214420D01*
X141518300Y-123214420D01*
X141890744Y-123144340D01*
X142637006Y-123144340D01*
X142926645Y-123342242D01*
X143333240Y-123424580D01*
X144733240Y-123424580D01*
X145113082Y-123353108D01*
X145461944Y-123128621D01*
X145695982Y-122786095D01*
X145778320Y-122379500D01*
X145778320Y-120979500D01*
X145706848Y-120599658D01*
X145482361Y-120250796D01*
X145139835Y-120016758D01*
X144733240Y-119934420D01*
X143333240Y-119934420D01*
X142953398Y-120005892D01*
X142604536Y-120230379D01*
X142560833Y-120294340D01*
X141864364Y-120294340D01*
X141518300Y-120224260D01*
X140718300Y-120224260D01*
X140338458Y-120295732D01*
X140065786Y-120471192D01*
X139824895Y-120306598D01*
X139418300Y-120224260D01*
X139253780Y-120224260D01*
X139253780Y-118763504D01*
X139272810Y-118809447D01*
X139307973Y-118844610D01*
X139353916Y-118863640D01*
X139572530Y-118863640D01*
X139603780Y-118832390D01*
X139603780Y-118538640D01*
X140053780Y-118538640D01*
X140053780Y-118832390D01*
X140085030Y-118863640D01*
X140303644Y-118863640D01*
X140349587Y-118844610D01*
X140384750Y-118809447D01*
X140403780Y-118763504D01*
X140403780Y-118569890D01*
X140372530Y-118538640D01*
X140053780Y-118538640D01*
X139603780Y-118538640D01*
X139285030Y-118538640D01*
X139253780Y-118569890D01*
X139253780Y-118134704D01*
X139258380Y-118111990D01*
X139285030Y-118138640D01*
X139603780Y-118138640D01*
X139603780Y-117938640D01*
X140053780Y-117938640D01*
X140053780Y-118138640D01*
X140372530Y-118138640D01*
X140403780Y-118107390D01*
X140403780Y-117913776D01*
X140384750Y-117867833D01*
X140381339Y-117864422D01*
X140658622Y-117812248D01*
X141007484Y-117587761D01*
X141241522Y-117245235D01*
X141323860Y-116838640D01*
X141323860Y-116038640D01*
X141252388Y-115658798D01*
X141027901Y-115309936D01*
X140685375Y-115075898D01*
X140429470Y-115024076D01*
X140262407Y-114857013D01*
X139800104Y-114548112D01*
X139254780Y-114439640D01*
X138123195Y-114439640D01*
X138137940Y-114404129D01*
X138137942Y-114401118D01*
X142307941Y-114401118D01*
X142570003Y-115035358D01*
X143054830Y-115521031D01*
X143244532Y-115599802D01*
X143449648Y-115736856D01*
X144033240Y-115852940D01*
X144616832Y-115736856D01*
X144820915Y-115600493D01*
X145009098Y-115522737D01*
X145494771Y-115037910D01*
X145757940Y-114404129D01*
X145758539Y-113717882D01*
X145496477Y-113083642D01*
X145011650Y-112597969D01*
X144377869Y-112334800D01*
X143691622Y-112334201D01*
X143057382Y-112596263D01*
X142571709Y-113081090D01*
X142308540Y-113714871D01*
X142307941Y-114401118D01*
X138137942Y-114401118D01*
X138138539Y-113717882D01*
X137876477Y-113083642D01*
X137391650Y-112597969D01*
X136757869Y-112334800D01*
X136071622Y-112334201D01*
X135437382Y-112596263D01*
X134951709Y-113081090D01*
X134688540Y-113714871D01*
X134687941Y-114401118D01*
X134950003Y-115035358D01*
X135167186Y-115252920D01*
X134074800Y-116345306D01*
X134074800Y-115024480D01*
X134003328Y-114644638D01*
X133904720Y-114491397D01*
X133904720Y-109311118D01*
X134677941Y-109311118D01*
X134940003Y-109945358D01*
X135424830Y-110431031D01*
X136058611Y-110694200D01*
X136744858Y-110694799D01*
X137379098Y-110432737D01*
X137864771Y-109947910D01*
X138127940Y-109314129D01*
X138128539Y-108627882D01*
X137866477Y-107993642D01*
X137381650Y-107507969D01*
X136747869Y-107244800D01*
X136061622Y-107244201D01*
X135427382Y-107506263D01*
X134941709Y-107991090D01*
X134678540Y-108624871D01*
X134677941Y-109311118D01*
X133904720Y-109311118D01*
X133904720Y-104725956D01*
X134678184Y-103952492D01*
X134677941Y-104231118D01*
X134940003Y-104865358D01*
X135424830Y-105351031D01*
X136058611Y-105614200D01*
X136744858Y-105614799D01*
X137379098Y-105352737D01*
X137864771Y-104867910D01*
X138127940Y-104234129D01*
X138128539Y-103547882D01*
X137866477Y-102913642D01*
X137381650Y-102427969D01*
X136747869Y-102164800D01*
X136466122Y-102164554D01*
X137448776Y-101181900D01*
X164352024Y-101181900D01*
X163125042Y-102408882D01*
X162794464Y-102903628D01*
X162678380Y-103487220D01*
X162678380Y-107364770D01*
X162590638Y-107493185D01*
X162508300Y-107899780D01*
X162508300Y-109399780D01*
X162579772Y-109779622D01*
X162722093Y-110000794D01*
X162590638Y-110193185D01*
X162508300Y-110599780D01*
X162508300Y-112099780D01*
X162579772Y-112479622D01*
X162804259Y-112828484D01*
X163146785Y-113062522D01*
X163553380Y-113144860D01*
X164853380Y-113144860D01*
X165233222Y-113073388D01*
X165541867Y-112874780D01*
X166357434Y-112874780D01*
X166038809Y-113192850D01*
X165775640Y-113826631D01*
X165775041Y-114512878D01*
X166037103Y-115147118D01*
X166521930Y-115632791D01*
X167155711Y-115895960D01*
X167841958Y-115896559D01*
X168476198Y-115634497D01*
X168596540Y-115514365D01*
X168596540Y-115598700D01*
X168676460Y-116000484D01*
X168676460Y-116048700D01*
X168747932Y-116428542D01*
X168972419Y-116777404D01*
X169314945Y-117011442D01*
X169470601Y-117042963D01*
X166422002Y-120091562D01*
X166091424Y-120586308D01*
X166048233Y-120803442D01*
X166038809Y-120812850D01*
X165775640Y-121446631D01*
X165775041Y-122132878D01*
X166037103Y-122767118D01*
X166521930Y-123252791D01*
X167155711Y-123515960D01*
X167841958Y-123516559D01*
X168476198Y-123254497D01*
X168514502Y-123216260D01*
X169334346Y-123216260D01*
X169415605Y-123271782D01*
X169822200Y-123354120D01*
X170622200Y-123354120D01*
X171002042Y-123282648D01*
X171274714Y-123107188D01*
X171515605Y-123271782D01*
X171922200Y-123354120D01*
X172722200Y-123354120D01*
X173094644Y-123284040D01*
X173764997Y-123284040D01*
X174013745Y-123454002D01*
X174420340Y-123536340D01*
X175820340Y-123536340D01*
X176200182Y-123464868D01*
X176549044Y-123240381D01*
X176783082Y-122897855D01*
X176865420Y-122491260D01*
X176865420Y-121091260D01*
X176793948Y-120711418D01*
X176569461Y-120362556D01*
X176226935Y-120128518D01*
X175820340Y-120046180D01*
X174420340Y-120046180D01*
X174040498Y-120117652D01*
X173691636Y-120342139D01*
X173628843Y-120434040D01*
X173068264Y-120434040D01*
X172722200Y-120363960D01*
X171922200Y-120363960D01*
X171542358Y-120435432D01*
X171269686Y-120610892D01*
X171028795Y-120446298D01*
X170622200Y-120363960D01*
X170462956Y-120363960D01*
X171793767Y-119033149D01*
X171851382Y-119022308D01*
X172200244Y-118797821D01*
X172434282Y-118455295D01*
X172516620Y-118048700D01*
X172516620Y-118000485D01*
X172596540Y-117598700D01*
X172516620Y-117196916D01*
X172516620Y-117148700D01*
X172445148Y-116768858D01*
X172220661Y-116419996D01*
X171878135Y-116185958D01*
X171794890Y-116169100D01*
X171821540Y-116142450D01*
X171821540Y-115823700D01*
X172221540Y-115823700D01*
X172221540Y-116142450D01*
X172252790Y-116173700D01*
X172446404Y-116173700D01*
X172492347Y-116154670D01*
X172527510Y-116119507D01*
X172546540Y-116073564D01*
X172546540Y-115854950D01*
X172515290Y-115823700D01*
X172221540Y-115823700D01*
X171821540Y-115823700D01*
X171621540Y-115823700D01*
X171621540Y-115724384D01*
X171646540Y-115598700D01*
X171646540Y-115373700D01*
X171821540Y-115373700D01*
X171821540Y-115054950D01*
X172221540Y-115054950D01*
X172221540Y-115373700D01*
X172515290Y-115373700D01*
X172546540Y-115342450D01*
X172546540Y-115123836D01*
X172527510Y-115077893D01*
X172492347Y-115042730D01*
X172446404Y-115023700D01*
X172252790Y-115023700D01*
X172221540Y-115054950D01*
X171821540Y-115054950D01*
X171790290Y-115023700D01*
X171646540Y-115023700D01*
X171646540Y-114512878D01*
X173395041Y-114512878D01*
X173657103Y-115147118D01*
X174141930Y-115632791D01*
X174775711Y-115895960D01*
X175461958Y-115896559D01*
X176096198Y-115634497D01*
X176581871Y-115149670D01*
X176845040Y-114515889D01*
X176845639Y-113829642D01*
X176583577Y-113195402D01*
X176098750Y-112709729D01*
X175464969Y-112446560D01*
X174778722Y-112445961D01*
X174144482Y-112708023D01*
X173658809Y-113192850D01*
X173395640Y-113826631D01*
X173395041Y-114512878D01*
X171646540Y-114512878D01*
X171646540Y-113179820D01*
X171530456Y-112596228D01*
X171199878Y-112101482D01*
X169369838Y-110271442D01*
X168973813Y-110006827D01*
X169215040Y-109425889D01*
X169215639Y-108739642D01*
X168953577Y-108105402D01*
X168468750Y-107619729D01*
X167834969Y-107356560D01*
X167148722Y-107355961D01*
X166514482Y-107618023D01*
X166028809Y-108102850D01*
X165898460Y-108416765D01*
X165898460Y-107899780D01*
X165826988Y-107519938D01*
X165728380Y-107366697D01*
X165728380Y-104118896D01*
X165765269Y-104082007D01*
X165765041Y-104342878D01*
X166027103Y-104977118D01*
X166511930Y-105462791D01*
X167145711Y-105725960D01*
X167831958Y-105726559D01*
X168466198Y-105464497D01*
X168951871Y-104979670D01*
X169215040Y-104345889D01*
X169215639Y-103659642D01*
X169015720Y-103175800D01*
X170916600Y-103175800D01*
X171500192Y-103059716D01*
X171994938Y-102729138D01*
X173135418Y-101588658D01*
X173465996Y-101093912D01*
X173582080Y-100510320D01*
X173582080Y-98867605D01*
X173898683Y-99079152D01*
X174597080Y-99218072D01*
X175295477Y-99079152D01*
X175867080Y-98697220D01*
X176438683Y-99079152D01*
X177137080Y-99218072D01*
X177835477Y-99079152D01*
X178407080Y-98697220D01*
X178978683Y-99079152D01*
X179677080Y-99218072D01*
X180375477Y-99079152D01*
X180947080Y-98697220D01*
X181518683Y-99079152D01*
X182217080Y-99218072D01*
X182915477Y-99079152D01*
X183487080Y-98697220D01*
X184058683Y-99079152D01*
X184757080Y-99218072D01*
X185455477Y-99079152D01*
X186027080Y-98697220D01*
X186598683Y-99079152D01*
X187297080Y-99218072D01*
X187995477Y-99079152D01*
X188567080Y-98697220D01*
X189138683Y-99079152D01*
X189837080Y-99218072D01*
X190535477Y-99079152D01*
X191107080Y-98697220D01*
X191678683Y-99079152D01*
X192377080Y-99218072D01*
X193075477Y-99079152D01*
X193647080Y-98697220D01*
X194218683Y-99079152D01*
X194917080Y-99218072D01*
X195615477Y-99079152D01*
X196207550Y-98683542D01*
X196603160Y-98091469D01*
X196626151Y-97975888D01*
X196632216Y-97978400D01*
X197025830Y-97978400D01*
X197057080Y-97947150D01*
X197057080Y-97453400D01*
X197857080Y-97453400D01*
X197857080Y-97947150D01*
X197888330Y-97978400D01*
X198281944Y-97978400D01*
X198327887Y-97959370D01*
X198363050Y-97924207D01*
X198382080Y-97878264D01*
X198382080Y-97484650D01*
X198350830Y-97453400D01*
X197857080Y-97453400D01*
X197057080Y-97453400D01*
X196962080Y-97453400D01*
X196962080Y-96653400D01*
X197057080Y-96653400D01*
X197057080Y-96159650D01*
X197857080Y-96159650D01*
X197857080Y-96653400D01*
X198350830Y-96653400D01*
X198382080Y-96622150D01*
X198382080Y-96228536D01*
X198363050Y-96182593D01*
X198327887Y-96147430D01*
X198281944Y-96128400D01*
X197888330Y-96128400D01*
X197857080Y-96159650D01*
X197057080Y-96159650D01*
X197025830Y-96128400D01*
X196632216Y-96128400D01*
X196586273Y-96147430D01*
X196569199Y-96164504D01*
X196314553Y-95783400D01*
X196603160Y-95351469D01*
X196667352Y-95028754D01*
X196874739Y-95292787D01*
X196931532Y-95374599D01*
X197057080Y-95412643D01*
X197057080Y-94888400D01*
X197857080Y-94888400D01*
X197857080Y-95412643D01*
X197982628Y-95374599D01*
X198039421Y-95292787D01*
X198255083Y-95018219D01*
X198277336Y-94888400D01*
X197857080Y-94888400D01*
X197057080Y-94888400D01*
X196962080Y-94888400D01*
X196962080Y-93938400D01*
X197057080Y-93938400D01*
X197857080Y-93938400D01*
X198277336Y-93938400D01*
X198255083Y-93808581D01*
X198039421Y-93534013D01*
X197982628Y-93452201D01*
X197857080Y-93414157D01*
X197857080Y-93938400D01*
X197057080Y-93938400D01*
X197057080Y-93414157D01*
X196931532Y-93452201D01*
X196874739Y-93534013D01*
X196667352Y-93798046D01*
X196603160Y-93475331D01*
X196399011Y-93169800D01*
X200468694Y-93169800D01*
X199731788Y-93905421D01*
X199226656Y-95121912D01*
X199225507Y-96439109D01*
X199728514Y-97656480D01*
X200659101Y-98588692D01*
X201875592Y-99093824D01*
X203192789Y-99094973D01*
X204410160Y-98591966D01*
X205342372Y-97661379D01*
X205541727Y-97181281D01*
X207338073Y-98977627D01*
X207800376Y-99286528D01*
X208307164Y-99387335D01*
X208181759Y-99689345D01*
X208181202Y-100327854D01*
X208361480Y-100764160D01*
X208361480Y-101239580D01*
X208469952Y-101784904D01*
X208778853Y-102247207D01*
X210039813Y-103508167D01*
X210023872Y-103518819D01*
X209606585Y-104143334D01*
X209460053Y-104880000D01*
X209606585Y-105616666D01*
X210023872Y-106241181D01*
X210037071Y-106250000D01*
X210023872Y-106258819D01*
X209606585Y-106883334D01*
X209460053Y-107620000D01*
X209606585Y-108356666D01*
X210023872Y-108981181D01*
X210080671Y-109019133D01*
X209070636Y-110029168D01*
X208878508Y-110108554D01*
X208426620Y-110559653D01*
X208224497Y-111046421D01*
X207341200Y-110163124D01*
X207341200Y-107137200D01*
X207225116Y-106553608D01*
X206894538Y-106058862D01*
X200874738Y-100039062D01*
X200379992Y-99708484D01*
X199796400Y-99592400D01*
X185889900Y-99592400D01*
X185306308Y-99708484D01*
X184811562Y-100039062D01*
X182364364Y-102486260D01*
X175945900Y-102486260D01*
X175464969Y-102286560D01*
X174778722Y-102285961D01*
X174144482Y-102548023D01*
X173658809Y-103032850D01*
X173395640Y-103666631D01*
X173395041Y-104352878D01*
X173657103Y-104987118D01*
X174141930Y-105472791D01*
X174775711Y-105735960D01*
X175461958Y-105736559D01*
X175840254Y-105580250D01*
X177741020Y-107481016D01*
X177741020Y-107769420D01*
X177812492Y-108149262D01*
X178036979Y-108498124D01*
X178379505Y-108732162D01*
X178786100Y-108814500D01*
X180286100Y-108814500D01*
X180665942Y-108743028D01*
X180887114Y-108600707D01*
X181079505Y-108732162D01*
X181486100Y-108814500D01*
X182986100Y-108814500D01*
X183365942Y-108743028D01*
X183519183Y-108644420D01*
X184400200Y-108644420D01*
X184983792Y-108528336D01*
X185337967Y-108291684D01*
X185294980Y-108503960D01*
X185294980Y-109803960D01*
X185366452Y-110183802D01*
X185590939Y-110532664D01*
X185933465Y-110766702D01*
X186340060Y-110849040D01*
X187840060Y-110849040D01*
X188219902Y-110777568D01*
X188568764Y-110553081D01*
X188802802Y-110210555D01*
X188885140Y-109803960D01*
X188885140Y-109510210D01*
X188915060Y-109510210D01*
X188915060Y-109828824D01*
X188934090Y-109874767D01*
X188969253Y-109909930D01*
X189015196Y-109928960D01*
X189383810Y-109928960D01*
X189415060Y-109897710D01*
X189415060Y-109478960D01*
X190165060Y-109478960D01*
X190165060Y-109897710D01*
X190196310Y-109928960D01*
X190564924Y-109928960D01*
X190610867Y-109909930D01*
X190646030Y-109874767D01*
X190665060Y-109828824D01*
X190665060Y-109510210D01*
X190633810Y-109478960D01*
X190165060Y-109478960D01*
X189415060Y-109478960D01*
X188946310Y-109478960D01*
X188915060Y-109510210D01*
X188885140Y-109510210D01*
X188885140Y-108503960D01*
X188880462Y-108479096D01*
X188915060Y-108479096D01*
X188915060Y-108797710D01*
X188946310Y-108828960D01*
X189415060Y-108828960D01*
X189415060Y-108410210D01*
X190165060Y-108410210D01*
X190165060Y-108828960D01*
X190633810Y-108828960D01*
X190665060Y-108797710D01*
X190665060Y-108479096D01*
X190646030Y-108433153D01*
X190610867Y-108397990D01*
X190564924Y-108378960D01*
X190196310Y-108378960D01*
X190165060Y-108410210D01*
X189415060Y-108410210D01*
X189383810Y-108378960D01*
X189015196Y-108378960D01*
X188969253Y-108397990D01*
X188934090Y-108433153D01*
X188915060Y-108479096D01*
X188880462Y-108479096D01*
X188813668Y-108124118D01*
X188691260Y-107933891D01*
X188691260Y-105684725D01*
X188879002Y-105409955D01*
X188961340Y-105003360D01*
X188961340Y-104709610D01*
X188991260Y-104709610D01*
X188991260Y-105028224D01*
X189010290Y-105074167D01*
X189045453Y-105109330D01*
X189091396Y-105128360D01*
X189460010Y-105128360D01*
X189491260Y-105097110D01*
X189491260Y-104678360D01*
X190241260Y-104678360D01*
X190241260Y-105097110D01*
X190272510Y-105128360D01*
X190641124Y-105128360D01*
X190687067Y-105109330D01*
X190722230Y-105074167D01*
X190741260Y-105028224D01*
X190741260Y-104709610D01*
X190710010Y-104678360D01*
X190241260Y-104678360D01*
X189491260Y-104678360D01*
X189022510Y-104678360D01*
X188991260Y-104709610D01*
X188961340Y-104709610D01*
X188961340Y-103703360D01*
X188956662Y-103678496D01*
X188991260Y-103678496D01*
X188991260Y-103997110D01*
X189022510Y-104028360D01*
X189491260Y-104028360D01*
X189491260Y-103609610D01*
X190241260Y-103609610D01*
X190241260Y-104028360D01*
X190710010Y-104028360D01*
X190741260Y-103997110D01*
X190741260Y-103678496D01*
X190722230Y-103632553D01*
X190687067Y-103597390D01*
X190641124Y-103578360D01*
X190272510Y-103578360D01*
X190241260Y-103609610D01*
X189491260Y-103609610D01*
X189460010Y-103578360D01*
X189091396Y-103578360D01*
X189045453Y-103597390D01*
X189010290Y-103632553D01*
X188991260Y-103678496D01*
X188956662Y-103678496D01*
X188889868Y-103323518D01*
X188665381Y-102974656D01*
X188322855Y-102740618D01*
X187916260Y-102658280D01*
X186505696Y-102658280D01*
X186521576Y-102642400D01*
X199164724Y-102642400D01*
X204291200Y-107768876D01*
X204291200Y-110794800D01*
X204407284Y-111378392D01*
X204737862Y-111873138D01*
X207453062Y-114588338D01*
X207947808Y-114918916D01*
X208531400Y-115035000D01*
X208688863Y-115035000D01*
X208555482Y-115124122D01*
X207130542Y-116549062D01*
X206799964Y-117043808D01*
X206683880Y-117627400D01*
X206683880Y-120152944D01*
X205481704Y-121355120D01*
X188576189Y-121355120D01*
X188606864Y-121335381D01*
X188840902Y-120992855D01*
X188923240Y-120586260D01*
X188923240Y-120292510D01*
X188953160Y-120292510D01*
X188953160Y-120611124D01*
X188972190Y-120657067D01*
X189007353Y-120692230D01*
X189053296Y-120711260D01*
X189421910Y-120711260D01*
X189453160Y-120680010D01*
X189453160Y-120261260D01*
X190203160Y-120261260D01*
X190203160Y-120680010D01*
X190234410Y-120711260D01*
X190603024Y-120711260D01*
X190648967Y-120692230D01*
X190684130Y-120657067D01*
X190703160Y-120611124D01*
X190703160Y-120292510D01*
X190671910Y-120261260D01*
X190203160Y-120261260D01*
X189453160Y-120261260D01*
X188984410Y-120261260D01*
X188953160Y-120292510D01*
X188923240Y-120292510D01*
X188923240Y-119286260D01*
X188918562Y-119261396D01*
X188953160Y-119261396D01*
X188953160Y-119580010D01*
X188984410Y-119611260D01*
X189453160Y-119611260D01*
X189453160Y-119192510D01*
X190203160Y-119192510D01*
X190203160Y-119611260D01*
X190671910Y-119611260D01*
X190703160Y-119580010D01*
X190703160Y-119261396D01*
X190684130Y-119215453D01*
X190648967Y-119180290D01*
X190603024Y-119161260D01*
X190234410Y-119161260D01*
X190203160Y-119192510D01*
X189453160Y-119192510D01*
X189421910Y-119161260D01*
X189053296Y-119161260D01*
X189007353Y-119180290D01*
X188972190Y-119215453D01*
X188953160Y-119261396D01*
X188918562Y-119261396D01*
X188851768Y-118906418D01*
X188627281Y-118557556D01*
X188543940Y-118500612D01*
X188543940Y-115626285D01*
X188731682Y-115351515D01*
X188814020Y-114944920D01*
X188814020Y-114651170D01*
X188843940Y-114651170D01*
X188843940Y-114969784D01*
X188862970Y-115015727D01*
X188898133Y-115050890D01*
X188944076Y-115069920D01*
X189312690Y-115069920D01*
X189343940Y-115038670D01*
X189343940Y-114619920D01*
X190093940Y-114619920D01*
X190093940Y-115038670D01*
X190125190Y-115069920D01*
X190493804Y-115069920D01*
X190539747Y-115050890D01*
X190574910Y-115015727D01*
X190593940Y-114969784D01*
X190593940Y-114651170D01*
X190562690Y-114619920D01*
X190093940Y-114619920D01*
X189343940Y-114619920D01*
X188875190Y-114619920D01*
X188843940Y-114651170D01*
X188814020Y-114651170D01*
X188814020Y-113644920D01*
X188809342Y-113620056D01*
X188843940Y-113620056D01*
X188843940Y-113938670D01*
X188875190Y-113969920D01*
X189343940Y-113969920D01*
X189343940Y-113551170D01*
X190093940Y-113551170D01*
X190093940Y-113969920D01*
X190562690Y-113969920D01*
X190593940Y-113938670D01*
X190593940Y-113620056D01*
X190574910Y-113574113D01*
X190539747Y-113538950D01*
X190493804Y-113519920D01*
X190125190Y-113519920D01*
X190093940Y-113551170D01*
X189343940Y-113551170D01*
X189312690Y-113519920D01*
X188944076Y-113519920D01*
X188898133Y-113538950D01*
X188862970Y-113574113D01*
X188843940Y-113620056D01*
X188809342Y-113620056D01*
X188742548Y-113265078D01*
X188518061Y-112916216D01*
X188175535Y-112682178D01*
X187768940Y-112599840D01*
X186268940Y-112599840D01*
X185889098Y-112671312D01*
X185589808Y-112863900D01*
X183561750Y-112863900D01*
X183433335Y-112776158D01*
X183026740Y-112693820D01*
X181526740Y-112693820D01*
X181146898Y-112765292D01*
X180936584Y-112900626D01*
X180655078Y-112479322D01*
X176782437Y-108606681D01*
X176583577Y-108125402D01*
X176098750Y-107639729D01*
X175464969Y-107376560D01*
X174778722Y-107375961D01*
X174144482Y-107638023D01*
X173658809Y-108122850D01*
X173395640Y-108756631D01*
X173395041Y-109442878D01*
X173657103Y-110077118D01*
X174141930Y-110562791D01*
X174626340Y-110763936D01*
X177781660Y-113919256D01*
X177781660Y-115038900D01*
X177853132Y-115418742D01*
X178051740Y-115727387D01*
X178051740Y-119170460D01*
X178167824Y-119754052D01*
X178498402Y-120248798D01*
X182208060Y-123958455D01*
X182208062Y-123958458D01*
X182491625Y-124147928D01*
X182702807Y-124289036D01*
X183286400Y-124405120D01*
X206113380Y-124405120D01*
X206696972Y-124289036D01*
X207191718Y-123958458D01*
X209287218Y-121862958D01*
X209534286Y-121493194D01*
X209606585Y-121856666D01*
X210023872Y-122481181D01*
X210152304Y-122566997D01*
X209792182Y-122807622D01*
X209295652Y-123304152D01*
X209202888Y-123322604D01*
X208708142Y-123653182D01*
X208456433Y-124029892D01*
X208426620Y-124059653D01*
X208410323Y-124098901D01*
X208377564Y-124147928D01*
X208366161Y-124205255D01*
X208181759Y-124649345D01*
X208181202Y-125287854D01*
X208262661Y-125485000D01*
X166757676Y-125485000D01*
X162738800Y-121466124D01*
X162738800Y-115336320D01*
X162622716Y-114752728D01*
X162292138Y-114257982D01*
X159442258Y-111408102D01*
X158947512Y-111077524D01*
X158363920Y-110961440D01*
X157475914Y-110961440D01*
X157557904Y-110908681D01*
X157791942Y-110566155D01*
X157874280Y-110159560D01*
X157874280Y-109865810D01*
X157904200Y-109865810D01*
X157904200Y-110184424D01*
X157923230Y-110230367D01*
X157958393Y-110265530D01*
X158004336Y-110284560D01*
X158372950Y-110284560D01*
X158404200Y-110253310D01*
X158404200Y-109834560D01*
X159154200Y-109834560D01*
X159154200Y-110253310D01*
X159185450Y-110284560D01*
X159554064Y-110284560D01*
X159600007Y-110265530D01*
X159635170Y-110230367D01*
X159654200Y-110184424D01*
X159654200Y-109865810D01*
X159622950Y-109834560D01*
X159154200Y-109834560D01*
X158404200Y-109834560D01*
X157935450Y-109834560D01*
X157904200Y-109865810D01*
X157874280Y-109865810D01*
X157874280Y-108859560D01*
X157869602Y-108834696D01*
X157904200Y-108834696D01*
X157904200Y-109153310D01*
X157935450Y-109184560D01*
X158404200Y-109184560D01*
X158404200Y-108765810D01*
X159154200Y-108765810D01*
X159154200Y-109184560D01*
X159622950Y-109184560D01*
X159654200Y-109153310D01*
X159654200Y-108834696D01*
X159635170Y-108788753D01*
X159600007Y-108753590D01*
X159554064Y-108734560D01*
X159185450Y-108734560D01*
X159154200Y-108765810D01*
X158404200Y-108765810D01*
X158372950Y-108734560D01*
X158004336Y-108734560D01*
X157958393Y-108753590D01*
X157923230Y-108788753D01*
X157904200Y-108834696D01*
X157869602Y-108834696D01*
X157802808Y-108479718D01*
X157578321Y-108130856D01*
X157266995Y-107918136D01*
X157157538Y-107754322D01*
X155907326Y-106504110D01*
X156540796Y-105870640D01*
X156829200Y-105870640D01*
X157209042Y-105799168D01*
X157557904Y-105574681D01*
X157791942Y-105232155D01*
X157874280Y-104825560D01*
X157874280Y-104531810D01*
X157904200Y-104531810D01*
X157904200Y-104850424D01*
X157923230Y-104896367D01*
X157958393Y-104931530D01*
X158004336Y-104950560D01*
X158372950Y-104950560D01*
X158404200Y-104919310D01*
X158404200Y-104500560D01*
X159154200Y-104500560D01*
X159154200Y-104919310D01*
X159185450Y-104950560D01*
X159554064Y-104950560D01*
X159600007Y-104931530D01*
X159635170Y-104896367D01*
X159654200Y-104850424D01*
X159654200Y-104531810D01*
X159622950Y-104500560D01*
X159154200Y-104500560D01*
X158404200Y-104500560D01*
X157935450Y-104500560D01*
X157904200Y-104531810D01*
X157874280Y-104531810D01*
X157874280Y-103525560D01*
X157869602Y-103500696D01*
X157904200Y-103500696D01*
X157904200Y-103819310D01*
X157935450Y-103850560D01*
X158404200Y-103850560D01*
X158404200Y-103431810D01*
X159154200Y-103431810D01*
X159154200Y-103850560D01*
X159622950Y-103850560D01*
X159654200Y-103819310D01*
X159654200Y-103500696D01*
X159635170Y-103454753D01*
X159600007Y-103419590D01*
X159554064Y-103400560D01*
X159185450Y-103400560D01*
X159154200Y-103431810D01*
X158404200Y-103431810D01*
X158372950Y-103400560D01*
X158004336Y-103400560D01*
X157958393Y-103419590D01*
X157923230Y-103454753D01*
X157904200Y-103500696D01*
X157869602Y-103500696D01*
X157802808Y-103145718D01*
X157578321Y-102796856D01*
X157235795Y-102562818D01*
X156829200Y-102480480D01*
X155329200Y-102480480D01*
X154949358Y-102551952D01*
X154600496Y-102776439D01*
X154366458Y-103118965D01*
X154284120Y-103525560D01*
X154284120Y-103813964D01*
X153148824Y-104949260D01*
X152939510Y-104949260D01*
X152811095Y-104861518D01*
X152404500Y-104779180D01*
X150904500Y-104779180D01*
X150524658Y-104850652D01*
X150303486Y-104992973D01*
X150111095Y-104861518D01*
X149704500Y-104779180D01*
X149416095Y-104779180D01*
X147458078Y-102821162D01*
X146963332Y-102490584D01*
X146379740Y-102374500D01*
X144858800Y-102374500D01*
X144377869Y-102174800D01*
X143691622Y-102174201D01*
X143057382Y-102436263D01*
X142571709Y-102921090D01*
X142308540Y-103554871D01*
X142307941Y-104241118D01*
X142570003Y-104875358D01*
X143054830Y-105361031D01*
X143688611Y-105624200D01*
X144374858Y-105624799D01*
X144859620Y-105424500D01*
X145748064Y-105424500D01*
X147159420Y-106835855D01*
X147159420Y-107124260D01*
X147230892Y-107504102D01*
X147455379Y-107852964D01*
X147534356Y-107906927D01*
X147545584Y-107963372D01*
X147876162Y-108458118D01*
X152078844Y-112660800D01*
X150980700Y-112660800D01*
X150600858Y-112732272D01*
X150379686Y-112874593D01*
X150187295Y-112743138D01*
X150097417Y-112724937D01*
X149614292Y-112402124D01*
X149599622Y-112399206D01*
X145695337Y-108494921D01*
X145496477Y-108013642D01*
X145011650Y-107527969D01*
X144377869Y-107264800D01*
X143691622Y-107264201D01*
X143057382Y-107526263D01*
X142571709Y-108011090D01*
X142308540Y-108644871D01*
X142307941Y-109331118D01*
X142570003Y-109965358D01*
X143054830Y-110451031D01*
X143539240Y-110652176D01*
X147235620Y-114348556D01*
X147235620Y-115005880D01*
X147307092Y-115385722D01*
X147505700Y-115694367D01*
X147505700Y-126343420D01*
X147621784Y-126927012D01*
X147952362Y-127421758D01*
X153262222Y-132731618D01*
X153756968Y-133062196D01*
X154340560Y-133178280D01*
X204129640Y-133178280D01*
X204713232Y-133062196D01*
X205207978Y-132731618D01*
X206455496Y-131484100D01*
X209538802Y-131484100D01*
X209460053Y-131880000D01*
X209606585Y-132616666D01*
X210023872Y-133241181D01*
X210648387Y-133658468D01*
X211385053Y-133805000D01*
X212887907Y-133805000D01*
X213624573Y-133658468D01*
X214249088Y-133241181D01*
X214666375Y-132616666D01*
X214812907Y-131880000D01*
X214666375Y-131143334D01*
X214502099Y-130897477D01*
X215826480Y-129573096D01*
X215826480Y-137030280D01*
X88008529Y-137030280D01*
X87995760Y-137027740D01*
X58011240Y-137027740D01*
X58011240Y-120231129D01*
X96716216Y-120231129D01*
X97403655Y-121894858D01*
X98675447Y-123168871D01*
X100337973Y-123859213D01*
X102138129Y-123860784D01*
X103801858Y-123173345D01*
X105075871Y-121901553D01*
X105766213Y-120239027D01*
X105767784Y-118438871D01*
X105080345Y-116775142D01*
X103808553Y-115501129D01*
X102146027Y-114810787D01*
X100345871Y-114809216D01*
X98682142Y-115496655D01*
X97408129Y-116768447D01*
X96717787Y-118430973D01*
X96716216Y-120231129D01*
X58011240Y-120231129D01*
X58011240Y-112160292D01*
X65918739Y-112160292D01*
X66133459Y-112288460D01*
X66773491Y-112379437D01*
X67230861Y-112288460D01*
X67445581Y-112160292D01*
X66682160Y-111396871D01*
X65918739Y-112160292D01*
X58011240Y-112160292D01*
X58011240Y-110816451D01*
X65027843Y-110816451D01*
X65118820Y-111273821D01*
X65246988Y-111488541D01*
X66010409Y-110725120D01*
X67353911Y-110725120D01*
X68117332Y-111488541D01*
X68245500Y-111273821D01*
X68336477Y-110633789D01*
X68245500Y-110176419D01*
X68117332Y-109961699D01*
X67353911Y-110725120D01*
X66010409Y-110725120D01*
X65246988Y-109961699D01*
X65118820Y-110176419D01*
X65027843Y-110816451D01*
X58011240Y-110816451D01*
X58011240Y-109289948D01*
X65918739Y-109289948D01*
X66682160Y-110053369D01*
X67445581Y-109289948D01*
X67230861Y-109161780D01*
X66590829Y-109070803D01*
X66133459Y-109161780D01*
X65918739Y-109289948D01*
X58011240Y-109289948D01*
X58011240Y-102946640D01*
X67576853Y-102946640D01*
X67846511Y-103599263D01*
X67856931Y-103609701D01*
X67848266Y-103618351D01*
X67577469Y-104270502D01*
X67576853Y-104976640D01*
X67846511Y-105629263D01*
X68111931Y-105895146D01*
X67848266Y-106158351D01*
X67577469Y-106810502D01*
X67576853Y-107516640D01*
X67846511Y-108169263D01*
X68345391Y-108669014D01*
X68997542Y-108939811D01*
X69703680Y-108940427D01*
X70356303Y-108670769D01*
X70856054Y-108171889D01*
X71126851Y-107519738D01*
X71127467Y-106813600D01*
X70857809Y-106160977D01*
X70592389Y-105895094D01*
X70856054Y-105631889D01*
X71126851Y-104979738D01*
X71127467Y-104273600D01*
X70857809Y-103620977D01*
X70847389Y-103610539D01*
X70856054Y-103601889D01*
X71126851Y-102949738D01*
X71127467Y-102243600D01*
X70857809Y-101590977D01*
X70358929Y-101091226D01*
X69706778Y-100820429D01*
X69587035Y-100820325D01*
X69352160Y-100585450D01*
X69117695Y-100819915D01*
X69000640Y-100819813D01*
X68348017Y-101089471D01*
X67848266Y-101588351D01*
X67577469Y-102240502D01*
X67576853Y-102946640D01*
X58011240Y-102946640D01*
X58011240Y-99882688D01*
X68476840Y-99882688D01*
X68476840Y-100227552D01*
X68539040Y-100337910D01*
X68821830Y-100055120D01*
X69882490Y-100055120D01*
X70165280Y-100337910D01*
X70227480Y-100227552D01*
X70227480Y-99882688D01*
X70165280Y-99772330D01*
X69882490Y-100055120D01*
X68821830Y-100055120D01*
X68539040Y-99772330D01*
X68476840Y-99882688D01*
X58011240Y-99882688D01*
X58011240Y-99242000D01*
X69069370Y-99242000D01*
X69352160Y-99524790D01*
X69634950Y-99242000D01*
X69524592Y-99179800D01*
X69179728Y-99179800D01*
X69069370Y-99242000D01*
X58011240Y-99242000D01*
X58011240Y-98440292D01*
X65918739Y-98440292D01*
X66133459Y-98568460D01*
X66773491Y-98659437D01*
X67230861Y-98568460D01*
X67445581Y-98440292D01*
X66682160Y-97676871D01*
X65918739Y-98440292D01*
X58011240Y-98440292D01*
X58011240Y-97096451D01*
X65027843Y-97096451D01*
X65118820Y-97553821D01*
X65246988Y-97768541D01*
X66010409Y-97005120D01*
X67353911Y-97005120D01*
X68117332Y-97768541D01*
X68245500Y-97553821D01*
X68336477Y-96913789D01*
X68245500Y-96456419D01*
X68117332Y-96241699D01*
X67353911Y-97005120D01*
X66010409Y-97005120D01*
X65246988Y-96241699D01*
X65118820Y-96456419D01*
X65027843Y-97096451D01*
X58011240Y-97096451D01*
X58011240Y-95569948D01*
X65918739Y-95569948D01*
X66682160Y-96333369D01*
X67445581Y-95569948D01*
X67230861Y-95441780D01*
X66590829Y-95350803D01*
X66133459Y-95441780D01*
X65918739Y-95569948D01*
X58011240Y-95569948D01*
X58011240Y-81131129D01*
X96716216Y-81131129D01*
X97403655Y-82794858D01*
X98675447Y-84068871D01*
X100337973Y-84759213D01*
X102138129Y-84760784D01*
X103801858Y-84073345D01*
X105075871Y-82801553D01*
X105766213Y-81139027D01*
X105767784Y-79338871D01*
X105080345Y-77675142D01*
X103808553Y-76401129D01*
X102146027Y-75710787D01*
X100345871Y-75709216D01*
X98682142Y-76396655D01*
X97408129Y-77668447D01*
X96717787Y-79330973D01*
X96716216Y-81131129D01*
X58011240Y-81131129D01*
X58011240Y-77561296D01*
X58044086Y-77726424D01*
X58450535Y-78334718D01*
X59058829Y-78741167D01*
X59776360Y-78883893D01*
X60493891Y-78741167D01*
X61102185Y-78334718D01*
X61508634Y-77726424D01*
X61651360Y-77008893D01*
X61651360Y-76935427D01*
X61508634Y-76217896D01*
X61102185Y-75609602D01*
X60493891Y-75203153D01*
X60384404Y-75181375D01*
X60576622Y-74989207D01*
X60622661Y-74857160D01*
X60201360Y-74857160D01*
X60201360Y-74927160D01*
X59351360Y-74927160D01*
X59351360Y-74857160D01*
X58930059Y-74857160D01*
X58976098Y-74989207D01*
X59168316Y-75181375D01*
X59058829Y-75203153D01*
X58450535Y-75609602D01*
X58044086Y-76217896D01*
X58011240Y-76383024D01*
X58011240Y-74007160D01*
X58930059Y-74007160D01*
X59351360Y-74007160D01*
X60201360Y-74007160D01*
X60622661Y-74007160D01*
X60576622Y-73875113D01*
X60333398Y-73631952D01*
X60201360Y-73589522D01*
X60201360Y-74007160D01*
X59351360Y-74007160D01*
X59351360Y-73589522D01*
X59219322Y-73631952D01*
X58976098Y-73875113D01*
X58930059Y-74007160D01*
X58011240Y-74007160D01*
X58011240Y-73582160D01*
X70581280Y-73582160D01*
X70581280Y-75282160D01*
X70652752Y-75662002D01*
X70877239Y-76010864D01*
X70880796Y-76013295D01*
X70744086Y-76217896D01*
X70601360Y-76935427D01*
X70601360Y-77008893D01*
X70744086Y-77726424D01*
X71150535Y-78334718D01*
X71758829Y-78741167D01*
X72476360Y-78883893D01*
X73193891Y-78741167D01*
X73802185Y-78334718D01*
X74208634Y-77726424D01*
X74351360Y-77008893D01*
X74351360Y-76935427D01*
X74208634Y-76217896D01*
X74069664Y-76009913D01*
X74289102Y-75688755D01*
X74371440Y-75282160D01*
X74371440Y-73582160D01*
X74299968Y-73202318D01*
X74075481Y-72853456D01*
X73732955Y-72619418D01*
X73326360Y-72537080D01*
X71626360Y-72537080D01*
X71246518Y-72608552D01*
X70897656Y-72833039D01*
X70663618Y-73175565D01*
X70581280Y-73582160D01*
X58011240Y-73582160D01*
X58011240Y-68091220D01*
X87934800Y-68091220D01*
X88355752Y-68007487D01*
X88712617Y-67769037D01*
X88951067Y-67412172D01*
X89034800Y-66991220D01*
X89034800Y-48349500D01*
X118590120Y-48349500D01*
X118590120Y-50329500D01*
X118661592Y-50709342D01*
X118886079Y-51058204D01*
X119228605Y-51292242D01*
X119635200Y-51374580D01*
X120090200Y-51374580D01*
X120090200Y-60579000D01*
X120206284Y-61162592D01*
X120536862Y-61657338D01*
X127261560Y-68382036D01*
X127261560Y-103826606D01*
X126622293Y-104465873D01*
X126313392Y-104928176D01*
X126204920Y-105473500D01*
X126313392Y-106018824D01*
X126622293Y-106481127D01*
X127084596Y-106790028D01*
X127629920Y-106898500D01*
X128175244Y-106790028D01*
X128637547Y-106481127D01*
X129694187Y-105424487D01*
X129713273Y-105395923D01*
X130003088Y-104962184D01*
X130111560Y-104416860D01*
X130111560Y-96678400D01*
X140756824Y-96678400D01*
X141177080Y-96678400D01*
X141977080Y-96678400D01*
X142397336Y-96678400D01*
X143296824Y-96678400D01*
X143717080Y-96678400D01*
X143717080Y-96154157D01*
X143591532Y-96192201D01*
X143534739Y-96274013D01*
X143319077Y-96548581D01*
X143296824Y-96678400D01*
X142397336Y-96678400D01*
X142375083Y-96548581D01*
X142159421Y-96274013D01*
X142102628Y-96192201D01*
X141977080Y-96154157D01*
X141977080Y-96678400D01*
X141177080Y-96678400D01*
X141177080Y-96154157D01*
X141051532Y-96192201D01*
X140994739Y-96274013D01*
X140779077Y-96548581D01*
X140756824Y-96678400D01*
X130111560Y-96678400D01*
X130111560Y-93264109D01*
X133185507Y-93264109D01*
X133688514Y-94481480D01*
X134619101Y-95413692D01*
X135835592Y-95918824D01*
X137152789Y-95919973D01*
X138370160Y-95416966D01*
X138899648Y-94888400D01*
X140756824Y-94888400D01*
X140779077Y-95018219D01*
X140994739Y-95292787D01*
X141051532Y-95374599D01*
X141177080Y-95412643D01*
X141177080Y-94888400D01*
X141977080Y-94888400D01*
X141977080Y-95412643D01*
X142102628Y-95374599D01*
X142159421Y-95292787D01*
X142375083Y-95018219D01*
X142397336Y-94888400D01*
X143296824Y-94888400D01*
X143319077Y-95018219D01*
X143534739Y-95292787D01*
X143591532Y-95374599D01*
X143717080Y-95412643D01*
X143717080Y-94888400D01*
X143296824Y-94888400D01*
X142397336Y-94888400D01*
X141977080Y-94888400D01*
X141177080Y-94888400D01*
X140756824Y-94888400D01*
X138899648Y-94888400D01*
X139302372Y-94486379D01*
X139529913Y-93938400D01*
X140756824Y-93938400D01*
X141177080Y-93938400D01*
X141977080Y-93938400D01*
X142397336Y-93938400D01*
X143296824Y-93938400D01*
X143717080Y-93938400D01*
X143717080Y-93414157D01*
X143591532Y-93452201D01*
X143534739Y-93534013D01*
X143319077Y-93808581D01*
X143296824Y-93938400D01*
X142397336Y-93938400D01*
X142375083Y-93808581D01*
X142159421Y-93534013D01*
X142102628Y-93452201D01*
X141977080Y-93414157D01*
X141977080Y-93938400D01*
X141177080Y-93938400D01*
X141177080Y-93414157D01*
X141051532Y-93452201D01*
X140994739Y-93534013D01*
X140779077Y-93808581D01*
X140756824Y-93938400D01*
X139529913Y-93938400D01*
X139807504Y-93269888D01*
X139808653Y-91952691D01*
X139305646Y-90735320D01*
X138375059Y-89803108D01*
X137158568Y-89297976D01*
X135841371Y-89296827D01*
X134624000Y-89799834D01*
X133691788Y-90730421D01*
X133186656Y-91946912D01*
X133185507Y-93264109D01*
X130111560Y-93264109D01*
X130111560Y-80880170D01*
X134557240Y-80880170D01*
X134557240Y-81098784D01*
X134576270Y-81144727D01*
X134611433Y-81179890D01*
X134657376Y-81198920D01*
X134850990Y-81198920D01*
X134882240Y-81167670D01*
X134882240Y-80848920D01*
X134588490Y-80848920D01*
X134557240Y-80880170D01*
X130111560Y-80880170D01*
X130111560Y-80149056D01*
X134557240Y-80149056D01*
X134557240Y-80367670D01*
X134588490Y-80398920D01*
X134882240Y-80398920D01*
X134882240Y-80080170D01*
X134850990Y-80048920D01*
X134657376Y-80048920D01*
X134611433Y-80067950D01*
X134576270Y-80103113D01*
X134557240Y-80149056D01*
X130111560Y-80149056D01*
X130111560Y-71882650D01*
X148036320Y-71882650D01*
X148036320Y-72201264D01*
X148055350Y-72247207D01*
X148090513Y-72282370D01*
X148136456Y-72301400D01*
X148505070Y-72301400D01*
X148536320Y-72270150D01*
X148536320Y-71851400D01*
X149286320Y-71851400D01*
X149286320Y-72270150D01*
X149317570Y-72301400D01*
X149686184Y-72301400D01*
X149732127Y-72282370D01*
X149767290Y-72247207D01*
X149786320Y-72201264D01*
X149786320Y-71882650D01*
X149755070Y-71851400D01*
X149286320Y-71851400D01*
X148536320Y-71851400D01*
X148067570Y-71851400D01*
X148036320Y-71882650D01*
X130111560Y-71882650D01*
X130111560Y-70851536D01*
X148036320Y-70851536D01*
X148036320Y-71170150D01*
X148067570Y-71201400D01*
X148536320Y-71201400D01*
X148536320Y-70782650D01*
X149286320Y-70782650D01*
X149286320Y-71201400D01*
X149755070Y-71201400D01*
X149786320Y-71170150D01*
X149786320Y-70851536D01*
X149767290Y-70805593D01*
X149732127Y-70770430D01*
X149686184Y-70751400D01*
X149317570Y-70751400D01*
X149286320Y-70782650D01*
X148536320Y-70782650D01*
X148505070Y-70751400D01*
X148136456Y-70751400D01*
X148090513Y-70770430D01*
X148055350Y-70805593D01*
X148036320Y-70851536D01*
X130111560Y-70851536D01*
X130111560Y-69138060D01*
X134254260Y-69138060D01*
X134735191Y-69337760D01*
X135421438Y-69338359D01*
X136055678Y-69076297D01*
X136541351Y-68591470D01*
X136804520Y-67957689D01*
X136804522Y-67954678D01*
X140974521Y-67954678D01*
X141236583Y-68588918D01*
X141721410Y-69074591D01*
X142355191Y-69337760D01*
X143041438Y-69338359D01*
X143675678Y-69076297D01*
X144161351Y-68591470D01*
X144424520Y-67957689D01*
X144425119Y-67271442D01*
X144163057Y-66637202D01*
X143678230Y-66151529D01*
X143044449Y-65888360D01*
X142358202Y-65887761D01*
X141723962Y-66149823D01*
X141238289Y-66634650D01*
X140975120Y-67268431D01*
X140974521Y-67954678D01*
X136804522Y-67954678D01*
X136805119Y-67271442D01*
X136543057Y-66637202D01*
X136058230Y-66151529D01*
X135424449Y-65888360D01*
X134738202Y-65887761D01*
X134253440Y-66088060D01*
X129280936Y-66088060D01*
X126057554Y-62864678D01*
X133344521Y-62864678D01*
X133606583Y-63498918D01*
X134091410Y-63984591D01*
X134725191Y-64247760D01*
X135411438Y-64248359D01*
X136045678Y-63986297D01*
X136531351Y-63501470D01*
X136794520Y-62867689D01*
X136795119Y-62181442D01*
X136533057Y-61547202D01*
X136048230Y-61061529D01*
X135414449Y-60798360D01*
X134728202Y-60797761D01*
X134093962Y-61059823D01*
X133608289Y-61544650D01*
X133345120Y-62178431D01*
X133344521Y-62864678D01*
X126057554Y-62864678D01*
X123140200Y-59947324D01*
X123140200Y-57784678D01*
X133344521Y-57784678D01*
X133606583Y-58418918D01*
X134091410Y-58904591D01*
X134725191Y-59167760D01*
X135411438Y-59168359D01*
X136045678Y-58906297D01*
X136531351Y-58421470D01*
X136794520Y-57787689D01*
X136795119Y-57101442D01*
X136533057Y-56467202D01*
X136048230Y-55981529D01*
X135414449Y-55718360D01*
X134728202Y-55717761D01*
X134093962Y-55979823D01*
X133608289Y-56464650D01*
X133345120Y-57098431D01*
X133344521Y-57784678D01*
X123140200Y-57784678D01*
X123140200Y-51374580D01*
X123595200Y-51374580D01*
X123703994Y-51354109D01*
X133185507Y-51354109D01*
X133688514Y-52571480D01*
X134619101Y-53503692D01*
X135835592Y-54008824D01*
X137152789Y-54009973D01*
X138188684Y-53581950D01*
X146403100Y-53581950D01*
X146403100Y-53900564D01*
X146422130Y-53946507D01*
X146457293Y-53981670D01*
X146503236Y-54000700D01*
X146871850Y-54000700D01*
X146903100Y-53969450D01*
X146903100Y-53550700D01*
X147653100Y-53550700D01*
X147653100Y-53969450D01*
X147684350Y-54000700D01*
X148052964Y-54000700D01*
X148098907Y-53981670D01*
X148134070Y-53946507D01*
X148153100Y-53900564D01*
X148153100Y-53581950D01*
X148121850Y-53550700D01*
X147653100Y-53550700D01*
X146903100Y-53550700D01*
X146434350Y-53550700D01*
X146403100Y-53581950D01*
X138188684Y-53581950D01*
X138370160Y-53506966D01*
X139302372Y-52576379D01*
X139312978Y-52550836D01*
X146403100Y-52550836D01*
X146403100Y-52869450D01*
X146434350Y-52900700D01*
X146903100Y-52900700D01*
X146903100Y-52481950D01*
X147653100Y-52481950D01*
X147653100Y-52900700D01*
X148121850Y-52900700D01*
X148153100Y-52869450D01*
X148153100Y-52550836D01*
X148134070Y-52504893D01*
X148098907Y-52469730D01*
X148052964Y-52450700D01*
X147684350Y-52450700D01*
X147653100Y-52481950D01*
X146903100Y-52481950D01*
X146871850Y-52450700D01*
X146503236Y-52450700D01*
X146457293Y-52469730D01*
X146422130Y-52504893D01*
X146403100Y-52550836D01*
X139312978Y-52550836D01*
X139807504Y-51359888D01*
X139808653Y-50042691D01*
X139305646Y-48825320D01*
X138375059Y-47893108D01*
X137158568Y-47387976D01*
X135841371Y-47386827D01*
X134624000Y-47889834D01*
X133691788Y-48820421D01*
X133186656Y-50036912D01*
X133185507Y-51354109D01*
X123703994Y-51354109D01*
X123975042Y-51303108D01*
X124323904Y-51078621D01*
X124557942Y-50736095D01*
X124640280Y-50329500D01*
X124640280Y-48349500D01*
X124568808Y-47969658D01*
X124344321Y-47620796D01*
X124001795Y-47386758D01*
X123595200Y-47304420D01*
X119635200Y-47304420D01*
X119255358Y-47375892D01*
X118906496Y-47600379D01*
X118672458Y-47942905D01*
X118590120Y-48349500D01*
X89034800Y-48349500D01*
X89034800Y-45913728D01*
X139752080Y-45913728D01*
X139752080Y-46393072D01*
X139891000Y-47091469D01*
X140179607Y-47523400D01*
X139891000Y-47955331D01*
X139752080Y-48653728D01*
X139752080Y-49133072D01*
X139891000Y-49831469D01*
X140286610Y-50423542D01*
X140878683Y-50819152D01*
X141577080Y-50958072D01*
X142275477Y-50819152D01*
X142847080Y-50437220D01*
X143418683Y-50819152D01*
X144117080Y-50958072D01*
X144815477Y-50819152D01*
X145387080Y-50437220D01*
X145958683Y-50819152D01*
X146657080Y-50958072D01*
X147355477Y-50819152D01*
X147927080Y-50437220D01*
X148498683Y-50819152D01*
X149197080Y-50958072D01*
X149895477Y-50819152D01*
X150467080Y-50437220D01*
X151038683Y-50819152D01*
X151737080Y-50958072D01*
X152435477Y-50819152D01*
X153007080Y-50437220D01*
X153578683Y-50819152D01*
X154277080Y-50958072D01*
X154975477Y-50819152D01*
X155547080Y-50437220D01*
X156118683Y-50819152D01*
X156817080Y-50958072D01*
X157515477Y-50819152D01*
X158087080Y-50437220D01*
X158658683Y-50819152D01*
X159357080Y-50958072D01*
X160055477Y-50819152D01*
X160627080Y-50437220D01*
X161198683Y-50819152D01*
X161897080Y-50958072D01*
X162595477Y-50819152D01*
X163167080Y-50437220D01*
X163738683Y-50819152D01*
X164437080Y-50958072D01*
X165135477Y-50819152D01*
X165707080Y-50437220D01*
X166278683Y-50819152D01*
X166977080Y-50958072D01*
X167675477Y-50819152D01*
X168247080Y-50437220D01*
X168818683Y-50819152D01*
X169517080Y-50958072D01*
X170215477Y-50819152D01*
X170787080Y-50437220D01*
X171358683Y-50819152D01*
X172057080Y-50958072D01*
X172755477Y-50819152D01*
X173327080Y-50437220D01*
X173898683Y-50819152D01*
X174597080Y-50958072D01*
X175295477Y-50819152D01*
X175867080Y-50437220D01*
X176438683Y-50819152D01*
X177137080Y-50958072D01*
X177835477Y-50819152D01*
X178407080Y-50437220D01*
X178978683Y-50819152D01*
X179677080Y-50958072D01*
X180375477Y-50819152D01*
X180947080Y-50437220D01*
X181518683Y-50819152D01*
X182217080Y-50958072D01*
X182915477Y-50819152D01*
X183487080Y-50437220D01*
X184058683Y-50819152D01*
X184757080Y-50958072D01*
X185455477Y-50819152D01*
X186027080Y-50437220D01*
X186598683Y-50819152D01*
X187297080Y-50958072D01*
X187995477Y-50819152D01*
X188567080Y-50437220D01*
X189138683Y-50819152D01*
X189837080Y-50958072D01*
X190535477Y-50819152D01*
X191107080Y-50437220D01*
X191678683Y-50819152D01*
X192377080Y-50958072D01*
X193075477Y-50819152D01*
X193647080Y-50437220D01*
X194218683Y-50819152D01*
X194917080Y-50958072D01*
X195615477Y-50819152D01*
X196131140Y-50474597D01*
X196250485Y-50556142D01*
X196657080Y-50638480D01*
X198257080Y-50638480D01*
X198636922Y-50567008D01*
X198985784Y-50342521D01*
X199219822Y-49999995D01*
X199302160Y-49593400D01*
X199302160Y-48364624D01*
X199728514Y-49396480D01*
X200616051Y-50285567D01*
X200494459Y-50406947D01*
X200216797Y-51075631D01*
X200216165Y-51799672D01*
X200492659Y-52468840D01*
X200732611Y-52709210D01*
X200494459Y-52946947D01*
X200216797Y-53615631D01*
X200216165Y-54339672D01*
X200492659Y-55008840D01*
X200732611Y-55249210D01*
X200494459Y-55486947D01*
X200216797Y-56155631D01*
X200216165Y-56879672D01*
X200492659Y-57548840D01*
X201004187Y-58061261D01*
X201672871Y-58338923D01*
X202396912Y-58339555D01*
X202770792Y-58185071D01*
X203032659Y-58818840D01*
X203544187Y-59331261D01*
X204212871Y-59608923D01*
X204936912Y-59609555D01*
X205606080Y-59333061D01*
X206118501Y-58821533D01*
X206396163Y-58152849D01*
X206396795Y-57428808D01*
X206120301Y-56759640D01*
X205880349Y-56519270D01*
X206118501Y-56281533D01*
X206396163Y-55612849D01*
X206396795Y-54888808D01*
X206120301Y-54219640D01*
X205880349Y-53979270D01*
X206118501Y-53741533D01*
X206396163Y-53072849D01*
X206396795Y-52348808D01*
X206120301Y-51679640D01*
X205608773Y-51167219D01*
X204940089Y-50889557D01*
X204216048Y-50888925D01*
X203842168Y-51043409D01*
X203673905Y-50636180D01*
X204410160Y-50331966D01*
X204688566Y-50054045D01*
X208276021Y-50054045D01*
X208678609Y-51028384D01*
X209423415Y-51774491D01*
X210397050Y-52178779D01*
X211451285Y-52179699D01*
X212425624Y-51777111D01*
X213171731Y-51032305D01*
X213576019Y-50058670D01*
X213576939Y-49004435D01*
X213174351Y-48030096D01*
X212429545Y-47283989D01*
X211455910Y-46879701D01*
X210401675Y-46878781D01*
X209427336Y-47281369D01*
X208681229Y-48026175D01*
X208276941Y-48999810D01*
X208276021Y-50054045D01*
X204688566Y-50054045D01*
X205342372Y-49401379D01*
X205847504Y-48184888D01*
X205848653Y-46867691D01*
X205345646Y-45650320D01*
X204415059Y-44718108D01*
X203198568Y-44212976D01*
X201881371Y-44211827D01*
X200664000Y-44714834D01*
X199731788Y-45645421D01*
X199226656Y-46861912D01*
X199226007Y-47606283D01*
X199016608Y-47280868D01*
X199143160Y-47091469D01*
X199282080Y-46393072D01*
X199282080Y-45913728D01*
X199143160Y-45215331D01*
X198747550Y-44623258D01*
X198155477Y-44227648D01*
X197457080Y-44088728D01*
X196758683Y-44227648D01*
X196187080Y-44609580D01*
X195615477Y-44227648D01*
X194917080Y-44088728D01*
X194218683Y-44227648D01*
X193647080Y-44609580D01*
X193075477Y-44227648D01*
X192377080Y-44088728D01*
X191678683Y-44227648D01*
X191107080Y-44609580D01*
X190535477Y-44227648D01*
X189837080Y-44088728D01*
X189138683Y-44227648D01*
X188567080Y-44609580D01*
X187995477Y-44227648D01*
X187297080Y-44088728D01*
X186598683Y-44227648D01*
X186027080Y-44609580D01*
X185455477Y-44227648D01*
X184757080Y-44088728D01*
X184058683Y-44227648D01*
X183487080Y-44609580D01*
X182915477Y-44227648D01*
X182217080Y-44088728D01*
X181518683Y-44227648D01*
X180947080Y-44609580D01*
X180375477Y-44227648D01*
X179677080Y-44088728D01*
X178978683Y-44227648D01*
X178407080Y-44609580D01*
X177835477Y-44227648D01*
X177137080Y-44088728D01*
X176438683Y-44227648D01*
X175867080Y-44609580D01*
X175295477Y-44227648D01*
X174597080Y-44088728D01*
X173898683Y-44227648D01*
X173327080Y-44609580D01*
X172755477Y-44227648D01*
X172057080Y-44088728D01*
X171358683Y-44227648D01*
X170787080Y-44609580D01*
X170215477Y-44227648D01*
X169517080Y-44088728D01*
X168818683Y-44227648D01*
X168247080Y-44609580D01*
X167675477Y-44227648D01*
X166977080Y-44088728D01*
X166278683Y-44227648D01*
X165707080Y-44609580D01*
X165135477Y-44227648D01*
X164437080Y-44088728D01*
X163738683Y-44227648D01*
X163167080Y-44609580D01*
X162595477Y-44227648D01*
X161897080Y-44088728D01*
X161198683Y-44227648D01*
X160627080Y-44609580D01*
X160055477Y-44227648D01*
X159357080Y-44088728D01*
X158658683Y-44227648D01*
X158087080Y-44609580D01*
X157515477Y-44227648D01*
X156817080Y-44088728D01*
X156118683Y-44227648D01*
X155547080Y-44609580D01*
X154975477Y-44227648D01*
X154277080Y-44088728D01*
X153578683Y-44227648D01*
X153007080Y-44609580D01*
X152435477Y-44227648D01*
X151737080Y-44088728D01*
X151038683Y-44227648D01*
X150467080Y-44609580D01*
X149895477Y-44227648D01*
X149197080Y-44088728D01*
X148498683Y-44227648D01*
X147927080Y-44609580D01*
X147355477Y-44227648D01*
X146657080Y-44088728D01*
X145958683Y-44227648D01*
X145387080Y-44609580D01*
X144815477Y-44227648D01*
X144117080Y-44088728D01*
X143418683Y-44227648D01*
X142847080Y-44609580D01*
X142275477Y-44227648D01*
X141577080Y-44088728D01*
X140878683Y-44227648D01*
X140286610Y-44623258D01*
X139891000Y-45215331D01*
X139752080Y-45913728D01*
X89034800Y-45913728D01*
X89034800Y-44814500D01*
X119651091Y-44814500D01*
X119703164Y-44966457D01*
X119759665Y-45187851D01*
X120150200Y-45454500D01*
X121140200Y-45454500D01*
X121140200Y-44814500D01*
X122090200Y-44814500D01*
X122090200Y-45454500D01*
X123080200Y-45454500D01*
X123470735Y-45187851D01*
X123527236Y-44966457D01*
X123579309Y-44814500D01*
X122090200Y-44814500D01*
X121140200Y-44814500D01*
X119651091Y-44814500D01*
X89034800Y-44814500D01*
X89034800Y-43864500D01*
X119651091Y-43864500D01*
X121140200Y-43864500D01*
X121140200Y-43224500D01*
X122090200Y-43224500D01*
X122090200Y-43864500D01*
X123579309Y-43864500D01*
X123527236Y-43712543D01*
X123470735Y-43491149D01*
X123080200Y-43224500D01*
X122090200Y-43224500D01*
X121140200Y-43224500D01*
X120150200Y-43224500D01*
X119759665Y-43491149D01*
X119703164Y-43712543D01*
X119651091Y-43864500D01*
X89034800Y-43864500D01*
X89034800Y-39230280D01*
X215826480Y-39230280D01*
X215826480Y-83897669D01*
X215826480Y-83897669D01*
G37*
X215826480Y-83897669D02*
X215642707Y-83622633D01*
X214100523Y-82080449D01*
X214249088Y-81981181D01*
X214666375Y-81356666D01*
X214812907Y-80620000D01*
X214666375Y-79883334D01*
X214249088Y-79258819D01*
X213624573Y-78841532D01*
X212887907Y-78695000D01*
X211385053Y-78695000D01*
X210648387Y-78841532D01*
X210023872Y-79258819D01*
X209661215Y-79801574D01*
X209214720Y-79712760D01*
X196561414Y-79712760D01*
X188915100Y-72066446D01*
X188915100Y-67056000D01*
X188806628Y-66510676D01*
X188497727Y-66048373D01*
X184549814Y-62100460D01*
X191399100Y-62100460D01*
X191399100Y-73647300D01*
X191507572Y-74192624D01*
X191816473Y-74654927D01*
X194778113Y-77616567D01*
X195240416Y-77925468D01*
X195785740Y-78033939D01*
X196331063Y-77925468D01*
X196793367Y-77616567D01*
X197102268Y-77154263D01*
X197210739Y-76608940D01*
X197102268Y-76063616D01*
X196793367Y-75601313D01*
X194346300Y-73154246D01*
X207492805Y-73154246D01*
X207655102Y-73239235D01*
X208142011Y-73259621D01*
X208244498Y-73239235D01*
X208406795Y-73154246D01*
X212492805Y-73154246D01*
X212655102Y-73239235D01*
X213142011Y-73259621D01*
X213244498Y-73239235D01*
X213406795Y-73154246D01*
X212949800Y-72697251D01*
X212492805Y-73154246D01*
X208406795Y-73154246D01*
X207949800Y-72697251D01*
X207492805Y-73154246D01*
X194346300Y-73154246D01*
X194249100Y-73057046D01*
X194249100Y-72217711D01*
X206715679Y-72217711D01*
X206736065Y-72320198D01*
X206821054Y-72482495D01*
X207278049Y-72025500D01*
X208621551Y-72025500D01*
X209078546Y-72482495D01*
X209163535Y-72320198D01*
X209167825Y-72217711D01*
X211715679Y-72217711D01*
X211736065Y-72320198D01*
X211821054Y-72482495D01*
X212278049Y-72025500D01*
X213621551Y-72025500D01*
X214078546Y-72482495D01*
X214163535Y-72320198D01*
X214183921Y-71833289D01*
X214163535Y-71730802D01*
X214078546Y-71568505D01*
X213621551Y-72025500D01*
X212278049Y-72025500D01*
X211821054Y-71568505D01*
X211736065Y-71730802D01*
X211715679Y-72217711D01*
X209167825Y-72217711D01*
X209183921Y-71833289D01*
X209163535Y-71730802D01*
X209078546Y-71568505D01*
X208621551Y-72025500D01*
X207278049Y-72025500D01*
X206821054Y-71568505D01*
X206736065Y-71730802D01*
X206715679Y-72217711D01*
X194249100Y-72217711D01*
X194249100Y-70896754D01*
X207492805Y-70896754D01*
X207949800Y-71353749D01*
X208406795Y-70896754D01*
X208244498Y-70811765D01*
X207757589Y-70791379D01*
X207655102Y-70811765D01*
X207492805Y-70896754D01*
X194249100Y-70896754D01*
X194249100Y-69946334D01*
X208324432Y-69946334D01*
X208647262Y-70727643D01*
X209244513Y-71325937D01*
X210025257Y-71650130D01*
X210870634Y-71650868D01*
X211651943Y-71328038D01*
X212083980Y-70896754D01*
X212492805Y-70896754D01*
X212949800Y-71353749D01*
X213406795Y-70896754D01*
X213244498Y-70811765D01*
X212757589Y-70791379D01*
X212655102Y-70811765D01*
X212492805Y-70896754D01*
X212083980Y-70896754D01*
X212250237Y-70730787D01*
X212574430Y-69950043D01*
X212575168Y-69104666D01*
X212252338Y-68323357D01*
X212083522Y-68154246D01*
X212492805Y-68154246D01*
X212655102Y-68239235D01*
X213142011Y-68259621D01*
X213244498Y-68239235D01*
X213406795Y-68154246D01*
X212949800Y-67697251D01*
X212492805Y-68154246D01*
X212083522Y-68154246D01*
X211655087Y-67725063D01*
X210874343Y-67400870D01*
X210028966Y-67400132D01*
X209247657Y-67722962D01*
X208649363Y-68320213D01*
X208325170Y-69100957D01*
X208324432Y-69946334D01*
X194249100Y-69946334D01*
X194249100Y-68154246D01*
X207492805Y-68154246D01*
X207655102Y-68239235D01*
X208142011Y-68259621D01*
X208244498Y-68239235D01*
X208406795Y-68154246D01*
X207949800Y-67697251D01*
X207492805Y-68154246D01*
X194249100Y-68154246D01*
X194249100Y-67217711D01*
X206715679Y-67217711D01*
X206736065Y-67320198D01*
X206821054Y-67482495D01*
X207278049Y-67025500D01*
X208621551Y-67025500D01*
X209078546Y-67482495D01*
X209163535Y-67320198D01*
X209167825Y-67217711D01*
X211715679Y-67217711D01*
X211736065Y-67320198D01*
X211821054Y-67482495D01*
X212278049Y-67025500D01*
X213621551Y-67025500D01*
X214078546Y-67482495D01*
X214163535Y-67320198D01*
X214183921Y-66833289D01*
X214163535Y-66730802D01*
X214078546Y-66568505D01*
X213621551Y-67025500D01*
X212278049Y-67025500D01*
X211821054Y-66568505D01*
X211736065Y-66730802D01*
X211715679Y-67217711D01*
X209167825Y-67217711D01*
X209183921Y-66833289D01*
X209163535Y-66730802D01*
X209078546Y-66568505D01*
X208621551Y-67025500D01*
X207278049Y-67025500D01*
X206821054Y-66568505D01*
X206736065Y-66730802D01*
X206715679Y-67217711D01*
X194249100Y-67217711D01*
X194249100Y-65896754D01*
X207492805Y-65896754D01*
X207949800Y-66353749D01*
X208406795Y-65896754D01*
X212492805Y-65896754D01*
X212949800Y-66353749D01*
X213406795Y-65896754D01*
X213244498Y-65811765D01*
X212757589Y-65791379D01*
X212655102Y-65811765D01*
X212492805Y-65896754D01*
X208406795Y-65896754D01*
X208244498Y-65811765D01*
X207757589Y-65791379D01*
X207655102Y-65811765D01*
X207492805Y-65896754D01*
X194249100Y-65896754D01*
X194249100Y-62172066D01*
X194266880Y-62082680D01*
X194158408Y-61537356D01*
X193849507Y-61075053D01*
X193387204Y-60766152D01*
X192841880Y-60657680D01*
X192296557Y-60766152D01*
X191834253Y-61075053D01*
X191816473Y-61092833D01*
X191507572Y-61555136D01*
X191399100Y-62100460D01*
X184549814Y-62100460D01*
X183697127Y-61247773D01*
X183234824Y-60938872D01*
X182689500Y-60830400D01*
X177069454Y-60830400D01*
X176453099Y-60214045D01*
X208276021Y-60214045D01*
X208678609Y-61188384D01*
X209423415Y-61934491D01*
X210397050Y-62338779D01*
X211451285Y-62339699D01*
X212425624Y-61937111D01*
X213171731Y-61192305D01*
X213576019Y-60218670D01*
X213576939Y-59164435D01*
X213174351Y-58190096D01*
X212429545Y-57443989D01*
X211455910Y-57039701D01*
X210401675Y-57038781D01*
X209427336Y-57441369D01*
X208681229Y-58186175D01*
X208276941Y-59159810D01*
X208276021Y-60214045D01*
X176453099Y-60214045D01*
X175993454Y-59754400D01*
X176501480Y-59754400D01*
X176881322Y-59682928D01*
X177230184Y-59458441D01*
X177464222Y-59115915D01*
X177546560Y-58709320D01*
X177546560Y-57409320D01*
X177533755Y-57341266D01*
X177585688Y-57351596D01*
X177874045Y-57548622D01*
X178280640Y-57630960D01*
X179780640Y-57630960D01*
X180160482Y-57559488D01*
X180509344Y-57335001D01*
X180743382Y-56992475D01*
X180825720Y-56585880D01*
X180825720Y-56292130D01*
X180855640Y-56292130D01*
X180855640Y-56610744D01*
X180874670Y-56656687D01*
X180909833Y-56691850D01*
X180955776Y-56710880D01*
X181324390Y-56710880D01*
X181355640Y-56679630D01*
X181355640Y-56260880D01*
X182105640Y-56260880D01*
X182105640Y-56679630D01*
X182136890Y-56710880D01*
X182505504Y-56710880D01*
X182551447Y-56691850D01*
X182586610Y-56656687D01*
X182605640Y-56610744D01*
X182605640Y-56292130D01*
X182574390Y-56260880D01*
X182105640Y-56260880D01*
X181355640Y-56260880D01*
X180886890Y-56260880D01*
X180855640Y-56292130D01*
X180825720Y-56292130D01*
X180825720Y-55285880D01*
X180821042Y-55261016D01*
X180855640Y-55261016D01*
X180855640Y-55579630D01*
X180886890Y-55610880D01*
X181355640Y-55610880D01*
X181355640Y-55192130D01*
X182105640Y-55192130D01*
X182105640Y-55610880D01*
X182574390Y-55610880D01*
X182605640Y-55579630D01*
X182605640Y-55261016D01*
X182586610Y-55215073D01*
X182551447Y-55179910D01*
X182505504Y-55160880D01*
X182136890Y-55160880D01*
X182105640Y-55192130D01*
X181355640Y-55192130D01*
X181324390Y-55160880D01*
X180955776Y-55160880D01*
X180909833Y-55179910D01*
X180874670Y-55215073D01*
X180855640Y-55261016D01*
X180821042Y-55261016D01*
X180754248Y-54906038D01*
X180529761Y-54557176D01*
X180187235Y-54323138D01*
X179780640Y-54240800D01*
X178280640Y-54240800D01*
X178004494Y-54292760D01*
X177490680Y-53778946D01*
X177490680Y-52994800D01*
X177419208Y-52614958D01*
X177194721Y-52266096D01*
X176852195Y-52032058D01*
X176445600Y-51949720D01*
X174945600Y-51949720D01*
X174565758Y-52021192D01*
X174216896Y-52245679D01*
X173982858Y-52588205D01*
X173900520Y-52994800D01*
X173900520Y-54294800D01*
X173971992Y-54674642D01*
X174196479Y-55023504D01*
X174270600Y-55074149D01*
X174270600Y-56489300D01*
X174208075Y-56446578D01*
X173801480Y-56364240D01*
X173371654Y-56364240D01*
X173276787Y-56269373D01*
X172814484Y-55960472D01*
X172269160Y-55852000D01*
X169670877Y-55852000D01*
X169634410Y-55815469D01*
X169000629Y-55552300D01*
X168314382Y-55551701D01*
X167680142Y-55813763D01*
X167194469Y-56298590D01*
X166931300Y-56932371D01*
X166930701Y-57618618D01*
X167192763Y-58252858D01*
X167677590Y-58738531D01*
X168311371Y-59001700D01*
X168997618Y-59002299D01*
X169631858Y-58740237D01*
X169670162Y-58702000D01*
X171256400Y-58702000D01*
X171256400Y-58709320D01*
X171327872Y-59089162D01*
X171552359Y-59438024D01*
X171894885Y-59672062D01*
X171941019Y-59681404D01*
X172043853Y-59835307D01*
X175471573Y-63263027D01*
X175933876Y-63571928D01*
X176479200Y-63680400D01*
X182099246Y-63680400D01*
X186065100Y-67646254D01*
X186065100Y-72656700D01*
X186173572Y-73202024D01*
X186482473Y-73664327D01*
X194963533Y-82145387D01*
X195425836Y-82454288D01*
X195971160Y-82562760D01*
X208624466Y-82562760D01*
X209084957Y-83023251D01*
X209032320Y-83045000D01*
X189220575Y-83045000D01*
X180717854Y-74542280D01*
X181365600Y-74542280D01*
X181745442Y-74470808D01*
X182094304Y-74246321D01*
X182328342Y-73903795D01*
X182410680Y-73497200D01*
X182410680Y-73203450D01*
X182440600Y-73203450D01*
X182440600Y-73522064D01*
X182459630Y-73568007D01*
X182494793Y-73603170D01*
X182540736Y-73622200D01*
X182909350Y-73622200D01*
X182940600Y-73590950D01*
X182940600Y-73172200D01*
X183690600Y-73172200D01*
X183690600Y-73590950D01*
X183721850Y-73622200D01*
X184090464Y-73622200D01*
X184136407Y-73603170D01*
X184171570Y-73568007D01*
X184190600Y-73522064D01*
X184190600Y-73203450D01*
X184159350Y-73172200D01*
X183690600Y-73172200D01*
X182940600Y-73172200D01*
X182471850Y-73172200D01*
X182440600Y-73203450D01*
X182410680Y-73203450D01*
X182410680Y-72197200D01*
X182406002Y-72172336D01*
X182440600Y-72172336D01*
X182440600Y-72490950D01*
X182471850Y-72522200D01*
X182940600Y-72522200D01*
X182940600Y-72103450D01*
X183690600Y-72103450D01*
X183690600Y-72522200D01*
X184159350Y-72522200D01*
X184190600Y-72490950D01*
X184190600Y-72172336D01*
X184171570Y-72126393D01*
X184136407Y-72091230D01*
X184090464Y-72072200D01*
X183721850Y-72072200D01*
X183690600Y-72103450D01*
X182940600Y-72103450D01*
X182909350Y-72072200D01*
X182540736Y-72072200D01*
X182494793Y-72091230D01*
X182459630Y-72126393D01*
X182440600Y-72172336D01*
X182406002Y-72172336D01*
X182339208Y-71817358D01*
X182114721Y-71468496D01*
X182064400Y-71434113D01*
X182064400Y-68920765D01*
X182252142Y-68645995D01*
X182334480Y-68239400D01*
X182334480Y-67945650D01*
X182364400Y-67945650D01*
X182364400Y-68264264D01*
X182383430Y-68310207D01*
X182418593Y-68345370D01*
X182464536Y-68364400D01*
X182833150Y-68364400D01*
X182864400Y-68333150D01*
X182864400Y-67914400D01*
X183614400Y-67914400D01*
X183614400Y-68333150D01*
X183645650Y-68364400D01*
X184014264Y-68364400D01*
X184060207Y-68345370D01*
X184095370Y-68310207D01*
X184114400Y-68264264D01*
X184114400Y-67945650D01*
X184083150Y-67914400D01*
X183614400Y-67914400D01*
X182864400Y-67914400D01*
X182395650Y-67914400D01*
X182364400Y-67945650D01*
X182334480Y-67945650D01*
X182334480Y-66939400D01*
X182329802Y-66914536D01*
X182364400Y-66914536D01*
X182364400Y-67233150D01*
X182395650Y-67264400D01*
X182864400Y-67264400D01*
X182864400Y-66845650D01*
X183614400Y-66845650D01*
X183614400Y-67264400D01*
X184083150Y-67264400D01*
X184114400Y-67233150D01*
X184114400Y-66914536D01*
X184095370Y-66868593D01*
X184060207Y-66833430D01*
X184014264Y-66814400D01*
X183645650Y-66814400D01*
X183614400Y-66845650D01*
X182864400Y-66845650D01*
X182833150Y-66814400D01*
X182464536Y-66814400D01*
X182418593Y-66833430D01*
X182383430Y-66868593D01*
X182364400Y-66914536D01*
X182329802Y-66914536D01*
X182263008Y-66559558D01*
X182038521Y-66210696D01*
X181695995Y-65976658D01*
X181289400Y-65894320D01*
X179789400Y-65894320D01*
X179409558Y-65965792D01*
X179100913Y-66164400D01*
X178437238Y-66164400D01*
X178369168Y-65802638D01*
X178144681Y-65453776D01*
X177802155Y-65219738D01*
X177395560Y-65137400D01*
X175895560Y-65137400D01*
X175515718Y-65208872D01*
X175370560Y-65302279D01*
X175370560Y-65055760D01*
X175262088Y-64510436D01*
X174953187Y-64048133D01*
X172264427Y-61359373D01*
X171802124Y-61050472D01*
X171256800Y-60942000D01*
X169670877Y-60942000D01*
X169634410Y-60905469D01*
X169000629Y-60642300D01*
X168314382Y-60641701D01*
X167680142Y-60903763D01*
X167194469Y-61388590D01*
X166931300Y-62022371D01*
X166930701Y-62708618D01*
X167192763Y-63342858D01*
X167608200Y-63759020D01*
X162053164Y-63759020D01*
X162487531Y-63325410D01*
X162750700Y-62691629D01*
X162751299Y-62005382D01*
X162489237Y-61371142D01*
X162004410Y-60885469D01*
X161370629Y-60622300D01*
X160684382Y-60621701D01*
X160050142Y-60883763D01*
X159564469Y-61368590D01*
X159301300Y-62002371D01*
X159300850Y-62518196D01*
X157522427Y-60739773D01*
X157060124Y-60430872D01*
X156514800Y-60322400D01*
X150018454Y-60322400D01*
X149760334Y-60064280D01*
X150690000Y-60064280D01*
X151069842Y-59992808D01*
X151418704Y-59768321D01*
X151652742Y-59425795D01*
X151735080Y-59019200D01*
X151735080Y-57719200D01*
X151714273Y-57608618D01*
X159300701Y-57608618D01*
X159562763Y-58242858D01*
X160047590Y-58728531D01*
X160681371Y-58991700D01*
X161367618Y-58992299D01*
X162001858Y-58730237D01*
X162487531Y-58245410D01*
X162750700Y-57611629D01*
X162751299Y-56925382D01*
X162489237Y-56291142D01*
X162004410Y-55805469D01*
X161370629Y-55542300D01*
X160684382Y-55541701D01*
X160050142Y-55803763D01*
X159564469Y-56288590D01*
X159301300Y-56922371D01*
X159300701Y-57608618D01*
X151714273Y-57608618D01*
X151663608Y-57339358D01*
X151625155Y-57279600D01*
X151752235Y-57279600D01*
X152027005Y-57467342D01*
X152433600Y-57549680D01*
X153933600Y-57549680D01*
X154313442Y-57478208D01*
X154662304Y-57253721D01*
X154896342Y-56911195D01*
X154978680Y-56504600D01*
X154978680Y-56210850D01*
X155008600Y-56210850D01*
X155008600Y-56529464D01*
X155027630Y-56575407D01*
X155062793Y-56610570D01*
X155108736Y-56629600D01*
X155477350Y-56629600D01*
X155508600Y-56598350D01*
X155508600Y-56179600D01*
X156258600Y-56179600D01*
X156258600Y-56598350D01*
X156289850Y-56629600D01*
X156658464Y-56629600D01*
X156704407Y-56610570D01*
X156739570Y-56575407D01*
X156758600Y-56529464D01*
X156758600Y-56210850D01*
X156727350Y-56179600D01*
X156258600Y-56179600D01*
X155508600Y-56179600D01*
X155039850Y-56179600D01*
X155008600Y-56210850D01*
X154978680Y-56210850D01*
X154978680Y-55204600D01*
X154974002Y-55179736D01*
X155008600Y-55179736D01*
X155008600Y-55498350D01*
X155039850Y-55529600D01*
X155508600Y-55529600D01*
X155508600Y-55110850D01*
X156258600Y-55110850D01*
X156258600Y-55529600D01*
X156727350Y-55529600D01*
X156758600Y-55498350D01*
X156758600Y-55179736D01*
X156739570Y-55133793D01*
X156704407Y-55098630D01*
X156658464Y-55079600D01*
X156289850Y-55079600D01*
X156258600Y-55110850D01*
X155508600Y-55110850D01*
X155477350Y-55079600D01*
X155108736Y-55079600D01*
X155062793Y-55098630D01*
X155027630Y-55133793D01*
X155008600Y-55179736D01*
X154974002Y-55179736D01*
X154907208Y-54824758D01*
X154682721Y-54475896D01*
X154340195Y-54241858D01*
X153933600Y-54159520D01*
X152433600Y-54159520D01*
X152053758Y-54230992D01*
X151865991Y-54351817D01*
X151708630Y-54194456D01*
X151747795Y-54001050D01*
X172120600Y-54001050D01*
X172120600Y-54319664D01*
X172139630Y-54365607D01*
X172174793Y-54400770D01*
X172220736Y-54419800D01*
X172589350Y-54419800D01*
X172620600Y-54388550D01*
X172620600Y-53969800D01*
X173370600Y-53969800D01*
X173370600Y-54388550D01*
X173401850Y-54419800D01*
X173770464Y-54419800D01*
X173816407Y-54400770D01*
X173851570Y-54365607D01*
X173870600Y-54319664D01*
X173870600Y-54001050D01*
X173839350Y-53969800D01*
X173370600Y-53969800D01*
X172620600Y-53969800D01*
X172151850Y-53969800D01*
X172120600Y-54001050D01*
X151747795Y-54001050D01*
X151773180Y-53875700D01*
X151773180Y-52969936D01*
X172120600Y-52969936D01*
X172120600Y-53288550D01*
X172151850Y-53319800D01*
X172620600Y-53319800D01*
X172620600Y-52901050D01*
X173370600Y-52901050D01*
X173370600Y-53319800D01*
X173839350Y-53319800D01*
X173870600Y-53288550D01*
X173870600Y-52969936D01*
X173851570Y-52923993D01*
X173816407Y-52888830D01*
X173770464Y-52869800D01*
X173401850Y-52869800D01*
X173370600Y-52901050D01*
X172620600Y-52901050D01*
X172589350Y-52869800D01*
X172220736Y-52869800D01*
X172174793Y-52888830D01*
X172139630Y-52923993D01*
X172120600Y-52969936D01*
X151773180Y-52969936D01*
X151773180Y-52575700D01*
X151701708Y-52195858D01*
X151477221Y-51846996D01*
X151134695Y-51612958D01*
X150728100Y-51530620D01*
X149228100Y-51530620D01*
X148848258Y-51602092D01*
X148499396Y-51826579D01*
X148265358Y-52169105D01*
X148183020Y-52575700D01*
X148183020Y-53875700D01*
X148254492Y-54255542D01*
X148478979Y-54604404D01*
X148515000Y-54629016D01*
X148515000Y-56837361D01*
X148396595Y-56756458D01*
X147990000Y-56674120D01*
X147560174Y-56674120D01*
X147331487Y-56445433D01*
X146869184Y-56136532D01*
X146323860Y-56028060D01*
X143714697Y-56028060D01*
X143678230Y-55991529D01*
X143044449Y-55728360D01*
X142358202Y-55727761D01*
X141723962Y-55989823D01*
X141238289Y-56474650D01*
X140975120Y-57108431D01*
X140974521Y-57794678D01*
X141236583Y-58428918D01*
X141721410Y-58914591D01*
X142355191Y-59177760D01*
X143041438Y-59178359D01*
X143675678Y-58916297D01*
X143713982Y-58878060D01*
X145444920Y-58878060D01*
X145444920Y-59019200D01*
X145516392Y-59399042D01*
X145740879Y-59747904D01*
X145870098Y-59836196D01*
X145923472Y-60104524D01*
X146232373Y-60566827D01*
X148420573Y-62755027D01*
X148882876Y-63063928D01*
X149428200Y-63172400D01*
X149526625Y-63172400D01*
X149454377Y-63186771D01*
X148992073Y-63495672D01*
X148430620Y-64057126D01*
X145908927Y-61535433D01*
X145446624Y-61226532D01*
X144901300Y-61118060D01*
X143714697Y-61118060D01*
X143678230Y-61081529D01*
X143044449Y-60818360D01*
X142358202Y-60817761D01*
X141723962Y-61079823D01*
X141238289Y-61564650D01*
X140975120Y-62198431D01*
X140974521Y-62884678D01*
X141236583Y-63518918D01*
X141721410Y-64004591D01*
X142355191Y-64267760D01*
X143041438Y-64268359D01*
X143675678Y-64006297D01*
X143713982Y-63968060D01*
X144311046Y-63968060D01*
X146948600Y-66605614D01*
X146948600Y-67035440D01*
X147020072Y-67415282D01*
X147244559Y-67764144D01*
X147587085Y-67998182D01*
X147993680Y-68080520D01*
X149493680Y-68080520D01*
X149873522Y-68009048D01*
X150018680Y-67915641D01*
X150018680Y-70294030D01*
X149898578Y-70469805D01*
X149816240Y-70876400D01*
X149816240Y-72176400D01*
X149887712Y-72556242D01*
X150112199Y-72905104D01*
X150186320Y-72955749D01*
X150186320Y-75159664D01*
X149954458Y-75499005D01*
X149872120Y-75905600D01*
X149872120Y-77205600D01*
X149943592Y-77585442D01*
X150168079Y-77934304D01*
X150510605Y-78168342D01*
X150917200Y-78250680D01*
X152417200Y-78250680D01*
X152797042Y-78179208D01*
X153145904Y-77954721D01*
X153379942Y-77612195D01*
X153462280Y-77205600D01*
X153462280Y-75905600D01*
X153390808Y-75525758D01*
X153166321Y-75176896D01*
X153036320Y-75088070D01*
X153036320Y-72960079D01*
X153090024Y-72925521D01*
X153324062Y-72582995D01*
X153406400Y-72176400D01*
X153406400Y-70876400D01*
X153334928Y-70496558D01*
X153110441Y-70147696D01*
X152868680Y-69982508D01*
X152868680Y-67819119D01*
X152922384Y-67784561D01*
X153156422Y-67442035D01*
X153238760Y-67035440D01*
X153238760Y-66061914D01*
X159324793Y-72147947D01*
X159787096Y-72456848D01*
X160332420Y-72565320D01*
X167613626Y-72565320D01*
X168360226Y-73311920D01*
X167956000Y-73311920D01*
X167576158Y-73383392D01*
X167372846Y-73514220D01*
X165997600Y-73514220D01*
X165847182Y-73544140D01*
X165597600Y-73544140D01*
X165217758Y-73615612D01*
X164945086Y-73791072D01*
X164704195Y-73626478D01*
X164297600Y-73544140D01*
X164048018Y-73544140D01*
X163897600Y-73514220D01*
X163808214Y-73532000D01*
X161861560Y-73532000D01*
X161380629Y-73332300D01*
X160694382Y-73331701D01*
X160060142Y-73593763D01*
X159574469Y-74078590D01*
X159311300Y-74712371D01*
X159310701Y-75398618D01*
X159572763Y-76032858D01*
X159611000Y-76071162D01*
X159611000Y-77013560D01*
X159719472Y-77558884D01*
X160028373Y-78021187D01*
X160845593Y-78838408D01*
X160889212Y-79070222D01*
X161113699Y-79419084D01*
X161456225Y-79653122D01*
X161539470Y-79669980D01*
X161512820Y-79696630D01*
X161512820Y-80015380D01*
X161712820Y-80015380D01*
X161712820Y-80465380D01*
X161512820Y-80465380D01*
X161512820Y-80784130D01*
X161544070Y-80815380D01*
X161737684Y-80815380D01*
X161783627Y-80796350D01*
X161787038Y-80792939D01*
X161839212Y-81070222D01*
X162063699Y-81419084D01*
X162406225Y-81653122D01*
X162812820Y-81735460D01*
X163612820Y-81735460D01*
X163985264Y-81665380D01*
X167863020Y-81665380D01*
X168408344Y-81556908D01*
X168452685Y-81527280D01*
X169021200Y-81527280D01*
X169401042Y-81455808D01*
X169622214Y-81313487D01*
X169814605Y-81444942D01*
X170221200Y-81527280D01*
X171721200Y-81527280D01*
X172044376Y-81466470D01*
X183332080Y-92754174D01*
X183332080Y-92766013D01*
X182915477Y-92487648D01*
X182217080Y-92348728D01*
X181518683Y-92487648D01*
X180947080Y-92869580D01*
X180375477Y-92487648D01*
X179677080Y-92348728D01*
X178978683Y-92487648D01*
X178407080Y-92869580D01*
X177835477Y-92487648D01*
X177137080Y-92348728D01*
X176438683Y-92487648D01*
X175867080Y-92869580D01*
X175295477Y-92487648D01*
X174597080Y-92348728D01*
X173898683Y-92487648D01*
X173327080Y-92869580D01*
X172755477Y-92487648D01*
X172057080Y-92348728D01*
X171358683Y-92487648D01*
X170877435Y-92809207D01*
X170833608Y-92588876D01*
X170524707Y-92126573D01*
X167090607Y-88692473D01*
X166628304Y-88383572D01*
X166082980Y-88275100D01*
X155098454Y-88275100D01*
X147319984Y-80496630D01*
X160787820Y-80496630D01*
X160787820Y-80715244D01*
X160806850Y-80761187D01*
X160842013Y-80796350D01*
X160887956Y-80815380D01*
X161081570Y-80815380D01*
X161112820Y-80784130D01*
X161112820Y-80465380D01*
X160819070Y-80465380D01*
X160787820Y-80496630D01*
X147319984Y-80496630D01*
X146588870Y-79765516D01*
X160787820Y-79765516D01*
X160787820Y-79984130D01*
X160819070Y-80015380D01*
X161112820Y-80015380D01*
X161112820Y-79696630D01*
X161081570Y-79665380D01*
X160887956Y-79665380D01*
X160842013Y-79684410D01*
X160806850Y-79719573D01*
X160787820Y-79765516D01*
X146588870Y-79765516D01*
X146281700Y-79458346D01*
X146281700Y-79230460D01*
X146210228Y-78850618D01*
X145985741Y-78501756D01*
X145643215Y-78267718D01*
X145236620Y-78185380D01*
X143736620Y-78185380D01*
X143356778Y-78256852D01*
X143135606Y-78399173D01*
X142943215Y-78267718D01*
X142536620Y-78185380D01*
X141036620Y-78185380D01*
X140656778Y-78256852D01*
X140307916Y-78481339D01*
X140073878Y-78823865D01*
X139997927Y-79198920D01*
X137728304Y-79198920D01*
X137462891Y-79145172D01*
X137477320Y-79073920D01*
X137477320Y-78173920D01*
X137405848Y-77794078D01*
X137181361Y-77445216D01*
X136838835Y-77211178D01*
X136582930Y-77159356D01*
X136504820Y-77081246D01*
X136504820Y-76658060D01*
X136955788Y-76658060D01*
X137040765Y-76716122D01*
X137447360Y-76798460D01*
X138247360Y-76798460D01*
X138627202Y-76726988D01*
X138899874Y-76551528D01*
X139140765Y-76716122D01*
X139547360Y-76798460D01*
X140347360Y-76798460D01*
X140719804Y-76728380D01*
X141348195Y-76728380D01*
X141593225Y-76895802D01*
X141999820Y-76978140D01*
X143399820Y-76978140D01*
X143752121Y-76911850D01*
X148092200Y-76911850D01*
X148092200Y-77230464D01*
X148111230Y-77276407D01*
X148146393Y-77311570D01*
X148192336Y-77330600D01*
X148560950Y-77330600D01*
X148592200Y-77299350D01*
X148592200Y-76880600D01*
X149342200Y-76880600D01*
X149342200Y-77299350D01*
X149373450Y-77330600D01*
X149742064Y-77330600D01*
X149788007Y-77311570D01*
X149823170Y-77276407D01*
X149842200Y-77230464D01*
X149842200Y-76911850D01*
X149810950Y-76880600D01*
X149342200Y-76880600D01*
X148592200Y-76880600D01*
X148123450Y-76880600D01*
X148092200Y-76911850D01*
X143752121Y-76911850D01*
X143779662Y-76906668D01*
X144128524Y-76682181D01*
X144362562Y-76339655D01*
X144444900Y-75933060D01*
X144444900Y-75880736D01*
X148092200Y-75880736D01*
X148092200Y-76199350D01*
X148123450Y-76230600D01*
X148592200Y-76230600D01*
X148592200Y-75811850D01*
X149342200Y-75811850D01*
X149342200Y-76230600D01*
X149810950Y-76230600D01*
X149842200Y-76199350D01*
X149842200Y-75880736D01*
X149823170Y-75834793D01*
X149788007Y-75799630D01*
X149742064Y-75780600D01*
X149373450Y-75780600D01*
X149342200Y-75811850D01*
X148592200Y-75811850D01*
X148560950Y-75780600D01*
X148192336Y-75780600D01*
X148146393Y-75799630D01*
X148111230Y-75834793D01*
X148092200Y-75880736D01*
X144444900Y-75880736D01*
X144444900Y-74533060D01*
X144373428Y-74153218D01*
X144148941Y-73804356D01*
X143806415Y-73570318D01*
X143399820Y-73487980D01*
X141999820Y-73487980D01*
X141619978Y-73559452D01*
X141271116Y-73783939D01*
X141206587Y-73878380D01*
X140693424Y-73878380D01*
X140347360Y-73808300D01*
X139547360Y-73808300D01*
X139167518Y-73879772D01*
X138894846Y-74055232D01*
X138653955Y-73890638D01*
X138247360Y-73808300D01*
X137778247Y-73808300D01*
X137777040Y-73808060D01*
X136094697Y-73808060D01*
X136058230Y-73771529D01*
X135424449Y-73508360D01*
X134738202Y-73507761D01*
X134103962Y-73769823D01*
X133618289Y-74254650D01*
X133355120Y-74888431D01*
X133354521Y-75574678D01*
X133616583Y-76208918D01*
X133654820Y-76247222D01*
X133654820Y-77671500D01*
X133763292Y-78216824D01*
X134072193Y-78679127D01*
X134615013Y-79221947D01*
X134658632Y-79453762D01*
X134883119Y-79802624D01*
X135225645Y-80036662D01*
X135308890Y-80053520D01*
X135282240Y-80080170D01*
X135282240Y-80398920D01*
X135482240Y-80398920D01*
X135482240Y-80848920D01*
X135282240Y-80848920D01*
X135282240Y-81167670D01*
X135313490Y-81198920D01*
X135507104Y-81198920D01*
X135553047Y-81179890D01*
X135556458Y-81176479D01*
X135608632Y-81453762D01*
X135833119Y-81802624D01*
X136175645Y-82036662D01*
X136582240Y-82119000D01*
X137382240Y-82119000D01*
X137754684Y-82048920D01*
X141043160Y-82048920D01*
X141588484Y-81940448D01*
X142050787Y-81631547D01*
X142106794Y-81575540D01*
X142536620Y-81575540D01*
X142916462Y-81504068D01*
X143137634Y-81361747D01*
X143330025Y-81493202D01*
X143736620Y-81575540D01*
X144368386Y-81575540D01*
X153500573Y-90707727D01*
X153962876Y-91016628D01*
X154508200Y-91125100D01*
X165492726Y-91125100D01*
X166759611Y-92391985D01*
X166278683Y-92487648D01*
X165707080Y-92869580D01*
X165135477Y-92487648D01*
X164437080Y-92348728D01*
X163738683Y-92487648D01*
X163167080Y-92869580D01*
X162595477Y-92487648D01*
X161897080Y-92348728D01*
X161198683Y-92487648D01*
X160627080Y-92869580D01*
X160055477Y-92487648D01*
X159357080Y-92348728D01*
X158658683Y-92487648D01*
X158066610Y-92883258D01*
X157671000Y-93475331D01*
X157606808Y-93798046D01*
X157399421Y-93534013D01*
X157342628Y-93452201D01*
X157217080Y-93414157D01*
X157217080Y-93938400D01*
X157312080Y-93938400D01*
X157312080Y-94888400D01*
X157217080Y-94888400D01*
X157217080Y-94908400D01*
X156417080Y-94908400D01*
X156417080Y-94888400D01*
X156322080Y-94888400D01*
X156322080Y-93938400D01*
X156417080Y-93938400D01*
X156417080Y-93414157D01*
X156291532Y-93452201D01*
X156234739Y-93534013D01*
X156027352Y-93798046D01*
X155963160Y-93475331D01*
X155567550Y-92883258D01*
X154975477Y-92487648D01*
X154277080Y-92348728D01*
X153578683Y-92487648D01*
X153007080Y-92869580D01*
X152435477Y-92487648D01*
X151737080Y-92348728D01*
X151038683Y-92487648D01*
X150467080Y-92869580D01*
X149895477Y-92487648D01*
X149197080Y-92348728D01*
X148498683Y-92487648D01*
X147927080Y-92869580D01*
X147355477Y-92487648D01*
X146657080Y-92348728D01*
X145958683Y-92487648D01*
X145366610Y-92883258D01*
X144971000Y-93475331D01*
X144906808Y-93798046D01*
X144699421Y-93534013D01*
X144642628Y-93452201D01*
X144517080Y-93414157D01*
X144517080Y-93938400D01*
X144612080Y-93938400D01*
X144612080Y-94888400D01*
X144517080Y-94888400D01*
X144517080Y-95412643D01*
X144642628Y-95374599D01*
X144699421Y-95292787D01*
X144906808Y-95028754D01*
X144971000Y-95351469D01*
X145259607Y-95783400D01*
X144971000Y-96215331D01*
X144906808Y-96538046D01*
X144699421Y-96274013D01*
X144642628Y-96192201D01*
X144517080Y-96154157D01*
X144517080Y-96678400D01*
X144612080Y-96678400D01*
X144612080Y-97628400D01*
X144517080Y-97628400D01*
X144517080Y-97648400D01*
X143717080Y-97648400D01*
X143717080Y-97628400D01*
X143296824Y-97628400D01*
X143319077Y-97758219D01*
X143534739Y-98032787D01*
X143591532Y-98114599D01*
X143642078Y-98129916D01*
X143642078Y-98131900D01*
X142052082Y-98131900D01*
X142052082Y-98129916D01*
X142102628Y-98114599D01*
X142159421Y-98032787D01*
X142375083Y-97758219D01*
X142397336Y-97628400D01*
X141977080Y-97628400D01*
X141977080Y-97648400D01*
X141177080Y-97648400D01*
X141177080Y-97628400D01*
X140756824Y-97628400D01*
X140779077Y-97758219D01*
X140994739Y-98032787D01*
X141051532Y-98114599D01*
X141102078Y-98129916D01*
X141102078Y-98131900D01*
X136817100Y-98131900D01*
X136233508Y-98247984D01*
X135738762Y-98578562D01*
X131301382Y-103015942D01*
X130970804Y-103510688D01*
X130854720Y-104094280D01*
X130854720Y-114489470D01*
X130766978Y-114617885D01*
X130684640Y-115024480D01*
X130684640Y-116524480D01*
X130756112Y-116904322D01*
X130898433Y-117125494D01*
X130766978Y-117317885D01*
X130684640Y-117724480D01*
X130684640Y-119224480D01*
X130756112Y-119604322D01*
X130980599Y-119953184D01*
X131323125Y-120187222D01*
X131729720Y-120269560D01*
X133029720Y-120269560D01*
X133409562Y-120198088D01*
X133758424Y-119973601D01*
X133809069Y-119899480D01*
X133960880Y-119899480D01*
X134506204Y-119791008D01*
X134968507Y-119482107D01*
X136385687Y-118064927D01*
X136403780Y-118161084D01*
X136403780Y-119888806D01*
X136338152Y-119954434D01*
X136071622Y-119954201D01*
X135437382Y-120216263D01*
X134951709Y-120701090D01*
X134688540Y-121334871D01*
X134687941Y-122021118D01*
X134950003Y-122655358D01*
X135434830Y-123141031D01*
X136068611Y-123404200D01*
X136754858Y-123404799D01*
X137389098Y-123142737D01*
X137427402Y-123104500D01*
X138171337Y-123104500D01*
X138211705Y-123132082D01*
X138618300Y-123214420D01*
X139418300Y-123214420D01*
X139798142Y-123142948D01*
X140070814Y-122967488D01*
X140311705Y-123132082D01*
X140718300Y-123214420D01*
X141518300Y-123214420D01*
X141890744Y-123144340D01*
X142637006Y-123144340D01*
X142926645Y-123342242D01*
X143333240Y-123424580D01*
X144733240Y-123424580D01*
X145113082Y-123353108D01*
X145461944Y-123128621D01*
X145695982Y-122786095D01*
X145778320Y-122379500D01*
X145778320Y-120979500D01*
X145706848Y-120599658D01*
X145482361Y-120250796D01*
X145139835Y-120016758D01*
X144733240Y-119934420D01*
X143333240Y-119934420D01*
X142953398Y-120005892D01*
X142604536Y-120230379D01*
X142560833Y-120294340D01*
X141864364Y-120294340D01*
X141518300Y-120224260D01*
X140718300Y-120224260D01*
X140338458Y-120295732D01*
X140065786Y-120471192D01*
X139824895Y-120306598D01*
X139418300Y-120224260D01*
X139253780Y-120224260D01*
X139253780Y-118763504D01*
X139272810Y-118809447D01*
X139307973Y-118844610D01*
X139353916Y-118863640D01*
X139572530Y-118863640D01*
X139603780Y-118832390D01*
X139603780Y-118538640D01*
X140053780Y-118538640D01*
X140053780Y-118832390D01*
X140085030Y-118863640D01*
X140303644Y-118863640D01*
X140349587Y-118844610D01*
X140384750Y-118809447D01*
X140403780Y-118763504D01*
X140403780Y-118569890D01*
X140372530Y-118538640D01*
X140053780Y-118538640D01*
X139603780Y-118538640D01*
X139285030Y-118538640D01*
X139253780Y-118569890D01*
X139253780Y-118134704D01*
X139258380Y-118111990D01*
X139285030Y-118138640D01*
X139603780Y-118138640D01*
X139603780Y-117938640D01*
X140053780Y-117938640D01*
X140053780Y-118138640D01*
X140372530Y-118138640D01*
X140403780Y-118107390D01*
X140403780Y-117913776D01*
X140384750Y-117867833D01*
X140381339Y-117864422D01*
X140658622Y-117812248D01*
X141007484Y-117587761D01*
X141241522Y-117245235D01*
X141323860Y-116838640D01*
X141323860Y-116038640D01*
X141252388Y-115658798D01*
X141027901Y-115309936D01*
X140685375Y-115075898D01*
X140429470Y-115024076D01*
X140262407Y-114857013D01*
X139800104Y-114548112D01*
X139254780Y-114439640D01*
X138123195Y-114439640D01*
X138137940Y-114404129D01*
X138137942Y-114401118D01*
X142307941Y-114401118D01*
X142570003Y-115035358D01*
X143054830Y-115521031D01*
X143244532Y-115599802D01*
X143449648Y-115736856D01*
X144033240Y-115852940D01*
X144616832Y-115736856D01*
X144820915Y-115600493D01*
X145009098Y-115522737D01*
X145494771Y-115037910D01*
X145757940Y-114404129D01*
X145758539Y-113717882D01*
X145496477Y-113083642D01*
X145011650Y-112597969D01*
X144377869Y-112334800D01*
X143691622Y-112334201D01*
X143057382Y-112596263D01*
X142571709Y-113081090D01*
X142308540Y-113714871D01*
X142307941Y-114401118D01*
X138137942Y-114401118D01*
X138138539Y-113717882D01*
X137876477Y-113083642D01*
X137391650Y-112597969D01*
X136757869Y-112334800D01*
X136071622Y-112334201D01*
X135437382Y-112596263D01*
X134951709Y-113081090D01*
X134688540Y-113714871D01*
X134687941Y-114401118D01*
X134950003Y-115035358D01*
X135167186Y-115252920D01*
X134074800Y-116345306D01*
X134074800Y-115024480D01*
X134003328Y-114644638D01*
X133904720Y-114491397D01*
X133904720Y-109311118D01*
X134677941Y-109311118D01*
X134940003Y-109945358D01*
X135424830Y-110431031D01*
X136058611Y-110694200D01*
X136744858Y-110694799D01*
X137379098Y-110432737D01*
X137864771Y-109947910D01*
X138127940Y-109314129D01*
X138128539Y-108627882D01*
X137866477Y-107993642D01*
X137381650Y-107507969D01*
X136747869Y-107244800D01*
X136061622Y-107244201D01*
X135427382Y-107506263D01*
X134941709Y-107991090D01*
X134678540Y-108624871D01*
X134677941Y-109311118D01*
X133904720Y-109311118D01*
X133904720Y-104725956D01*
X134678184Y-103952492D01*
X134677941Y-104231118D01*
X134940003Y-104865358D01*
X135424830Y-105351031D01*
X136058611Y-105614200D01*
X136744858Y-105614799D01*
X137379098Y-105352737D01*
X137864771Y-104867910D01*
X138127940Y-104234129D01*
X138128539Y-103547882D01*
X137866477Y-102913642D01*
X137381650Y-102427969D01*
X136747869Y-102164800D01*
X136466122Y-102164554D01*
X137448776Y-101181900D01*
X164352024Y-101181900D01*
X163125042Y-102408882D01*
X162794464Y-102903628D01*
X162678380Y-103487220D01*
X162678380Y-107364770D01*
X162590638Y-107493185D01*
X162508300Y-107899780D01*
X162508300Y-109399780D01*
X162579772Y-109779622D01*
X162722093Y-110000794D01*
X162590638Y-110193185D01*
X162508300Y-110599780D01*
X162508300Y-112099780D01*
X162579772Y-112479622D01*
X162804259Y-112828484D01*
X163146785Y-113062522D01*
X163553380Y-113144860D01*
X164853380Y-113144860D01*
X165233222Y-113073388D01*
X165541867Y-112874780D01*
X166357434Y-112874780D01*
X166038809Y-113192850D01*
X165775640Y-113826631D01*
X165775041Y-114512878D01*
X166037103Y-115147118D01*
X166521930Y-115632791D01*
X167155711Y-115895960D01*
X167841958Y-115896559D01*
X168476198Y-115634497D01*
X168596540Y-115514365D01*
X168596540Y-115598700D01*
X168676460Y-116000484D01*
X168676460Y-116048700D01*
X168747932Y-116428542D01*
X168972419Y-116777404D01*
X169314945Y-117011442D01*
X169470601Y-117042963D01*
X166422002Y-120091562D01*
X166091424Y-120586308D01*
X166048233Y-120803442D01*
X166038809Y-120812850D01*
X165775640Y-121446631D01*
X165775041Y-122132878D01*
X166037103Y-122767118D01*
X166521930Y-123252791D01*
X167155711Y-123515960D01*
X167841958Y-123516559D01*
X168476198Y-123254497D01*
X168514502Y-123216260D01*
X169334346Y-123216260D01*
X169415605Y-123271782D01*
X169822200Y-123354120D01*
X170622200Y-123354120D01*
X171002042Y-123282648D01*
X171274714Y-123107188D01*
X171515605Y-123271782D01*
X171922200Y-123354120D01*
X172722200Y-123354120D01*
X173094644Y-123284040D01*
X173764997Y-123284040D01*
X174013745Y-123454002D01*
X174420340Y-123536340D01*
X175820340Y-123536340D01*
X176200182Y-123464868D01*
X176549044Y-123240381D01*
X176783082Y-122897855D01*
X176865420Y-122491260D01*
X176865420Y-121091260D01*
X176793948Y-120711418D01*
X176569461Y-120362556D01*
X176226935Y-120128518D01*
X175820340Y-120046180D01*
X174420340Y-120046180D01*
X174040498Y-120117652D01*
X173691636Y-120342139D01*
X173628843Y-120434040D01*
X173068264Y-120434040D01*
X172722200Y-120363960D01*
X171922200Y-120363960D01*
X171542358Y-120435432D01*
X171269686Y-120610892D01*
X171028795Y-120446298D01*
X170622200Y-120363960D01*
X170462956Y-120363960D01*
X171793767Y-119033149D01*
X171851382Y-119022308D01*
X172200244Y-118797821D01*
X172434282Y-118455295D01*
X172516620Y-118048700D01*
X172516620Y-118000485D01*
X172596540Y-117598700D01*
X172516620Y-117196916D01*
X172516620Y-117148700D01*
X172445148Y-116768858D01*
X172220661Y-116419996D01*
X171878135Y-116185958D01*
X171794890Y-116169100D01*
X171821540Y-116142450D01*
X171821540Y-115823700D01*
X172221540Y-115823700D01*
X172221540Y-116142450D01*
X172252790Y-116173700D01*
X172446404Y-116173700D01*
X172492347Y-116154670D01*
X172527510Y-116119507D01*
X172546540Y-116073564D01*
X172546540Y-115854950D01*
X172515290Y-115823700D01*
X172221540Y-115823700D01*
X171821540Y-115823700D01*
X171621540Y-115823700D01*
X171621540Y-115724384D01*
X171646540Y-115598700D01*
X171646540Y-115373700D01*
X171821540Y-115373700D01*
X171821540Y-115054950D01*
X172221540Y-115054950D01*
X172221540Y-115373700D01*
X172515290Y-115373700D01*
X172546540Y-115342450D01*
X172546540Y-115123836D01*
X172527510Y-115077893D01*
X172492347Y-115042730D01*
X172446404Y-115023700D01*
X172252790Y-115023700D01*
X172221540Y-115054950D01*
X171821540Y-115054950D01*
X171790290Y-115023700D01*
X171646540Y-115023700D01*
X171646540Y-114512878D01*
X173395041Y-114512878D01*
X173657103Y-115147118D01*
X174141930Y-115632791D01*
X174775711Y-115895960D01*
X175461958Y-115896559D01*
X176096198Y-115634497D01*
X176581871Y-115149670D01*
X176845040Y-114515889D01*
X176845639Y-113829642D01*
X176583577Y-113195402D01*
X176098750Y-112709729D01*
X175464969Y-112446560D01*
X174778722Y-112445961D01*
X174144482Y-112708023D01*
X173658809Y-113192850D01*
X173395640Y-113826631D01*
X173395041Y-114512878D01*
X171646540Y-114512878D01*
X171646540Y-113179820D01*
X171530456Y-112596228D01*
X171199878Y-112101482D01*
X169369838Y-110271442D01*
X168973813Y-110006827D01*
X169215040Y-109425889D01*
X169215639Y-108739642D01*
X168953577Y-108105402D01*
X168468750Y-107619729D01*
X167834969Y-107356560D01*
X167148722Y-107355961D01*
X166514482Y-107618023D01*
X166028809Y-108102850D01*
X165898460Y-108416765D01*
X165898460Y-107899780D01*
X165826988Y-107519938D01*
X165728380Y-107366697D01*
X165728380Y-104118896D01*
X165765269Y-104082007D01*
X165765041Y-104342878D01*
X166027103Y-104977118D01*
X166511930Y-105462791D01*
X167145711Y-105725960D01*
X167831958Y-105726559D01*
X168466198Y-105464497D01*
X168951871Y-104979670D01*
X169215040Y-104345889D01*
X169215639Y-103659642D01*
X169015720Y-103175800D01*
X170916600Y-103175800D01*
X171500192Y-103059716D01*
X171994938Y-102729138D01*
X173135418Y-101588658D01*
X173465996Y-101093912D01*
X173582080Y-100510320D01*
X173582080Y-98867605D01*
X173898683Y-99079152D01*
X174597080Y-99218072D01*
X175295477Y-99079152D01*
X175867080Y-98697220D01*
X176438683Y-99079152D01*
X177137080Y-99218072D01*
X177835477Y-99079152D01*
X178407080Y-98697220D01*
X178978683Y-99079152D01*
X179677080Y-99218072D01*
X180375477Y-99079152D01*
X180947080Y-98697220D01*
X181518683Y-99079152D01*
X182217080Y-99218072D01*
X182915477Y-99079152D01*
X183487080Y-98697220D01*
X184058683Y-99079152D01*
X184757080Y-99218072D01*
X185455477Y-99079152D01*
X186027080Y-98697220D01*
X186598683Y-99079152D01*
X187297080Y-99218072D01*
X187995477Y-99079152D01*
X188567080Y-98697220D01*
X189138683Y-99079152D01*
X189837080Y-99218072D01*
X190535477Y-99079152D01*
X191107080Y-98697220D01*
X191678683Y-99079152D01*
X192377080Y-99218072D01*
X193075477Y-99079152D01*
X193647080Y-98697220D01*
X194218683Y-99079152D01*
X194917080Y-99218072D01*
X195615477Y-99079152D01*
X196207550Y-98683542D01*
X196603160Y-98091469D01*
X196626151Y-97975888D01*
X196632216Y-97978400D01*
X197025830Y-97978400D01*
X197057080Y-97947150D01*
X197057080Y-97453400D01*
X197857080Y-97453400D01*
X197857080Y-97947150D01*
X197888330Y-97978400D01*
X198281944Y-97978400D01*
X198327887Y-97959370D01*
X198363050Y-97924207D01*
X198382080Y-97878264D01*
X198382080Y-97484650D01*
X198350830Y-97453400D01*
X197857080Y-97453400D01*
X197057080Y-97453400D01*
X196962080Y-97453400D01*
X196962080Y-96653400D01*
X197057080Y-96653400D01*
X197057080Y-96159650D01*
X197857080Y-96159650D01*
X197857080Y-96653400D01*
X198350830Y-96653400D01*
X198382080Y-96622150D01*
X198382080Y-96228536D01*
X198363050Y-96182593D01*
X198327887Y-96147430D01*
X198281944Y-96128400D01*
X197888330Y-96128400D01*
X197857080Y-96159650D01*
X197057080Y-96159650D01*
X197025830Y-96128400D01*
X196632216Y-96128400D01*
X196586273Y-96147430D01*
X196569199Y-96164504D01*
X196314553Y-95783400D01*
X196603160Y-95351469D01*
X196667352Y-95028754D01*
X196874739Y-95292787D01*
X196931532Y-95374599D01*
X197057080Y-95412643D01*
X197057080Y-94888400D01*
X197857080Y-94888400D01*
X197857080Y-95412643D01*
X197982628Y-95374599D01*
X198039421Y-95292787D01*
X198255083Y-95018219D01*
X198277336Y-94888400D01*
X197857080Y-94888400D01*
X197057080Y-94888400D01*
X196962080Y-94888400D01*
X196962080Y-93938400D01*
X197057080Y-93938400D01*
X197857080Y-93938400D01*
X198277336Y-93938400D01*
X198255083Y-93808581D01*
X198039421Y-93534013D01*
X197982628Y-93452201D01*
X197857080Y-93414157D01*
X197857080Y-93938400D01*
X197057080Y-93938400D01*
X197057080Y-93414157D01*
X196931532Y-93452201D01*
X196874739Y-93534013D01*
X196667352Y-93798046D01*
X196603160Y-93475331D01*
X196399011Y-93169800D01*
X200468694Y-93169800D01*
X199731788Y-93905421D01*
X199226656Y-95121912D01*
X199225507Y-96439109D01*
X199728514Y-97656480D01*
X200659101Y-98588692D01*
X201875592Y-99093824D01*
X203192789Y-99094973D01*
X204410160Y-98591966D01*
X205342372Y-97661379D01*
X205541727Y-97181281D01*
X207338073Y-98977627D01*
X207800376Y-99286528D01*
X208307164Y-99387335D01*
X208181759Y-99689345D01*
X208181202Y-100327854D01*
X208361480Y-100764160D01*
X208361480Y-101239580D01*
X208469952Y-101784904D01*
X208778853Y-102247207D01*
X210039813Y-103508167D01*
X210023872Y-103518819D01*
X209606585Y-104143334D01*
X209460053Y-104880000D01*
X209606585Y-105616666D01*
X210023872Y-106241181D01*
X210037071Y-106250000D01*
X210023872Y-106258819D01*
X209606585Y-106883334D01*
X209460053Y-107620000D01*
X209606585Y-108356666D01*
X210023872Y-108981181D01*
X210080671Y-109019133D01*
X209070636Y-110029168D01*
X208878508Y-110108554D01*
X208426620Y-110559653D01*
X208224497Y-111046421D01*
X207341200Y-110163124D01*
X207341200Y-107137200D01*
X207225116Y-106553608D01*
X206894538Y-106058862D01*
X200874738Y-100039062D01*
X200379992Y-99708484D01*
X199796400Y-99592400D01*
X185889900Y-99592400D01*
X185306308Y-99708484D01*
X184811562Y-100039062D01*
X182364364Y-102486260D01*
X175945900Y-102486260D01*
X175464969Y-102286560D01*
X174778722Y-102285961D01*
X174144482Y-102548023D01*
X173658809Y-103032850D01*
X173395640Y-103666631D01*
X173395041Y-104352878D01*
X173657103Y-104987118D01*
X174141930Y-105472791D01*
X174775711Y-105735960D01*
X175461958Y-105736559D01*
X175840254Y-105580250D01*
X177741020Y-107481016D01*
X177741020Y-107769420D01*
X177812492Y-108149262D01*
X178036979Y-108498124D01*
X178379505Y-108732162D01*
X178786100Y-108814500D01*
X180286100Y-108814500D01*
X180665942Y-108743028D01*
X180887114Y-108600707D01*
X181079505Y-108732162D01*
X181486100Y-108814500D01*
X182986100Y-108814500D01*
X183365942Y-108743028D01*
X183519183Y-108644420D01*
X184400200Y-108644420D01*
X184983792Y-108528336D01*
X185337967Y-108291684D01*
X185294980Y-108503960D01*
X185294980Y-109803960D01*
X185366452Y-110183802D01*
X185590939Y-110532664D01*
X185933465Y-110766702D01*
X186340060Y-110849040D01*
X187840060Y-110849040D01*
X188219902Y-110777568D01*
X188568764Y-110553081D01*
X188802802Y-110210555D01*
X188885140Y-109803960D01*
X188885140Y-109510210D01*
X188915060Y-109510210D01*
X188915060Y-109828824D01*
X188934090Y-109874767D01*
X188969253Y-109909930D01*
X189015196Y-109928960D01*
X189383810Y-109928960D01*
X189415060Y-109897710D01*
X189415060Y-109478960D01*
X190165060Y-109478960D01*
X190165060Y-109897710D01*
X190196310Y-109928960D01*
X190564924Y-109928960D01*
X190610867Y-109909930D01*
X190646030Y-109874767D01*
X190665060Y-109828824D01*
X190665060Y-109510210D01*
X190633810Y-109478960D01*
X190165060Y-109478960D01*
X189415060Y-109478960D01*
X188946310Y-109478960D01*
X188915060Y-109510210D01*
X188885140Y-109510210D01*
X188885140Y-108503960D01*
X188880462Y-108479096D01*
X188915060Y-108479096D01*
X188915060Y-108797710D01*
X188946310Y-108828960D01*
X189415060Y-108828960D01*
X189415060Y-108410210D01*
X190165060Y-108410210D01*
X190165060Y-108828960D01*
X190633810Y-108828960D01*
X190665060Y-108797710D01*
X190665060Y-108479096D01*
X190646030Y-108433153D01*
X190610867Y-108397990D01*
X190564924Y-108378960D01*
X190196310Y-108378960D01*
X190165060Y-108410210D01*
X189415060Y-108410210D01*
X189383810Y-108378960D01*
X189015196Y-108378960D01*
X188969253Y-108397990D01*
X188934090Y-108433153D01*
X188915060Y-108479096D01*
X188880462Y-108479096D01*
X188813668Y-108124118D01*
X188691260Y-107933891D01*
X188691260Y-105684725D01*
X188879002Y-105409955D01*
X188961340Y-105003360D01*
X188961340Y-104709610D01*
X188991260Y-104709610D01*
X188991260Y-105028224D01*
X189010290Y-105074167D01*
X189045453Y-105109330D01*
X189091396Y-105128360D01*
X189460010Y-105128360D01*
X189491260Y-105097110D01*
X189491260Y-104678360D01*
X190241260Y-104678360D01*
X190241260Y-105097110D01*
X190272510Y-105128360D01*
X190641124Y-105128360D01*
X190687067Y-105109330D01*
X190722230Y-105074167D01*
X190741260Y-105028224D01*
X190741260Y-104709610D01*
X190710010Y-104678360D01*
X190241260Y-104678360D01*
X189491260Y-104678360D01*
X189022510Y-104678360D01*
X188991260Y-104709610D01*
X188961340Y-104709610D01*
X188961340Y-103703360D01*
X188956662Y-103678496D01*
X188991260Y-103678496D01*
X188991260Y-103997110D01*
X189022510Y-104028360D01*
X189491260Y-104028360D01*
X189491260Y-103609610D01*
X190241260Y-103609610D01*
X190241260Y-104028360D01*
X190710010Y-104028360D01*
X190741260Y-103997110D01*
X190741260Y-103678496D01*
X190722230Y-103632553D01*
X190687067Y-103597390D01*
X190641124Y-103578360D01*
X190272510Y-103578360D01*
X190241260Y-103609610D01*
X189491260Y-103609610D01*
X189460010Y-103578360D01*
X189091396Y-103578360D01*
X189045453Y-103597390D01*
X189010290Y-103632553D01*
X188991260Y-103678496D01*
X188956662Y-103678496D01*
X188889868Y-103323518D01*
X188665381Y-102974656D01*
X188322855Y-102740618D01*
X187916260Y-102658280D01*
X186505696Y-102658280D01*
X186521576Y-102642400D01*
X199164724Y-102642400D01*
X204291200Y-107768876D01*
X204291200Y-110794800D01*
X204407284Y-111378392D01*
X204737862Y-111873138D01*
X207453062Y-114588338D01*
X207947808Y-114918916D01*
X208531400Y-115035000D01*
X208688863Y-115035000D01*
X208555482Y-115124122D01*
X207130542Y-116549062D01*
X206799964Y-117043808D01*
X206683880Y-117627400D01*
X206683880Y-120152944D01*
X205481704Y-121355120D01*
X188576189Y-121355120D01*
X188606864Y-121335381D01*
X188840902Y-120992855D01*
X188923240Y-120586260D01*
X188923240Y-120292510D01*
X188953160Y-120292510D01*
X188953160Y-120611124D01*
X188972190Y-120657067D01*
X189007353Y-120692230D01*
X189053296Y-120711260D01*
X189421910Y-120711260D01*
X189453160Y-120680010D01*
X189453160Y-120261260D01*
X190203160Y-120261260D01*
X190203160Y-120680010D01*
X190234410Y-120711260D01*
X190603024Y-120711260D01*
X190648967Y-120692230D01*
X190684130Y-120657067D01*
X190703160Y-120611124D01*
X190703160Y-120292510D01*
X190671910Y-120261260D01*
X190203160Y-120261260D01*
X189453160Y-120261260D01*
X188984410Y-120261260D01*
X188953160Y-120292510D01*
X188923240Y-120292510D01*
X188923240Y-119286260D01*
X188918562Y-119261396D01*
X188953160Y-119261396D01*
X188953160Y-119580010D01*
X188984410Y-119611260D01*
X189453160Y-119611260D01*
X189453160Y-119192510D01*
X190203160Y-119192510D01*
X190203160Y-119611260D01*
X190671910Y-119611260D01*
X190703160Y-119580010D01*
X190703160Y-119261396D01*
X190684130Y-119215453D01*
X190648967Y-119180290D01*
X190603024Y-119161260D01*
X190234410Y-119161260D01*
X190203160Y-119192510D01*
X189453160Y-119192510D01*
X189421910Y-119161260D01*
X189053296Y-119161260D01*
X189007353Y-119180290D01*
X188972190Y-119215453D01*
X188953160Y-119261396D01*
X188918562Y-119261396D01*
X188851768Y-118906418D01*
X188627281Y-118557556D01*
X188543940Y-118500612D01*
X188543940Y-115626285D01*
X188731682Y-115351515D01*
X188814020Y-114944920D01*
X188814020Y-114651170D01*
X188843940Y-114651170D01*
X188843940Y-114969784D01*
X188862970Y-115015727D01*
X188898133Y-115050890D01*
X188944076Y-115069920D01*
X189312690Y-115069920D01*
X189343940Y-115038670D01*
X189343940Y-114619920D01*
X190093940Y-114619920D01*
X190093940Y-115038670D01*
X190125190Y-115069920D01*
X190493804Y-115069920D01*
X190539747Y-115050890D01*
X190574910Y-115015727D01*
X190593940Y-114969784D01*
X190593940Y-114651170D01*
X190562690Y-114619920D01*
X190093940Y-114619920D01*
X189343940Y-114619920D01*
X188875190Y-114619920D01*
X188843940Y-114651170D01*
X188814020Y-114651170D01*
X188814020Y-113644920D01*
X188809342Y-113620056D01*
X188843940Y-113620056D01*
X188843940Y-113938670D01*
X188875190Y-113969920D01*
X189343940Y-113969920D01*
X189343940Y-113551170D01*
X190093940Y-113551170D01*
X190093940Y-113969920D01*
X190562690Y-113969920D01*
X190593940Y-113938670D01*
X190593940Y-113620056D01*
X190574910Y-113574113D01*
X190539747Y-113538950D01*
X190493804Y-113519920D01*
X190125190Y-113519920D01*
X190093940Y-113551170D01*
X189343940Y-113551170D01*
X189312690Y-113519920D01*
X188944076Y-113519920D01*
X188898133Y-113538950D01*
X188862970Y-113574113D01*
X188843940Y-113620056D01*
X188809342Y-113620056D01*
X188742548Y-113265078D01*
X188518061Y-112916216D01*
X188175535Y-112682178D01*
X187768940Y-112599840D01*
X186268940Y-112599840D01*
X185889098Y-112671312D01*
X185589808Y-112863900D01*
X183561750Y-112863900D01*
X183433335Y-112776158D01*
X183026740Y-112693820D01*
X181526740Y-112693820D01*
X181146898Y-112765292D01*
X180936584Y-112900626D01*
X180655078Y-112479322D01*
X176782437Y-108606681D01*
X176583577Y-108125402D01*
X176098750Y-107639729D01*
X175464969Y-107376560D01*
X174778722Y-107375961D01*
X174144482Y-107638023D01*
X173658809Y-108122850D01*
X173395640Y-108756631D01*
X173395041Y-109442878D01*
X173657103Y-110077118D01*
X174141930Y-110562791D01*
X174626340Y-110763936D01*
X177781660Y-113919256D01*
X177781660Y-115038900D01*
X177853132Y-115418742D01*
X178051740Y-115727387D01*
X178051740Y-119170460D01*
X178167824Y-119754052D01*
X178498402Y-120248798D01*
X182208060Y-123958455D01*
X182208062Y-123958458D01*
X182491625Y-124147928D01*
X182702807Y-124289036D01*
X183286400Y-124405120D01*
X206113380Y-124405120D01*
X206696972Y-124289036D01*
X207191718Y-123958458D01*
X209287218Y-121862958D01*
X209534286Y-121493194D01*
X209606585Y-121856666D01*
X210023872Y-122481181D01*
X210152304Y-122566997D01*
X209792182Y-122807622D01*
X209295652Y-123304152D01*
X209202888Y-123322604D01*
X208708142Y-123653182D01*
X208456433Y-124029892D01*
X208426620Y-124059653D01*
X208410323Y-124098901D01*
X208377564Y-124147928D01*
X208366161Y-124205255D01*
X208181759Y-124649345D01*
X208181202Y-125287854D01*
X208262661Y-125485000D01*
X166757676Y-125485000D01*
X162738800Y-121466124D01*
X162738800Y-115336320D01*
X162622716Y-114752728D01*
X162292138Y-114257982D01*
X159442258Y-111408102D01*
X158947512Y-111077524D01*
X158363920Y-110961440D01*
X157475914Y-110961440D01*
X157557904Y-110908681D01*
X157791942Y-110566155D01*
X157874280Y-110159560D01*
X157874280Y-109865810D01*
X157904200Y-109865810D01*
X157904200Y-110184424D01*
X157923230Y-110230367D01*
X157958393Y-110265530D01*
X158004336Y-110284560D01*
X158372950Y-110284560D01*
X158404200Y-110253310D01*
X158404200Y-109834560D01*
X159154200Y-109834560D01*
X159154200Y-110253310D01*
X159185450Y-110284560D01*
X159554064Y-110284560D01*
X159600007Y-110265530D01*
X159635170Y-110230367D01*
X159654200Y-110184424D01*
X159654200Y-109865810D01*
X159622950Y-109834560D01*
X159154200Y-109834560D01*
X158404200Y-109834560D01*
X157935450Y-109834560D01*
X157904200Y-109865810D01*
X157874280Y-109865810D01*
X157874280Y-108859560D01*
X157869602Y-108834696D01*
X157904200Y-108834696D01*
X157904200Y-109153310D01*
X157935450Y-109184560D01*
X158404200Y-109184560D01*
X158404200Y-108765810D01*
X159154200Y-108765810D01*
X159154200Y-109184560D01*
X159622950Y-109184560D01*
X159654200Y-109153310D01*
X159654200Y-108834696D01*
X159635170Y-108788753D01*
X159600007Y-108753590D01*
X159554064Y-108734560D01*
X159185450Y-108734560D01*
X159154200Y-108765810D01*
X158404200Y-108765810D01*
X158372950Y-108734560D01*
X158004336Y-108734560D01*
X157958393Y-108753590D01*
X157923230Y-108788753D01*
X157904200Y-108834696D01*
X157869602Y-108834696D01*
X157802808Y-108479718D01*
X157578321Y-108130856D01*
X157266995Y-107918136D01*
X157157538Y-107754322D01*
X155907326Y-106504110D01*
X156540796Y-105870640D01*
X156829200Y-105870640D01*
X157209042Y-105799168D01*
X157557904Y-105574681D01*
X157791942Y-105232155D01*
X157874280Y-104825560D01*
X157874280Y-104531810D01*
X157904200Y-104531810D01*
X157904200Y-104850424D01*
X157923230Y-104896367D01*
X157958393Y-104931530D01*
X158004336Y-104950560D01*
X158372950Y-104950560D01*
X158404200Y-104919310D01*
X158404200Y-104500560D01*
X159154200Y-104500560D01*
X159154200Y-104919310D01*
X159185450Y-104950560D01*
X159554064Y-104950560D01*
X159600007Y-104931530D01*
X159635170Y-104896367D01*
X159654200Y-104850424D01*
X159654200Y-104531810D01*
X159622950Y-104500560D01*
X159154200Y-104500560D01*
X158404200Y-104500560D01*
X157935450Y-104500560D01*
X157904200Y-104531810D01*
X157874280Y-104531810D01*
X157874280Y-103525560D01*
X157869602Y-103500696D01*
X157904200Y-103500696D01*
X157904200Y-103819310D01*
X157935450Y-103850560D01*
X158404200Y-103850560D01*
X158404200Y-103431810D01*
X159154200Y-103431810D01*
X159154200Y-103850560D01*
X159622950Y-103850560D01*
X159654200Y-103819310D01*
X159654200Y-103500696D01*
X159635170Y-103454753D01*
X159600007Y-103419590D01*
X159554064Y-103400560D01*
X159185450Y-103400560D01*
X159154200Y-103431810D01*
X158404200Y-103431810D01*
X158372950Y-103400560D01*
X158004336Y-103400560D01*
X157958393Y-103419590D01*
X157923230Y-103454753D01*
X157904200Y-103500696D01*
X157869602Y-103500696D01*
X157802808Y-103145718D01*
X157578321Y-102796856D01*
X157235795Y-102562818D01*
X156829200Y-102480480D01*
X155329200Y-102480480D01*
X154949358Y-102551952D01*
X154600496Y-102776439D01*
X154366458Y-103118965D01*
X154284120Y-103525560D01*
X154284120Y-103813964D01*
X153148824Y-104949260D01*
X152939510Y-104949260D01*
X152811095Y-104861518D01*
X152404500Y-104779180D01*
X150904500Y-104779180D01*
X150524658Y-104850652D01*
X150303486Y-104992973D01*
X150111095Y-104861518D01*
X149704500Y-104779180D01*
X149416095Y-104779180D01*
X147458078Y-102821162D01*
X146963332Y-102490584D01*
X146379740Y-102374500D01*
X144858800Y-102374500D01*
X144377869Y-102174800D01*
X143691622Y-102174201D01*
X143057382Y-102436263D01*
X142571709Y-102921090D01*
X142308540Y-103554871D01*
X142307941Y-104241118D01*
X142570003Y-104875358D01*
X143054830Y-105361031D01*
X143688611Y-105624200D01*
X144374858Y-105624799D01*
X144859620Y-105424500D01*
X145748064Y-105424500D01*
X147159420Y-106835855D01*
X147159420Y-107124260D01*
X147230892Y-107504102D01*
X147455379Y-107852964D01*
X147534356Y-107906927D01*
X147545584Y-107963372D01*
X147876162Y-108458118D01*
X152078844Y-112660800D01*
X150980700Y-112660800D01*
X150600858Y-112732272D01*
X150379686Y-112874593D01*
X150187295Y-112743138D01*
X150097417Y-112724937D01*
X149614292Y-112402124D01*
X149599622Y-112399206D01*
X145695337Y-108494921D01*
X145496477Y-108013642D01*
X145011650Y-107527969D01*
X144377869Y-107264800D01*
X143691622Y-107264201D01*
X143057382Y-107526263D01*
X142571709Y-108011090D01*
X142308540Y-108644871D01*
X142307941Y-109331118D01*
X142570003Y-109965358D01*
X143054830Y-110451031D01*
X143539240Y-110652176D01*
X147235620Y-114348556D01*
X147235620Y-115005880D01*
X147307092Y-115385722D01*
X147505700Y-115694367D01*
X147505700Y-126343420D01*
X147621784Y-126927012D01*
X147952362Y-127421758D01*
X153262222Y-132731618D01*
X153756968Y-133062196D01*
X154340560Y-133178280D01*
X204129640Y-133178280D01*
X204713232Y-133062196D01*
X205207978Y-132731618D01*
X206455496Y-131484100D01*
X209538802Y-131484100D01*
X209460053Y-131880000D01*
X209606585Y-132616666D01*
X210023872Y-133241181D01*
X210648387Y-133658468D01*
X211385053Y-133805000D01*
X212887907Y-133805000D01*
X213624573Y-133658468D01*
X214249088Y-133241181D01*
X214666375Y-132616666D01*
X214812907Y-131880000D01*
X214666375Y-131143334D01*
X214502099Y-130897477D01*
X215826480Y-129573096D01*
X215826480Y-137030280D01*
X88008529Y-137030280D01*
X87995760Y-137027740D01*
X58011240Y-137027740D01*
X58011240Y-120231129D01*
X96716216Y-120231129D01*
X97403655Y-121894858D01*
X98675447Y-123168871D01*
X100337973Y-123859213D01*
X102138129Y-123860784D01*
X103801858Y-123173345D01*
X105075871Y-121901553D01*
X105766213Y-120239027D01*
X105767784Y-118438871D01*
X105080345Y-116775142D01*
X103808553Y-115501129D01*
X102146027Y-114810787D01*
X100345871Y-114809216D01*
X98682142Y-115496655D01*
X97408129Y-116768447D01*
X96717787Y-118430973D01*
X96716216Y-120231129D01*
X58011240Y-120231129D01*
X58011240Y-112160292D01*
X65918739Y-112160292D01*
X66133459Y-112288460D01*
X66773491Y-112379437D01*
X67230861Y-112288460D01*
X67445581Y-112160292D01*
X66682160Y-111396871D01*
X65918739Y-112160292D01*
X58011240Y-112160292D01*
X58011240Y-110816451D01*
X65027843Y-110816451D01*
X65118820Y-111273821D01*
X65246988Y-111488541D01*
X66010409Y-110725120D01*
X67353911Y-110725120D01*
X68117332Y-111488541D01*
X68245500Y-111273821D01*
X68336477Y-110633789D01*
X68245500Y-110176419D01*
X68117332Y-109961699D01*
X67353911Y-110725120D01*
X66010409Y-110725120D01*
X65246988Y-109961699D01*
X65118820Y-110176419D01*
X65027843Y-110816451D01*
X58011240Y-110816451D01*
X58011240Y-109289948D01*
X65918739Y-109289948D01*
X66682160Y-110053369D01*
X67445581Y-109289948D01*
X67230861Y-109161780D01*
X66590829Y-109070803D01*
X66133459Y-109161780D01*
X65918739Y-109289948D01*
X58011240Y-109289948D01*
X58011240Y-102946640D01*
X67576853Y-102946640D01*
X67846511Y-103599263D01*
X67856931Y-103609701D01*
X67848266Y-103618351D01*
X67577469Y-104270502D01*
X67576853Y-104976640D01*
X67846511Y-105629263D01*
X68111931Y-105895146D01*
X67848266Y-106158351D01*
X67577469Y-106810502D01*
X67576853Y-107516640D01*
X67846511Y-108169263D01*
X68345391Y-108669014D01*
X68997542Y-108939811D01*
X69703680Y-108940427D01*
X70356303Y-108670769D01*
X70856054Y-108171889D01*
X71126851Y-107519738D01*
X71127467Y-106813600D01*
X70857809Y-106160977D01*
X70592389Y-105895094D01*
X70856054Y-105631889D01*
X71126851Y-104979738D01*
X71127467Y-104273600D01*
X70857809Y-103620977D01*
X70847389Y-103610539D01*
X70856054Y-103601889D01*
X71126851Y-102949738D01*
X71127467Y-102243600D01*
X70857809Y-101590977D01*
X70358929Y-101091226D01*
X69706778Y-100820429D01*
X69587035Y-100820325D01*
X69352160Y-100585450D01*
X69117695Y-100819915D01*
X69000640Y-100819813D01*
X68348017Y-101089471D01*
X67848266Y-101588351D01*
X67577469Y-102240502D01*
X67576853Y-102946640D01*
X58011240Y-102946640D01*
X58011240Y-99882688D01*
X68476840Y-99882688D01*
X68476840Y-100227552D01*
X68539040Y-100337910D01*
X68821830Y-100055120D01*
X69882490Y-100055120D01*
X70165280Y-100337910D01*
X70227480Y-100227552D01*
X70227480Y-99882688D01*
X70165280Y-99772330D01*
X69882490Y-100055120D01*
X68821830Y-100055120D01*
X68539040Y-99772330D01*
X68476840Y-99882688D01*
X58011240Y-99882688D01*
X58011240Y-99242000D01*
X69069370Y-99242000D01*
X69352160Y-99524790D01*
X69634950Y-99242000D01*
X69524592Y-99179800D01*
X69179728Y-99179800D01*
X69069370Y-99242000D01*
X58011240Y-99242000D01*
X58011240Y-98440292D01*
X65918739Y-98440292D01*
X66133459Y-98568460D01*
X66773491Y-98659437D01*
X67230861Y-98568460D01*
X67445581Y-98440292D01*
X66682160Y-97676871D01*
X65918739Y-98440292D01*
X58011240Y-98440292D01*
X58011240Y-97096451D01*
X65027843Y-97096451D01*
X65118820Y-97553821D01*
X65246988Y-97768541D01*
X66010409Y-97005120D01*
X67353911Y-97005120D01*
X68117332Y-97768541D01*
X68245500Y-97553821D01*
X68336477Y-96913789D01*
X68245500Y-96456419D01*
X68117332Y-96241699D01*
X67353911Y-97005120D01*
X66010409Y-97005120D01*
X65246988Y-96241699D01*
X65118820Y-96456419D01*
X65027843Y-97096451D01*
X58011240Y-97096451D01*
X58011240Y-95569948D01*
X65918739Y-95569948D01*
X66682160Y-96333369D01*
X67445581Y-95569948D01*
X67230861Y-95441780D01*
X66590829Y-95350803D01*
X66133459Y-95441780D01*
X65918739Y-95569948D01*
X58011240Y-95569948D01*
X58011240Y-81131129D01*
X96716216Y-81131129D01*
X97403655Y-82794858D01*
X98675447Y-84068871D01*
X100337973Y-84759213D01*
X102138129Y-84760784D01*
X103801858Y-84073345D01*
X105075871Y-82801553D01*
X105766213Y-81139027D01*
X105767784Y-79338871D01*
X105080345Y-77675142D01*
X103808553Y-76401129D01*
X102146027Y-75710787D01*
X100345871Y-75709216D01*
X98682142Y-76396655D01*
X97408129Y-77668447D01*
X96717787Y-79330973D01*
X96716216Y-81131129D01*
X58011240Y-81131129D01*
X58011240Y-77561296D01*
X58044086Y-77726424D01*
X58450535Y-78334718D01*
X59058829Y-78741167D01*
X59776360Y-78883893D01*
X60493891Y-78741167D01*
X61102185Y-78334718D01*
X61508634Y-77726424D01*
X61651360Y-77008893D01*
X61651360Y-76935427D01*
X61508634Y-76217896D01*
X61102185Y-75609602D01*
X60493891Y-75203153D01*
X60384404Y-75181375D01*
X60576622Y-74989207D01*
X60622661Y-74857160D01*
X60201360Y-74857160D01*
X60201360Y-74927160D01*
X59351360Y-74927160D01*
X59351360Y-74857160D01*
X58930059Y-74857160D01*
X58976098Y-74989207D01*
X59168316Y-75181375D01*
X59058829Y-75203153D01*
X58450535Y-75609602D01*
X58044086Y-76217896D01*
X58011240Y-76383024D01*
X58011240Y-74007160D01*
X58930059Y-74007160D01*
X59351360Y-74007160D01*
X60201360Y-74007160D01*
X60622661Y-74007160D01*
X60576622Y-73875113D01*
X60333398Y-73631952D01*
X60201360Y-73589522D01*
X60201360Y-74007160D01*
X59351360Y-74007160D01*
X59351360Y-73589522D01*
X59219322Y-73631952D01*
X58976098Y-73875113D01*
X58930059Y-74007160D01*
X58011240Y-74007160D01*
X58011240Y-73582160D01*
X70581280Y-73582160D01*
X70581280Y-75282160D01*
X70652752Y-75662002D01*
X70877239Y-76010864D01*
X70880796Y-76013295D01*
X70744086Y-76217896D01*
X70601360Y-76935427D01*
X70601360Y-77008893D01*
X70744086Y-77726424D01*
X71150535Y-78334718D01*
X71758829Y-78741167D01*
X72476360Y-78883893D01*
X73193891Y-78741167D01*
X73802185Y-78334718D01*
X74208634Y-77726424D01*
X74351360Y-77008893D01*
X74351360Y-76935427D01*
X74208634Y-76217896D01*
X74069664Y-76009913D01*
X74289102Y-75688755D01*
X74371440Y-75282160D01*
X74371440Y-73582160D01*
X74299968Y-73202318D01*
X74075481Y-72853456D01*
X73732955Y-72619418D01*
X73326360Y-72537080D01*
X71626360Y-72537080D01*
X71246518Y-72608552D01*
X70897656Y-72833039D01*
X70663618Y-73175565D01*
X70581280Y-73582160D01*
X58011240Y-73582160D01*
X58011240Y-68091220D01*
X87934800Y-68091220D01*
X88355752Y-68007487D01*
X88712617Y-67769037D01*
X88951067Y-67412172D01*
X89034800Y-66991220D01*
X89034800Y-48349500D01*
X118590120Y-48349500D01*
X118590120Y-50329500D01*
X118661592Y-50709342D01*
X118886079Y-51058204D01*
X119228605Y-51292242D01*
X119635200Y-51374580D01*
X120090200Y-51374580D01*
X120090200Y-60579000D01*
X120206284Y-61162592D01*
X120536862Y-61657338D01*
X127261560Y-68382036D01*
X127261560Y-103826606D01*
X126622293Y-104465873D01*
X126313392Y-104928176D01*
X126204920Y-105473500D01*
X126313392Y-106018824D01*
X126622293Y-106481127D01*
X127084596Y-106790028D01*
X127629920Y-106898500D01*
X128175244Y-106790028D01*
X128637547Y-106481127D01*
X129694187Y-105424487D01*
X129713273Y-105395923D01*
X130003088Y-104962184D01*
X130111560Y-104416860D01*
X130111560Y-96678400D01*
X140756824Y-96678400D01*
X141177080Y-96678400D01*
X141977080Y-96678400D01*
X142397336Y-96678400D01*
X143296824Y-96678400D01*
X143717080Y-96678400D01*
X143717080Y-96154157D01*
X143591532Y-96192201D01*
X143534739Y-96274013D01*
X143319077Y-96548581D01*
X143296824Y-96678400D01*
X142397336Y-96678400D01*
X142375083Y-96548581D01*
X142159421Y-96274013D01*
X142102628Y-96192201D01*
X141977080Y-96154157D01*
X141977080Y-96678400D01*
X141177080Y-96678400D01*
X141177080Y-96154157D01*
X141051532Y-96192201D01*
X140994739Y-96274013D01*
X140779077Y-96548581D01*
X140756824Y-96678400D01*
X130111560Y-96678400D01*
X130111560Y-93264109D01*
X133185507Y-93264109D01*
X133688514Y-94481480D01*
X134619101Y-95413692D01*
X135835592Y-95918824D01*
X137152789Y-95919973D01*
X138370160Y-95416966D01*
X138899648Y-94888400D01*
X140756824Y-94888400D01*
X140779077Y-95018219D01*
X140994739Y-95292787D01*
X141051532Y-95374599D01*
X141177080Y-95412643D01*
X141177080Y-94888400D01*
X141977080Y-94888400D01*
X141977080Y-95412643D01*
X142102628Y-95374599D01*
X142159421Y-95292787D01*
X142375083Y-95018219D01*
X142397336Y-94888400D01*
X143296824Y-94888400D01*
X143319077Y-95018219D01*
X143534739Y-95292787D01*
X143591532Y-95374599D01*
X143717080Y-95412643D01*
X143717080Y-94888400D01*
X143296824Y-94888400D01*
X142397336Y-94888400D01*
X141977080Y-94888400D01*
X141177080Y-94888400D01*
X140756824Y-94888400D01*
X138899648Y-94888400D01*
X139302372Y-94486379D01*
X139529913Y-93938400D01*
X140756824Y-93938400D01*
X141177080Y-93938400D01*
X141977080Y-93938400D01*
X142397336Y-93938400D01*
X143296824Y-93938400D01*
X143717080Y-93938400D01*
X143717080Y-93414157D01*
X143591532Y-93452201D01*
X143534739Y-93534013D01*
X143319077Y-93808581D01*
X143296824Y-93938400D01*
X142397336Y-93938400D01*
X142375083Y-93808581D01*
X142159421Y-93534013D01*
X142102628Y-93452201D01*
X141977080Y-93414157D01*
X141977080Y-93938400D01*
X141177080Y-93938400D01*
X141177080Y-93414157D01*
X141051532Y-93452201D01*
X140994739Y-93534013D01*
X140779077Y-93808581D01*
X140756824Y-93938400D01*
X139529913Y-93938400D01*
X139807504Y-93269888D01*
X139808653Y-91952691D01*
X139305646Y-90735320D01*
X138375059Y-89803108D01*
X137158568Y-89297976D01*
X135841371Y-89296827D01*
X134624000Y-89799834D01*
X133691788Y-90730421D01*
X133186656Y-91946912D01*
X133185507Y-93264109D01*
X130111560Y-93264109D01*
X130111560Y-80880170D01*
X134557240Y-80880170D01*
X134557240Y-81098784D01*
X134576270Y-81144727D01*
X134611433Y-81179890D01*
X134657376Y-81198920D01*
X134850990Y-81198920D01*
X134882240Y-81167670D01*
X134882240Y-80848920D01*
X134588490Y-80848920D01*
X134557240Y-80880170D01*
X130111560Y-80880170D01*
X130111560Y-80149056D01*
X134557240Y-80149056D01*
X134557240Y-80367670D01*
X134588490Y-80398920D01*
X134882240Y-80398920D01*
X134882240Y-80080170D01*
X134850990Y-80048920D01*
X134657376Y-80048920D01*
X134611433Y-80067950D01*
X134576270Y-80103113D01*
X134557240Y-80149056D01*
X130111560Y-80149056D01*
X130111560Y-71882650D01*
X148036320Y-71882650D01*
X148036320Y-72201264D01*
X148055350Y-72247207D01*
X148090513Y-72282370D01*
X148136456Y-72301400D01*
X148505070Y-72301400D01*
X148536320Y-72270150D01*
X148536320Y-71851400D01*
X149286320Y-71851400D01*
X149286320Y-72270150D01*
X149317570Y-72301400D01*
X149686184Y-72301400D01*
X149732127Y-72282370D01*
X149767290Y-72247207D01*
X149786320Y-72201264D01*
X149786320Y-71882650D01*
X149755070Y-71851400D01*
X149286320Y-71851400D01*
X148536320Y-71851400D01*
X148067570Y-71851400D01*
X148036320Y-71882650D01*
X130111560Y-71882650D01*
X130111560Y-70851536D01*
X148036320Y-70851536D01*
X148036320Y-71170150D01*
X148067570Y-71201400D01*
X148536320Y-71201400D01*
X148536320Y-70782650D01*
X149286320Y-70782650D01*
X149286320Y-71201400D01*
X149755070Y-71201400D01*
X149786320Y-71170150D01*
X149786320Y-70851536D01*
X149767290Y-70805593D01*
X149732127Y-70770430D01*
X149686184Y-70751400D01*
X149317570Y-70751400D01*
X149286320Y-70782650D01*
X148536320Y-70782650D01*
X148505070Y-70751400D01*
X148136456Y-70751400D01*
X148090513Y-70770430D01*
X148055350Y-70805593D01*
X148036320Y-70851536D01*
X130111560Y-70851536D01*
X130111560Y-69138060D01*
X134254260Y-69138060D01*
X134735191Y-69337760D01*
X135421438Y-69338359D01*
X136055678Y-69076297D01*
X136541351Y-68591470D01*
X136804520Y-67957689D01*
X136804522Y-67954678D01*
X140974521Y-67954678D01*
X141236583Y-68588918D01*
X141721410Y-69074591D01*
X142355191Y-69337760D01*
X143041438Y-69338359D01*
X143675678Y-69076297D01*
X144161351Y-68591470D01*
X144424520Y-67957689D01*
X144425119Y-67271442D01*
X144163057Y-66637202D01*
X143678230Y-66151529D01*
X143044449Y-65888360D01*
X142358202Y-65887761D01*
X141723962Y-66149823D01*
X141238289Y-66634650D01*
X140975120Y-67268431D01*
X140974521Y-67954678D01*
X136804522Y-67954678D01*
X136805119Y-67271442D01*
X136543057Y-66637202D01*
X136058230Y-66151529D01*
X135424449Y-65888360D01*
X134738202Y-65887761D01*
X134253440Y-66088060D01*
X129280936Y-66088060D01*
X126057554Y-62864678D01*
X133344521Y-62864678D01*
X133606583Y-63498918D01*
X134091410Y-63984591D01*
X134725191Y-64247760D01*
X135411438Y-64248359D01*
X136045678Y-63986297D01*
X136531351Y-63501470D01*
X136794520Y-62867689D01*
X136795119Y-62181442D01*
X136533057Y-61547202D01*
X136048230Y-61061529D01*
X135414449Y-60798360D01*
X134728202Y-60797761D01*
X134093962Y-61059823D01*
X133608289Y-61544650D01*
X133345120Y-62178431D01*
X133344521Y-62864678D01*
X126057554Y-62864678D01*
X123140200Y-59947324D01*
X123140200Y-57784678D01*
X133344521Y-57784678D01*
X133606583Y-58418918D01*
X134091410Y-58904591D01*
X134725191Y-59167760D01*
X135411438Y-59168359D01*
X136045678Y-58906297D01*
X136531351Y-58421470D01*
X136794520Y-57787689D01*
X136795119Y-57101442D01*
X136533057Y-56467202D01*
X136048230Y-55981529D01*
X135414449Y-55718360D01*
X134728202Y-55717761D01*
X134093962Y-55979823D01*
X133608289Y-56464650D01*
X133345120Y-57098431D01*
X133344521Y-57784678D01*
X123140200Y-57784678D01*
X123140200Y-51374580D01*
X123595200Y-51374580D01*
X123703994Y-51354109D01*
X133185507Y-51354109D01*
X133688514Y-52571480D01*
X134619101Y-53503692D01*
X135835592Y-54008824D01*
X137152789Y-54009973D01*
X138188684Y-53581950D01*
X146403100Y-53581950D01*
X146403100Y-53900564D01*
X146422130Y-53946507D01*
X146457293Y-53981670D01*
X146503236Y-54000700D01*
X146871850Y-54000700D01*
X146903100Y-53969450D01*
X146903100Y-53550700D01*
X147653100Y-53550700D01*
X147653100Y-53969450D01*
X147684350Y-54000700D01*
X148052964Y-54000700D01*
X148098907Y-53981670D01*
X148134070Y-53946507D01*
X148153100Y-53900564D01*
X148153100Y-53581950D01*
X148121850Y-53550700D01*
X147653100Y-53550700D01*
X146903100Y-53550700D01*
X146434350Y-53550700D01*
X146403100Y-53581950D01*
X138188684Y-53581950D01*
X138370160Y-53506966D01*
X139302372Y-52576379D01*
X139312978Y-52550836D01*
X146403100Y-52550836D01*
X146403100Y-52869450D01*
X146434350Y-52900700D01*
X146903100Y-52900700D01*
X146903100Y-52481950D01*
X147653100Y-52481950D01*
X147653100Y-52900700D01*
X148121850Y-52900700D01*
X148153100Y-52869450D01*
X148153100Y-52550836D01*
X148134070Y-52504893D01*
X148098907Y-52469730D01*
X148052964Y-52450700D01*
X147684350Y-52450700D01*
X147653100Y-52481950D01*
X146903100Y-52481950D01*
X146871850Y-52450700D01*
X146503236Y-52450700D01*
X146457293Y-52469730D01*
X146422130Y-52504893D01*
X146403100Y-52550836D01*
X139312978Y-52550836D01*
X139807504Y-51359888D01*
X139808653Y-50042691D01*
X139305646Y-48825320D01*
X138375059Y-47893108D01*
X137158568Y-47387976D01*
X135841371Y-47386827D01*
X134624000Y-47889834D01*
X133691788Y-48820421D01*
X133186656Y-50036912D01*
X133185507Y-51354109D01*
X123703994Y-51354109D01*
X123975042Y-51303108D01*
X124323904Y-51078621D01*
X124557942Y-50736095D01*
X124640280Y-50329500D01*
X124640280Y-48349500D01*
X124568808Y-47969658D01*
X124344321Y-47620796D01*
X124001795Y-47386758D01*
X123595200Y-47304420D01*
X119635200Y-47304420D01*
X119255358Y-47375892D01*
X118906496Y-47600379D01*
X118672458Y-47942905D01*
X118590120Y-48349500D01*
X89034800Y-48349500D01*
X89034800Y-45913728D01*
X139752080Y-45913728D01*
X139752080Y-46393072D01*
X139891000Y-47091469D01*
X140179607Y-47523400D01*
X139891000Y-47955331D01*
X139752080Y-48653728D01*
X139752080Y-49133072D01*
X139891000Y-49831469D01*
X140286610Y-50423542D01*
X140878683Y-50819152D01*
X141577080Y-50958072D01*
X142275477Y-50819152D01*
X142847080Y-50437220D01*
X143418683Y-50819152D01*
X144117080Y-50958072D01*
X144815477Y-50819152D01*
X145387080Y-50437220D01*
X145958683Y-50819152D01*
X146657080Y-50958072D01*
X147355477Y-50819152D01*
X147927080Y-50437220D01*
X148498683Y-50819152D01*
X149197080Y-50958072D01*
X149895477Y-50819152D01*
X150467080Y-50437220D01*
X151038683Y-50819152D01*
X151737080Y-50958072D01*
X152435477Y-50819152D01*
X153007080Y-50437220D01*
X153578683Y-50819152D01*
X154277080Y-50958072D01*
X154975477Y-50819152D01*
X155547080Y-50437220D01*
X156118683Y-50819152D01*
X156817080Y-50958072D01*
X157515477Y-50819152D01*
X158087080Y-50437220D01*
X158658683Y-50819152D01*
X159357080Y-50958072D01*
X160055477Y-50819152D01*
X160627080Y-50437220D01*
X161198683Y-50819152D01*
X161897080Y-50958072D01*
X162595477Y-50819152D01*
X163167080Y-50437220D01*
X163738683Y-50819152D01*
X164437080Y-50958072D01*
X165135477Y-50819152D01*
X165707080Y-50437220D01*
X166278683Y-50819152D01*
X166977080Y-50958072D01*
X167675477Y-50819152D01*
X168247080Y-50437220D01*
X168818683Y-50819152D01*
X169517080Y-50958072D01*
X170215477Y-50819152D01*
X170787080Y-50437220D01*
X171358683Y-50819152D01*
X172057080Y-50958072D01*
X172755477Y-50819152D01*
X173327080Y-50437220D01*
X173898683Y-50819152D01*
X174597080Y-50958072D01*
X175295477Y-50819152D01*
X175867080Y-50437220D01*
X176438683Y-50819152D01*
X177137080Y-50958072D01*
X177835477Y-50819152D01*
X178407080Y-50437220D01*
X178978683Y-50819152D01*
X179677080Y-50958072D01*
X180375477Y-50819152D01*
X180947080Y-50437220D01*
X181518683Y-50819152D01*
X182217080Y-50958072D01*
X182915477Y-50819152D01*
X183487080Y-50437220D01*
X184058683Y-50819152D01*
X184757080Y-50958072D01*
X185455477Y-50819152D01*
X186027080Y-50437220D01*
X186598683Y-50819152D01*
X187297080Y-50958072D01*
X187995477Y-50819152D01*
X188567080Y-50437220D01*
X189138683Y-50819152D01*
X189837080Y-50958072D01*
X190535477Y-50819152D01*
X191107080Y-50437220D01*
X191678683Y-50819152D01*
X192377080Y-50958072D01*
X193075477Y-50819152D01*
X193647080Y-50437220D01*
X194218683Y-50819152D01*
X194917080Y-50958072D01*
X195615477Y-50819152D01*
X196131140Y-50474597D01*
X196250485Y-50556142D01*
X196657080Y-50638480D01*
X198257080Y-50638480D01*
X198636922Y-50567008D01*
X198985784Y-50342521D01*
X199219822Y-49999995D01*
X199302160Y-49593400D01*
X199302160Y-48364624D01*
X199728514Y-49396480D01*
X200616051Y-50285567D01*
X200494459Y-50406947D01*
X200216797Y-51075631D01*
X200216165Y-51799672D01*
X200492659Y-52468840D01*
X200732611Y-52709210D01*
X200494459Y-52946947D01*
X200216797Y-53615631D01*
X200216165Y-54339672D01*
X200492659Y-55008840D01*
X200732611Y-55249210D01*
X200494459Y-55486947D01*
X200216797Y-56155631D01*
X200216165Y-56879672D01*
X200492659Y-57548840D01*
X201004187Y-58061261D01*
X201672871Y-58338923D01*
X202396912Y-58339555D01*
X202770792Y-58185071D01*
X203032659Y-58818840D01*
X203544187Y-59331261D01*
X204212871Y-59608923D01*
X204936912Y-59609555D01*
X205606080Y-59333061D01*
X206118501Y-58821533D01*
X206396163Y-58152849D01*
X206396795Y-57428808D01*
X206120301Y-56759640D01*
X205880349Y-56519270D01*
X206118501Y-56281533D01*
X206396163Y-55612849D01*
X206396795Y-54888808D01*
X206120301Y-54219640D01*
X205880349Y-53979270D01*
X206118501Y-53741533D01*
X206396163Y-53072849D01*
X206396795Y-52348808D01*
X206120301Y-51679640D01*
X205608773Y-51167219D01*
X204940089Y-50889557D01*
X204216048Y-50888925D01*
X203842168Y-51043409D01*
X203673905Y-50636180D01*
X204410160Y-50331966D01*
X204688566Y-50054045D01*
X208276021Y-50054045D01*
X208678609Y-51028384D01*
X209423415Y-51774491D01*
X210397050Y-52178779D01*
X211451285Y-52179699D01*
X212425624Y-51777111D01*
X213171731Y-51032305D01*
X213576019Y-50058670D01*
X213576939Y-49004435D01*
X213174351Y-48030096D01*
X212429545Y-47283989D01*
X211455910Y-46879701D01*
X210401675Y-46878781D01*
X209427336Y-47281369D01*
X208681229Y-48026175D01*
X208276941Y-48999810D01*
X208276021Y-50054045D01*
X204688566Y-50054045D01*
X205342372Y-49401379D01*
X205847504Y-48184888D01*
X205848653Y-46867691D01*
X205345646Y-45650320D01*
X204415059Y-44718108D01*
X203198568Y-44212976D01*
X201881371Y-44211827D01*
X200664000Y-44714834D01*
X199731788Y-45645421D01*
X199226656Y-46861912D01*
X199226007Y-47606283D01*
X199016608Y-47280868D01*
X199143160Y-47091469D01*
X199282080Y-46393072D01*
X199282080Y-45913728D01*
X199143160Y-45215331D01*
X198747550Y-44623258D01*
X198155477Y-44227648D01*
X197457080Y-44088728D01*
X196758683Y-44227648D01*
X196187080Y-44609580D01*
X195615477Y-44227648D01*
X194917080Y-44088728D01*
X194218683Y-44227648D01*
X193647080Y-44609580D01*
X193075477Y-44227648D01*
X192377080Y-44088728D01*
X191678683Y-44227648D01*
X191107080Y-44609580D01*
X190535477Y-44227648D01*
X189837080Y-44088728D01*
X189138683Y-44227648D01*
X188567080Y-44609580D01*
X187995477Y-44227648D01*
X187297080Y-44088728D01*
X186598683Y-44227648D01*
X186027080Y-44609580D01*
X185455477Y-44227648D01*
X184757080Y-44088728D01*
X184058683Y-44227648D01*
X183487080Y-44609580D01*
X182915477Y-44227648D01*
X182217080Y-44088728D01*
X181518683Y-44227648D01*
X180947080Y-44609580D01*
X180375477Y-44227648D01*
X179677080Y-44088728D01*
X178978683Y-44227648D01*
X178407080Y-44609580D01*
X177835477Y-44227648D01*
X177137080Y-44088728D01*
X176438683Y-44227648D01*
X175867080Y-44609580D01*
X175295477Y-44227648D01*
X174597080Y-44088728D01*
X173898683Y-44227648D01*
X173327080Y-44609580D01*
X172755477Y-44227648D01*
X172057080Y-44088728D01*
X171358683Y-44227648D01*
X170787080Y-44609580D01*
X170215477Y-44227648D01*
X169517080Y-44088728D01*
X168818683Y-44227648D01*
X168247080Y-44609580D01*
X167675477Y-44227648D01*
X166977080Y-44088728D01*
X166278683Y-44227648D01*
X165707080Y-44609580D01*
X165135477Y-44227648D01*
X164437080Y-44088728D01*
X163738683Y-44227648D01*
X163167080Y-44609580D01*
X162595477Y-44227648D01*
X161897080Y-44088728D01*
X161198683Y-44227648D01*
X160627080Y-44609580D01*
X160055477Y-44227648D01*
X159357080Y-44088728D01*
X158658683Y-44227648D01*
X158087080Y-44609580D01*
X157515477Y-44227648D01*
X156817080Y-44088728D01*
X156118683Y-44227648D01*
X155547080Y-44609580D01*
X154975477Y-44227648D01*
X154277080Y-44088728D01*
X153578683Y-44227648D01*
X153007080Y-44609580D01*
X152435477Y-44227648D01*
X151737080Y-44088728D01*
X151038683Y-44227648D01*
X150467080Y-44609580D01*
X149895477Y-44227648D01*
X149197080Y-44088728D01*
X148498683Y-44227648D01*
X147927080Y-44609580D01*
X147355477Y-44227648D01*
X146657080Y-44088728D01*
X145958683Y-44227648D01*
X145387080Y-44609580D01*
X144815477Y-44227648D01*
X144117080Y-44088728D01*
X143418683Y-44227648D01*
X142847080Y-44609580D01*
X142275477Y-44227648D01*
X141577080Y-44088728D01*
X140878683Y-44227648D01*
X140286610Y-44623258D01*
X139891000Y-45215331D01*
X139752080Y-45913728D01*
X89034800Y-45913728D01*
X89034800Y-44814500D01*
X119651091Y-44814500D01*
X119703164Y-44966457D01*
X119759665Y-45187851D01*
X120150200Y-45454500D01*
X121140200Y-45454500D01*
X121140200Y-44814500D01*
X122090200Y-44814500D01*
X122090200Y-45454500D01*
X123080200Y-45454500D01*
X123470735Y-45187851D01*
X123527236Y-44966457D01*
X123579309Y-44814500D01*
X122090200Y-44814500D01*
X121140200Y-44814500D01*
X119651091Y-44814500D01*
X89034800Y-44814500D01*
X89034800Y-43864500D01*
X119651091Y-43864500D01*
X121140200Y-43864500D01*
X121140200Y-43224500D01*
X122090200Y-43224500D01*
X122090200Y-43864500D01*
X123579309Y-43864500D01*
X123527236Y-43712543D01*
X123470735Y-43491149D01*
X123080200Y-43224500D01*
X122090200Y-43224500D01*
X121140200Y-43224500D01*
X120150200Y-43224500D01*
X119759665Y-43491149D01*
X119703164Y-43712543D01*
X119651091Y-43864500D01*
X89034800Y-43864500D01*
X89034800Y-39230280D01*
X215826480Y-39230280D01*
X215826480Y-83897669D01*
G36*
X154061160Y-114011440D02*
X157732244Y-114011440D01*
X159688800Y-115967996D01*
X159688800Y-122097800D01*
X159804884Y-122681392D01*
X160135462Y-123176138D01*
X165047662Y-128088338D01*
X165542408Y-128418916D01*
X166126000Y-128535000D01*
X205316563Y-128535000D01*
X205240228Y-128550184D01*
X204745482Y-128880762D01*
X203497964Y-130128280D01*
X154972236Y-130128280D01*
X150555700Y-125711744D01*
X150555700Y-115956046D01*
X150574105Y-115968622D01*
X150980700Y-116050960D01*
X151613284Y-116050960D01*
X152750800Y-117188476D01*
X152750800Y-117441575D01*
X152563058Y-117716345D01*
X152480720Y-118122940D01*
X152480720Y-119422940D01*
X152552192Y-119802782D01*
X152666980Y-119981167D01*
X152666980Y-123029575D01*
X152479238Y-123304345D01*
X152396900Y-123710940D01*
X152396900Y-125010940D01*
X152468372Y-125390782D01*
X152692859Y-125739644D01*
X153035385Y-125973682D01*
X153441980Y-126056020D01*
X154941980Y-126056020D01*
X155321822Y-125984548D01*
X155670684Y-125760061D01*
X155904722Y-125417535D01*
X155987060Y-125010940D01*
X155987060Y-124717190D01*
X156016980Y-124717190D01*
X156016980Y-125035804D01*
X156036010Y-125081747D01*
X156071173Y-125116910D01*
X156117116Y-125135940D01*
X156485730Y-125135940D01*
X156516980Y-125104690D01*
X156516980Y-124685940D01*
X157266980Y-124685940D01*
X157266980Y-125104690D01*
X157298230Y-125135940D01*
X157666844Y-125135940D01*
X157712787Y-125116910D01*
X157747950Y-125081747D01*
X157766980Y-125035804D01*
X157766980Y-124717190D01*
X157735730Y-124685940D01*
X157266980Y-124685940D01*
X156516980Y-124685940D01*
X156048230Y-124685940D01*
X156016980Y-124717190D01*
X155987060Y-124717190D01*
X155987060Y-123710940D01*
X155982382Y-123686076D01*
X156016980Y-123686076D01*
X156016980Y-124004690D01*
X156048230Y-124035940D01*
X156516980Y-124035940D01*
X156516980Y-123617190D01*
X157266980Y-123617190D01*
X157266980Y-124035940D01*
X157735730Y-124035940D01*
X157766980Y-124004690D01*
X157766980Y-123686076D01*
X157747950Y-123640133D01*
X157712787Y-123604970D01*
X157666844Y-123585940D01*
X157298230Y-123585940D01*
X157266980Y-123617190D01*
X156516980Y-123617190D01*
X156485730Y-123585940D01*
X156117116Y-123585940D01*
X156071173Y-123604970D01*
X156036010Y-123640133D01*
X156016980Y-123686076D01*
X155982382Y-123686076D01*
X155915588Y-123331098D01*
X155716980Y-123022453D01*
X155716980Y-120196207D01*
X155754504Y-120172061D01*
X155988542Y-119829535D01*
X156070880Y-119422940D01*
X156070880Y-119129190D01*
X156100800Y-119129190D01*
X156100800Y-119447804D01*
X156119830Y-119493747D01*
X156154993Y-119528910D01*
X156200936Y-119547940D01*
X156569550Y-119547940D01*
X156600800Y-119516690D01*
X156600800Y-119097940D01*
X157350800Y-119097940D01*
X157350800Y-119516690D01*
X157382050Y-119547940D01*
X157750664Y-119547940D01*
X157796607Y-119528910D01*
X157831770Y-119493747D01*
X157850800Y-119447804D01*
X157850800Y-119129190D01*
X157819550Y-119097940D01*
X157350800Y-119097940D01*
X156600800Y-119097940D01*
X156132050Y-119097940D01*
X156100800Y-119129190D01*
X156070880Y-119129190D01*
X156070880Y-118122940D01*
X156066202Y-118098076D01*
X156100800Y-118098076D01*
X156100800Y-118416690D01*
X156132050Y-118447940D01*
X156600800Y-118447940D01*
X156600800Y-118029190D01*
X157350800Y-118029190D01*
X157350800Y-118447940D01*
X157819550Y-118447940D01*
X157850800Y-118416690D01*
X157850800Y-118098076D01*
X157831770Y-118052133D01*
X157796607Y-118016970D01*
X157750664Y-117997940D01*
X157382050Y-117997940D01*
X157350800Y-118029190D01*
X156600800Y-118029190D01*
X156569550Y-117997940D01*
X156200936Y-117997940D01*
X156154993Y-118016970D01*
X156119830Y-118052133D01*
X156100800Y-118098076D01*
X156066202Y-118098076D01*
X155999408Y-117743098D01*
X155800800Y-117434453D01*
X155800800Y-116556800D01*
X155684716Y-115973208D01*
X155354138Y-115478462D01*
X153843900Y-113968224D01*
X154061160Y-114011440D01*
X154061160Y-114011440D01*
G37*
X154061160Y-114011440D02*
X157732244Y-114011440D01*
X159688800Y-115967996D01*
X159688800Y-122097800D01*
X159804884Y-122681392D01*
X160135462Y-123176138D01*
X165047662Y-128088338D01*
X165542408Y-128418916D01*
X166126000Y-128535000D01*
X205316563Y-128535000D01*
X205240228Y-128550184D01*
X204745482Y-128880762D01*
X203497964Y-130128280D01*
X154972236Y-130128280D01*
X150555700Y-125711744D01*
X150555700Y-115956046D01*
X150574105Y-115968622D01*
X150980700Y-116050960D01*
X151613284Y-116050960D01*
X152750800Y-117188476D01*
X152750800Y-117441575D01*
X152563058Y-117716345D01*
X152480720Y-118122940D01*
X152480720Y-119422940D01*
X152552192Y-119802782D01*
X152666980Y-119981167D01*
X152666980Y-123029575D01*
X152479238Y-123304345D01*
X152396900Y-123710940D01*
X152396900Y-125010940D01*
X152468372Y-125390782D01*
X152692859Y-125739644D01*
X153035385Y-125973682D01*
X153441980Y-126056020D01*
X154941980Y-126056020D01*
X155321822Y-125984548D01*
X155670684Y-125760061D01*
X155904722Y-125417535D01*
X155987060Y-125010940D01*
X155987060Y-124717190D01*
X156016980Y-124717190D01*
X156016980Y-125035804D01*
X156036010Y-125081747D01*
X156071173Y-125116910D01*
X156117116Y-125135940D01*
X156485730Y-125135940D01*
X156516980Y-125104690D01*
X156516980Y-124685940D01*
X157266980Y-124685940D01*
X157266980Y-125104690D01*
X157298230Y-125135940D01*
X157666844Y-125135940D01*
X157712787Y-125116910D01*
X157747950Y-125081747D01*
X157766980Y-125035804D01*
X157766980Y-124717190D01*
X157735730Y-124685940D01*
X157266980Y-124685940D01*
X156516980Y-124685940D01*
X156048230Y-124685940D01*
X156016980Y-124717190D01*
X155987060Y-124717190D01*
X155987060Y-123710940D01*
X155982382Y-123686076D01*
X156016980Y-123686076D01*
X156016980Y-124004690D01*
X156048230Y-124035940D01*
X156516980Y-124035940D01*
X156516980Y-123617190D01*
X157266980Y-123617190D01*
X157266980Y-124035940D01*
X157735730Y-124035940D01*
X157766980Y-124004690D01*
X157766980Y-123686076D01*
X157747950Y-123640133D01*
X157712787Y-123604970D01*
X157666844Y-123585940D01*
X157298230Y-123585940D01*
X157266980Y-123617190D01*
X156516980Y-123617190D01*
X156485730Y-123585940D01*
X156117116Y-123585940D01*
X156071173Y-123604970D01*
X156036010Y-123640133D01*
X156016980Y-123686076D01*
X155982382Y-123686076D01*
X155915588Y-123331098D01*
X155716980Y-123022453D01*
X155716980Y-120196207D01*
X155754504Y-120172061D01*
X155988542Y-119829535D01*
X156070880Y-119422940D01*
X156070880Y-119129190D01*
X156100800Y-119129190D01*
X156100800Y-119447804D01*
X156119830Y-119493747D01*
X156154993Y-119528910D01*
X156200936Y-119547940D01*
X156569550Y-119547940D01*
X156600800Y-119516690D01*
X156600800Y-119097940D01*
X157350800Y-119097940D01*
X157350800Y-119516690D01*
X157382050Y-119547940D01*
X157750664Y-119547940D01*
X157796607Y-119528910D01*
X157831770Y-119493747D01*
X157850800Y-119447804D01*
X157850800Y-119129190D01*
X157819550Y-119097940D01*
X157350800Y-119097940D01*
X156600800Y-119097940D01*
X156132050Y-119097940D01*
X156100800Y-119129190D01*
X156070880Y-119129190D01*
X156070880Y-118122940D01*
X156066202Y-118098076D01*
X156100800Y-118098076D01*
X156100800Y-118416690D01*
X156132050Y-118447940D01*
X156600800Y-118447940D01*
X156600800Y-118029190D01*
X157350800Y-118029190D01*
X157350800Y-118447940D01*
X157819550Y-118447940D01*
X157850800Y-118416690D01*
X157850800Y-118098076D01*
X157831770Y-118052133D01*
X157796607Y-118016970D01*
X157750664Y-117997940D01*
X157382050Y-117997940D01*
X157350800Y-118029190D01*
X156600800Y-118029190D01*
X156569550Y-117997940D01*
X156200936Y-117997940D01*
X156154993Y-118016970D01*
X156119830Y-118052133D01*
X156100800Y-118098076D01*
X156066202Y-118098076D01*
X155999408Y-117743098D01*
X155800800Y-117434453D01*
X155800800Y-116556800D01*
X155684716Y-115973208D01*
X155354138Y-115478462D01*
X153843900Y-113968224D01*
X154061160Y-114011440D01*
M02*
