G04 #@! TF.FileFunction,Copper,L1,Top,Signal*
%FSLAX46Y46*%
G04 Gerber Fmt 4.6, Leading zero omitted, Abs format (unit mm)*
G04 Created by KiCad (PCBNEW 4.0.7-e2-6376~58~ubuntu16.04.1) date Wed Jul  4 12:11:03 2018*
%MOMM*%
%LPD*%
G01*
G04 APERTURE LIST*
%ADD10C,0.100000*%
%ADD11C,1.160000*%
%ADD12O,3.200000X1.800000*%
%ADD13R,1.700000X1.700000*%
%ADD14O,1.700000X1.700000*%
%ADD15R,1.600000X1.600000*%
%ADD16O,1.600000X2.000000*%
%ADD17R,1.400000X1.400000*%
%ADD18C,1.400000*%
%ADD19C,4.572000*%
%ADD20R,3.960000X1.980000*%
%ADD21O,3.960000X1.980000*%
%ADD22C,1.500000*%
%ADD23C,3.000000*%
%ADD24C,7.000000*%
%ADD25C,1.590000*%
%ADD26C,2.200000*%
%ADD27R,1.300000X1.500000*%
%ADD28R,1.500000X1.300000*%
%ADD29C,0.600000*%
%ADD30C,0.800000*%
%ADD31C,1.000000*%
%ADD32C,0.400000*%
%ADD33C,0.050000*%
G04 APERTURE END LIST*
D10*
D11*
X209786480Y-127010000D03*
X209786480Y-124970000D03*
X212336480Y-125990000D03*
X212336480Y-128030000D03*
D12*
X212136480Y-131880000D03*
X212136480Y-121120000D03*
D11*
X209786480Y-113510000D03*
X209786480Y-111470000D03*
X212336480Y-112490000D03*
X212336480Y-114530000D03*
D12*
X212136480Y-118380000D03*
X212136480Y-107620000D03*
D11*
X209786480Y-100010000D03*
X209786480Y-97970000D03*
X212336480Y-98990000D03*
X212336480Y-101030000D03*
D12*
X212136480Y-104880000D03*
X212136480Y-94120000D03*
D11*
X209786480Y-86510000D03*
X209786480Y-84470000D03*
X212336480Y-85490000D03*
X212336480Y-87530000D03*
D12*
X212136480Y-91380000D03*
X212136480Y-80620000D03*
D13*
X66040000Y-92583000D03*
D14*
X63500000Y-92583000D03*
X66040000Y-79883000D03*
X63500000Y-79883000D03*
D15*
X197457080Y-97053400D03*
D16*
X197457080Y-94413400D03*
X194917080Y-97153400D03*
X194917080Y-94413400D03*
X192377080Y-97153400D03*
X192377080Y-94413400D03*
X189837080Y-97153400D03*
X189837080Y-94413400D03*
X187297080Y-97153400D03*
X187297080Y-94413400D03*
X184757080Y-97153400D03*
X184757080Y-94413400D03*
X182217080Y-97153400D03*
X182217080Y-94413400D03*
X179677080Y-97153400D03*
X179677080Y-94413400D03*
X177137080Y-97153400D03*
X177137080Y-94413400D03*
X174597080Y-97153400D03*
X174597080Y-94413400D03*
X172057080Y-97153400D03*
X172057080Y-94413400D03*
X169517080Y-97153400D03*
X169517080Y-94413400D03*
X166977080Y-97153400D03*
X166977080Y-94413400D03*
X164437080Y-97153400D03*
X164437080Y-94413400D03*
X161897080Y-97153400D03*
X161897080Y-94413400D03*
X159357080Y-97153400D03*
X159357080Y-94413400D03*
X156817080Y-97153400D03*
X156817080Y-94413400D03*
X154277080Y-97153400D03*
X154277080Y-94413400D03*
X151737080Y-97153400D03*
X151737080Y-94413400D03*
X149197080Y-97153400D03*
X149197080Y-94413400D03*
X146657080Y-97153400D03*
X146657080Y-94413400D03*
X144117080Y-97153400D03*
X144117080Y-94413400D03*
X141577080Y-97153400D03*
X141577080Y-94413400D03*
D15*
X197457080Y-48793400D03*
D16*
X197457080Y-46153400D03*
X194917080Y-48893400D03*
X194917080Y-46153400D03*
X192377080Y-48893400D03*
X192377080Y-46153400D03*
X189837080Y-48893400D03*
X189837080Y-46153400D03*
X187297080Y-48893400D03*
X187297080Y-46153400D03*
X184757080Y-48893400D03*
X184757080Y-46153400D03*
X182217080Y-48893400D03*
X182217080Y-46153400D03*
X179677080Y-48893400D03*
X179677080Y-46153400D03*
X177137080Y-48893400D03*
X177137080Y-46153400D03*
X174597080Y-48893400D03*
X174597080Y-46153400D03*
X172057080Y-48893400D03*
X172057080Y-46153400D03*
X169517080Y-48893400D03*
X169517080Y-46153400D03*
X166977080Y-48893400D03*
X166977080Y-46153400D03*
X164437080Y-48893400D03*
X164437080Y-46153400D03*
X161897080Y-48893400D03*
X161897080Y-46153400D03*
X159357080Y-48893400D03*
X159357080Y-46153400D03*
X156817080Y-48893400D03*
X156817080Y-46153400D03*
X154277080Y-48893400D03*
X154277080Y-46153400D03*
X151737080Y-48893400D03*
X151737080Y-46153400D03*
X149197080Y-48893400D03*
X149197080Y-46153400D03*
X146657080Y-48893400D03*
X146657080Y-46153400D03*
X144117080Y-48893400D03*
X144117080Y-46153400D03*
X141577080Y-48893400D03*
X141577080Y-46153400D03*
D17*
X142699820Y-75233060D03*
D18*
X135079820Y-75233060D03*
X142699820Y-62543060D03*
X142699820Y-57453060D03*
X142699820Y-67613060D03*
X135069820Y-62523060D03*
X135069820Y-57443060D03*
X135079820Y-67613060D03*
D19*
X136497080Y-92608400D03*
X202537080Y-95783400D03*
X202537080Y-47523400D03*
X136497080Y-50698400D03*
D20*
X121615200Y-49339500D03*
D21*
X121615200Y-44339500D03*
D22*
X69352160Y-114275120D03*
X69352160Y-111735120D03*
X69352160Y-109705120D03*
X69352160Y-107165120D03*
D23*
X66682160Y-117325120D03*
X66682160Y-103605120D03*
D17*
X144033240Y-121679500D03*
D18*
X136413240Y-121679500D03*
X144033240Y-108989500D03*
X144033240Y-103899500D03*
X144033240Y-114059500D03*
X136403240Y-108969500D03*
X136403240Y-103889500D03*
X136413240Y-114059500D03*
D17*
X175120340Y-121791260D03*
D18*
X167500340Y-121791260D03*
X175120340Y-109101260D03*
X175120340Y-104011260D03*
X175120340Y-114171260D03*
X167490340Y-109081260D03*
X167490340Y-104001260D03*
X167500340Y-114171260D03*
D17*
X168656000Y-75057000D03*
D18*
X161036000Y-75057000D03*
X168656000Y-62367000D03*
X168656000Y-57277000D03*
X168656000Y-67437000D03*
X161026000Y-62347000D03*
X161026000Y-57267000D03*
X161036000Y-67437000D03*
D24*
X101242000Y-119335000D03*
X101242000Y-80235000D03*
D25*
X202036480Y-51439240D03*
X204576480Y-52709240D03*
X202036480Y-53979240D03*
X204576480Y-55249240D03*
X202036480Y-56519240D03*
X204576480Y-57789240D03*
D26*
X212949800Y-67025500D03*
X207949800Y-67025500D03*
X207949800Y-72025500D03*
X212949800Y-72025500D03*
X210449800Y-69525500D03*
D27*
X195496180Y-69086740D03*
X195496180Y-71786740D03*
X199463660Y-71786740D03*
X199463660Y-69086740D03*
D28*
X194331580Y-54985920D03*
X191631580Y-54985920D03*
X189980560Y-57729120D03*
X187280560Y-57729120D03*
D29*
X192730120Y-58618120D03*
X164371020Y-117487700D03*
X158391860Y-117431820D03*
X197479920Y-104439720D03*
X127629920Y-105473500D03*
X195785740Y-76608940D03*
X192841880Y-62082680D03*
D30*
X189980560Y-57729120D02*
X191841120Y-57729120D01*
X191841120Y-57729120D02*
X192730120Y-58618120D01*
D31*
X158447740Y-117487700D02*
X164371020Y-117487700D01*
X158391860Y-117431820D02*
X158447740Y-117487700D01*
X197457080Y-104416880D02*
X197457080Y-97053400D01*
X197479920Y-104439720D02*
X197457080Y-104416880D01*
X199463660Y-71786740D02*
X203219060Y-71786740D01*
X205480300Y-69525500D02*
X210449800Y-69525500D01*
X203219060Y-71786740D02*
X205480300Y-69525500D01*
D30*
X210266340Y-69857580D02*
X210454880Y-69669040D01*
X210441560Y-69682360D02*
X210454880Y-69669040D01*
X144033240Y-121679500D02*
X139672860Y-121679500D01*
X127568960Y-98856800D02*
X139433300Y-98856800D01*
X125227080Y-101198680D02*
X127568960Y-98856800D01*
X125227080Y-107233720D02*
X125227080Y-101198680D01*
X139672860Y-121679500D02*
X125227080Y-107233720D01*
X192377080Y-94513400D02*
X192377080Y-93093560D01*
X183189880Y-89590880D02*
X168656000Y-75057000D01*
X188874400Y-89590880D02*
X183189880Y-89590880D01*
X192377080Y-93093560D02*
X188874400Y-89590880D01*
X175120340Y-121791260D02*
X175120340Y-118290380D01*
X161660840Y-104439720D02*
X164487860Y-101612700D01*
X161660840Y-108966000D02*
X161660840Y-104439720D01*
X164398960Y-111704120D02*
X161660840Y-108966000D01*
X168534080Y-111704120D02*
X164398960Y-111704120D01*
X175120340Y-118290380D02*
X168534080Y-111704120D01*
X155869640Y-101612700D02*
X164487860Y-101612700D01*
X139433300Y-98856800D02*
X142189200Y-101612700D01*
X142189200Y-101612700D02*
X155869640Y-101612700D01*
X192377080Y-98287820D02*
X192377080Y-97053400D01*
X189052200Y-101612700D02*
X192377080Y-98287820D01*
X164487860Y-101612700D02*
X189052200Y-101612700D01*
X168656000Y-75057000D02*
X168706800Y-75057000D01*
X192377080Y-93431380D02*
X192377080Y-94513400D01*
X142699820Y-75233060D02*
X143909580Y-75233060D01*
X143909580Y-75233060D02*
X146293840Y-77617320D01*
X146293840Y-77617320D02*
X166095680Y-77617320D01*
X166095680Y-77617320D02*
X168656000Y-75057000D01*
D31*
X192377080Y-98016040D02*
X192377080Y-97053400D01*
X192377080Y-97053400D02*
X192377080Y-94513400D01*
D32*
X69656980Y-107165120D02*
X69352160Y-107165120D01*
D30*
X136413240Y-114059500D02*
X136413240Y-114035840D01*
X136413240Y-114035840D02*
X127850900Y-105473500D01*
X127850900Y-105473500D02*
X127629920Y-105473500D01*
X136413240Y-114035840D02*
X133581140Y-111203740D01*
X133581140Y-111203740D02*
X133581140Y-110032800D01*
X136413240Y-114059500D02*
X136413240Y-114033300D01*
X167500340Y-114171260D02*
X167500340Y-117320100D01*
X176086300Y-114171260D02*
X175120340Y-114171260D01*
X179207160Y-117292120D02*
X176086300Y-114171260D01*
X179207160Y-123997720D02*
X179207160Y-117292120D01*
X177251360Y-125953520D02*
X179207160Y-123997720D01*
X173730920Y-125953520D02*
X177251360Y-125953520D01*
X171998640Y-124221240D02*
X173730920Y-125953520D01*
X171998640Y-121818400D02*
X171998640Y-124221240D01*
X167500340Y-117320100D02*
X171998640Y-121818400D01*
X136413240Y-114059500D02*
X136413240Y-113812320D01*
X133581140Y-110726220D02*
X133581140Y-110032800D01*
X133581140Y-110032800D02*
X133581140Y-102567740D01*
X153231380Y-114171260D02*
X167500340Y-114171260D01*
X145315940Y-106255820D02*
X153231380Y-114171260D01*
X142382240Y-106255820D02*
X145315940Y-106255820D01*
X137380980Y-101254560D02*
X142382240Y-106255820D01*
X134894320Y-101254560D02*
X137380980Y-101254560D01*
X133581140Y-102567740D02*
X134894320Y-101254560D01*
X144033240Y-114059500D02*
X143955300Y-114059500D01*
X143955300Y-114059500D02*
X136682480Y-106786680D01*
X133581140Y-108602780D02*
X133581140Y-110726220D01*
X135397240Y-106786680D02*
X133581140Y-108602780D01*
X136682480Y-106786680D02*
X135397240Y-106786680D01*
X134597140Y-59954160D02*
X136230360Y-59954160D01*
X159771080Y-68701920D02*
X161036000Y-67437000D01*
X151505920Y-68701920D02*
X159771080Y-68701920D01*
X147035520Y-64231520D02*
X151505920Y-68701920D01*
X140507720Y-64231520D02*
X147035520Y-64231520D01*
X136230360Y-59954160D02*
X140507720Y-64231520D01*
X161036000Y-67437000D02*
X168656000Y-67437000D01*
X134707160Y-67613060D02*
X133311900Y-66217800D01*
X133311900Y-66217800D02*
X133311900Y-61239400D01*
X133311900Y-61239400D02*
X134597140Y-59954160D01*
X142699820Y-67613060D02*
X134707160Y-67613060D01*
D31*
X175120340Y-114171260D02*
X175120340Y-114241620D01*
X136413240Y-114059500D02*
X136413240Y-113781840D01*
X144033240Y-113842800D02*
X144033240Y-114059500D01*
X161036000Y-67437000D02*
X161036000Y-67632580D01*
X135079820Y-67613060D02*
X135079820Y-67543760D01*
D30*
X144033240Y-114059500D02*
X144033240Y-114434620D01*
X133944360Y-53911500D02*
X131246880Y-53911500D01*
X132323840Y-72811640D02*
X136850120Y-72811640D01*
X128778000Y-69265800D02*
X132323840Y-72811640D01*
X128778000Y-56380380D02*
X128778000Y-69265800D01*
X131246880Y-53911500D02*
X128778000Y-56380380D01*
X133944360Y-53911500D02*
X139039600Y-53911500D01*
X175298100Y-52387500D02*
X183299100Y-60388500D01*
X140563600Y-52387500D02*
X175298100Y-52387500D01*
X139039600Y-53911500D02*
X140563600Y-52387500D01*
X154277080Y-94513400D02*
X154277080Y-90238600D01*
X191997340Y-69086740D02*
X199463660Y-69086740D01*
X183299100Y-60388500D02*
X191997340Y-69086740D01*
X154277080Y-90238600D02*
X136850120Y-72811640D01*
D31*
X195496180Y-69086740D02*
X199463660Y-69086740D01*
X199435720Y-69114680D02*
X199463660Y-69086740D01*
D30*
X194331580Y-54985920D02*
X194331580Y-54672220D01*
X194331580Y-54672220D02*
X189837080Y-50177720D01*
X189837080Y-50177720D02*
X189837080Y-48793400D01*
X202036480Y-56519240D02*
X195864900Y-56519240D01*
X195864900Y-56519240D02*
X194331580Y-54985920D01*
X187280560Y-57729120D02*
X187280560Y-60209440D01*
X207203040Y-54612540D02*
X205299740Y-52709240D01*
X207203040Y-61523880D02*
X207203040Y-54612540D01*
X204129640Y-64597280D02*
X207203040Y-61523880D01*
X191668400Y-64597280D02*
X204129640Y-64597280D01*
X187280560Y-60209440D02*
X191668400Y-64597280D01*
X205299740Y-52709240D02*
X204576480Y-52709240D01*
X187280560Y-57729120D02*
X187280560Y-48809920D01*
X187280560Y-48809920D02*
X187297080Y-48793400D01*
X205299740Y-52709240D02*
X204576480Y-52709240D01*
X187297080Y-48793400D02*
X187297080Y-49380120D01*
X164437080Y-97751880D02*
X164437080Y-97053400D01*
X204576480Y-57789240D02*
X204576480Y-59624160D01*
X195785740Y-76608940D02*
X195783200Y-76606400D01*
X193065400Y-61859160D02*
X192841880Y-62082680D01*
X202341480Y-61859160D02*
X193065400Y-61859160D01*
X204576480Y-59624160D02*
X202341480Y-61859160D01*
X188440060Y-86794340D02*
X184444640Y-86794340D01*
X165828980Y-71836280D02*
X165828980Y-71833740D01*
X169486580Y-71836280D02*
X165828980Y-71836280D01*
X184444640Y-86794340D02*
X169486580Y-71836280D01*
X136436100Y-55321200D02*
X133388100Y-55321200D01*
X174498000Y-55321200D02*
X195783200Y-76606400D01*
X136436100Y-55321200D02*
X174498000Y-55321200D01*
X144465040Y-69921120D02*
X147970240Y-73426320D01*
X133875780Y-69921120D02*
X144465040Y-69921120D01*
X133388100Y-55321200D02*
X131043680Y-57665620D01*
X131043680Y-57665620D02*
X131043680Y-67089020D01*
X131043680Y-67089020D02*
X133875780Y-69921120D01*
X144840960Y-70297040D02*
X147970240Y-73426320D01*
X152328880Y-73426320D02*
X147970240Y-73426320D01*
X162450780Y-71833740D02*
X165828980Y-71833740D01*
X160858200Y-73426320D02*
X162450780Y-71833740D01*
X152328880Y-73426320D02*
X160858200Y-73426320D01*
X188440060Y-86794340D02*
X194917080Y-93271360D01*
X194917080Y-93271360D02*
X194917080Y-94513400D01*
X208823560Y-51046380D02*
X202429340Y-51046380D01*
X215417400Y-57640220D02*
X208823560Y-51046380D01*
X215417400Y-73959720D02*
X215417400Y-57640220D01*
X212770720Y-76606400D02*
X215417400Y-73959720D01*
X195783200Y-76606400D02*
X212770720Y-76606400D01*
X147970240Y-73426320D02*
X144840960Y-70297040D01*
X202429340Y-51046380D02*
X202036480Y-51439240D01*
D31*
X204576480Y-57789240D02*
X204567360Y-57789240D01*
D30*
X212336480Y-125990000D02*
X212336480Y-124729340D01*
X204200760Y-122788680D02*
X198526400Y-128463040D01*
X210395820Y-122788680D02*
X204200760Y-122788680D01*
X212336480Y-124729340D02*
X210395820Y-122788680D01*
X197032880Y-128463040D02*
X198526400Y-128463040D01*
X143807180Y-111480600D02*
X146517360Y-111480600D01*
X146517360Y-111480600D02*
X163499800Y-128463040D01*
X163499800Y-128463040D02*
X197032880Y-128463040D01*
X136403240Y-104076660D02*
X143807180Y-111480600D01*
X136403240Y-103889500D02*
X136403240Y-104076660D01*
D31*
X136403240Y-103889500D02*
X136403240Y-104284940D01*
D30*
X136403240Y-108969500D02*
X136403240Y-110266640D01*
X157228540Y-131091940D02*
X209274540Y-131091940D01*
X136403240Y-110266640D02*
X157228540Y-131091940D01*
X209274540Y-131091940D02*
X212336480Y-128030000D01*
D31*
X136403240Y-108969500D02*
X136403240Y-109237940D01*
D30*
X212336480Y-98990000D02*
X212336480Y-97853600D01*
X172272960Y-65714880D02*
X170451780Y-65714880D01*
X196921120Y-90363040D02*
X172272960Y-65714880D01*
X206776320Y-90363040D02*
X196921120Y-90363040D01*
X208645760Y-92232480D02*
X206776320Y-90363040D01*
X208645760Y-94162880D02*
X208645760Y-92232480D01*
X212336480Y-97853600D02*
X208645760Y-94162880D01*
X137338760Y-57443060D02*
X135069820Y-57443060D01*
X139865100Y-59969400D02*
X137338760Y-57443060D01*
X147066000Y-59969400D02*
X139865100Y-59969400D01*
X151734520Y-64637920D02*
X147066000Y-59969400D01*
X162326320Y-64637920D02*
X151734520Y-64637920D01*
X163403280Y-65714880D02*
X162326320Y-64637920D01*
X170451780Y-65714880D02*
X163403280Y-65714880D01*
X168943020Y-69761100D02*
X171335700Y-69761100D01*
X171335700Y-69761100D02*
X172278040Y-70703440D01*
X187680600Y-83781900D02*
X185356500Y-83781900D01*
X211144180Y-102222300D02*
X212336480Y-101030000D01*
X208597500Y-102222300D02*
X211144180Y-102222300D01*
X206844900Y-100469700D02*
X208597500Y-102222300D01*
X206844900Y-93992700D02*
X206844900Y-100469700D01*
X187680600Y-83781900D02*
X196072760Y-92174060D01*
X196072760Y-92174060D02*
X205026260Y-92174060D01*
X205026260Y-92174060D02*
X206844900Y-93992700D01*
X185356500Y-83781900D02*
X172278040Y-70703440D01*
X135069820Y-62523060D02*
X135418520Y-62523060D01*
X135418520Y-62523060D02*
X138750040Y-65854580D01*
X161925000Y-69761100D02*
X168943020Y-69761100D01*
X138750040Y-65854580D02*
X144645380Y-65854580D01*
X144645380Y-65854580D02*
X149926040Y-71135240D01*
X149926040Y-71135240D02*
X160550860Y-71135240D01*
X160550860Y-71135240D02*
X161925000Y-69761100D01*
X135069820Y-62523060D02*
X135695380Y-62523060D01*
X135069820Y-62523060D02*
X135069820Y-63040500D01*
D31*
X212336480Y-101030000D02*
X212228200Y-101030000D01*
X203987400Y-106898440D02*
X204243940Y-106898440D01*
X210286600Y-109423200D02*
X212336480Y-111473080D01*
X206768700Y-109423200D02*
X210286600Y-109423200D01*
X204243940Y-106898440D02*
X206768700Y-109423200D01*
X212336480Y-111473080D02*
X212336480Y-112490000D01*
X167490340Y-104001260D02*
X170610220Y-104001260D01*
X212336480Y-111473080D02*
X212336480Y-112490000D01*
X173507400Y-106898440D02*
X203987400Y-106898440D01*
X170610220Y-104001260D02*
X173507400Y-106898440D01*
X197891400Y-112095280D02*
X204284580Y-112095280D01*
X212336480Y-115437820D02*
X212336480Y-114530000D01*
X211645500Y-116128800D02*
X212336480Y-115437820D01*
X208318100Y-116128800D02*
X211645500Y-116128800D01*
X204284580Y-112095280D02*
X208318100Y-116128800D01*
X167490340Y-109081260D02*
X171052180Y-109081260D01*
X174066200Y-112095280D02*
X197891400Y-112095280D01*
X171052180Y-109081260D02*
X174066200Y-112095280D01*
D30*
X161026000Y-57267000D02*
X162613500Y-57267000D01*
X210936840Y-82524600D02*
X212336480Y-83924240D01*
X196748400Y-82524600D02*
X210936840Y-82524600D01*
X174269400Y-60045600D02*
X196748400Y-82524600D01*
X165392100Y-60045600D02*
X174269400Y-60045600D01*
X162613500Y-57267000D02*
X165392100Y-60045600D01*
X212336480Y-83924240D02*
X212336480Y-85490000D01*
X166187120Y-64094360D02*
X174038260Y-64094360D01*
X211352560Y-88513920D02*
X212336480Y-87530000D01*
X198457820Y-88513920D02*
X211352560Y-88513920D01*
X174038260Y-64094360D02*
X198457820Y-88513920D01*
X161026000Y-62347000D02*
X162707480Y-62347000D01*
X164454840Y-64094360D02*
X166187120Y-64094360D01*
X162707480Y-62347000D02*
X164454840Y-64094360D01*
D31*
X161026000Y-62347000D02*
X161026000Y-62537500D01*
D33*
G36*
X215826480Y-56034046D02*
X211819847Y-52027413D01*
X212425624Y-51777111D01*
X213171731Y-51032305D01*
X213576019Y-50058670D01*
X213576939Y-49004435D01*
X213174351Y-48030096D01*
X212429545Y-47283989D01*
X211455910Y-46879701D01*
X210401675Y-46878781D01*
X209427336Y-47281369D01*
X208681229Y-48026175D01*
X208276941Y-48999810D01*
X208276399Y-49621380D01*
X205121987Y-49621380D01*
X205342372Y-49401379D01*
X205847504Y-48184888D01*
X205848653Y-46867691D01*
X205345646Y-45650320D01*
X204415059Y-44718108D01*
X203198568Y-44212976D01*
X201881371Y-44211827D01*
X200664000Y-44714834D01*
X199731788Y-45645421D01*
X199226656Y-46861912D01*
X199226007Y-47606283D01*
X199016608Y-47280868D01*
X199143160Y-47091469D01*
X199282080Y-46393072D01*
X199282080Y-45913728D01*
X199143160Y-45215331D01*
X198747550Y-44623258D01*
X198155477Y-44227648D01*
X197457080Y-44088728D01*
X196758683Y-44227648D01*
X196187080Y-44609580D01*
X195615477Y-44227648D01*
X194917080Y-44088728D01*
X194218683Y-44227648D01*
X193647080Y-44609580D01*
X193075477Y-44227648D01*
X192377080Y-44088728D01*
X191678683Y-44227648D01*
X191107080Y-44609580D01*
X190535477Y-44227648D01*
X189837080Y-44088728D01*
X189138683Y-44227648D01*
X188567080Y-44609580D01*
X187995477Y-44227648D01*
X187297080Y-44088728D01*
X186598683Y-44227648D01*
X186027080Y-44609580D01*
X185455477Y-44227648D01*
X184757080Y-44088728D01*
X184058683Y-44227648D01*
X183487080Y-44609580D01*
X182915477Y-44227648D01*
X182217080Y-44088728D01*
X181518683Y-44227648D01*
X180947080Y-44609580D01*
X180375477Y-44227648D01*
X179677080Y-44088728D01*
X178978683Y-44227648D01*
X178407080Y-44609580D01*
X177835477Y-44227648D01*
X177137080Y-44088728D01*
X176438683Y-44227648D01*
X175867080Y-44609580D01*
X175295477Y-44227648D01*
X174597080Y-44088728D01*
X173898683Y-44227648D01*
X173327080Y-44609580D01*
X172755477Y-44227648D01*
X172057080Y-44088728D01*
X171358683Y-44227648D01*
X170787080Y-44609580D01*
X170215477Y-44227648D01*
X169517080Y-44088728D01*
X168818683Y-44227648D01*
X168247080Y-44609580D01*
X167675477Y-44227648D01*
X166977080Y-44088728D01*
X166278683Y-44227648D01*
X165707080Y-44609580D01*
X165135477Y-44227648D01*
X164437080Y-44088728D01*
X163738683Y-44227648D01*
X163167080Y-44609580D01*
X162595477Y-44227648D01*
X161897080Y-44088728D01*
X161198683Y-44227648D01*
X160627080Y-44609580D01*
X160055477Y-44227648D01*
X159357080Y-44088728D01*
X158658683Y-44227648D01*
X158087080Y-44609580D01*
X157515477Y-44227648D01*
X156817080Y-44088728D01*
X156118683Y-44227648D01*
X155547080Y-44609580D01*
X154975477Y-44227648D01*
X154277080Y-44088728D01*
X153578683Y-44227648D01*
X153007080Y-44609580D01*
X152435477Y-44227648D01*
X151737080Y-44088728D01*
X151038683Y-44227648D01*
X150467080Y-44609580D01*
X149895477Y-44227648D01*
X149197080Y-44088728D01*
X148498683Y-44227648D01*
X147927080Y-44609580D01*
X147355477Y-44227648D01*
X146657080Y-44088728D01*
X145958683Y-44227648D01*
X145387080Y-44609580D01*
X144815477Y-44227648D01*
X144117080Y-44088728D01*
X143418683Y-44227648D01*
X142847080Y-44609580D01*
X142275477Y-44227648D01*
X141577080Y-44088728D01*
X140878683Y-44227648D01*
X140286610Y-44623258D01*
X139891000Y-45215331D01*
X139752080Y-45913728D01*
X139752080Y-46393072D01*
X139891000Y-47091469D01*
X140179607Y-47523400D01*
X139891000Y-47955331D01*
X139752080Y-48653728D01*
X139752080Y-49133072D01*
X139891000Y-49831469D01*
X140286610Y-50423542D01*
X140878683Y-50819152D01*
X141577080Y-50958072D01*
X142275477Y-50819152D01*
X142847080Y-50437220D01*
X143418683Y-50819152D01*
X144117080Y-50958072D01*
X144815477Y-50819152D01*
X145387080Y-50437220D01*
X145958683Y-50819152D01*
X146657080Y-50958072D01*
X147355477Y-50819152D01*
X147927080Y-50437220D01*
X148498683Y-50819152D01*
X149197080Y-50958072D01*
X149895477Y-50819152D01*
X150467080Y-50437220D01*
X151038683Y-50819152D01*
X151737080Y-50958072D01*
X152435477Y-50819152D01*
X153007080Y-50437220D01*
X153578683Y-50819152D01*
X154277080Y-50958072D01*
X154975477Y-50819152D01*
X155547080Y-50437220D01*
X156118683Y-50819152D01*
X156817080Y-50958072D01*
X157515477Y-50819152D01*
X158087080Y-50437220D01*
X158658683Y-50819152D01*
X159357080Y-50958072D01*
X160055477Y-50819152D01*
X160627080Y-50437220D01*
X161198683Y-50819152D01*
X161897080Y-50958072D01*
X162595477Y-50819152D01*
X163167080Y-50437220D01*
X163738683Y-50819152D01*
X164437080Y-50958072D01*
X165135477Y-50819152D01*
X165707080Y-50437220D01*
X166278683Y-50819152D01*
X166977080Y-50958072D01*
X167675477Y-50819152D01*
X168247080Y-50437220D01*
X168818683Y-50819152D01*
X169517080Y-50958072D01*
X170215477Y-50819152D01*
X170787080Y-50437220D01*
X171358683Y-50819152D01*
X172057080Y-50958072D01*
X172755477Y-50819152D01*
X173327080Y-50437220D01*
X173898683Y-50819152D01*
X174597080Y-50958072D01*
X175295477Y-50819152D01*
X175867080Y-50437220D01*
X176438683Y-50819152D01*
X177137080Y-50958072D01*
X177835477Y-50819152D01*
X178407080Y-50437220D01*
X178978683Y-50819152D01*
X179677080Y-50958072D01*
X180375477Y-50819152D01*
X180947080Y-50437220D01*
X181518683Y-50819152D01*
X182217080Y-50958072D01*
X182915477Y-50819152D01*
X183487080Y-50437220D01*
X184058683Y-50819152D01*
X184757080Y-50958072D01*
X185455477Y-50819152D01*
X185855560Y-50551825D01*
X185855560Y-56295441D01*
X185801856Y-56329999D01*
X185567818Y-56672525D01*
X185485480Y-57079120D01*
X185485480Y-58379120D01*
X185556952Y-58758962D01*
X185781439Y-59107824D01*
X185855560Y-59158469D01*
X185855560Y-60209440D01*
X185964032Y-60754764D01*
X186272933Y-61217067D01*
X190660773Y-65604907D01*
X191123076Y-65913808D01*
X191668400Y-66022280D01*
X204129640Y-66022280D01*
X204674964Y-65913808D01*
X204700487Y-65896754D01*
X207492805Y-65896754D01*
X207949800Y-66353749D01*
X208406795Y-65896754D01*
X212492805Y-65896754D01*
X212949800Y-66353749D01*
X213406795Y-65896754D01*
X213244498Y-65811765D01*
X212757589Y-65791379D01*
X212655102Y-65811765D01*
X212492805Y-65896754D01*
X208406795Y-65896754D01*
X208244498Y-65811765D01*
X207757589Y-65791379D01*
X207655102Y-65811765D01*
X207492805Y-65896754D01*
X204700487Y-65896754D01*
X205137267Y-65604907D01*
X208210667Y-62531507D01*
X208519568Y-62069204D01*
X208628040Y-61523880D01*
X208628040Y-61065997D01*
X208678609Y-61188384D01*
X209423415Y-61934491D01*
X210397050Y-62338779D01*
X211451285Y-62339699D01*
X212425624Y-61937111D01*
X213171731Y-61192305D01*
X213576019Y-60218670D01*
X213576939Y-59164435D01*
X213174351Y-58190096D01*
X212429545Y-57443989D01*
X211455910Y-57039701D01*
X210401675Y-57038781D01*
X209427336Y-57441369D01*
X208681229Y-58186175D01*
X208628040Y-58314269D01*
X208628040Y-54612540D01*
X208519568Y-54067216D01*
X208210667Y-53604913D01*
X207077134Y-52471380D01*
X208233306Y-52471380D01*
X213992400Y-58230474D01*
X213992400Y-66654651D01*
X213621551Y-67025500D01*
X213992400Y-67396349D01*
X213992400Y-71654651D01*
X213621551Y-72025500D01*
X213992400Y-72396349D01*
X213992400Y-73369466D01*
X212180466Y-75181400D01*
X196373455Y-75181400D01*
X193385045Y-72192990D01*
X194721180Y-72192990D01*
X194721180Y-72561604D01*
X194740210Y-72607547D01*
X194775373Y-72642710D01*
X194821316Y-72661740D01*
X195139930Y-72661740D01*
X195171180Y-72630490D01*
X195171180Y-72161740D01*
X195821180Y-72161740D01*
X195821180Y-72630490D01*
X195852430Y-72661740D01*
X196171044Y-72661740D01*
X196216987Y-72642710D01*
X196252150Y-72607547D01*
X196271180Y-72561604D01*
X196271180Y-72192990D01*
X196239930Y-72161740D01*
X195821180Y-72161740D01*
X195171180Y-72161740D01*
X194752430Y-72161740D01*
X194721180Y-72192990D01*
X193385045Y-72192990D01*
X192203931Y-71011876D01*
X194721180Y-71011876D01*
X194721180Y-71380490D01*
X194752430Y-71411740D01*
X195171180Y-71411740D01*
X195171180Y-70942990D01*
X195821180Y-70942990D01*
X195821180Y-71411740D01*
X196239930Y-71411740D01*
X196271180Y-71380490D01*
X196271180Y-71011876D01*
X196252150Y-70965933D01*
X196216987Y-70930770D01*
X196171044Y-70911740D01*
X195852430Y-70911740D01*
X195821180Y-70942990D01*
X195171180Y-70942990D01*
X195139930Y-70911740D01*
X194821316Y-70911740D01*
X194775373Y-70930770D01*
X194740210Y-70965933D01*
X194721180Y-71011876D01*
X192203931Y-71011876D01*
X191630906Y-70438852D01*
X191997340Y-70511740D01*
X194062501Y-70511740D01*
X194097059Y-70565444D01*
X194439585Y-70799482D01*
X194846180Y-70881820D01*
X196146180Y-70881820D01*
X196526022Y-70810348D01*
X196834667Y-70611740D01*
X197863494Y-70611740D01*
X197850918Y-70630145D01*
X197768580Y-71036740D01*
X197768580Y-72536740D01*
X197840052Y-72916582D01*
X198064539Y-73265444D01*
X198407065Y-73499482D01*
X198813660Y-73581820D01*
X200113660Y-73581820D01*
X200493502Y-73510348D01*
X200802147Y-73311740D01*
X203219060Y-73311740D01*
X203802652Y-73195656D01*
X203864626Y-73154246D01*
X207492805Y-73154246D01*
X207655102Y-73239235D01*
X208142011Y-73259621D01*
X208244498Y-73239235D01*
X208406795Y-73154246D01*
X212492805Y-73154246D01*
X212655102Y-73239235D01*
X213142011Y-73259621D01*
X213244498Y-73239235D01*
X213406795Y-73154246D01*
X212949800Y-72697251D01*
X212492805Y-73154246D01*
X208406795Y-73154246D01*
X207949800Y-72697251D01*
X207492805Y-73154246D01*
X203864626Y-73154246D01*
X204297398Y-72865078D01*
X204944765Y-72217711D01*
X206715679Y-72217711D01*
X206736065Y-72320198D01*
X206821054Y-72482495D01*
X207278049Y-72025500D01*
X208621551Y-72025500D01*
X209078546Y-72482495D01*
X209163535Y-72320198D01*
X209167825Y-72217711D01*
X211715679Y-72217711D01*
X211736065Y-72320198D01*
X211821054Y-72482495D01*
X212278049Y-72025500D01*
X211821054Y-71568505D01*
X211736065Y-71730802D01*
X211715679Y-72217711D01*
X209167825Y-72217711D01*
X209183921Y-71833289D01*
X209163535Y-71730802D01*
X209078546Y-71568505D01*
X208621551Y-72025500D01*
X207278049Y-72025500D01*
X206821054Y-71568505D01*
X206736065Y-71730802D01*
X206715679Y-72217711D01*
X204944765Y-72217711D01*
X206111976Y-71050500D01*
X207646551Y-71050500D01*
X207949800Y-71353749D01*
X208253049Y-71050500D01*
X208969556Y-71050500D01*
X209244513Y-71325937D01*
X210025257Y-71650130D01*
X210870634Y-71650868D01*
X211651943Y-71328038D01*
X212083980Y-70896754D01*
X212492805Y-70896754D01*
X212949800Y-71353749D01*
X213406795Y-70896754D01*
X213244498Y-70811765D01*
X212757589Y-70791379D01*
X212655102Y-70811765D01*
X212492805Y-70896754D01*
X212083980Y-70896754D01*
X212250237Y-70730787D01*
X212574430Y-69950043D01*
X212575168Y-69104666D01*
X212252338Y-68323357D01*
X212083522Y-68154246D01*
X212492805Y-68154246D01*
X212655102Y-68239235D01*
X213142011Y-68259621D01*
X213244498Y-68239235D01*
X213406795Y-68154246D01*
X212949800Y-67697251D01*
X212492805Y-68154246D01*
X212083522Y-68154246D01*
X211655087Y-67725063D01*
X210874343Y-67400870D01*
X210028966Y-67400132D01*
X209247657Y-67722962D01*
X208969634Y-68000500D01*
X208253049Y-68000500D01*
X207949800Y-67697251D01*
X207646551Y-68000500D01*
X205480300Y-68000500D01*
X204896708Y-68116584D01*
X204401962Y-68447162D01*
X202587384Y-70261740D01*
X201063826Y-70261740D01*
X201076402Y-70243335D01*
X201158740Y-69836740D01*
X201158740Y-68336740D01*
X201087268Y-67956898D01*
X200862781Y-67608036D01*
X200520255Y-67373998D01*
X200113660Y-67291660D01*
X198813660Y-67291660D01*
X198433818Y-67363132D01*
X198125173Y-67561740D01*
X196827545Y-67561740D01*
X196552775Y-67373998D01*
X196146180Y-67291660D01*
X194846180Y-67291660D01*
X194466338Y-67363132D01*
X194117476Y-67587619D01*
X194066831Y-67661740D01*
X192587594Y-67661740D01*
X192143565Y-67217711D01*
X206715679Y-67217711D01*
X206736065Y-67320198D01*
X206821054Y-67482495D01*
X207278049Y-67025500D01*
X208621551Y-67025500D01*
X209078546Y-67482495D01*
X209163535Y-67320198D01*
X209167825Y-67217711D01*
X211715679Y-67217711D01*
X211736065Y-67320198D01*
X211821054Y-67482495D01*
X212278049Y-67025500D01*
X211821054Y-66568505D01*
X211736065Y-66730802D01*
X211715679Y-67217711D01*
X209167825Y-67217711D01*
X209183921Y-66833289D01*
X209163535Y-66730802D01*
X209078546Y-66568505D01*
X208621551Y-67025500D01*
X207278049Y-67025500D01*
X206821054Y-66568505D01*
X206736065Y-66730802D01*
X206715679Y-67217711D01*
X192143565Y-67217711D01*
X176305727Y-51379873D01*
X175843424Y-51070972D01*
X175298100Y-50962500D01*
X140563600Y-50962500D01*
X140082465Y-51058204D01*
X140018276Y-51070972D01*
X139807633Y-51211719D01*
X139808653Y-50042691D01*
X139305646Y-48825320D01*
X138375059Y-47893108D01*
X137158568Y-47387976D01*
X135841371Y-47386827D01*
X134624000Y-47889834D01*
X133691788Y-48820421D01*
X133186656Y-50036912D01*
X133185507Y-51354109D01*
X133653401Y-52486500D01*
X131246880Y-52486500D01*
X130701556Y-52594972D01*
X130530542Y-52709240D01*
X130239253Y-52903873D01*
X127770373Y-55372753D01*
X127461472Y-55835056D01*
X127353000Y-56380380D01*
X127353000Y-69265800D01*
X127461472Y-69811124D01*
X127770373Y-70273427D01*
X131316213Y-73819267D01*
X131778516Y-74128168D01*
X132323840Y-74236640D01*
X133636330Y-74236640D01*
X133618289Y-74254650D01*
X133355120Y-74888431D01*
X133354521Y-75574678D01*
X133616583Y-76208918D01*
X134101410Y-76694591D01*
X134735191Y-76957760D01*
X135421438Y-76958359D01*
X136055678Y-76696297D01*
X136541351Y-76211470D01*
X136804520Y-75577689D01*
X136805119Y-74891442D01*
X136727982Y-74704756D01*
X152852080Y-90828854D01*
X152852080Y-92766013D01*
X152435477Y-92487648D01*
X151737080Y-92348728D01*
X151038683Y-92487648D01*
X150467080Y-92869580D01*
X149895477Y-92487648D01*
X149197080Y-92348728D01*
X148498683Y-92487648D01*
X147927080Y-92869580D01*
X147355477Y-92487648D01*
X146657080Y-92348728D01*
X145958683Y-92487648D01*
X145366610Y-92883258D01*
X144971000Y-93475331D01*
X144906808Y-93798046D01*
X144699421Y-93534013D01*
X144642628Y-93452201D01*
X144517080Y-93414157D01*
X144517080Y-93938400D01*
X144612080Y-93938400D01*
X144612080Y-94888400D01*
X144517080Y-94888400D01*
X144517080Y-95412643D01*
X144642628Y-95374599D01*
X144699421Y-95292787D01*
X144906808Y-95028754D01*
X144971000Y-95351469D01*
X145259607Y-95783400D01*
X144971000Y-96215331D01*
X144906808Y-96538046D01*
X144699421Y-96274013D01*
X144642628Y-96192201D01*
X144517080Y-96154157D01*
X144517080Y-96678400D01*
X144612080Y-96678400D01*
X144612080Y-97628400D01*
X144517080Y-97628400D01*
X144517080Y-98152643D01*
X144642628Y-98114599D01*
X144699421Y-98032787D01*
X144906808Y-97768754D01*
X144971000Y-98091469D01*
X145366610Y-98683542D01*
X145958683Y-99079152D01*
X146657080Y-99218072D01*
X147355477Y-99079152D01*
X147927080Y-98697220D01*
X148498683Y-99079152D01*
X149197080Y-99218072D01*
X149895477Y-99079152D01*
X150467080Y-98697220D01*
X151038683Y-99079152D01*
X151737080Y-99218072D01*
X152435477Y-99079152D01*
X153007080Y-98697220D01*
X153578683Y-99079152D01*
X154277080Y-99218072D01*
X154975477Y-99079152D01*
X155547080Y-98697220D01*
X156118683Y-99079152D01*
X156817080Y-99218072D01*
X157515477Y-99079152D01*
X158087080Y-98697220D01*
X158658683Y-99079152D01*
X159357080Y-99218072D01*
X160055477Y-99079152D01*
X160627080Y-98697220D01*
X161198683Y-99079152D01*
X161897080Y-99218072D01*
X162595477Y-99079152D01*
X163167080Y-98697220D01*
X163738683Y-99079152D01*
X164437080Y-99218072D01*
X165135477Y-99079152D01*
X165707080Y-98697220D01*
X166278683Y-99079152D01*
X166977080Y-99218072D01*
X167675477Y-99079152D01*
X168247080Y-98697220D01*
X168818683Y-99079152D01*
X169517080Y-99218072D01*
X170215477Y-99079152D01*
X170787080Y-98697220D01*
X171358683Y-99079152D01*
X172057080Y-99218072D01*
X172755477Y-99079152D01*
X173327080Y-98697220D01*
X173898683Y-99079152D01*
X174597080Y-99218072D01*
X175295477Y-99079152D01*
X175867080Y-98697220D01*
X176438683Y-99079152D01*
X177137080Y-99218072D01*
X177835477Y-99079152D01*
X178407080Y-98697220D01*
X178978683Y-99079152D01*
X179677080Y-99218072D01*
X180375477Y-99079152D01*
X180947080Y-98697220D01*
X181518683Y-99079152D01*
X182217080Y-99218072D01*
X182915477Y-99079152D01*
X183487080Y-98697220D01*
X184058683Y-99079152D01*
X184757080Y-99218072D01*
X185455477Y-99079152D01*
X186027080Y-98697220D01*
X186598683Y-99079152D01*
X187297080Y-99218072D01*
X187995477Y-99079152D01*
X188567080Y-98697220D01*
X189138683Y-99079152D01*
X189498852Y-99150794D01*
X188461946Y-100187700D01*
X142779454Y-100187700D01*
X140440927Y-97849173D01*
X140110517Y-97628400D01*
X140756824Y-97628400D01*
X140779077Y-97758219D01*
X140994739Y-98032787D01*
X141051532Y-98114599D01*
X141177080Y-98152643D01*
X141177080Y-97628400D01*
X141977080Y-97628400D01*
X141977080Y-98152643D01*
X142102628Y-98114599D01*
X142159421Y-98032787D01*
X142375083Y-97758219D01*
X142397336Y-97628400D01*
X143296824Y-97628400D01*
X143319077Y-97758219D01*
X143534739Y-98032787D01*
X143591532Y-98114599D01*
X143717080Y-98152643D01*
X143717080Y-97628400D01*
X143296824Y-97628400D01*
X142397336Y-97628400D01*
X141977080Y-97628400D01*
X141177080Y-97628400D01*
X140756824Y-97628400D01*
X140110517Y-97628400D01*
X139978624Y-97540272D01*
X139433300Y-97431800D01*
X127568960Y-97431800D01*
X127023636Y-97540272D01*
X126561333Y-97849173D01*
X124219453Y-100191053D01*
X123910552Y-100653356D01*
X123802080Y-101198680D01*
X123802080Y-107233720D01*
X123910552Y-107779044D01*
X124219453Y-108241347D01*
X135973040Y-119994934D01*
X135437382Y-120216263D01*
X134951709Y-120701090D01*
X134688540Y-121334871D01*
X134687941Y-122021118D01*
X134950003Y-122655358D01*
X135434830Y-123141031D01*
X136068611Y-123404200D01*
X136754858Y-123404799D01*
X137389098Y-123142737D01*
X137874771Y-122657910D01*
X138098124Y-122120018D01*
X138665233Y-122687127D01*
X139127536Y-122996028D01*
X139672860Y-123104500D01*
X142581736Y-123104500D01*
X142584119Y-123108204D01*
X142926645Y-123342242D01*
X143333240Y-123424580D01*
X144733240Y-123424580D01*
X145113082Y-123353108D01*
X145461944Y-123128621D01*
X145695982Y-122786095D01*
X145778320Y-122379500D01*
X145778320Y-121656974D01*
X156220913Y-132099567D01*
X156683216Y-132408468D01*
X157228540Y-132516940D01*
X209274540Y-132516940D01*
X209574866Y-132457201D01*
X209606585Y-132616666D01*
X210023872Y-133241181D01*
X210648387Y-133658468D01*
X211385053Y-133805000D01*
X212887907Y-133805000D01*
X213624573Y-133658468D01*
X214249088Y-133241181D01*
X214666375Y-132616666D01*
X214812907Y-131880000D01*
X214666375Y-131143334D01*
X214249088Y-130518819D01*
X213624573Y-130101532D01*
X212887907Y-129955000D01*
X212426734Y-129955000D01*
X212811322Y-129570412D01*
X213244452Y-129391446D01*
X213696340Y-128940347D01*
X213941201Y-128350655D01*
X213941758Y-127712146D01*
X213697926Y-127122028D01*
X213586294Y-127010201D01*
X213696340Y-126900347D01*
X213941201Y-126310655D01*
X213941758Y-125672146D01*
X213761480Y-125235840D01*
X213761480Y-124729340D01*
X213653008Y-124184016D01*
X213344107Y-123721713D01*
X212667394Y-123045000D01*
X212887907Y-123045000D01*
X213624573Y-122898468D01*
X214249088Y-122481181D01*
X214666375Y-121856666D01*
X214812907Y-121120000D01*
X214666375Y-120383334D01*
X214249088Y-119758819D01*
X214235889Y-119750000D01*
X214249088Y-119741181D01*
X214666375Y-119116666D01*
X214812907Y-118380000D01*
X214666375Y-117643334D01*
X214249088Y-117018819D01*
X213624573Y-116601532D01*
X213378409Y-116552567D01*
X213414818Y-116516158D01*
X213745396Y-116021412D01*
X213861480Y-115437820D01*
X213861480Y-115042645D01*
X213941201Y-114850655D01*
X213941758Y-114212146D01*
X213697926Y-113622028D01*
X213586294Y-113510201D01*
X213696340Y-113400347D01*
X213941201Y-112810655D01*
X213941758Y-112172146D01*
X213861480Y-111977859D01*
X213861480Y-111473080D01*
X213745396Y-110889488D01*
X213414818Y-110394742D01*
X212565076Y-109545000D01*
X212887907Y-109545000D01*
X213624573Y-109398468D01*
X214249088Y-108981181D01*
X214666375Y-108356666D01*
X214812907Y-107620000D01*
X214666375Y-106883334D01*
X214249088Y-106258819D01*
X214235889Y-106250000D01*
X214249088Y-106241181D01*
X214666375Y-105616666D01*
X214812907Y-104880000D01*
X214666375Y-104143334D01*
X214249088Y-103518819D01*
X213624573Y-103101532D01*
X212887907Y-102955000D01*
X212426734Y-102955000D01*
X212811322Y-102570412D01*
X213244452Y-102391446D01*
X213696340Y-101940347D01*
X213941201Y-101350655D01*
X213941758Y-100712146D01*
X213697926Y-100122028D01*
X213586294Y-100010201D01*
X213696340Y-99900347D01*
X213941201Y-99310655D01*
X213941758Y-98672146D01*
X213761480Y-98235840D01*
X213761480Y-97853600D01*
X213653008Y-97308276D01*
X213344107Y-96845973D01*
X212543134Y-96045000D01*
X212887907Y-96045000D01*
X213624573Y-95898468D01*
X214249088Y-95481181D01*
X214666375Y-94856666D01*
X214812907Y-94120000D01*
X214666375Y-93383334D01*
X214249088Y-92758819D01*
X214235889Y-92750000D01*
X214249088Y-92741181D01*
X214666375Y-92116666D01*
X214812907Y-91380000D01*
X214666375Y-90643334D01*
X214249088Y-90018819D01*
X213624573Y-89601532D01*
X212887907Y-89455000D01*
X212426734Y-89455000D01*
X212811322Y-89070412D01*
X213244452Y-88891446D01*
X213696340Y-88440347D01*
X213941201Y-87850655D01*
X213941758Y-87212146D01*
X213697926Y-86622028D01*
X213586294Y-86510201D01*
X213696340Y-86400347D01*
X213941201Y-85810655D01*
X213941758Y-85172146D01*
X213761480Y-84735840D01*
X213761480Y-83924240D01*
X213653008Y-83378916D01*
X213344107Y-82916613D01*
X212958460Y-82530966D01*
X213624573Y-82398468D01*
X214249088Y-81981181D01*
X214666375Y-81356666D01*
X214812907Y-80620000D01*
X214666375Y-79883334D01*
X214249088Y-79258819D01*
X213624573Y-78841532D01*
X212887907Y-78695000D01*
X211385053Y-78695000D01*
X210648387Y-78841532D01*
X210023872Y-79258819D01*
X209606585Y-79883334D01*
X209460053Y-80620000D01*
X209555451Y-81099600D01*
X197338654Y-81099600D01*
X175277027Y-59037973D01*
X174814724Y-58729072D01*
X174269400Y-58620600D01*
X169751704Y-58620600D01*
X170117531Y-58255410D01*
X170380700Y-57621629D01*
X170381299Y-56935382D01*
X170303131Y-56746200D01*
X173907746Y-56746200D01*
X194775573Y-77614028D01*
X194775576Y-77614030D01*
X194778113Y-77616567D01*
X195240416Y-77925468D01*
X195785740Y-78033940D01*
X195798509Y-78031400D01*
X212770720Y-78031400D01*
X213316044Y-77922928D01*
X213778347Y-77614027D01*
X215826480Y-75565894D01*
X215826480Y-137030280D01*
X88008529Y-137030280D01*
X87995760Y-137027740D01*
X58011240Y-137027740D01*
X58011240Y-120231129D01*
X96716216Y-120231129D01*
X97403655Y-121894858D01*
X98675447Y-123168871D01*
X100337973Y-123859213D01*
X102138129Y-123860784D01*
X103801858Y-123173345D01*
X105075871Y-121901553D01*
X105766213Y-120239027D01*
X105767784Y-118438871D01*
X105080345Y-116775142D01*
X103808553Y-115501129D01*
X102146027Y-114810787D01*
X100345871Y-114809216D01*
X98682142Y-115496655D01*
X97408129Y-116768447D01*
X96717787Y-118430973D01*
X96716216Y-120231129D01*
X58011240Y-120231129D01*
X58011240Y-118760292D01*
X65918739Y-118760292D01*
X66133459Y-118888460D01*
X66773491Y-118979437D01*
X67230861Y-118888460D01*
X67445581Y-118760292D01*
X66682160Y-117996871D01*
X65918739Y-118760292D01*
X58011240Y-118760292D01*
X58011240Y-117416451D01*
X65027843Y-117416451D01*
X65118820Y-117873821D01*
X65246988Y-118088541D01*
X66010409Y-117325120D01*
X67353911Y-117325120D01*
X68117332Y-118088541D01*
X68245500Y-117873821D01*
X68336477Y-117233789D01*
X68245500Y-116776419D01*
X68117332Y-116561699D01*
X67353911Y-117325120D01*
X66010409Y-117325120D01*
X65246988Y-116561699D01*
X65118820Y-116776419D01*
X65027843Y-117416451D01*
X58011240Y-117416451D01*
X58011240Y-115889948D01*
X65918739Y-115889948D01*
X66682160Y-116653369D01*
X67445581Y-115889948D01*
X67230861Y-115761780D01*
X66590829Y-115670803D01*
X66133459Y-115761780D01*
X65918739Y-115889948D01*
X58011240Y-115889948D01*
X58011240Y-115088240D01*
X69069370Y-115088240D01*
X69179728Y-115150440D01*
X69524592Y-115150440D01*
X69634950Y-115088240D01*
X69352160Y-114805450D01*
X69069370Y-115088240D01*
X58011240Y-115088240D01*
X58011240Y-114102688D01*
X68476840Y-114102688D01*
X68476840Y-114447552D01*
X68539040Y-114557910D01*
X68821830Y-114275120D01*
X69882490Y-114275120D01*
X70165280Y-114557910D01*
X70227480Y-114447552D01*
X70227480Y-114102688D01*
X70165280Y-113992330D01*
X69882490Y-114275120D01*
X68821830Y-114275120D01*
X68539040Y-113992330D01*
X68476840Y-114102688D01*
X58011240Y-114102688D01*
X58011240Y-107516640D01*
X67576853Y-107516640D01*
X67846511Y-108169263D01*
X68111931Y-108435146D01*
X67848266Y-108698351D01*
X67577469Y-109350502D01*
X67576853Y-110056640D01*
X67846511Y-110709263D01*
X67856931Y-110719701D01*
X67848266Y-110728351D01*
X67577469Y-111380502D01*
X67576853Y-112086640D01*
X67846511Y-112739263D01*
X68345391Y-113239014D01*
X68997542Y-113509811D01*
X69117285Y-113509915D01*
X69352160Y-113744790D01*
X69586625Y-113510325D01*
X69703680Y-113510427D01*
X70356303Y-113240769D01*
X70856054Y-112741889D01*
X71126851Y-112089738D01*
X71127467Y-111383600D01*
X70857809Y-110730977D01*
X70847389Y-110720539D01*
X70856054Y-110711889D01*
X71126851Y-110059738D01*
X71127467Y-109353600D01*
X70857809Y-108700977D01*
X70592389Y-108435094D01*
X70856054Y-108171889D01*
X71126851Y-107519738D01*
X71127467Y-106813600D01*
X70857809Y-106160977D01*
X70358929Y-105661226D01*
X69706778Y-105390429D01*
X69000640Y-105389813D01*
X68348017Y-105659471D01*
X67848266Y-106158351D01*
X67577469Y-106810502D01*
X67576853Y-107516640D01*
X58011240Y-107516640D01*
X58011240Y-105040292D01*
X65918739Y-105040292D01*
X66133459Y-105168460D01*
X66773491Y-105259437D01*
X67230861Y-105168460D01*
X67445581Y-105040292D01*
X66682160Y-104276871D01*
X65918739Y-105040292D01*
X58011240Y-105040292D01*
X58011240Y-103696451D01*
X65027843Y-103696451D01*
X65118820Y-104153821D01*
X65246988Y-104368541D01*
X66010409Y-103605120D01*
X67353911Y-103605120D01*
X68117332Y-104368541D01*
X68245500Y-104153821D01*
X68336477Y-103513789D01*
X68245500Y-103056419D01*
X68117332Y-102841699D01*
X67353911Y-103605120D01*
X66010409Y-103605120D01*
X65246988Y-102841699D01*
X65118820Y-103056419D01*
X65027843Y-103696451D01*
X58011240Y-103696451D01*
X58011240Y-102169948D01*
X65918739Y-102169948D01*
X66682160Y-102933369D01*
X67445581Y-102169948D01*
X67230861Y-102041780D01*
X66590829Y-101950803D01*
X66133459Y-102041780D01*
X65918739Y-102169948D01*
X58011240Y-102169948D01*
X58011240Y-96678400D01*
X140756824Y-96678400D01*
X141177080Y-96678400D01*
X141977080Y-96678400D01*
X142397336Y-96678400D01*
X143296824Y-96678400D01*
X143717080Y-96678400D01*
X143717080Y-96154157D01*
X143591532Y-96192201D01*
X143534739Y-96274013D01*
X143319077Y-96548581D01*
X143296824Y-96678400D01*
X142397336Y-96678400D01*
X142375083Y-96548581D01*
X142159421Y-96274013D01*
X142102628Y-96192201D01*
X141977080Y-96154157D01*
X141977080Y-96678400D01*
X141177080Y-96678400D01*
X141177080Y-96154157D01*
X141051532Y-96192201D01*
X140994739Y-96274013D01*
X140779077Y-96548581D01*
X140756824Y-96678400D01*
X58011240Y-96678400D01*
X58011240Y-92583000D01*
X61588267Y-92583000D01*
X61730993Y-93300531D01*
X62137442Y-93908825D01*
X62745736Y-94315274D01*
X63463267Y-94458000D01*
X63536733Y-94458000D01*
X64254264Y-94315274D01*
X64462247Y-94176304D01*
X64783405Y-94395742D01*
X65190000Y-94478080D01*
X66890000Y-94478080D01*
X67269842Y-94406608D01*
X67618704Y-94182121D01*
X67852742Y-93839595D01*
X67935080Y-93433000D01*
X67935080Y-93264109D01*
X133185507Y-93264109D01*
X133688514Y-94481480D01*
X134619101Y-95413692D01*
X135835592Y-95918824D01*
X137152789Y-95919973D01*
X138370160Y-95416966D01*
X138899648Y-94888400D01*
X140756824Y-94888400D01*
X140779077Y-95018219D01*
X140994739Y-95292787D01*
X141051532Y-95374599D01*
X141177080Y-95412643D01*
X141177080Y-94888400D01*
X141977080Y-94888400D01*
X141977080Y-95412643D01*
X142102628Y-95374599D01*
X142159421Y-95292787D01*
X142375083Y-95018219D01*
X142397336Y-94888400D01*
X143296824Y-94888400D01*
X143319077Y-95018219D01*
X143534739Y-95292787D01*
X143591532Y-95374599D01*
X143717080Y-95412643D01*
X143717080Y-94888400D01*
X143296824Y-94888400D01*
X142397336Y-94888400D01*
X141977080Y-94888400D01*
X141177080Y-94888400D01*
X140756824Y-94888400D01*
X138899648Y-94888400D01*
X139302372Y-94486379D01*
X139529913Y-93938400D01*
X140756824Y-93938400D01*
X141177080Y-93938400D01*
X141977080Y-93938400D01*
X142397336Y-93938400D01*
X143296824Y-93938400D01*
X143717080Y-93938400D01*
X143717080Y-93414157D01*
X143591532Y-93452201D01*
X143534739Y-93534013D01*
X143319077Y-93808581D01*
X143296824Y-93938400D01*
X142397336Y-93938400D01*
X142375083Y-93808581D01*
X142159421Y-93534013D01*
X142102628Y-93452201D01*
X141977080Y-93414157D01*
X141977080Y-93938400D01*
X141177080Y-93938400D01*
X141177080Y-93414157D01*
X141051532Y-93452201D01*
X140994739Y-93534013D01*
X140779077Y-93808581D01*
X140756824Y-93938400D01*
X139529913Y-93938400D01*
X139807504Y-93269888D01*
X139808653Y-91952691D01*
X139305646Y-90735320D01*
X138375059Y-89803108D01*
X137158568Y-89297976D01*
X135841371Y-89296827D01*
X134624000Y-89799834D01*
X133691788Y-90730421D01*
X133186656Y-91946912D01*
X133185507Y-93264109D01*
X67935080Y-93264109D01*
X67935080Y-91733000D01*
X67863608Y-91353158D01*
X67639121Y-91004296D01*
X67296595Y-90770258D01*
X66890000Y-90687920D01*
X65190000Y-90687920D01*
X64810158Y-90759392D01*
X64461296Y-90983879D01*
X64458865Y-90987436D01*
X64254264Y-90850726D01*
X63536733Y-90708000D01*
X63463267Y-90708000D01*
X62745736Y-90850726D01*
X62137442Y-91257175D01*
X61730993Y-91865469D01*
X61588267Y-92583000D01*
X58011240Y-92583000D01*
X58011240Y-79883000D01*
X61588267Y-79883000D01*
X61730993Y-80600531D01*
X62137442Y-81208825D01*
X62745736Y-81615274D01*
X63463267Y-81758000D01*
X63536733Y-81758000D01*
X64254264Y-81615274D01*
X64862558Y-81208825D01*
X64914472Y-81131129D01*
X96716216Y-81131129D01*
X97403655Y-82794858D01*
X98675447Y-84068871D01*
X100337973Y-84759213D01*
X102138129Y-84760784D01*
X103801858Y-84073345D01*
X105075871Y-82801553D01*
X105766213Y-81139027D01*
X105767784Y-79338871D01*
X105080345Y-77675142D01*
X103808553Y-76401129D01*
X102146027Y-75710787D01*
X100345871Y-75709216D01*
X98682142Y-76396655D01*
X97408129Y-77668447D01*
X96717787Y-79330973D01*
X96716216Y-81131129D01*
X64914472Y-81131129D01*
X65269007Y-80600531D01*
X65290785Y-80491044D01*
X65482953Y-80683262D01*
X65615000Y-80729301D01*
X65615000Y-80308000D01*
X66465000Y-80308000D01*
X66465000Y-80729301D01*
X66597047Y-80683262D01*
X66840208Y-80440038D01*
X66882638Y-80308000D01*
X66465000Y-80308000D01*
X65615000Y-80308000D01*
X65545000Y-80308000D01*
X65545000Y-79458000D01*
X65615000Y-79458000D01*
X66465000Y-79458000D01*
X66882638Y-79458000D01*
X66840208Y-79325962D01*
X66597047Y-79082738D01*
X66465000Y-79036699D01*
X66465000Y-79458000D01*
X65615000Y-79458000D01*
X65615000Y-79036699D01*
X65482953Y-79082738D01*
X65290785Y-79274956D01*
X65269007Y-79165469D01*
X64862558Y-78557175D01*
X64254264Y-78150726D01*
X63536733Y-78008000D01*
X63463267Y-78008000D01*
X62745736Y-78150726D01*
X62137442Y-78557175D01*
X61730993Y-79165469D01*
X61588267Y-79883000D01*
X58011240Y-79883000D01*
X58011240Y-68091220D01*
X87934800Y-68091220D01*
X88355752Y-68007487D01*
X88712617Y-67769037D01*
X88951067Y-67412172D01*
X89034800Y-66991220D01*
X89034800Y-48349500D01*
X118590120Y-48349500D01*
X118590120Y-50329500D01*
X118661592Y-50709342D01*
X118886079Y-51058204D01*
X119228605Y-51292242D01*
X119635200Y-51374580D01*
X123595200Y-51374580D01*
X123975042Y-51303108D01*
X124323904Y-51078621D01*
X124557942Y-50736095D01*
X124640280Y-50329500D01*
X124640280Y-48349500D01*
X124568808Y-47969658D01*
X124344321Y-47620796D01*
X124001795Y-47386758D01*
X123595200Y-47304420D01*
X119635200Y-47304420D01*
X119255358Y-47375892D01*
X118906496Y-47600379D01*
X118672458Y-47942905D01*
X118590120Y-48349500D01*
X89034800Y-48349500D01*
X89034800Y-44814500D01*
X119651091Y-44814500D01*
X119703164Y-44966457D01*
X119759665Y-45187851D01*
X120150200Y-45454500D01*
X121140200Y-45454500D01*
X121140200Y-44814500D01*
X122090200Y-44814500D01*
X122090200Y-45454500D01*
X123080200Y-45454500D01*
X123470735Y-45187851D01*
X123527236Y-44966457D01*
X123579309Y-44814500D01*
X122090200Y-44814500D01*
X121140200Y-44814500D01*
X119651091Y-44814500D01*
X89034800Y-44814500D01*
X89034800Y-43864500D01*
X119651091Y-43864500D01*
X121140200Y-43864500D01*
X121140200Y-43224500D01*
X122090200Y-43224500D01*
X122090200Y-43864500D01*
X123579309Y-43864500D01*
X123527236Y-43712543D01*
X123470735Y-43491149D01*
X123080200Y-43224500D01*
X122090200Y-43224500D01*
X121140200Y-43224500D01*
X120150200Y-43224500D01*
X119759665Y-43491149D01*
X119703164Y-43712543D01*
X119651091Y-43864500D01*
X89034800Y-43864500D01*
X89034800Y-39230280D01*
X215826480Y-39230280D01*
X215826480Y-56034046D01*
X215826480Y-56034046D01*
G37*
X215826480Y-56034046D02*
X211819847Y-52027413D01*
X212425624Y-51777111D01*
X213171731Y-51032305D01*
X213576019Y-50058670D01*
X213576939Y-49004435D01*
X213174351Y-48030096D01*
X212429545Y-47283989D01*
X211455910Y-46879701D01*
X210401675Y-46878781D01*
X209427336Y-47281369D01*
X208681229Y-48026175D01*
X208276941Y-48999810D01*
X208276399Y-49621380D01*
X205121987Y-49621380D01*
X205342372Y-49401379D01*
X205847504Y-48184888D01*
X205848653Y-46867691D01*
X205345646Y-45650320D01*
X204415059Y-44718108D01*
X203198568Y-44212976D01*
X201881371Y-44211827D01*
X200664000Y-44714834D01*
X199731788Y-45645421D01*
X199226656Y-46861912D01*
X199226007Y-47606283D01*
X199016608Y-47280868D01*
X199143160Y-47091469D01*
X199282080Y-46393072D01*
X199282080Y-45913728D01*
X199143160Y-45215331D01*
X198747550Y-44623258D01*
X198155477Y-44227648D01*
X197457080Y-44088728D01*
X196758683Y-44227648D01*
X196187080Y-44609580D01*
X195615477Y-44227648D01*
X194917080Y-44088728D01*
X194218683Y-44227648D01*
X193647080Y-44609580D01*
X193075477Y-44227648D01*
X192377080Y-44088728D01*
X191678683Y-44227648D01*
X191107080Y-44609580D01*
X190535477Y-44227648D01*
X189837080Y-44088728D01*
X189138683Y-44227648D01*
X188567080Y-44609580D01*
X187995477Y-44227648D01*
X187297080Y-44088728D01*
X186598683Y-44227648D01*
X186027080Y-44609580D01*
X185455477Y-44227648D01*
X184757080Y-44088728D01*
X184058683Y-44227648D01*
X183487080Y-44609580D01*
X182915477Y-44227648D01*
X182217080Y-44088728D01*
X181518683Y-44227648D01*
X180947080Y-44609580D01*
X180375477Y-44227648D01*
X179677080Y-44088728D01*
X178978683Y-44227648D01*
X178407080Y-44609580D01*
X177835477Y-44227648D01*
X177137080Y-44088728D01*
X176438683Y-44227648D01*
X175867080Y-44609580D01*
X175295477Y-44227648D01*
X174597080Y-44088728D01*
X173898683Y-44227648D01*
X173327080Y-44609580D01*
X172755477Y-44227648D01*
X172057080Y-44088728D01*
X171358683Y-44227648D01*
X170787080Y-44609580D01*
X170215477Y-44227648D01*
X169517080Y-44088728D01*
X168818683Y-44227648D01*
X168247080Y-44609580D01*
X167675477Y-44227648D01*
X166977080Y-44088728D01*
X166278683Y-44227648D01*
X165707080Y-44609580D01*
X165135477Y-44227648D01*
X164437080Y-44088728D01*
X163738683Y-44227648D01*
X163167080Y-44609580D01*
X162595477Y-44227648D01*
X161897080Y-44088728D01*
X161198683Y-44227648D01*
X160627080Y-44609580D01*
X160055477Y-44227648D01*
X159357080Y-44088728D01*
X158658683Y-44227648D01*
X158087080Y-44609580D01*
X157515477Y-44227648D01*
X156817080Y-44088728D01*
X156118683Y-44227648D01*
X155547080Y-44609580D01*
X154975477Y-44227648D01*
X154277080Y-44088728D01*
X153578683Y-44227648D01*
X153007080Y-44609580D01*
X152435477Y-44227648D01*
X151737080Y-44088728D01*
X151038683Y-44227648D01*
X150467080Y-44609580D01*
X149895477Y-44227648D01*
X149197080Y-44088728D01*
X148498683Y-44227648D01*
X147927080Y-44609580D01*
X147355477Y-44227648D01*
X146657080Y-44088728D01*
X145958683Y-44227648D01*
X145387080Y-44609580D01*
X144815477Y-44227648D01*
X144117080Y-44088728D01*
X143418683Y-44227648D01*
X142847080Y-44609580D01*
X142275477Y-44227648D01*
X141577080Y-44088728D01*
X140878683Y-44227648D01*
X140286610Y-44623258D01*
X139891000Y-45215331D01*
X139752080Y-45913728D01*
X139752080Y-46393072D01*
X139891000Y-47091469D01*
X140179607Y-47523400D01*
X139891000Y-47955331D01*
X139752080Y-48653728D01*
X139752080Y-49133072D01*
X139891000Y-49831469D01*
X140286610Y-50423542D01*
X140878683Y-50819152D01*
X141577080Y-50958072D01*
X142275477Y-50819152D01*
X142847080Y-50437220D01*
X143418683Y-50819152D01*
X144117080Y-50958072D01*
X144815477Y-50819152D01*
X145387080Y-50437220D01*
X145958683Y-50819152D01*
X146657080Y-50958072D01*
X147355477Y-50819152D01*
X147927080Y-50437220D01*
X148498683Y-50819152D01*
X149197080Y-50958072D01*
X149895477Y-50819152D01*
X150467080Y-50437220D01*
X151038683Y-50819152D01*
X151737080Y-50958072D01*
X152435477Y-50819152D01*
X153007080Y-50437220D01*
X153578683Y-50819152D01*
X154277080Y-50958072D01*
X154975477Y-50819152D01*
X155547080Y-50437220D01*
X156118683Y-50819152D01*
X156817080Y-50958072D01*
X157515477Y-50819152D01*
X158087080Y-50437220D01*
X158658683Y-50819152D01*
X159357080Y-50958072D01*
X160055477Y-50819152D01*
X160627080Y-50437220D01*
X161198683Y-50819152D01*
X161897080Y-50958072D01*
X162595477Y-50819152D01*
X163167080Y-50437220D01*
X163738683Y-50819152D01*
X164437080Y-50958072D01*
X165135477Y-50819152D01*
X165707080Y-50437220D01*
X166278683Y-50819152D01*
X166977080Y-50958072D01*
X167675477Y-50819152D01*
X168247080Y-50437220D01*
X168818683Y-50819152D01*
X169517080Y-50958072D01*
X170215477Y-50819152D01*
X170787080Y-50437220D01*
X171358683Y-50819152D01*
X172057080Y-50958072D01*
X172755477Y-50819152D01*
X173327080Y-50437220D01*
X173898683Y-50819152D01*
X174597080Y-50958072D01*
X175295477Y-50819152D01*
X175867080Y-50437220D01*
X176438683Y-50819152D01*
X177137080Y-50958072D01*
X177835477Y-50819152D01*
X178407080Y-50437220D01*
X178978683Y-50819152D01*
X179677080Y-50958072D01*
X180375477Y-50819152D01*
X180947080Y-50437220D01*
X181518683Y-50819152D01*
X182217080Y-50958072D01*
X182915477Y-50819152D01*
X183487080Y-50437220D01*
X184058683Y-50819152D01*
X184757080Y-50958072D01*
X185455477Y-50819152D01*
X185855560Y-50551825D01*
X185855560Y-56295441D01*
X185801856Y-56329999D01*
X185567818Y-56672525D01*
X185485480Y-57079120D01*
X185485480Y-58379120D01*
X185556952Y-58758962D01*
X185781439Y-59107824D01*
X185855560Y-59158469D01*
X185855560Y-60209440D01*
X185964032Y-60754764D01*
X186272933Y-61217067D01*
X190660773Y-65604907D01*
X191123076Y-65913808D01*
X191668400Y-66022280D01*
X204129640Y-66022280D01*
X204674964Y-65913808D01*
X204700487Y-65896754D01*
X207492805Y-65896754D01*
X207949800Y-66353749D01*
X208406795Y-65896754D01*
X212492805Y-65896754D01*
X212949800Y-66353749D01*
X213406795Y-65896754D01*
X213244498Y-65811765D01*
X212757589Y-65791379D01*
X212655102Y-65811765D01*
X212492805Y-65896754D01*
X208406795Y-65896754D01*
X208244498Y-65811765D01*
X207757589Y-65791379D01*
X207655102Y-65811765D01*
X207492805Y-65896754D01*
X204700487Y-65896754D01*
X205137267Y-65604907D01*
X208210667Y-62531507D01*
X208519568Y-62069204D01*
X208628040Y-61523880D01*
X208628040Y-61065997D01*
X208678609Y-61188384D01*
X209423415Y-61934491D01*
X210397050Y-62338779D01*
X211451285Y-62339699D01*
X212425624Y-61937111D01*
X213171731Y-61192305D01*
X213576019Y-60218670D01*
X213576939Y-59164435D01*
X213174351Y-58190096D01*
X212429545Y-57443989D01*
X211455910Y-57039701D01*
X210401675Y-57038781D01*
X209427336Y-57441369D01*
X208681229Y-58186175D01*
X208628040Y-58314269D01*
X208628040Y-54612540D01*
X208519568Y-54067216D01*
X208210667Y-53604913D01*
X207077134Y-52471380D01*
X208233306Y-52471380D01*
X213992400Y-58230474D01*
X213992400Y-66654651D01*
X213621551Y-67025500D01*
X213992400Y-67396349D01*
X213992400Y-71654651D01*
X213621551Y-72025500D01*
X213992400Y-72396349D01*
X213992400Y-73369466D01*
X212180466Y-75181400D01*
X196373455Y-75181400D01*
X193385045Y-72192990D01*
X194721180Y-72192990D01*
X194721180Y-72561604D01*
X194740210Y-72607547D01*
X194775373Y-72642710D01*
X194821316Y-72661740D01*
X195139930Y-72661740D01*
X195171180Y-72630490D01*
X195171180Y-72161740D01*
X195821180Y-72161740D01*
X195821180Y-72630490D01*
X195852430Y-72661740D01*
X196171044Y-72661740D01*
X196216987Y-72642710D01*
X196252150Y-72607547D01*
X196271180Y-72561604D01*
X196271180Y-72192990D01*
X196239930Y-72161740D01*
X195821180Y-72161740D01*
X195171180Y-72161740D01*
X194752430Y-72161740D01*
X194721180Y-72192990D01*
X193385045Y-72192990D01*
X192203931Y-71011876D01*
X194721180Y-71011876D01*
X194721180Y-71380490D01*
X194752430Y-71411740D01*
X195171180Y-71411740D01*
X195171180Y-70942990D01*
X195821180Y-70942990D01*
X195821180Y-71411740D01*
X196239930Y-71411740D01*
X196271180Y-71380490D01*
X196271180Y-71011876D01*
X196252150Y-70965933D01*
X196216987Y-70930770D01*
X196171044Y-70911740D01*
X195852430Y-70911740D01*
X195821180Y-70942990D01*
X195171180Y-70942990D01*
X195139930Y-70911740D01*
X194821316Y-70911740D01*
X194775373Y-70930770D01*
X194740210Y-70965933D01*
X194721180Y-71011876D01*
X192203931Y-71011876D01*
X191630906Y-70438852D01*
X191997340Y-70511740D01*
X194062501Y-70511740D01*
X194097059Y-70565444D01*
X194439585Y-70799482D01*
X194846180Y-70881820D01*
X196146180Y-70881820D01*
X196526022Y-70810348D01*
X196834667Y-70611740D01*
X197863494Y-70611740D01*
X197850918Y-70630145D01*
X197768580Y-71036740D01*
X197768580Y-72536740D01*
X197840052Y-72916582D01*
X198064539Y-73265444D01*
X198407065Y-73499482D01*
X198813660Y-73581820D01*
X200113660Y-73581820D01*
X200493502Y-73510348D01*
X200802147Y-73311740D01*
X203219060Y-73311740D01*
X203802652Y-73195656D01*
X203864626Y-73154246D01*
X207492805Y-73154246D01*
X207655102Y-73239235D01*
X208142011Y-73259621D01*
X208244498Y-73239235D01*
X208406795Y-73154246D01*
X212492805Y-73154246D01*
X212655102Y-73239235D01*
X213142011Y-73259621D01*
X213244498Y-73239235D01*
X213406795Y-73154246D01*
X212949800Y-72697251D01*
X212492805Y-73154246D01*
X208406795Y-73154246D01*
X207949800Y-72697251D01*
X207492805Y-73154246D01*
X203864626Y-73154246D01*
X204297398Y-72865078D01*
X204944765Y-72217711D01*
X206715679Y-72217711D01*
X206736065Y-72320198D01*
X206821054Y-72482495D01*
X207278049Y-72025500D01*
X208621551Y-72025500D01*
X209078546Y-72482495D01*
X209163535Y-72320198D01*
X209167825Y-72217711D01*
X211715679Y-72217711D01*
X211736065Y-72320198D01*
X211821054Y-72482495D01*
X212278049Y-72025500D01*
X211821054Y-71568505D01*
X211736065Y-71730802D01*
X211715679Y-72217711D01*
X209167825Y-72217711D01*
X209183921Y-71833289D01*
X209163535Y-71730802D01*
X209078546Y-71568505D01*
X208621551Y-72025500D01*
X207278049Y-72025500D01*
X206821054Y-71568505D01*
X206736065Y-71730802D01*
X206715679Y-72217711D01*
X204944765Y-72217711D01*
X206111976Y-71050500D01*
X207646551Y-71050500D01*
X207949800Y-71353749D01*
X208253049Y-71050500D01*
X208969556Y-71050500D01*
X209244513Y-71325937D01*
X210025257Y-71650130D01*
X210870634Y-71650868D01*
X211651943Y-71328038D01*
X212083980Y-70896754D01*
X212492805Y-70896754D01*
X212949800Y-71353749D01*
X213406795Y-70896754D01*
X213244498Y-70811765D01*
X212757589Y-70791379D01*
X212655102Y-70811765D01*
X212492805Y-70896754D01*
X212083980Y-70896754D01*
X212250237Y-70730787D01*
X212574430Y-69950043D01*
X212575168Y-69104666D01*
X212252338Y-68323357D01*
X212083522Y-68154246D01*
X212492805Y-68154246D01*
X212655102Y-68239235D01*
X213142011Y-68259621D01*
X213244498Y-68239235D01*
X213406795Y-68154246D01*
X212949800Y-67697251D01*
X212492805Y-68154246D01*
X212083522Y-68154246D01*
X211655087Y-67725063D01*
X210874343Y-67400870D01*
X210028966Y-67400132D01*
X209247657Y-67722962D01*
X208969634Y-68000500D01*
X208253049Y-68000500D01*
X207949800Y-67697251D01*
X207646551Y-68000500D01*
X205480300Y-68000500D01*
X204896708Y-68116584D01*
X204401962Y-68447162D01*
X202587384Y-70261740D01*
X201063826Y-70261740D01*
X201076402Y-70243335D01*
X201158740Y-69836740D01*
X201158740Y-68336740D01*
X201087268Y-67956898D01*
X200862781Y-67608036D01*
X200520255Y-67373998D01*
X200113660Y-67291660D01*
X198813660Y-67291660D01*
X198433818Y-67363132D01*
X198125173Y-67561740D01*
X196827545Y-67561740D01*
X196552775Y-67373998D01*
X196146180Y-67291660D01*
X194846180Y-67291660D01*
X194466338Y-67363132D01*
X194117476Y-67587619D01*
X194066831Y-67661740D01*
X192587594Y-67661740D01*
X192143565Y-67217711D01*
X206715679Y-67217711D01*
X206736065Y-67320198D01*
X206821054Y-67482495D01*
X207278049Y-67025500D01*
X208621551Y-67025500D01*
X209078546Y-67482495D01*
X209163535Y-67320198D01*
X209167825Y-67217711D01*
X211715679Y-67217711D01*
X211736065Y-67320198D01*
X211821054Y-67482495D01*
X212278049Y-67025500D01*
X211821054Y-66568505D01*
X211736065Y-66730802D01*
X211715679Y-67217711D01*
X209167825Y-67217711D01*
X209183921Y-66833289D01*
X209163535Y-66730802D01*
X209078546Y-66568505D01*
X208621551Y-67025500D01*
X207278049Y-67025500D01*
X206821054Y-66568505D01*
X206736065Y-66730802D01*
X206715679Y-67217711D01*
X192143565Y-67217711D01*
X176305727Y-51379873D01*
X175843424Y-51070972D01*
X175298100Y-50962500D01*
X140563600Y-50962500D01*
X140082465Y-51058204D01*
X140018276Y-51070972D01*
X139807633Y-51211719D01*
X139808653Y-50042691D01*
X139305646Y-48825320D01*
X138375059Y-47893108D01*
X137158568Y-47387976D01*
X135841371Y-47386827D01*
X134624000Y-47889834D01*
X133691788Y-48820421D01*
X133186656Y-50036912D01*
X133185507Y-51354109D01*
X133653401Y-52486500D01*
X131246880Y-52486500D01*
X130701556Y-52594972D01*
X130530542Y-52709240D01*
X130239253Y-52903873D01*
X127770373Y-55372753D01*
X127461472Y-55835056D01*
X127353000Y-56380380D01*
X127353000Y-69265800D01*
X127461472Y-69811124D01*
X127770373Y-70273427D01*
X131316213Y-73819267D01*
X131778516Y-74128168D01*
X132323840Y-74236640D01*
X133636330Y-74236640D01*
X133618289Y-74254650D01*
X133355120Y-74888431D01*
X133354521Y-75574678D01*
X133616583Y-76208918D01*
X134101410Y-76694591D01*
X134735191Y-76957760D01*
X135421438Y-76958359D01*
X136055678Y-76696297D01*
X136541351Y-76211470D01*
X136804520Y-75577689D01*
X136805119Y-74891442D01*
X136727982Y-74704756D01*
X152852080Y-90828854D01*
X152852080Y-92766013D01*
X152435477Y-92487648D01*
X151737080Y-92348728D01*
X151038683Y-92487648D01*
X150467080Y-92869580D01*
X149895477Y-92487648D01*
X149197080Y-92348728D01*
X148498683Y-92487648D01*
X147927080Y-92869580D01*
X147355477Y-92487648D01*
X146657080Y-92348728D01*
X145958683Y-92487648D01*
X145366610Y-92883258D01*
X144971000Y-93475331D01*
X144906808Y-93798046D01*
X144699421Y-93534013D01*
X144642628Y-93452201D01*
X144517080Y-93414157D01*
X144517080Y-93938400D01*
X144612080Y-93938400D01*
X144612080Y-94888400D01*
X144517080Y-94888400D01*
X144517080Y-95412643D01*
X144642628Y-95374599D01*
X144699421Y-95292787D01*
X144906808Y-95028754D01*
X144971000Y-95351469D01*
X145259607Y-95783400D01*
X144971000Y-96215331D01*
X144906808Y-96538046D01*
X144699421Y-96274013D01*
X144642628Y-96192201D01*
X144517080Y-96154157D01*
X144517080Y-96678400D01*
X144612080Y-96678400D01*
X144612080Y-97628400D01*
X144517080Y-97628400D01*
X144517080Y-98152643D01*
X144642628Y-98114599D01*
X144699421Y-98032787D01*
X144906808Y-97768754D01*
X144971000Y-98091469D01*
X145366610Y-98683542D01*
X145958683Y-99079152D01*
X146657080Y-99218072D01*
X147355477Y-99079152D01*
X147927080Y-98697220D01*
X148498683Y-99079152D01*
X149197080Y-99218072D01*
X149895477Y-99079152D01*
X150467080Y-98697220D01*
X151038683Y-99079152D01*
X151737080Y-99218072D01*
X152435477Y-99079152D01*
X153007080Y-98697220D01*
X153578683Y-99079152D01*
X154277080Y-99218072D01*
X154975477Y-99079152D01*
X155547080Y-98697220D01*
X156118683Y-99079152D01*
X156817080Y-99218072D01*
X157515477Y-99079152D01*
X158087080Y-98697220D01*
X158658683Y-99079152D01*
X159357080Y-99218072D01*
X160055477Y-99079152D01*
X160627080Y-98697220D01*
X161198683Y-99079152D01*
X161897080Y-99218072D01*
X162595477Y-99079152D01*
X163167080Y-98697220D01*
X163738683Y-99079152D01*
X164437080Y-99218072D01*
X165135477Y-99079152D01*
X165707080Y-98697220D01*
X166278683Y-99079152D01*
X166977080Y-99218072D01*
X167675477Y-99079152D01*
X168247080Y-98697220D01*
X168818683Y-99079152D01*
X169517080Y-99218072D01*
X170215477Y-99079152D01*
X170787080Y-98697220D01*
X171358683Y-99079152D01*
X172057080Y-99218072D01*
X172755477Y-99079152D01*
X173327080Y-98697220D01*
X173898683Y-99079152D01*
X174597080Y-99218072D01*
X175295477Y-99079152D01*
X175867080Y-98697220D01*
X176438683Y-99079152D01*
X177137080Y-99218072D01*
X177835477Y-99079152D01*
X178407080Y-98697220D01*
X178978683Y-99079152D01*
X179677080Y-99218072D01*
X180375477Y-99079152D01*
X180947080Y-98697220D01*
X181518683Y-99079152D01*
X182217080Y-99218072D01*
X182915477Y-99079152D01*
X183487080Y-98697220D01*
X184058683Y-99079152D01*
X184757080Y-99218072D01*
X185455477Y-99079152D01*
X186027080Y-98697220D01*
X186598683Y-99079152D01*
X187297080Y-99218072D01*
X187995477Y-99079152D01*
X188567080Y-98697220D01*
X189138683Y-99079152D01*
X189498852Y-99150794D01*
X188461946Y-100187700D01*
X142779454Y-100187700D01*
X140440927Y-97849173D01*
X140110517Y-97628400D01*
X140756824Y-97628400D01*
X140779077Y-97758219D01*
X140994739Y-98032787D01*
X141051532Y-98114599D01*
X141177080Y-98152643D01*
X141177080Y-97628400D01*
X141977080Y-97628400D01*
X141977080Y-98152643D01*
X142102628Y-98114599D01*
X142159421Y-98032787D01*
X142375083Y-97758219D01*
X142397336Y-97628400D01*
X143296824Y-97628400D01*
X143319077Y-97758219D01*
X143534739Y-98032787D01*
X143591532Y-98114599D01*
X143717080Y-98152643D01*
X143717080Y-97628400D01*
X143296824Y-97628400D01*
X142397336Y-97628400D01*
X141977080Y-97628400D01*
X141177080Y-97628400D01*
X140756824Y-97628400D01*
X140110517Y-97628400D01*
X139978624Y-97540272D01*
X139433300Y-97431800D01*
X127568960Y-97431800D01*
X127023636Y-97540272D01*
X126561333Y-97849173D01*
X124219453Y-100191053D01*
X123910552Y-100653356D01*
X123802080Y-101198680D01*
X123802080Y-107233720D01*
X123910552Y-107779044D01*
X124219453Y-108241347D01*
X135973040Y-119994934D01*
X135437382Y-120216263D01*
X134951709Y-120701090D01*
X134688540Y-121334871D01*
X134687941Y-122021118D01*
X134950003Y-122655358D01*
X135434830Y-123141031D01*
X136068611Y-123404200D01*
X136754858Y-123404799D01*
X137389098Y-123142737D01*
X137874771Y-122657910D01*
X138098124Y-122120018D01*
X138665233Y-122687127D01*
X139127536Y-122996028D01*
X139672860Y-123104500D01*
X142581736Y-123104500D01*
X142584119Y-123108204D01*
X142926645Y-123342242D01*
X143333240Y-123424580D01*
X144733240Y-123424580D01*
X145113082Y-123353108D01*
X145461944Y-123128621D01*
X145695982Y-122786095D01*
X145778320Y-122379500D01*
X145778320Y-121656974D01*
X156220913Y-132099567D01*
X156683216Y-132408468D01*
X157228540Y-132516940D01*
X209274540Y-132516940D01*
X209574866Y-132457201D01*
X209606585Y-132616666D01*
X210023872Y-133241181D01*
X210648387Y-133658468D01*
X211385053Y-133805000D01*
X212887907Y-133805000D01*
X213624573Y-133658468D01*
X214249088Y-133241181D01*
X214666375Y-132616666D01*
X214812907Y-131880000D01*
X214666375Y-131143334D01*
X214249088Y-130518819D01*
X213624573Y-130101532D01*
X212887907Y-129955000D01*
X212426734Y-129955000D01*
X212811322Y-129570412D01*
X213244452Y-129391446D01*
X213696340Y-128940347D01*
X213941201Y-128350655D01*
X213941758Y-127712146D01*
X213697926Y-127122028D01*
X213586294Y-127010201D01*
X213696340Y-126900347D01*
X213941201Y-126310655D01*
X213941758Y-125672146D01*
X213761480Y-125235840D01*
X213761480Y-124729340D01*
X213653008Y-124184016D01*
X213344107Y-123721713D01*
X212667394Y-123045000D01*
X212887907Y-123045000D01*
X213624573Y-122898468D01*
X214249088Y-122481181D01*
X214666375Y-121856666D01*
X214812907Y-121120000D01*
X214666375Y-120383334D01*
X214249088Y-119758819D01*
X214235889Y-119750000D01*
X214249088Y-119741181D01*
X214666375Y-119116666D01*
X214812907Y-118380000D01*
X214666375Y-117643334D01*
X214249088Y-117018819D01*
X213624573Y-116601532D01*
X213378409Y-116552567D01*
X213414818Y-116516158D01*
X213745396Y-116021412D01*
X213861480Y-115437820D01*
X213861480Y-115042645D01*
X213941201Y-114850655D01*
X213941758Y-114212146D01*
X213697926Y-113622028D01*
X213586294Y-113510201D01*
X213696340Y-113400347D01*
X213941201Y-112810655D01*
X213941758Y-112172146D01*
X213861480Y-111977859D01*
X213861480Y-111473080D01*
X213745396Y-110889488D01*
X213414818Y-110394742D01*
X212565076Y-109545000D01*
X212887907Y-109545000D01*
X213624573Y-109398468D01*
X214249088Y-108981181D01*
X214666375Y-108356666D01*
X214812907Y-107620000D01*
X214666375Y-106883334D01*
X214249088Y-106258819D01*
X214235889Y-106250000D01*
X214249088Y-106241181D01*
X214666375Y-105616666D01*
X214812907Y-104880000D01*
X214666375Y-104143334D01*
X214249088Y-103518819D01*
X213624573Y-103101532D01*
X212887907Y-102955000D01*
X212426734Y-102955000D01*
X212811322Y-102570412D01*
X213244452Y-102391446D01*
X213696340Y-101940347D01*
X213941201Y-101350655D01*
X213941758Y-100712146D01*
X213697926Y-100122028D01*
X213586294Y-100010201D01*
X213696340Y-99900347D01*
X213941201Y-99310655D01*
X213941758Y-98672146D01*
X213761480Y-98235840D01*
X213761480Y-97853600D01*
X213653008Y-97308276D01*
X213344107Y-96845973D01*
X212543134Y-96045000D01*
X212887907Y-96045000D01*
X213624573Y-95898468D01*
X214249088Y-95481181D01*
X214666375Y-94856666D01*
X214812907Y-94120000D01*
X214666375Y-93383334D01*
X214249088Y-92758819D01*
X214235889Y-92750000D01*
X214249088Y-92741181D01*
X214666375Y-92116666D01*
X214812907Y-91380000D01*
X214666375Y-90643334D01*
X214249088Y-90018819D01*
X213624573Y-89601532D01*
X212887907Y-89455000D01*
X212426734Y-89455000D01*
X212811322Y-89070412D01*
X213244452Y-88891446D01*
X213696340Y-88440347D01*
X213941201Y-87850655D01*
X213941758Y-87212146D01*
X213697926Y-86622028D01*
X213586294Y-86510201D01*
X213696340Y-86400347D01*
X213941201Y-85810655D01*
X213941758Y-85172146D01*
X213761480Y-84735840D01*
X213761480Y-83924240D01*
X213653008Y-83378916D01*
X213344107Y-82916613D01*
X212958460Y-82530966D01*
X213624573Y-82398468D01*
X214249088Y-81981181D01*
X214666375Y-81356666D01*
X214812907Y-80620000D01*
X214666375Y-79883334D01*
X214249088Y-79258819D01*
X213624573Y-78841532D01*
X212887907Y-78695000D01*
X211385053Y-78695000D01*
X210648387Y-78841532D01*
X210023872Y-79258819D01*
X209606585Y-79883334D01*
X209460053Y-80620000D01*
X209555451Y-81099600D01*
X197338654Y-81099600D01*
X175277027Y-59037973D01*
X174814724Y-58729072D01*
X174269400Y-58620600D01*
X169751704Y-58620600D01*
X170117531Y-58255410D01*
X170380700Y-57621629D01*
X170381299Y-56935382D01*
X170303131Y-56746200D01*
X173907746Y-56746200D01*
X194775573Y-77614028D01*
X194775576Y-77614030D01*
X194778113Y-77616567D01*
X195240416Y-77925468D01*
X195785740Y-78033940D01*
X195798509Y-78031400D01*
X212770720Y-78031400D01*
X213316044Y-77922928D01*
X213778347Y-77614027D01*
X215826480Y-75565894D01*
X215826480Y-137030280D01*
X88008529Y-137030280D01*
X87995760Y-137027740D01*
X58011240Y-137027740D01*
X58011240Y-120231129D01*
X96716216Y-120231129D01*
X97403655Y-121894858D01*
X98675447Y-123168871D01*
X100337973Y-123859213D01*
X102138129Y-123860784D01*
X103801858Y-123173345D01*
X105075871Y-121901553D01*
X105766213Y-120239027D01*
X105767784Y-118438871D01*
X105080345Y-116775142D01*
X103808553Y-115501129D01*
X102146027Y-114810787D01*
X100345871Y-114809216D01*
X98682142Y-115496655D01*
X97408129Y-116768447D01*
X96717787Y-118430973D01*
X96716216Y-120231129D01*
X58011240Y-120231129D01*
X58011240Y-118760292D01*
X65918739Y-118760292D01*
X66133459Y-118888460D01*
X66773491Y-118979437D01*
X67230861Y-118888460D01*
X67445581Y-118760292D01*
X66682160Y-117996871D01*
X65918739Y-118760292D01*
X58011240Y-118760292D01*
X58011240Y-117416451D01*
X65027843Y-117416451D01*
X65118820Y-117873821D01*
X65246988Y-118088541D01*
X66010409Y-117325120D01*
X67353911Y-117325120D01*
X68117332Y-118088541D01*
X68245500Y-117873821D01*
X68336477Y-117233789D01*
X68245500Y-116776419D01*
X68117332Y-116561699D01*
X67353911Y-117325120D01*
X66010409Y-117325120D01*
X65246988Y-116561699D01*
X65118820Y-116776419D01*
X65027843Y-117416451D01*
X58011240Y-117416451D01*
X58011240Y-115889948D01*
X65918739Y-115889948D01*
X66682160Y-116653369D01*
X67445581Y-115889948D01*
X67230861Y-115761780D01*
X66590829Y-115670803D01*
X66133459Y-115761780D01*
X65918739Y-115889948D01*
X58011240Y-115889948D01*
X58011240Y-115088240D01*
X69069370Y-115088240D01*
X69179728Y-115150440D01*
X69524592Y-115150440D01*
X69634950Y-115088240D01*
X69352160Y-114805450D01*
X69069370Y-115088240D01*
X58011240Y-115088240D01*
X58011240Y-114102688D01*
X68476840Y-114102688D01*
X68476840Y-114447552D01*
X68539040Y-114557910D01*
X68821830Y-114275120D01*
X69882490Y-114275120D01*
X70165280Y-114557910D01*
X70227480Y-114447552D01*
X70227480Y-114102688D01*
X70165280Y-113992330D01*
X69882490Y-114275120D01*
X68821830Y-114275120D01*
X68539040Y-113992330D01*
X68476840Y-114102688D01*
X58011240Y-114102688D01*
X58011240Y-107516640D01*
X67576853Y-107516640D01*
X67846511Y-108169263D01*
X68111931Y-108435146D01*
X67848266Y-108698351D01*
X67577469Y-109350502D01*
X67576853Y-110056640D01*
X67846511Y-110709263D01*
X67856931Y-110719701D01*
X67848266Y-110728351D01*
X67577469Y-111380502D01*
X67576853Y-112086640D01*
X67846511Y-112739263D01*
X68345391Y-113239014D01*
X68997542Y-113509811D01*
X69117285Y-113509915D01*
X69352160Y-113744790D01*
X69586625Y-113510325D01*
X69703680Y-113510427D01*
X70356303Y-113240769D01*
X70856054Y-112741889D01*
X71126851Y-112089738D01*
X71127467Y-111383600D01*
X70857809Y-110730977D01*
X70847389Y-110720539D01*
X70856054Y-110711889D01*
X71126851Y-110059738D01*
X71127467Y-109353600D01*
X70857809Y-108700977D01*
X70592389Y-108435094D01*
X70856054Y-108171889D01*
X71126851Y-107519738D01*
X71127467Y-106813600D01*
X70857809Y-106160977D01*
X70358929Y-105661226D01*
X69706778Y-105390429D01*
X69000640Y-105389813D01*
X68348017Y-105659471D01*
X67848266Y-106158351D01*
X67577469Y-106810502D01*
X67576853Y-107516640D01*
X58011240Y-107516640D01*
X58011240Y-105040292D01*
X65918739Y-105040292D01*
X66133459Y-105168460D01*
X66773491Y-105259437D01*
X67230861Y-105168460D01*
X67445581Y-105040292D01*
X66682160Y-104276871D01*
X65918739Y-105040292D01*
X58011240Y-105040292D01*
X58011240Y-103696451D01*
X65027843Y-103696451D01*
X65118820Y-104153821D01*
X65246988Y-104368541D01*
X66010409Y-103605120D01*
X67353911Y-103605120D01*
X68117332Y-104368541D01*
X68245500Y-104153821D01*
X68336477Y-103513789D01*
X68245500Y-103056419D01*
X68117332Y-102841699D01*
X67353911Y-103605120D01*
X66010409Y-103605120D01*
X65246988Y-102841699D01*
X65118820Y-103056419D01*
X65027843Y-103696451D01*
X58011240Y-103696451D01*
X58011240Y-102169948D01*
X65918739Y-102169948D01*
X66682160Y-102933369D01*
X67445581Y-102169948D01*
X67230861Y-102041780D01*
X66590829Y-101950803D01*
X66133459Y-102041780D01*
X65918739Y-102169948D01*
X58011240Y-102169948D01*
X58011240Y-96678400D01*
X140756824Y-96678400D01*
X141177080Y-96678400D01*
X141977080Y-96678400D01*
X142397336Y-96678400D01*
X143296824Y-96678400D01*
X143717080Y-96678400D01*
X143717080Y-96154157D01*
X143591532Y-96192201D01*
X143534739Y-96274013D01*
X143319077Y-96548581D01*
X143296824Y-96678400D01*
X142397336Y-96678400D01*
X142375083Y-96548581D01*
X142159421Y-96274013D01*
X142102628Y-96192201D01*
X141977080Y-96154157D01*
X141977080Y-96678400D01*
X141177080Y-96678400D01*
X141177080Y-96154157D01*
X141051532Y-96192201D01*
X140994739Y-96274013D01*
X140779077Y-96548581D01*
X140756824Y-96678400D01*
X58011240Y-96678400D01*
X58011240Y-92583000D01*
X61588267Y-92583000D01*
X61730993Y-93300531D01*
X62137442Y-93908825D01*
X62745736Y-94315274D01*
X63463267Y-94458000D01*
X63536733Y-94458000D01*
X64254264Y-94315274D01*
X64462247Y-94176304D01*
X64783405Y-94395742D01*
X65190000Y-94478080D01*
X66890000Y-94478080D01*
X67269842Y-94406608D01*
X67618704Y-94182121D01*
X67852742Y-93839595D01*
X67935080Y-93433000D01*
X67935080Y-93264109D01*
X133185507Y-93264109D01*
X133688514Y-94481480D01*
X134619101Y-95413692D01*
X135835592Y-95918824D01*
X137152789Y-95919973D01*
X138370160Y-95416966D01*
X138899648Y-94888400D01*
X140756824Y-94888400D01*
X140779077Y-95018219D01*
X140994739Y-95292787D01*
X141051532Y-95374599D01*
X141177080Y-95412643D01*
X141177080Y-94888400D01*
X141977080Y-94888400D01*
X141977080Y-95412643D01*
X142102628Y-95374599D01*
X142159421Y-95292787D01*
X142375083Y-95018219D01*
X142397336Y-94888400D01*
X143296824Y-94888400D01*
X143319077Y-95018219D01*
X143534739Y-95292787D01*
X143591532Y-95374599D01*
X143717080Y-95412643D01*
X143717080Y-94888400D01*
X143296824Y-94888400D01*
X142397336Y-94888400D01*
X141977080Y-94888400D01*
X141177080Y-94888400D01*
X140756824Y-94888400D01*
X138899648Y-94888400D01*
X139302372Y-94486379D01*
X139529913Y-93938400D01*
X140756824Y-93938400D01*
X141177080Y-93938400D01*
X141977080Y-93938400D01*
X142397336Y-93938400D01*
X143296824Y-93938400D01*
X143717080Y-93938400D01*
X143717080Y-93414157D01*
X143591532Y-93452201D01*
X143534739Y-93534013D01*
X143319077Y-93808581D01*
X143296824Y-93938400D01*
X142397336Y-93938400D01*
X142375083Y-93808581D01*
X142159421Y-93534013D01*
X142102628Y-93452201D01*
X141977080Y-93414157D01*
X141977080Y-93938400D01*
X141177080Y-93938400D01*
X141177080Y-93414157D01*
X141051532Y-93452201D01*
X140994739Y-93534013D01*
X140779077Y-93808581D01*
X140756824Y-93938400D01*
X139529913Y-93938400D01*
X139807504Y-93269888D01*
X139808653Y-91952691D01*
X139305646Y-90735320D01*
X138375059Y-89803108D01*
X137158568Y-89297976D01*
X135841371Y-89296827D01*
X134624000Y-89799834D01*
X133691788Y-90730421D01*
X133186656Y-91946912D01*
X133185507Y-93264109D01*
X67935080Y-93264109D01*
X67935080Y-91733000D01*
X67863608Y-91353158D01*
X67639121Y-91004296D01*
X67296595Y-90770258D01*
X66890000Y-90687920D01*
X65190000Y-90687920D01*
X64810158Y-90759392D01*
X64461296Y-90983879D01*
X64458865Y-90987436D01*
X64254264Y-90850726D01*
X63536733Y-90708000D01*
X63463267Y-90708000D01*
X62745736Y-90850726D01*
X62137442Y-91257175D01*
X61730993Y-91865469D01*
X61588267Y-92583000D01*
X58011240Y-92583000D01*
X58011240Y-79883000D01*
X61588267Y-79883000D01*
X61730993Y-80600531D01*
X62137442Y-81208825D01*
X62745736Y-81615274D01*
X63463267Y-81758000D01*
X63536733Y-81758000D01*
X64254264Y-81615274D01*
X64862558Y-81208825D01*
X64914472Y-81131129D01*
X96716216Y-81131129D01*
X97403655Y-82794858D01*
X98675447Y-84068871D01*
X100337973Y-84759213D01*
X102138129Y-84760784D01*
X103801858Y-84073345D01*
X105075871Y-82801553D01*
X105766213Y-81139027D01*
X105767784Y-79338871D01*
X105080345Y-77675142D01*
X103808553Y-76401129D01*
X102146027Y-75710787D01*
X100345871Y-75709216D01*
X98682142Y-76396655D01*
X97408129Y-77668447D01*
X96717787Y-79330973D01*
X96716216Y-81131129D01*
X64914472Y-81131129D01*
X65269007Y-80600531D01*
X65290785Y-80491044D01*
X65482953Y-80683262D01*
X65615000Y-80729301D01*
X65615000Y-80308000D01*
X66465000Y-80308000D01*
X66465000Y-80729301D01*
X66597047Y-80683262D01*
X66840208Y-80440038D01*
X66882638Y-80308000D01*
X66465000Y-80308000D01*
X65615000Y-80308000D01*
X65545000Y-80308000D01*
X65545000Y-79458000D01*
X65615000Y-79458000D01*
X66465000Y-79458000D01*
X66882638Y-79458000D01*
X66840208Y-79325962D01*
X66597047Y-79082738D01*
X66465000Y-79036699D01*
X66465000Y-79458000D01*
X65615000Y-79458000D01*
X65615000Y-79036699D01*
X65482953Y-79082738D01*
X65290785Y-79274956D01*
X65269007Y-79165469D01*
X64862558Y-78557175D01*
X64254264Y-78150726D01*
X63536733Y-78008000D01*
X63463267Y-78008000D01*
X62745736Y-78150726D01*
X62137442Y-78557175D01*
X61730993Y-79165469D01*
X61588267Y-79883000D01*
X58011240Y-79883000D01*
X58011240Y-68091220D01*
X87934800Y-68091220D01*
X88355752Y-68007487D01*
X88712617Y-67769037D01*
X88951067Y-67412172D01*
X89034800Y-66991220D01*
X89034800Y-48349500D01*
X118590120Y-48349500D01*
X118590120Y-50329500D01*
X118661592Y-50709342D01*
X118886079Y-51058204D01*
X119228605Y-51292242D01*
X119635200Y-51374580D01*
X123595200Y-51374580D01*
X123975042Y-51303108D01*
X124323904Y-51078621D01*
X124557942Y-50736095D01*
X124640280Y-50329500D01*
X124640280Y-48349500D01*
X124568808Y-47969658D01*
X124344321Y-47620796D01*
X124001795Y-47386758D01*
X123595200Y-47304420D01*
X119635200Y-47304420D01*
X119255358Y-47375892D01*
X118906496Y-47600379D01*
X118672458Y-47942905D01*
X118590120Y-48349500D01*
X89034800Y-48349500D01*
X89034800Y-44814500D01*
X119651091Y-44814500D01*
X119703164Y-44966457D01*
X119759665Y-45187851D01*
X120150200Y-45454500D01*
X121140200Y-45454500D01*
X121140200Y-44814500D01*
X122090200Y-44814500D01*
X122090200Y-45454500D01*
X123080200Y-45454500D01*
X123470735Y-45187851D01*
X123527236Y-44966457D01*
X123579309Y-44814500D01*
X122090200Y-44814500D01*
X121140200Y-44814500D01*
X119651091Y-44814500D01*
X89034800Y-44814500D01*
X89034800Y-43864500D01*
X119651091Y-43864500D01*
X121140200Y-43864500D01*
X121140200Y-43224500D01*
X122090200Y-43224500D01*
X122090200Y-43864500D01*
X123579309Y-43864500D01*
X123527236Y-43712543D01*
X123470735Y-43491149D01*
X123080200Y-43224500D01*
X122090200Y-43224500D01*
X121140200Y-43224500D01*
X120150200Y-43224500D01*
X119759665Y-43491149D01*
X119703164Y-43712543D01*
X119651091Y-43864500D01*
X89034800Y-43864500D01*
X89034800Y-39230280D01*
X215826480Y-39230280D01*
X215826480Y-56034046D01*
G36*
X152686056Y-115487788D02*
X153231380Y-115596260D01*
X166075340Y-115596260D01*
X166075340Y-117320100D01*
X166183812Y-117865424D01*
X166492713Y-118327727D01*
X170573640Y-122408654D01*
X170573640Y-124221240D01*
X170682112Y-124766564D01*
X170991013Y-125228867D01*
X172723293Y-126961147D01*
X172838372Y-127038040D01*
X164090054Y-127038040D01*
X159184892Y-122132878D01*
X165775041Y-122132878D01*
X166037103Y-122767118D01*
X166521930Y-123252791D01*
X167155711Y-123515960D01*
X167841958Y-123516559D01*
X168476198Y-123254497D01*
X168961871Y-122769670D01*
X169225040Y-122135889D01*
X169225639Y-121449642D01*
X168963577Y-120815402D01*
X168478750Y-120329729D01*
X167844969Y-120066560D01*
X167158722Y-120065961D01*
X166524482Y-120328023D01*
X166038809Y-120812850D01*
X165775640Y-121446631D01*
X165775041Y-122132878D01*
X159184892Y-122132878D01*
X152245295Y-115193281D01*
X152686056Y-115487788D01*
X152686056Y-115487788D01*
G37*
X152686056Y-115487788D02*
X153231380Y-115596260D01*
X166075340Y-115596260D01*
X166075340Y-117320100D01*
X166183812Y-117865424D01*
X166492713Y-118327727D01*
X170573640Y-122408654D01*
X170573640Y-124221240D01*
X170682112Y-124766564D01*
X170991013Y-125228867D01*
X172723293Y-126961147D01*
X172838372Y-127038040D01*
X164090054Y-127038040D01*
X159184892Y-122132878D01*
X165775041Y-122132878D01*
X166037103Y-122767118D01*
X166521930Y-123252791D01*
X167155711Y-123515960D01*
X167841958Y-123516559D01*
X168476198Y-123254497D01*
X168961871Y-122769670D01*
X169225040Y-122135889D01*
X169225639Y-121449642D01*
X168963577Y-120815402D01*
X168478750Y-120329729D01*
X167844969Y-120066560D01*
X167158722Y-120065961D01*
X166524482Y-120328023D01*
X166038809Y-120812850D01*
X165775640Y-121446631D01*
X165775041Y-122132878D01*
X159184892Y-122132878D01*
X152245295Y-115193281D01*
X152686056Y-115487788D01*
G36*
X199731788Y-93905421D02*
X199226656Y-95121912D01*
X199225507Y-96439109D01*
X199728514Y-97656480D01*
X200659101Y-98588692D01*
X201875592Y-99093824D01*
X203192789Y-99094973D01*
X204410160Y-98591966D01*
X205342372Y-97661379D01*
X205419900Y-97474671D01*
X205419900Y-100469700D01*
X205528372Y-101015024D01*
X205837273Y-101477327D01*
X207589873Y-103229927D01*
X208052176Y-103538828D01*
X208597500Y-103647300D01*
X209938024Y-103647300D01*
X209606585Y-104143334D01*
X209460053Y-104880000D01*
X209606585Y-105616666D01*
X210023872Y-106241181D01*
X210037071Y-106250000D01*
X210023872Y-106258819D01*
X209606585Y-106883334D01*
X209460053Y-107620000D01*
X209515390Y-107898200D01*
X207400376Y-107898200D01*
X205322278Y-105820102D01*
X204827532Y-105489524D01*
X204243940Y-105373440D01*
X176197431Y-105373440D01*
X176581871Y-104989670D01*
X176845040Y-104355889D01*
X176845639Y-103669642D01*
X176584527Y-103037700D01*
X189052200Y-103037700D01*
X189597524Y-102929228D01*
X190059827Y-102620327D01*
X193384707Y-99295447D01*
X193693608Y-98833144D01*
X193708255Y-98759507D01*
X193712015Y-98740608D01*
X194218683Y-99079152D01*
X194917080Y-99218072D01*
X195615477Y-99079152D01*
X196207550Y-98683542D01*
X196603160Y-98091469D01*
X196626151Y-97975888D01*
X196632216Y-97978400D01*
X197025830Y-97978400D01*
X197057080Y-97947150D01*
X197057080Y-97453400D01*
X197857080Y-97453400D01*
X197857080Y-97947150D01*
X197888330Y-97978400D01*
X198281944Y-97978400D01*
X198327887Y-97959370D01*
X198363050Y-97924207D01*
X198382080Y-97878264D01*
X198382080Y-97484650D01*
X198350830Y-97453400D01*
X197857080Y-97453400D01*
X197057080Y-97453400D01*
X196962080Y-97453400D01*
X196962080Y-96653400D01*
X197057080Y-96653400D01*
X197057080Y-96159650D01*
X197857080Y-96159650D01*
X197857080Y-96653400D01*
X198350830Y-96653400D01*
X198382080Y-96622150D01*
X198382080Y-96228536D01*
X198363050Y-96182593D01*
X198327887Y-96147430D01*
X198281944Y-96128400D01*
X197888330Y-96128400D01*
X197857080Y-96159650D01*
X197057080Y-96159650D01*
X197025830Y-96128400D01*
X196632216Y-96128400D01*
X196586273Y-96147430D01*
X196569199Y-96164504D01*
X196314553Y-95783400D01*
X196603160Y-95351469D01*
X196667352Y-95028754D01*
X196874739Y-95292787D01*
X196931532Y-95374599D01*
X197057080Y-95412643D01*
X197057080Y-94888400D01*
X197857080Y-94888400D01*
X197857080Y-95412643D01*
X197982628Y-95374599D01*
X198039421Y-95292787D01*
X198255083Y-95018219D01*
X198277336Y-94888400D01*
X197857080Y-94888400D01*
X197057080Y-94888400D01*
X196962080Y-94888400D01*
X196962080Y-93938400D01*
X197057080Y-93938400D01*
X197057080Y-93918400D01*
X197857080Y-93918400D01*
X197857080Y-93938400D01*
X198277336Y-93938400D01*
X198255083Y-93808581D01*
X198090513Y-93599060D01*
X200038684Y-93599060D01*
X199731788Y-93905421D01*
X199731788Y-93905421D01*
G37*
X199731788Y-93905421D02*
X199226656Y-95121912D01*
X199225507Y-96439109D01*
X199728514Y-97656480D01*
X200659101Y-98588692D01*
X201875592Y-99093824D01*
X203192789Y-99094973D01*
X204410160Y-98591966D01*
X205342372Y-97661379D01*
X205419900Y-97474671D01*
X205419900Y-100469700D01*
X205528372Y-101015024D01*
X205837273Y-101477327D01*
X207589873Y-103229927D01*
X208052176Y-103538828D01*
X208597500Y-103647300D01*
X209938024Y-103647300D01*
X209606585Y-104143334D01*
X209460053Y-104880000D01*
X209606585Y-105616666D01*
X210023872Y-106241181D01*
X210037071Y-106250000D01*
X210023872Y-106258819D01*
X209606585Y-106883334D01*
X209460053Y-107620000D01*
X209515390Y-107898200D01*
X207400376Y-107898200D01*
X205322278Y-105820102D01*
X204827532Y-105489524D01*
X204243940Y-105373440D01*
X176197431Y-105373440D01*
X176581871Y-104989670D01*
X176845040Y-104355889D01*
X176845639Y-103669642D01*
X176584527Y-103037700D01*
X189052200Y-103037700D01*
X189597524Y-102929228D01*
X190059827Y-102620327D01*
X193384707Y-99295447D01*
X193693608Y-98833144D01*
X193708255Y-98759507D01*
X193712015Y-98740608D01*
X194218683Y-99079152D01*
X194917080Y-99218072D01*
X195615477Y-99079152D01*
X196207550Y-98683542D01*
X196603160Y-98091469D01*
X196626151Y-97975888D01*
X196632216Y-97978400D01*
X197025830Y-97978400D01*
X197057080Y-97947150D01*
X197057080Y-97453400D01*
X197857080Y-97453400D01*
X197857080Y-97947150D01*
X197888330Y-97978400D01*
X198281944Y-97978400D01*
X198327887Y-97959370D01*
X198363050Y-97924207D01*
X198382080Y-97878264D01*
X198382080Y-97484650D01*
X198350830Y-97453400D01*
X197857080Y-97453400D01*
X197057080Y-97453400D01*
X196962080Y-97453400D01*
X196962080Y-96653400D01*
X197057080Y-96653400D01*
X197057080Y-96159650D01*
X197857080Y-96159650D01*
X197857080Y-96653400D01*
X198350830Y-96653400D01*
X198382080Y-96622150D01*
X198382080Y-96228536D01*
X198363050Y-96182593D01*
X198327887Y-96147430D01*
X198281944Y-96128400D01*
X197888330Y-96128400D01*
X197857080Y-96159650D01*
X197057080Y-96159650D01*
X197025830Y-96128400D01*
X196632216Y-96128400D01*
X196586273Y-96147430D01*
X196569199Y-96164504D01*
X196314553Y-95783400D01*
X196603160Y-95351469D01*
X196667352Y-95028754D01*
X196874739Y-95292787D01*
X196931532Y-95374599D01*
X197057080Y-95412643D01*
X197057080Y-94888400D01*
X197857080Y-94888400D01*
X197857080Y-95412643D01*
X197982628Y-95374599D01*
X198039421Y-95292787D01*
X198255083Y-95018219D01*
X198277336Y-94888400D01*
X197857080Y-94888400D01*
X197057080Y-94888400D01*
X196962080Y-94888400D01*
X196962080Y-93938400D01*
X197057080Y-93938400D01*
X197057080Y-93918400D01*
X197857080Y-93918400D01*
X197857080Y-93938400D01*
X198277336Y-93938400D01*
X198255083Y-93808581D01*
X198090513Y-93599060D01*
X200038684Y-93599060D01*
X199731788Y-93905421D01*
G36*
X145286213Y-78624947D02*
X145748516Y-78933848D01*
X146293840Y-79042320D01*
X166095680Y-79042320D01*
X166641004Y-78933848D01*
X167103307Y-78624947D01*
X168656000Y-77072254D01*
X182182253Y-90598507D01*
X182644556Y-90907408D01*
X183189880Y-91015880D01*
X188284146Y-91015880D01*
X189653509Y-92385243D01*
X189138683Y-92487648D01*
X188567080Y-92869580D01*
X187995477Y-92487648D01*
X187297080Y-92348728D01*
X186598683Y-92487648D01*
X186027080Y-92869580D01*
X185455477Y-92487648D01*
X184757080Y-92348728D01*
X184058683Y-92487648D01*
X183487080Y-92869580D01*
X182915477Y-92487648D01*
X182217080Y-92348728D01*
X181518683Y-92487648D01*
X180947080Y-92869580D01*
X180375477Y-92487648D01*
X179677080Y-92348728D01*
X178978683Y-92487648D01*
X178407080Y-92869580D01*
X177835477Y-92487648D01*
X177137080Y-92348728D01*
X176438683Y-92487648D01*
X175867080Y-92869580D01*
X175295477Y-92487648D01*
X174597080Y-92348728D01*
X173898683Y-92487648D01*
X173327080Y-92869580D01*
X172755477Y-92487648D01*
X172057080Y-92348728D01*
X171358683Y-92487648D01*
X170787080Y-92869580D01*
X170215477Y-92487648D01*
X169517080Y-92348728D01*
X168818683Y-92487648D01*
X168247080Y-92869580D01*
X167675477Y-92487648D01*
X166977080Y-92348728D01*
X166278683Y-92487648D01*
X165707080Y-92869580D01*
X165135477Y-92487648D01*
X164437080Y-92348728D01*
X163738683Y-92487648D01*
X163167080Y-92869580D01*
X162595477Y-92487648D01*
X161897080Y-92348728D01*
X161198683Y-92487648D01*
X160627080Y-92869580D01*
X160055477Y-92487648D01*
X159357080Y-92348728D01*
X158658683Y-92487648D01*
X158066610Y-92883258D01*
X157671000Y-93475331D01*
X157606808Y-93798046D01*
X157399421Y-93534013D01*
X157342628Y-93452201D01*
X157217080Y-93414157D01*
X157217080Y-93938400D01*
X157312080Y-93938400D01*
X157312080Y-94888400D01*
X157217080Y-94888400D01*
X157217080Y-94908400D01*
X156417080Y-94908400D01*
X156417080Y-94888400D01*
X156322080Y-94888400D01*
X156322080Y-93938400D01*
X156417080Y-93938400D01*
X156417080Y-93414157D01*
X156291532Y-93452201D01*
X156234739Y-93534013D01*
X156027352Y-93798046D01*
X155963160Y-93475331D01*
X155702080Y-93084597D01*
X155702080Y-90238600D01*
X155593608Y-89693276D01*
X155284707Y-89230973D01*
X143031874Y-76978140D01*
X143399820Y-76978140D01*
X143601464Y-76940198D01*
X145286213Y-78624947D01*
X145286213Y-78624947D01*
G37*
X145286213Y-78624947D02*
X145748516Y-78933848D01*
X146293840Y-79042320D01*
X166095680Y-79042320D01*
X166641004Y-78933848D01*
X167103307Y-78624947D01*
X168656000Y-77072254D01*
X182182253Y-90598507D01*
X182644556Y-90907408D01*
X183189880Y-91015880D01*
X188284146Y-91015880D01*
X189653509Y-92385243D01*
X189138683Y-92487648D01*
X188567080Y-92869580D01*
X187995477Y-92487648D01*
X187297080Y-92348728D01*
X186598683Y-92487648D01*
X186027080Y-92869580D01*
X185455477Y-92487648D01*
X184757080Y-92348728D01*
X184058683Y-92487648D01*
X183487080Y-92869580D01*
X182915477Y-92487648D01*
X182217080Y-92348728D01*
X181518683Y-92487648D01*
X180947080Y-92869580D01*
X180375477Y-92487648D01*
X179677080Y-92348728D01*
X178978683Y-92487648D01*
X178407080Y-92869580D01*
X177835477Y-92487648D01*
X177137080Y-92348728D01*
X176438683Y-92487648D01*
X175867080Y-92869580D01*
X175295477Y-92487648D01*
X174597080Y-92348728D01*
X173898683Y-92487648D01*
X173327080Y-92869580D01*
X172755477Y-92487648D01*
X172057080Y-92348728D01*
X171358683Y-92487648D01*
X170787080Y-92869580D01*
X170215477Y-92487648D01*
X169517080Y-92348728D01*
X168818683Y-92487648D01*
X168247080Y-92869580D01*
X167675477Y-92487648D01*
X166977080Y-92348728D01*
X166278683Y-92487648D01*
X165707080Y-92869580D01*
X165135477Y-92487648D01*
X164437080Y-92348728D01*
X163738683Y-92487648D01*
X163167080Y-92869580D01*
X162595477Y-92487648D01*
X161897080Y-92348728D01*
X161198683Y-92487648D01*
X160627080Y-92869580D01*
X160055477Y-92487648D01*
X159357080Y-92348728D01*
X158658683Y-92487648D01*
X158066610Y-92883258D01*
X157671000Y-93475331D01*
X157606808Y-93798046D01*
X157399421Y-93534013D01*
X157342628Y-93452201D01*
X157217080Y-93414157D01*
X157217080Y-93938400D01*
X157312080Y-93938400D01*
X157312080Y-94888400D01*
X157217080Y-94888400D01*
X157217080Y-94908400D01*
X156417080Y-94908400D01*
X156417080Y-94888400D01*
X156322080Y-94888400D01*
X156322080Y-93938400D01*
X156417080Y-93938400D01*
X156417080Y-93414157D01*
X156291532Y-93452201D01*
X156234739Y-93534013D01*
X156027352Y-93798046D01*
X155963160Y-93475331D01*
X155702080Y-93084597D01*
X155702080Y-90238600D01*
X155593608Y-89693276D01*
X155284707Y-89230973D01*
X143031874Y-76978140D01*
X143399820Y-76978140D01*
X143601464Y-76940198D01*
X145286213Y-78624947D01*
G36*
X188829453Y-51185347D02*
X192006580Y-54362474D01*
X192006580Y-54660920D01*
X192305026Y-54660920D01*
X192536500Y-54892394D01*
X192536500Y-55635920D01*
X192607972Y-56015762D01*
X192832459Y-56364624D01*
X193174985Y-56598662D01*
X193581580Y-56681000D01*
X194011406Y-56681000D01*
X194857273Y-57526867D01*
X195319576Y-57835768D01*
X195864900Y-57944240D01*
X200887370Y-57944240D01*
X201004187Y-58061261D01*
X201672871Y-58338923D01*
X202396912Y-58339555D01*
X202770792Y-58185071D01*
X203032659Y-58818840D01*
X203151480Y-58937868D01*
X203151480Y-59033906D01*
X201751226Y-60434160D01*
X193065400Y-60434160D01*
X192520076Y-60542632D01*
X192057773Y-60851533D01*
X191834253Y-61075053D01*
X191525352Y-61537356D01*
X191416880Y-62082680D01*
X191478416Y-62392042D01*
X188705560Y-59619186D01*
X188705560Y-59162799D01*
X188759264Y-59128241D01*
X188993302Y-58785715D01*
X189075640Y-58379120D01*
X189075640Y-58085370D01*
X189105560Y-58085370D01*
X189105560Y-58403984D01*
X189124590Y-58449927D01*
X189159753Y-58485090D01*
X189205696Y-58504120D01*
X189574310Y-58504120D01*
X189605560Y-58472870D01*
X189605560Y-58054120D01*
X190355560Y-58054120D01*
X190355560Y-58472870D01*
X190386810Y-58504120D01*
X190755424Y-58504120D01*
X190801367Y-58485090D01*
X190836530Y-58449927D01*
X190855560Y-58403984D01*
X190855560Y-58085370D01*
X190824310Y-58054120D01*
X190355560Y-58054120D01*
X189605560Y-58054120D01*
X189136810Y-58054120D01*
X189105560Y-58085370D01*
X189075640Y-58085370D01*
X189075640Y-57079120D01*
X189070962Y-57054256D01*
X189105560Y-57054256D01*
X189105560Y-57372870D01*
X189136810Y-57404120D01*
X189605560Y-57404120D01*
X189605560Y-56985370D01*
X190355560Y-56985370D01*
X190355560Y-57404120D01*
X190824310Y-57404120D01*
X190855560Y-57372870D01*
X190855560Y-57054256D01*
X190836530Y-57008313D01*
X190801367Y-56973150D01*
X190755424Y-56954120D01*
X190386810Y-56954120D01*
X190355560Y-56985370D01*
X189605560Y-56985370D01*
X189574310Y-56954120D01*
X189205696Y-56954120D01*
X189159753Y-56973150D01*
X189124590Y-57008313D01*
X189105560Y-57054256D01*
X189070962Y-57054256D01*
X189004168Y-56699278D01*
X188779681Y-56350416D01*
X188705560Y-56299771D01*
X188705560Y-55342170D01*
X190756580Y-55342170D01*
X190756580Y-55660784D01*
X190775610Y-55706727D01*
X190810773Y-55741890D01*
X190856716Y-55760920D01*
X191225330Y-55760920D01*
X191256580Y-55729670D01*
X191256580Y-55310920D01*
X192006580Y-55310920D01*
X192006580Y-55729670D01*
X192037830Y-55760920D01*
X192406444Y-55760920D01*
X192452387Y-55741890D01*
X192487550Y-55706727D01*
X192506580Y-55660784D01*
X192506580Y-55342170D01*
X192475330Y-55310920D01*
X192006580Y-55310920D01*
X191256580Y-55310920D01*
X190787830Y-55310920D01*
X190756580Y-55342170D01*
X188705560Y-55342170D01*
X188705560Y-54311056D01*
X190756580Y-54311056D01*
X190756580Y-54629670D01*
X190787830Y-54660920D01*
X191256580Y-54660920D01*
X191256580Y-54242170D01*
X191225330Y-54210920D01*
X190856716Y-54210920D01*
X190810773Y-54229950D01*
X190775610Y-54265113D01*
X190756580Y-54311056D01*
X188705560Y-54311056D01*
X188705560Y-50999928D01*
X188829453Y-51185347D01*
X188829453Y-51185347D01*
G37*
X188829453Y-51185347D02*
X192006580Y-54362474D01*
X192006580Y-54660920D01*
X192305026Y-54660920D01*
X192536500Y-54892394D01*
X192536500Y-55635920D01*
X192607972Y-56015762D01*
X192832459Y-56364624D01*
X193174985Y-56598662D01*
X193581580Y-56681000D01*
X194011406Y-56681000D01*
X194857273Y-57526867D01*
X195319576Y-57835768D01*
X195864900Y-57944240D01*
X200887370Y-57944240D01*
X201004187Y-58061261D01*
X201672871Y-58338923D01*
X202396912Y-58339555D01*
X202770792Y-58185071D01*
X203032659Y-58818840D01*
X203151480Y-58937868D01*
X203151480Y-59033906D01*
X201751226Y-60434160D01*
X193065400Y-60434160D01*
X192520076Y-60542632D01*
X192057773Y-60851533D01*
X191834253Y-61075053D01*
X191525352Y-61537356D01*
X191416880Y-62082680D01*
X191478416Y-62392042D01*
X188705560Y-59619186D01*
X188705560Y-59162799D01*
X188759264Y-59128241D01*
X188993302Y-58785715D01*
X189075640Y-58379120D01*
X189075640Y-58085370D01*
X189105560Y-58085370D01*
X189105560Y-58403984D01*
X189124590Y-58449927D01*
X189159753Y-58485090D01*
X189205696Y-58504120D01*
X189574310Y-58504120D01*
X189605560Y-58472870D01*
X189605560Y-58054120D01*
X190355560Y-58054120D01*
X190355560Y-58472870D01*
X190386810Y-58504120D01*
X190755424Y-58504120D01*
X190801367Y-58485090D01*
X190836530Y-58449927D01*
X190855560Y-58403984D01*
X190855560Y-58085370D01*
X190824310Y-58054120D01*
X190355560Y-58054120D01*
X189605560Y-58054120D01*
X189136810Y-58054120D01*
X189105560Y-58085370D01*
X189075640Y-58085370D01*
X189075640Y-57079120D01*
X189070962Y-57054256D01*
X189105560Y-57054256D01*
X189105560Y-57372870D01*
X189136810Y-57404120D01*
X189605560Y-57404120D01*
X189605560Y-56985370D01*
X190355560Y-56985370D01*
X190355560Y-57404120D01*
X190824310Y-57404120D01*
X190855560Y-57372870D01*
X190855560Y-57054256D01*
X190836530Y-57008313D01*
X190801367Y-56973150D01*
X190755424Y-56954120D01*
X190386810Y-56954120D01*
X190355560Y-56985370D01*
X189605560Y-56985370D01*
X189574310Y-56954120D01*
X189205696Y-56954120D01*
X189159753Y-56973150D01*
X189124590Y-57008313D01*
X189105560Y-57054256D01*
X189070962Y-57054256D01*
X189004168Y-56699278D01*
X188779681Y-56350416D01*
X188705560Y-56299771D01*
X188705560Y-55342170D01*
X190756580Y-55342170D01*
X190756580Y-55660784D01*
X190775610Y-55706727D01*
X190810773Y-55741890D01*
X190856716Y-55760920D01*
X191225330Y-55760920D01*
X191256580Y-55729670D01*
X191256580Y-55310920D01*
X192006580Y-55310920D01*
X192006580Y-55729670D01*
X192037830Y-55760920D01*
X192406444Y-55760920D01*
X192452387Y-55741890D01*
X192487550Y-55706727D01*
X192506580Y-55660784D01*
X192506580Y-55342170D01*
X192475330Y-55310920D01*
X192006580Y-55310920D01*
X191256580Y-55310920D01*
X190787830Y-55310920D01*
X190756580Y-55342170D01*
X188705560Y-55342170D01*
X188705560Y-54311056D01*
X190756580Y-54311056D01*
X190756580Y-54629670D01*
X190787830Y-54660920D01*
X191256580Y-54660920D01*
X191256580Y-54242170D01*
X191225330Y-54210920D01*
X190856716Y-54210920D01*
X190810773Y-54229950D01*
X190775610Y-54265113D01*
X190756580Y-54311056D01*
X188705560Y-54311056D01*
X188705560Y-50999928D01*
X188829453Y-51185347D01*
M02*
