G04 #@! TF.FileFunction,Copper,L1,Top,Signal*
%FSLAX46Y46*%
G04 Gerber Fmt 4.6, Leading zero omitted, Abs format (unit mm)*
G04 Created by KiCad (PCBNEW 4.0.7-e2-6376~58~ubuntu16.04.1) date Tue Jun 19 11:31:53 2018*
%MOMM*%
%LPD*%
G01*
G04 APERTURE LIST*
%ADD10C,0.100000*%
%ADD11C,0.010000*%
%ADD12R,1.600000X1.600000*%
%ADD13O,1.600000X2.000000*%
%ADD14R,0.400000X1.350000*%
%ADD15O,1.250000X0.950000*%
%ADD16O,1.000000X1.550000*%
%ADD17R,1.980000X3.960000*%
%ADD18O,1.980000X3.960000*%
%ADD19C,1.500000*%
%ADD20C,3.000000*%
%ADD21R,1.400000X1.400000*%
%ADD22C,1.400000*%
%ADD23R,0.750000X0.250000*%
%ADD24C,4.572000*%
%ADD25C,1.160000*%
%ADD26O,3.200000X1.800000*%
%ADD27C,7.000000*%
%ADD28R,0.700000X1.300000*%
%ADD29R,1.560000X0.650000*%
%ADD30C,1.590000*%
%ADD31C,2.200000*%
%ADD32C,0.050000*%
G04 APERTURE END LIST*
D10*
D11*
G36*
X72001687Y-129464995D02*
X72007337Y-129485688D01*
X72025260Y-129576407D01*
X72045397Y-129715323D01*
X72063456Y-129872752D01*
X72063823Y-129876457D01*
X72080064Y-130020352D01*
X72096604Y-130133288D01*
X72110137Y-130193075D01*
X72111341Y-130195523D01*
X72148917Y-130194159D01*
X72215203Y-130148041D01*
X72223984Y-130140010D01*
X72304571Y-130081616D01*
X72343532Y-130083480D01*
X72331149Y-130134514D01*
X72278631Y-130202353D01*
X72223963Y-130273799D01*
X72209879Y-130321278D01*
X72212106Y-130324701D01*
X72259447Y-130338656D01*
X72366577Y-130355952D01*
X72515361Y-130373942D01*
X72619312Y-130384168D01*
X72827272Y-130403913D01*
X72960416Y-130419646D01*
X73021886Y-130432852D01*
X73014827Y-130445010D01*
X72942381Y-130457605D01*
X72807692Y-130472117D01*
X72806169Y-130472265D01*
X72632503Y-130489639D01*
X72458410Y-130507964D01*
X72343660Y-130520749D01*
X72154689Y-130542764D01*
X72262657Y-130655459D01*
X72329637Y-130741292D01*
X72342454Y-130791023D01*
X72307127Y-130793812D01*
X72229672Y-130738821D01*
X72220881Y-130730705D01*
X72167980Y-130685108D01*
X72131811Y-130673049D01*
X72107476Y-130704353D01*
X72090077Y-130788845D01*
X72074717Y-130936349D01*
X72065873Y-131041655D01*
X72044380Y-131227187D01*
X72016505Y-131342932D01*
X71983291Y-131386025D01*
X71949819Y-131360530D01*
X71935241Y-131304602D01*
X71918898Y-131192341D01*
X71903797Y-131045422D01*
X71900539Y-131005432D01*
X71884631Y-130836415D01*
X71865952Y-130737162D01*
X71840252Y-130699298D01*
X71803280Y-130714448D01*
X71770631Y-130749430D01*
X71714221Y-130798554D01*
X71687692Y-130808046D01*
X71654307Y-130782423D01*
X71666049Y-130721016D01*
X71716758Y-130647012D01*
X71735285Y-130628823D01*
X71817169Y-130554718D01*
X71725515Y-130528969D01*
X71631694Y-130512347D01*
X71500262Y-130500041D01*
X71438477Y-130497073D01*
X71283588Y-130486725D01*
X71130265Y-130468183D01*
X71086785Y-130460715D01*
X71009755Y-130444668D01*
X70985854Y-130433348D01*
X71022142Y-130423281D01*
X71125676Y-130410992D01*
X71204015Y-130403015D01*
X71373289Y-130385385D01*
X71538907Y-130367132D01*
X71648017Y-130354272D01*
X71818481Y-130333018D01*
X71709482Y-130219247D01*
X71642784Y-130133919D01*
X71628527Y-130083092D01*
X71661381Y-130077983D01*
X71736016Y-130129811D01*
X71747124Y-130140010D01*
X71814996Y-130190702D01*
X71856925Y-130198160D01*
X71859072Y-130195523D01*
X71872384Y-130142417D01*
X71888920Y-130035465D01*
X71903841Y-129909276D01*
X71921816Y-129751164D01*
X71941364Y-129603071D01*
X71954610Y-129518507D01*
X71971807Y-129431092D01*
X71984521Y-129415109D01*
X72001687Y-129464995D01*
X72001687Y-129464995D01*
G37*
X72001687Y-129464995D02*
X72007337Y-129485688D01*
X72025260Y-129576407D01*
X72045397Y-129715323D01*
X72063456Y-129872752D01*
X72063823Y-129876457D01*
X72080064Y-130020352D01*
X72096604Y-130133288D01*
X72110137Y-130193075D01*
X72111341Y-130195523D01*
X72148917Y-130194159D01*
X72215203Y-130148041D01*
X72223984Y-130140010D01*
X72304571Y-130081616D01*
X72343532Y-130083480D01*
X72331149Y-130134514D01*
X72278631Y-130202353D01*
X72223963Y-130273799D01*
X72209879Y-130321278D01*
X72212106Y-130324701D01*
X72259447Y-130338656D01*
X72366577Y-130355952D01*
X72515361Y-130373942D01*
X72619312Y-130384168D01*
X72827272Y-130403913D01*
X72960416Y-130419646D01*
X73021886Y-130432852D01*
X73014827Y-130445010D01*
X72942381Y-130457605D01*
X72807692Y-130472117D01*
X72806169Y-130472265D01*
X72632503Y-130489639D01*
X72458410Y-130507964D01*
X72343660Y-130520749D01*
X72154689Y-130542764D01*
X72262657Y-130655459D01*
X72329637Y-130741292D01*
X72342454Y-130791023D01*
X72307127Y-130793812D01*
X72229672Y-130738821D01*
X72220881Y-130730705D01*
X72167980Y-130685108D01*
X72131811Y-130673049D01*
X72107476Y-130704353D01*
X72090077Y-130788845D01*
X72074717Y-130936349D01*
X72065873Y-131041655D01*
X72044380Y-131227187D01*
X72016505Y-131342932D01*
X71983291Y-131386025D01*
X71949819Y-131360530D01*
X71935241Y-131304602D01*
X71918898Y-131192341D01*
X71903797Y-131045422D01*
X71900539Y-131005432D01*
X71884631Y-130836415D01*
X71865952Y-130737162D01*
X71840252Y-130699298D01*
X71803280Y-130714448D01*
X71770631Y-130749430D01*
X71714221Y-130798554D01*
X71687692Y-130808046D01*
X71654307Y-130782423D01*
X71666049Y-130721016D01*
X71716758Y-130647012D01*
X71735285Y-130628823D01*
X71817169Y-130554718D01*
X71725515Y-130528969D01*
X71631694Y-130512347D01*
X71500262Y-130500041D01*
X71438477Y-130497073D01*
X71283588Y-130486725D01*
X71130265Y-130468183D01*
X71086785Y-130460715D01*
X71009755Y-130444668D01*
X70985854Y-130433348D01*
X71022142Y-130423281D01*
X71125676Y-130410992D01*
X71204015Y-130403015D01*
X71373289Y-130385385D01*
X71538907Y-130367132D01*
X71648017Y-130354272D01*
X71818481Y-130333018D01*
X71709482Y-130219247D01*
X71642784Y-130133919D01*
X71628527Y-130083092D01*
X71661381Y-130077983D01*
X71736016Y-130129811D01*
X71747124Y-130140010D01*
X71814996Y-130190702D01*
X71856925Y-130198160D01*
X71859072Y-130195523D01*
X71872384Y-130142417D01*
X71888920Y-130035465D01*
X71903841Y-129909276D01*
X71921816Y-129751164D01*
X71941364Y-129603071D01*
X71954610Y-129518507D01*
X71971807Y-129431092D01*
X71984521Y-129415109D01*
X72001687Y-129464995D01*
G36*
X73964869Y-130068174D02*
X74039175Y-130079648D01*
X74070410Y-130105564D01*
X74076169Y-130143738D01*
X74067226Y-130188136D01*
X74028271Y-130211741D01*
X73941114Y-130220898D01*
X73851477Y-130222105D01*
X73626785Y-130222319D01*
X73890554Y-130380578D01*
X74033933Y-130472737D01*
X74117213Y-130543601D01*
X74151677Y-130603693D01*
X74154323Y-130626549D01*
X74139715Y-130712541D01*
X74087665Y-130767464D01*
X73985836Y-130797225D01*
X73821891Y-130807731D01*
X73775277Y-130808046D01*
X73627845Y-130806101D01*
X73542134Y-130797273D01*
X73501746Y-130777069D01*
X73490284Y-130740997D01*
X73490015Y-130729892D01*
X73498282Y-130686912D01*
X73534787Y-130663239D01*
X73617092Y-130653216D01*
X73734246Y-130651207D01*
X73978477Y-130650677D01*
X73734246Y-130505915D01*
X73602078Y-130422351D01*
X73526766Y-130358232D01*
X73494484Y-130299652D01*
X73490015Y-130260260D01*
X73505543Y-130163787D01*
X73560511Y-130103988D01*
X73667501Y-130073660D01*
X73829985Y-130065584D01*
X73964869Y-130068174D01*
X73964869Y-130068174D01*
G37*
X73964869Y-130068174D02*
X74039175Y-130079648D01*
X74070410Y-130105564D01*
X74076169Y-130143738D01*
X74067226Y-130188136D01*
X74028271Y-130211741D01*
X73941114Y-130220898D01*
X73851477Y-130222105D01*
X73626785Y-130222319D01*
X73890554Y-130380578D01*
X74033933Y-130472737D01*
X74117213Y-130543601D01*
X74151677Y-130603693D01*
X74154323Y-130626549D01*
X74139715Y-130712541D01*
X74087665Y-130767464D01*
X73985836Y-130797225D01*
X73821891Y-130807731D01*
X73775277Y-130808046D01*
X73627845Y-130806101D01*
X73542134Y-130797273D01*
X73501746Y-130777069D01*
X73490284Y-130740997D01*
X73490015Y-130729892D01*
X73498282Y-130686912D01*
X73534787Y-130663239D01*
X73617092Y-130653216D01*
X73734246Y-130651207D01*
X73978477Y-130650677D01*
X73734246Y-130505915D01*
X73602078Y-130422351D01*
X73526766Y-130358232D01*
X73494484Y-130299652D01*
X73490015Y-130260260D01*
X73505543Y-130163787D01*
X73560511Y-130103988D01*
X73667501Y-130073660D01*
X73829985Y-130065584D01*
X73964869Y-130068174D01*
G36*
X74570811Y-130068162D02*
X74599354Y-130085655D01*
X74615035Y-130132704D01*
X74621707Y-130223946D01*
X74623221Y-130374021D01*
X74623246Y-130436815D01*
X74622568Y-130608793D01*
X74617964Y-130717256D01*
X74605583Y-130776844D01*
X74581572Y-130802196D01*
X74542078Y-130807952D01*
X74525554Y-130808046D01*
X74480296Y-130805468D01*
X74451753Y-130787974D01*
X74436072Y-130740926D01*
X74429401Y-130649684D01*
X74427886Y-130499609D01*
X74427861Y-130436815D01*
X74428540Y-130264837D01*
X74433143Y-130156374D01*
X74445524Y-130096786D01*
X74469536Y-130071433D01*
X74509029Y-130065678D01*
X74525554Y-130065584D01*
X74570811Y-130068162D01*
X74570811Y-130068162D01*
G37*
X74570811Y-130068162D02*
X74599354Y-130085655D01*
X74615035Y-130132704D01*
X74621707Y-130223946D01*
X74623221Y-130374021D01*
X74623246Y-130436815D01*
X74622568Y-130608793D01*
X74617964Y-130717256D01*
X74605583Y-130776844D01*
X74581572Y-130802196D01*
X74542078Y-130807952D01*
X74525554Y-130808046D01*
X74480296Y-130805468D01*
X74451753Y-130787974D01*
X74436072Y-130740926D01*
X74429401Y-130649684D01*
X74427886Y-130499609D01*
X74427861Y-130436815D01*
X74428540Y-130264837D01*
X74433143Y-130156374D01*
X74445524Y-130096786D01*
X74469536Y-130071433D01*
X74509029Y-130065678D01*
X74525554Y-130065584D01*
X74570811Y-130068162D01*
G36*
X75371638Y-130068174D02*
X75445945Y-130079648D01*
X75477179Y-130105564D01*
X75482938Y-130143738D01*
X75473610Y-130188903D01*
X75433276Y-130212431D01*
X75343416Y-130221058D01*
X75268015Y-130221892D01*
X75053092Y-130221892D01*
X75053092Y-130514969D01*
X75051246Y-130664815D01*
X75042829Y-130752736D01*
X75023522Y-130794928D01*
X74989007Y-130807586D01*
X74974938Y-130808046D01*
X74936571Y-130801732D01*
X74913307Y-130772488D01*
X74901423Y-130704860D01*
X74897196Y-130583396D01*
X74896785Y-130483707D01*
X74902683Y-130302562D01*
X74919300Y-130174126D01*
X74943677Y-130112476D01*
X75007203Y-130086908D01*
X75124100Y-130070091D01*
X75236754Y-130065584D01*
X75371638Y-130068174D01*
X75371638Y-130068174D01*
G37*
X75371638Y-130068174D02*
X75445945Y-130079648D01*
X75477179Y-130105564D01*
X75482938Y-130143738D01*
X75473610Y-130188903D01*
X75433276Y-130212431D01*
X75343416Y-130221058D01*
X75268015Y-130221892D01*
X75053092Y-130221892D01*
X75053092Y-130514969D01*
X75051246Y-130664815D01*
X75042829Y-130752736D01*
X75023522Y-130794928D01*
X74989007Y-130807586D01*
X74974938Y-130808046D01*
X74936571Y-130801732D01*
X74913307Y-130772488D01*
X74901423Y-130704860D01*
X74897196Y-130583396D01*
X74896785Y-130483707D01*
X74902683Y-130302562D01*
X74919300Y-130174126D01*
X74943677Y-130112476D01*
X75007203Y-130086908D01*
X75124100Y-130070091D01*
X75236754Y-130065584D01*
X75371638Y-130068174D01*
G36*
X75899426Y-130068162D02*
X75927969Y-130085655D01*
X75943651Y-130132704D01*
X75950322Y-130223946D01*
X75951837Y-130374021D01*
X75951861Y-130436815D01*
X75951183Y-130608793D01*
X75946579Y-130717256D01*
X75934198Y-130776844D01*
X75910187Y-130802196D01*
X75870694Y-130807952D01*
X75854169Y-130808046D01*
X75808912Y-130805468D01*
X75780369Y-130787974D01*
X75764688Y-130740926D01*
X75758016Y-130649684D01*
X75756502Y-130499609D01*
X75756477Y-130436815D01*
X75757155Y-130264837D01*
X75761759Y-130156374D01*
X75774140Y-130096786D01*
X75798151Y-130071433D01*
X75837644Y-130065678D01*
X75854169Y-130065584D01*
X75899426Y-130068162D01*
X75899426Y-130068162D01*
G37*
X75899426Y-130068162D02*
X75927969Y-130085655D01*
X75943651Y-130132704D01*
X75950322Y-130223946D01*
X75951837Y-130374021D01*
X75951861Y-130436815D01*
X75951183Y-130608793D01*
X75946579Y-130717256D01*
X75934198Y-130776844D01*
X75910187Y-130802196D01*
X75870694Y-130807952D01*
X75854169Y-130808046D01*
X75808912Y-130805468D01*
X75780369Y-130787974D01*
X75764688Y-130740926D01*
X75758016Y-130649684D01*
X75756502Y-130499609D01*
X75756477Y-130436815D01*
X75757155Y-130264837D01*
X75761759Y-130156374D01*
X75774140Y-130096786D01*
X75798151Y-130071433D01*
X75837644Y-130065678D01*
X75854169Y-130065584D01*
X75899426Y-130068162D01*
G36*
X76849921Y-130071898D02*
X76873185Y-130101142D01*
X76885069Y-130168770D01*
X76889296Y-130290233D01*
X76889708Y-130389923D01*
X76883809Y-130571068D01*
X76867192Y-130699504D01*
X76842815Y-130761153D01*
X76783723Y-130783301D01*
X76673920Y-130799059D01*
X76539508Y-130807508D01*
X76406589Y-130807726D01*
X76301263Y-130798796D01*
X76251451Y-130781994D01*
X76239792Y-130733606D01*
X76230829Y-130626489D01*
X76225923Y-130480056D01*
X76225400Y-130410764D01*
X76226752Y-130245517D01*
X76233076Y-130143402D01*
X76247767Y-130089411D01*
X76274224Y-130068536D01*
X76303554Y-130065584D01*
X76343513Y-130072506D01*
X76366958Y-130104070D01*
X76378210Y-130176471D01*
X76381585Y-130305905D01*
X76381708Y-130358661D01*
X76381708Y-130651738D01*
X76733400Y-130651738D01*
X76733400Y-130358661D01*
X76735246Y-130208814D01*
X76743663Y-130120893D01*
X76762970Y-130078702D01*
X76797486Y-130066044D01*
X76811554Y-130065584D01*
X76849921Y-130071898D01*
X76849921Y-130071898D01*
G37*
X76849921Y-130071898D02*
X76873185Y-130101142D01*
X76885069Y-130168770D01*
X76889296Y-130290233D01*
X76889708Y-130389923D01*
X76883809Y-130571068D01*
X76867192Y-130699504D01*
X76842815Y-130761153D01*
X76783723Y-130783301D01*
X76673920Y-130799059D01*
X76539508Y-130807508D01*
X76406589Y-130807726D01*
X76301263Y-130798796D01*
X76251451Y-130781994D01*
X76239792Y-130733606D01*
X76230829Y-130626489D01*
X76225923Y-130480056D01*
X76225400Y-130410764D01*
X76226752Y-130245517D01*
X76233076Y-130143402D01*
X76247767Y-130089411D01*
X76274224Y-130068536D01*
X76303554Y-130065584D01*
X76343513Y-130072506D01*
X76366958Y-130104070D01*
X76378210Y-130176471D01*
X76381585Y-130305905D01*
X76381708Y-130358661D01*
X76381708Y-130651738D01*
X76733400Y-130651738D01*
X76733400Y-130358661D01*
X76735246Y-130208814D01*
X76743663Y-130120893D01*
X76762970Y-130078702D01*
X76797486Y-130066044D01*
X76811554Y-130065584D01*
X76849921Y-130071898D01*
G36*
X77638100Y-130068174D02*
X77712406Y-130079648D01*
X77743640Y-130105564D01*
X77749400Y-130143738D01*
X77740457Y-130188136D01*
X77701502Y-130211741D01*
X77614345Y-130220898D01*
X77524708Y-130222105D01*
X77300015Y-130222319D01*
X77563785Y-130380578D01*
X77707164Y-130472737D01*
X77790444Y-130543601D01*
X77824908Y-130603693D01*
X77827554Y-130626549D01*
X77812945Y-130712541D01*
X77760895Y-130767464D01*
X77659067Y-130797225D01*
X77495122Y-130807731D01*
X77448508Y-130808046D01*
X77301076Y-130806101D01*
X77215364Y-130797273D01*
X77174976Y-130777069D01*
X77163515Y-130740997D01*
X77163246Y-130729892D01*
X77171512Y-130686912D01*
X77208018Y-130663239D01*
X77290323Y-130653216D01*
X77407477Y-130651207D01*
X77651708Y-130650677D01*
X77407477Y-130505915D01*
X77275309Y-130422351D01*
X77199997Y-130358232D01*
X77167715Y-130299652D01*
X77163246Y-130260260D01*
X77178773Y-130163787D01*
X77233742Y-130103988D01*
X77340732Y-130073660D01*
X77503215Y-130065584D01*
X77638100Y-130068174D01*
X77638100Y-130068174D01*
G37*
X77638100Y-130068174D02*
X77712406Y-130079648D01*
X77743640Y-130105564D01*
X77749400Y-130143738D01*
X77740457Y-130188136D01*
X77701502Y-130211741D01*
X77614345Y-130220898D01*
X77524708Y-130222105D01*
X77300015Y-130222319D01*
X77563785Y-130380578D01*
X77707164Y-130472737D01*
X77790444Y-130543601D01*
X77824908Y-130603693D01*
X77827554Y-130626549D01*
X77812945Y-130712541D01*
X77760895Y-130767464D01*
X77659067Y-130797225D01*
X77495122Y-130807731D01*
X77448508Y-130808046D01*
X77301076Y-130806101D01*
X77215364Y-130797273D01*
X77174976Y-130777069D01*
X77163515Y-130740997D01*
X77163246Y-130729892D01*
X77171512Y-130686912D01*
X77208018Y-130663239D01*
X77290323Y-130653216D01*
X77407477Y-130651207D01*
X77651708Y-130650677D01*
X77407477Y-130505915D01*
X77275309Y-130422351D01*
X77199997Y-130358232D01*
X77167715Y-130299652D01*
X77163246Y-130260260D01*
X77178773Y-130163787D01*
X77233742Y-130103988D01*
X77340732Y-130073660D01*
X77503215Y-130065584D01*
X77638100Y-130068174D01*
G36*
X71614323Y-130006969D02*
X71594785Y-130026507D01*
X71575246Y-130006969D01*
X71594785Y-129987430D01*
X71614323Y-130006969D01*
X71614323Y-130006969D01*
G37*
X71614323Y-130006969D02*
X71594785Y-130026507D01*
X71575246Y-130006969D01*
X71594785Y-129987430D01*
X71614323Y-130006969D01*
G36*
X74602160Y-129654055D02*
X74623246Y-129713892D01*
X74600350Y-129775177D01*
X74525554Y-129792046D01*
X74448947Y-129773729D01*
X74427861Y-129713892D01*
X74450758Y-129652606D01*
X74525554Y-129635738D01*
X74602160Y-129654055D01*
X74602160Y-129654055D01*
G37*
X74602160Y-129654055D02*
X74623246Y-129713892D01*
X74600350Y-129775177D01*
X74525554Y-129792046D01*
X74448947Y-129773729D01*
X74427861Y-129713892D01*
X74450758Y-129652606D01*
X74525554Y-129635738D01*
X74602160Y-129654055D01*
G36*
X75930776Y-129654055D02*
X75951861Y-129713892D01*
X75928965Y-129775177D01*
X75854169Y-129792046D01*
X75777562Y-129773729D01*
X75756477Y-129713892D01*
X75779373Y-129652606D01*
X75854169Y-129635738D01*
X75930776Y-129654055D01*
X75930776Y-129654055D01*
G37*
X75930776Y-129654055D02*
X75951861Y-129713892D01*
X75928965Y-129775177D01*
X75854169Y-129792046D01*
X75777562Y-129773729D01*
X75756477Y-129713892D01*
X75779373Y-129652606D01*
X75854169Y-129635738D01*
X75930776Y-129654055D01*
G36*
X77944785Y-129244969D02*
X63290938Y-129244969D01*
X63290938Y-128932353D01*
X77944785Y-128932353D01*
X77944785Y-129244969D01*
X77944785Y-129244969D01*
G37*
X77944785Y-129244969D02*
X63290938Y-129244969D01*
X63290938Y-128932353D01*
X77944785Y-128932353D01*
X77944785Y-129244969D01*
G36*
X63955246Y-127097514D02*
X63954975Y-127377433D01*
X63960548Y-127588866D01*
X63981544Y-127741393D01*
X64027542Y-127844594D01*
X64108123Y-127908048D01*
X64232865Y-127941335D01*
X64411348Y-127954033D01*
X64653152Y-127955723D01*
X64813162Y-127955430D01*
X65479246Y-127955430D01*
X65479246Y-128307123D01*
X64647372Y-128307123D01*
X64369505Y-128306682D01*
X64157790Y-128304661D01*
X64000230Y-128300011D01*
X63884824Y-128291683D01*
X63799574Y-128278630D01*
X63732481Y-128259802D01*
X63671545Y-128234152D01*
X63641141Y-128219200D01*
X63491919Y-128117241D01*
X63387468Y-127973570D01*
X63378861Y-127956920D01*
X63346627Y-127887445D01*
X63323366Y-127817252D01*
X63307630Y-127732354D01*
X63297974Y-127618770D01*
X63292951Y-127462515D01*
X63291115Y-127249605D01*
X63290938Y-127106996D01*
X63290938Y-126431430D01*
X63955246Y-126431430D01*
X63955246Y-127097514D01*
X63955246Y-127097514D01*
G37*
X63955246Y-127097514D02*
X63954975Y-127377433D01*
X63960548Y-127588866D01*
X63981544Y-127741393D01*
X64027542Y-127844594D01*
X64108123Y-127908048D01*
X64232865Y-127941335D01*
X64411348Y-127954033D01*
X64653152Y-127955723D01*
X64813162Y-127955430D01*
X65479246Y-127955430D01*
X65479246Y-128307123D01*
X64647372Y-128307123D01*
X64369505Y-128306682D01*
X64157790Y-128304661D01*
X64000230Y-128300011D01*
X63884824Y-128291683D01*
X63799574Y-128278630D01*
X63732481Y-128259802D01*
X63671545Y-128234152D01*
X63641141Y-128219200D01*
X63491919Y-128117241D01*
X63387468Y-127973570D01*
X63378861Y-127956920D01*
X63346627Y-127887445D01*
X63323366Y-127817252D01*
X63307630Y-127732354D01*
X63297974Y-127618770D01*
X63292951Y-127462515D01*
X63291115Y-127249605D01*
X63290938Y-127106996D01*
X63290938Y-126431430D01*
X63955246Y-126431430D01*
X63955246Y-127097514D01*
G36*
X69738631Y-128307123D02*
X69172878Y-128307123D01*
X68537447Y-127672567D01*
X67902015Y-127038011D01*
X67902015Y-128307123D01*
X67276785Y-128307123D01*
X67276785Y-126431430D01*
X67540554Y-126432316D01*
X67804323Y-126433203D01*
X69074323Y-127650027D01*
X69074323Y-126431430D01*
X69738631Y-126431430D01*
X69738631Y-128307123D01*
X69738631Y-128307123D01*
G37*
X69738631Y-128307123D02*
X69172878Y-128307123D01*
X68537447Y-127672567D01*
X67902015Y-127038011D01*
X67902015Y-128307123D01*
X67276785Y-128307123D01*
X67276785Y-126431430D01*
X67540554Y-126432316D01*
X67804323Y-126433203D01*
X69074323Y-127650027D01*
X69074323Y-126431430D01*
X69738631Y-126431430D01*
X69738631Y-128307123D01*
G36*
X72317708Y-127097514D02*
X72318067Y-127340349D01*
X72320198Y-127517573D01*
X72325679Y-127641731D01*
X72336089Y-127725367D01*
X72353007Y-127781023D01*
X72378012Y-127821244D01*
X72412684Y-127858574D01*
X72413624Y-127859514D01*
X72451036Y-127894431D01*
X72491046Y-127919644D01*
X72546198Y-127936734D01*
X72629035Y-127947278D01*
X72752102Y-127952856D01*
X72927941Y-127955047D01*
X73169096Y-127955430D01*
X73841708Y-127955430D01*
X73841708Y-128307123D01*
X73009834Y-128307123D01*
X72731966Y-128306682D01*
X72520252Y-128304661D01*
X72362691Y-128300011D01*
X72247286Y-128291683D01*
X72162036Y-128278630D01*
X72094942Y-128259802D01*
X72034007Y-128234152D01*
X72003603Y-128219200D01*
X71854381Y-128117241D01*
X71749929Y-127973570D01*
X71741323Y-127956920D01*
X71709089Y-127887445D01*
X71685827Y-127817252D01*
X71670092Y-127732354D01*
X71660436Y-127618770D01*
X71655413Y-127462515D01*
X71653576Y-127249605D01*
X71653400Y-127106996D01*
X71653400Y-126431430D01*
X72317708Y-126431430D01*
X72317708Y-127097514D01*
X72317708Y-127097514D01*
G37*
X72317708Y-127097514D02*
X72318067Y-127340349D01*
X72320198Y-127517573D01*
X72325679Y-127641731D01*
X72336089Y-127725367D01*
X72353007Y-127781023D01*
X72378012Y-127821244D01*
X72412684Y-127858574D01*
X72413624Y-127859514D01*
X72451036Y-127894431D01*
X72491046Y-127919644D01*
X72546198Y-127936734D01*
X72629035Y-127947278D01*
X72752102Y-127952856D01*
X72927941Y-127955047D01*
X73169096Y-127955430D01*
X73841708Y-127955430D01*
X73841708Y-128307123D01*
X73009834Y-128307123D01*
X72731966Y-128306682D01*
X72520252Y-128304661D01*
X72362691Y-128300011D01*
X72247286Y-128291683D01*
X72162036Y-128278630D01*
X72094942Y-128259802D01*
X72034007Y-128234152D01*
X72003603Y-128219200D01*
X71854381Y-128117241D01*
X71749929Y-127973570D01*
X71741323Y-127956920D01*
X71709089Y-127887445D01*
X71685827Y-127817252D01*
X71670092Y-127732354D01*
X71660436Y-127618770D01*
X71655413Y-127462515D01*
X71653576Y-127249605D01*
X71653400Y-127106996D01*
X71653400Y-126431430D01*
X72317708Y-126431430D01*
X72317708Y-127097514D01*
G36*
X77788477Y-126783123D02*
X76227202Y-126783123D01*
X76164908Y-126878194D01*
X76129842Y-126989562D01*
X76166725Y-127090932D01*
X76269487Y-127167741D01*
X76288935Y-127175762D01*
X76361585Y-127188872D01*
X76495843Y-127199978D01*
X76675170Y-127208186D01*
X76883029Y-127212603D01*
X76980175Y-127213115D01*
X77213738Y-127214218D01*
X77383530Y-127218441D01*
X77503917Y-127227354D01*
X77589264Y-127242529D01*
X77653940Y-127265535D01*
X77702905Y-127292124D01*
X77835280Y-127415242D01*
X77915949Y-127579198D01*
X77940522Y-127762628D01*
X77904608Y-127944167D01*
X77856082Y-128037575D01*
X77798985Y-128116631D01*
X77739062Y-128178554D01*
X77666369Y-128225424D01*
X77570961Y-128259321D01*
X77442893Y-128282322D01*
X77272223Y-128296509D01*
X77049004Y-128303960D01*
X76763293Y-128306755D01*
X76567323Y-128307062D01*
X75639246Y-128307123D01*
X75639246Y-127955430D01*
X76395190Y-127955430D01*
X76658921Y-127954821D01*
X76855586Y-127952350D01*
X76996266Y-127947052D01*
X77092043Y-127937962D01*
X77153999Y-127924115D01*
X77193216Y-127904547D01*
X77215805Y-127883969D01*
X77273908Y-127774033D01*
X77261501Y-127665154D01*
X77193628Y-127586415D01*
X77144130Y-127562308D01*
X77067462Y-127545215D01*
X76951611Y-127534101D01*
X76784561Y-127527928D01*
X76554299Y-127525662D01*
X76488303Y-127525584D01*
X76216427Y-127523182D01*
X76010423Y-127513820D01*
X75858099Y-127494269D01*
X75747262Y-127461297D01*
X75665718Y-127411673D01*
X75601276Y-127342166D01*
X75559510Y-127279456D01*
X75498107Y-127114472D01*
X75486504Y-126925459D01*
X75524866Y-126746976D01*
X75556625Y-126682303D01*
X75606271Y-126609356D01*
X75662341Y-126552015D01*
X75734381Y-126508421D01*
X75831940Y-126476718D01*
X75964566Y-126455050D01*
X76141806Y-126441560D01*
X76373208Y-126434392D01*
X76668321Y-126431688D01*
X76846767Y-126431430D01*
X77788477Y-126431430D01*
X77788477Y-126783123D01*
X77788477Y-126783123D01*
G37*
X77788477Y-126783123D02*
X76227202Y-126783123D01*
X76164908Y-126878194D01*
X76129842Y-126989562D01*
X76166725Y-127090932D01*
X76269487Y-127167741D01*
X76288935Y-127175762D01*
X76361585Y-127188872D01*
X76495843Y-127199978D01*
X76675170Y-127208186D01*
X76883029Y-127212603D01*
X76980175Y-127213115D01*
X77213738Y-127214218D01*
X77383530Y-127218441D01*
X77503917Y-127227354D01*
X77589264Y-127242529D01*
X77653940Y-127265535D01*
X77702905Y-127292124D01*
X77835280Y-127415242D01*
X77915949Y-127579198D01*
X77940522Y-127762628D01*
X77904608Y-127944167D01*
X77856082Y-128037575D01*
X77798985Y-128116631D01*
X77739062Y-128178554D01*
X77666369Y-128225424D01*
X77570961Y-128259321D01*
X77442893Y-128282322D01*
X77272223Y-128296509D01*
X77049004Y-128303960D01*
X76763293Y-128306755D01*
X76567323Y-128307062D01*
X75639246Y-128307123D01*
X75639246Y-127955430D01*
X76395190Y-127955430D01*
X76658921Y-127954821D01*
X76855586Y-127952350D01*
X76996266Y-127947052D01*
X77092043Y-127937962D01*
X77153999Y-127924115D01*
X77193216Y-127904547D01*
X77215805Y-127883969D01*
X77273908Y-127774033D01*
X77261501Y-127665154D01*
X77193628Y-127586415D01*
X77144130Y-127562308D01*
X77067462Y-127545215D01*
X76951611Y-127534101D01*
X76784561Y-127527928D01*
X76554299Y-127525662D01*
X76488303Y-127525584D01*
X76216427Y-127523182D01*
X76010423Y-127513820D01*
X75858099Y-127494269D01*
X75747262Y-127461297D01*
X75665718Y-127411673D01*
X75601276Y-127342166D01*
X75559510Y-127279456D01*
X75498107Y-127114472D01*
X75486504Y-126925459D01*
X75524866Y-126746976D01*
X75556625Y-126682303D01*
X75606271Y-126609356D01*
X75662341Y-126552015D01*
X75734381Y-126508421D01*
X75831940Y-126476718D01*
X75964566Y-126455050D01*
X76141806Y-126441560D01*
X76373208Y-126434392D01*
X76668321Y-126431688D01*
X76846767Y-126431430D01*
X77788477Y-126431430D01*
X77788477Y-126783123D01*
G36*
X78042477Y-125903892D02*
X70626443Y-125913762D01*
X69700527Y-125914903D01*
X68849954Y-125915749D01*
X68071915Y-125916286D01*
X67363601Y-125916498D01*
X66722200Y-125916370D01*
X66144904Y-125915889D01*
X65628904Y-125915039D01*
X65171388Y-125913805D01*
X64769547Y-125912173D01*
X64420573Y-125910128D01*
X64121654Y-125907655D01*
X63869981Y-125904739D01*
X63662745Y-125901366D01*
X63497135Y-125897520D01*
X63370342Y-125893188D01*
X63279557Y-125888354D01*
X63221969Y-125883003D01*
X63194768Y-125877121D01*
X63191792Y-125874685D01*
X63189768Y-125830751D01*
X63187932Y-125712891D01*
X63186289Y-125525330D01*
X63184845Y-125272296D01*
X63183606Y-124958015D01*
X63182578Y-124586713D01*
X63181767Y-124162619D01*
X63181178Y-123689957D01*
X63180818Y-123172956D01*
X63180692Y-122615842D01*
X63180807Y-122022840D01*
X63181167Y-121398179D01*
X63181780Y-120746085D01*
X63182651Y-120070784D01*
X63183210Y-119710200D01*
X63192829Y-113848661D01*
X63447246Y-113848661D01*
X63447246Y-125649892D01*
X64404631Y-125649892D01*
X64668861Y-125649458D01*
X64905154Y-125648239D01*
X65102941Y-125646358D01*
X65251651Y-125643937D01*
X65340717Y-125641100D01*
X65362015Y-125638768D01*
X65349689Y-125599264D01*
X65317526Y-125507161D01*
X65276899Y-125394537D01*
X65213134Y-125151054D01*
X65176809Y-124862809D01*
X65168655Y-124558488D01*
X65189403Y-124266777D01*
X65239784Y-124016363D01*
X65241621Y-124010249D01*
X65397915Y-123622298D01*
X65614580Y-123276041D01*
X65884067Y-122977174D01*
X66198826Y-122731395D01*
X66551308Y-122544400D01*
X66933963Y-122421885D01*
X67339242Y-122369548D01*
X67417989Y-122368008D01*
X67732578Y-122382954D01*
X68008721Y-122434444D01*
X68280657Y-122530303D01*
X68429554Y-122599189D01*
X68793015Y-122819415D01*
X69101693Y-123091301D01*
X69351722Y-123407726D01*
X69539241Y-123761570D01*
X69660384Y-124145711D01*
X69711288Y-124553029D01*
X69694282Y-124930116D01*
X69664679Y-125110082D01*
X69623182Y-125291374D01*
X69580794Y-125428857D01*
X69538717Y-125541169D01*
X69510892Y-125618525D01*
X69504189Y-125640123D01*
X69542194Y-125641785D01*
X69651946Y-125643359D01*
X69827037Y-125644819D01*
X70061059Y-125646142D01*
X70347605Y-125647304D01*
X70680267Y-125648280D01*
X71052637Y-125649047D01*
X71458309Y-125649581D01*
X71890875Y-125649858D01*
X72109183Y-125649892D01*
X74714197Y-125649892D01*
X74229106Y-125157958D01*
X73548878Y-124513227D01*
X72854149Y-123944552D01*
X72143005Y-123450857D01*
X71413532Y-123031064D01*
X70663817Y-122684097D01*
X69891945Y-122408877D01*
X69096003Y-122204328D01*
X68918015Y-122168806D01*
X68699715Y-122126816D01*
X68505837Y-122088359D01*
X68350503Y-122056328D01*
X68247837Y-122033618D01*
X68214631Y-122024726D01*
X68212418Y-122007426D01*
X68279447Y-121986030D01*
X68406987Y-121961775D01*
X68586309Y-121935896D01*
X68808681Y-121909631D01*
X69065374Y-121884216D01*
X69347657Y-121860886D01*
X69397444Y-121857225D01*
X70244964Y-121834311D01*
X71103954Y-121885725D01*
X71967390Y-122009856D01*
X72828250Y-122205098D01*
X73679510Y-122469843D01*
X74514148Y-122802481D01*
X75325140Y-123201406D01*
X75366765Y-123224060D01*
X75537441Y-123318771D01*
X75759908Y-123444284D01*
X76018628Y-123591717D01*
X76298062Y-123752186D01*
X76582674Y-123916809D01*
X76799832Y-124043299D01*
X77045517Y-124186452D01*
X77268971Y-124315784D01*
X77461397Y-124426274D01*
X77613998Y-124512899D01*
X77717976Y-124570638D01*
X77764536Y-124594469D01*
X77765928Y-124594815D01*
X77768620Y-124556482D01*
X77771219Y-124444456D01*
X77773708Y-124263200D01*
X77776069Y-124017174D01*
X77778281Y-123710842D01*
X77780327Y-123348663D01*
X77782188Y-122935099D01*
X77783844Y-122474613D01*
X77785278Y-121971666D01*
X77786471Y-121430719D01*
X77787404Y-120856233D01*
X77788057Y-120252672D01*
X77788414Y-119624495D01*
X77788477Y-119221738D01*
X77788477Y-113848661D01*
X63447246Y-113848661D01*
X63192829Y-113848661D01*
X63193246Y-113594661D01*
X78042477Y-113594661D01*
X78042477Y-125903892D01*
X78042477Y-125903892D01*
G37*
X78042477Y-125903892D02*
X70626443Y-125913762D01*
X69700527Y-125914903D01*
X68849954Y-125915749D01*
X68071915Y-125916286D01*
X67363601Y-125916498D01*
X66722200Y-125916370D01*
X66144904Y-125915889D01*
X65628904Y-125915039D01*
X65171388Y-125913805D01*
X64769547Y-125912173D01*
X64420573Y-125910128D01*
X64121654Y-125907655D01*
X63869981Y-125904739D01*
X63662745Y-125901366D01*
X63497135Y-125897520D01*
X63370342Y-125893188D01*
X63279557Y-125888354D01*
X63221969Y-125883003D01*
X63194768Y-125877121D01*
X63191792Y-125874685D01*
X63189768Y-125830751D01*
X63187932Y-125712891D01*
X63186289Y-125525330D01*
X63184845Y-125272296D01*
X63183606Y-124958015D01*
X63182578Y-124586713D01*
X63181767Y-124162619D01*
X63181178Y-123689957D01*
X63180818Y-123172956D01*
X63180692Y-122615842D01*
X63180807Y-122022840D01*
X63181167Y-121398179D01*
X63181780Y-120746085D01*
X63182651Y-120070784D01*
X63183210Y-119710200D01*
X63192829Y-113848661D01*
X63447246Y-113848661D01*
X63447246Y-125649892D01*
X64404631Y-125649892D01*
X64668861Y-125649458D01*
X64905154Y-125648239D01*
X65102941Y-125646358D01*
X65251651Y-125643937D01*
X65340717Y-125641100D01*
X65362015Y-125638768D01*
X65349689Y-125599264D01*
X65317526Y-125507161D01*
X65276899Y-125394537D01*
X65213134Y-125151054D01*
X65176809Y-124862809D01*
X65168655Y-124558488D01*
X65189403Y-124266777D01*
X65239784Y-124016363D01*
X65241621Y-124010249D01*
X65397915Y-123622298D01*
X65614580Y-123276041D01*
X65884067Y-122977174D01*
X66198826Y-122731395D01*
X66551308Y-122544400D01*
X66933963Y-122421885D01*
X67339242Y-122369548D01*
X67417989Y-122368008D01*
X67732578Y-122382954D01*
X68008721Y-122434444D01*
X68280657Y-122530303D01*
X68429554Y-122599189D01*
X68793015Y-122819415D01*
X69101693Y-123091301D01*
X69351722Y-123407726D01*
X69539241Y-123761570D01*
X69660384Y-124145711D01*
X69711288Y-124553029D01*
X69694282Y-124930116D01*
X69664679Y-125110082D01*
X69623182Y-125291374D01*
X69580794Y-125428857D01*
X69538717Y-125541169D01*
X69510892Y-125618525D01*
X69504189Y-125640123D01*
X69542194Y-125641785D01*
X69651946Y-125643359D01*
X69827037Y-125644819D01*
X70061059Y-125646142D01*
X70347605Y-125647304D01*
X70680267Y-125648280D01*
X71052637Y-125649047D01*
X71458309Y-125649581D01*
X71890875Y-125649858D01*
X72109183Y-125649892D01*
X74714197Y-125649892D01*
X74229106Y-125157958D01*
X73548878Y-124513227D01*
X72854149Y-123944552D01*
X72143005Y-123450857D01*
X71413532Y-123031064D01*
X70663817Y-122684097D01*
X69891945Y-122408877D01*
X69096003Y-122204328D01*
X68918015Y-122168806D01*
X68699715Y-122126816D01*
X68505837Y-122088359D01*
X68350503Y-122056328D01*
X68247837Y-122033618D01*
X68214631Y-122024726D01*
X68212418Y-122007426D01*
X68279447Y-121986030D01*
X68406987Y-121961775D01*
X68586309Y-121935896D01*
X68808681Y-121909631D01*
X69065374Y-121884216D01*
X69347657Y-121860886D01*
X69397444Y-121857225D01*
X70244964Y-121834311D01*
X71103954Y-121885725D01*
X71967390Y-122009856D01*
X72828250Y-122205098D01*
X73679510Y-122469843D01*
X74514148Y-122802481D01*
X75325140Y-123201406D01*
X75366765Y-123224060D01*
X75537441Y-123318771D01*
X75759908Y-123444284D01*
X76018628Y-123591717D01*
X76298062Y-123752186D01*
X76582674Y-123916809D01*
X76799832Y-124043299D01*
X77045517Y-124186452D01*
X77268971Y-124315784D01*
X77461397Y-124426274D01*
X77613998Y-124512899D01*
X77717976Y-124570638D01*
X77764536Y-124594469D01*
X77765928Y-124594815D01*
X77768620Y-124556482D01*
X77771219Y-124444456D01*
X77773708Y-124263200D01*
X77776069Y-124017174D01*
X77778281Y-123710842D01*
X77780327Y-123348663D01*
X77782188Y-122935099D01*
X77783844Y-122474613D01*
X77785278Y-121971666D01*
X77786471Y-121430719D01*
X77787404Y-120856233D01*
X77788057Y-120252672D01*
X77788414Y-119624495D01*
X77788477Y-119221738D01*
X77788477Y-113848661D01*
X63447246Y-113848661D01*
X63192829Y-113848661D01*
X63193246Y-113594661D01*
X78042477Y-113594661D01*
X78042477Y-125903892D01*
G36*
X67607553Y-114236997D02*
X67679133Y-114279202D01*
X67808463Y-114354368D01*
X67985434Y-114456691D01*
X68199935Y-114580364D01*
X68441857Y-114719580D01*
X68701089Y-114868535D01*
X68967522Y-115021421D01*
X69231046Y-115172433D01*
X69481550Y-115315765D01*
X69708925Y-115445609D01*
X69903061Y-115556160D01*
X70021872Y-115623544D01*
X70182297Y-115716122D01*
X70314466Y-115795884D01*
X70405313Y-115854693D01*
X70441771Y-115884408D01*
X70441949Y-115885206D01*
X70411502Y-115914942D01*
X70328171Y-115979173D01*
X70204050Y-116068968D01*
X70051233Y-116175394D01*
X70021938Y-116195404D01*
X69250931Y-116747427D01*
X68553278Y-117304517D01*
X67924179Y-117871816D01*
X67358835Y-118454468D01*
X66852446Y-119057617D01*
X66400212Y-119686404D01*
X65997334Y-120345975D01*
X65793786Y-120726200D01*
X65578526Y-121169050D01*
X65399190Y-121588458D01*
X65248340Y-122006324D01*
X65118539Y-122444547D01*
X65002348Y-122925026D01*
X64931844Y-123264068D01*
X64877540Y-123532654D01*
X64835347Y-123726442D01*
X64804663Y-123847745D01*
X64784887Y-123898877D01*
X64775417Y-123882152D01*
X64774622Y-123868635D01*
X64768727Y-123816875D01*
X64753834Y-123706136D01*
X64732457Y-123554741D01*
X64716105Y-123442046D01*
X64694464Y-123262780D01*
X64673143Y-123030234D01*
X64654070Y-122769265D01*
X64639176Y-122504730D01*
X64634196Y-122386969D01*
X64639875Y-121489129D01*
X64723359Y-120594395D01*
X64884318Y-119704059D01*
X65122424Y-118819416D01*
X65437347Y-117941759D01*
X65828760Y-117072381D01*
X66130165Y-116501371D01*
X66228207Y-116327916D01*
X66356810Y-116103157D01*
X66506753Y-115843059D01*
X66668810Y-115563587D01*
X66833760Y-115280706D01*
X66947406Y-115086827D01*
X67488937Y-114165265D01*
X67607553Y-114236997D01*
X67607553Y-114236997D01*
G37*
X67607553Y-114236997D02*
X67679133Y-114279202D01*
X67808463Y-114354368D01*
X67985434Y-114456691D01*
X68199935Y-114580364D01*
X68441857Y-114719580D01*
X68701089Y-114868535D01*
X68967522Y-115021421D01*
X69231046Y-115172433D01*
X69481550Y-115315765D01*
X69708925Y-115445609D01*
X69903061Y-115556160D01*
X70021872Y-115623544D01*
X70182297Y-115716122D01*
X70314466Y-115795884D01*
X70405313Y-115854693D01*
X70441771Y-115884408D01*
X70441949Y-115885206D01*
X70411502Y-115914942D01*
X70328171Y-115979173D01*
X70204050Y-116068968D01*
X70051233Y-116175394D01*
X70021938Y-116195404D01*
X69250931Y-116747427D01*
X68553278Y-117304517D01*
X67924179Y-117871816D01*
X67358835Y-118454468D01*
X66852446Y-119057617D01*
X66400212Y-119686404D01*
X65997334Y-120345975D01*
X65793786Y-120726200D01*
X65578526Y-121169050D01*
X65399190Y-121588458D01*
X65248340Y-122006324D01*
X65118539Y-122444547D01*
X65002348Y-122925026D01*
X64931844Y-123264068D01*
X64877540Y-123532654D01*
X64835347Y-123726442D01*
X64804663Y-123847745D01*
X64784887Y-123898877D01*
X64775417Y-123882152D01*
X64774622Y-123868635D01*
X64768727Y-123816875D01*
X64753834Y-123706136D01*
X64732457Y-123554741D01*
X64716105Y-123442046D01*
X64694464Y-123262780D01*
X64673143Y-123030234D01*
X64654070Y-122769265D01*
X64639176Y-122504730D01*
X64634196Y-122386969D01*
X64639875Y-121489129D01*
X64723359Y-120594395D01*
X64884318Y-119704059D01*
X65122424Y-118819416D01*
X65437347Y-117941759D01*
X65828760Y-117072381D01*
X66130165Y-116501371D01*
X66228207Y-116327916D01*
X66356810Y-116103157D01*
X66506753Y-115843059D01*
X66668810Y-115563587D01*
X66833760Y-115280706D01*
X66947406Y-115086827D01*
X67488937Y-114165265D01*
X67607553Y-114236997D01*
G36*
X75141847Y-119451534D02*
X75350465Y-119455986D01*
X76538015Y-119484715D01*
X76538015Y-121199611D01*
X76537370Y-121557079D01*
X76535525Y-121889157D01*
X76532614Y-122187969D01*
X76528773Y-122445639D01*
X76524137Y-122654290D01*
X76518840Y-122806045D01*
X76513017Y-122893027D01*
X76508708Y-122911158D01*
X76464368Y-122893215D01*
X76364889Y-122846740D01*
X76224771Y-122778671D01*
X76058516Y-122695949D01*
X76049554Y-122691440D01*
X75200049Y-122292077D01*
X74372248Y-121961533D01*
X73556488Y-121697041D01*
X72743108Y-121495836D01*
X71922444Y-121355153D01*
X71093381Y-121272780D01*
X70294947Y-121253083D01*
X69511576Y-121300902D01*
X68732685Y-121417786D01*
X67947688Y-121605282D01*
X67216079Y-121839656D01*
X67052648Y-121895573D01*
X66915375Y-121937915D01*
X66821502Y-121961634D01*
X66790300Y-121964294D01*
X66794491Y-121935836D01*
X66856955Y-121872946D01*
X66969017Y-121781513D01*
X67122001Y-121667425D01*
X67307230Y-121536571D01*
X67516029Y-121394840D01*
X67739722Y-121248120D01*
X67969631Y-121102300D01*
X68197083Y-120963270D01*
X68413400Y-120836916D01*
X68609906Y-120729129D01*
X68610902Y-120728605D01*
X69173936Y-120450216D01*
X69734807Y-120209499D01*
X70301831Y-120004885D01*
X70883323Y-119834802D01*
X71487602Y-119697681D01*
X72122982Y-119591951D01*
X72797780Y-119516042D01*
X73520313Y-119468383D01*
X74298897Y-119447404D01*
X75141847Y-119451534D01*
X75141847Y-119451534D01*
G37*
X75141847Y-119451534D02*
X75350465Y-119455986D01*
X76538015Y-119484715D01*
X76538015Y-121199611D01*
X76537370Y-121557079D01*
X76535525Y-121889157D01*
X76532614Y-122187969D01*
X76528773Y-122445639D01*
X76524137Y-122654290D01*
X76518840Y-122806045D01*
X76513017Y-122893027D01*
X76508708Y-122911158D01*
X76464368Y-122893215D01*
X76364889Y-122846740D01*
X76224771Y-122778671D01*
X76058516Y-122695949D01*
X76049554Y-122691440D01*
X75200049Y-122292077D01*
X74372248Y-121961533D01*
X73556488Y-121697041D01*
X72743108Y-121495836D01*
X71922444Y-121355153D01*
X71093381Y-121272780D01*
X70294947Y-121253083D01*
X69511576Y-121300902D01*
X68732685Y-121417786D01*
X67947688Y-121605282D01*
X67216079Y-121839656D01*
X67052648Y-121895573D01*
X66915375Y-121937915D01*
X66821502Y-121961634D01*
X66790300Y-121964294D01*
X66794491Y-121935836D01*
X66856955Y-121872946D01*
X66969017Y-121781513D01*
X67122001Y-121667425D01*
X67307230Y-121536571D01*
X67516029Y-121394840D01*
X67739722Y-121248120D01*
X67969631Y-121102300D01*
X68197083Y-120963270D01*
X68413400Y-120836916D01*
X68609906Y-120729129D01*
X68610902Y-120728605D01*
X69173936Y-120450216D01*
X69734807Y-120209499D01*
X70301831Y-120004885D01*
X70883323Y-119834802D01*
X71487602Y-119697681D01*
X72122982Y-119591951D01*
X72797780Y-119516042D01*
X73520313Y-119468383D01*
X74298897Y-119447404D01*
X75141847Y-119451534D01*
G36*
X72804559Y-115773841D02*
X72854089Y-115856066D01*
X72933321Y-115990341D01*
X73037303Y-116168077D01*
X73161083Y-116380685D01*
X73299711Y-116619577D01*
X73448233Y-116876162D01*
X73601699Y-117141852D01*
X73755156Y-117408058D01*
X73903654Y-117666191D01*
X74042241Y-117907661D01*
X74165964Y-118123879D01*
X74269872Y-118306257D01*
X74349014Y-118446205D01*
X74398438Y-118535134D01*
X74413395Y-118564519D01*
X74374443Y-118569950D01*
X74269856Y-118580783D01*
X74111879Y-118595851D01*
X73912753Y-118613987D01*
X73684824Y-118634013D01*
X73106628Y-118689948D01*
X72591520Y-118753084D01*
X72124584Y-118825735D01*
X71690906Y-118910214D01*
X71285885Y-119006171D01*
X70401722Y-119265623D01*
X69576374Y-119573771D01*
X68805529Y-119933236D01*
X68084876Y-120346637D01*
X67410105Y-120816595D01*
X66776902Y-121345728D01*
X66180958Y-121936657D01*
X65850622Y-122308815D01*
X65715432Y-122468140D01*
X65622910Y-122576312D01*
X65564992Y-122641627D01*
X65533609Y-122672378D01*
X65520697Y-122676861D01*
X65518189Y-122663370D01*
X65518323Y-122650531D01*
X65534011Y-122591619D01*
X65576899Y-122476550D01*
X65640726Y-122319798D01*
X65719230Y-122135833D01*
X65806147Y-121939127D01*
X65895215Y-121744152D01*
X65980173Y-121565380D01*
X66038206Y-121449123D01*
X66425284Y-120754364D01*
X66846247Y-120115208D01*
X67315414Y-119511591D01*
X67823238Y-118948200D01*
X68139042Y-118628850D01*
X68449297Y-118335198D01*
X68763683Y-118060095D01*
X69091879Y-117796391D01*
X69443565Y-117536937D01*
X69828419Y-117274585D01*
X70256122Y-117002184D01*
X70736352Y-116712586D01*
X71262631Y-116407848D01*
X71483210Y-116282563D01*
X71714945Y-116151717D01*
X71944737Y-116022631D01*
X72159488Y-115902624D01*
X72346096Y-115799014D01*
X72491463Y-115719123D01*
X72582489Y-115670269D01*
X72584697Y-115669125D01*
X72702113Y-115608407D01*
X72804559Y-115773841D01*
X72804559Y-115773841D01*
G37*
X72804559Y-115773841D02*
X72854089Y-115856066D01*
X72933321Y-115990341D01*
X73037303Y-116168077D01*
X73161083Y-116380685D01*
X73299711Y-116619577D01*
X73448233Y-116876162D01*
X73601699Y-117141852D01*
X73755156Y-117408058D01*
X73903654Y-117666191D01*
X74042241Y-117907661D01*
X74165964Y-118123879D01*
X74269872Y-118306257D01*
X74349014Y-118446205D01*
X74398438Y-118535134D01*
X74413395Y-118564519D01*
X74374443Y-118569950D01*
X74269856Y-118580783D01*
X74111879Y-118595851D01*
X73912753Y-118613987D01*
X73684824Y-118634013D01*
X73106628Y-118689948D01*
X72591520Y-118753084D01*
X72124584Y-118825735D01*
X71690906Y-118910214D01*
X71285885Y-119006171D01*
X70401722Y-119265623D01*
X69576374Y-119573771D01*
X68805529Y-119933236D01*
X68084876Y-120346637D01*
X67410105Y-120816595D01*
X66776902Y-121345728D01*
X66180958Y-121936657D01*
X65850622Y-122308815D01*
X65715432Y-122468140D01*
X65622910Y-122576312D01*
X65564992Y-122641627D01*
X65533609Y-122672378D01*
X65520697Y-122676861D01*
X65518189Y-122663370D01*
X65518323Y-122650531D01*
X65534011Y-122591619D01*
X65576899Y-122476550D01*
X65640726Y-122319798D01*
X65719230Y-122135833D01*
X65806147Y-121939127D01*
X65895215Y-121744152D01*
X65980173Y-121565380D01*
X66038206Y-121449123D01*
X66425284Y-120754364D01*
X66846247Y-120115208D01*
X67315414Y-119511591D01*
X67823238Y-118948200D01*
X68139042Y-118628850D01*
X68449297Y-118335198D01*
X68763683Y-118060095D01*
X69091879Y-117796391D01*
X69443565Y-117536937D01*
X69828419Y-117274585D01*
X70256122Y-117002184D01*
X70736352Y-116712586D01*
X71262631Y-116407848D01*
X71483210Y-116282563D01*
X71714945Y-116151717D01*
X71944737Y-116022631D01*
X72159488Y-115902624D01*
X72346096Y-115799014D01*
X72491463Y-115719123D01*
X72582489Y-115670269D01*
X72584697Y-115669125D01*
X72702113Y-115608407D01*
X72804559Y-115773841D01*
D12*
X197457080Y-97053400D03*
D13*
X197457080Y-94413400D03*
X194917080Y-97153400D03*
X194917080Y-94413400D03*
X192377080Y-97153400D03*
X192377080Y-94413400D03*
X189837080Y-97153400D03*
X189837080Y-94413400D03*
X187297080Y-97153400D03*
X187297080Y-94413400D03*
X184757080Y-97153400D03*
X184757080Y-94413400D03*
X182217080Y-97153400D03*
X182217080Y-94413400D03*
X179677080Y-97153400D03*
X179677080Y-94413400D03*
X177137080Y-97153400D03*
X177137080Y-94413400D03*
X174597080Y-97153400D03*
X174597080Y-94413400D03*
X172057080Y-97153400D03*
X172057080Y-94413400D03*
X169517080Y-97153400D03*
X169517080Y-94413400D03*
X166977080Y-97153400D03*
X166977080Y-94413400D03*
X164437080Y-97153400D03*
X164437080Y-94413400D03*
X161897080Y-97153400D03*
X161897080Y-94413400D03*
X159357080Y-97153400D03*
X159357080Y-94413400D03*
X156817080Y-97153400D03*
X156817080Y-94413400D03*
X154277080Y-97153400D03*
X154277080Y-94413400D03*
X151737080Y-97153400D03*
X151737080Y-94413400D03*
X149197080Y-97153400D03*
X149197080Y-94413400D03*
X146657080Y-97153400D03*
X146657080Y-94413400D03*
X144117080Y-97153400D03*
X144117080Y-94413400D03*
X141577080Y-97153400D03*
X141577080Y-94413400D03*
D12*
X197457080Y-48793400D03*
D13*
X197457080Y-46153400D03*
X194917080Y-48893400D03*
X194917080Y-46153400D03*
X192377080Y-48893400D03*
X192377080Y-46153400D03*
X189837080Y-48893400D03*
X189837080Y-46153400D03*
X187297080Y-48893400D03*
X187297080Y-46153400D03*
X184757080Y-48893400D03*
X184757080Y-46153400D03*
X182217080Y-48893400D03*
X182217080Y-46153400D03*
X179677080Y-48893400D03*
X179677080Y-46153400D03*
X177137080Y-48893400D03*
X177137080Y-46153400D03*
X174597080Y-48893400D03*
X174597080Y-46153400D03*
X172057080Y-48893400D03*
X172057080Y-46153400D03*
X169517080Y-48893400D03*
X169517080Y-46153400D03*
X166977080Y-48893400D03*
X166977080Y-46153400D03*
X164437080Y-48893400D03*
X164437080Y-46153400D03*
X161897080Y-48893400D03*
X161897080Y-46153400D03*
X159357080Y-48893400D03*
X159357080Y-46153400D03*
X156817080Y-48893400D03*
X156817080Y-46153400D03*
X154277080Y-48893400D03*
X154277080Y-46153400D03*
X151737080Y-48893400D03*
X151737080Y-46153400D03*
X149197080Y-48893400D03*
X149197080Y-46153400D03*
X146657080Y-48893400D03*
X146657080Y-46153400D03*
X144117080Y-48893400D03*
X144117080Y-46153400D03*
X141577080Y-48893400D03*
X141577080Y-46153400D03*
D14*
X73452200Y-68881000D03*
X74102200Y-68881000D03*
X74752200Y-68881000D03*
X75402200Y-68881000D03*
X76052200Y-68881000D03*
D15*
X72252200Y-68881000D03*
X77252200Y-68881000D03*
D16*
X71252200Y-71581000D03*
X78252200Y-71581000D03*
D17*
X117525800Y-51384200D03*
D18*
X122525800Y-51384200D03*
D19*
X68163440Y-57503600D03*
X68163440Y-54963600D03*
X68163440Y-52933600D03*
X68163440Y-50393600D03*
D20*
X65493440Y-60553600D03*
X65493440Y-46833600D03*
D21*
X172969000Y-112826000D03*
D22*
X165349000Y-112826000D03*
X172969000Y-125516000D03*
X172969000Y-130606000D03*
X172969000Y-120446000D03*
X165339000Y-125536000D03*
X165339000Y-130616000D03*
X165349000Y-120446000D03*
D21*
X132969000Y-112826000D03*
D22*
X125349000Y-112826000D03*
X132969000Y-125516000D03*
X132969000Y-130606000D03*
X132969000Y-120446000D03*
X125339000Y-125536000D03*
X125339000Y-130616000D03*
X125349000Y-120446000D03*
D21*
X152969000Y-112826000D03*
D22*
X145349000Y-112826000D03*
X152969000Y-125516000D03*
X152969000Y-130606000D03*
X152969000Y-120446000D03*
X145339000Y-125536000D03*
X145339000Y-130616000D03*
X145349000Y-120446000D03*
D21*
X192969000Y-112826000D03*
D22*
X185349000Y-112826000D03*
X192969000Y-125516000D03*
X192969000Y-130606000D03*
X192969000Y-120446000D03*
X185339000Y-125536000D03*
X185339000Y-130616000D03*
X185349000Y-120446000D03*
D23*
X133511960Y-156741560D03*
X133511960Y-156241560D03*
X133511960Y-155741560D03*
X133511960Y-155241560D03*
X136611960Y-156741560D03*
X136611960Y-156241560D03*
X136611960Y-155241560D03*
X136611960Y-155741560D03*
X126557440Y-157468000D03*
X126557440Y-156968000D03*
X126557440Y-156468000D03*
X126557440Y-155968000D03*
X129657440Y-157468000D03*
X129657440Y-156968000D03*
X129657440Y-155968000D03*
X129657440Y-156468000D03*
D24*
X136497080Y-92608400D03*
X202537080Y-95783400D03*
X202537080Y-47523400D03*
X136497080Y-50698400D03*
D25*
X209786480Y-85490000D03*
X209786480Y-87530000D03*
X212336480Y-86510000D03*
X212336480Y-84470000D03*
D26*
X212136480Y-80620000D03*
X212136480Y-91380000D03*
D25*
X209786480Y-98990000D03*
X209786480Y-101030000D03*
X212336480Y-100010000D03*
X212336480Y-97970000D03*
D26*
X212136480Y-94120000D03*
X212136480Y-104880000D03*
D25*
X209786480Y-112490000D03*
X209786480Y-114530000D03*
X212336480Y-113510000D03*
X212336480Y-111470000D03*
D26*
X212136480Y-107620000D03*
X212136480Y-118380000D03*
D25*
X209786480Y-125990000D03*
X209786480Y-128030000D03*
X212336480Y-127010000D03*
X212336480Y-124970000D03*
D26*
X212136480Y-121120000D03*
X212136480Y-131880000D03*
D27*
X89446240Y-114585200D03*
X89446240Y-75485200D03*
D28*
X154117000Y-74935080D03*
X156017000Y-74935080D03*
X147746680Y-75214480D03*
X149646680Y-75214480D03*
X188706800Y-57053480D03*
X186806800Y-57053480D03*
X184124640Y-61076840D03*
X182224640Y-61076840D03*
D29*
X151812000Y-80838000D03*
X151812000Y-81788000D03*
X151812000Y-82738000D03*
X154512000Y-82738000D03*
X154512000Y-80838000D03*
D30*
X202036480Y-57779240D03*
X204576480Y-56509240D03*
X202036480Y-55239240D03*
X204576480Y-53969240D03*
X202036480Y-52699240D03*
X204576480Y-51429240D03*
D31*
X212954880Y-72169040D03*
X207954880Y-72169040D03*
X207954880Y-67169040D03*
X212954880Y-67169040D03*
X210454880Y-69669040D03*
D32*
G36*
X215826480Y-137030280D02*
X58026480Y-137030280D01*
X58026480Y-122615642D01*
X62150692Y-122615642D01*
X62150735Y-122615858D01*
X62150692Y-122616075D01*
X62150818Y-123173189D01*
X62150866Y-123173430D01*
X62150818Y-123173673D01*
X62151178Y-123690674D01*
X62151235Y-123690959D01*
X62151179Y-123691241D01*
X62151768Y-124163902D01*
X62151837Y-124164245D01*
X62151769Y-124164589D01*
X62152580Y-124588683D01*
X62152669Y-124589124D01*
X62152582Y-124589565D01*
X62153610Y-124960866D01*
X62153732Y-124961470D01*
X62153614Y-124962076D01*
X62154853Y-125276356D01*
X62155037Y-125277265D01*
X62154862Y-125278174D01*
X62156306Y-125531208D01*
X62156628Y-125532778D01*
X62156329Y-125534352D01*
X62157972Y-125721913D01*
X62158700Y-125725414D01*
X62158057Y-125728934D01*
X62159893Y-125846794D01*
X62163247Y-125862384D01*
X62160859Y-125878152D01*
X62162883Y-125922086D01*
X62169581Y-125949175D01*
X62166881Y-125976949D01*
X62181940Y-126026364D01*
X62181360Y-126061254D01*
X62223974Y-126169169D01*
X62259344Y-126312225D01*
X62275898Y-126334688D01*
X62278489Y-126343193D01*
X62260938Y-126431430D01*
X62260938Y-127106996D01*
X62261065Y-127107635D01*
X62260939Y-127108274D01*
X62261116Y-127250883D01*
X62261876Y-127254680D01*
X62261153Y-127258487D01*
X62262989Y-127471397D01*
X62265496Y-127483458D01*
X62263483Y-127495608D01*
X62268506Y-127651864D01*
X62274739Y-127678669D01*
X62271676Y-127706018D01*
X62281332Y-127819602D01*
X62295550Y-127868832D01*
X62294880Y-127920069D01*
X62310616Y-128004967D01*
X62336904Y-128070856D01*
X62345653Y-128141253D01*
X62368914Y-128211446D01*
X62398272Y-128263158D01*
X62412294Y-128320943D01*
X62441885Y-128384723D01*
X62339342Y-128538189D01*
X62260938Y-128932353D01*
X62260938Y-129244969D01*
X62339342Y-129639133D01*
X62562618Y-129973289D01*
X62896774Y-130196565D01*
X63290938Y-130274969D01*
X69974380Y-130274969D01*
X69963520Y-130307913D01*
X69966324Y-130345603D01*
X69957122Y-130382257D01*
X69981146Y-130544814D01*
X69993339Y-130708691D01*
X70010353Y-130742438D01*
X70015878Y-130779825D01*
X70100283Y-130920818D01*
X70174259Y-131067551D01*
X70202892Y-131092218D01*
X70222304Y-131124645D01*
X70354241Y-131222605D01*
X70377652Y-131242774D01*
X70429804Y-131295877D01*
X70448523Y-131303829D01*
X70478737Y-131329859D01*
X70514630Y-131341691D01*
X70544974Y-131364221D01*
X70568874Y-131375541D01*
X70687310Y-131405275D01*
X70799694Y-131453020D01*
X70876724Y-131469067D01*
X70895189Y-131469234D01*
X70909514Y-131474732D01*
X70924507Y-131499746D01*
X70931215Y-131504721D01*
X70935829Y-131518156D01*
X70938543Y-131564398D01*
X70953121Y-131620326D01*
X71014181Y-131746301D01*
X71059653Y-131878705D01*
X71101102Y-131925630D01*
X71128410Y-131981970D01*
X71233030Y-132074988D01*
X71325710Y-132179913D01*
X71359182Y-132205408D01*
X71404781Y-132227693D01*
X71428751Y-132249005D01*
X71496504Y-132272520D01*
X71537096Y-132292359D01*
X71714567Y-132380353D01*
X71717561Y-132380556D01*
X71720254Y-132381872D01*
X71917923Y-132394121D01*
X72115535Y-132407500D01*
X72118376Y-132406542D01*
X72121371Y-132406728D01*
X72308807Y-132342356D01*
X72496370Y-132279137D01*
X72498627Y-132277166D01*
X72501466Y-132276191D01*
X72649979Y-132145009D01*
X72799094Y-132014806D01*
X72832308Y-131971713D01*
X72838733Y-131958754D01*
X72849362Y-131948943D01*
X72927767Y-131779187D01*
X72987312Y-131659095D01*
X73028184Y-131691749D01*
X73035181Y-131693772D01*
X73040934Y-131698238D01*
X73081322Y-131718442D01*
X73259784Y-131767352D01*
X73436605Y-131821853D01*
X73522316Y-131830681D01*
X73568696Y-131826322D01*
X73614258Y-131836011D01*
X73761690Y-131837956D01*
X73771970Y-131836052D01*
X73782237Y-131838022D01*
X73828851Y-131837707D01*
X73858127Y-131831678D01*
X73887761Y-131835623D01*
X74051706Y-131825117D01*
X74161549Y-131795856D01*
X74229821Y-131789833D01*
X74319095Y-131822775D01*
X74371218Y-131820731D01*
X74421720Y-131833801D01*
X74466977Y-131836379D01*
X74499333Y-131831837D01*
X74531413Y-131838029D01*
X74547937Y-131837935D01*
X74592240Y-131828860D01*
X74609543Y-131831816D01*
X74641164Y-131824628D01*
X74690625Y-131827184D01*
X74730118Y-131821428D01*
X74754883Y-131812638D01*
X74769315Y-131818061D01*
X74807682Y-131824375D01*
X74816759Y-131824073D01*
X74820021Y-131825117D01*
X74843119Y-131823197D01*
X74885015Y-131821803D01*
X74946593Y-131836712D01*
X74975998Y-131832113D01*
X75008597Y-131837496D01*
X75022666Y-131837036D01*
X75121781Y-131813930D01*
X75209346Y-131811018D01*
X75261161Y-131787509D01*
X75343651Y-131774606D01*
X75378166Y-131761948D01*
X75380288Y-131760654D01*
X75382740Y-131760258D01*
X75401418Y-131748740D01*
X75412072Y-131746256D01*
X75460924Y-131758899D01*
X75465424Y-131761869D01*
X75492857Y-131767164D01*
X75506742Y-131770757D01*
X75647711Y-131822775D01*
X75699833Y-131820731D01*
X75750334Y-131833801D01*
X75795591Y-131836379D01*
X75827948Y-131831837D01*
X75860028Y-131838029D01*
X75876553Y-131837935D01*
X75920856Y-131828860D01*
X75938158Y-131831816D01*
X75969782Y-131824628D01*
X76019244Y-131827183D01*
X76058737Y-131821428D01*
X76122742Y-131798709D01*
X76214247Y-131825114D01*
X76319573Y-131834044D01*
X76364209Y-131829034D01*
X76408278Y-131837725D01*
X76541197Y-131837507D01*
X76572493Y-131831228D01*
X76604125Y-131835479D01*
X76738537Y-131827030D01*
X76778724Y-131816377D01*
X76820238Y-131818613D01*
X76930041Y-131802855D01*
X76985162Y-131783426D01*
X77109836Y-131821853D01*
X77195548Y-131830681D01*
X77241927Y-131826322D01*
X77287489Y-131836011D01*
X77434921Y-131837956D01*
X77445201Y-131836052D01*
X77455468Y-131838022D01*
X77502082Y-131837707D01*
X77531358Y-131831678D01*
X77560992Y-131835623D01*
X77724937Y-131825117D01*
X77834783Y-131795855D01*
X77948014Y-131785865D01*
X78049842Y-131756104D01*
X78112046Y-131723665D01*
X78180465Y-131708135D01*
X78288660Y-131631561D01*
X78406184Y-131570273D01*
X78451241Y-131516497D01*
X78508506Y-131475968D01*
X78560556Y-131421045D01*
X78614963Y-131334687D01*
X78685081Y-131260518D01*
X78721035Y-131166324D01*
X78774781Y-131081015D01*
X78791999Y-130980407D01*
X78800697Y-130957618D01*
X123613701Y-130957618D01*
X123875763Y-131591858D01*
X124360590Y-132077531D01*
X124994371Y-132340700D01*
X125680618Y-132341299D01*
X126314858Y-132079237D01*
X126800531Y-131594410D01*
X127063700Y-130960629D01*
X127063711Y-130947618D01*
X131243701Y-130947618D01*
X131505763Y-131581858D01*
X131990590Y-132067531D01*
X132624371Y-132330700D01*
X133310618Y-132331299D01*
X133944858Y-132069237D01*
X134430531Y-131584410D01*
X134690797Y-130957618D01*
X143613701Y-130957618D01*
X143875763Y-131591858D01*
X144360590Y-132077531D01*
X144994371Y-132340700D01*
X145680618Y-132341299D01*
X146314858Y-132079237D01*
X146800531Y-131594410D01*
X147063700Y-130960629D01*
X147063711Y-130947618D01*
X151243701Y-130947618D01*
X151505763Y-131581858D01*
X151990590Y-132067531D01*
X152624371Y-132330700D01*
X153310618Y-132331299D01*
X153944858Y-132069237D01*
X154430531Y-131584410D01*
X154690797Y-130957618D01*
X163613701Y-130957618D01*
X163875763Y-131591858D01*
X164360590Y-132077531D01*
X164994371Y-132340700D01*
X165680618Y-132341299D01*
X166314858Y-132079237D01*
X166800531Y-131594410D01*
X167063700Y-130960629D01*
X167063711Y-130947618D01*
X171243701Y-130947618D01*
X171505763Y-131581858D01*
X171990590Y-132067531D01*
X172624371Y-132330700D01*
X173310618Y-132331299D01*
X173944858Y-132069237D01*
X174430531Y-131584410D01*
X174690797Y-130957618D01*
X183613701Y-130957618D01*
X183875763Y-131591858D01*
X184360590Y-132077531D01*
X184994371Y-132340700D01*
X185680618Y-132341299D01*
X186314858Y-132079237D01*
X186800531Y-131594410D01*
X187063700Y-130960629D01*
X187063711Y-130947618D01*
X191243701Y-130947618D01*
X191505763Y-131581858D01*
X191990590Y-132067531D01*
X192624371Y-132330700D01*
X193310618Y-132331299D01*
X193944858Y-132069237D01*
X194134425Y-131880000D01*
X209460053Y-131880000D01*
X209606585Y-132616666D01*
X210023872Y-133241181D01*
X210648387Y-133658468D01*
X211385053Y-133805000D01*
X212887907Y-133805000D01*
X213624573Y-133658468D01*
X214249088Y-133241181D01*
X214666375Y-132616666D01*
X214812907Y-131880000D01*
X214666375Y-131143334D01*
X214249088Y-130518819D01*
X213624573Y-130101532D01*
X212887907Y-129955000D01*
X211385053Y-129955000D01*
X210648387Y-130101532D01*
X210023872Y-130518819D01*
X209606585Y-131143334D01*
X209460053Y-131880000D01*
X194134425Y-131880000D01*
X194430531Y-131584410D01*
X194693700Y-130950629D01*
X194694299Y-130264382D01*
X194432237Y-129630142D01*
X193947410Y-129144469D01*
X193313629Y-128881300D01*
X192627382Y-128880701D01*
X191993142Y-129142763D01*
X191507469Y-129627590D01*
X191244300Y-130261371D01*
X191243701Y-130947618D01*
X187063711Y-130947618D01*
X187064299Y-130274382D01*
X186802237Y-129640142D01*
X186317410Y-129154469D01*
X185683629Y-128891300D01*
X184997382Y-128890701D01*
X184363142Y-129152763D01*
X183877469Y-129637590D01*
X183614300Y-130271371D01*
X183613701Y-130957618D01*
X174690797Y-130957618D01*
X174693700Y-130950629D01*
X174694299Y-130264382D01*
X174432237Y-129630142D01*
X173947410Y-129144469D01*
X173313629Y-128881300D01*
X172627382Y-128880701D01*
X171993142Y-129142763D01*
X171507469Y-129627590D01*
X171244300Y-130261371D01*
X171243701Y-130947618D01*
X167063711Y-130947618D01*
X167064299Y-130274382D01*
X166802237Y-129640142D01*
X166317410Y-129154469D01*
X165683629Y-128891300D01*
X164997382Y-128890701D01*
X164363142Y-129152763D01*
X163877469Y-129637590D01*
X163614300Y-130271371D01*
X163613701Y-130957618D01*
X154690797Y-130957618D01*
X154693700Y-130950629D01*
X154694299Y-130264382D01*
X154432237Y-129630142D01*
X153947410Y-129144469D01*
X153313629Y-128881300D01*
X152627382Y-128880701D01*
X151993142Y-129142763D01*
X151507469Y-129627590D01*
X151244300Y-130261371D01*
X151243701Y-130947618D01*
X147063711Y-130947618D01*
X147064299Y-130274382D01*
X146802237Y-129640142D01*
X146317410Y-129154469D01*
X145683629Y-128891300D01*
X144997382Y-128890701D01*
X144363142Y-129152763D01*
X143877469Y-129637590D01*
X143614300Y-130271371D01*
X143613701Y-130957618D01*
X134690797Y-130957618D01*
X134693700Y-130950629D01*
X134694299Y-130264382D01*
X134432237Y-129630142D01*
X133947410Y-129144469D01*
X133313629Y-128881300D01*
X132627382Y-128880701D01*
X131993142Y-129142763D01*
X131507469Y-129627590D01*
X131244300Y-130261371D01*
X131243701Y-130947618D01*
X127063711Y-130947618D01*
X127064299Y-130274382D01*
X126802237Y-129640142D01*
X126317410Y-129154469D01*
X125683629Y-128891300D01*
X124997382Y-128890701D01*
X124363142Y-129152763D01*
X123877469Y-129637590D01*
X123614300Y-130271371D01*
X123613701Y-130957618D01*
X78800697Y-130957618D01*
X78828395Y-130885054D01*
X78843004Y-130799062D01*
X78840190Y-130698819D01*
X78842574Y-130684888D01*
X78839407Y-130670935D01*
X78838914Y-130653369D01*
X78850720Y-130508099D01*
X78848074Y-130485243D01*
X78846022Y-130478871D01*
X78846479Y-130472189D01*
X78832675Y-130431136D01*
X78831726Y-130397334D01*
X78789822Y-130303693D01*
X78784487Y-130287826D01*
X78759451Y-130210099D01*
X78759552Y-130168491D01*
X78765085Y-130049819D01*
X78769210Y-130010131D01*
X78767244Y-130003521D01*
X78767871Y-129990063D01*
X78762111Y-129951889D01*
X78760089Y-129946283D01*
X78760092Y-129945239D01*
X78757019Y-129937770D01*
X78735924Y-129879273D01*
X78896381Y-129639133D01*
X78974785Y-129244969D01*
X78974785Y-128932353D01*
X78896381Y-128538189D01*
X78817803Y-128420589D01*
X78818626Y-128419005D01*
X78859334Y-128278906D01*
X78915025Y-128144059D01*
X78950939Y-127962520D01*
X78950764Y-127794032D01*
X78961402Y-127625867D01*
X78936829Y-127442437D01*
X78883030Y-127285125D01*
X78840142Y-127124481D01*
X78776362Y-126994850D01*
X78818477Y-126783123D01*
X78818477Y-126561132D01*
X78882884Y-126464462D01*
X78994073Y-126298056D01*
X78994209Y-126297371D01*
X78994597Y-126296789D01*
X79033485Y-126099919D01*
X79072477Y-125903892D01*
X79072477Y-125877618D01*
X123613701Y-125877618D01*
X123875763Y-126511858D01*
X124360590Y-126997531D01*
X124994371Y-127260700D01*
X125680618Y-127261299D01*
X126314858Y-126999237D01*
X126800531Y-126514410D01*
X127063700Y-125880629D01*
X127063720Y-125857618D01*
X131243701Y-125857618D01*
X131505763Y-126491858D01*
X131990590Y-126977531D01*
X132624371Y-127240700D01*
X133310618Y-127241299D01*
X133944858Y-126979237D01*
X134430531Y-126494410D01*
X134686645Y-125877618D01*
X143613701Y-125877618D01*
X143875763Y-126511858D01*
X144360590Y-126997531D01*
X144994371Y-127260700D01*
X145680618Y-127261299D01*
X146314858Y-126999237D01*
X146800531Y-126514410D01*
X147063700Y-125880629D01*
X147063720Y-125857618D01*
X151243701Y-125857618D01*
X151505763Y-126491858D01*
X151990590Y-126977531D01*
X152624371Y-127240700D01*
X153310618Y-127241299D01*
X153944858Y-126979237D01*
X154430531Y-126494410D01*
X154686645Y-125877618D01*
X163613701Y-125877618D01*
X163875763Y-126511858D01*
X164360590Y-126997531D01*
X164994371Y-127260700D01*
X165680618Y-127261299D01*
X166314858Y-126999237D01*
X166800531Y-126514410D01*
X167063700Y-125880629D01*
X167063720Y-125857618D01*
X171243701Y-125857618D01*
X171505763Y-126491858D01*
X171990590Y-126977531D01*
X172624371Y-127240700D01*
X173310618Y-127241299D01*
X173944858Y-126979237D01*
X174430531Y-126494410D01*
X174686645Y-125877618D01*
X183613701Y-125877618D01*
X183875763Y-126511858D01*
X184360590Y-126997531D01*
X184994371Y-127260700D01*
X185680618Y-127261299D01*
X186314858Y-126999237D01*
X186800531Y-126514410D01*
X187063700Y-125880629D01*
X187063720Y-125857618D01*
X191243701Y-125857618D01*
X191505763Y-126491858D01*
X191990590Y-126977531D01*
X192624371Y-127240700D01*
X193310618Y-127241299D01*
X193944858Y-126979237D01*
X194430531Y-126494410D01*
X194507995Y-126307854D01*
X208181202Y-126307854D01*
X208425034Y-126897972D01*
X208536666Y-127009799D01*
X208426620Y-127119653D01*
X208181759Y-127709345D01*
X208181202Y-128347854D01*
X208425034Y-128937972D01*
X208876133Y-129389860D01*
X209465825Y-129634721D01*
X210104334Y-129635278D01*
X210694452Y-129391446D01*
X211146340Y-128940347D01*
X211391201Y-128350655D01*
X211391215Y-128334881D01*
X211426133Y-128369860D01*
X212015825Y-128614721D01*
X212654334Y-128615278D01*
X213244452Y-128371446D01*
X213696340Y-127920347D01*
X213941201Y-127330655D01*
X213941758Y-126692146D01*
X213697926Y-126102028D01*
X213586294Y-125990201D01*
X213696340Y-125880347D01*
X213941201Y-125290655D01*
X213941758Y-124652146D01*
X213697926Y-124062028D01*
X213246827Y-123610140D01*
X212657135Y-123365279D01*
X212018626Y-123364722D01*
X211428508Y-123608554D01*
X210976620Y-124059653D01*
X210731759Y-124649345D01*
X210731745Y-124665119D01*
X210696827Y-124630140D01*
X210107135Y-124385279D01*
X209468626Y-124384722D01*
X208878508Y-124628554D01*
X208426620Y-125079653D01*
X208181759Y-125669345D01*
X208181202Y-126307854D01*
X194507995Y-126307854D01*
X194693700Y-125860629D01*
X194694299Y-125174382D01*
X194432237Y-124540142D01*
X193947410Y-124054469D01*
X193313629Y-123791300D01*
X192627382Y-123790701D01*
X191993142Y-124052763D01*
X191507469Y-124537590D01*
X191244300Y-125171371D01*
X191243701Y-125857618D01*
X187063720Y-125857618D01*
X187064299Y-125194382D01*
X186802237Y-124560142D01*
X186317410Y-124074469D01*
X185683629Y-123811300D01*
X184997382Y-123810701D01*
X184363142Y-124072763D01*
X183877469Y-124557590D01*
X183614300Y-125191371D01*
X183613701Y-125877618D01*
X174686645Y-125877618D01*
X174693700Y-125860629D01*
X174694299Y-125174382D01*
X174432237Y-124540142D01*
X173947410Y-124054469D01*
X173313629Y-123791300D01*
X172627382Y-123790701D01*
X171993142Y-124052763D01*
X171507469Y-124537590D01*
X171244300Y-125171371D01*
X171243701Y-125857618D01*
X167063720Y-125857618D01*
X167064299Y-125194382D01*
X166802237Y-124560142D01*
X166317410Y-124074469D01*
X165683629Y-123811300D01*
X164997382Y-123810701D01*
X164363142Y-124072763D01*
X163877469Y-124557590D01*
X163614300Y-125191371D01*
X163613701Y-125877618D01*
X154686645Y-125877618D01*
X154693700Y-125860629D01*
X154694299Y-125174382D01*
X154432237Y-124540142D01*
X153947410Y-124054469D01*
X153313629Y-123791300D01*
X152627382Y-123790701D01*
X151993142Y-124052763D01*
X151507469Y-124537590D01*
X151244300Y-125171371D01*
X151243701Y-125857618D01*
X147063720Y-125857618D01*
X147064299Y-125194382D01*
X146802237Y-124560142D01*
X146317410Y-124074469D01*
X145683629Y-123811300D01*
X144997382Y-123810701D01*
X144363142Y-124072763D01*
X143877469Y-124557590D01*
X143614300Y-125191371D01*
X143613701Y-125877618D01*
X134686645Y-125877618D01*
X134693700Y-125860629D01*
X134694299Y-125174382D01*
X134432237Y-124540142D01*
X133947410Y-124054469D01*
X133313629Y-123791300D01*
X132627382Y-123790701D01*
X131993142Y-124052763D01*
X131507469Y-124537590D01*
X131244300Y-125171371D01*
X131243701Y-125857618D01*
X127063720Y-125857618D01*
X127064299Y-125194382D01*
X126802237Y-124560142D01*
X126317410Y-124074469D01*
X125683629Y-123811300D01*
X124997382Y-123810701D01*
X124363142Y-124072763D01*
X123877469Y-124557590D01*
X123614300Y-125191371D01*
X123613701Y-125877618D01*
X79072477Y-125877618D01*
X79072477Y-120787618D01*
X123623701Y-120787618D01*
X123885763Y-121421858D01*
X124370590Y-121907531D01*
X125004371Y-122170700D01*
X125690618Y-122171299D01*
X126324858Y-121909237D01*
X126810531Y-121424410D01*
X127073700Y-120790629D01*
X127073702Y-120787618D01*
X131243701Y-120787618D01*
X131505763Y-121421858D01*
X131990590Y-121907531D01*
X132624371Y-122170700D01*
X133310618Y-122171299D01*
X133944858Y-121909237D01*
X134430531Y-121424410D01*
X134693700Y-120790629D01*
X134693702Y-120787618D01*
X143623701Y-120787618D01*
X143885763Y-121421858D01*
X144370590Y-121907531D01*
X145004371Y-122170700D01*
X145690618Y-122171299D01*
X146324858Y-121909237D01*
X146810531Y-121424410D01*
X147073700Y-120790629D01*
X147073702Y-120787618D01*
X151243701Y-120787618D01*
X151505763Y-121421858D01*
X151990590Y-121907531D01*
X152624371Y-122170700D01*
X153310618Y-122171299D01*
X153944858Y-121909237D01*
X154430531Y-121424410D01*
X154693700Y-120790629D01*
X154693702Y-120787618D01*
X163623701Y-120787618D01*
X163885763Y-121421858D01*
X164370590Y-121907531D01*
X165004371Y-122170700D01*
X165690618Y-122171299D01*
X166324858Y-121909237D01*
X166810531Y-121424410D01*
X167073700Y-120790629D01*
X167073702Y-120787618D01*
X171243701Y-120787618D01*
X171505763Y-121421858D01*
X171990590Y-121907531D01*
X172624371Y-122170700D01*
X173310618Y-122171299D01*
X173944858Y-121909237D01*
X174430531Y-121424410D01*
X174693700Y-120790629D01*
X174693702Y-120787618D01*
X183623701Y-120787618D01*
X183885763Y-121421858D01*
X184370590Y-121907531D01*
X185004371Y-122170700D01*
X185690618Y-122171299D01*
X186324858Y-121909237D01*
X186810531Y-121424410D01*
X187073700Y-120790629D01*
X187073702Y-120787618D01*
X191243701Y-120787618D01*
X191505763Y-121421858D01*
X191990590Y-121907531D01*
X192624371Y-122170700D01*
X193310618Y-122171299D01*
X193944858Y-121909237D01*
X194430531Y-121424410D01*
X194693700Y-120790629D01*
X194694299Y-120104382D01*
X194432237Y-119470142D01*
X193947410Y-118984469D01*
X193313629Y-118721300D01*
X192627382Y-118720701D01*
X191993142Y-118982763D01*
X191507469Y-119467590D01*
X191244300Y-120101371D01*
X191243701Y-120787618D01*
X187073702Y-120787618D01*
X187074299Y-120104382D01*
X186812237Y-119470142D01*
X186327410Y-118984469D01*
X185693629Y-118721300D01*
X185007382Y-118720701D01*
X184373142Y-118982763D01*
X183887469Y-119467590D01*
X183624300Y-120101371D01*
X183623701Y-120787618D01*
X174693702Y-120787618D01*
X174694299Y-120104382D01*
X174432237Y-119470142D01*
X173947410Y-118984469D01*
X173313629Y-118721300D01*
X172627382Y-118720701D01*
X171993142Y-118982763D01*
X171507469Y-119467590D01*
X171244300Y-120101371D01*
X171243701Y-120787618D01*
X167073702Y-120787618D01*
X167074299Y-120104382D01*
X166812237Y-119470142D01*
X166327410Y-118984469D01*
X165693629Y-118721300D01*
X165007382Y-118720701D01*
X164373142Y-118982763D01*
X163887469Y-119467590D01*
X163624300Y-120101371D01*
X163623701Y-120787618D01*
X154693702Y-120787618D01*
X154694299Y-120104382D01*
X154432237Y-119470142D01*
X153947410Y-118984469D01*
X153313629Y-118721300D01*
X152627382Y-118720701D01*
X151993142Y-118982763D01*
X151507469Y-119467590D01*
X151244300Y-120101371D01*
X151243701Y-120787618D01*
X147073702Y-120787618D01*
X147074299Y-120104382D01*
X146812237Y-119470142D01*
X146327410Y-118984469D01*
X145693629Y-118721300D01*
X145007382Y-118720701D01*
X144373142Y-118982763D01*
X143887469Y-119467590D01*
X143624300Y-120101371D01*
X143623701Y-120787618D01*
X134693702Y-120787618D01*
X134694299Y-120104382D01*
X134432237Y-119470142D01*
X133947410Y-118984469D01*
X133313629Y-118721300D01*
X132627382Y-118720701D01*
X131993142Y-118982763D01*
X131507469Y-119467590D01*
X131244300Y-120101371D01*
X131243701Y-120787618D01*
X127073702Y-120787618D01*
X127074299Y-120104382D01*
X126812237Y-119470142D01*
X126327410Y-118984469D01*
X125693629Y-118721300D01*
X125007382Y-118720701D01*
X124373142Y-118982763D01*
X123887469Y-119467590D01*
X123624300Y-120101371D01*
X123623701Y-120787618D01*
X79072477Y-120787618D01*
X79072477Y-115481329D01*
X84920456Y-115481329D01*
X85607895Y-117145058D01*
X86879687Y-118419071D01*
X88542213Y-119109413D01*
X90342369Y-119110984D01*
X92006098Y-118423545D01*
X92049719Y-118380000D01*
X209460053Y-118380000D01*
X209606585Y-119116666D01*
X210023872Y-119741181D01*
X210037071Y-119750000D01*
X210023872Y-119758819D01*
X209606585Y-120383334D01*
X209460053Y-121120000D01*
X209606585Y-121856666D01*
X210023872Y-122481181D01*
X210648387Y-122898468D01*
X211385053Y-123045000D01*
X212887907Y-123045000D01*
X213624573Y-122898468D01*
X214249088Y-122481181D01*
X214666375Y-121856666D01*
X214812907Y-121120000D01*
X214666375Y-120383334D01*
X214249088Y-119758819D01*
X214235889Y-119750000D01*
X214249088Y-119741181D01*
X214666375Y-119116666D01*
X214812907Y-118380000D01*
X214666375Y-117643334D01*
X214249088Y-117018819D01*
X213624573Y-116601532D01*
X212887907Y-116455000D01*
X211385053Y-116455000D01*
X210648387Y-116601532D01*
X210023872Y-117018819D01*
X209606585Y-117643334D01*
X209460053Y-118380000D01*
X92049719Y-118380000D01*
X93280111Y-117151753D01*
X93970453Y-115489227D01*
X93972024Y-113689071D01*
X93756564Y-113167618D01*
X123623701Y-113167618D01*
X123885763Y-113801858D01*
X124370590Y-114287531D01*
X125004371Y-114550700D01*
X125690618Y-114551299D01*
X126324858Y-114289237D01*
X126810531Y-113804410D01*
X127073700Y-113170629D01*
X127074299Y-112484382D01*
X126926219Y-112126000D01*
X131223920Y-112126000D01*
X131223920Y-113526000D01*
X131295392Y-113905842D01*
X131519879Y-114254704D01*
X131862405Y-114488742D01*
X132269000Y-114571080D01*
X133669000Y-114571080D01*
X134048842Y-114499608D01*
X134397704Y-114275121D01*
X134631742Y-113932595D01*
X134714080Y-113526000D01*
X134714080Y-113167618D01*
X143623701Y-113167618D01*
X143885763Y-113801858D01*
X144370590Y-114287531D01*
X145004371Y-114550700D01*
X145690618Y-114551299D01*
X146324858Y-114289237D01*
X146810531Y-113804410D01*
X147073700Y-113170629D01*
X147074299Y-112484382D01*
X146926219Y-112126000D01*
X151223920Y-112126000D01*
X151223920Y-113526000D01*
X151295392Y-113905842D01*
X151519879Y-114254704D01*
X151862405Y-114488742D01*
X152269000Y-114571080D01*
X153669000Y-114571080D01*
X154048842Y-114499608D01*
X154397704Y-114275121D01*
X154631742Y-113932595D01*
X154714080Y-113526000D01*
X154714080Y-113167618D01*
X163623701Y-113167618D01*
X163885763Y-113801858D01*
X164370590Y-114287531D01*
X165004371Y-114550700D01*
X165690618Y-114551299D01*
X166324858Y-114289237D01*
X166810531Y-113804410D01*
X167073700Y-113170629D01*
X167074299Y-112484382D01*
X166926219Y-112126000D01*
X171223920Y-112126000D01*
X171223920Y-113526000D01*
X171295392Y-113905842D01*
X171519879Y-114254704D01*
X171862405Y-114488742D01*
X172269000Y-114571080D01*
X173669000Y-114571080D01*
X174048842Y-114499608D01*
X174397704Y-114275121D01*
X174631742Y-113932595D01*
X174714080Y-113526000D01*
X174714080Y-113167618D01*
X183623701Y-113167618D01*
X183885763Y-113801858D01*
X184370590Y-114287531D01*
X185004371Y-114550700D01*
X185690618Y-114551299D01*
X186324858Y-114289237D01*
X186810531Y-113804410D01*
X187073700Y-113170629D01*
X187074299Y-112484382D01*
X186926219Y-112126000D01*
X191223920Y-112126000D01*
X191223920Y-113526000D01*
X191295392Y-113905842D01*
X191519879Y-114254704D01*
X191862405Y-114488742D01*
X192269000Y-114571080D01*
X193669000Y-114571080D01*
X194048842Y-114499608D01*
X194397704Y-114275121D01*
X194631742Y-113932595D01*
X194714080Y-113526000D01*
X194714080Y-112807854D01*
X208181202Y-112807854D01*
X208425034Y-113397972D01*
X208536666Y-113509799D01*
X208426620Y-113619653D01*
X208181759Y-114209345D01*
X208181202Y-114847854D01*
X208425034Y-115437972D01*
X208876133Y-115889860D01*
X209465825Y-116134721D01*
X210104334Y-116135278D01*
X210694452Y-115891446D01*
X211146340Y-115440347D01*
X211391201Y-114850655D01*
X211391215Y-114834881D01*
X211426133Y-114869860D01*
X212015825Y-115114721D01*
X212654334Y-115115278D01*
X213244452Y-114871446D01*
X213696340Y-114420347D01*
X213941201Y-113830655D01*
X213941758Y-113192146D01*
X213697926Y-112602028D01*
X213586294Y-112490201D01*
X213696340Y-112380347D01*
X213941201Y-111790655D01*
X213941758Y-111152146D01*
X213697926Y-110562028D01*
X213246827Y-110110140D01*
X212657135Y-109865279D01*
X212018626Y-109864722D01*
X211428508Y-110108554D01*
X210976620Y-110559653D01*
X210731759Y-111149345D01*
X210731745Y-111165119D01*
X210696827Y-111130140D01*
X210107135Y-110885279D01*
X209468626Y-110884722D01*
X208878508Y-111128554D01*
X208426620Y-111579653D01*
X208181759Y-112169345D01*
X208181202Y-112807854D01*
X194714080Y-112807854D01*
X194714080Y-112126000D01*
X194642608Y-111746158D01*
X194418121Y-111397296D01*
X194075595Y-111163258D01*
X193669000Y-111080920D01*
X192269000Y-111080920D01*
X191889158Y-111152392D01*
X191540296Y-111376879D01*
X191306258Y-111719405D01*
X191223920Y-112126000D01*
X186926219Y-112126000D01*
X186812237Y-111850142D01*
X186327410Y-111364469D01*
X185693629Y-111101300D01*
X185007382Y-111100701D01*
X184373142Y-111362763D01*
X183887469Y-111847590D01*
X183624300Y-112481371D01*
X183623701Y-113167618D01*
X174714080Y-113167618D01*
X174714080Y-112126000D01*
X174642608Y-111746158D01*
X174418121Y-111397296D01*
X174075595Y-111163258D01*
X173669000Y-111080920D01*
X172269000Y-111080920D01*
X171889158Y-111152392D01*
X171540296Y-111376879D01*
X171306258Y-111719405D01*
X171223920Y-112126000D01*
X166926219Y-112126000D01*
X166812237Y-111850142D01*
X166327410Y-111364469D01*
X165693629Y-111101300D01*
X165007382Y-111100701D01*
X164373142Y-111362763D01*
X163887469Y-111847590D01*
X163624300Y-112481371D01*
X163623701Y-113167618D01*
X154714080Y-113167618D01*
X154714080Y-112126000D01*
X154642608Y-111746158D01*
X154418121Y-111397296D01*
X154075595Y-111163258D01*
X153669000Y-111080920D01*
X152269000Y-111080920D01*
X151889158Y-111152392D01*
X151540296Y-111376879D01*
X151306258Y-111719405D01*
X151223920Y-112126000D01*
X146926219Y-112126000D01*
X146812237Y-111850142D01*
X146327410Y-111364469D01*
X145693629Y-111101300D01*
X145007382Y-111100701D01*
X144373142Y-111362763D01*
X143887469Y-111847590D01*
X143624300Y-112481371D01*
X143623701Y-113167618D01*
X134714080Y-113167618D01*
X134714080Y-112126000D01*
X134642608Y-111746158D01*
X134418121Y-111397296D01*
X134075595Y-111163258D01*
X133669000Y-111080920D01*
X132269000Y-111080920D01*
X131889158Y-111152392D01*
X131540296Y-111376879D01*
X131306258Y-111719405D01*
X131223920Y-112126000D01*
X126926219Y-112126000D01*
X126812237Y-111850142D01*
X126327410Y-111364469D01*
X125693629Y-111101300D01*
X125007382Y-111100701D01*
X124373142Y-111362763D01*
X123887469Y-111847590D01*
X123624300Y-112481371D01*
X123623701Y-113167618D01*
X93756564Y-113167618D01*
X93284585Y-112025342D01*
X92012793Y-110751329D01*
X90350267Y-110060987D01*
X88550111Y-110059416D01*
X86886382Y-110746855D01*
X85612369Y-112018647D01*
X84922027Y-113681173D01*
X84920456Y-115481329D01*
X79072477Y-115481329D01*
X79072477Y-113594661D01*
X78994073Y-113200497D01*
X78770797Y-112866341D01*
X78436641Y-112643065D01*
X78042477Y-112564661D01*
X63193246Y-112564661D01*
X62996542Y-112603788D01*
X62800645Y-112642420D01*
X62799929Y-112642896D01*
X62799082Y-112643065D01*
X62632293Y-112754510D01*
X62466123Y-112865147D01*
X62465644Y-112865861D01*
X62464926Y-112866341D01*
X62353623Y-113032917D01*
X62242298Y-113198936D01*
X62242129Y-113199781D01*
X62241650Y-113200497D01*
X62202647Y-113396579D01*
X62163247Y-113592970D01*
X62162830Y-113846970D01*
X62162830Y-113846971D01*
X62153211Y-119708510D01*
X62153220Y-119708557D01*
X62153211Y-119708604D01*
X62152652Y-120069187D01*
X62152679Y-120069322D01*
X62152652Y-120069455D01*
X62151781Y-120744757D01*
X62151816Y-120744936D01*
X62151780Y-120745117D01*
X62151167Y-121397211D01*
X62151204Y-121397399D01*
X62151167Y-121397586D01*
X62150807Y-122022246D01*
X62150846Y-122022443D01*
X62150807Y-122022640D01*
X62150692Y-122615642D01*
X58026480Y-122615642D01*
X58026480Y-104880000D01*
X209460053Y-104880000D01*
X209606585Y-105616666D01*
X210023872Y-106241181D01*
X210037071Y-106250000D01*
X210023872Y-106258819D01*
X209606585Y-106883334D01*
X209460053Y-107620000D01*
X209606585Y-108356666D01*
X210023872Y-108981181D01*
X210648387Y-109398468D01*
X211385053Y-109545000D01*
X212887907Y-109545000D01*
X213624573Y-109398468D01*
X214249088Y-108981181D01*
X214666375Y-108356666D01*
X214812907Y-107620000D01*
X214666375Y-106883334D01*
X214249088Y-106258819D01*
X214235889Y-106250000D01*
X214249088Y-106241181D01*
X214666375Y-105616666D01*
X214812907Y-104880000D01*
X214666375Y-104143334D01*
X214249088Y-103518819D01*
X213624573Y-103101532D01*
X212887907Y-102955000D01*
X211385053Y-102955000D01*
X210648387Y-103101532D01*
X210023872Y-103518819D01*
X209606585Y-104143334D01*
X209460053Y-104880000D01*
X58026480Y-104880000D01*
X58026480Y-99307854D01*
X208181202Y-99307854D01*
X208425034Y-99897972D01*
X208536666Y-100009799D01*
X208426620Y-100119653D01*
X208181759Y-100709345D01*
X208181202Y-101347854D01*
X208425034Y-101937972D01*
X208876133Y-102389860D01*
X209465825Y-102634721D01*
X210104334Y-102635278D01*
X210694452Y-102391446D01*
X211146340Y-101940347D01*
X211391201Y-101350655D01*
X211391215Y-101334881D01*
X211426133Y-101369860D01*
X212015825Y-101614721D01*
X212654334Y-101615278D01*
X213244452Y-101371446D01*
X213696340Y-100920347D01*
X213941201Y-100330655D01*
X213941758Y-99692146D01*
X213697926Y-99102028D01*
X213586294Y-98990201D01*
X213696340Y-98880347D01*
X213941201Y-98290655D01*
X213941758Y-97652146D01*
X213697926Y-97062028D01*
X213246827Y-96610140D01*
X212657135Y-96365279D01*
X212018626Y-96364722D01*
X211428508Y-96608554D01*
X210976620Y-97059653D01*
X210731759Y-97649345D01*
X210731745Y-97665119D01*
X210696827Y-97630140D01*
X210107135Y-97385279D01*
X209468626Y-97384722D01*
X208878508Y-97628554D01*
X208426620Y-98079653D01*
X208181759Y-98669345D01*
X208181202Y-99307854D01*
X58026480Y-99307854D01*
X58026480Y-93264109D01*
X133185507Y-93264109D01*
X133688514Y-94481480D01*
X134619101Y-95413692D01*
X135835592Y-95918824D01*
X137152789Y-95919973D01*
X138370160Y-95416966D01*
X139302372Y-94486379D01*
X139432196Y-94173728D01*
X139752080Y-94173728D01*
X139752080Y-94653072D01*
X139891000Y-95351469D01*
X140179607Y-95783400D01*
X139891000Y-96215331D01*
X139752080Y-96913728D01*
X139752080Y-97393072D01*
X139891000Y-98091469D01*
X140286610Y-98683542D01*
X140878683Y-99079152D01*
X141577080Y-99218072D01*
X142275477Y-99079152D01*
X142847080Y-98697220D01*
X143418683Y-99079152D01*
X144117080Y-99218072D01*
X144815477Y-99079152D01*
X145387080Y-98697220D01*
X145958683Y-99079152D01*
X146657080Y-99218072D01*
X147355477Y-99079152D01*
X147927080Y-98697220D01*
X148498683Y-99079152D01*
X149197080Y-99218072D01*
X149895477Y-99079152D01*
X150467080Y-98697220D01*
X151038683Y-99079152D01*
X151737080Y-99218072D01*
X152435477Y-99079152D01*
X153007080Y-98697220D01*
X153578683Y-99079152D01*
X154277080Y-99218072D01*
X154975477Y-99079152D01*
X155547080Y-98697220D01*
X156118683Y-99079152D01*
X156817080Y-99218072D01*
X157515477Y-99079152D01*
X158087080Y-98697220D01*
X158658683Y-99079152D01*
X159357080Y-99218072D01*
X160055477Y-99079152D01*
X160627080Y-98697220D01*
X161198683Y-99079152D01*
X161897080Y-99218072D01*
X162595477Y-99079152D01*
X163167080Y-98697220D01*
X163738683Y-99079152D01*
X164437080Y-99218072D01*
X165135477Y-99079152D01*
X165707080Y-98697220D01*
X166278683Y-99079152D01*
X166977080Y-99218072D01*
X167675477Y-99079152D01*
X168247080Y-98697220D01*
X168818683Y-99079152D01*
X169517080Y-99218072D01*
X170215477Y-99079152D01*
X170787080Y-98697220D01*
X171358683Y-99079152D01*
X172057080Y-99218072D01*
X172755477Y-99079152D01*
X173327080Y-98697220D01*
X173898683Y-99079152D01*
X174597080Y-99218072D01*
X175295477Y-99079152D01*
X175867080Y-98697220D01*
X176438683Y-99079152D01*
X177137080Y-99218072D01*
X177835477Y-99079152D01*
X178407080Y-98697220D01*
X178978683Y-99079152D01*
X179677080Y-99218072D01*
X180375477Y-99079152D01*
X180947080Y-98697220D01*
X181518683Y-99079152D01*
X182217080Y-99218072D01*
X182915477Y-99079152D01*
X183487080Y-98697220D01*
X184058683Y-99079152D01*
X184757080Y-99218072D01*
X185455477Y-99079152D01*
X186027080Y-98697220D01*
X186598683Y-99079152D01*
X187297080Y-99218072D01*
X187995477Y-99079152D01*
X188567080Y-98697220D01*
X189138683Y-99079152D01*
X189837080Y-99218072D01*
X190535477Y-99079152D01*
X191107080Y-98697220D01*
X191678683Y-99079152D01*
X192377080Y-99218072D01*
X193075477Y-99079152D01*
X193647080Y-98697220D01*
X194218683Y-99079152D01*
X194917080Y-99218072D01*
X195615477Y-99079152D01*
X196131140Y-98734597D01*
X196250485Y-98816142D01*
X196657080Y-98898480D01*
X198257080Y-98898480D01*
X198636922Y-98827008D01*
X198985784Y-98602521D01*
X199219822Y-98259995D01*
X199302160Y-97853400D01*
X199302160Y-96624624D01*
X199728514Y-97656480D01*
X200659101Y-98588692D01*
X201875592Y-99093824D01*
X203192789Y-99094973D01*
X204410160Y-98591966D01*
X205342372Y-97661379D01*
X205847504Y-96444888D01*
X205848653Y-95127691D01*
X205345646Y-93910320D01*
X204415059Y-92978108D01*
X203198568Y-92472976D01*
X201881371Y-92471827D01*
X200664000Y-92974834D01*
X199731788Y-93905421D01*
X199226656Y-95121912D01*
X199226007Y-95866283D01*
X199016608Y-95540868D01*
X199143160Y-95351469D01*
X199282080Y-94653072D01*
X199282080Y-94173728D01*
X199143160Y-93475331D01*
X198747550Y-92883258D01*
X198155477Y-92487648D01*
X197457080Y-92348728D01*
X196758683Y-92487648D01*
X196187080Y-92869580D01*
X195615477Y-92487648D01*
X194917080Y-92348728D01*
X194218683Y-92487648D01*
X193647080Y-92869580D01*
X193075477Y-92487648D01*
X192377080Y-92348728D01*
X191678683Y-92487648D01*
X191107080Y-92869580D01*
X190535477Y-92487648D01*
X189837080Y-92348728D01*
X189138683Y-92487648D01*
X188567080Y-92869580D01*
X187995477Y-92487648D01*
X187297080Y-92348728D01*
X186598683Y-92487648D01*
X186027080Y-92869580D01*
X185455477Y-92487648D01*
X184757080Y-92348728D01*
X184058683Y-92487648D01*
X183487080Y-92869580D01*
X182915477Y-92487648D01*
X182217080Y-92348728D01*
X181518683Y-92487648D01*
X180947080Y-92869580D01*
X180375477Y-92487648D01*
X179677080Y-92348728D01*
X178978683Y-92487648D01*
X178407080Y-92869580D01*
X177835477Y-92487648D01*
X177137080Y-92348728D01*
X176438683Y-92487648D01*
X175867080Y-92869580D01*
X175295477Y-92487648D01*
X174597080Y-92348728D01*
X173898683Y-92487648D01*
X173327080Y-92869580D01*
X172755477Y-92487648D01*
X172057080Y-92348728D01*
X171358683Y-92487648D01*
X170787080Y-92869580D01*
X170215477Y-92487648D01*
X169517080Y-92348728D01*
X168818683Y-92487648D01*
X168247080Y-92869580D01*
X167675477Y-92487648D01*
X166977080Y-92348728D01*
X166278683Y-92487648D01*
X165707080Y-92869580D01*
X165135477Y-92487648D01*
X164437080Y-92348728D01*
X163738683Y-92487648D01*
X163167080Y-92869580D01*
X162595477Y-92487648D01*
X161897080Y-92348728D01*
X161198683Y-92487648D01*
X160627080Y-92869580D01*
X160055477Y-92487648D01*
X159357080Y-92348728D01*
X158658683Y-92487648D01*
X158066610Y-92883258D01*
X157671000Y-93475331D01*
X157606808Y-93798046D01*
X157399421Y-93534013D01*
X157342628Y-93452201D01*
X157217080Y-93414157D01*
X157217080Y-93938400D01*
X157312080Y-93938400D01*
X157312080Y-94888400D01*
X157217080Y-94888400D01*
X157217080Y-94908400D01*
X156417080Y-94908400D01*
X156417080Y-94888400D01*
X156322080Y-94888400D01*
X156322080Y-93938400D01*
X156417080Y-93938400D01*
X156417080Y-93414157D01*
X156291532Y-93452201D01*
X156234739Y-93534013D01*
X156027352Y-93798046D01*
X155963160Y-93475331D01*
X155567550Y-92883258D01*
X154975477Y-92487648D01*
X154277080Y-92348728D01*
X153578683Y-92487648D01*
X153007080Y-92869580D01*
X152435477Y-92487648D01*
X151737080Y-92348728D01*
X151038683Y-92487648D01*
X150467080Y-92869580D01*
X149895477Y-92487648D01*
X149197080Y-92348728D01*
X148498683Y-92487648D01*
X147927080Y-92869580D01*
X147355477Y-92487648D01*
X146657080Y-92348728D01*
X145958683Y-92487648D01*
X145387080Y-92869580D01*
X144815477Y-92487648D01*
X144117080Y-92348728D01*
X143418683Y-92487648D01*
X142847080Y-92869580D01*
X142275477Y-92487648D01*
X141577080Y-92348728D01*
X140878683Y-92487648D01*
X140286610Y-92883258D01*
X139891000Y-93475331D01*
X139752080Y-94173728D01*
X139432196Y-94173728D01*
X139807504Y-93269888D01*
X139808653Y-91952691D01*
X139572023Y-91380000D01*
X209460053Y-91380000D01*
X209606585Y-92116666D01*
X210023872Y-92741181D01*
X210037071Y-92750000D01*
X210023872Y-92758819D01*
X209606585Y-93383334D01*
X209460053Y-94120000D01*
X209606585Y-94856666D01*
X210023872Y-95481181D01*
X210648387Y-95898468D01*
X211385053Y-96045000D01*
X212887907Y-96045000D01*
X213624573Y-95898468D01*
X214249088Y-95481181D01*
X214666375Y-94856666D01*
X214812907Y-94120000D01*
X214666375Y-93383334D01*
X214249088Y-92758819D01*
X214235889Y-92750000D01*
X214249088Y-92741181D01*
X214666375Y-92116666D01*
X214812907Y-91380000D01*
X214666375Y-90643334D01*
X214249088Y-90018819D01*
X213624573Y-89601532D01*
X212887907Y-89455000D01*
X211385053Y-89455000D01*
X210648387Y-89601532D01*
X210023872Y-90018819D01*
X209606585Y-90643334D01*
X209460053Y-91380000D01*
X139572023Y-91380000D01*
X139305646Y-90735320D01*
X138375059Y-89803108D01*
X137158568Y-89297976D01*
X135841371Y-89296827D01*
X134624000Y-89799834D01*
X133691788Y-90730421D01*
X133186656Y-91946912D01*
X133185507Y-93264109D01*
X58026480Y-93264109D01*
X58026480Y-85807854D01*
X208181202Y-85807854D01*
X208425034Y-86397972D01*
X208536666Y-86509799D01*
X208426620Y-86619653D01*
X208181759Y-87209345D01*
X208181202Y-87847854D01*
X208425034Y-88437972D01*
X208876133Y-88889860D01*
X209465825Y-89134721D01*
X210104334Y-89135278D01*
X210694452Y-88891446D01*
X211146340Y-88440347D01*
X211391201Y-87850655D01*
X211391215Y-87834881D01*
X211426133Y-87869860D01*
X212015825Y-88114721D01*
X212654334Y-88115278D01*
X213244452Y-87871446D01*
X213696340Y-87420347D01*
X213941201Y-86830655D01*
X213941758Y-86192146D01*
X213697926Y-85602028D01*
X213586294Y-85490201D01*
X213696340Y-85380347D01*
X213941201Y-84790655D01*
X213941758Y-84152146D01*
X213697926Y-83562028D01*
X213246827Y-83110140D01*
X212657135Y-82865279D01*
X212018626Y-82864722D01*
X211428508Y-83108554D01*
X210976620Y-83559653D01*
X210731759Y-84149345D01*
X210731745Y-84165119D01*
X210696827Y-84130140D01*
X210107135Y-83885279D01*
X209468626Y-83884722D01*
X208878508Y-84128554D01*
X208426620Y-84579653D01*
X208181759Y-85169345D01*
X208181202Y-85807854D01*
X58026480Y-85807854D01*
X58026480Y-80513000D01*
X149986920Y-80513000D01*
X149986920Y-81163000D01*
X150016181Y-81318507D01*
X149986920Y-81463000D01*
X149986920Y-82113000D01*
X150058392Y-82492842D01*
X150282879Y-82841704D01*
X150625405Y-83075742D01*
X150907000Y-83132767D01*
X150907000Y-83213002D01*
X151317000Y-83213002D01*
X151317000Y-83188000D01*
X151390750Y-83188000D01*
X151420670Y-83158080D01*
X152203330Y-83158080D01*
X152233250Y-83188000D01*
X152307000Y-83188000D01*
X152307000Y-83213002D01*
X152715145Y-83213002D01*
X152758392Y-83442842D01*
X152982879Y-83791704D01*
X153325405Y-84025742D01*
X153732000Y-84108080D01*
X155292000Y-84108080D01*
X155671842Y-84036608D01*
X156020704Y-83812121D01*
X156254742Y-83469595D01*
X156337080Y-83063000D01*
X156337080Y-82413000D01*
X156265608Y-82033158D01*
X156106718Y-81786236D01*
X156254742Y-81569595D01*
X156337080Y-81163000D01*
X156337080Y-80620000D01*
X209460053Y-80620000D01*
X209606585Y-81356666D01*
X210023872Y-81981181D01*
X210648387Y-82398468D01*
X211385053Y-82545000D01*
X212887907Y-82545000D01*
X213624573Y-82398468D01*
X214249088Y-81981181D01*
X214666375Y-81356666D01*
X214812907Y-80620000D01*
X214666375Y-79883334D01*
X214249088Y-79258819D01*
X213624573Y-78841532D01*
X212887907Y-78695000D01*
X211385053Y-78695000D01*
X210648387Y-78841532D01*
X210023872Y-79258819D01*
X209606585Y-79883334D01*
X209460053Y-80620000D01*
X156337080Y-80620000D01*
X156337080Y-80513000D01*
X156265608Y-80133158D01*
X156041121Y-79784296D01*
X155698595Y-79550258D01*
X155292000Y-79467920D01*
X153732000Y-79467920D01*
X153352158Y-79539392D01*
X153161885Y-79661829D01*
X152998595Y-79550258D01*
X152592000Y-79467920D01*
X151032000Y-79467920D01*
X150652158Y-79539392D01*
X150303296Y-79763879D01*
X150069258Y-80106405D01*
X149986920Y-80513000D01*
X58026480Y-80513000D01*
X58026480Y-76381329D01*
X84920456Y-76381329D01*
X85607895Y-78045058D01*
X86879687Y-79319071D01*
X88542213Y-80009413D01*
X90342369Y-80010984D01*
X92006098Y-79323545D01*
X93280111Y-78051753D01*
X93970453Y-76389227D01*
X93971167Y-75570730D01*
X147271680Y-75570730D01*
X147271680Y-75889344D01*
X147290710Y-75935287D01*
X147325873Y-75970450D01*
X147371816Y-75989480D01*
X147540430Y-75989480D01*
X147571680Y-75958230D01*
X147571680Y-75539480D01*
X147921680Y-75539480D01*
X147921680Y-75958230D01*
X147952930Y-75989480D01*
X148121544Y-75989480D01*
X148167487Y-75970450D01*
X148202650Y-75935287D01*
X148221680Y-75889344D01*
X148221680Y-75570730D01*
X148190430Y-75539480D01*
X147921680Y-75539480D01*
X147571680Y-75539480D01*
X147302930Y-75539480D01*
X147271680Y-75570730D01*
X93971167Y-75570730D01*
X93972024Y-74589071D01*
X93951590Y-74539616D01*
X147271680Y-74539616D01*
X147271680Y-74858230D01*
X147302930Y-74889480D01*
X147571680Y-74889480D01*
X147571680Y-74470730D01*
X147921680Y-74470730D01*
X147921680Y-74889480D01*
X148190430Y-74889480D01*
X148221680Y-74858230D01*
X148221680Y-74564480D01*
X148251600Y-74564480D01*
X148251600Y-75864480D01*
X148323072Y-76244322D01*
X148547559Y-76593184D01*
X148890085Y-76827222D01*
X149296680Y-76909560D01*
X149996680Y-76909560D01*
X150376522Y-76838088D01*
X150725384Y-76613601D01*
X150959422Y-76271075D01*
X151041760Y-75864480D01*
X151041760Y-74564480D01*
X150989188Y-74285080D01*
X152721920Y-74285080D01*
X152721920Y-75585080D01*
X152793392Y-75964922D01*
X153017879Y-76313784D01*
X153360405Y-76547822D01*
X153767000Y-76630160D01*
X154467000Y-76630160D01*
X154846842Y-76558688D01*
X155068014Y-76416367D01*
X155260405Y-76547822D01*
X155667000Y-76630160D01*
X156367000Y-76630160D01*
X156746842Y-76558688D01*
X157095704Y-76334201D01*
X157329742Y-75991675D01*
X157412080Y-75585080D01*
X157412080Y-74285080D01*
X157340608Y-73905238D01*
X157116121Y-73556376D01*
X156773595Y-73322338D01*
X156652355Y-73297786D01*
X207497885Y-73297786D01*
X207660182Y-73382775D01*
X208147091Y-73403161D01*
X208249578Y-73382775D01*
X208411875Y-73297786D01*
X212497885Y-73297786D01*
X212660182Y-73382775D01*
X213147091Y-73403161D01*
X213249578Y-73382775D01*
X213411875Y-73297786D01*
X212954880Y-72840791D01*
X212497885Y-73297786D01*
X208411875Y-73297786D01*
X207954880Y-72840791D01*
X207497885Y-73297786D01*
X156652355Y-73297786D01*
X156367000Y-73240000D01*
X155667000Y-73240000D01*
X155287158Y-73311472D01*
X155065986Y-73453793D01*
X154873595Y-73322338D01*
X154467000Y-73240000D01*
X153767000Y-73240000D01*
X153387158Y-73311472D01*
X153038296Y-73535959D01*
X152804258Y-73878485D01*
X152721920Y-74285080D01*
X150989188Y-74285080D01*
X150970288Y-74184638D01*
X150745801Y-73835776D01*
X150403275Y-73601738D01*
X149996680Y-73519400D01*
X149296680Y-73519400D01*
X148916838Y-73590872D01*
X148567976Y-73815359D01*
X148333938Y-74157885D01*
X148251600Y-74564480D01*
X148221680Y-74564480D01*
X148221680Y-74539616D01*
X148202650Y-74493673D01*
X148167487Y-74458510D01*
X148121544Y-74439480D01*
X147952930Y-74439480D01*
X147921680Y-74470730D01*
X147571680Y-74470730D01*
X147540430Y-74439480D01*
X147371816Y-74439480D01*
X147325873Y-74458510D01*
X147290710Y-74493673D01*
X147271680Y-74539616D01*
X93951590Y-74539616D01*
X93284585Y-72925342D01*
X92721478Y-72361251D01*
X206720759Y-72361251D01*
X206741145Y-72463738D01*
X206826134Y-72626035D01*
X207283129Y-72169040D01*
X208626631Y-72169040D01*
X209083626Y-72626035D01*
X209168615Y-72463738D01*
X209172905Y-72361251D01*
X211720759Y-72361251D01*
X211741145Y-72463738D01*
X211826134Y-72626035D01*
X212283129Y-72169040D01*
X213626631Y-72169040D01*
X214083626Y-72626035D01*
X214168615Y-72463738D01*
X214189001Y-71976829D01*
X214168615Y-71874342D01*
X214083626Y-71712045D01*
X213626631Y-72169040D01*
X212283129Y-72169040D01*
X211826134Y-71712045D01*
X211741145Y-71874342D01*
X211720759Y-72361251D01*
X209172905Y-72361251D01*
X209189001Y-71976829D01*
X209168615Y-71874342D01*
X209083626Y-71712045D01*
X208626631Y-72169040D01*
X207283129Y-72169040D01*
X206826134Y-71712045D01*
X206741145Y-71874342D01*
X206720759Y-72361251D01*
X92721478Y-72361251D01*
X92012793Y-71651329D01*
X90541260Y-71040294D01*
X207497885Y-71040294D01*
X207954880Y-71497289D01*
X208411875Y-71040294D01*
X208249578Y-70955305D01*
X207762669Y-70934919D01*
X207660182Y-70955305D01*
X207497885Y-71040294D01*
X90541260Y-71040294D01*
X90350267Y-70960987D01*
X88550111Y-70959416D01*
X86886382Y-71646855D01*
X85612369Y-72918647D01*
X84922027Y-74581173D01*
X84920456Y-76381329D01*
X58026480Y-76381329D01*
X58026480Y-72059273D01*
X70687937Y-72059273D01*
X70808678Y-72259734D01*
X70915669Y-72382661D01*
X71002200Y-72394553D01*
X71002200Y-71968500D01*
X71502200Y-71968500D01*
X71502200Y-72394553D01*
X71588731Y-72382661D01*
X71695722Y-72259734D01*
X71816463Y-72059273D01*
X77687937Y-72059273D01*
X77808678Y-72259734D01*
X77915669Y-72382661D01*
X78002200Y-72394553D01*
X78002200Y-71968500D01*
X78502200Y-71968500D01*
X78502200Y-72394553D01*
X78588731Y-72382661D01*
X78695722Y-72259734D01*
X78816463Y-72059273D01*
X78810065Y-71968500D01*
X78502200Y-71968500D01*
X78002200Y-71968500D01*
X77694335Y-71968500D01*
X77687937Y-72059273D01*
X71816463Y-72059273D01*
X71810065Y-71968500D01*
X71502200Y-71968500D01*
X71002200Y-71968500D01*
X70694335Y-71968500D01*
X70687937Y-72059273D01*
X58026480Y-72059273D01*
X58026480Y-71102727D01*
X70687937Y-71102727D01*
X70694335Y-71193500D01*
X71002200Y-71193500D01*
X71502200Y-71193500D01*
X71810065Y-71193500D01*
X71816463Y-71102727D01*
X77687937Y-71102727D01*
X77694335Y-71193500D01*
X78002200Y-71193500D01*
X78502200Y-71193500D01*
X78810065Y-71193500D01*
X78816463Y-71102727D01*
X78695722Y-70902266D01*
X78588731Y-70779339D01*
X78502200Y-70767447D01*
X78502200Y-71193500D01*
X78002200Y-71193500D01*
X78002200Y-70767447D01*
X77915669Y-70779339D01*
X77808678Y-70902266D01*
X77687937Y-71102727D01*
X71816463Y-71102727D01*
X71695722Y-70902266D01*
X71588731Y-70779339D01*
X71502200Y-70767447D01*
X71502200Y-71193500D01*
X71002200Y-71193500D01*
X71002200Y-70767447D01*
X70915669Y-70779339D01*
X70808678Y-70902266D01*
X70687937Y-71102727D01*
X58026480Y-71102727D01*
X58026480Y-68643500D01*
X71585412Y-68643500D01*
X71939700Y-68643500D01*
X71939700Y-68406000D01*
X72207120Y-68406000D01*
X72207120Y-69356000D01*
X71939700Y-69356000D01*
X71939700Y-69118500D01*
X71585412Y-69118500D01*
X71595144Y-69201770D01*
X71673080Y-69270253D01*
X71788796Y-69356000D01*
X71777198Y-69356000D01*
X71777198Y-69481000D01*
X72207120Y-69481000D01*
X72207120Y-69556000D01*
X72278592Y-69935842D01*
X72503079Y-70284704D01*
X72845605Y-70518742D01*
X73252200Y-70601080D01*
X73652200Y-70601080D01*
X73781789Y-70576696D01*
X73902200Y-70601080D01*
X74302200Y-70601080D01*
X74431789Y-70576696D01*
X74552200Y-70601080D01*
X74952200Y-70601080D01*
X75081789Y-70576696D01*
X75202200Y-70601080D01*
X75602200Y-70601080D01*
X75982042Y-70529608D01*
X76330904Y-70305121D01*
X76477975Y-70089874D01*
X208329512Y-70089874D01*
X208652342Y-70871183D01*
X209249593Y-71469477D01*
X210030337Y-71793670D01*
X210875714Y-71794408D01*
X211657023Y-71471578D01*
X212089060Y-71040294D01*
X212497885Y-71040294D01*
X212954880Y-71497289D01*
X213411875Y-71040294D01*
X213249578Y-70955305D01*
X212762669Y-70934919D01*
X212660182Y-70955305D01*
X212497885Y-71040294D01*
X212089060Y-71040294D01*
X212255317Y-70874327D01*
X212579510Y-70093583D01*
X212580248Y-69248206D01*
X212257418Y-68466897D01*
X212088602Y-68297786D01*
X212497885Y-68297786D01*
X212660182Y-68382775D01*
X213147091Y-68403161D01*
X213249578Y-68382775D01*
X213411875Y-68297786D01*
X212954880Y-67840791D01*
X212497885Y-68297786D01*
X212088602Y-68297786D01*
X211660167Y-67868603D01*
X210879423Y-67544410D01*
X210034046Y-67543672D01*
X209252737Y-67866502D01*
X208654443Y-68463753D01*
X208330250Y-69244497D01*
X208329512Y-70089874D01*
X76477975Y-70089874D01*
X76564942Y-69962595D01*
X76647280Y-69556000D01*
X76647280Y-69356002D01*
X76757200Y-69356002D01*
X76757200Y-69332587D01*
X76854706Y-69404840D01*
X76939700Y-69405857D01*
X76939700Y-69118500D01*
X77564700Y-69118500D01*
X77564700Y-69405857D01*
X77649694Y-69404840D01*
X77831320Y-69270253D01*
X77909256Y-69201770D01*
X77918988Y-69118500D01*
X77564700Y-69118500D01*
X76939700Y-69118500D01*
X76757200Y-69118500D01*
X76757200Y-68643500D01*
X76939700Y-68643500D01*
X77564700Y-68643500D01*
X77918988Y-68643500D01*
X77909256Y-68560230D01*
X77831320Y-68491747D01*
X77649694Y-68357160D01*
X77564700Y-68356143D01*
X77564700Y-68643500D01*
X76939700Y-68643500D01*
X76939700Y-68356143D01*
X76854706Y-68357160D01*
X76757200Y-68429413D01*
X76757200Y-68405998D01*
X76647280Y-68405998D01*
X76647280Y-68297786D01*
X207497885Y-68297786D01*
X207660182Y-68382775D01*
X208147091Y-68403161D01*
X208249578Y-68382775D01*
X208411875Y-68297786D01*
X207954880Y-67840791D01*
X207497885Y-68297786D01*
X76647280Y-68297786D01*
X76647280Y-68206000D01*
X76575808Y-67826158D01*
X76351321Y-67477296D01*
X76181484Y-67361251D01*
X206720759Y-67361251D01*
X206741145Y-67463738D01*
X206826134Y-67626035D01*
X207283129Y-67169040D01*
X208626631Y-67169040D01*
X209083626Y-67626035D01*
X209168615Y-67463738D01*
X209172905Y-67361251D01*
X211720759Y-67361251D01*
X211741145Y-67463738D01*
X211826134Y-67626035D01*
X212283129Y-67169040D01*
X213626631Y-67169040D01*
X214083626Y-67626035D01*
X214168615Y-67463738D01*
X214189001Y-66976829D01*
X214168615Y-66874342D01*
X214083626Y-66712045D01*
X213626631Y-67169040D01*
X212283129Y-67169040D01*
X211826134Y-66712045D01*
X211741145Y-66874342D01*
X211720759Y-67361251D01*
X209172905Y-67361251D01*
X209189001Y-66976829D01*
X209168615Y-66874342D01*
X209083626Y-66712045D01*
X208626631Y-67169040D01*
X207283129Y-67169040D01*
X206826134Y-66712045D01*
X206741145Y-66874342D01*
X206720759Y-67361251D01*
X76181484Y-67361251D01*
X76008795Y-67243258D01*
X75602200Y-67160920D01*
X75202200Y-67160920D01*
X75072611Y-67185304D01*
X74952200Y-67160920D01*
X74552200Y-67160920D01*
X74422611Y-67185304D01*
X74302200Y-67160920D01*
X73902200Y-67160920D01*
X73772611Y-67185304D01*
X73652200Y-67160920D01*
X73252200Y-67160920D01*
X72872358Y-67232392D01*
X72523496Y-67456879D01*
X72289458Y-67799405D01*
X72207120Y-68206000D01*
X72207120Y-68281000D01*
X71777198Y-68281000D01*
X71777198Y-68406000D01*
X71788796Y-68406000D01*
X71673080Y-68491747D01*
X71595144Y-68560230D01*
X71585412Y-68643500D01*
X58026480Y-68643500D01*
X58026480Y-66040294D01*
X207497885Y-66040294D01*
X207954880Y-66497289D01*
X208411875Y-66040294D01*
X212497885Y-66040294D01*
X212954880Y-66497289D01*
X213411875Y-66040294D01*
X213249578Y-65955305D01*
X212762669Y-65934919D01*
X212660182Y-65955305D01*
X212497885Y-66040294D01*
X208411875Y-66040294D01*
X208249578Y-65955305D01*
X207762669Y-65934919D01*
X207660182Y-65955305D01*
X207497885Y-66040294D01*
X58026480Y-66040294D01*
X58026480Y-61988772D01*
X64730019Y-61988772D01*
X64944739Y-62116940D01*
X65584771Y-62207917D01*
X66042141Y-62116940D01*
X66256861Y-61988772D01*
X65701179Y-61433090D01*
X181749640Y-61433090D01*
X181749640Y-61751704D01*
X181768670Y-61797647D01*
X181803833Y-61832810D01*
X181849776Y-61851840D01*
X182018390Y-61851840D01*
X182049640Y-61820590D01*
X182049640Y-61401840D01*
X182399640Y-61401840D01*
X182399640Y-61820590D01*
X182430890Y-61851840D01*
X182599504Y-61851840D01*
X182645447Y-61832810D01*
X182680610Y-61797647D01*
X182699640Y-61751704D01*
X182699640Y-61433090D01*
X182668390Y-61401840D01*
X182399640Y-61401840D01*
X182049640Y-61401840D01*
X181780890Y-61401840D01*
X181749640Y-61433090D01*
X65701179Y-61433090D01*
X65493440Y-61225351D01*
X64730019Y-61988772D01*
X58026480Y-61988772D01*
X58026480Y-60644931D01*
X63839123Y-60644931D01*
X63930100Y-61102301D01*
X64058268Y-61317021D01*
X64821689Y-60553600D01*
X66165191Y-60553600D01*
X66928612Y-61317021D01*
X67056780Y-61102301D01*
X67147757Y-60462269D01*
X67135764Y-60401976D01*
X181749640Y-60401976D01*
X181749640Y-60720590D01*
X181780890Y-60751840D01*
X182049640Y-60751840D01*
X182049640Y-60333090D01*
X182399640Y-60333090D01*
X182399640Y-60751840D01*
X182668390Y-60751840D01*
X182699640Y-60720590D01*
X182699640Y-60426840D01*
X182729560Y-60426840D01*
X182729560Y-61726840D01*
X182801032Y-62106682D01*
X183025519Y-62455544D01*
X183368045Y-62689582D01*
X183774640Y-62771920D01*
X184474640Y-62771920D01*
X184854482Y-62700448D01*
X185203344Y-62475961D01*
X185437382Y-62133435D01*
X185519720Y-61726840D01*
X185519720Y-60426840D01*
X185479680Y-60214045D01*
X208276021Y-60214045D01*
X208678609Y-61188384D01*
X209423415Y-61934491D01*
X210397050Y-62338779D01*
X211451285Y-62339699D01*
X212425624Y-61937111D01*
X213171731Y-61192305D01*
X213576019Y-60218670D01*
X213576939Y-59164435D01*
X213174351Y-58190096D01*
X212429545Y-57443989D01*
X211455910Y-57039701D01*
X210401675Y-57038781D01*
X209427336Y-57441369D01*
X208681229Y-58186175D01*
X208276941Y-59159810D01*
X208276021Y-60214045D01*
X185479680Y-60214045D01*
X185448248Y-60046998D01*
X185223761Y-59698136D01*
X184881235Y-59464098D01*
X184474640Y-59381760D01*
X183774640Y-59381760D01*
X183394798Y-59453232D01*
X183045936Y-59677719D01*
X182811898Y-60020245D01*
X182729560Y-60426840D01*
X182699640Y-60426840D01*
X182699640Y-60401976D01*
X182680610Y-60356033D01*
X182645447Y-60320870D01*
X182599504Y-60301840D01*
X182430890Y-60301840D01*
X182399640Y-60333090D01*
X182049640Y-60333090D01*
X182018390Y-60301840D01*
X181849776Y-60301840D01*
X181803833Y-60320870D01*
X181768670Y-60356033D01*
X181749640Y-60401976D01*
X67135764Y-60401976D01*
X67056780Y-60004899D01*
X66928612Y-59790179D01*
X66165191Y-60553600D01*
X64821689Y-60553600D01*
X64058268Y-59790179D01*
X63930100Y-60004899D01*
X63839123Y-60644931D01*
X58026480Y-60644931D01*
X58026480Y-59118428D01*
X64730019Y-59118428D01*
X65493440Y-59881849D01*
X66256861Y-59118428D01*
X66042141Y-58990260D01*
X65402109Y-58899283D01*
X64944739Y-58990260D01*
X64730019Y-59118428D01*
X58026480Y-59118428D01*
X58026480Y-58316720D01*
X67880650Y-58316720D01*
X67991008Y-58378920D01*
X68335872Y-58378920D01*
X68446230Y-58316720D01*
X68163440Y-58033930D01*
X67880650Y-58316720D01*
X58026480Y-58316720D01*
X58026480Y-57331168D01*
X67288120Y-57331168D01*
X67288120Y-57676032D01*
X67350320Y-57786390D01*
X67633110Y-57503600D01*
X68693770Y-57503600D01*
X68976560Y-57786390D01*
X69038760Y-57676032D01*
X69038760Y-57331168D01*
X68976560Y-57220810D01*
X68693770Y-57503600D01*
X67633110Y-57503600D01*
X67350320Y-57220810D01*
X67288120Y-57331168D01*
X58026480Y-57331168D01*
X58026480Y-50745120D01*
X66388133Y-50745120D01*
X66657791Y-51397743D01*
X66923211Y-51663626D01*
X66659546Y-51926831D01*
X66388749Y-52578982D01*
X66388133Y-53285120D01*
X66657791Y-53937743D01*
X66668211Y-53948181D01*
X66659546Y-53956831D01*
X66388749Y-54608982D01*
X66388133Y-55315120D01*
X66657791Y-55967743D01*
X67156671Y-56467494D01*
X67808822Y-56738291D01*
X67928565Y-56738395D01*
X68163440Y-56973270D01*
X68397905Y-56738805D01*
X68514960Y-56738907D01*
X69167583Y-56469249D01*
X69233466Y-56403480D01*
X185411720Y-56403480D01*
X185411720Y-57703480D01*
X185483192Y-58083322D01*
X185707679Y-58432184D01*
X186050205Y-58666222D01*
X186456800Y-58748560D01*
X187156800Y-58748560D01*
X187536642Y-58677088D01*
X187757814Y-58534767D01*
X187950205Y-58666222D01*
X188356800Y-58748560D01*
X189056800Y-58748560D01*
X189436642Y-58677088D01*
X189785504Y-58452601D01*
X190019542Y-58110075D01*
X190101880Y-57703480D01*
X190101880Y-56403480D01*
X190030408Y-56023638D01*
X189805921Y-55674776D01*
X189463395Y-55440738D01*
X189056800Y-55358400D01*
X188356800Y-55358400D01*
X187976958Y-55429872D01*
X187755786Y-55572193D01*
X187563395Y-55440738D01*
X187156800Y-55358400D01*
X186456800Y-55358400D01*
X186076958Y-55429872D01*
X185728096Y-55654359D01*
X185494058Y-55996885D01*
X185411720Y-56403480D01*
X69233466Y-56403480D01*
X69667334Y-55970369D01*
X69938131Y-55318218D01*
X69938747Y-54612080D01*
X69669089Y-53959457D01*
X69658669Y-53949019D01*
X69667334Y-53940369D01*
X69938131Y-53288218D01*
X69938747Y-52582080D01*
X69669089Y-51929457D01*
X69403669Y-51663574D01*
X69667334Y-51400369D01*
X69938131Y-50748218D01*
X69938747Y-50042080D01*
X69675181Y-49404200D01*
X115490720Y-49404200D01*
X115490720Y-53364200D01*
X115562192Y-53744042D01*
X115786679Y-54092904D01*
X116129205Y-54326942D01*
X116535800Y-54409280D01*
X118515800Y-54409280D01*
X118895642Y-54337808D01*
X119244504Y-54113321D01*
X119478542Y-53770795D01*
X119560880Y-53364200D01*
X119560880Y-50335329D01*
X120510800Y-50335329D01*
X120510800Y-52433071D01*
X120664183Y-53204178D01*
X121100980Y-53857891D01*
X121754693Y-54294688D01*
X122525800Y-54448071D01*
X123296907Y-54294688D01*
X123950620Y-53857891D01*
X124387417Y-53204178D01*
X124540800Y-52433071D01*
X124540800Y-51354109D01*
X133185507Y-51354109D01*
X133688514Y-52571480D01*
X134619101Y-53503692D01*
X135835592Y-54008824D01*
X137152789Y-54009973D01*
X138370160Y-53506966D01*
X139302372Y-52576379D01*
X139807504Y-51359888D01*
X139808653Y-50042691D01*
X139305646Y-48825320D01*
X138375059Y-47893108D01*
X137158568Y-47387976D01*
X135841371Y-47386827D01*
X134624000Y-47889834D01*
X133691788Y-48820421D01*
X133186656Y-50036912D01*
X133185507Y-51354109D01*
X124540800Y-51354109D01*
X124540800Y-50335329D01*
X124387417Y-49564222D01*
X123950620Y-48910509D01*
X123296907Y-48473712D01*
X122525800Y-48320329D01*
X121754693Y-48473712D01*
X121100980Y-48910509D01*
X120664183Y-49564222D01*
X120510800Y-50335329D01*
X119560880Y-50335329D01*
X119560880Y-49404200D01*
X119489408Y-49024358D01*
X119264921Y-48675496D01*
X118922395Y-48441458D01*
X118515800Y-48359120D01*
X116535800Y-48359120D01*
X116155958Y-48430592D01*
X115807096Y-48655079D01*
X115573058Y-48997605D01*
X115490720Y-49404200D01*
X69675181Y-49404200D01*
X69669089Y-49389457D01*
X69170209Y-48889706D01*
X68518058Y-48618909D01*
X67811920Y-48618293D01*
X67159297Y-48887951D01*
X66659546Y-49386831D01*
X66388749Y-50038982D01*
X66388133Y-50745120D01*
X58026480Y-50745120D01*
X58026480Y-48268772D01*
X64730019Y-48268772D01*
X64944739Y-48396940D01*
X65584771Y-48487917D01*
X66042141Y-48396940D01*
X66256861Y-48268772D01*
X65493440Y-47505351D01*
X64730019Y-48268772D01*
X58026480Y-48268772D01*
X58026480Y-46924931D01*
X63839123Y-46924931D01*
X63930100Y-47382301D01*
X64058268Y-47597021D01*
X64821689Y-46833600D01*
X66165191Y-46833600D01*
X66928612Y-47597021D01*
X67056780Y-47382301D01*
X67147757Y-46742269D01*
X67056780Y-46284899D01*
X66928612Y-46070179D01*
X66165191Y-46833600D01*
X64821689Y-46833600D01*
X64058268Y-46070179D01*
X63930100Y-46284899D01*
X63839123Y-46924931D01*
X58026480Y-46924931D01*
X58026480Y-45398428D01*
X64730019Y-45398428D01*
X65493440Y-46161849D01*
X65741561Y-45913728D01*
X139752080Y-45913728D01*
X139752080Y-46393072D01*
X139891000Y-47091469D01*
X140179607Y-47523400D01*
X139891000Y-47955331D01*
X139752080Y-48653728D01*
X139752080Y-49133072D01*
X139891000Y-49831469D01*
X140286610Y-50423542D01*
X140878683Y-50819152D01*
X141577080Y-50958072D01*
X142275477Y-50819152D01*
X142847080Y-50437220D01*
X143418683Y-50819152D01*
X144117080Y-50958072D01*
X144815477Y-50819152D01*
X145387080Y-50437220D01*
X145958683Y-50819152D01*
X146657080Y-50958072D01*
X147355477Y-50819152D01*
X147927080Y-50437220D01*
X148498683Y-50819152D01*
X149197080Y-50958072D01*
X149895477Y-50819152D01*
X150467080Y-50437220D01*
X151038683Y-50819152D01*
X151737080Y-50958072D01*
X152435477Y-50819152D01*
X153007080Y-50437220D01*
X153578683Y-50819152D01*
X154277080Y-50958072D01*
X154975477Y-50819152D01*
X155547080Y-50437220D01*
X156118683Y-50819152D01*
X156817080Y-50958072D01*
X157515477Y-50819152D01*
X158087080Y-50437220D01*
X158658683Y-50819152D01*
X159357080Y-50958072D01*
X160055477Y-50819152D01*
X160627080Y-50437220D01*
X161198683Y-50819152D01*
X161897080Y-50958072D01*
X162595477Y-50819152D01*
X163167080Y-50437220D01*
X163738683Y-50819152D01*
X164437080Y-50958072D01*
X165135477Y-50819152D01*
X165707080Y-50437220D01*
X166278683Y-50819152D01*
X166977080Y-50958072D01*
X167675477Y-50819152D01*
X168247080Y-50437220D01*
X168818683Y-50819152D01*
X169517080Y-50958072D01*
X170215477Y-50819152D01*
X170787080Y-50437220D01*
X171358683Y-50819152D01*
X172057080Y-50958072D01*
X172755477Y-50819152D01*
X173327080Y-50437220D01*
X173898683Y-50819152D01*
X174597080Y-50958072D01*
X175295477Y-50819152D01*
X175867080Y-50437220D01*
X176438683Y-50819152D01*
X177137080Y-50958072D01*
X177835477Y-50819152D01*
X178407080Y-50437220D01*
X178978683Y-50819152D01*
X179677080Y-50958072D01*
X180375477Y-50819152D01*
X180947080Y-50437220D01*
X181518683Y-50819152D01*
X182217080Y-50958072D01*
X182915477Y-50819152D01*
X183487080Y-50437220D01*
X184058683Y-50819152D01*
X184757080Y-50958072D01*
X185455477Y-50819152D01*
X186027080Y-50437220D01*
X186598683Y-50819152D01*
X187297080Y-50958072D01*
X187995477Y-50819152D01*
X188567080Y-50437220D01*
X189138683Y-50819152D01*
X189837080Y-50958072D01*
X190535477Y-50819152D01*
X191107080Y-50437220D01*
X191678683Y-50819152D01*
X192377080Y-50958072D01*
X193075477Y-50819152D01*
X193647080Y-50437220D01*
X194218683Y-50819152D01*
X194917080Y-50958072D01*
X195615477Y-50819152D01*
X196131140Y-50474597D01*
X196250485Y-50556142D01*
X196657080Y-50638480D01*
X198257080Y-50638480D01*
X198636922Y-50567008D01*
X198985784Y-50342521D01*
X199219822Y-49999995D01*
X199302160Y-49593400D01*
X199302160Y-48364624D01*
X199728514Y-49396480D01*
X200659101Y-50328692D01*
X201875592Y-50833824D01*
X202852698Y-50834676D01*
X202770240Y-51033257D01*
X202400089Y-50879557D01*
X201676048Y-50878925D01*
X201006880Y-51155419D01*
X200494459Y-51666947D01*
X200216797Y-52335631D01*
X200216165Y-53059672D01*
X200492659Y-53728840D01*
X200732611Y-53969210D01*
X200494459Y-54206947D01*
X200216797Y-54875631D01*
X200216165Y-55599672D01*
X200492659Y-56268840D01*
X200732611Y-56509210D01*
X200494459Y-56746947D01*
X200216797Y-57415631D01*
X200216165Y-58139672D01*
X200492659Y-58808840D01*
X201004187Y-59321261D01*
X201672871Y-59598923D01*
X202396912Y-59599555D01*
X203066080Y-59323061D01*
X203578501Y-58811533D01*
X203842720Y-58175223D01*
X204212871Y-58328923D01*
X204936912Y-58329555D01*
X205606080Y-58053061D01*
X206118501Y-57541533D01*
X206396163Y-56872849D01*
X206396795Y-56148808D01*
X206120301Y-55479640D01*
X205880349Y-55239270D01*
X206118501Y-55001533D01*
X206396163Y-54332849D01*
X206396795Y-53608808D01*
X206120301Y-52939640D01*
X205880349Y-52699270D01*
X206118501Y-52461533D01*
X206396163Y-51792849D01*
X206396795Y-51068808D01*
X206120301Y-50399640D01*
X205775309Y-50054045D01*
X208276021Y-50054045D01*
X208678609Y-51028384D01*
X209423415Y-51774491D01*
X210397050Y-52178779D01*
X211451285Y-52179699D01*
X212425624Y-51777111D01*
X213171731Y-51032305D01*
X213576019Y-50058670D01*
X213576939Y-49004435D01*
X213174351Y-48030096D01*
X212429545Y-47283989D01*
X211455910Y-46879701D01*
X210401675Y-46878781D01*
X209427336Y-47281369D01*
X208681229Y-48026175D01*
X208276941Y-48999810D01*
X208276021Y-50054045D01*
X205775309Y-50054045D01*
X205608773Y-49887219D01*
X205076916Y-49666372D01*
X205342372Y-49401379D01*
X205847504Y-48184888D01*
X205848653Y-46867691D01*
X205345646Y-45650320D01*
X204415059Y-44718108D01*
X203198568Y-44212976D01*
X201881371Y-44211827D01*
X200664000Y-44714834D01*
X199731788Y-45645421D01*
X199226656Y-46861912D01*
X199226007Y-47606283D01*
X199016608Y-47280868D01*
X199143160Y-47091469D01*
X199282080Y-46393072D01*
X199282080Y-45913728D01*
X199143160Y-45215331D01*
X198747550Y-44623258D01*
X198155477Y-44227648D01*
X197457080Y-44088728D01*
X196758683Y-44227648D01*
X196187080Y-44609580D01*
X195615477Y-44227648D01*
X194917080Y-44088728D01*
X194218683Y-44227648D01*
X193647080Y-44609580D01*
X193075477Y-44227648D01*
X192377080Y-44088728D01*
X191678683Y-44227648D01*
X191107080Y-44609580D01*
X190535477Y-44227648D01*
X189837080Y-44088728D01*
X189138683Y-44227648D01*
X188567080Y-44609580D01*
X187995477Y-44227648D01*
X187297080Y-44088728D01*
X186598683Y-44227648D01*
X186027080Y-44609580D01*
X185455477Y-44227648D01*
X184757080Y-44088728D01*
X184058683Y-44227648D01*
X183487080Y-44609580D01*
X182915477Y-44227648D01*
X182217080Y-44088728D01*
X181518683Y-44227648D01*
X180947080Y-44609580D01*
X180375477Y-44227648D01*
X179677080Y-44088728D01*
X178978683Y-44227648D01*
X178407080Y-44609580D01*
X177835477Y-44227648D01*
X177137080Y-44088728D01*
X176438683Y-44227648D01*
X175867080Y-44609580D01*
X175295477Y-44227648D01*
X174597080Y-44088728D01*
X173898683Y-44227648D01*
X173327080Y-44609580D01*
X172755477Y-44227648D01*
X172057080Y-44088728D01*
X171358683Y-44227648D01*
X170787080Y-44609580D01*
X170215477Y-44227648D01*
X169517080Y-44088728D01*
X168818683Y-44227648D01*
X168247080Y-44609580D01*
X167675477Y-44227648D01*
X166977080Y-44088728D01*
X166278683Y-44227648D01*
X165707080Y-44609580D01*
X165135477Y-44227648D01*
X164437080Y-44088728D01*
X163738683Y-44227648D01*
X163167080Y-44609580D01*
X162595477Y-44227648D01*
X161897080Y-44088728D01*
X161198683Y-44227648D01*
X160627080Y-44609580D01*
X160055477Y-44227648D01*
X159357080Y-44088728D01*
X158658683Y-44227648D01*
X158087080Y-44609580D01*
X157515477Y-44227648D01*
X156817080Y-44088728D01*
X156118683Y-44227648D01*
X155547080Y-44609580D01*
X154975477Y-44227648D01*
X154277080Y-44088728D01*
X153578683Y-44227648D01*
X153007080Y-44609580D01*
X152435477Y-44227648D01*
X151737080Y-44088728D01*
X151038683Y-44227648D01*
X150467080Y-44609580D01*
X149895477Y-44227648D01*
X149197080Y-44088728D01*
X148498683Y-44227648D01*
X147927080Y-44609580D01*
X147355477Y-44227648D01*
X146657080Y-44088728D01*
X145958683Y-44227648D01*
X145387080Y-44609580D01*
X144815477Y-44227648D01*
X144117080Y-44088728D01*
X143418683Y-44227648D01*
X142847080Y-44609580D01*
X142275477Y-44227648D01*
X141577080Y-44088728D01*
X140878683Y-44227648D01*
X140286610Y-44623258D01*
X139891000Y-45215331D01*
X139752080Y-45913728D01*
X65741561Y-45913728D01*
X66256861Y-45398428D01*
X66042141Y-45270260D01*
X65402109Y-45179283D01*
X64944739Y-45270260D01*
X64730019Y-45398428D01*
X58026480Y-45398428D01*
X58026480Y-39230280D01*
X215826480Y-39230280D01*
X215826480Y-137030280D01*
X215826480Y-137030280D01*
G37*
X215826480Y-137030280D02*
X58026480Y-137030280D01*
X58026480Y-122615642D01*
X62150692Y-122615642D01*
X62150735Y-122615858D01*
X62150692Y-122616075D01*
X62150818Y-123173189D01*
X62150866Y-123173430D01*
X62150818Y-123173673D01*
X62151178Y-123690674D01*
X62151235Y-123690959D01*
X62151179Y-123691241D01*
X62151768Y-124163902D01*
X62151837Y-124164245D01*
X62151769Y-124164589D01*
X62152580Y-124588683D01*
X62152669Y-124589124D01*
X62152582Y-124589565D01*
X62153610Y-124960866D01*
X62153732Y-124961470D01*
X62153614Y-124962076D01*
X62154853Y-125276356D01*
X62155037Y-125277265D01*
X62154862Y-125278174D01*
X62156306Y-125531208D01*
X62156628Y-125532778D01*
X62156329Y-125534352D01*
X62157972Y-125721913D01*
X62158700Y-125725414D01*
X62158057Y-125728934D01*
X62159893Y-125846794D01*
X62163247Y-125862384D01*
X62160859Y-125878152D01*
X62162883Y-125922086D01*
X62169581Y-125949175D01*
X62166881Y-125976949D01*
X62181940Y-126026364D01*
X62181360Y-126061254D01*
X62223974Y-126169169D01*
X62259344Y-126312225D01*
X62275898Y-126334688D01*
X62278489Y-126343193D01*
X62260938Y-126431430D01*
X62260938Y-127106996D01*
X62261065Y-127107635D01*
X62260939Y-127108274D01*
X62261116Y-127250883D01*
X62261876Y-127254680D01*
X62261153Y-127258487D01*
X62262989Y-127471397D01*
X62265496Y-127483458D01*
X62263483Y-127495608D01*
X62268506Y-127651864D01*
X62274739Y-127678669D01*
X62271676Y-127706018D01*
X62281332Y-127819602D01*
X62295550Y-127868832D01*
X62294880Y-127920069D01*
X62310616Y-128004967D01*
X62336904Y-128070856D01*
X62345653Y-128141253D01*
X62368914Y-128211446D01*
X62398272Y-128263158D01*
X62412294Y-128320943D01*
X62441885Y-128384723D01*
X62339342Y-128538189D01*
X62260938Y-128932353D01*
X62260938Y-129244969D01*
X62339342Y-129639133D01*
X62562618Y-129973289D01*
X62896774Y-130196565D01*
X63290938Y-130274969D01*
X69974380Y-130274969D01*
X69963520Y-130307913D01*
X69966324Y-130345603D01*
X69957122Y-130382257D01*
X69981146Y-130544814D01*
X69993339Y-130708691D01*
X70010353Y-130742438D01*
X70015878Y-130779825D01*
X70100283Y-130920818D01*
X70174259Y-131067551D01*
X70202892Y-131092218D01*
X70222304Y-131124645D01*
X70354241Y-131222605D01*
X70377652Y-131242774D01*
X70429804Y-131295877D01*
X70448523Y-131303829D01*
X70478737Y-131329859D01*
X70514630Y-131341691D01*
X70544974Y-131364221D01*
X70568874Y-131375541D01*
X70687310Y-131405275D01*
X70799694Y-131453020D01*
X70876724Y-131469067D01*
X70895189Y-131469234D01*
X70909514Y-131474732D01*
X70924507Y-131499746D01*
X70931215Y-131504721D01*
X70935829Y-131518156D01*
X70938543Y-131564398D01*
X70953121Y-131620326D01*
X71014181Y-131746301D01*
X71059653Y-131878705D01*
X71101102Y-131925630D01*
X71128410Y-131981970D01*
X71233030Y-132074988D01*
X71325710Y-132179913D01*
X71359182Y-132205408D01*
X71404781Y-132227693D01*
X71428751Y-132249005D01*
X71496504Y-132272520D01*
X71537096Y-132292359D01*
X71714567Y-132380353D01*
X71717561Y-132380556D01*
X71720254Y-132381872D01*
X71917923Y-132394121D01*
X72115535Y-132407500D01*
X72118376Y-132406542D01*
X72121371Y-132406728D01*
X72308807Y-132342356D01*
X72496370Y-132279137D01*
X72498627Y-132277166D01*
X72501466Y-132276191D01*
X72649979Y-132145009D01*
X72799094Y-132014806D01*
X72832308Y-131971713D01*
X72838733Y-131958754D01*
X72849362Y-131948943D01*
X72927767Y-131779187D01*
X72987312Y-131659095D01*
X73028184Y-131691749D01*
X73035181Y-131693772D01*
X73040934Y-131698238D01*
X73081322Y-131718442D01*
X73259784Y-131767352D01*
X73436605Y-131821853D01*
X73522316Y-131830681D01*
X73568696Y-131826322D01*
X73614258Y-131836011D01*
X73761690Y-131837956D01*
X73771970Y-131836052D01*
X73782237Y-131838022D01*
X73828851Y-131837707D01*
X73858127Y-131831678D01*
X73887761Y-131835623D01*
X74051706Y-131825117D01*
X74161549Y-131795856D01*
X74229821Y-131789833D01*
X74319095Y-131822775D01*
X74371218Y-131820731D01*
X74421720Y-131833801D01*
X74466977Y-131836379D01*
X74499333Y-131831837D01*
X74531413Y-131838029D01*
X74547937Y-131837935D01*
X74592240Y-131828860D01*
X74609543Y-131831816D01*
X74641164Y-131824628D01*
X74690625Y-131827184D01*
X74730118Y-131821428D01*
X74754883Y-131812638D01*
X74769315Y-131818061D01*
X74807682Y-131824375D01*
X74816759Y-131824073D01*
X74820021Y-131825117D01*
X74843119Y-131823197D01*
X74885015Y-131821803D01*
X74946593Y-131836712D01*
X74975998Y-131832113D01*
X75008597Y-131837496D01*
X75022666Y-131837036D01*
X75121781Y-131813930D01*
X75209346Y-131811018D01*
X75261161Y-131787509D01*
X75343651Y-131774606D01*
X75378166Y-131761948D01*
X75380288Y-131760654D01*
X75382740Y-131760258D01*
X75401418Y-131748740D01*
X75412072Y-131746256D01*
X75460924Y-131758899D01*
X75465424Y-131761869D01*
X75492857Y-131767164D01*
X75506742Y-131770757D01*
X75647711Y-131822775D01*
X75699833Y-131820731D01*
X75750334Y-131833801D01*
X75795591Y-131836379D01*
X75827948Y-131831837D01*
X75860028Y-131838029D01*
X75876553Y-131837935D01*
X75920856Y-131828860D01*
X75938158Y-131831816D01*
X75969782Y-131824628D01*
X76019244Y-131827183D01*
X76058737Y-131821428D01*
X76122742Y-131798709D01*
X76214247Y-131825114D01*
X76319573Y-131834044D01*
X76364209Y-131829034D01*
X76408278Y-131837725D01*
X76541197Y-131837507D01*
X76572493Y-131831228D01*
X76604125Y-131835479D01*
X76738537Y-131827030D01*
X76778724Y-131816377D01*
X76820238Y-131818613D01*
X76930041Y-131802855D01*
X76985162Y-131783426D01*
X77109836Y-131821853D01*
X77195548Y-131830681D01*
X77241927Y-131826322D01*
X77287489Y-131836011D01*
X77434921Y-131837956D01*
X77445201Y-131836052D01*
X77455468Y-131838022D01*
X77502082Y-131837707D01*
X77531358Y-131831678D01*
X77560992Y-131835623D01*
X77724937Y-131825117D01*
X77834783Y-131795855D01*
X77948014Y-131785865D01*
X78049842Y-131756104D01*
X78112046Y-131723665D01*
X78180465Y-131708135D01*
X78288660Y-131631561D01*
X78406184Y-131570273D01*
X78451241Y-131516497D01*
X78508506Y-131475968D01*
X78560556Y-131421045D01*
X78614963Y-131334687D01*
X78685081Y-131260518D01*
X78721035Y-131166324D01*
X78774781Y-131081015D01*
X78791999Y-130980407D01*
X78800697Y-130957618D01*
X123613701Y-130957618D01*
X123875763Y-131591858D01*
X124360590Y-132077531D01*
X124994371Y-132340700D01*
X125680618Y-132341299D01*
X126314858Y-132079237D01*
X126800531Y-131594410D01*
X127063700Y-130960629D01*
X127063711Y-130947618D01*
X131243701Y-130947618D01*
X131505763Y-131581858D01*
X131990590Y-132067531D01*
X132624371Y-132330700D01*
X133310618Y-132331299D01*
X133944858Y-132069237D01*
X134430531Y-131584410D01*
X134690797Y-130957618D01*
X143613701Y-130957618D01*
X143875763Y-131591858D01*
X144360590Y-132077531D01*
X144994371Y-132340700D01*
X145680618Y-132341299D01*
X146314858Y-132079237D01*
X146800531Y-131594410D01*
X147063700Y-130960629D01*
X147063711Y-130947618D01*
X151243701Y-130947618D01*
X151505763Y-131581858D01*
X151990590Y-132067531D01*
X152624371Y-132330700D01*
X153310618Y-132331299D01*
X153944858Y-132069237D01*
X154430531Y-131584410D01*
X154690797Y-130957618D01*
X163613701Y-130957618D01*
X163875763Y-131591858D01*
X164360590Y-132077531D01*
X164994371Y-132340700D01*
X165680618Y-132341299D01*
X166314858Y-132079237D01*
X166800531Y-131594410D01*
X167063700Y-130960629D01*
X167063711Y-130947618D01*
X171243701Y-130947618D01*
X171505763Y-131581858D01*
X171990590Y-132067531D01*
X172624371Y-132330700D01*
X173310618Y-132331299D01*
X173944858Y-132069237D01*
X174430531Y-131584410D01*
X174690797Y-130957618D01*
X183613701Y-130957618D01*
X183875763Y-131591858D01*
X184360590Y-132077531D01*
X184994371Y-132340700D01*
X185680618Y-132341299D01*
X186314858Y-132079237D01*
X186800531Y-131594410D01*
X187063700Y-130960629D01*
X187063711Y-130947618D01*
X191243701Y-130947618D01*
X191505763Y-131581858D01*
X191990590Y-132067531D01*
X192624371Y-132330700D01*
X193310618Y-132331299D01*
X193944858Y-132069237D01*
X194134425Y-131880000D01*
X209460053Y-131880000D01*
X209606585Y-132616666D01*
X210023872Y-133241181D01*
X210648387Y-133658468D01*
X211385053Y-133805000D01*
X212887907Y-133805000D01*
X213624573Y-133658468D01*
X214249088Y-133241181D01*
X214666375Y-132616666D01*
X214812907Y-131880000D01*
X214666375Y-131143334D01*
X214249088Y-130518819D01*
X213624573Y-130101532D01*
X212887907Y-129955000D01*
X211385053Y-129955000D01*
X210648387Y-130101532D01*
X210023872Y-130518819D01*
X209606585Y-131143334D01*
X209460053Y-131880000D01*
X194134425Y-131880000D01*
X194430531Y-131584410D01*
X194693700Y-130950629D01*
X194694299Y-130264382D01*
X194432237Y-129630142D01*
X193947410Y-129144469D01*
X193313629Y-128881300D01*
X192627382Y-128880701D01*
X191993142Y-129142763D01*
X191507469Y-129627590D01*
X191244300Y-130261371D01*
X191243701Y-130947618D01*
X187063711Y-130947618D01*
X187064299Y-130274382D01*
X186802237Y-129640142D01*
X186317410Y-129154469D01*
X185683629Y-128891300D01*
X184997382Y-128890701D01*
X184363142Y-129152763D01*
X183877469Y-129637590D01*
X183614300Y-130271371D01*
X183613701Y-130957618D01*
X174690797Y-130957618D01*
X174693700Y-130950629D01*
X174694299Y-130264382D01*
X174432237Y-129630142D01*
X173947410Y-129144469D01*
X173313629Y-128881300D01*
X172627382Y-128880701D01*
X171993142Y-129142763D01*
X171507469Y-129627590D01*
X171244300Y-130261371D01*
X171243701Y-130947618D01*
X167063711Y-130947618D01*
X167064299Y-130274382D01*
X166802237Y-129640142D01*
X166317410Y-129154469D01*
X165683629Y-128891300D01*
X164997382Y-128890701D01*
X164363142Y-129152763D01*
X163877469Y-129637590D01*
X163614300Y-130271371D01*
X163613701Y-130957618D01*
X154690797Y-130957618D01*
X154693700Y-130950629D01*
X154694299Y-130264382D01*
X154432237Y-129630142D01*
X153947410Y-129144469D01*
X153313629Y-128881300D01*
X152627382Y-128880701D01*
X151993142Y-129142763D01*
X151507469Y-129627590D01*
X151244300Y-130261371D01*
X151243701Y-130947618D01*
X147063711Y-130947618D01*
X147064299Y-130274382D01*
X146802237Y-129640142D01*
X146317410Y-129154469D01*
X145683629Y-128891300D01*
X144997382Y-128890701D01*
X144363142Y-129152763D01*
X143877469Y-129637590D01*
X143614300Y-130271371D01*
X143613701Y-130957618D01*
X134690797Y-130957618D01*
X134693700Y-130950629D01*
X134694299Y-130264382D01*
X134432237Y-129630142D01*
X133947410Y-129144469D01*
X133313629Y-128881300D01*
X132627382Y-128880701D01*
X131993142Y-129142763D01*
X131507469Y-129627590D01*
X131244300Y-130261371D01*
X131243701Y-130947618D01*
X127063711Y-130947618D01*
X127064299Y-130274382D01*
X126802237Y-129640142D01*
X126317410Y-129154469D01*
X125683629Y-128891300D01*
X124997382Y-128890701D01*
X124363142Y-129152763D01*
X123877469Y-129637590D01*
X123614300Y-130271371D01*
X123613701Y-130957618D01*
X78800697Y-130957618D01*
X78828395Y-130885054D01*
X78843004Y-130799062D01*
X78840190Y-130698819D01*
X78842574Y-130684888D01*
X78839407Y-130670935D01*
X78838914Y-130653369D01*
X78850720Y-130508099D01*
X78848074Y-130485243D01*
X78846022Y-130478871D01*
X78846479Y-130472189D01*
X78832675Y-130431136D01*
X78831726Y-130397334D01*
X78789822Y-130303693D01*
X78784487Y-130287826D01*
X78759451Y-130210099D01*
X78759552Y-130168491D01*
X78765085Y-130049819D01*
X78769210Y-130010131D01*
X78767244Y-130003521D01*
X78767871Y-129990063D01*
X78762111Y-129951889D01*
X78760089Y-129946283D01*
X78760092Y-129945239D01*
X78757019Y-129937770D01*
X78735924Y-129879273D01*
X78896381Y-129639133D01*
X78974785Y-129244969D01*
X78974785Y-128932353D01*
X78896381Y-128538189D01*
X78817803Y-128420589D01*
X78818626Y-128419005D01*
X78859334Y-128278906D01*
X78915025Y-128144059D01*
X78950939Y-127962520D01*
X78950764Y-127794032D01*
X78961402Y-127625867D01*
X78936829Y-127442437D01*
X78883030Y-127285125D01*
X78840142Y-127124481D01*
X78776362Y-126994850D01*
X78818477Y-126783123D01*
X78818477Y-126561132D01*
X78882884Y-126464462D01*
X78994073Y-126298056D01*
X78994209Y-126297371D01*
X78994597Y-126296789D01*
X79033485Y-126099919D01*
X79072477Y-125903892D01*
X79072477Y-125877618D01*
X123613701Y-125877618D01*
X123875763Y-126511858D01*
X124360590Y-126997531D01*
X124994371Y-127260700D01*
X125680618Y-127261299D01*
X126314858Y-126999237D01*
X126800531Y-126514410D01*
X127063700Y-125880629D01*
X127063720Y-125857618D01*
X131243701Y-125857618D01*
X131505763Y-126491858D01*
X131990590Y-126977531D01*
X132624371Y-127240700D01*
X133310618Y-127241299D01*
X133944858Y-126979237D01*
X134430531Y-126494410D01*
X134686645Y-125877618D01*
X143613701Y-125877618D01*
X143875763Y-126511858D01*
X144360590Y-126997531D01*
X144994371Y-127260700D01*
X145680618Y-127261299D01*
X146314858Y-126999237D01*
X146800531Y-126514410D01*
X147063700Y-125880629D01*
X147063720Y-125857618D01*
X151243701Y-125857618D01*
X151505763Y-126491858D01*
X151990590Y-126977531D01*
X152624371Y-127240700D01*
X153310618Y-127241299D01*
X153944858Y-126979237D01*
X154430531Y-126494410D01*
X154686645Y-125877618D01*
X163613701Y-125877618D01*
X163875763Y-126511858D01*
X164360590Y-126997531D01*
X164994371Y-127260700D01*
X165680618Y-127261299D01*
X166314858Y-126999237D01*
X166800531Y-126514410D01*
X167063700Y-125880629D01*
X167063720Y-125857618D01*
X171243701Y-125857618D01*
X171505763Y-126491858D01*
X171990590Y-126977531D01*
X172624371Y-127240700D01*
X173310618Y-127241299D01*
X173944858Y-126979237D01*
X174430531Y-126494410D01*
X174686645Y-125877618D01*
X183613701Y-125877618D01*
X183875763Y-126511858D01*
X184360590Y-126997531D01*
X184994371Y-127260700D01*
X185680618Y-127261299D01*
X186314858Y-126999237D01*
X186800531Y-126514410D01*
X187063700Y-125880629D01*
X187063720Y-125857618D01*
X191243701Y-125857618D01*
X191505763Y-126491858D01*
X191990590Y-126977531D01*
X192624371Y-127240700D01*
X193310618Y-127241299D01*
X193944858Y-126979237D01*
X194430531Y-126494410D01*
X194507995Y-126307854D01*
X208181202Y-126307854D01*
X208425034Y-126897972D01*
X208536666Y-127009799D01*
X208426620Y-127119653D01*
X208181759Y-127709345D01*
X208181202Y-128347854D01*
X208425034Y-128937972D01*
X208876133Y-129389860D01*
X209465825Y-129634721D01*
X210104334Y-129635278D01*
X210694452Y-129391446D01*
X211146340Y-128940347D01*
X211391201Y-128350655D01*
X211391215Y-128334881D01*
X211426133Y-128369860D01*
X212015825Y-128614721D01*
X212654334Y-128615278D01*
X213244452Y-128371446D01*
X213696340Y-127920347D01*
X213941201Y-127330655D01*
X213941758Y-126692146D01*
X213697926Y-126102028D01*
X213586294Y-125990201D01*
X213696340Y-125880347D01*
X213941201Y-125290655D01*
X213941758Y-124652146D01*
X213697926Y-124062028D01*
X213246827Y-123610140D01*
X212657135Y-123365279D01*
X212018626Y-123364722D01*
X211428508Y-123608554D01*
X210976620Y-124059653D01*
X210731759Y-124649345D01*
X210731745Y-124665119D01*
X210696827Y-124630140D01*
X210107135Y-124385279D01*
X209468626Y-124384722D01*
X208878508Y-124628554D01*
X208426620Y-125079653D01*
X208181759Y-125669345D01*
X208181202Y-126307854D01*
X194507995Y-126307854D01*
X194693700Y-125860629D01*
X194694299Y-125174382D01*
X194432237Y-124540142D01*
X193947410Y-124054469D01*
X193313629Y-123791300D01*
X192627382Y-123790701D01*
X191993142Y-124052763D01*
X191507469Y-124537590D01*
X191244300Y-125171371D01*
X191243701Y-125857618D01*
X187063720Y-125857618D01*
X187064299Y-125194382D01*
X186802237Y-124560142D01*
X186317410Y-124074469D01*
X185683629Y-123811300D01*
X184997382Y-123810701D01*
X184363142Y-124072763D01*
X183877469Y-124557590D01*
X183614300Y-125191371D01*
X183613701Y-125877618D01*
X174686645Y-125877618D01*
X174693700Y-125860629D01*
X174694299Y-125174382D01*
X174432237Y-124540142D01*
X173947410Y-124054469D01*
X173313629Y-123791300D01*
X172627382Y-123790701D01*
X171993142Y-124052763D01*
X171507469Y-124537590D01*
X171244300Y-125171371D01*
X171243701Y-125857618D01*
X167063720Y-125857618D01*
X167064299Y-125194382D01*
X166802237Y-124560142D01*
X166317410Y-124074469D01*
X165683629Y-123811300D01*
X164997382Y-123810701D01*
X164363142Y-124072763D01*
X163877469Y-124557590D01*
X163614300Y-125191371D01*
X163613701Y-125877618D01*
X154686645Y-125877618D01*
X154693700Y-125860629D01*
X154694299Y-125174382D01*
X154432237Y-124540142D01*
X153947410Y-124054469D01*
X153313629Y-123791300D01*
X152627382Y-123790701D01*
X151993142Y-124052763D01*
X151507469Y-124537590D01*
X151244300Y-125171371D01*
X151243701Y-125857618D01*
X147063720Y-125857618D01*
X147064299Y-125194382D01*
X146802237Y-124560142D01*
X146317410Y-124074469D01*
X145683629Y-123811300D01*
X144997382Y-123810701D01*
X144363142Y-124072763D01*
X143877469Y-124557590D01*
X143614300Y-125191371D01*
X143613701Y-125877618D01*
X134686645Y-125877618D01*
X134693700Y-125860629D01*
X134694299Y-125174382D01*
X134432237Y-124540142D01*
X133947410Y-124054469D01*
X133313629Y-123791300D01*
X132627382Y-123790701D01*
X131993142Y-124052763D01*
X131507469Y-124537590D01*
X131244300Y-125171371D01*
X131243701Y-125857618D01*
X127063720Y-125857618D01*
X127064299Y-125194382D01*
X126802237Y-124560142D01*
X126317410Y-124074469D01*
X125683629Y-123811300D01*
X124997382Y-123810701D01*
X124363142Y-124072763D01*
X123877469Y-124557590D01*
X123614300Y-125191371D01*
X123613701Y-125877618D01*
X79072477Y-125877618D01*
X79072477Y-120787618D01*
X123623701Y-120787618D01*
X123885763Y-121421858D01*
X124370590Y-121907531D01*
X125004371Y-122170700D01*
X125690618Y-122171299D01*
X126324858Y-121909237D01*
X126810531Y-121424410D01*
X127073700Y-120790629D01*
X127073702Y-120787618D01*
X131243701Y-120787618D01*
X131505763Y-121421858D01*
X131990590Y-121907531D01*
X132624371Y-122170700D01*
X133310618Y-122171299D01*
X133944858Y-121909237D01*
X134430531Y-121424410D01*
X134693700Y-120790629D01*
X134693702Y-120787618D01*
X143623701Y-120787618D01*
X143885763Y-121421858D01*
X144370590Y-121907531D01*
X145004371Y-122170700D01*
X145690618Y-122171299D01*
X146324858Y-121909237D01*
X146810531Y-121424410D01*
X147073700Y-120790629D01*
X147073702Y-120787618D01*
X151243701Y-120787618D01*
X151505763Y-121421858D01*
X151990590Y-121907531D01*
X152624371Y-122170700D01*
X153310618Y-122171299D01*
X153944858Y-121909237D01*
X154430531Y-121424410D01*
X154693700Y-120790629D01*
X154693702Y-120787618D01*
X163623701Y-120787618D01*
X163885763Y-121421858D01*
X164370590Y-121907531D01*
X165004371Y-122170700D01*
X165690618Y-122171299D01*
X166324858Y-121909237D01*
X166810531Y-121424410D01*
X167073700Y-120790629D01*
X167073702Y-120787618D01*
X171243701Y-120787618D01*
X171505763Y-121421858D01*
X171990590Y-121907531D01*
X172624371Y-122170700D01*
X173310618Y-122171299D01*
X173944858Y-121909237D01*
X174430531Y-121424410D01*
X174693700Y-120790629D01*
X174693702Y-120787618D01*
X183623701Y-120787618D01*
X183885763Y-121421858D01*
X184370590Y-121907531D01*
X185004371Y-122170700D01*
X185690618Y-122171299D01*
X186324858Y-121909237D01*
X186810531Y-121424410D01*
X187073700Y-120790629D01*
X187073702Y-120787618D01*
X191243701Y-120787618D01*
X191505763Y-121421858D01*
X191990590Y-121907531D01*
X192624371Y-122170700D01*
X193310618Y-122171299D01*
X193944858Y-121909237D01*
X194430531Y-121424410D01*
X194693700Y-120790629D01*
X194694299Y-120104382D01*
X194432237Y-119470142D01*
X193947410Y-118984469D01*
X193313629Y-118721300D01*
X192627382Y-118720701D01*
X191993142Y-118982763D01*
X191507469Y-119467590D01*
X191244300Y-120101371D01*
X191243701Y-120787618D01*
X187073702Y-120787618D01*
X187074299Y-120104382D01*
X186812237Y-119470142D01*
X186327410Y-118984469D01*
X185693629Y-118721300D01*
X185007382Y-118720701D01*
X184373142Y-118982763D01*
X183887469Y-119467590D01*
X183624300Y-120101371D01*
X183623701Y-120787618D01*
X174693702Y-120787618D01*
X174694299Y-120104382D01*
X174432237Y-119470142D01*
X173947410Y-118984469D01*
X173313629Y-118721300D01*
X172627382Y-118720701D01*
X171993142Y-118982763D01*
X171507469Y-119467590D01*
X171244300Y-120101371D01*
X171243701Y-120787618D01*
X167073702Y-120787618D01*
X167074299Y-120104382D01*
X166812237Y-119470142D01*
X166327410Y-118984469D01*
X165693629Y-118721300D01*
X165007382Y-118720701D01*
X164373142Y-118982763D01*
X163887469Y-119467590D01*
X163624300Y-120101371D01*
X163623701Y-120787618D01*
X154693702Y-120787618D01*
X154694299Y-120104382D01*
X154432237Y-119470142D01*
X153947410Y-118984469D01*
X153313629Y-118721300D01*
X152627382Y-118720701D01*
X151993142Y-118982763D01*
X151507469Y-119467590D01*
X151244300Y-120101371D01*
X151243701Y-120787618D01*
X147073702Y-120787618D01*
X147074299Y-120104382D01*
X146812237Y-119470142D01*
X146327410Y-118984469D01*
X145693629Y-118721300D01*
X145007382Y-118720701D01*
X144373142Y-118982763D01*
X143887469Y-119467590D01*
X143624300Y-120101371D01*
X143623701Y-120787618D01*
X134693702Y-120787618D01*
X134694299Y-120104382D01*
X134432237Y-119470142D01*
X133947410Y-118984469D01*
X133313629Y-118721300D01*
X132627382Y-118720701D01*
X131993142Y-118982763D01*
X131507469Y-119467590D01*
X131244300Y-120101371D01*
X131243701Y-120787618D01*
X127073702Y-120787618D01*
X127074299Y-120104382D01*
X126812237Y-119470142D01*
X126327410Y-118984469D01*
X125693629Y-118721300D01*
X125007382Y-118720701D01*
X124373142Y-118982763D01*
X123887469Y-119467590D01*
X123624300Y-120101371D01*
X123623701Y-120787618D01*
X79072477Y-120787618D01*
X79072477Y-115481329D01*
X84920456Y-115481329D01*
X85607895Y-117145058D01*
X86879687Y-118419071D01*
X88542213Y-119109413D01*
X90342369Y-119110984D01*
X92006098Y-118423545D01*
X92049719Y-118380000D01*
X209460053Y-118380000D01*
X209606585Y-119116666D01*
X210023872Y-119741181D01*
X210037071Y-119750000D01*
X210023872Y-119758819D01*
X209606585Y-120383334D01*
X209460053Y-121120000D01*
X209606585Y-121856666D01*
X210023872Y-122481181D01*
X210648387Y-122898468D01*
X211385053Y-123045000D01*
X212887907Y-123045000D01*
X213624573Y-122898468D01*
X214249088Y-122481181D01*
X214666375Y-121856666D01*
X214812907Y-121120000D01*
X214666375Y-120383334D01*
X214249088Y-119758819D01*
X214235889Y-119750000D01*
X214249088Y-119741181D01*
X214666375Y-119116666D01*
X214812907Y-118380000D01*
X214666375Y-117643334D01*
X214249088Y-117018819D01*
X213624573Y-116601532D01*
X212887907Y-116455000D01*
X211385053Y-116455000D01*
X210648387Y-116601532D01*
X210023872Y-117018819D01*
X209606585Y-117643334D01*
X209460053Y-118380000D01*
X92049719Y-118380000D01*
X93280111Y-117151753D01*
X93970453Y-115489227D01*
X93972024Y-113689071D01*
X93756564Y-113167618D01*
X123623701Y-113167618D01*
X123885763Y-113801858D01*
X124370590Y-114287531D01*
X125004371Y-114550700D01*
X125690618Y-114551299D01*
X126324858Y-114289237D01*
X126810531Y-113804410D01*
X127073700Y-113170629D01*
X127074299Y-112484382D01*
X126926219Y-112126000D01*
X131223920Y-112126000D01*
X131223920Y-113526000D01*
X131295392Y-113905842D01*
X131519879Y-114254704D01*
X131862405Y-114488742D01*
X132269000Y-114571080D01*
X133669000Y-114571080D01*
X134048842Y-114499608D01*
X134397704Y-114275121D01*
X134631742Y-113932595D01*
X134714080Y-113526000D01*
X134714080Y-113167618D01*
X143623701Y-113167618D01*
X143885763Y-113801858D01*
X144370590Y-114287531D01*
X145004371Y-114550700D01*
X145690618Y-114551299D01*
X146324858Y-114289237D01*
X146810531Y-113804410D01*
X147073700Y-113170629D01*
X147074299Y-112484382D01*
X146926219Y-112126000D01*
X151223920Y-112126000D01*
X151223920Y-113526000D01*
X151295392Y-113905842D01*
X151519879Y-114254704D01*
X151862405Y-114488742D01*
X152269000Y-114571080D01*
X153669000Y-114571080D01*
X154048842Y-114499608D01*
X154397704Y-114275121D01*
X154631742Y-113932595D01*
X154714080Y-113526000D01*
X154714080Y-113167618D01*
X163623701Y-113167618D01*
X163885763Y-113801858D01*
X164370590Y-114287531D01*
X165004371Y-114550700D01*
X165690618Y-114551299D01*
X166324858Y-114289237D01*
X166810531Y-113804410D01*
X167073700Y-113170629D01*
X167074299Y-112484382D01*
X166926219Y-112126000D01*
X171223920Y-112126000D01*
X171223920Y-113526000D01*
X171295392Y-113905842D01*
X171519879Y-114254704D01*
X171862405Y-114488742D01*
X172269000Y-114571080D01*
X173669000Y-114571080D01*
X174048842Y-114499608D01*
X174397704Y-114275121D01*
X174631742Y-113932595D01*
X174714080Y-113526000D01*
X174714080Y-113167618D01*
X183623701Y-113167618D01*
X183885763Y-113801858D01*
X184370590Y-114287531D01*
X185004371Y-114550700D01*
X185690618Y-114551299D01*
X186324858Y-114289237D01*
X186810531Y-113804410D01*
X187073700Y-113170629D01*
X187074299Y-112484382D01*
X186926219Y-112126000D01*
X191223920Y-112126000D01*
X191223920Y-113526000D01*
X191295392Y-113905842D01*
X191519879Y-114254704D01*
X191862405Y-114488742D01*
X192269000Y-114571080D01*
X193669000Y-114571080D01*
X194048842Y-114499608D01*
X194397704Y-114275121D01*
X194631742Y-113932595D01*
X194714080Y-113526000D01*
X194714080Y-112807854D01*
X208181202Y-112807854D01*
X208425034Y-113397972D01*
X208536666Y-113509799D01*
X208426620Y-113619653D01*
X208181759Y-114209345D01*
X208181202Y-114847854D01*
X208425034Y-115437972D01*
X208876133Y-115889860D01*
X209465825Y-116134721D01*
X210104334Y-116135278D01*
X210694452Y-115891446D01*
X211146340Y-115440347D01*
X211391201Y-114850655D01*
X211391215Y-114834881D01*
X211426133Y-114869860D01*
X212015825Y-115114721D01*
X212654334Y-115115278D01*
X213244452Y-114871446D01*
X213696340Y-114420347D01*
X213941201Y-113830655D01*
X213941758Y-113192146D01*
X213697926Y-112602028D01*
X213586294Y-112490201D01*
X213696340Y-112380347D01*
X213941201Y-111790655D01*
X213941758Y-111152146D01*
X213697926Y-110562028D01*
X213246827Y-110110140D01*
X212657135Y-109865279D01*
X212018626Y-109864722D01*
X211428508Y-110108554D01*
X210976620Y-110559653D01*
X210731759Y-111149345D01*
X210731745Y-111165119D01*
X210696827Y-111130140D01*
X210107135Y-110885279D01*
X209468626Y-110884722D01*
X208878508Y-111128554D01*
X208426620Y-111579653D01*
X208181759Y-112169345D01*
X208181202Y-112807854D01*
X194714080Y-112807854D01*
X194714080Y-112126000D01*
X194642608Y-111746158D01*
X194418121Y-111397296D01*
X194075595Y-111163258D01*
X193669000Y-111080920D01*
X192269000Y-111080920D01*
X191889158Y-111152392D01*
X191540296Y-111376879D01*
X191306258Y-111719405D01*
X191223920Y-112126000D01*
X186926219Y-112126000D01*
X186812237Y-111850142D01*
X186327410Y-111364469D01*
X185693629Y-111101300D01*
X185007382Y-111100701D01*
X184373142Y-111362763D01*
X183887469Y-111847590D01*
X183624300Y-112481371D01*
X183623701Y-113167618D01*
X174714080Y-113167618D01*
X174714080Y-112126000D01*
X174642608Y-111746158D01*
X174418121Y-111397296D01*
X174075595Y-111163258D01*
X173669000Y-111080920D01*
X172269000Y-111080920D01*
X171889158Y-111152392D01*
X171540296Y-111376879D01*
X171306258Y-111719405D01*
X171223920Y-112126000D01*
X166926219Y-112126000D01*
X166812237Y-111850142D01*
X166327410Y-111364469D01*
X165693629Y-111101300D01*
X165007382Y-111100701D01*
X164373142Y-111362763D01*
X163887469Y-111847590D01*
X163624300Y-112481371D01*
X163623701Y-113167618D01*
X154714080Y-113167618D01*
X154714080Y-112126000D01*
X154642608Y-111746158D01*
X154418121Y-111397296D01*
X154075595Y-111163258D01*
X153669000Y-111080920D01*
X152269000Y-111080920D01*
X151889158Y-111152392D01*
X151540296Y-111376879D01*
X151306258Y-111719405D01*
X151223920Y-112126000D01*
X146926219Y-112126000D01*
X146812237Y-111850142D01*
X146327410Y-111364469D01*
X145693629Y-111101300D01*
X145007382Y-111100701D01*
X144373142Y-111362763D01*
X143887469Y-111847590D01*
X143624300Y-112481371D01*
X143623701Y-113167618D01*
X134714080Y-113167618D01*
X134714080Y-112126000D01*
X134642608Y-111746158D01*
X134418121Y-111397296D01*
X134075595Y-111163258D01*
X133669000Y-111080920D01*
X132269000Y-111080920D01*
X131889158Y-111152392D01*
X131540296Y-111376879D01*
X131306258Y-111719405D01*
X131223920Y-112126000D01*
X126926219Y-112126000D01*
X126812237Y-111850142D01*
X126327410Y-111364469D01*
X125693629Y-111101300D01*
X125007382Y-111100701D01*
X124373142Y-111362763D01*
X123887469Y-111847590D01*
X123624300Y-112481371D01*
X123623701Y-113167618D01*
X93756564Y-113167618D01*
X93284585Y-112025342D01*
X92012793Y-110751329D01*
X90350267Y-110060987D01*
X88550111Y-110059416D01*
X86886382Y-110746855D01*
X85612369Y-112018647D01*
X84922027Y-113681173D01*
X84920456Y-115481329D01*
X79072477Y-115481329D01*
X79072477Y-113594661D01*
X78994073Y-113200497D01*
X78770797Y-112866341D01*
X78436641Y-112643065D01*
X78042477Y-112564661D01*
X63193246Y-112564661D01*
X62996542Y-112603788D01*
X62800645Y-112642420D01*
X62799929Y-112642896D01*
X62799082Y-112643065D01*
X62632293Y-112754510D01*
X62466123Y-112865147D01*
X62465644Y-112865861D01*
X62464926Y-112866341D01*
X62353623Y-113032917D01*
X62242298Y-113198936D01*
X62242129Y-113199781D01*
X62241650Y-113200497D01*
X62202647Y-113396579D01*
X62163247Y-113592970D01*
X62162830Y-113846970D01*
X62162830Y-113846971D01*
X62153211Y-119708510D01*
X62153220Y-119708557D01*
X62153211Y-119708604D01*
X62152652Y-120069187D01*
X62152679Y-120069322D01*
X62152652Y-120069455D01*
X62151781Y-120744757D01*
X62151816Y-120744936D01*
X62151780Y-120745117D01*
X62151167Y-121397211D01*
X62151204Y-121397399D01*
X62151167Y-121397586D01*
X62150807Y-122022246D01*
X62150846Y-122022443D01*
X62150807Y-122022640D01*
X62150692Y-122615642D01*
X58026480Y-122615642D01*
X58026480Y-104880000D01*
X209460053Y-104880000D01*
X209606585Y-105616666D01*
X210023872Y-106241181D01*
X210037071Y-106250000D01*
X210023872Y-106258819D01*
X209606585Y-106883334D01*
X209460053Y-107620000D01*
X209606585Y-108356666D01*
X210023872Y-108981181D01*
X210648387Y-109398468D01*
X211385053Y-109545000D01*
X212887907Y-109545000D01*
X213624573Y-109398468D01*
X214249088Y-108981181D01*
X214666375Y-108356666D01*
X214812907Y-107620000D01*
X214666375Y-106883334D01*
X214249088Y-106258819D01*
X214235889Y-106250000D01*
X214249088Y-106241181D01*
X214666375Y-105616666D01*
X214812907Y-104880000D01*
X214666375Y-104143334D01*
X214249088Y-103518819D01*
X213624573Y-103101532D01*
X212887907Y-102955000D01*
X211385053Y-102955000D01*
X210648387Y-103101532D01*
X210023872Y-103518819D01*
X209606585Y-104143334D01*
X209460053Y-104880000D01*
X58026480Y-104880000D01*
X58026480Y-99307854D01*
X208181202Y-99307854D01*
X208425034Y-99897972D01*
X208536666Y-100009799D01*
X208426620Y-100119653D01*
X208181759Y-100709345D01*
X208181202Y-101347854D01*
X208425034Y-101937972D01*
X208876133Y-102389860D01*
X209465825Y-102634721D01*
X210104334Y-102635278D01*
X210694452Y-102391446D01*
X211146340Y-101940347D01*
X211391201Y-101350655D01*
X211391215Y-101334881D01*
X211426133Y-101369860D01*
X212015825Y-101614721D01*
X212654334Y-101615278D01*
X213244452Y-101371446D01*
X213696340Y-100920347D01*
X213941201Y-100330655D01*
X213941758Y-99692146D01*
X213697926Y-99102028D01*
X213586294Y-98990201D01*
X213696340Y-98880347D01*
X213941201Y-98290655D01*
X213941758Y-97652146D01*
X213697926Y-97062028D01*
X213246827Y-96610140D01*
X212657135Y-96365279D01*
X212018626Y-96364722D01*
X211428508Y-96608554D01*
X210976620Y-97059653D01*
X210731759Y-97649345D01*
X210731745Y-97665119D01*
X210696827Y-97630140D01*
X210107135Y-97385279D01*
X209468626Y-97384722D01*
X208878508Y-97628554D01*
X208426620Y-98079653D01*
X208181759Y-98669345D01*
X208181202Y-99307854D01*
X58026480Y-99307854D01*
X58026480Y-93264109D01*
X133185507Y-93264109D01*
X133688514Y-94481480D01*
X134619101Y-95413692D01*
X135835592Y-95918824D01*
X137152789Y-95919973D01*
X138370160Y-95416966D01*
X139302372Y-94486379D01*
X139432196Y-94173728D01*
X139752080Y-94173728D01*
X139752080Y-94653072D01*
X139891000Y-95351469D01*
X140179607Y-95783400D01*
X139891000Y-96215331D01*
X139752080Y-96913728D01*
X139752080Y-97393072D01*
X139891000Y-98091469D01*
X140286610Y-98683542D01*
X140878683Y-99079152D01*
X141577080Y-99218072D01*
X142275477Y-99079152D01*
X142847080Y-98697220D01*
X143418683Y-99079152D01*
X144117080Y-99218072D01*
X144815477Y-99079152D01*
X145387080Y-98697220D01*
X145958683Y-99079152D01*
X146657080Y-99218072D01*
X147355477Y-99079152D01*
X147927080Y-98697220D01*
X148498683Y-99079152D01*
X149197080Y-99218072D01*
X149895477Y-99079152D01*
X150467080Y-98697220D01*
X151038683Y-99079152D01*
X151737080Y-99218072D01*
X152435477Y-99079152D01*
X153007080Y-98697220D01*
X153578683Y-99079152D01*
X154277080Y-99218072D01*
X154975477Y-99079152D01*
X155547080Y-98697220D01*
X156118683Y-99079152D01*
X156817080Y-99218072D01*
X157515477Y-99079152D01*
X158087080Y-98697220D01*
X158658683Y-99079152D01*
X159357080Y-99218072D01*
X160055477Y-99079152D01*
X160627080Y-98697220D01*
X161198683Y-99079152D01*
X161897080Y-99218072D01*
X162595477Y-99079152D01*
X163167080Y-98697220D01*
X163738683Y-99079152D01*
X164437080Y-99218072D01*
X165135477Y-99079152D01*
X165707080Y-98697220D01*
X166278683Y-99079152D01*
X166977080Y-99218072D01*
X167675477Y-99079152D01*
X168247080Y-98697220D01*
X168818683Y-99079152D01*
X169517080Y-99218072D01*
X170215477Y-99079152D01*
X170787080Y-98697220D01*
X171358683Y-99079152D01*
X172057080Y-99218072D01*
X172755477Y-99079152D01*
X173327080Y-98697220D01*
X173898683Y-99079152D01*
X174597080Y-99218072D01*
X175295477Y-99079152D01*
X175867080Y-98697220D01*
X176438683Y-99079152D01*
X177137080Y-99218072D01*
X177835477Y-99079152D01*
X178407080Y-98697220D01*
X178978683Y-99079152D01*
X179677080Y-99218072D01*
X180375477Y-99079152D01*
X180947080Y-98697220D01*
X181518683Y-99079152D01*
X182217080Y-99218072D01*
X182915477Y-99079152D01*
X183487080Y-98697220D01*
X184058683Y-99079152D01*
X184757080Y-99218072D01*
X185455477Y-99079152D01*
X186027080Y-98697220D01*
X186598683Y-99079152D01*
X187297080Y-99218072D01*
X187995477Y-99079152D01*
X188567080Y-98697220D01*
X189138683Y-99079152D01*
X189837080Y-99218072D01*
X190535477Y-99079152D01*
X191107080Y-98697220D01*
X191678683Y-99079152D01*
X192377080Y-99218072D01*
X193075477Y-99079152D01*
X193647080Y-98697220D01*
X194218683Y-99079152D01*
X194917080Y-99218072D01*
X195615477Y-99079152D01*
X196131140Y-98734597D01*
X196250485Y-98816142D01*
X196657080Y-98898480D01*
X198257080Y-98898480D01*
X198636922Y-98827008D01*
X198985784Y-98602521D01*
X199219822Y-98259995D01*
X199302160Y-97853400D01*
X199302160Y-96624624D01*
X199728514Y-97656480D01*
X200659101Y-98588692D01*
X201875592Y-99093824D01*
X203192789Y-99094973D01*
X204410160Y-98591966D01*
X205342372Y-97661379D01*
X205847504Y-96444888D01*
X205848653Y-95127691D01*
X205345646Y-93910320D01*
X204415059Y-92978108D01*
X203198568Y-92472976D01*
X201881371Y-92471827D01*
X200664000Y-92974834D01*
X199731788Y-93905421D01*
X199226656Y-95121912D01*
X199226007Y-95866283D01*
X199016608Y-95540868D01*
X199143160Y-95351469D01*
X199282080Y-94653072D01*
X199282080Y-94173728D01*
X199143160Y-93475331D01*
X198747550Y-92883258D01*
X198155477Y-92487648D01*
X197457080Y-92348728D01*
X196758683Y-92487648D01*
X196187080Y-92869580D01*
X195615477Y-92487648D01*
X194917080Y-92348728D01*
X194218683Y-92487648D01*
X193647080Y-92869580D01*
X193075477Y-92487648D01*
X192377080Y-92348728D01*
X191678683Y-92487648D01*
X191107080Y-92869580D01*
X190535477Y-92487648D01*
X189837080Y-92348728D01*
X189138683Y-92487648D01*
X188567080Y-92869580D01*
X187995477Y-92487648D01*
X187297080Y-92348728D01*
X186598683Y-92487648D01*
X186027080Y-92869580D01*
X185455477Y-92487648D01*
X184757080Y-92348728D01*
X184058683Y-92487648D01*
X183487080Y-92869580D01*
X182915477Y-92487648D01*
X182217080Y-92348728D01*
X181518683Y-92487648D01*
X180947080Y-92869580D01*
X180375477Y-92487648D01*
X179677080Y-92348728D01*
X178978683Y-92487648D01*
X178407080Y-92869580D01*
X177835477Y-92487648D01*
X177137080Y-92348728D01*
X176438683Y-92487648D01*
X175867080Y-92869580D01*
X175295477Y-92487648D01*
X174597080Y-92348728D01*
X173898683Y-92487648D01*
X173327080Y-92869580D01*
X172755477Y-92487648D01*
X172057080Y-92348728D01*
X171358683Y-92487648D01*
X170787080Y-92869580D01*
X170215477Y-92487648D01*
X169517080Y-92348728D01*
X168818683Y-92487648D01*
X168247080Y-92869580D01*
X167675477Y-92487648D01*
X166977080Y-92348728D01*
X166278683Y-92487648D01*
X165707080Y-92869580D01*
X165135477Y-92487648D01*
X164437080Y-92348728D01*
X163738683Y-92487648D01*
X163167080Y-92869580D01*
X162595477Y-92487648D01*
X161897080Y-92348728D01*
X161198683Y-92487648D01*
X160627080Y-92869580D01*
X160055477Y-92487648D01*
X159357080Y-92348728D01*
X158658683Y-92487648D01*
X158066610Y-92883258D01*
X157671000Y-93475331D01*
X157606808Y-93798046D01*
X157399421Y-93534013D01*
X157342628Y-93452201D01*
X157217080Y-93414157D01*
X157217080Y-93938400D01*
X157312080Y-93938400D01*
X157312080Y-94888400D01*
X157217080Y-94888400D01*
X157217080Y-94908400D01*
X156417080Y-94908400D01*
X156417080Y-94888400D01*
X156322080Y-94888400D01*
X156322080Y-93938400D01*
X156417080Y-93938400D01*
X156417080Y-93414157D01*
X156291532Y-93452201D01*
X156234739Y-93534013D01*
X156027352Y-93798046D01*
X155963160Y-93475331D01*
X155567550Y-92883258D01*
X154975477Y-92487648D01*
X154277080Y-92348728D01*
X153578683Y-92487648D01*
X153007080Y-92869580D01*
X152435477Y-92487648D01*
X151737080Y-92348728D01*
X151038683Y-92487648D01*
X150467080Y-92869580D01*
X149895477Y-92487648D01*
X149197080Y-92348728D01*
X148498683Y-92487648D01*
X147927080Y-92869580D01*
X147355477Y-92487648D01*
X146657080Y-92348728D01*
X145958683Y-92487648D01*
X145387080Y-92869580D01*
X144815477Y-92487648D01*
X144117080Y-92348728D01*
X143418683Y-92487648D01*
X142847080Y-92869580D01*
X142275477Y-92487648D01*
X141577080Y-92348728D01*
X140878683Y-92487648D01*
X140286610Y-92883258D01*
X139891000Y-93475331D01*
X139752080Y-94173728D01*
X139432196Y-94173728D01*
X139807504Y-93269888D01*
X139808653Y-91952691D01*
X139572023Y-91380000D01*
X209460053Y-91380000D01*
X209606585Y-92116666D01*
X210023872Y-92741181D01*
X210037071Y-92750000D01*
X210023872Y-92758819D01*
X209606585Y-93383334D01*
X209460053Y-94120000D01*
X209606585Y-94856666D01*
X210023872Y-95481181D01*
X210648387Y-95898468D01*
X211385053Y-96045000D01*
X212887907Y-96045000D01*
X213624573Y-95898468D01*
X214249088Y-95481181D01*
X214666375Y-94856666D01*
X214812907Y-94120000D01*
X214666375Y-93383334D01*
X214249088Y-92758819D01*
X214235889Y-92750000D01*
X214249088Y-92741181D01*
X214666375Y-92116666D01*
X214812907Y-91380000D01*
X214666375Y-90643334D01*
X214249088Y-90018819D01*
X213624573Y-89601532D01*
X212887907Y-89455000D01*
X211385053Y-89455000D01*
X210648387Y-89601532D01*
X210023872Y-90018819D01*
X209606585Y-90643334D01*
X209460053Y-91380000D01*
X139572023Y-91380000D01*
X139305646Y-90735320D01*
X138375059Y-89803108D01*
X137158568Y-89297976D01*
X135841371Y-89296827D01*
X134624000Y-89799834D01*
X133691788Y-90730421D01*
X133186656Y-91946912D01*
X133185507Y-93264109D01*
X58026480Y-93264109D01*
X58026480Y-85807854D01*
X208181202Y-85807854D01*
X208425034Y-86397972D01*
X208536666Y-86509799D01*
X208426620Y-86619653D01*
X208181759Y-87209345D01*
X208181202Y-87847854D01*
X208425034Y-88437972D01*
X208876133Y-88889860D01*
X209465825Y-89134721D01*
X210104334Y-89135278D01*
X210694452Y-88891446D01*
X211146340Y-88440347D01*
X211391201Y-87850655D01*
X211391215Y-87834881D01*
X211426133Y-87869860D01*
X212015825Y-88114721D01*
X212654334Y-88115278D01*
X213244452Y-87871446D01*
X213696340Y-87420347D01*
X213941201Y-86830655D01*
X213941758Y-86192146D01*
X213697926Y-85602028D01*
X213586294Y-85490201D01*
X213696340Y-85380347D01*
X213941201Y-84790655D01*
X213941758Y-84152146D01*
X213697926Y-83562028D01*
X213246827Y-83110140D01*
X212657135Y-82865279D01*
X212018626Y-82864722D01*
X211428508Y-83108554D01*
X210976620Y-83559653D01*
X210731759Y-84149345D01*
X210731745Y-84165119D01*
X210696827Y-84130140D01*
X210107135Y-83885279D01*
X209468626Y-83884722D01*
X208878508Y-84128554D01*
X208426620Y-84579653D01*
X208181759Y-85169345D01*
X208181202Y-85807854D01*
X58026480Y-85807854D01*
X58026480Y-80513000D01*
X149986920Y-80513000D01*
X149986920Y-81163000D01*
X150016181Y-81318507D01*
X149986920Y-81463000D01*
X149986920Y-82113000D01*
X150058392Y-82492842D01*
X150282879Y-82841704D01*
X150625405Y-83075742D01*
X150907000Y-83132767D01*
X150907000Y-83213002D01*
X151317000Y-83213002D01*
X151317000Y-83188000D01*
X151390750Y-83188000D01*
X151420670Y-83158080D01*
X152203330Y-83158080D01*
X152233250Y-83188000D01*
X152307000Y-83188000D01*
X152307000Y-83213002D01*
X152715145Y-83213002D01*
X152758392Y-83442842D01*
X152982879Y-83791704D01*
X153325405Y-84025742D01*
X153732000Y-84108080D01*
X155292000Y-84108080D01*
X155671842Y-84036608D01*
X156020704Y-83812121D01*
X156254742Y-83469595D01*
X156337080Y-83063000D01*
X156337080Y-82413000D01*
X156265608Y-82033158D01*
X156106718Y-81786236D01*
X156254742Y-81569595D01*
X156337080Y-81163000D01*
X156337080Y-80620000D01*
X209460053Y-80620000D01*
X209606585Y-81356666D01*
X210023872Y-81981181D01*
X210648387Y-82398468D01*
X211385053Y-82545000D01*
X212887907Y-82545000D01*
X213624573Y-82398468D01*
X214249088Y-81981181D01*
X214666375Y-81356666D01*
X214812907Y-80620000D01*
X214666375Y-79883334D01*
X214249088Y-79258819D01*
X213624573Y-78841532D01*
X212887907Y-78695000D01*
X211385053Y-78695000D01*
X210648387Y-78841532D01*
X210023872Y-79258819D01*
X209606585Y-79883334D01*
X209460053Y-80620000D01*
X156337080Y-80620000D01*
X156337080Y-80513000D01*
X156265608Y-80133158D01*
X156041121Y-79784296D01*
X155698595Y-79550258D01*
X155292000Y-79467920D01*
X153732000Y-79467920D01*
X153352158Y-79539392D01*
X153161885Y-79661829D01*
X152998595Y-79550258D01*
X152592000Y-79467920D01*
X151032000Y-79467920D01*
X150652158Y-79539392D01*
X150303296Y-79763879D01*
X150069258Y-80106405D01*
X149986920Y-80513000D01*
X58026480Y-80513000D01*
X58026480Y-76381329D01*
X84920456Y-76381329D01*
X85607895Y-78045058D01*
X86879687Y-79319071D01*
X88542213Y-80009413D01*
X90342369Y-80010984D01*
X92006098Y-79323545D01*
X93280111Y-78051753D01*
X93970453Y-76389227D01*
X93971167Y-75570730D01*
X147271680Y-75570730D01*
X147271680Y-75889344D01*
X147290710Y-75935287D01*
X147325873Y-75970450D01*
X147371816Y-75989480D01*
X147540430Y-75989480D01*
X147571680Y-75958230D01*
X147571680Y-75539480D01*
X147921680Y-75539480D01*
X147921680Y-75958230D01*
X147952930Y-75989480D01*
X148121544Y-75989480D01*
X148167487Y-75970450D01*
X148202650Y-75935287D01*
X148221680Y-75889344D01*
X148221680Y-75570730D01*
X148190430Y-75539480D01*
X147921680Y-75539480D01*
X147571680Y-75539480D01*
X147302930Y-75539480D01*
X147271680Y-75570730D01*
X93971167Y-75570730D01*
X93972024Y-74589071D01*
X93951590Y-74539616D01*
X147271680Y-74539616D01*
X147271680Y-74858230D01*
X147302930Y-74889480D01*
X147571680Y-74889480D01*
X147571680Y-74470730D01*
X147921680Y-74470730D01*
X147921680Y-74889480D01*
X148190430Y-74889480D01*
X148221680Y-74858230D01*
X148221680Y-74564480D01*
X148251600Y-74564480D01*
X148251600Y-75864480D01*
X148323072Y-76244322D01*
X148547559Y-76593184D01*
X148890085Y-76827222D01*
X149296680Y-76909560D01*
X149996680Y-76909560D01*
X150376522Y-76838088D01*
X150725384Y-76613601D01*
X150959422Y-76271075D01*
X151041760Y-75864480D01*
X151041760Y-74564480D01*
X150989188Y-74285080D01*
X152721920Y-74285080D01*
X152721920Y-75585080D01*
X152793392Y-75964922D01*
X153017879Y-76313784D01*
X153360405Y-76547822D01*
X153767000Y-76630160D01*
X154467000Y-76630160D01*
X154846842Y-76558688D01*
X155068014Y-76416367D01*
X155260405Y-76547822D01*
X155667000Y-76630160D01*
X156367000Y-76630160D01*
X156746842Y-76558688D01*
X157095704Y-76334201D01*
X157329742Y-75991675D01*
X157412080Y-75585080D01*
X157412080Y-74285080D01*
X157340608Y-73905238D01*
X157116121Y-73556376D01*
X156773595Y-73322338D01*
X156652355Y-73297786D01*
X207497885Y-73297786D01*
X207660182Y-73382775D01*
X208147091Y-73403161D01*
X208249578Y-73382775D01*
X208411875Y-73297786D01*
X212497885Y-73297786D01*
X212660182Y-73382775D01*
X213147091Y-73403161D01*
X213249578Y-73382775D01*
X213411875Y-73297786D01*
X212954880Y-72840791D01*
X212497885Y-73297786D01*
X208411875Y-73297786D01*
X207954880Y-72840791D01*
X207497885Y-73297786D01*
X156652355Y-73297786D01*
X156367000Y-73240000D01*
X155667000Y-73240000D01*
X155287158Y-73311472D01*
X155065986Y-73453793D01*
X154873595Y-73322338D01*
X154467000Y-73240000D01*
X153767000Y-73240000D01*
X153387158Y-73311472D01*
X153038296Y-73535959D01*
X152804258Y-73878485D01*
X152721920Y-74285080D01*
X150989188Y-74285080D01*
X150970288Y-74184638D01*
X150745801Y-73835776D01*
X150403275Y-73601738D01*
X149996680Y-73519400D01*
X149296680Y-73519400D01*
X148916838Y-73590872D01*
X148567976Y-73815359D01*
X148333938Y-74157885D01*
X148251600Y-74564480D01*
X148221680Y-74564480D01*
X148221680Y-74539616D01*
X148202650Y-74493673D01*
X148167487Y-74458510D01*
X148121544Y-74439480D01*
X147952930Y-74439480D01*
X147921680Y-74470730D01*
X147571680Y-74470730D01*
X147540430Y-74439480D01*
X147371816Y-74439480D01*
X147325873Y-74458510D01*
X147290710Y-74493673D01*
X147271680Y-74539616D01*
X93951590Y-74539616D01*
X93284585Y-72925342D01*
X92721478Y-72361251D01*
X206720759Y-72361251D01*
X206741145Y-72463738D01*
X206826134Y-72626035D01*
X207283129Y-72169040D01*
X208626631Y-72169040D01*
X209083626Y-72626035D01*
X209168615Y-72463738D01*
X209172905Y-72361251D01*
X211720759Y-72361251D01*
X211741145Y-72463738D01*
X211826134Y-72626035D01*
X212283129Y-72169040D01*
X213626631Y-72169040D01*
X214083626Y-72626035D01*
X214168615Y-72463738D01*
X214189001Y-71976829D01*
X214168615Y-71874342D01*
X214083626Y-71712045D01*
X213626631Y-72169040D01*
X212283129Y-72169040D01*
X211826134Y-71712045D01*
X211741145Y-71874342D01*
X211720759Y-72361251D01*
X209172905Y-72361251D01*
X209189001Y-71976829D01*
X209168615Y-71874342D01*
X209083626Y-71712045D01*
X208626631Y-72169040D01*
X207283129Y-72169040D01*
X206826134Y-71712045D01*
X206741145Y-71874342D01*
X206720759Y-72361251D01*
X92721478Y-72361251D01*
X92012793Y-71651329D01*
X90541260Y-71040294D01*
X207497885Y-71040294D01*
X207954880Y-71497289D01*
X208411875Y-71040294D01*
X208249578Y-70955305D01*
X207762669Y-70934919D01*
X207660182Y-70955305D01*
X207497885Y-71040294D01*
X90541260Y-71040294D01*
X90350267Y-70960987D01*
X88550111Y-70959416D01*
X86886382Y-71646855D01*
X85612369Y-72918647D01*
X84922027Y-74581173D01*
X84920456Y-76381329D01*
X58026480Y-76381329D01*
X58026480Y-72059273D01*
X70687937Y-72059273D01*
X70808678Y-72259734D01*
X70915669Y-72382661D01*
X71002200Y-72394553D01*
X71002200Y-71968500D01*
X71502200Y-71968500D01*
X71502200Y-72394553D01*
X71588731Y-72382661D01*
X71695722Y-72259734D01*
X71816463Y-72059273D01*
X77687937Y-72059273D01*
X77808678Y-72259734D01*
X77915669Y-72382661D01*
X78002200Y-72394553D01*
X78002200Y-71968500D01*
X78502200Y-71968500D01*
X78502200Y-72394553D01*
X78588731Y-72382661D01*
X78695722Y-72259734D01*
X78816463Y-72059273D01*
X78810065Y-71968500D01*
X78502200Y-71968500D01*
X78002200Y-71968500D01*
X77694335Y-71968500D01*
X77687937Y-72059273D01*
X71816463Y-72059273D01*
X71810065Y-71968500D01*
X71502200Y-71968500D01*
X71002200Y-71968500D01*
X70694335Y-71968500D01*
X70687937Y-72059273D01*
X58026480Y-72059273D01*
X58026480Y-71102727D01*
X70687937Y-71102727D01*
X70694335Y-71193500D01*
X71002200Y-71193500D01*
X71502200Y-71193500D01*
X71810065Y-71193500D01*
X71816463Y-71102727D01*
X77687937Y-71102727D01*
X77694335Y-71193500D01*
X78002200Y-71193500D01*
X78502200Y-71193500D01*
X78810065Y-71193500D01*
X78816463Y-71102727D01*
X78695722Y-70902266D01*
X78588731Y-70779339D01*
X78502200Y-70767447D01*
X78502200Y-71193500D01*
X78002200Y-71193500D01*
X78002200Y-70767447D01*
X77915669Y-70779339D01*
X77808678Y-70902266D01*
X77687937Y-71102727D01*
X71816463Y-71102727D01*
X71695722Y-70902266D01*
X71588731Y-70779339D01*
X71502200Y-70767447D01*
X71502200Y-71193500D01*
X71002200Y-71193500D01*
X71002200Y-70767447D01*
X70915669Y-70779339D01*
X70808678Y-70902266D01*
X70687937Y-71102727D01*
X58026480Y-71102727D01*
X58026480Y-68643500D01*
X71585412Y-68643500D01*
X71939700Y-68643500D01*
X71939700Y-68406000D01*
X72207120Y-68406000D01*
X72207120Y-69356000D01*
X71939700Y-69356000D01*
X71939700Y-69118500D01*
X71585412Y-69118500D01*
X71595144Y-69201770D01*
X71673080Y-69270253D01*
X71788796Y-69356000D01*
X71777198Y-69356000D01*
X71777198Y-69481000D01*
X72207120Y-69481000D01*
X72207120Y-69556000D01*
X72278592Y-69935842D01*
X72503079Y-70284704D01*
X72845605Y-70518742D01*
X73252200Y-70601080D01*
X73652200Y-70601080D01*
X73781789Y-70576696D01*
X73902200Y-70601080D01*
X74302200Y-70601080D01*
X74431789Y-70576696D01*
X74552200Y-70601080D01*
X74952200Y-70601080D01*
X75081789Y-70576696D01*
X75202200Y-70601080D01*
X75602200Y-70601080D01*
X75982042Y-70529608D01*
X76330904Y-70305121D01*
X76477975Y-70089874D01*
X208329512Y-70089874D01*
X208652342Y-70871183D01*
X209249593Y-71469477D01*
X210030337Y-71793670D01*
X210875714Y-71794408D01*
X211657023Y-71471578D01*
X212089060Y-71040294D01*
X212497885Y-71040294D01*
X212954880Y-71497289D01*
X213411875Y-71040294D01*
X213249578Y-70955305D01*
X212762669Y-70934919D01*
X212660182Y-70955305D01*
X212497885Y-71040294D01*
X212089060Y-71040294D01*
X212255317Y-70874327D01*
X212579510Y-70093583D01*
X212580248Y-69248206D01*
X212257418Y-68466897D01*
X212088602Y-68297786D01*
X212497885Y-68297786D01*
X212660182Y-68382775D01*
X213147091Y-68403161D01*
X213249578Y-68382775D01*
X213411875Y-68297786D01*
X212954880Y-67840791D01*
X212497885Y-68297786D01*
X212088602Y-68297786D01*
X211660167Y-67868603D01*
X210879423Y-67544410D01*
X210034046Y-67543672D01*
X209252737Y-67866502D01*
X208654443Y-68463753D01*
X208330250Y-69244497D01*
X208329512Y-70089874D01*
X76477975Y-70089874D01*
X76564942Y-69962595D01*
X76647280Y-69556000D01*
X76647280Y-69356002D01*
X76757200Y-69356002D01*
X76757200Y-69332587D01*
X76854706Y-69404840D01*
X76939700Y-69405857D01*
X76939700Y-69118500D01*
X77564700Y-69118500D01*
X77564700Y-69405857D01*
X77649694Y-69404840D01*
X77831320Y-69270253D01*
X77909256Y-69201770D01*
X77918988Y-69118500D01*
X77564700Y-69118500D01*
X76939700Y-69118500D01*
X76757200Y-69118500D01*
X76757200Y-68643500D01*
X76939700Y-68643500D01*
X77564700Y-68643500D01*
X77918988Y-68643500D01*
X77909256Y-68560230D01*
X77831320Y-68491747D01*
X77649694Y-68357160D01*
X77564700Y-68356143D01*
X77564700Y-68643500D01*
X76939700Y-68643500D01*
X76939700Y-68356143D01*
X76854706Y-68357160D01*
X76757200Y-68429413D01*
X76757200Y-68405998D01*
X76647280Y-68405998D01*
X76647280Y-68297786D01*
X207497885Y-68297786D01*
X207660182Y-68382775D01*
X208147091Y-68403161D01*
X208249578Y-68382775D01*
X208411875Y-68297786D01*
X207954880Y-67840791D01*
X207497885Y-68297786D01*
X76647280Y-68297786D01*
X76647280Y-68206000D01*
X76575808Y-67826158D01*
X76351321Y-67477296D01*
X76181484Y-67361251D01*
X206720759Y-67361251D01*
X206741145Y-67463738D01*
X206826134Y-67626035D01*
X207283129Y-67169040D01*
X208626631Y-67169040D01*
X209083626Y-67626035D01*
X209168615Y-67463738D01*
X209172905Y-67361251D01*
X211720759Y-67361251D01*
X211741145Y-67463738D01*
X211826134Y-67626035D01*
X212283129Y-67169040D01*
X213626631Y-67169040D01*
X214083626Y-67626035D01*
X214168615Y-67463738D01*
X214189001Y-66976829D01*
X214168615Y-66874342D01*
X214083626Y-66712045D01*
X213626631Y-67169040D01*
X212283129Y-67169040D01*
X211826134Y-66712045D01*
X211741145Y-66874342D01*
X211720759Y-67361251D01*
X209172905Y-67361251D01*
X209189001Y-66976829D01*
X209168615Y-66874342D01*
X209083626Y-66712045D01*
X208626631Y-67169040D01*
X207283129Y-67169040D01*
X206826134Y-66712045D01*
X206741145Y-66874342D01*
X206720759Y-67361251D01*
X76181484Y-67361251D01*
X76008795Y-67243258D01*
X75602200Y-67160920D01*
X75202200Y-67160920D01*
X75072611Y-67185304D01*
X74952200Y-67160920D01*
X74552200Y-67160920D01*
X74422611Y-67185304D01*
X74302200Y-67160920D01*
X73902200Y-67160920D01*
X73772611Y-67185304D01*
X73652200Y-67160920D01*
X73252200Y-67160920D01*
X72872358Y-67232392D01*
X72523496Y-67456879D01*
X72289458Y-67799405D01*
X72207120Y-68206000D01*
X72207120Y-68281000D01*
X71777198Y-68281000D01*
X71777198Y-68406000D01*
X71788796Y-68406000D01*
X71673080Y-68491747D01*
X71595144Y-68560230D01*
X71585412Y-68643500D01*
X58026480Y-68643500D01*
X58026480Y-66040294D01*
X207497885Y-66040294D01*
X207954880Y-66497289D01*
X208411875Y-66040294D01*
X212497885Y-66040294D01*
X212954880Y-66497289D01*
X213411875Y-66040294D01*
X213249578Y-65955305D01*
X212762669Y-65934919D01*
X212660182Y-65955305D01*
X212497885Y-66040294D01*
X208411875Y-66040294D01*
X208249578Y-65955305D01*
X207762669Y-65934919D01*
X207660182Y-65955305D01*
X207497885Y-66040294D01*
X58026480Y-66040294D01*
X58026480Y-61988772D01*
X64730019Y-61988772D01*
X64944739Y-62116940D01*
X65584771Y-62207917D01*
X66042141Y-62116940D01*
X66256861Y-61988772D01*
X65701179Y-61433090D01*
X181749640Y-61433090D01*
X181749640Y-61751704D01*
X181768670Y-61797647D01*
X181803833Y-61832810D01*
X181849776Y-61851840D01*
X182018390Y-61851840D01*
X182049640Y-61820590D01*
X182049640Y-61401840D01*
X182399640Y-61401840D01*
X182399640Y-61820590D01*
X182430890Y-61851840D01*
X182599504Y-61851840D01*
X182645447Y-61832810D01*
X182680610Y-61797647D01*
X182699640Y-61751704D01*
X182699640Y-61433090D01*
X182668390Y-61401840D01*
X182399640Y-61401840D01*
X182049640Y-61401840D01*
X181780890Y-61401840D01*
X181749640Y-61433090D01*
X65701179Y-61433090D01*
X65493440Y-61225351D01*
X64730019Y-61988772D01*
X58026480Y-61988772D01*
X58026480Y-60644931D01*
X63839123Y-60644931D01*
X63930100Y-61102301D01*
X64058268Y-61317021D01*
X64821689Y-60553600D01*
X66165191Y-60553600D01*
X66928612Y-61317021D01*
X67056780Y-61102301D01*
X67147757Y-60462269D01*
X67135764Y-60401976D01*
X181749640Y-60401976D01*
X181749640Y-60720590D01*
X181780890Y-60751840D01*
X182049640Y-60751840D01*
X182049640Y-60333090D01*
X182399640Y-60333090D01*
X182399640Y-60751840D01*
X182668390Y-60751840D01*
X182699640Y-60720590D01*
X182699640Y-60426840D01*
X182729560Y-60426840D01*
X182729560Y-61726840D01*
X182801032Y-62106682D01*
X183025519Y-62455544D01*
X183368045Y-62689582D01*
X183774640Y-62771920D01*
X184474640Y-62771920D01*
X184854482Y-62700448D01*
X185203344Y-62475961D01*
X185437382Y-62133435D01*
X185519720Y-61726840D01*
X185519720Y-60426840D01*
X185479680Y-60214045D01*
X208276021Y-60214045D01*
X208678609Y-61188384D01*
X209423415Y-61934491D01*
X210397050Y-62338779D01*
X211451285Y-62339699D01*
X212425624Y-61937111D01*
X213171731Y-61192305D01*
X213576019Y-60218670D01*
X213576939Y-59164435D01*
X213174351Y-58190096D01*
X212429545Y-57443989D01*
X211455910Y-57039701D01*
X210401675Y-57038781D01*
X209427336Y-57441369D01*
X208681229Y-58186175D01*
X208276941Y-59159810D01*
X208276021Y-60214045D01*
X185479680Y-60214045D01*
X185448248Y-60046998D01*
X185223761Y-59698136D01*
X184881235Y-59464098D01*
X184474640Y-59381760D01*
X183774640Y-59381760D01*
X183394798Y-59453232D01*
X183045936Y-59677719D01*
X182811898Y-60020245D01*
X182729560Y-60426840D01*
X182699640Y-60426840D01*
X182699640Y-60401976D01*
X182680610Y-60356033D01*
X182645447Y-60320870D01*
X182599504Y-60301840D01*
X182430890Y-60301840D01*
X182399640Y-60333090D01*
X182049640Y-60333090D01*
X182018390Y-60301840D01*
X181849776Y-60301840D01*
X181803833Y-60320870D01*
X181768670Y-60356033D01*
X181749640Y-60401976D01*
X67135764Y-60401976D01*
X67056780Y-60004899D01*
X66928612Y-59790179D01*
X66165191Y-60553600D01*
X64821689Y-60553600D01*
X64058268Y-59790179D01*
X63930100Y-60004899D01*
X63839123Y-60644931D01*
X58026480Y-60644931D01*
X58026480Y-59118428D01*
X64730019Y-59118428D01*
X65493440Y-59881849D01*
X66256861Y-59118428D01*
X66042141Y-58990260D01*
X65402109Y-58899283D01*
X64944739Y-58990260D01*
X64730019Y-59118428D01*
X58026480Y-59118428D01*
X58026480Y-58316720D01*
X67880650Y-58316720D01*
X67991008Y-58378920D01*
X68335872Y-58378920D01*
X68446230Y-58316720D01*
X68163440Y-58033930D01*
X67880650Y-58316720D01*
X58026480Y-58316720D01*
X58026480Y-57331168D01*
X67288120Y-57331168D01*
X67288120Y-57676032D01*
X67350320Y-57786390D01*
X67633110Y-57503600D01*
X68693770Y-57503600D01*
X68976560Y-57786390D01*
X69038760Y-57676032D01*
X69038760Y-57331168D01*
X68976560Y-57220810D01*
X68693770Y-57503600D01*
X67633110Y-57503600D01*
X67350320Y-57220810D01*
X67288120Y-57331168D01*
X58026480Y-57331168D01*
X58026480Y-50745120D01*
X66388133Y-50745120D01*
X66657791Y-51397743D01*
X66923211Y-51663626D01*
X66659546Y-51926831D01*
X66388749Y-52578982D01*
X66388133Y-53285120D01*
X66657791Y-53937743D01*
X66668211Y-53948181D01*
X66659546Y-53956831D01*
X66388749Y-54608982D01*
X66388133Y-55315120D01*
X66657791Y-55967743D01*
X67156671Y-56467494D01*
X67808822Y-56738291D01*
X67928565Y-56738395D01*
X68163440Y-56973270D01*
X68397905Y-56738805D01*
X68514960Y-56738907D01*
X69167583Y-56469249D01*
X69233466Y-56403480D01*
X185411720Y-56403480D01*
X185411720Y-57703480D01*
X185483192Y-58083322D01*
X185707679Y-58432184D01*
X186050205Y-58666222D01*
X186456800Y-58748560D01*
X187156800Y-58748560D01*
X187536642Y-58677088D01*
X187757814Y-58534767D01*
X187950205Y-58666222D01*
X188356800Y-58748560D01*
X189056800Y-58748560D01*
X189436642Y-58677088D01*
X189785504Y-58452601D01*
X190019542Y-58110075D01*
X190101880Y-57703480D01*
X190101880Y-56403480D01*
X190030408Y-56023638D01*
X189805921Y-55674776D01*
X189463395Y-55440738D01*
X189056800Y-55358400D01*
X188356800Y-55358400D01*
X187976958Y-55429872D01*
X187755786Y-55572193D01*
X187563395Y-55440738D01*
X187156800Y-55358400D01*
X186456800Y-55358400D01*
X186076958Y-55429872D01*
X185728096Y-55654359D01*
X185494058Y-55996885D01*
X185411720Y-56403480D01*
X69233466Y-56403480D01*
X69667334Y-55970369D01*
X69938131Y-55318218D01*
X69938747Y-54612080D01*
X69669089Y-53959457D01*
X69658669Y-53949019D01*
X69667334Y-53940369D01*
X69938131Y-53288218D01*
X69938747Y-52582080D01*
X69669089Y-51929457D01*
X69403669Y-51663574D01*
X69667334Y-51400369D01*
X69938131Y-50748218D01*
X69938747Y-50042080D01*
X69675181Y-49404200D01*
X115490720Y-49404200D01*
X115490720Y-53364200D01*
X115562192Y-53744042D01*
X115786679Y-54092904D01*
X116129205Y-54326942D01*
X116535800Y-54409280D01*
X118515800Y-54409280D01*
X118895642Y-54337808D01*
X119244504Y-54113321D01*
X119478542Y-53770795D01*
X119560880Y-53364200D01*
X119560880Y-50335329D01*
X120510800Y-50335329D01*
X120510800Y-52433071D01*
X120664183Y-53204178D01*
X121100980Y-53857891D01*
X121754693Y-54294688D01*
X122525800Y-54448071D01*
X123296907Y-54294688D01*
X123950620Y-53857891D01*
X124387417Y-53204178D01*
X124540800Y-52433071D01*
X124540800Y-51354109D01*
X133185507Y-51354109D01*
X133688514Y-52571480D01*
X134619101Y-53503692D01*
X135835592Y-54008824D01*
X137152789Y-54009973D01*
X138370160Y-53506966D01*
X139302372Y-52576379D01*
X139807504Y-51359888D01*
X139808653Y-50042691D01*
X139305646Y-48825320D01*
X138375059Y-47893108D01*
X137158568Y-47387976D01*
X135841371Y-47386827D01*
X134624000Y-47889834D01*
X133691788Y-48820421D01*
X133186656Y-50036912D01*
X133185507Y-51354109D01*
X124540800Y-51354109D01*
X124540800Y-50335329D01*
X124387417Y-49564222D01*
X123950620Y-48910509D01*
X123296907Y-48473712D01*
X122525800Y-48320329D01*
X121754693Y-48473712D01*
X121100980Y-48910509D01*
X120664183Y-49564222D01*
X120510800Y-50335329D01*
X119560880Y-50335329D01*
X119560880Y-49404200D01*
X119489408Y-49024358D01*
X119264921Y-48675496D01*
X118922395Y-48441458D01*
X118515800Y-48359120D01*
X116535800Y-48359120D01*
X116155958Y-48430592D01*
X115807096Y-48655079D01*
X115573058Y-48997605D01*
X115490720Y-49404200D01*
X69675181Y-49404200D01*
X69669089Y-49389457D01*
X69170209Y-48889706D01*
X68518058Y-48618909D01*
X67811920Y-48618293D01*
X67159297Y-48887951D01*
X66659546Y-49386831D01*
X66388749Y-50038982D01*
X66388133Y-50745120D01*
X58026480Y-50745120D01*
X58026480Y-48268772D01*
X64730019Y-48268772D01*
X64944739Y-48396940D01*
X65584771Y-48487917D01*
X66042141Y-48396940D01*
X66256861Y-48268772D01*
X65493440Y-47505351D01*
X64730019Y-48268772D01*
X58026480Y-48268772D01*
X58026480Y-46924931D01*
X63839123Y-46924931D01*
X63930100Y-47382301D01*
X64058268Y-47597021D01*
X64821689Y-46833600D01*
X66165191Y-46833600D01*
X66928612Y-47597021D01*
X67056780Y-47382301D01*
X67147757Y-46742269D01*
X67056780Y-46284899D01*
X66928612Y-46070179D01*
X66165191Y-46833600D01*
X64821689Y-46833600D01*
X64058268Y-46070179D01*
X63930100Y-46284899D01*
X63839123Y-46924931D01*
X58026480Y-46924931D01*
X58026480Y-45398428D01*
X64730019Y-45398428D01*
X65493440Y-46161849D01*
X65741561Y-45913728D01*
X139752080Y-45913728D01*
X139752080Y-46393072D01*
X139891000Y-47091469D01*
X140179607Y-47523400D01*
X139891000Y-47955331D01*
X139752080Y-48653728D01*
X139752080Y-49133072D01*
X139891000Y-49831469D01*
X140286610Y-50423542D01*
X140878683Y-50819152D01*
X141577080Y-50958072D01*
X142275477Y-50819152D01*
X142847080Y-50437220D01*
X143418683Y-50819152D01*
X144117080Y-50958072D01*
X144815477Y-50819152D01*
X145387080Y-50437220D01*
X145958683Y-50819152D01*
X146657080Y-50958072D01*
X147355477Y-50819152D01*
X147927080Y-50437220D01*
X148498683Y-50819152D01*
X149197080Y-50958072D01*
X149895477Y-50819152D01*
X150467080Y-50437220D01*
X151038683Y-50819152D01*
X151737080Y-50958072D01*
X152435477Y-50819152D01*
X153007080Y-50437220D01*
X153578683Y-50819152D01*
X154277080Y-50958072D01*
X154975477Y-50819152D01*
X155547080Y-50437220D01*
X156118683Y-50819152D01*
X156817080Y-50958072D01*
X157515477Y-50819152D01*
X158087080Y-50437220D01*
X158658683Y-50819152D01*
X159357080Y-50958072D01*
X160055477Y-50819152D01*
X160627080Y-50437220D01*
X161198683Y-50819152D01*
X161897080Y-50958072D01*
X162595477Y-50819152D01*
X163167080Y-50437220D01*
X163738683Y-50819152D01*
X164437080Y-50958072D01*
X165135477Y-50819152D01*
X165707080Y-50437220D01*
X166278683Y-50819152D01*
X166977080Y-50958072D01*
X167675477Y-50819152D01*
X168247080Y-50437220D01*
X168818683Y-50819152D01*
X169517080Y-50958072D01*
X170215477Y-50819152D01*
X170787080Y-50437220D01*
X171358683Y-50819152D01*
X172057080Y-50958072D01*
X172755477Y-50819152D01*
X173327080Y-50437220D01*
X173898683Y-50819152D01*
X174597080Y-50958072D01*
X175295477Y-50819152D01*
X175867080Y-50437220D01*
X176438683Y-50819152D01*
X177137080Y-50958072D01*
X177835477Y-50819152D01*
X178407080Y-50437220D01*
X178978683Y-50819152D01*
X179677080Y-50958072D01*
X180375477Y-50819152D01*
X180947080Y-50437220D01*
X181518683Y-50819152D01*
X182217080Y-50958072D01*
X182915477Y-50819152D01*
X183487080Y-50437220D01*
X184058683Y-50819152D01*
X184757080Y-50958072D01*
X185455477Y-50819152D01*
X186027080Y-50437220D01*
X186598683Y-50819152D01*
X187297080Y-50958072D01*
X187995477Y-50819152D01*
X188567080Y-50437220D01*
X189138683Y-50819152D01*
X189837080Y-50958072D01*
X190535477Y-50819152D01*
X191107080Y-50437220D01*
X191678683Y-50819152D01*
X192377080Y-50958072D01*
X193075477Y-50819152D01*
X193647080Y-50437220D01*
X194218683Y-50819152D01*
X194917080Y-50958072D01*
X195615477Y-50819152D01*
X196131140Y-50474597D01*
X196250485Y-50556142D01*
X196657080Y-50638480D01*
X198257080Y-50638480D01*
X198636922Y-50567008D01*
X198985784Y-50342521D01*
X199219822Y-49999995D01*
X199302160Y-49593400D01*
X199302160Y-48364624D01*
X199728514Y-49396480D01*
X200659101Y-50328692D01*
X201875592Y-50833824D01*
X202852698Y-50834676D01*
X202770240Y-51033257D01*
X202400089Y-50879557D01*
X201676048Y-50878925D01*
X201006880Y-51155419D01*
X200494459Y-51666947D01*
X200216797Y-52335631D01*
X200216165Y-53059672D01*
X200492659Y-53728840D01*
X200732611Y-53969210D01*
X200494459Y-54206947D01*
X200216797Y-54875631D01*
X200216165Y-55599672D01*
X200492659Y-56268840D01*
X200732611Y-56509210D01*
X200494459Y-56746947D01*
X200216797Y-57415631D01*
X200216165Y-58139672D01*
X200492659Y-58808840D01*
X201004187Y-59321261D01*
X201672871Y-59598923D01*
X202396912Y-59599555D01*
X203066080Y-59323061D01*
X203578501Y-58811533D01*
X203842720Y-58175223D01*
X204212871Y-58328923D01*
X204936912Y-58329555D01*
X205606080Y-58053061D01*
X206118501Y-57541533D01*
X206396163Y-56872849D01*
X206396795Y-56148808D01*
X206120301Y-55479640D01*
X205880349Y-55239270D01*
X206118501Y-55001533D01*
X206396163Y-54332849D01*
X206396795Y-53608808D01*
X206120301Y-52939640D01*
X205880349Y-52699270D01*
X206118501Y-52461533D01*
X206396163Y-51792849D01*
X206396795Y-51068808D01*
X206120301Y-50399640D01*
X205775309Y-50054045D01*
X208276021Y-50054045D01*
X208678609Y-51028384D01*
X209423415Y-51774491D01*
X210397050Y-52178779D01*
X211451285Y-52179699D01*
X212425624Y-51777111D01*
X213171731Y-51032305D01*
X213576019Y-50058670D01*
X213576939Y-49004435D01*
X213174351Y-48030096D01*
X212429545Y-47283989D01*
X211455910Y-46879701D01*
X210401675Y-46878781D01*
X209427336Y-47281369D01*
X208681229Y-48026175D01*
X208276941Y-48999810D01*
X208276021Y-50054045D01*
X205775309Y-50054045D01*
X205608773Y-49887219D01*
X205076916Y-49666372D01*
X205342372Y-49401379D01*
X205847504Y-48184888D01*
X205848653Y-46867691D01*
X205345646Y-45650320D01*
X204415059Y-44718108D01*
X203198568Y-44212976D01*
X201881371Y-44211827D01*
X200664000Y-44714834D01*
X199731788Y-45645421D01*
X199226656Y-46861912D01*
X199226007Y-47606283D01*
X199016608Y-47280868D01*
X199143160Y-47091469D01*
X199282080Y-46393072D01*
X199282080Y-45913728D01*
X199143160Y-45215331D01*
X198747550Y-44623258D01*
X198155477Y-44227648D01*
X197457080Y-44088728D01*
X196758683Y-44227648D01*
X196187080Y-44609580D01*
X195615477Y-44227648D01*
X194917080Y-44088728D01*
X194218683Y-44227648D01*
X193647080Y-44609580D01*
X193075477Y-44227648D01*
X192377080Y-44088728D01*
X191678683Y-44227648D01*
X191107080Y-44609580D01*
X190535477Y-44227648D01*
X189837080Y-44088728D01*
X189138683Y-44227648D01*
X188567080Y-44609580D01*
X187995477Y-44227648D01*
X187297080Y-44088728D01*
X186598683Y-44227648D01*
X186027080Y-44609580D01*
X185455477Y-44227648D01*
X184757080Y-44088728D01*
X184058683Y-44227648D01*
X183487080Y-44609580D01*
X182915477Y-44227648D01*
X182217080Y-44088728D01*
X181518683Y-44227648D01*
X180947080Y-44609580D01*
X180375477Y-44227648D01*
X179677080Y-44088728D01*
X178978683Y-44227648D01*
X178407080Y-44609580D01*
X177835477Y-44227648D01*
X177137080Y-44088728D01*
X176438683Y-44227648D01*
X175867080Y-44609580D01*
X175295477Y-44227648D01*
X174597080Y-44088728D01*
X173898683Y-44227648D01*
X173327080Y-44609580D01*
X172755477Y-44227648D01*
X172057080Y-44088728D01*
X171358683Y-44227648D01*
X170787080Y-44609580D01*
X170215477Y-44227648D01*
X169517080Y-44088728D01*
X168818683Y-44227648D01*
X168247080Y-44609580D01*
X167675477Y-44227648D01*
X166977080Y-44088728D01*
X166278683Y-44227648D01*
X165707080Y-44609580D01*
X165135477Y-44227648D01*
X164437080Y-44088728D01*
X163738683Y-44227648D01*
X163167080Y-44609580D01*
X162595477Y-44227648D01*
X161897080Y-44088728D01*
X161198683Y-44227648D01*
X160627080Y-44609580D01*
X160055477Y-44227648D01*
X159357080Y-44088728D01*
X158658683Y-44227648D01*
X158087080Y-44609580D01*
X157515477Y-44227648D01*
X156817080Y-44088728D01*
X156118683Y-44227648D01*
X155547080Y-44609580D01*
X154975477Y-44227648D01*
X154277080Y-44088728D01*
X153578683Y-44227648D01*
X153007080Y-44609580D01*
X152435477Y-44227648D01*
X151737080Y-44088728D01*
X151038683Y-44227648D01*
X150467080Y-44609580D01*
X149895477Y-44227648D01*
X149197080Y-44088728D01*
X148498683Y-44227648D01*
X147927080Y-44609580D01*
X147355477Y-44227648D01*
X146657080Y-44088728D01*
X145958683Y-44227648D01*
X145387080Y-44609580D01*
X144815477Y-44227648D01*
X144117080Y-44088728D01*
X143418683Y-44227648D01*
X142847080Y-44609580D01*
X142275477Y-44227648D01*
X141577080Y-44088728D01*
X140878683Y-44227648D01*
X140286610Y-44623258D01*
X139891000Y-45215331D01*
X139752080Y-45913728D01*
X65741561Y-45913728D01*
X66256861Y-45398428D01*
X66042141Y-45270260D01*
X65402109Y-45179283D01*
X64944739Y-45270260D01*
X64730019Y-45398428D01*
X58026480Y-45398428D01*
X58026480Y-39230280D01*
X215826480Y-39230280D01*
X215826480Y-137030280D01*
M02*
