G04 #@! TF.FileFunction,Copper,L2,Bot,Signal*
%FSLAX46Y46*%
G04 Gerber Fmt 4.6, Leading zero omitted, Abs format (unit mm)*
G04 Created by KiCad (PCBNEW 4.0.7-e2-6376~58~ubuntu16.04.1) date Tue Jun 19 11:31:53 2018*
%MOMM*%
%LPD*%
G01*
G04 APERTURE LIST*
%ADD10C,0.100000*%
%ADD11R,1.600000X1.600000*%
%ADD12O,1.600000X2.000000*%
%ADD13O,1.250000X0.950000*%
%ADD14O,1.000000X1.550000*%
%ADD15R,1.980000X3.960000*%
%ADD16O,1.980000X3.960000*%
%ADD17C,1.500000*%
%ADD18C,3.000000*%
%ADD19R,1.400000X1.400000*%
%ADD20C,1.400000*%
%ADD21R,0.800000X0.900000*%
%ADD22C,4.572000*%
%ADD23C,1.160000*%
%ADD24O,3.200000X1.800000*%
%ADD25C,7.000000*%
%ADD26R,0.700000X1.300000*%
%ADD27C,1.590000*%
%ADD28C,2.200000*%
%ADD29C,0.050000*%
G04 APERTURE END LIST*
D10*
D11*
X197457080Y-97053400D03*
D12*
X197457080Y-94413400D03*
X194917080Y-97153400D03*
X194917080Y-94413400D03*
X192377080Y-97153400D03*
X192377080Y-94413400D03*
X189837080Y-97153400D03*
X189837080Y-94413400D03*
X187297080Y-97153400D03*
X187297080Y-94413400D03*
X184757080Y-97153400D03*
X184757080Y-94413400D03*
X182217080Y-97153400D03*
X182217080Y-94413400D03*
X179677080Y-97153400D03*
X179677080Y-94413400D03*
X177137080Y-97153400D03*
X177137080Y-94413400D03*
X174597080Y-97153400D03*
X174597080Y-94413400D03*
X172057080Y-97153400D03*
X172057080Y-94413400D03*
X169517080Y-97153400D03*
X169517080Y-94413400D03*
X166977080Y-97153400D03*
X166977080Y-94413400D03*
X164437080Y-97153400D03*
X164437080Y-94413400D03*
X161897080Y-97153400D03*
X161897080Y-94413400D03*
X159357080Y-97153400D03*
X159357080Y-94413400D03*
X156817080Y-97153400D03*
X156817080Y-94413400D03*
X154277080Y-97153400D03*
X154277080Y-94413400D03*
X151737080Y-97153400D03*
X151737080Y-94413400D03*
X149197080Y-97153400D03*
X149197080Y-94413400D03*
X146657080Y-97153400D03*
X146657080Y-94413400D03*
X144117080Y-97153400D03*
X144117080Y-94413400D03*
X141577080Y-97153400D03*
X141577080Y-94413400D03*
D11*
X197457080Y-48793400D03*
D12*
X197457080Y-46153400D03*
X194917080Y-48893400D03*
X194917080Y-46153400D03*
X192377080Y-48893400D03*
X192377080Y-46153400D03*
X189837080Y-48893400D03*
X189837080Y-46153400D03*
X187297080Y-48893400D03*
X187297080Y-46153400D03*
X184757080Y-48893400D03*
X184757080Y-46153400D03*
X182217080Y-48893400D03*
X182217080Y-46153400D03*
X179677080Y-48893400D03*
X179677080Y-46153400D03*
X177137080Y-48893400D03*
X177137080Y-46153400D03*
X174597080Y-48893400D03*
X174597080Y-46153400D03*
X172057080Y-48893400D03*
X172057080Y-46153400D03*
X169517080Y-48893400D03*
X169517080Y-46153400D03*
X166977080Y-48893400D03*
X166977080Y-46153400D03*
X164437080Y-48893400D03*
X164437080Y-46153400D03*
X161897080Y-48893400D03*
X161897080Y-46153400D03*
X159357080Y-48893400D03*
X159357080Y-46153400D03*
X156817080Y-48893400D03*
X156817080Y-46153400D03*
X154277080Y-48893400D03*
X154277080Y-46153400D03*
X151737080Y-48893400D03*
X151737080Y-46153400D03*
X149197080Y-48893400D03*
X149197080Y-46153400D03*
X146657080Y-48893400D03*
X146657080Y-46153400D03*
X144117080Y-48893400D03*
X144117080Y-46153400D03*
X141577080Y-48893400D03*
X141577080Y-46153400D03*
D13*
X72252200Y-68881000D03*
X77252200Y-68881000D03*
D14*
X71252200Y-71581000D03*
X78252200Y-71581000D03*
D15*
X117525800Y-51384200D03*
D16*
X122525800Y-51384200D03*
D17*
X68163440Y-57503600D03*
X68163440Y-54963600D03*
X68163440Y-52933600D03*
X68163440Y-50393600D03*
D18*
X65493440Y-60553600D03*
X65493440Y-46833600D03*
D19*
X172969000Y-112826000D03*
D20*
X165349000Y-112826000D03*
X172969000Y-125516000D03*
X172969000Y-130606000D03*
X172969000Y-120446000D03*
X165339000Y-125536000D03*
X165339000Y-130616000D03*
X165349000Y-120446000D03*
D19*
X132969000Y-112826000D03*
D20*
X125349000Y-112826000D03*
X132969000Y-125516000D03*
X132969000Y-130606000D03*
X132969000Y-120446000D03*
X125339000Y-125536000D03*
X125339000Y-130616000D03*
X125349000Y-120446000D03*
D19*
X152969000Y-112826000D03*
D20*
X145349000Y-112826000D03*
X152969000Y-125516000D03*
X152969000Y-130606000D03*
X152969000Y-120446000D03*
X145339000Y-125536000D03*
X145339000Y-130616000D03*
X145349000Y-120446000D03*
D19*
X192969000Y-112826000D03*
D20*
X185349000Y-112826000D03*
X192969000Y-125516000D03*
X192969000Y-130606000D03*
X192969000Y-120446000D03*
X185339000Y-125536000D03*
X185339000Y-130616000D03*
X185349000Y-120446000D03*
D21*
X126919000Y-107826000D03*
X125019000Y-107826000D03*
X125969000Y-105826000D03*
X146919000Y-107826000D03*
X145019000Y-107826000D03*
X145969000Y-105826000D03*
X166919000Y-107826000D03*
X165019000Y-107826000D03*
X165969000Y-105826000D03*
X186919000Y-107826000D03*
X185019000Y-107826000D03*
X185969000Y-105826000D03*
D22*
X136497080Y-92608400D03*
X202537080Y-95783400D03*
X202537080Y-47523400D03*
X136497080Y-50698400D03*
D23*
X209786480Y-85490000D03*
X209786480Y-87530000D03*
X212336480Y-86510000D03*
X212336480Y-84470000D03*
D24*
X212136480Y-80620000D03*
X212136480Y-91380000D03*
D23*
X209786480Y-98990000D03*
X209786480Y-101030000D03*
X212336480Y-100010000D03*
X212336480Y-97970000D03*
D24*
X212136480Y-94120000D03*
X212136480Y-104880000D03*
D23*
X209786480Y-112490000D03*
X209786480Y-114530000D03*
X212336480Y-113510000D03*
X212336480Y-111470000D03*
D24*
X212136480Y-107620000D03*
X212136480Y-118380000D03*
D23*
X209786480Y-125990000D03*
X209786480Y-128030000D03*
X212336480Y-127010000D03*
X212336480Y-124970000D03*
D24*
X212136480Y-121120000D03*
X212136480Y-131880000D03*
D25*
X89446240Y-114585200D03*
X89446240Y-75485200D03*
D26*
X132918240Y-106826000D03*
X131018240Y-106826000D03*
X155950960Y-107421680D03*
X154050960Y-107421680D03*
X173919000Y-106826000D03*
X172019000Y-106826000D03*
X193919000Y-106826000D03*
X192019000Y-106826000D03*
D27*
X202036480Y-57779240D03*
X204576480Y-56509240D03*
X202036480Y-55239240D03*
X204576480Y-53969240D03*
X202036480Y-52699240D03*
X204576480Y-51429240D03*
D28*
X212954880Y-72169040D03*
X207954880Y-72169040D03*
X207954880Y-67169040D03*
X212954880Y-67169040D03*
X210454880Y-69669040D03*
D29*
G36*
X215826480Y-137030280D02*
X58026480Y-137030280D01*
X58026480Y-130957618D01*
X123613701Y-130957618D01*
X123875763Y-131591858D01*
X124360590Y-132077531D01*
X124994371Y-132340700D01*
X125680618Y-132341299D01*
X126314858Y-132079237D01*
X126800531Y-131594410D01*
X127063700Y-130960629D01*
X127063711Y-130947618D01*
X131243701Y-130947618D01*
X131505763Y-131581858D01*
X131990590Y-132067531D01*
X132624371Y-132330700D01*
X133310618Y-132331299D01*
X133944858Y-132069237D01*
X134430531Y-131584410D01*
X134690797Y-130957618D01*
X143613701Y-130957618D01*
X143875763Y-131591858D01*
X144360590Y-132077531D01*
X144994371Y-132340700D01*
X145680618Y-132341299D01*
X146314858Y-132079237D01*
X146800531Y-131594410D01*
X147063700Y-130960629D01*
X147063711Y-130947618D01*
X151243701Y-130947618D01*
X151505763Y-131581858D01*
X151990590Y-132067531D01*
X152624371Y-132330700D01*
X153310618Y-132331299D01*
X153944858Y-132069237D01*
X154430531Y-131584410D01*
X154690797Y-130957618D01*
X163613701Y-130957618D01*
X163875763Y-131591858D01*
X164360590Y-132077531D01*
X164994371Y-132340700D01*
X165680618Y-132341299D01*
X166314858Y-132079237D01*
X166800531Y-131594410D01*
X167063700Y-130960629D01*
X167063711Y-130947618D01*
X171243701Y-130947618D01*
X171505763Y-131581858D01*
X171990590Y-132067531D01*
X172624371Y-132330700D01*
X173310618Y-132331299D01*
X173944858Y-132069237D01*
X174430531Y-131584410D01*
X174690797Y-130957618D01*
X183613701Y-130957618D01*
X183875763Y-131591858D01*
X184360590Y-132077531D01*
X184994371Y-132340700D01*
X185680618Y-132341299D01*
X186314858Y-132079237D01*
X186800531Y-131594410D01*
X187063700Y-130960629D01*
X187063711Y-130947618D01*
X191243701Y-130947618D01*
X191505763Y-131581858D01*
X191990590Y-132067531D01*
X192624371Y-132330700D01*
X193310618Y-132331299D01*
X193944858Y-132069237D01*
X194134425Y-131880000D01*
X209460053Y-131880000D01*
X209606585Y-132616666D01*
X210023872Y-133241181D01*
X210648387Y-133658468D01*
X211385053Y-133805000D01*
X212887907Y-133805000D01*
X213624573Y-133658468D01*
X214249088Y-133241181D01*
X214666375Y-132616666D01*
X214812907Y-131880000D01*
X214666375Y-131143334D01*
X214249088Y-130518819D01*
X213624573Y-130101532D01*
X212887907Y-129955000D01*
X211385053Y-129955000D01*
X210648387Y-130101532D01*
X210023872Y-130518819D01*
X209606585Y-131143334D01*
X209460053Y-131880000D01*
X194134425Y-131880000D01*
X194430531Y-131584410D01*
X194693700Y-130950629D01*
X194694299Y-130264382D01*
X194432237Y-129630142D01*
X193947410Y-129144469D01*
X193313629Y-128881300D01*
X192627382Y-128880701D01*
X191993142Y-129142763D01*
X191507469Y-129627590D01*
X191244300Y-130261371D01*
X191243701Y-130947618D01*
X187063711Y-130947618D01*
X187064299Y-130274382D01*
X186802237Y-129640142D01*
X186317410Y-129154469D01*
X185683629Y-128891300D01*
X184997382Y-128890701D01*
X184363142Y-129152763D01*
X183877469Y-129637590D01*
X183614300Y-130271371D01*
X183613701Y-130957618D01*
X174690797Y-130957618D01*
X174693700Y-130950629D01*
X174694299Y-130264382D01*
X174432237Y-129630142D01*
X173947410Y-129144469D01*
X173313629Y-128881300D01*
X172627382Y-128880701D01*
X171993142Y-129142763D01*
X171507469Y-129627590D01*
X171244300Y-130261371D01*
X171243701Y-130947618D01*
X167063711Y-130947618D01*
X167064299Y-130274382D01*
X166802237Y-129640142D01*
X166317410Y-129154469D01*
X165683629Y-128891300D01*
X164997382Y-128890701D01*
X164363142Y-129152763D01*
X163877469Y-129637590D01*
X163614300Y-130271371D01*
X163613701Y-130957618D01*
X154690797Y-130957618D01*
X154693700Y-130950629D01*
X154694299Y-130264382D01*
X154432237Y-129630142D01*
X153947410Y-129144469D01*
X153313629Y-128881300D01*
X152627382Y-128880701D01*
X151993142Y-129142763D01*
X151507469Y-129627590D01*
X151244300Y-130261371D01*
X151243701Y-130947618D01*
X147063711Y-130947618D01*
X147064299Y-130274382D01*
X146802237Y-129640142D01*
X146317410Y-129154469D01*
X145683629Y-128891300D01*
X144997382Y-128890701D01*
X144363142Y-129152763D01*
X143877469Y-129637590D01*
X143614300Y-130271371D01*
X143613701Y-130957618D01*
X134690797Y-130957618D01*
X134693700Y-130950629D01*
X134694299Y-130264382D01*
X134432237Y-129630142D01*
X133947410Y-129144469D01*
X133313629Y-128881300D01*
X132627382Y-128880701D01*
X131993142Y-129142763D01*
X131507469Y-129627590D01*
X131244300Y-130261371D01*
X131243701Y-130947618D01*
X127063711Y-130947618D01*
X127064299Y-130274382D01*
X126802237Y-129640142D01*
X126317410Y-129154469D01*
X125683629Y-128891300D01*
X124997382Y-128890701D01*
X124363142Y-129152763D01*
X123877469Y-129637590D01*
X123614300Y-130271371D01*
X123613701Y-130957618D01*
X58026480Y-130957618D01*
X58026480Y-125877618D01*
X123613701Y-125877618D01*
X123875763Y-126511858D01*
X124360590Y-126997531D01*
X124994371Y-127260700D01*
X125680618Y-127261299D01*
X126314858Y-126999237D01*
X126800531Y-126514410D01*
X127063700Y-125880629D01*
X127063720Y-125857618D01*
X131243701Y-125857618D01*
X131505763Y-126491858D01*
X131990590Y-126977531D01*
X132624371Y-127240700D01*
X133310618Y-127241299D01*
X133944858Y-126979237D01*
X134430531Y-126494410D01*
X134686645Y-125877618D01*
X143613701Y-125877618D01*
X143875763Y-126511858D01*
X144360590Y-126997531D01*
X144994371Y-127260700D01*
X145680618Y-127261299D01*
X146314858Y-126999237D01*
X146800531Y-126514410D01*
X147063700Y-125880629D01*
X147063720Y-125857618D01*
X151243701Y-125857618D01*
X151505763Y-126491858D01*
X151990590Y-126977531D01*
X152624371Y-127240700D01*
X153310618Y-127241299D01*
X153944858Y-126979237D01*
X154430531Y-126494410D01*
X154686645Y-125877618D01*
X163613701Y-125877618D01*
X163875763Y-126511858D01*
X164360590Y-126997531D01*
X164994371Y-127260700D01*
X165680618Y-127261299D01*
X166314858Y-126999237D01*
X166800531Y-126514410D01*
X167063700Y-125880629D01*
X167063720Y-125857618D01*
X171243701Y-125857618D01*
X171505763Y-126491858D01*
X171990590Y-126977531D01*
X172624371Y-127240700D01*
X173310618Y-127241299D01*
X173944858Y-126979237D01*
X174430531Y-126494410D01*
X174686645Y-125877618D01*
X183613701Y-125877618D01*
X183875763Y-126511858D01*
X184360590Y-126997531D01*
X184994371Y-127260700D01*
X185680618Y-127261299D01*
X186314858Y-126999237D01*
X186800531Y-126514410D01*
X187063700Y-125880629D01*
X187063720Y-125857618D01*
X191243701Y-125857618D01*
X191505763Y-126491858D01*
X191990590Y-126977531D01*
X192624371Y-127240700D01*
X193310618Y-127241299D01*
X193944858Y-126979237D01*
X194430531Y-126494410D01*
X194507995Y-126307854D01*
X208181202Y-126307854D01*
X208425034Y-126897972D01*
X208536666Y-127009799D01*
X208426620Y-127119653D01*
X208181759Y-127709345D01*
X208181202Y-128347854D01*
X208425034Y-128937972D01*
X208876133Y-129389860D01*
X209465825Y-129634721D01*
X210104334Y-129635278D01*
X210694452Y-129391446D01*
X211146340Y-128940347D01*
X211391201Y-128350655D01*
X211391215Y-128334881D01*
X211426133Y-128369860D01*
X212015825Y-128614721D01*
X212654334Y-128615278D01*
X213244452Y-128371446D01*
X213696340Y-127920347D01*
X213941201Y-127330655D01*
X213941758Y-126692146D01*
X213697926Y-126102028D01*
X213586294Y-125990201D01*
X213696340Y-125880347D01*
X213941201Y-125290655D01*
X213941758Y-124652146D01*
X213697926Y-124062028D01*
X213246827Y-123610140D01*
X212657135Y-123365279D01*
X212018626Y-123364722D01*
X211428508Y-123608554D01*
X210976620Y-124059653D01*
X210731759Y-124649345D01*
X210731745Y-124665119D01*
X210696827Y-124630140D01*
X210107135Y-124385279D01*
X209468626Y-124384722D01*
X208878508Y-124628554D01*
X208426620Y-125079653D01*
X208181759Y-125669345D01*
X208181202Y-126307854D01*
X194507995Y-126307854D01*
X194693700Y-125860629D01*
X194694299Y-125174382D01*
X194432237Y-124540142D01*
X193947410Y-124054469D01*
X193313629Y-123791300D01*
X192627382Y-123790701D01*
X191993142Y-124052763D01*
X191507469Y-124537590D01*
X191244300Y-125171371D01*
X191243701Y-125857618D01*
X187063720Y-125857618D01*
X187064299Y-125194382D01*
X186802237Y-124560142D01*
X186317410Y-124074469D01*
X185683629Y-123811300D01*
X184997382Y-123810701D01*
X184363142Y-124072763D01*
X183877469Y-124557590D01*
X183614300Y-125191371D01*
X183613701Y-125877618D01*
X174686645Y-125877618D01*
X174693700Y-125860629D01*
X174694299Y-125174382D01*
X174432237Y-124540142D01*
X173947410Y-124054469D01*
X173313629Y-123791300D01*
X172627382Y-123790701D01*
X171993142Y-124052763D01*
X171507469Y-124537590D01*
X171244300Y-125171371D01*
X171243701Y-125857618D01*
X167063720Y-125857618D01*
X167064299Y-125194382D01*
X166802237Y-124560142D01*
X166317410Y-124074469D01*
X165683629Y-123811300D01*
X164997382Y-123810701D01*
X164363142Y-124072763D01*
X163877469Y-124557590D01*
X163614300Y-125191371D01*
X163613701Y-125877618D01*
X154686645Y-125877618D01*
X154693700Y-125860629D01*
X154694299Y-125174382D01*
X154432237Y-124540142D01*
X153947410Y-124054469D01*
X153313629Y-123791300D01*
X152627382Y-123790701D01*
X151993142Y-124052763D01*
X151507469Y-124537590D01*
X151244300Y-125171371D01*
X151243701Y-125857618D01*
X147063720Y-125857618D01*
X147064299Y-125194382D01*
X146802237Y-124560142D01*
X146317410Y-124074469D01*
X145683629Y-123811300D01*
X144997382Y-123810701D01*
X144363142Y-124072763D01*
X143877469Y-124557590D01*
X143614300Y-125191371D01*
X143613701Y-125877618D01*
X134686645Y-125877618D01*
X134693700Y-125860629D01*
X134694299Y-125174382D01*
X134432237Y-124540142D01*
X133947410Y-124054469D01*
X133313629Y-123791300D01*
X132627382Y-123790701D01*
X131993142Y-124052763D01*
X131507469Y-124537590D01*
X131244300Y-125171371D01*
X131243701Y-125857618D01*
X127063720Y-125857618D01*
X127064299Y-125194382D01*
X126802237Y-124560142D01*
X126317410Y-124074469D01*
X125683629Y-123811300D01*
X124997382Y-123810701D01*
X124363142Y-124072763D01*
X123877469Y-124557590D01*
X123614300Y-125191371D01*
X123613701Y-125877618D01*
X58026480Y-125877618D01*
X58026480Y-120787618D01*
X123623701Y-120787618D01*
X123885763Y-121421858D01*
X124370590Y-121907531D01*
X125004371Y-122170700D01*
X125690618Y-122171299D01*
X126324858Y-121909237D01*
X126810531Y-121424410D01*
X127073700Y-120790629D01*
X127073702Y-120787618D01*
X131243701Y-120787618D01*
X131505763Y-121421858D01*
X131990590Y-121907531D01*
X132624371Y-122170700D01*
X133310618Y-122171299D01*
X133944858Y-121909237D01*
X134430531Y-121424410D01*
X134693700Y-120790629D01*
X134693702Y-120787618D01*
X143623701Y-120787618D01*
X143885763Y-121421858D01*
X144370590Y-121907531D01*
X145004371Y-122170700D01*
X145690618Y-122171299D01*
X146324858Y-121909237D01*
X146810531Y-121424410D01*
X147073700Y-120790629D01*
X147073702Y-120787618D01*
X151243701Y-120787618D01*
X151505763Y-121421858D01*
X151990590Y-121907531D01*
X152624371Y-122170700D01*
X153310618Y-122171299D01*
X153944858Y-121909237D01*
X154430531Y-121424410D01*
X154693700Y-120790629D01*
X154693702Y-120787618D01*
X163623701Y-120787618D01*
X163885763Y-121421858D01*
X164370590Y-121907531D01*
X165004371Y-122170700D01*
X165690618Y-122171299D01*
X166324858Y-121909237D01*
X166810531Y-121424410D01*
X167073700Y-120790629D01*
X167073702Y-120787618D01*
X171243701Y-120787618D01*
X171505763Y-121421858D01*
X171990590Y-121907531D01*
X172624371Y-122170700D01*
X173310618Y-122171299D01*
X173944858Y-121909237D01*
X174430531Y-121424410D01*
X174693700Y-120790629D01*
X174693702Y-120787618D01*
X183623701Y-120787618D01*
X183885763Y-121421858D01*
X184370590Y-121907531D01*
X185004371Y-122170700D01*
X185690618Y-122171299D01*
X186324858Y-121909237D01*
X186810531Y-121424410D01*
X187073700Y-120790629D01*
X187073702Y-120787618D01*
X191243701Y-120787618D01*
X191505763Y-121421858D01*
X191990590Y-121907531D01*
X192624371Y-122170700D01*
X193310618Y-122171299D01*
X193944858Y-121909237D01*
X194430531Y-121424410D01*
X194693700Y-120790629D01*
X194694299Y-120104382D01*
X194432237Y-119470142D01*
X193947410Y-118984469D01*
X193313629Y-118721300D01*
X192627382Y-118720701D01*
X191993142Y-118982763D01*
X191507469Y-119467590D01*
X191244300Y-120101371D01*
X191243701Y-120787618D01*
X187073702Y-120787618D01*
X187074299Y-120104382D01*
X186812237Y-119470142D01*
X186327410Y-118984469D01*
X185693629Y-118721300D01*
X185007382Y-118720701D01*
X184373142Y-118982763D01*
X183887469Y-119467590D01*
X183624300Y-120101371D01*
X183623701Y-120787618D01*
X174693702Y-120787618D01*
X174694299Y-120104382D01*
X174432237Y-119470142D01*
X173947410Y-118984469D01*
X173313629Y-118721300D01*
X172627382Y-118720701D01*
X171993142Y-118982763D01*
X171507469Y-119467590D01*
X171244300Y-120101371D01*
X171243701Y-120787618D01*
X167073702Y-120787618D01*
X167074299Y-120104382D01*
X166812237Y-119470142D01*
X166327410Y-118984469D01*
X165693629Y-118721300D01*
X165007382Y-118720701D01*
X164373142Y-118982763D01*
X163887469Y-119467590D01*
X163624300Y-120101371D01*
X163623701Y-120787618D01*
X154693702Y-120787618D01*
X154694299Y-120104382D01*
X154432237Y-119470142D01*
X153947410Y-118984469D01*
X153313629Y-118721300D01*
X152627382Y-118720701D01*
X151993142Y-118982763D01*
X151507469Y-119467590D01*
X151244300Y-120101371D01*
X151243701Y-120787618D01*
X147073702Y-120787618D01*
X147074299Y-120104382D01*
X146812237Y-119470142D01*
X146327410Y-118984469D01*
X145693629Y-118721300D01*
X145007382Y-118720701D01*
X144373142Y-118982763D01*
X143887469Y-119467590D01*
X143624300Y-120101371D01*
X143623701Y-120787618D01*
X134693702Y-120787618D01*
X134694299Y-120104382D01*
X134432237Y-119470142D01*
X133947410Y-118984469D01*
X133313629Y-118721300D01*
X132627382Y-118720701D01*
X131993142Y-118982763D01*
X131507469Y-119467590D01*
X131244300Y-120101371D01*
X131243701Y-120787618D01*
X127073702Y-120787618D01*
X127074299Y-120104382D01*
X126812237Y-119470142D01*
X126327410Y-118984469D01*
X125693629Y-118721300D01*
X125007382Y-118720701D01*
X124373142Y-118982763D01*
X123887469Y-119467590D01*
X123624300Y-120101371D01*
X123623701Y-120787618D01*
X58026480Y-120787618D01*
X58026480Y-115481329D01*
X84920456Y-115481329D01*
X85607895Y-117145058D01*
X86879687Y-118419071D01*
X88542213Y-119109413D01*
X90342369Y-119110984D01*
X92006098Y-118423545D01*
X92049719Y-118380000D01*
X209460053Y-118380000D01*
X209606585Y-119116666D01*
X210023872Y-119741181D01*
X210037071Y-119750000D01*
X210023872Y-119758819D01*
X209606585Y-120383334D01*
X209460053Y-121120000D01*
X209606585Y-121856666D01*
X210023872Y-122481181D01*
X210648387Y-122898468D01*
X211385053Y-123045000D01*
X212887907Y-123045000D01*
X213624573Y-122898468D01*
X214249088Y-122481181D01*
X214666375Y-121856666D01*
X214812907Y-121120000D01*
X214666375Y-120383334D01*
X214249088Y-119758819D01*
X214235889Y-119750000D01*
X214249088Y-119741181D01*
X214666375Y-119116666D01*
X214812907Y-118380000D01*
X214666375Y-117643334D01*
X214249088Y-117018819D01*
X213624573Y-116601532D01*
X212887907Y-116455000D01*
X211385053Y-116455000D01*
X210648387Y-116601532D01*
X210023872Y-117018819D01*
X209606585Y-117643334D01*
X209460053Y-118380000D01*
X92049719Y-118380000D01*
X93280111Y-117151753D01*
X93970453Y-115489227D01*
X93972024Y-113689071D01*
X93756564Y-113167618D01*
X123623701Y-113167618D01*
X123885763Y-113801858D01*
X124370590Y-114287531D01*
X125004371Y-114550700D01*
X125690618Y-114551299D01*
X126324858Y-114289237D01*
X126810531Y-113804410D01*
X127073700Y-113170629D01*
X127074299Y-112484382D01*
X126926219Y-112126000D01*
X131223920Y-112126000D01*
X131223920Y-113526000D01*
X131295392Y-113905842D01*
X131519879Y-114254704D01*
X131862405Y-114488742D01*
X132269000Y-114571080D01*
X133669000Y-114571080D01*
X134048842Y-114499608D01*
X134397704Y-114275121D01*
X134631742Y-113932595D01*
X134714080Y-113526000D01*
X134714080Y-113167618D01*
X143623701Y-113167618D01*
X143885763Y-113801858D01*
X144370590Y-114287531D01*
X145004371Y-114550700D01*
X145690618Y-114551299D01*
X146324858Y-114289237D01*
X146810531Y-113804410D01*
X147073700Y-113170629D01*
X147074299Y-112484382D01*
X146926219Y-112126000D01*
X151223920Y-112126000D01*
X151223920Y-113526000D01*
X151295392Y-113905842D01*
X151519879Y-114254704D01*
X151862405Y-114488742D01*
X152269000Y-114571080D01*
X153669000Y-114571080D01*
X154048842Y-114499608D01*
X154397704Y-114275121D01*
X154631742Y-113932595D01*
X154714080Y-113526000D01*
X154714080Y-113167618D01*
X163623701Y-113167618D01*
X163885763Y-113801858D01*
X164370590Y-114287531D01*
X165004371Y-114550700D01*
X165690618Y-114551299D01*
X166324858Y-114289237D01*
X166810531Y-113804410D01*
X167073700Y-113170629D01*
X167074299Y-112484382D01*
X166926219Y-112126000D01*
X171223920Y-112126000D01*
X171223920Y-113526000D01*
X171295392Y-113905842D01*
X171519879Y-114254704D01*
X171862405Y-114488742D01*
X172269000Y-114571080D01*
X173669000Y-114571080D01*
X174048842Y-114499608D01*
X174397704Y-114275121D01*
X174631742Y-113932595D01*
X174714080Y-113526000D01*
X174714080Y-113167618D01*
X183623701Y-113167618D01*
X183885763Y-113801858D01*
X184370590Y-114287531D01*
X185004371Y-114550700D01*
X185690618Y-114551299D01*
X186324858Y-114289237D01*
X186810531Y-113804410D01*
X187073700Y-113170629D01*
X187074299Y-112484382D01*
X186926219Y-112126000D01*
X191223920Y-112126000D01*
X191223920Y-113526000D01*
X191295392Y-113905842D01*
X191519879Y-114254704D01*
X191862405Y-114488742D01*
X192269000Y-114571080D01*
X193669000Y-114571080D01*
X194048842Y-114499608D01*
X194397704Y-114275121D01*
X194631742Y-113932595D01*
X194714080Y-113526000D01*
X194714080Y-112807854D01*
X208181202Y-112807854D01*
X208425034Y-113397972D01*
X208536666Y-113509799D01*
X208426620Y-113619653D01*
X208181759Y-114209345D01*
X208181202Y-114847854D01*
X208425034Y-115437972D01*
X208876133Y-115889860D01*
X209465825Y-116134721D01*
X210104334Y-116135278D01*
X210694452Y-115891446D01*
X211146340Y-115440347D01*
X211391201Y-114850655D01*
X211391215Y-114834881D01*
X211426133Y-114869860D01*
X212015825Y-115114721D01*
X212654334Y-115115278D01*
X213244452Y-114871446D01*
X213696340Y-114420347D01*
X213941201Y-113830655D01*
X213941758Y-113192146D01*
X213697926Y-112602028D01*
X213586294Y-112490201D01*
X213696340Y-112380347D01*
X213941201Y-111790655D01*
X213941758Y-111152146D01*
X213697926Y-110562028D01*
X213246827Y-110110140D01*
X212657135Y-109865279D01*
X212018626Y-109864722D01*
X211428508Y-110108554D01*
X210976620Y-110559653D01*
X210731759Y-111149345D01*
X210731745Y-111165119D01*
X210696827Y-111130140D01*
X210107135Y-110885279D01*
X209468626Y-110884722D01*
X208878508Y-111128554D01*
X208426620Y-111579653D01*
X208181759Y-112169345D01*
X208181202Y-112807854D01*
X194714080Y-112807854D01*
X194714080Y-112126000D01*
X194642608Y-111746158D01*
X194418121Y-111397296D01*
X194075595Y-111163258D01*
X193669000Y-111080920D01*
X192269000Y-111080920D01*
X191889158Y-111152392D01*
X191540296Y-111376879D01*
X191306258Y-111719405D01*
X191223920Y-112126000D01*
X186926219Y-112126000D01*
X186812237Y-111850142D01*
X186327410Y-111364469D01*
X185693629Y-111101300D01*
X185007382Y-111100701D01*
X184373142Y-111362763D01*
X183887469Y-111847590D01*
X183624300Y-112481371D01*
X183623701Y-113167618D01*
X174714080Y-113167618D01*
X174714080Y-112126000D01*
X174642608Y-111746158D01*
X174418121Y-111397296D01*
X174075595Y-111163258D01*
X173669000Y-111080920D01*
X172269000Y-111080920D01*
X171889158Y-111152392D01*
X171540296Y-111376879D01*
X171306258Y-111719405D01*
X171223920Y-112126000D01*
X166926219Y-112126000D01*
X166812237Y-111850142D01*
X166327410Y-111364469D01*
X165693629Y-111101300D01*
X165007382Y-111100701D01*
X164373142Y-111362763D01*
X163887469Y-111847590D01*
X163624300Y-112481371D01*
X163623701Y-113167618D01*
X154714080Y-113167618D01*
X154714080Y-112126000D01*
X154642608Y-111746158D01*
X154418121Y-111397296D01*
X154075595Y-111163258D01*
X153669000Y-111080920D01*
X152269000Y-111080920D01*
X151889158Y-111152392D01*
X151540296Y-111376879D01*
X151306258Y-111719405D01*
X151223920Y-112126000D01*
X146926219Y-112126000D01*
X146812237Y-111850142D01*
X146327410Y-111364469D01*
X145693629Y-111101300D01*
X145007382Y-111100701D01*
X144373142Y-111362763D01*
X143887469Y-111847590D01*
X143624300Y-112481371D01*
X143623701Y-113167618D01*
X134714080Y-113167618D01*
X134714080Y-112126000D01*
X134642608Y-111746158D01*
X134418121Y-111397296D01*
X134075595Y-111163258D01*
X133669000Y-111080920D01*
X132269000Y-111080920D01*
X131889158Y-111152392D01*
X131540296Y-111376879D01*
X131306258Y-111719405D01*
X131223920Y-112126000D01*
X126926219Y-112126000D01*
X126812237Y-111850142D01*
X126327410Y-111364469D01*
X125693629Y-111101300D01*
X125007382Y-111100701D01*
X124373142Y-111362763D01*
X123887469Y-111847590D01*
X123624300Y-112481371D01*
X123623701Y-113167618D01*
X93756564Y-113167618D01*
X93284585Y-112025342D01*
X92012793Y-110751329D01*
X90350267Y-110060987D01*
X88550111Y-110059416D01*
X86886382Y-110746855D01*
X85612369Y-112018647D01*
X84922027Y-113681173D01*
X84920456Y-115481329D01*
X58026480Y-115481329D01*
X58026480Y-108082250D01*
X124494000Y-108082250D01*
X124494000Y-108300864D01*
X124513030Y-108346807D01*
X124548193Y-108381970D01*
X124594136Y-108401000D01*
X124787750Y-108401000D01*
X124819000Y-108369750D01*
X124819000Y-108051000D01*
X124525250Y-108051000D01*
X124494000Y-108082250D01*
X58026480Y-108082250D01*
X58026480Y-107351136D01*
X124494000Y-107351136D01*
X124494000Y-107569750D01*
X124525250Y-107601000D01*
X124819000Y-107601000D01*
X124819000Y-107282250D01*
X124787750Y-107251000D01*
X124594136Y-107251000D01*
X124548193Y-107270030D01*
X124513030Y-107305193D01*
X124494000Y-107351136D01*
X58026480Y-107351136D01*
X58026480Y-105376000D01*
X124523920Y-105376000D01*
X124523920Y-106276000D01*
X124595392Y-106655842D01*
X124819879Y-107004704D01*
X125162405Y-107238742D01*
X125245650Y-107255600D01*
X125219000Y-107282250D01*
X125219000Y-107601000D01*
X125419000Y-107601000D01*
X125419000Y-108051000D01*
X125219000Y-108051000D01*
X125219000Y-108369750D01*
X125250250Y-108401000D01*
X125443864Y-108401000D01*
X125489807Y-108381970D01*
X125493218Y-108378559D01*
X125545392Y-108655842D01*
X125769879Y-109004704D01*
X126112405Y-109238742D01*
X126519000Y-109321080D01*
X127319000Y-109321080D01*
X127698842Y-109249608D01*
X128047704Y-109025121D01*
X128281742Y-108682595D01*
X128364080Y-108276000D01*
X128364080Y-107376000D01*
X128292608Y-106996158D01*
X128068121Y-106647296D01*
X127725595Y-106413258D01*
X127399651Y-106347252D01*
X127414080Y-106276000D01*
X127414080Y-106176000D01*
X129623160Y-106176000D01*
X129623160Y-107476000D01*
X129694632Y-107855842D01*
X129919119Y-108204704D01*
X130261645Y-108438742D01*
X130668240Y-108521080D01*
X131368240Y-108521080D01*
X131748082Y-108449608D01*
X131969254Y-108307287D01*
X132161645Y-108438742D01*
X132568240Y-108521080D01*
X133268240Y-108521080D01*
X133648082Y-108449608D01*
X133996944Y-108225121D01*
X134094563Y-108082250D01*
X144494000Y-108082250D01*
X144494000Y-108300864D01*
X144513030Y-108346807D01*
X144548193Y-108381970D01*
X144594136Y-108401000D01*
X144787750Y-108401000D01*
X144819000Y-108369750D01*
X144819000Y-108051000D01*
X144525250Y-108051000D01*
X144494000Y-108082250D01*
X134094563Y-108082250D01*
X134230982Y-107882595D01*
X134313320Y-107476000D01*
X134313320Y-107351136D01*
X144494000Y-107351136D01*
X144494000Y-107569750D01*
X144525250Y-107601000D01*
X144819000Y-107601000D01*
X144819000Y-107282250D01*
X144787750Y-107251000D01*
X144594136Y-107251000D01*
X144548193Y-107270030D01*
X144513030Y-107305193D01*
X144494000Y-107351136D01*
X134313320Y-107351136D01*
X134313320Y-106176000D01*
X134241848Y-105796158D01*
X134017361Y-105447296D01*
X133913016Y-105376000D01*
X144523920Y-105376000D01*
X144523920Y-106276000D01*
X144595392Y-106655842D01*
X144819879Y-107004704D01*
X145162405Y-107238742D01*
X145245650Y-107255600D01*
X145219000Y-107282250D01*
X145219000Y-107601000D01*
X145419000Y-107601000D01*
X145419000Y-108051000D01*
X145219000Y-108051000D01*
X145219000Y-108369750D01*
X145250250Y-108401000D01*
X145443864Y-108401000D01*
X145489807Y-108381970D01*
X145493218Y-108378559D01*
X145545392Y-108655842D01*
X145769879Y-109004704D01*
X146112405Y-109238742D01*
X146519000Y-109321080D01*
X147319000Y-109321080D01*
X147698842Y-109249608D01*
X148047704Y-109025121D01*
X148281742Y-108682595D01*
X148364080Y-108276000D01*
X148364080Y-107376000D01*
X148292608Y-106996158D01*
X148148161Y-106771680D01*
X152655880Y-106771680D01*
X152655880Y-108071680D01*
X152727352Y-108451522D01*
X152951839Y-108800384D01*
X153294365Y-109034422D01*
X153700960Y-109116760D01*
X154400960Y-109116760D01*
X154780802Y-109045288D01*
X155001974Y-108902967D01*
X155194365Y-109034422D01*
X155600960Y-109116760D01*
X156300960Y-109116760D01*
X156680802Y-109045288D01*
X157029664Y-108820801D01*
X157263702Y-108478275D01*
X157343899Y-108082250D01*
X164494000Y-108082250D01*
X164494000Y-108300864D01*
X164513030Y-108346807D01*
X164548193Y-108381970D01*
X164594136Y-108401000D01*
X164787750Y-108401000D01*
X164819000Y-108369750D01*
X164819000Y-108051000D01*
X164525250Y-108051000D01*
X164494000Y-108082250D01*
X157343899Y-108082250D01*
X157346040Y-108071680D01*
X157346040Y-107351136D01*
X164494000Y-107351136D01*
X164494000Y-107569750D01*
X164525250Y-107601000D01*
X164819000Y-107601000D01*
X164819000Y-107282250D01*
X164787750Y-107251000D01*
X164594136Y-107251000D01*
X164548193Y-107270030D01*
X164513030Y-107305193D01*
X164494000Y-107351136D01*
X157346040Y-107351136D01*
X157346040Y-106771680D01*
X157274568Y-106391838D01*
X157050081Y-106042976D01*
X156707555Y-105808938D01*
X156300960Y-105726600D01*
X155600960Y-105726600D01*
X155221118Y-105798072D01*
X154999946Y-105940393D01*
X154807555Y-105808938D01*
X154400960Y-105726600D01*
X153700960Y-105726600D01*
X153321118Y-105798072D01*
X152972256Y-106022559D01*
X152738218Y-106365085D01*
X152655880Y-106771680D01*
X148148161Y-106771680D01*
X148068121Y-106647296D01*
X147725595Y-106413258D01*
X147399651Y-106347252D01*
X147414080Y-106276000D01*
X147414080Y-105376000D01*
X164523920Y-105376000D01*
X164523920Y-106276000D01*
X164595392Y-106655842D01*
X164819879Y-107004704D01*
X165162405Y-107238742D01*
X165245650Y-107255600D01*
X165219000Y-107282250D01*
X165219000Y-107601000D01*
X165419000Y-107601000D01*
X165419000Y-108051000D01*
X165219000Y-108051000D01*
X165219000Y-108369750D01*
X165250250Y-108401000D01*
X165443864Y-108401000D01*
X165489807Y-108381970D01*
X165493218Y-108378559D01*
X165545392Y-108655842D01*
X165769879Y-109004704D01*
X166112405Y-109238742D01*
X166519000Y-109321080D01*
X167319000Y-109321080D01*
X167698842Y-109249608D01*
X168047704Y-109025121D01*
X168281742Y-108682595D01*
X168364080Y-108276000D01*
X168364080Y-107376000D01*
X168292608Y-106996158D01*
X168068121Y-106647296D01*
X167725595Y-106413258D01*
X167399651Y-106347252D01*
X167414080Y-106276000D01*
X167414080Y-106176000D01*
X170623920Y-106176000D01*
X170623920Y-107476000D01*
X170695392Y-107855842D01*
X170919879Y-108204704D01*
X171262405Y-108438742D01*
X171669000Y-108521080D01*
X172369000Y-108521080D01*
X172748842Y-108449608D01*
X172970014Y-108307287D01*
X173162405Y-108438742D01*
X173569000Y-108521080D01*
X174269000Y-108521080D01*
X174648842Y-108449608D01*
X174997704Y-108225121D01*
X175095323Y-108082250D01*
X184494000Y-108082250D01*
X184494000Y-108300864D01*
X184513030Y-108346807D01*
X184548193Y-108381970D01*
X184594136Y-108401000D01*
X184787750Y-108401000D01*
X184819000Y-108369750D01*
X184819000Y-108051000D01*
X184525250Y-108051000D01*
X184494000Y-108082250D01*
X175095323Y-108082250D01*
X175231742Y-107882595D01*
X175314080Y-107476000D01*
X175314080Y-107351136D01*
X184494000Y-107351136D01*
X184494000Y-107569750D01*
X184525250Y-107601000D01*
X184819000Y-107601000D01*
X184819000Y-107282250D01*
X184787750Y-107251000D01*
X184594136Y-107251000D01*
X184548193Y-107270030D01*
X184513030Y-107305193D01*
X184494000Y-107351136D01*
X175314080Y-107351136D01*
X175314080Y-106176000D01*
X175242608Y-105796158D01*
X175018121Y-105447296D01*
X174913776Y-105376000D01*
X184523920Y-105376000D01*
X184523920Y-106276000D01*
X184595392Y-106655842D01*
X184819879Y-107004704D01*
X185162405Y-107238742D01*
X185245650Y-107255600D01*
X185219000Y-107282250D01*
X185219000Y-107601000D01*
X185419000Y-107601000D01*
X185419000Y-108051000D01*
X185219000Y-108051000D01*
X185219000Y-108369750D01*
X185250250Y-108401000D01*
X185443864Y-108401000D01*
X185489807Y-108381970D01*
X185493218Y-108378559D01*
X185545392Y-108655842D01*
X185769879Y-109004704D01*
X186112405Y-109238742D01*
X186519000Y-109321080D01*
X187319000Y-109321080D01*
X187698842Y-109249608D01*
X188047704Y-109025121D01*
X188281742Y-108682595D01*
X188364080Y-108276000D01*
X188364080Y-107376000D01*
X188292608Y-106996158D01*
X188068121Y-106647296D01*
X187725595Y-106413258D01*
X187399651Y-106347252D01*
X187414080Y-106276000D01*
X187414080Y-106176000D01*
X190623920Y-106176000D01*
X190623920Y-107476000D01*
X190695392Y-107855842D01*
X190919879Y-108204704D01*
X191262405Y-108438742D01*
X191669000Y-108521080D01*
X192369000Y-108521080D01*
X192748842Y-108449608D01*
X192970014Y-108307287D01*
X193162405Y-108438742D01*
X193569000Y-108521080D01*
X194269000Y-108521080D01*
X194648842Y-108449608D01*
X194997704Y-108225121D01*
X195231742Y-107882595D01*
X195314080Y-107476000D01*
X195314080Y-106176000D01*
X195242608Y-105796158D01*
X195018121Y-105447296D01*
X194675595Y-105213258D01*
X194269000Y-105130920D01*
X193569000Y-105130920D01*
X193189158Y-105202392D01*
X192967986Y-105344713D01*
X192775595Y-105213258D01*
X192369000Y-105130920D01*
X191669000Y-105130920D01*
X191289158Y-105202392D01*
X190940296Y-105426879D01*
X190706258Y-105769405D01*
X190623920Y-106176000D01*
X187414080Y-106176000D01*
X187414080Y-105376000D01*
X187342608Y-104996158D01*
X187267863Y-104880000D01*
X209460053Y-104880000D01*
X209606585Y-105616666D01*
X210023872Y-106241181D01*
X210037071Y-106250000D01*
X210023872Y-106258819D01*
X209606585Y-106883334D01*
X209460053Y-107620000D01*
X209606585Y-108356666D01*
X210023872Y-108981181D01*
X210648387Y-109398468D01*
X211385053Y-109545000D01*
X212887907Y-109545000D01*
X213624573Y-109398468D01*
X214249088Y-108981181D01*
X214666375Y-108356666D01*
X214812907Y-107620000D01*
X214666375Y-106883334D01*
X214249088Y-106258819D01*
X214235889Y-106250000D01*
X214249088Y-106241181D01*
X214666375Y-105616666D01*
X214812907Y-104880000D01*
X214666375Y-104143334D01*
X214249088Y-103518819D01*
X213624573Y-103101532D01*
X212887907Y-102955000D01*
X211385053Y-102955000D01*
X210648387Y-103101532D01*
X210023872Y-103518819D01*
X209606585Y-104143334D01*
X209460053Y-104880000D01*
X187267863Y-104880000D01*
X187118121Y-104647296D01*
X186775595Y-104413258D01*
X186369000Y-104330920D01*
X185569000Y-104330920D01*
X185189158Y-104402392D01*
X184840296Y-104626879D01*
X184606258Y-104969405D01*
X184523920Y-105376000D01*
X174913776Y-105376000D01*
X174675595Y-105213258D01*
X174269000Y-105130920D01*
X173569000Y-105130920D01*
X173189158Y-105202392D01*
X172967986Y-105344713D01*
X172775595Y-105213258D01*
X172369000Y-105130920D01*
X171669000Y-105130920D01*
X171289158Y-105202392D01*
X170940296Y-105426879D01*
X170706258Y-105769405D01*
X170623920Y-106176000D01*
X167414080Y-106176000D01*
X167414080Y-105376000D01*
X167342608Y-104996158D01*
X167118121Y-104647296D01*
X166775595Y-104413258D01*
X166369000Y-104330920D01*
X165569000Y-104330920D01*
X165189158Y-104402392D01*
X164840296Y-104626879D01*
X164606258Y-104969405D01*
X164523920Y-105376000D01*
X147414080Y-105376000D01*
X147342608Y-104996158D01*
X147118121Y-104647296D01*
X146775595Y-104413258D01*
X146369000Y-104330920D01*
X145569000Y-104330920D01*
X145189158Y-104402392D01*
X144840296Y-104626879D01*
X144606258Y-104969405D01*
X144523920Y-105376000D01*
X133913016Y-105376000D01*
X133674835Y-105213258D01*
X133268240Y-105130920D01*
X132568240Y-105130920D01*
X132188398Y-105202392D01*
X131967226Y-105344713D01*
X131774835Y-105213258D01*
X131368240Y-105130920D01*
X130668240Y-105130920D01*
X130288398Y-105202392D01*
X129939536Y-105426879D01*
X129705498Y-105769405D01*
X129623160Y-106176000D01*
X127414080Y-106176000D01*
X127414080Y-105376000D01*
X127342608Y-104996158D01*
X127118121Y-104647296D01*
X126775595Y-104413258D01*
X126369000Y-104330920D01*
X125569000Y-104330920D01*
X125189158Y-104402392D01*
X124840296Y-104626879D01*
X124606258Y-104969405D01*
X124523920Y-105376000D01*
X58026480Y-105376000D01*
X58026480Y-99307854D01*
X208181202Y-99307854D01*
X208425034Y-99897972D01*
X208536666Y-100009799D01*
X208426620Y-100119653D01*
X208181759Y-100709345D01*
X208181202Y-101347854D01*
X208425034Y-101937972D01*
X208876133Y-102389860D01*
X209465825Y-102634721D01*
X210104334Y-102635278D01*
X210694452Y-102391446D01*
X211146340Y-101940347D01*
X211391201Y-101350655D01*
X211391215Y-101334881D01*
X211426133Y-101369860D01*
X212015825Y-101614721D01*
X212654334Y-101615278D01*
X213244452Y-101371446D01*
X213696340Y-100920347D01*
X213941201Y-100330655D01*
X213941758Y-99692146D01*
X213697926Y-99102028D01*
X213586294Y-98990201D01*
X213696340Y-98880347D01*
X213941201Y-98290655D01*
X213941758Y-97652146D01*
X213697926Y-97062028D01*
X213246827Y-96610140D01*
X212657135Y-96365279D01*
X212018626Y-96364722D01*
X211428508Y-96608554D01*
X210976620Y-97059653D01*
X210731759Y-97649345D01*
X210731745Y-97665119D01*
X210696827Y-97630140D01*
X210107135Y-97385279D01*
X209468626Y-97384722D01*
X208878508Y-97628554D01*
X208426620Y-98079653D01*
X208181759Y-98669345D01*
X208181202Y-99307854D01*
X58026480Y-99307854D01*
X58026480Y-93264109D01*
X133185507Y-93264109D01*
X133688514Y-94481480D01*
X134619101Y-95413692D01*
X135835592Y-95918824D01*
X137152789Y-95919973D01*
X138370160Y-95416966D01*
X139302372Y-94486379D01*
X139432196Y-94173728D01*
X139752080Y-94173728D01*
X139752080Y-94653072D01*
X139891000Y-95351469D01*
X140179607Y-95783400D01*
X139891000Y-96215331D01*
X139752080Y-96913728D01*
X139752080Y-97393072D01*
X139891000Y-98091469D01*
X140286610Y-98683542D01*
X140878683Y-99079152D01*
X141577080Y-99218072D01*
X142275477Y-99079152D01*
X142847080Y-98697220D01*
X143418683Y-99079152D01*
X144117080Y-99218072D01*
X144815477Y-99079152D01*
X145387080Y-98697220D01*
X145958683Y-99079152D01*
X146657080Y-99218072D01*
X147355477Y-99079152D01*
X147927080Y-98697220D01*
X148498683Y-99079152D01*
X149197080Y-99218072D01*
X149895477Y-99079152D01*
X150467080Y-98697220D01*
X151038683Y-99079152D01*
X151737080Y-99218072D01*
X152435477Y-99079152D01*
X153007080Y-98697220D01*
X153578683Y-99079152D01*
X154277080Y-99218072D01*
X154975477Y-99079152D01*
X155547080Y-98697220D01*
X156118683Y-99079152D01*
X156817080Y-99218072D01*
X157515477Y-99079152D01*
X158087080Y-98697220D01*
X158658683Y-99079152D01*
X159357080Y-99218072D01*
X160055477Y-99079152D01*
X160627080Y-98697220D01*
X161198683Y-99079152D01*
X161897080Y-99218072D01*
X162595477Y-99079152D01*
X163167080Y-98697220D01*
X163738683Y-99079152D01*
X164437080Y-99218072D01*
X165135477Y-99079152D01*
X165707080Y-98697220D01*
X166278683Y-99079152D01*
X166977080Y-99218072D01*
X167675477Y-99079152D01*
X168247080Y-98697220D01*
X168818683Y-99079152D01*
X169517080Y-99218072D01*
X170215477Y-99079152D01*
X170787080Y-98697220D01*
X171358683Y-99079152D01*
X172057080Y-99218072D01*
X172755477Y-99079152D01*
X173327080Y-98697220D01*
X173898683Y-99079152D01*
X174597080Y-99218072D01*
X175295477Y-99079152D01*
X175867080Y-98697220D01*
X176438683Y-99079152D01*
X177137080Y-99218072D01*
X177835477Y-99079152D01*
X178407080Y-98697220D01*
X178978683Y-99079152D01*
X179677080Y-99218072D01*
X180375477Y-99079152D01*
X180947080Y-98697220D01*
X181518683Y-99079152D01*
X182217080Y-99218072D01*
X182915477Y-99079152D01*
X183487080Y-98697220D01*
X184058683Y-99079152D01*
X184757080Y-99218072D01*
X185455477Y-99079152D01*
X186027080Y-98697220D01*
X186598683Y-99079152D01*
X187297080Y-99218072D01*
X187995477Y-99079152D01*
X188567080Y-98697220D01*
X189138683Y-99079152D01*
X189837080Y-99218072D01*
X190535477Y-99079152D01*
X191107080Y-98697220D01*
X191678683Y-99079152D01*
X192377080Y-99218072D01*
X193075477Y-99079152D01*
X193647080Y-98697220D01*
X194218683Y-99079152D01*
X194917080Y-99218072D01*
X195615477Y-99079152D01*
X196131140Y-98734597D01*
X196250485Y-98816142D01*
X196657080Y-98898480D01*
X198257080Y-98898480D01*
X198636922Y-98827008D01*
X198985784Y-98602521D01*
X199219822Y-98259995D01*
X199302160Y-97853400D01*
X199302160Y-96624624D01*
X199728514Y-97656480D01*
X200659101Y-98588692D01*
X201875592Y-99093824D01*
X203192789Y-99094973D01*
X204410160Y-98591966D01*
X205342372Y-97661379D01*
X205847504Y-96444888D01*
X205848653Y-95127691D01*
X205345646Y-93910320D01*
X204415059Y-92978108D01*
X203198568Y-92472976D01*
X201881371Y-92471827D01*
X200664000Y-92974834D01*
X199731788Y-93905421D01*
X199226656Y-95121912D01*
X199226007Y-95866283D01*
X199016608Y-95540868D01*
X199143160Y-95351469D01*
X199282080Y-94653072D01*
X199282080Y-94173728D01*
X199143160Y-93475331D01*
X198747550Y-92883258D01*
X198155477Y-92487648D01*
X197457080Y-92348728D01*
X196758683Y-92487648D01*
X196187080Y-92869580D01*
X195615477Y-92487648D01*
X194917080Y-92348728D01*
X194218683Y-92487648D01*
X193647080Y-92869580D01*
X193075477Y-92487648D01*
X192377080Y-92348728D01*
X191678683Y-92487648D01*
X191107080Y-92869580D01*
X190535477Y-92487648D01*
X189837080Y-92348728D01*
X189138683Y-92487648D01*
X188567080Y-92869580D01*
X187995477Y-92487648D01*
X187297080Y-92348728D01*
X186598683Y-92487648D01*
X186027080Y-92869580D01*
X185455477Y-92487648D01*
X184757080Y-92348728D01*
X184058683Y-92487648D01*
X183487080Y-92869580D01*
X182915477Y-92487648D01*
X182217080Y-92348728D01*
X181518683Y-92487648D01*
X180947080Y-92869580D01*
X180375477Y-92487648D01*
X179677080Y-92348728D01*
X178978683Y-92487648D01*
X178407080Y-92869580D01*
X177835477Y-92487648D01*
X177137080Y-92348728D01*
X176438683Y-92487648D01*
X175867080Y-92869580D01*
X175295477Y-92487648D01*
X174597080Y-92348728D01*
X173898683Y-92487648D01*
X173327080Y-92869580D01*
X172755477Y-92487648D01*
X172057080Y-92348728D01*
X171358683Y-92487648D01*
X170787080Y-92869580D01*
X170215477Y-92487648D01*
X169517080Y-92348728D01*
X168818683Y-92487648D01*
X168247080Y-92869580D01*
X167675477Y-92487648D01*
X166977080Y-92348728D01*
X166278683Y-92487648D01*
X165707080Y-92869580D01*
X165135477Y-92487648D01*
X164437080Y-92348728D01*
X163738683Y-92487648D01*
X163167080Y-92869580D01*
X162595477Y-92487648D01*
X161897080Y-92348728D01*
X161198683Y-92487648D01*
X160627080Y-92869580D01*
X160055477Y-92487648D01*
X159357080Y-92348728D01*
X158658683Y-92487648D01*
X158066610Y-92883258D01*
X157671000Y-93475331D01*
X157606808Y-93798046D01*
X157399421Y-93534013D01*
X157342628Y-93452201D01*
X157217080Y-93414157D01*
X157217080Y-93938400D01*
X157312080Y-93938400D01*
X157312080Y-94888400D01*
X157217080Y-94888400D01*
X157217080Y-94908400D01*
X156417080Y-94908400D01*
X156417080Y-94888400D01*
X156322080Y-94888400D01*
X156322080Y-93938400D01*
X156417080Y-93938400D01*
X156417080Y-93414157D01*
X156291532Y-93452201D01*
X156234739Y-93534013D01*
X156027352Y-93798046D01*
X155963160Y-93475331D01*
X155567550Y-92883258D01*
X154975477Y-92487648D01*
X154277080Y-92348728D01*
X153578683Y-92487648D01*
X153007080Y-92869580D01*
X152435477Y-92487648D01*
X151737080Y-92348728D01*
X151038683Y-92487648D01*
X150467080Y-92869580D01*
X149895477Y-92487648D01*
X149197080Y-92348728D01*
X148498683Y-92487648D01*
X147927080Y-92869580D01*
X147355477Y-92487648D01*
X146657080Y-92348728D01*
X145958683Y-92487648D01*
X145387080Y-92869580D01*
X144815477Y-92487648D01*
X144117080Y-92348728D01*
X143418683Y-92487648D01*
X142847080Y-92869580D01*
X142275477Y-92487648D01*
X141577080Y-92348728D01*
X140878683Y-92487648D01*
X140286610Y-92883258D01*
X139891000Y-93475331D01*
X139752080Y-94173728D01*
X139432196Y-94173728D01*
X139807504Y-93269888D01*
X139808653Y-91952691D01*
X139572023Y-91380000D01*
X209460053Y-91380000D01*
X209606585Y-92116666D01*
X210023872Y-92741181D01*
X210037071Y-92750000D01*
X210023872Y-92758819D01*
X209606585Y-93383334D01*
X209460053Y-94120000D01*
X209606585Y-94856666D01*
X210023872Y-95481181D01*
X210648387Y-95898468D01*
X211385053Y-96045000D01*
X212887907Y-96045000D01*
X213624573Y-95898468D01*
X214249088Y-95481181D01*
X214666375Y-94856666D01*
X214812907Y-94120000D01*
X214666375Y-93383334D01*
X214249088Y-92758819D01*
X214235889Y-92750000D01*
X214249088Y-92741181D01*
X214666375Y-92116666D01*
X214812907Y-91380000D01*
X214666375Y-90643334D01*
X214249088Y-90018819D01*
X213624573Y-89601532D01*
X212887907Y-89455000D01*
X211385053Y-89455000D01*
X210648387Y-89601532D01*
X210023872Y-90018819D01*
X209606585Y-90643334D01*
X209460053Y-91380000D01*
X139572023Y-91380000D01*
X139305646Y-90735320D01*
X138375059Y-89803108D01*
X137158568Y-89297976D01*
X135841371Y-89296827D01*
X134624000Y-89799834D01*
X133691788Y-90730421D01*
X133186656Y-91946912D01*
X133185507Y-93264109D01*
X58026480Y-93264109D01*
X58026480Y-85807854D01*
X208181202Y-85807854D01*
X208425034Y-86397972D01*
X208536666Y-86509799D01*
X208426620Y-86619653D01*
X208181759Y-87209345D01*
X208181202Y-87847854D01*
X208425034Y-88437972D01*
X208876133Y-88889860D01*
X209465825Y-89134721D01*
X210104334Y-89135278D01*
X210694452Y-88891446D01*
X211146340Y-88440347D01*
X211391201Y-87850655D01*
X211391215Y-87834881D01*
X211426133Y-87869860D01*
X212015825Y-88114721D01*
X212654334Y-88115278D01*
X213244452Y-87871446D01*
X213696340Y-87420347D01*
X213941201Y-86830655D01*
X213941758Y-86192146D01*
X213697926Y-85602028D01*
X213586294Y-85490201D01*
X213696340Y-85380347D01*
X213941201Y-84790655D01*
X213941758Y-84152146D01*
X213697926Y-83562028D01*
X213246827Y-83110140D01*
X212657135Y-82865279D01*
X212018626Y-82864722D01*
X211428508Y-83108554D01*
X210976620Y-83559653D01*
X210731759Y-84149345D01*
X210731745Y-84165119D01*
X210696827Y-84130140D01*
X210107135Y-83885279D01*
X209468626Y-83884722D01*
X208878508Y-84128554D01*
X208426620Y-84579653D01*
X208181759Y-85169345D01*
X208181202Y-85807854D01*
X58026480Y-85807854D01*
X58026480Y-80620000D01*
X209460053Y-80620000D01*
X209606585Y-81356666D01*
X210023872Y-81981181D01*
X210648387Y-82398468D01*
X211385053Y-82545000D01*
X212887907Y-82545000D01*
X213624573Y-82398468D01*
X214249088Y-81981181D01*
X214666375Y-81356666D01*
X214812907Y-80620000D01*
X214666375Y-79883334D01*
X214249088Y-79258819D01*
X213624573Y-78841532D01*
X212887907Y-78695000D01*
X211385053Y-78695000D01*
X210648387Y-78841532D01*
X210023872Y-79258819D01*
X209606585Y-79883334D01*
X209460053Y-80620000D01*
X58026480Y-80620000D01*
X58026480Y-76381329D01*
X84920456Y-76381329D01*
X85607895Y-78045058D01*
X86879687Y-79319071D01*
X88542213Y-80009413D01*
X90342369Y-80010984D01*
X92006098Y-79323545D01*
X93280111Y-78051753D01*
X93970453Y-76389227D01*
X93972024Y-74589071D01*
X93438476Y-73297786D01*
X207497885Y-73297786D01*
X207660182Y-73382775D01*
X208147091Y-73403161D01*
X208249578Y-73382775D01*
X208411875Y-73297786D01*
X212497885Y-73297786D01*
X212660182Y-73382775D01*
X213147091Y-73403161D01*
X213249578Y-73382775D01*
X213411875Y-73297786D01*
X212954880Y-72840791D01*
X212497885Y-73297786D01*
X208411875Y-73297786D01*
X207954880Y-72840791D01*
X207497885Y-73297786D01*
X93438476Y-73297786D01*
X93284585Y-72925342D01*
X92721478Y-72361251D01*
X206720759Y-72361251D01*
X206741145Y-72463738D01*
X206826134Y-72626035D01*
X207283129Y-72169040D01*
X208626631Y-72169040D01*
X209083626Y-72626035D01*
X209168615Y-72463738D01*
X209172905Y-72361251D01*
X211720759Y-72361251D01*
X211741145Y-72463738D01*
X211826134Y-72626035D01*
X212283129Y-72169040D01*
X213626631Y-72169040D01*
X214083626Y-72626035D01*
X214168615Y-72463738D01*
X214189001Y-71976829D01*
X214168615Y-71874342D01*
X214083626Y-71712045D01*
X213626631Y-72169040D01*
X212283129Y-72169040D01*
X211826134Y-71712045D01*
X211741145Y-71874342D01*
X211720759Y-72361251D01*
X209172905Y-72361251D01*
X209189001Y-71976829D01*
X209168615Y-71874342D01*
X209083626Y-71712045D01*
X208626631Y-72169040D01*
X207283129Y-72169040D01*
X206826134Y-71712045D01*
X206741145Y-71874342D01*
X206720759Y-72361251D01*
X92721478Y-72361251D01*
X92012793Y-71651329D01*
X90541260Y-71040294D01*
X207497885Y-71040294D01*
X207954880Y-71497289D01*
X208411875Y-71040294D01*
X208249578Y-70955305D01*
X207762669Y-70934919D01*
X207660182Y-70955305D01*
X207497885Y-71040294D01*
X90541260Y-71040294D01*
X90350267Y-70960987D01*
X88550111Y-70959416D01*
X86886382Y-71646855D01*
X85612369Y-72918647D01*
X84922027Y-74581173D01*
X84920456Y-76381329D01*
X58026480Y-76381329D01*
X58026480Y-72059273D01*
X70687937Y-72059273D01*
X70808678Y-72259734D01*
X70915669Y-72382661D01*
X71002200Y-72394553D01*
X71002200Y-71968500D01*
X71502200Y-71968500D01*
X71502200Y-72394553D01*
X71588731Y-72382661D01*
X71695722Y-72259734D01*
X71816463Y-72059273D01*
X77687937Y-72059273D01*
X77808678Y-72259734D01*
X77915669Y-72382661D01*
X78002200Y-72394553D01*
X78002200Y-71968500D01*
X78502200Y-71968500D01*
X78502200Y-72394553D01*
X78588731Y-72382661D01*
X78695722Y-72259734D01*
X78816463Y-72059273D01*
X78810065Y-71968500D01*
X78502200Y-71968500D01*
X78002200Y-71968500D01*
X77694335Y-71968500D01*
X77687937Y-72059273D01*
X71816463Y-72059273D01*
X71810065Y-71968500D01*
X71502200Y-71968500D01*
X71002200Y-71968500D01*
X70694335Y-71968500D01*
X70687937Y-72059273D01*
X58026480Y-72059273D01*
X58026480Y-71102727D01*
X70687937Y-71102727D01*
X70694335Y-71193500D01*
X71002200Y-71193500D01*
X71502200Y-71193500D01*
X71810065Y-71193500D01*
X71816463Y-71102727D01*
X77687937Y-71102727D01*
X77694335Y-71193500D01*
X78002200Y-71193500D01*
X78502200Y-71193500D01*
X78810065Y-71193500D01*
X78816463Y-71102727D01*
X78695722Y-70902266D01*
X78588731Y-70779339D01*
X78502200Y-70767447D01*
X78502200Y-71193500D01*
X78002200Y-71193500D01*
X78002200Y-70767447D01*
X77915669Y-70779339D01*
X77808678Y-70902266D01*
X77687937Y-71102727D01*
X71816463Y-71102727D01*
X71695722Y-70902266D01*
X71588731Y-70779339D01*
X71502200Y-70767447D01*
X71502200Y-71193500D01*
X71002200Y-71193500D01*
X71002200Y-70767447D01*
X70915669Y-70779339D01*
X70808678Y-70902266D01*
X70687937Y-71102727D01*
X58026480Y-71102727D01*
X58026480Y-70089874D01*
X208329512Y-70089874D01*
X208652342Y-70871183D01*
X209249593Y-71469477D01*
X210030337Y-71793670D01*
X210875714Y-71794408D01*
X211657023Y-71471578D01*
X212089060Y-71040294D01*
X212497885Y-71040294D01*
X212954880Y-71497289D01*
X213411875Y-71040294D01*
X213249578Y-70955305D01*
X212762669Y-70934919D01*
X212660182Y-70955305D01*
X212497885Y-71040294D01*
X212089060Y-71040294D01*
X212255317Y-70874327D01*
X212579510Y-70093583D01*
X212580248Y-69248206D01*
X212257418Y-68466897D01*
X212088602Y-68297786D01*
X212497885Y-68297786D01*
X212660182Y-68382775D01*
X213147091Y-68403161D01*
X213249578Y-68382775D01*
X213411875Y-68297786D01*
X212954880Y-67840791D01*
X212497885Y-68297786D01*
X212088602Y-68297786D01*
X211660167Y-67868603D01*
X210879423Y-67544410D01*
X210034046Y-67543672D01*
X209252737Y-67866502D01*
X208654443Y-68463753D01*
X208330250Y-69244497D01*
X208329512Y-70089874D01*
X58026480Y-70089874D01*
X58026480Y-69118500D01*
X71585412Y-69118500D01*
X71595144Y-69201770D01*
X71673080Y-69270253D01*
X71854706Y-69404840D01*
X71939700Y-69405857D01*
X71939700Y-69118500D01*
X72564700Y-69118500D01*
X72564700Y-69405857D01*
X72649694Y-69404840D01*
X72831320Y-69270253D01*
X72909256Y-69201770D01*
X72918988Y-69118500D01*
X76585412Y-69118500D01*
X76595144Y-69201770D01*
X76673080Y-69270253D01*
X76854706Y-69404840D01*
X76939700Y-69405857D01*
X76939700Y-69118500D01*
X77564700Y-69118500D01*
X77564700Y-69405857D01*
X77649694Y-69404840D01*
X77831320Y-69270253D01*
X77909256Y-69201770D01*
X77918988Y-69118500D01*
X77564700Y-69118500D01*
X76939700Y-69118500D01*
X76585412Y-69118500D01*
X72918988Y-69118500D01*
X72564700Y-69118500D01*
X71939700Y-69118500D01*
X71585412Y-69118500D01*
X58026480Y-69118500D01*
X58026480Y-68643500D01*
X71585412Y-68643500D01*
X71939700Y-68643500D01*
X72564700Y-68643500D01*
X72918988Y-68643500D01*
X76585412Y-68643500D01*
X76939700Y-68643500D01*
X77564700Y-68643500D01*
X77918988Y-68643500D01*
X77909256Y-68560230D01*
X77831320Y-68491747D01*
X77649694Y-68357160D01*
X77564700Y-68356143D01*
X77564700Y-68643500D01*
X76939700Y-68643500D01*
X76939700Y-68356143D01*
X76854706Y-68357160D01*
X76673080Y-68491747D01*
X76595144Y-68560230D01*
X76585412Y-68643500D01*
X72918988Y-68643500D01*
X72909256Y-68560230D01*
X72831320Y-68491747D01*
X72649694Y-68357160D01*
X72564700Y-68356143D01*
X72564700Y-68643500D01*
X71939700Y-68643500D01*
X71939700Y-68356143D01*
X71854706Y-68357160D01*
X71673080Y-68491747D01*
X71595144Y-68560230D01*
X71585412Y-68643500D01*
X58026480Y-68643500D01*
X58026480Y-68297786D01*
X207497885Y-68297786D01*
X207660182Y-68382775D01*
X208147091Y-68403161D01*
X208249578Y-68382775D01*
X208411875Y-68297786D01*
X207954880Y-67840791D01*
X207497885Y-68297786D01*
X58026480Y-68297786D01*
X58026480Y-67361251D01*
X206720759Y-67361251D01*
X206741145Y-67463738D01*
X206826134Y-67626035D01*
X207283129Y-67169040D01*
X208626631Y-67169040D01*
X209083626Y-67626035D01*
X209168615Y-67463738D01*
X209172905Y-67361251D01*
X211720759Y-67361251D01*
X211741145Y-67463738D01*
X211826134Y-67626035D01*
X212283129Y-67169040D01*
X213626631Y-67169040D01*
X214083626Y-67626035D01*
X214168615Y-67463738D01*
X214189001Y-66976829D01*
X214168615Y-66874342D01*
X214083626Y-66712045D01*
X213626631Y-67169040D01*
X212283129Y-67169040D01*
X211826134Y-66712045D01*
X211741145Y-66874342D01*
X211720759Y-67361251D01*
X209172905Y-67361251D01*
X209189001Y-66976829D01*
X209168615Y-66874342D01*
X209083626Y-66712045D01*
X208626631Y-67169040D01*
X207283129Y-67169040D01*
X206826134Y-66712045D01*
X206741145Y-66874342D01*
X206720759Y-67361251D01*
X58026480Y-67361251D01*
X58026480Y-66040294D01*
X207497885Y-66040294D01*
X207954880Y-66497289D01*
X208411875Y-66040294D01*
X212497885Y-66040294D01*
X212954880Y-66497289D01*
X213411875Y-66040294D01*
X213249578Y-65955305D01*
X212762669Y-65934919D01*
X212660182Y-65955305D01*
X212497885Y-66040294D01*
X208411875Y-66040294D01*
X208249578Y-65955305D01*
X207762669Y-65934919D01*
X207660182Y-65955305D01*
X207497885Y-66040294D01*
X58026480Y-66040294D01*
X58026480Y-61988772D01*
X64730019Y-61988772D01*
X64944739Y-62116940D01*
X65584771Y-62207917D01*
X66042141Y-62116940D01*
X66256861Y-61988772D01*
X65493440Y-61225351D01*
X64730019Y-61988772D01*
X58026480Y-61988772D01*
X58026480Y-60644931D01*
X63839123Y-60644931D01*
X63930100Y-61102301D01*
X64058268Y-61317021D01*
X64821689Y-60553600D01*
X66165191Y-60553600D01*
X66928612Y-61317021D01*
X67056780Y-61102301D01*
X67147757Y-60462269D01*
X67098382Y-60214045D01*
X208276021Y-60214045D01*
X208678609Y-61188384D01*
X209423415Y-61934491D01*
X210397050Y-62338779D01*
X211451285Y-62339699D01*
X212425624Y-61937111D01*
X213171731Y-61192305D01*
X213576019Y-60218670D01*
X213576939Y-59164435D01*
X213174351Y-58190096D01*
X212429545Y-57443989D01*
X211455910Y-57039701D01*
X210401675Y-57038781D01*
X209427336Y-57441369D01*
X208681229Y-58186175D01*
X208276941Y-59159810D01*
X208276021Y-60214045D01*
X67098382Y-60214045D01*
X67056780Y-60004899D01*
X66928612Y-59790179D01*
X66165191Y-60553600D01*
X64821689Y-60553600D01*
X64058268Y-59790179D01*
X63930100Y-60004899D01*
X63839123Y-60644931D01*
X58026480Y-60644931D01*
X58026480Y-59118428D01*
X64730019Y-59118428D01*
X65493440Y-59881849D01*
X66256861Y-59118428D01*
X66042141Y-58990260D01*
X65402109Y-58899283D01*
X64944739Y-58990260D01*
X64730019Y-59118428D01*
X58026480Y-59118428D01*
X58026480Y-58316720D01*
X67880650Y-58316720D01*
X67991008Y-58378920D01*
X68335872Y-58378920D01*
X68446230Y-58316720D01*
X68163440Y-58033930D01*
X67880650Y-58316720D01*
X58026480Y-58316720D01*
X58026480Y-57331168D01*
X67288120Y-57331168D01*
X67288120Y-57676032D01*
X67350320Y-57786390D01*
X67633110Y-57503600D01*
X68693770Y-57503600D01*
X68976560Y-57786390D01*
X69038760Y-57676032D01*
X69038760Y-57331168D01*
X68976560Y-57220810D01*
X68693770Y-57503600D01*
X67633110Y-57503600D01*
X67350320Y-57220810D01*
X67288120Y-57331168D01*
X58026480Y-57331168D01*
X58026480Y-50745120D01*
X66388133Y-50745120D01*
X66657791Y-51397743D01*
X66923211Y-51663626D01*
X66659546Y-51926831D01*
X66388749Y-52578982D01*
X66388133Y-53285120D01*
X66657791Y-53937743D01*
X66668211Y-53948181D01*
X66659546Y-53956831D01*
X66388749Y-54608982D01*
X66388133Y-55315120D01*
X66657791Y-55967743D01*
X67156671Y-56467494D01*
X67808822Y-56738291D01*
X67928565Y-56738395D01*
X68163440Y-56973270D01*
X68397905Y-56738805D01*
X68514960Y-56738907D01*
X69167583Y-56469249D01*
X69667334Y-55970369D01*
X69938131Y-55318218D01*
X69938747Y-54612080D01*
X69669089Y-53959457D01*
X69658669Y-53949019D01*
X69667334Y-53940369D01*
X69938131Y-53288218D01*
X69938747Y-52582080D01*
X69669089Y-51929457D01*
X69403669Y-51663574D01*
X69667334Y-51400369D01*
X69938131Y-50748218D01*
X69938747Y-50042080D01*
X69675181Y-49404200D01*
X115490720Y-49404200D01*
X115490720Y-53364200D01*
X115562192Y-53744042D01*
X115786679Y-54092904D01*
X116129205Y-54326942D01*
X116535800Y-54409280D01*
X118515800Y-54409280D01*
X118895642Y-54337808D01*
X119244504Y-54113321D01*
X119478542Y-53770795D01*
X119560880Y-53364200D01*
X119560880Y-50335329D01*
X120510800Y-50335329D01*
X120510800Y-52433071D01*
X120664183Y-53204178D01*
X121100980Y-53857891D01*
X121754693Y-54294688D01*
X122525800Y-54448071D01*
X123296907Y-54294688D01*
X123950620Y-53857891D01*
X124387417Y-53204178D01*
X124540800Y-52433071D01*
X124540800Y-51354109D01*
X133185507Y-51354109D01*
X133688514Y-52571480D01*
X134619101Y-53503692D01*
X135835592Y-54008824D01*
X137152789Y-54009973D01*
X138370160Y-53506966D01*
X139302372Y-52576379D01*
X139807504Y-51359888D01*
X139808653Y-50042691D01*
X139305646Y-48825320D01*
X138375059Y-47893108D01*
X137158568Y-47387976D01*
X135841371Y-47386827D01*
X134624000Y-47889834D01*
X133691788Y-48820421D01*
X133186656Y-50036912D01*
X133185507Y-51354109D01*
X124540800Y-51354109D01*
X124540800Y-50335329D01*
X124387417Y-49564222D01*
X123950620Y-48910509D01*
X123296907Y-48473712D01*
X122525800Y-48320329D01*
X121754693Y-48473712D01*
X121100980Y-48910509D01*
X120664183Y-49564222D01*
X120510800Y-50335329D01*
X119560880Y-50335329D01*
X119560880Y-49404200D01*
X119489408Y-49024358D01*
X119264921Y-48675496D01*
X118922395Y-48441458D01*
X118515800Y-48359120D01*
X116535800Y-48359120D01*
X116155958Y-48430592D01*
X115807096Y-48655079D01*
X115573058Y-48997605D01*
X115490720Y-49404200D01*
X69675181Y-49404200D01*
X69669089Y-49389457D01*
X69170209Y-48889706D01*
X68518058Y-48618909D01*
X67811920Y-48618293D01*
X67159297Y-48887951D01*
X66659546Y-49386831D01*
X66388749Y-50038982D01*
X66388133Y-50745120D01*
X58026480Y-50745120D01*
X58026480Y-48268772D01*
X64730019Y-48268772D01*
X64944739Y-48396940D01*
X65584771Y-48487917D01*
X66042141Y-48396940D01*
X66256861Y-48268772D01*
X65493440Y-47505351D01*
X64730019Y-48268772D01*
X58026480Y-48268772D01*
X58026480Y-46924931D01*
X63839123Y-46924931D01*
X63930100Y-47382301D01*
X64058268Y-47597021D01*
X64821689Y-46833600D01*
X66165191Y-46833600D01*
X66928612Y-47597021D01*
X67056780Y-47382301D01*
X67147757Y-46742269D01*
X67056780Y-46284899D01*
X66928612Y-46070179D01*
X66165191Y-46833600D01*
X64821689Y-46833600D01*
X64058268Y-46070179D01*
X63930100Y-46284899D01*
X63839123Y-46924931D01*
X58026480Y-46924931D01*
X58026480Y-45398428D01*
X64730019Y-45398428D01*
X65493440Y-46161849D01*
X65741561Y-45913728D01*
X139752080Y-45913728D01*
X139752080Y-46393072D01*
X139891000Y-47091469D01*
X140179607Y-47523400D01*
X139891000Y-47955331D01*
X139752080Y-48653728D01*
X139752080Y-49133072D01*
X139891000Y-49831469D01*
X140286610Y-50423542D01*
X140878683Y-50819152D01*
X141577080Y-50958072D01*
X142275477Y-50819152D01*
X142847080Y-50437220D01*
X143418683Y-50819152D01*
X144117080Y-50958072D01*
X144815477Y-50819152D01*
X145387080Y-50437220D01*
X145958683Y-50819152D01*
X146657080Y-50958072D01*
X147355477Y-50819152D01*
X147927080Y-50437220D01*
X148498683Y-50819152D01*
X149197080Y-50958072D01*
X149895477Y-50819152D01*
X150467080Y-50437220D01*
X151038683Y-50819152D01*
X151737080Y-50958072D01*
X152435477Y-50819152D01*
X153007080Y-50437220D01*
X153578683Y-50819152D01*
X154277080Y-50958072D01*
X154975477Y-50819152D01*
X155547080Y-50437220D01*
X156118683Y-50819152D01*
X156817080Y-50958072D01*
X157515477Y-50819152D01*
X158087080Y-50437220D01*
X158658683Y-50819152D01*
X159357080Y-50958072D01*
X160055477Y-50819152D01*
X160627080Y-50437220D01*
X161198683Y-50819152D01*
X161897080Y-50958072D01*
X162595477Y-50819152D01*
X163167080Y-50437220D01*
X163738683Y-50819152D01*
X164437080Y-50958072D01*
X165135477Y-50819152D01*
X165707080Y-50437220D01*
X166278683Y-50819152D01*
X166977080Y-50958072D01*
X167675477Y-50819152D01*
X168247080Y-50437220D01*
X168818683Y-50819152D01*
X169517080Y-50958072D01*
X170215477Y-50819152D01*
X170787080Y-50437220D01*
X171358683Y-50819152D01*
X172057080Y-50958072D01*
X172755477Y-50819152D01*
X173327080Y-50437220D01*
X173898683Y-50819152D01*
X174597080Y-50958072D01*
X175295477Y-50819152D01*
X175867080Y-50437220D01*
X176438683Y-50819152D01*
X177137080Y-50958072D01*
X177835477Y-50819152D01*
X178407080Y-50437220D01*
X178978683Y-50819152D01*
X179677080Y-50958072D01*
X180375477Y-50819152D01*
X180947080Y-50437220D01*
X181518683Y-50819152D01*
X182217080Y-50958072D01*
X182915477Y-50819152D01*
X183487080Y-50437220D01*
X184058683Y-50819152D01*
X184757080Y-50958072D01*
X185455477Y-50819152D01*
X186027080Y-50437220D01*
X186598683Y-50819152D01*
X187297080Y-50958072D01*
X187995477Y-50819152D01*
X188567080Y-50437220D01*
X189138683Y-50819152D01*
X189837080Y-50958072D01*
X190535477Y-50819152D01*
X191107080Y-50437220D01*
X191678683Y-50819152D01*
X192377080Y-50958072D01*
X193075477Y-50819152D01*
X193647080Y-50437220D01*
X194218683Y-50819152D01*
X194917080Y-50958072D01*
X195615477Y-50819152D01*
X196131140Y-50474597D01*
X196250485Y-50556142D01*
X196657080Y-50638480D01*
X198257080Y-50638480D01*
X198636922Y-50567008D01*
X198985784Y-50342521D01*
X199219822Y-49999995D01*
X199302160Y-49593400D01*
X199302160Y-48364624D01*
X199728514Y-49396480D01*
X200659101Y-50328692D01*
X201875592Y-50833824D01*
X202852698Y-50834676D01*
X202770240Y-51033257D01*
X202400089Y-50879557D01*
X201676048Y-50878925D01*
X201006880Y-51155419D01*
X200494459Y-51666947D01*
X200216797Y-52335631D01*
X200216165Y-53059672D01*
X200492659Y-53728840D01*
X200732611Y-53969210D01*
X200494459Y-54206947D01*
X200216797Y-54875631D01*
X200216165Y-55599672D01*
X200492659Y-56268840D01*
X200732611Y-56509210D01*
X200494459Y-56746947D01*
X200216797Y-57415631D01*
X200216165Y-58139672D01*
X200492659Y-58808840D01*
X201004187Y-59321261D01*
X201672871Y-59598923D01*
X202396912Y-59599555D01*
X203066080Y-59323061D01*
X203578501Y-58811533D01*
X203842720Y-58175223D01*
X204212871Y-58328923D01*
X204936912Y-58329555D01*
X205606080Y-58053061D01*
X206118501Y-57541533D01*
X206396163Y-56872849D01*
X206396795Y-56148808D01*
X206120301Y-55479640D01*
X205880349Y-55239270D01*
X206118501Y-55001533D01*
X206396163Y-54332849D01*
X206396795Y-53608808D01*
X206120301Y-52939640D01*
X205880349Y-52699270D01*
X206118501Y-52461533D01*
X206396163Y-51792849D01*
X206396795Y-51068808D01*
X206120301Y-50399640D01*
X205775309Y-50054045D01*
X208276021Y-50054045D01*
X208678609Y-51028384D01*
X209423415Y-51774491D01*
X210397050Y-52178779D01*
X211451285Y-52179699D01*
X212425624Y-51777111D01*
X213171731Y-51032305D01*
X213576019Y-50058670D01*
X213576939Y-49004435D01*
X213174351Y-48030096D01*
X212429545Y-47283989D01*
X211455910Y-46879701D01*
X210401675Y-46878781D01*
X209427336Y-47281369D01*
X208681229Y-48026175D01*
X208276941Y-48999810D01*
X208276021Y-50054045D01*
X205775309Y-50054045D01*
X205608773Y-49887219D01*
X205076916Y-49666372D01*
X205342372Y-49401379D01*
X205847504Y-48184888D01*
X205848653Y-46867691D01*
X205345646Y-45650320D01*
X204415059Y-44718108D01*
X203198568Y-44212976D01*
X201881371Y-44211827D01*
X200664000Y-44714834D01*
X199731788Y-45645421D01*
X199226656Y-46861912D01*
X199226007Y-47606283D01*
X199016608Y-47280868D01*
X199143160Y-47091469D01*
X199282080Y-46393072D01*
X199282080Y-45913728D01*
X199143160Y-45215331D01*
X198747550Y-44623258D01*
X198155477Y-44227648D01*
X197457080Y-44088728D01*
X196758683Y-44227648D01*
X196187080Y-44609580D01*
X195615477Y-44227648D01*
X194917080Y-44088728D01*
X194218683Y-44227648D01*
X193647080Y-44609580D01*
X193075477Y-44227648D01*
X192377080Y-44088728D01*
X191678683Y-44227648D01*
X191107080Y-44609580D01*
X190535477Y-44227648D01*
X189837080Y-44088728D01*
X189138683Y-44227648D01*
X188567080Y-44609580D01*
X187995477Y-44227648D01*
X187297080Y-44088728D01*
X186598683Y-44227648D01*
X186027080Y-44609580D01*
X185455477Y-44227648D01*
X184757080Y-44088728D01*
X184058683Y-44227648D01*
X183487080Y-44609580D01*
X182915477Y-44227648D01*
X182217080Y-44088728D01*
X181518683Y-44227648D01*
X180947080Y-44609580D01*
X180375477Y-44227648D01*
X179677080Y-44088728D01*
X178978683Y-44227648D01*
X178407080Y-44609580D01*
X177835477Y-44227648D01*
X177137080Y-44088728D01*
X176438683Y-44227648D01*
X175867080Y-44609580D01*
X175295477Y-44227648D01*
X174597080Y-44088728D01*
X173898683Y-44227648D01*
X173327080Y-44609580D01*
X172755477Y-44227648D01*
X172057080Y-44088728D01*
X171358683Y-44227648D01*
X170787080Y-44609580D01*
X170215477Y-44227648D01*
X169517080Y-44088728D01*
X168818683Y-44227648D01*
X168247080Y-44609580D01*
X167675477Y-44227648D01*
X166977080Y-44088728D01*
X166278683Y-44227648D01*
X165707080Y-44609580D01*
X165135477Y-44227648D01*
X164437080Y-44088728D01*
X163738683Y-44227648D01*
X163167080Y-44609580D01*
X162595477Y-44227648D01*
X161897080Y-44088728D01*
X161198683Y-44227648D01*
X160627080Y-44609580D01*
X160055477Y-44227648D01*
X159357080Y-44088728D01*
X158658683Y-44227648D01*
X158087080Y-44609580D01*
X157515477Y-44227648D01*
X156817080Y-44088728D01*
X156118683Y-44227648D01*
X155547080Y-44609580D01*
X154975477Y-44227648D01*
X154277080Y-44088728D01*
X153578683Y-44227648D01*
X153007080Y-44609580D01*
X152435477Y-44227648D01*
X151737080Y-44088728D01*
X151038683Y-44227648D01*
X150467080Y-44609580D01*
X149895477Y-44227648D01*
X149197080Y-44088728D01*
X148498683Y-44227648D01*
X147927080Y-44609580D01*
X147355477Y-44227648D01*
X146657080Y-44088728D01*
X145958683Y-44227648D01*
X145387080Y-44609580D01*
X144815477Y-44227648D01*
X144117080Y-44088728D01*
X143418683Y-44227648D01*
X142847080Y-44609580D01*
X142275477Y-44227648D01*
X141577080Y-44088728D01*
X140878683Y-44227648D01*
X140286610Y-44623258D01*
X139891000Y-45215331D01*
X139752080Y-45913728D01*
X65741561Y-45913728D01*
X66256861Y-45398428D01*
X66042141Y-45270260D01*
X65402109Y-45179283D01*
X64944739Y-45270260D01*
X64730019Y-45398428D01*
X58026480Y-45398428D01*
X58026480Y-39230280D01*
X215826480Y-39230280D01*
X215826480Y-137030280D01*
X215826480Y-137030280D01*
G37*
X215826480Y-137030280D02*
X58026480Y-137030280D01*
X58026480Y-130957618D01*
X123613701Y-130957618D01*
X123875763Y-131591858D01*
X124360590Y-132077531D01*
X124994371Y-132340700D01*
X125680618Y-132341299D01*
X126314858Y-132079237D01*
X126800531Y-131594410D01*
X127063700Y-130960629D01*
X127063711Y-130947618D01*
X131243701Y-130947618D01*
X131505763Y-131581858D01*
X131990590Y-132067531D01*
X132624371Y-132330700D01*
X133310618Y-132331299D01*
X133944858Y-132069237D01*
X134430531Y-131584410D01*
X134690797Y-130957618D01*
X143613701Y-130957618D01*
X143875763Y-131591858D01*
X144360590Y-132077531D01*
X144994371Y-132340700D01*
X145680618Y-132341299D01*
X146314858Y-132079237D01*
X146800531Y-131594410D01*
X147063700Y-130960629D01*
X147063711Y-130947618D01*
X151243701Y-130947618D01*
X151505763Y-131581858D01*
X151990590Y-132067531D01*
X152624371Y-132330700D01*
X153310618Y-132331299D01*
X153944858Y-132069237D01*
X154430531Y-131584410D01*
X154690797Y-130957618D01*
X163613701Y-130957618D01*
X163875763Y-131591858D01*
X164360590Y-132077531D01*
X164994371Y-132340700D01*
X165680618Y-132341299D01*
X166314858Y-132079237D01*
X166800531Y-131594410D01*
X167063700Y-130960629D01*
X167063711Y-130947618D01*
X171243701Y-130947618D01*
X171505763Y-131581858D01*
X171990590Y-132067531D01*
X172624371Y-132330700D01*
X173310618Y-132331299D01*
X173944858Y-132069237D01*
X174430531Y-131584410D01*
X174690797Y-130957618D01*
X183613701Y-130957618D01*
X183875763Y-131591858D01*
X184360590Y-132077531D01*
X184994371Y-132340700D01*
X185680618Y-132341299D01*
X186314858Y-132079237D01*
X186800531Y-131594410D01*
X187063700Y-130960629D01*
X187063711Y-130947618D01*
X191243701Y-130947618D01*
X191505763Y-131581858D01*
X191990590Y-132067531D01*
X192624371Y-132330700D01*
X193310618Y-132331299D01*
X193944858Y-132069237D01*
X194134425Y-131880000D01*
X209460053Y-131880000D01*
X209606585Y-132616666D01*
X210023872Y-133241181D01*
X210648387Y-133658468D01*
X211385053Y-133805000D01*
X212887907Y-133805000D01*
X213624573Y-133658468D01*
X214249088Y-133241181D01*
X214666375Y-132616666D01*
X214812907Y-131880000D01*
X214666375Y-131143334D01*
X214249088Y-130518819D01*
X213624573Y-130101532D01*
X212887907Y-129955000D01*
X211385053Y-129955000D01*
X210648387Y-130101532D01*
X210023872Y-130518819D01*
X209606585Y-131143334D01*
X209460053Y-131880000D01*
X194134425Y-131880000D01*
X194430531Y-131584410D01*
X194693700Y-130950629D01*
X194694299Y-130264382D01*
X194432237Y-129630142D01*
X193947410Y-129144469D01*
X193313629Y-128881300D01*
X192627382Y-128880701D01*
X191993142Y-129142763D01*
X191507469Y-129627590D01*
X191244300Y-130261371D01*
X191243701Y-130947618D01*
X187063711Y-130947618D01*
X187064299Y-130274382D01*
X186802237Y-129640142D01*
X186317410Y-129154469D01*
X185683629Y-128891300D01*
X184997382Y-128890701D01*
X184363142Y-129152763D01*
X183877469Y-129637590D01*
X183614300Y-130271371D01*
X183613701Y-130957618D01*
X174690797Y-130957618D01*
X174693700Y-130950629D01*
X174694299Y-130264382D01*
X174432237Y-129630142D01*
X173947410Y-129144469D01*
X173313629Y-128881300D01*
X172627382Y-128880701D01*
X171993142Y-129142763D01*
X171507469Y-129627590D01*
X171244300Y-130261371D01*
X171243701Y-130947618D01*
X167063711Y-130947618D01*
X167064299Y-130274382D01*
X166802237Y-129640142D01*
X166317410Y-129154469D01*
X165683629Y-128891300D01*
X164997382Y-128890701D01*
X164363142Y-129152763D01*
X163877469Y-129637590D01*
X163614300Y-130271371D01*
X163613701Y-130957618D01*
X154690797Y-130957618D01*
X154693700Y-130950629D01*
X154694299Y-130264382D01*
X154432237Y-129630142D01*
X153947410Y-129144469D01*
X153313629Y-128881300D01*
X152627382Y-128880701D01*
X151993142Y-129142763D01*
X151507469Y-129627590D01*
X151244300Y-130261371D01*
X151243701Y-130947618D01*
X147063711Y-130947618D01*
X147064299Y-130274382D01*
X146802237Y-129640142D01*
X146317410Y-129154469D01*
X145683629Y-128891300D01*
X144997382Y-128890701D01*
X144363142Y-129152763D01*
X143877469Y-129637590D01*
X143614300Y-130271371D01*
X143613701Y-130957618D01*
X134690797Y-130957618D01*
X134693700Y-130950629D01*
X134694299Y-130264382D01*
X134432237Y-129630142D01*
X133947410Y-129144469D01*
X133313629Y-128881300D01*
X132627382Y-128880701D01*
X131993142Y-129142763D01*
X131507469Y-129627590D01*
X131244300Y-130261371D01*
X131243701Y-130947618D01*
X127063711Y-130947618D01*
X127064299Y-130274382D01*
X126802237Y-129640142D01*
X126317410Y-129154469D01*
X125683629Y-128891300D01*
X124997382Y-128890701D01*
X124363142Y-129152763D01*
X123877469Y-129637590D01*
X123614300Y-130271371D01*
X123613701Y-130957618D01*
X58026480Y-130957618D01*
X58026480Y-125877618D01*
X123613701Y-125877618D01*
X123875763Y-126511858D01*
X124360590Y-126997531D01*
X124994371Y-127260700D01*
X125680618Y-127261299D01*
X126314858Y-126999237D01*
X126800531Y-126514410D01*
X127063700Y-125880629D01*
X127063720Y-125857618D01*
X131243701Y-125857618D01*
X131505763Y-126491858D01*
X131990590Y-126977531D01*
X132624371Y-127240700D01*
X133310618Y-127241299D01*
X133944858Y-126979237D01*
X134430531Y-126494410D01*
X134686645Y-125877618D01*
X143613701Y-125877618D01*
X143875763Y-126511858D01*
X144360590Y-126997531D01*
X144994371Y-127260700D01*
X145680618Y-127261299D01*
X146314858Y-126999237D01*
X146800531Y-126514410D01*
X147063700Y-125880629D01*
X147063720Y-125857618D01*
X151243701Y-125857618D01*
X151505763Y-126491858D01*
X151990590Y-126977531D01*
X152624371Y-127240700D01*
X153310618Y-127241299D01*
X153944858Y-126979237D01*
X154430531Y-126494410D01*
X154686645Y-125877618D01*
X163613701Y-125877618D01*
X163875763Y-126511858D01*
X164360590Y-126997531D01*
X164994371Y-127260700D01*
X165680618Y-127261299D01*
X166314858Y-126999237D01*
X166800531Y-126514410D01*
X167063700Y-125880629D01*
X167063720Y-125857618D01*
X171243701Y-125857618D01*
X171505763Y-126491858D01*
X171990590Y-126977531D01*
X172624371Y-127240700D01*
X173310618Y-127241299D01*
X173944858Y-126979237D01*
X174430531Y-126494410D01*
X174686645Y-125877618D01*
X183613701Y-125877618D01*
X183875763Y-126511858D01*
X184360590Y-126997531D01*
X184994371Y-127260700D01*
X185680618Y-127261299D01*
X186314858Y-126999237D01*
X186800531Y-126514410D01*
X187063700Y-125880629D01*
X187063720Y-125857618D01*
X191243701Y-125857618D01*
X191505763Y-126491858D01*
X191990590Y-126977531D01*
X192624371Y-127240700D01*
X193310618Y-127241299D01*
X193944858Y-126979237D01*
X194430531Y-126494410D01*
X194507995Y-126307854D01*
X208181202Y-126307854D01*
X208425034Y-126897972D01*
X208536666Y-127009799D01*
X208426620Y-127119653D01*
X208181759Y-127709345D01*
X208181202Y-128347854D01*
X208425034Y-128937972D01*
X208876133Y-129389860D01*
X209465825Y-129634721D01*
X210104334Y-129635278D01*
X210694452Y-129391446D01*
X211146340Y-128940347D01*
X211391201Y-128350655D01*
X211391215Y-128334881D01*
X211426133Y-128369860D01*
X212015825Y-128614721D01*
X212654334Y-128615278D01*
X213244452Y-128371446D01*
X213696340Y-127920347D01*
X213941201Y-127330655D01*
X213941758Y-126692146D01*
X213697926Y-126102028D01*
X213586294Y-125990201D01*
X213696340Y-125880347D01*
X213941201Y-125290655D01*
X213941758Y-124652146D01*
X213697926Y-124062028D01*
X213246827Y-123610140D01*
X212657135Y-123365279D01*
X212018626Y-123364722D01*
X211428508Y-123608554D01*
X210976620Y-124059653D01*
X210731759Y-124649345D01*
X210731745Y-124665119D01*
X210696827Y-124630140D01*
X210107135Y-124385279D01*
X209468626Y-124384722D01*
X208878508Y-124628554D01*
X208426620Y-125079653D01*
X208181759Y-125669345D01*
X208181202Y-126307854D01*
X194507995Y-126307854D01*
X194693700Y-125860629D01*
X194694299Y-125174382D01*
X194432237Y-124540142D01*
X193947410Y-124054469D01*
X193313629Y-123791300D01*
X192627382Y-123790701D01*
X191993142Y-124052763D01*
X191507469Y-124537590D01*
X191244300Y-125171371D01*
X191243701Y-125857618D01*
X187063720Y-125857618D01*
X187064299Y-125194382D01*
X186802237Y-124560142D01*
X186317410Y-124074469D01*
X185683629Y-123811300D01*
X184997382Y-123810701D01*
X184363142Y-124072763D01*
X183877469Y-124557590D01*
X183614300Y-125191371D01*
X183613701Y-125877618D01*
X174686645Y-125877618D01*
X174693700Y-125860629D01*
X174694299Y-125174382D01*
X174432237Y-124540142D01*
X173947410Y-124054469D01*
X173313629Y-123791300D01*
X172627382Y-123790701D01*
X171993142Y-124052763D01*
X171507469Y-124537590D01*
X171244300Y-125171371D01*
X171243701Y-125857618D01*
X167063720Y-125857618D01*
X167064299Y-125194382D01*
X166802237Y-124560142D01*
X166317410Y-124074469D01*
X165683629Y-123811300D01*
X164997382Y-123810701D01*
X164363142Y-124072763D01*
X163877469Y-124557590D01*
X163614300Y-125191371D01*
X163613701Y-125877618D01*
X154686645Y-125877618D01*
X154693700Y-125860629D01*
X154694299Y-125174382D01*
X154432237Y-124540142D01*
X153947410Y-124054469D01*
X153313629Y-123791300D01*
X152627382Y-123790701D01*
X151993142Y-124052763D01*
X151507469Y-124537590D01*
X151244300Y-125171371D01*
X151243701Y-125857618D01*
X147063720Y-125857618D01*
X147064299Y-125194382D01*
X146802237Y-124560142D01*
X146317410Y-124074469D01*
X145683629Y-123811300D01*
X144997382Y-123810701D01*
X144363142Y-124072763D01*
X143877469Y-124557590D01*
X143614300Y-125191371D01*
X143613701Y-125877618D01*
X134686645Y-125877618D01*
X134693700Y-125860629D01*
X134694299Y-125174382D01*
X134432237Y-124540142D01*
X133947410Y-124054469D01*
X133313629Y-123791300D01*
X132627382Y-123790701D01*
X131993142Y-124052763D01*
X131507469Y-124537590D01*
X131244300Y-125171371D01*
X131243701Y-125857618D01*
X127063720Y-125857618D01*
X127064299Y-125194382D01*
X126802237Y-124560142D01*
X126317410Y-124074469D01*
X125683629Y-123811300D01*
X124997382Y-123810701D01*
X124363142Y-124072763D01*
X123877469Y-124557590D01*
X123614300Y-125191371D01*
X123613701Y-125877618D01*
X58026480Y-125877618D01*
X58026480Y-120787618D01*
X123623701Y-120787618D01*
X123885763Y-121421858D01*
X124370590Y-121907531D01*
X125004371Y-122170700D01*
X125690618Y-122171299D01*
X126324858Y-121909237D01*
X126810531Y-121424410D01*
X127073700Y-120790629D01*
X127073702Y-120787618D01*
X131243701Y-120787618D01*
X131505763Y-121421858D01*
X131990590Y-121907531D01*
X132624371Y-122170700D01*
X133310618Y-122171299D01*
X133944858Y-121909237D01*
X134430531Y-121424410D01*
X134693700Y-120790629D01*
X134693702Y-120787618D01*
X143623701Y-120787618D01*
X143885763Y-121421858D01*
X144370590Y-121907531D01*
X145004371Y-122170700D01*
X145690618Y-122171299D01*
X146324858Y-121909237D01*
X146810531Y-121424410D01*
X147073700Y-120790629D01*
X147073702Y-120787618D01*
X151243701Y-120787618D01*
X151505763Y-121421858D01*
X151990590Y-121907531D01*
X152624371Y-122170700D01*
X153310618Y-122171299D01*
X153944858Y-121909237D01*
X154430531Y-121424410D01*
X154693700Y-120790629D01*
X154693702Y-120787618D01*
X163623701Y-120787618D01*
X163885763Y-121421858D01*
X164370590Y-121907531D01*
X165004371Y-122170700D01*
X165690618Y-122171299D01*
X166324858Y-121909237D01*
X166810531Y-121424410D01*
X167073700Y-120790629D01*
X167073702Y-120787618D01*
X171243701Y-120787618D01*
X171505763Y-121421858D01*
X171990590Y-121907531D01*
X172624371Y-122170700D01*
X173310618Y-122171299D01*
X173944858Y-121909237D01*
X174430531Y-121424410D01*
X174693700Y-120790629D01*
X174693702Y-120787618D01*
X183623701Y-120787618D01*
X183885763Y-121421858D01*
X184370590Y-121907531D01*
X185004371Y-122170700D01*
X185690618Y-122171299D01*
X186324858Y-121909237D01*
X186810531Y-121424410D01*
X187073700Y-120790629D01*
X187073702Y-120787618D01*
X191243701Y-120787618D01*
X191505763Y-121421858D01*
X191990590Y-121907531D01*
X192624371Y-122170700D01*
X193310618Y-122171299D01*
X193944858Y-121909237D01*
X194430531Y-121424410D01*
X194693700Y-120790629D01*
X194694299Y-120104382D01*
X194432237Y-119470142D01*
X193947410Y-118984469D01*
X193313629Y-118721300D01*
X192627382Y-118720701D01*
X191993142Y-118982763D01*
X191507469Y-119467590D01*
X191244300Y-120101371D01*
X191243701Y-120787618D01*
X187073702Y-120787618D01*
X187074299Y-120104382D01*
X186812237Y-119470142D01*
X186327410Y-118984469D01*
X185693629Y-118721300D01*
X185007382Y-118720701D01*
X184373142Y-118982763D01*
X183887469Y-119467590D01*
X183624300Y-120101371D01*
X183623701Y-120787618D01*
X174693702Y-120787618D01*
X174694299Y-120104382D01*
X174432237Y-119470142D01*
X173947410Y-118984469D01*
X173313629Y-118721300D01*
X172627382Y-118720701D01*
X171993142Y-118982763D01*
X171507469Y-119467590D01*
X171244300Y-120101371D01*
X171243701Y-120787618D01*
X167073702Y-120787618D01*
X167074299Y-120104382D01*
X166812237Y-119470142D01*
X166327410Y-118984469D01*
X165693629Y-118721300D01*
X165007382Y-118720701D01*
X164373142Y-118982763D01*
X163887469Y-119467590D01*
X163624300Y-120101371D01*
X163623701Y-120787618D01*
X154693702Y-120787618D01*
X154694299Y-120104382D01*
X154432237Y-119470142D01*
X153947410Y-118984469D01*
X153313629Y-118721300D01*
X152627382Y-118720701D01*
X151993142Y-118982763D01*
X151507469Y-119467590D01*
X151244300Y-120101371D01*
X151243701Y-120787618D01*
X147073702Y-120787618D01*
X147074299Y-120104382D01*
X146812237Y-119470142D01*
X146327410Y-118984469D01*
X145693629Y-118721300D01*
X145007382Y-118720701D01*
X144373142Y-118982763D01*
X143887469Y-119467590D01*
X143624300Y-120101371D01*
X143623701Y-120787618D01*
X134693702Y-120787618D01*
X134694299Y-120104382D01*
X134432237Y-119470142D01*
X133947410Y-118984469D01*
X133313629Y-118721300D01*
X132627382Y-118720701D01*
X131993142Y-118982763D01*
X131507469Y-119467590D01*
X131244300Y-120101371D01*
X131243701Y-120787618D01*
X127073702Y-120787618D01*
X127074299Y-120104382D01*
X126812237Y-119470142D01*
X126327410Y-118984469D01*
X125693629Y-118721300D01*
X125007382Y-118720701D01*
X124373142Y-118982763D01*
X123887469Y-119467590D01*
X123624300Y-120101371D01*
X123623701Y-120787618D01*
X58026480Y-120787618D01*
X58026480Y-115481329D01*
X84920456Y-115481329D01*
X85607895Y-117145058D01*
X86879687Y-118419071D01*
X88542213Y-119109413D01*
X90342369Y-119110984D01*
X92006098Y-118423545D01*
X92049719Y-118380000D01*
X209460053Y-118380000D01*
X209606585Y-119116666D01*
X210023872Y-119741181D01*
X210037071Y-119750000D01*
X210023872Y-119758819D01*
X209606585Y-120383334D01*
X209460053Y-121120000D01*
X209606585Y-121856666D01*
X210023872Y-122481181D01*
X210648387Y-122898468D01*
X211385053Y-123045000D01*
X212887907Y-123045000D01*
X213624573Y-122898468D01*
X214249088Y-122481181D01*
X214666375Y-121856666D01*
X214812907Y-121120000D01*
X214666375Y-120383334D01*
X214249088Y-119758819D01*
X214235889Y-119750000D01*
X214249088Y-119741181D01*
X214666375Y-119116666D01*
X214812907Y-118380000D01*
X214666375Y-117643334D01*
X214249088Y-117018819D01*
X213624573Y-116601532D01*
X212887907Y-116455000D01*
X211385053Y-116455000D01*
X210648387Y-116601532D01*
X210023872Y-117018819D01*
X209606585Y-117643334D01*
X209460053Y-118380000D01*
X92049719Y-118380000D01*
X93280111Y-117151753D01*
X93970453Y-115489227D01*
X93972024Y-113689071D01*
X93756564Y-113167618D01*
X123623701Y-113167618D01*
X123885763Y-113801858D01*
X124370590Y-114287531D01*
X125004371Y-114550700D01*
X125690618Y-114551299D01*
X126324858Y-114289237D01*
X126810531Y-113804410D01*
X127073700Y-113170629D01*
X127074299Y-112484382D01*
X126926219Y-112126000D01*
X131223920Y-112126000D01*
X131223920Y-113526000D01*
X131295392Y-113905842D01*
X131519879Y-114254704D01*
X131862405Y-114488742D01*
X132269000Y-114571080D01*
X133669000Y-114571080D01*
X134048842Y-114499608D01*
X134397704Y-114275121D01*
X134631742Y-113932595D01*
X134714080Y-113526000D01*
X134714080Y-113167618D01*
X143623701Y-113167618D01*
X143885763Y-113801858D01*
X144370590Y-114287531D01*
X145004371Y-114550700D01*
X145690618Y-114551299D01*
X146324858Y-114289237D01*
X146810531Y-113804410D01*
X147073700Y-113170629D01*
X147074299Y-112484382D01*
X146926219Y-112126000D01*
X151223920Y-112126000D01*
X151223920Y-113526000D01*
X151295392Y-113905842D01*
X151519879Y-114254704D01*
X151862405Y-114488742D01*
X152269000Y-114571080D01*
X153669000Y-114571080D01*
X154048842Y-114499608D01*
X154397704Y-114275121D01*
X154631742Y-113932595D01*
X154714080Y-113526000D01*
X154714080Y-113167618D01*
X163623701Y-113167618D01*
X163885763Y-113801858D01*
X164370590Y-114287531D01*
X165004371Y-114550700D01*
X165690618Y-114551299D01*
X166324858Y-114289237D01*
X166810531Y-113804410D01*
X167073700Y-113170629D01*
X167074299Y-112484382D01*
X166926219Y-112126000D01*
X171223920Y-112126000D01*
X171223920Y-113526000D01*
X171295392Y-113905842D01*
X171519879Y-114254704D01*
X171862405Y-114488742D01*
X172269000Y-114571080D01*
X173669000Y-114571080D01*
X174048842Y-114499608D01*
X174397704Y-114275121D01*
X174631742Y-113932595D01*
X174714080Y-113526000D01*
X174714080Y-113167618D01*
X183623701Y-113167618D01*
X183885763Y-113801858D01*
X184370590Y-114287531D01*
X185004371Y-114550700D01*
X185690618Y-114551299D01*
X186324858Y-114289237D01*
X186810531Y-113804410D01*
X187073700Y-113170629D01*
X187074299Y-112484382D01*
X186926219Y-112126000D01*
X191223920Y-112126000D01*
X191223920Y-113526000D01*
X191295392Y-113905842D01*
X191519879Y-114254704D01*
X191862405Y-114488742D01*
X192269000Y-114571080D01*
X193669000Y-114571080D01*
X194048842Y-114499608D01*
X194397704Y-114275121D01*
X194631742Y-113932595D01*
X194714080Y-113526000D01*
X194714080Y-112807854D01*
X208181202Y-112807854D01*
X208425034Y-113397972D01*
X208536666Y-113509799D01*
X208426620Y-113619653D01*
X208181759Y-114209345D01*
X208181202Y-114847854D01*
X208425034Y-115437972D01*
X208876133Y-115889860D01*
X209465825Y-116134721D01*
X210104334Y-116135278D01*
X210694452Y-115891446D01*
X211146340Y-115440347D01*
X211391201Y-114850655D01*
X211391215Y-114834881D01*
X211426133Y-114869860D01*
X212015825Y-115114721D01*
X212654334Y-115115278D01*
X213244452Y-114871446D01*
X213696340Y-114420347D01*
X213941201Y-113830655D01*
X213941758Y-113192146D01*
X213697926Y-112602028D01*
X213586294Y-112490201D01*
X213696340Y-112380347D01*
X213941201Y-111790655D01*
X213941758Y-111152146D01*
X213697926Y-110562028D01*
X213246827Y-110110140D01*
X212657135Y-109865279D01*
X212018626Y-109864722D01*
X211428508Y-110108554D01*
X210976620Y-110559653D01*
X210731759Y-111149345D01*
X210731745Y-111165119D01*
X210696827Y-111130140D01*
X210107135Y-110885279D01*
X209468626Y-110884722D01*
X208878508Y-111128554D01*
X208426620Y-111579653D01*
X208181759Y-112169345D01*
X208181202Y-112807854D01*
X194714080Y-112807854D01*
X194714080Y-112126000D01*
X194642608Y-111746158D01*
X194418121Y-111397296D01*
X194075595Y-111163258D01*
X193669000Y-111080920D01*
X192269000Y-111080920D01*
X191889158Y-111152392D01*
X191540296Y-111376879D01*
X191306258Y-111719405D01*
X191223920Y-112126000D01*
X186926219Y-112126000D01*
X186812237Y-111850142D01*
X186327410Y-111364469D01*
X185693629Y-111101300D01*
X185007382Y-111100701D01*
X184373142Y-111362763D01*
X183887469Y-111847590D01*
X183624300Y-112481371D01*
X183623701Y-113167618D01*
X174714080Y-113167618D01*
X174714080Y-112126000D01*
X174642608Y-111746158D01*
X174418121Y-111397296D01*
X174075595Y-111163258D01*
X173669000Y-111080920D01*
X172269000Y-111080920D01*
X171889158Y-111152392D01*
X171540296Y-111376879D01*
X171306258Y-111719405D01*
X171223920Y-112126000D01*
X166926219Y-112126000D01*
X166812237Y-111850142D01*
X166327410Y-111364469D01*
X165693629Y-111101300D01*
X165007382Y-111100701D01*
X164373142Y-111362763D01*
X163887469Y-111847590D01*
X163624300Y-112481371D01*
X163623701Y-113167618D01*
X154714080Y-113167618D01*
X154714080Y-112126000D01*
X154642608Y-111746158D01*
X154418121Y-111397296D01*
X154075595Y-111163258D01*
X153669000Y-111080920D01*
X152269000Y-111080920D01*
X151889158Y-111152392D01*
X151540296Y-111376879D01*
X151306258Y-111719405D01*
X151223920Y-112126000D01*
X146926219Y-112126000D01*
X146812237Y-111850142D01*
X146327410Y-111364469D01*
X145693629Y-111101300D01*
X145007382Y-111100701D01*
X144373142Y-111362763D01*
X143887469Y-111847590D01*
X143624300Y-112481371D01*
X143623701Y-113167618D01*
X134714080Y-113167618D01*
X134714080Y-112126000D01*
X134642608Y-111746158D01*
X134418121Y-111397296D01*
X134075595Y-111163258D01*
X133669000Y-111080920D01*
X132269000Y-111080920D01*
X131889158Y-111152392D01*
X131540296Y-111376879D01*
X131306258Y-111719405D01*
X131223920Y-112126000D01*
X126926219Y-112126000D01*
X126812237Y-111850142D01*
X126327410Y-111364469D01*
X125693629Y-111101300D01*
X125007382Y-111100701D01*
X124373142Y-111362763D01*
X123887469Y-111847590D01*
X123624300Y-112481371D01*
X123623701Y-113167618D01*
X93756564Y-113167618D01*
X93284585Y-112025342D01*
X92012793Y-110751329D01*
X90350267Y-110060987D01*
X88550111Y-110059416D01*
X86886382Y-110746855D01*
X85612369Y-112018647D01*
X84922027Y-113681173D01*
X84920456Y-115481329D01*
X58026480Y-115481329D01*
X58026480Y-108082250D01*
X124494000Y-108082250D01*
X124494000Y-108300864D01*
X124513030Y-108346807D01*
X124548193Y-108381970D01*
X124594136Y-108401000D01*
X124787750Y-108401000D01*
X124819000Y-108369750D01*
X124819000Y-108051000D01*
X124525250Y-108051000D01*
X124494000Y-108082250D01*
X58026480Y-108082250D01*
X58026480Y-107351136D01*
X124494000Y-107351136D01*
X124494000Y-107569750D01*
X124525250Y-107601000D01*
X124819000Y-107601000D01*
X124819000Y-107282250D01*
X124787750Y-107251000D01*
X124594136Y-107251000D01*
X124548193Y-107270030D01*
X124513030Y-107305193D01*
X124494000Y-107351136D01*
X58026480Y-107351136D01*
X58026480Y-105376000D01*
X124523920Y-105376000D01*
X124523920Y-106276000D01*
X124595392Y-106655842D01*
X124819879Y-107004704D01*
X125162405Y-107238742D01*
X125245650Y-107255600D01*
X125219000Y-107282250D01*
X125219000Y-107601000D01*
X125419000Y-107601000D01*
X125419000Y-108051000D01*
X125219000Y-108051000D01*
X125219000Y-108369750D01*
X125250250Y-108401000D01*
X125443864Y-108401000D01*
X125489807Y-108381970D01*
X125493218Y-108378559D01*
X125545392Y-108655842D01*
X125769879Y-109004704D01*
X126112405Y-109238742D01*
X126519000Y-109321080D01*
X127319000Y-109321080D01*
X127698842Y-109249608D01*
X128047704Y-109025121D01*
X128281742Y-108682595D01*
X128364080Y-108276000D01*
X128364080Y-107376000D01*
X128292608Y-106996158D01*
X128068121Y-106647296D01*
X127725595Y-106413258D01*
X127399651Y-106347252D01*
X127414080Y-106276000D01*
X127414080Y-106176000D01*
X129623160Y-106176000D01*
X129623160Y-107476000D01*
X129694632Y-107855842D01*
X129919119Y-108204704D01*
X130261645Y-108438742D01*
X130668240Y-108521080D01*
X131368240Y-108521080D01*
X131748082Y-108449608D01*
X131969254Y-108307287D01*
X132161645Y-108438742D01*
X132568240Y-108521080D01*
X133268240Y-108521080D01*
X133648082Y-108449608D01*
X133996944Y-108225121D01*
X134094563Y-108082250D01*
X144494000Y-108082250D01*
X144494000Y-108300864D01*
X144513030Y-108346807D01*
X144548193Y-108381970D01*
X144594136Y-108401000D01*
X144787750Y-108401000D01*
X144819000Y-108369750D01*
X144819000Y-108051000D01*
X144525250Y-108051000D01*
X144494000Y-108082250D01*
X134094563Y-108082250D01*
X134230982Y-107882595D01*
X134313320Y-107476000D01*
X134313320Y-107351136D01*
X144494000Y-107351136D01*
X144494000Y-107569750D01*
X144525250Y-107601000D01*
X144819000Y-107601000D01*
X144819000Y-107282250D01*
X144787750Y-107251000D01*
X144594136Y-107251000D01*
X144548193Y-107270030D01*
X144513030Y-107305193D01*
X144494000Y-107351136D01*
X134313320Y-107351136D01*
X134313320Y-106176000D01*
X134241848Y-105796158D01*
X134017361Y-105447296D01*
X133913016Y-105376000D01*
X144523920Y-105376000D01*
X144523920Y-106276000D01*
X144595392Y-106655842D01*
X144819879Y-107004704D01*
X145162405Y-107238742D01*
X145245650Y-107255600D01*
X145219000Y-107282250D01*
X145219000Y-107601000D01*
X145419000Y-107601000D01*
X145419000Y-108051000D01*
X145219000Y-108051000D01*
X145219000Y-108369750D01*
X145250250Y-108401000D01*
X145443864Y-108401000D01*
X145489807Y-108381970D01*
X145493218Y-108378559D01*
X145545392Y-108655842D01*
X145769879Y-109004704D01*
X146112405Y-109238742D01*
X146519000Y-109321080D01*
X147319000Y-109321080D01*
X147698842Y-109249608D01*
X148047704Y-109025121D01*
X148281742Y-108682595D01*
X148364080Y-108276000D01*
X148364080Y-107376000D01*
X148292608Y-106996158D01*
X148148161Y-106771680D01*
X152655880Y-106771680D01*
X152655880Y-108071680D01*
X152727352Y-108451522D01*
X152951839Y-108800384D01*
X153294365Y-109034422D01*
X153700960Y-109116760D01*
X154400960Y-109116760D01*
X154780802Y-109045288D01*
X155001974Y-108902967D01*
X155194365Y-109034422D01*
X155600960Y-109116760D01*
X156300960Y-109116760D01*
X156680802Y-109045288D01*
X157029664Y-108820801D01*
X157263702Y-108478275D01*
X157343899Y-108082250D01*
X164494000Y-108082250D01*
X164494000Y-108300864D01*
X164513030Y-108346807D01*
X164548193Y-108381970D01*
X164594136Y-108401000D01*
X164787750Y-108401000D01*
X164819000Y-108369750D01*
X164819000Y-108051000D01*
X164525250Y-108051000D01*
X164494000Y-108082250D01*
X157343899Y-108082250D01*
X157346040Y-108071680D01*
X157346040Y-107351136D01*
X164494000Y-107351136D01*
X164494000Y-107569750D01*
X164525250Y-107601000D01*
X164819000Y-107601000D01*
X164819000Y-107282250D01*
X164787750Y-107251000D01*
X164594136Y-107251000D01*
X164548193Y-107270030D01*
X164513030Y-107305193D01*
X164494000Y-107351136D01*
X157346040Y-107351136D01*
X157346040Y-106771680D01*
X157274568Y-106391838D01*
X157050081Y-106042976D01*
X156707555Y-105808938D01*
X156300960Y-105726600D01*
X155600960Y-105726600D01*
X155221118Y-105798072D01*
X154999946Y-105940393D01*
X154807555Y-105808938D01*
X154400960Y-105726600D01*
X153700960Y-105726600D01*
X153321118Y-105798072D01*
X152972256Y-106022559D01*
X152738218Y-106365085D01*
X152655880Y-106771680D01*
X148148161Y-106771680D01*
X148068121Y-106647296D01*
X147725595Y-106413258D01*
X147399651Y-106347252D01*
X147414080Y-106276000D01*
X147414080Y-105376000D01*
X164523920Y-105376000D01*
X164523920Y-106276000D01*
X164595392Y-106655842D01*
X164819879Y-107004704D01*
X165162405Y-107238742D01*
X165245650Y-107255600D01*
X165219000Y-107282250D01*
X165219000Y-107601000D01*
X165419000Y-107601000D01*
X165419000Y-108051000D01*
X165219000Y-108051000D01*
X165219000Y-108369750D01*
X165250250Y-108401000D01*
X165443864Y-108401000D01*
X165489807Y-108381970D01*
X165493218Y-108378559D01*
X165545392Y-108655842D01*
X165769879Y-109004704D01*
X166112405Y-109238742D01*
X166519000Y-109321080D01*
X167319000Y-109321080D01*
X167698842Y-109249608D01*
X168047704Y-109025121D01*
X168281742Y-108682595D01*
X168364080Y-108276000D01*
X168364080Y-107376000D01*
X168292608Y-106996158D01*
X168068121Y-106647296D01*
X167725595Y-106413258D01*
X167399651Y-106347252D01*
X167414080Y-106276000D01*
X167414080Y-106176000D01*
X170623920Y-106176000D01*
X170623920Y-107476000D01*
X170695392Y-107855842D01*
X170919879Y-108204704D01*
X171262405Y-108438742D01*
X171669000Y-108521080D01*
X172369000Y-108521080D01*
X172748842Y-108449608D01*
X172970014Y-108307287D01*
X173162405Y-108438742D01*
X173569000Y-108521080D01*
X174269000Y-108521080D01*
X174648842Y-108449608D01*
X174997704Y-108225121D01*
X175095323Y-108082250D01*
X184494000Y-108082250D01*
X184494000Y-108300864D01*
X184513030Y-108346807D01*
X184548193Y-108381970D01*
X184594136Y-108401000D01*
X184787750Y-108401000D01*
X184819000Y-108369750D01*
X184819000Y-108051000D01*
X184525250Y-108051000D01*
X184494000Y-108082250D01*
X175095323Y-108082250D01*
X175231742Y-107882595D01*
X175314080Y-107476000D01*
X175314080Y-107351136D01*
X184494000Y-107351136D01*
X184494000Y-107569750D01*
X184525250Y-107601000D01*
X184819000Y-107601000D01*
X184819000Y-107282250D01*
X184787750Y-107251000D01*
X184594136Y-107251000D01*
X184548193Y-107270030D01*
X184513030Y-107305193D01*
X184494000Y-107351136D01*
X175314080Y-107351136D01*
X175314080Y-106176000D01*
X175242608Y-105796158D01*
X175018121Y-105447296D01*
X174913776Y-105376000D01*
X184523920Y-105376000D01*
X184523920Y-106276000D01*
X184595392Y-106655842D01*
X184819879Y-107004704D01*
X185162405Y-107238742D01*
X185245650Y-107255600D01*
X185219000Y-107282250D01*
X185219000Y-107601000D01*
X185419000Y-107601000D01*
X185419000Y-108051000D01*
X185219000Y-108051000D01*
X185219000Y-108369750D01*
X185250250Y-108401000D01*
X185443864Y-108401000D01*
X185489807Y-108381970D01*
X185493218Y-108378559D01*
X185545392Y-108655842D01*
X185769879Y-109004704D01*
X186112405Y-109238742D01*
X186519000Y-109321080D01*
X187319000Y-109321080D01*
X187698842Y-109249608D01*
X188047704Y-109025121D01*
X188281742Y-108682595D01*
X188364080Y-108276000D01*
X188364080Y-107376000D01*
X188292608Y-106996158D01*
X188068121Y-106647296D01*
X187725595Y-106413258D01*
X187399651Y-106347252D01*
X187414080Y-106276000D01*
X187414080Y-106176000D01*
X190623920Y-106176000D01*
X190623920Y-107476000D01*
X190695392Y-107855842D01*
X190919879Y-108204704D01*
X191262405Y-108438742D01*
X191669000Y-108521080D01*
X192369000Y-108521080D01*
X192748842Y-108449608D01*
X192970014Y-108307287D01*
X193162405Y-108438742D01*
X193569000Y-108521080D01*
X194269000Y-108521080D01*
X194648842Y-108449608D01*
X194997704Y-108225121D01*
X195231742Y-107882595D01*
X195314080Y-107476000D01*
X195314080Y-106176000D01*
X195242608Y-105796158D01*
X195018121Y-105447296D01*
X194675595Y-105213258D01*
X194269000Y-105130920D01*
X193569000Y-105130920D01*
X193189158Y-105202392D01*
X192967986Y-105344713D01*
X192775595Y-105213258D01*
X192369000Y-105130920D01*
X191669000Y-105130920D01*
X191289158Y-105202392D01*
X190940296Y-105426879D01*
X190706258Y-105769405D01*
X190623920Y-106176000D01*
X187414080Y-106176000D01*
X187414080Y-105376000D01*
X187342608Y-104996158D01*
X187267863Y-104880000D01*
X209460053Y-104880000D01*
X209606585Y-105616666D01*
X210023872Y-106241181D01*
X210037071Y-106250000D01*
X210023872Y-106258819D01*
X209606585Y-106883334D01*
X209460053Y-107620000D01*
X209606585Y-108356666D01*
X210023872Y-108981181D01*
X210648387Y-109398468D01*
X211385053Y-109545000D01*
X212887907Y-109545000D01*
X213624573Y-109398468D01*
X214249088Y-108981181D01*
X214666375Y-108356666D01*
X214812907Y-107620000D01*
X214666375Y-106883334D01*
X214249088Y-106258819D01*
X214235889Y-106250000D01*
X214249088Y-106241181D01*
X214666375Y-105616666D01*
X214812907Y-104880000D01*
X214666375Y-104143334D01*
X214249088Y-103518819D01*
X213624573Y-103101532D01*
X212887907Y-102955000D01*
X211385053Y-102955000D01*
X210648387Y-103101532D01*
X210023872Y-103518819D01*
X209606585Y-104143334D01*
X209460053Y-104880000D01*
X187267863Y-104880000D01*
X187118121Y-104647296D01*
X186775595Y-104413258D01*
X186369000Y-104330920D01*
X185569000Y-104330920D01*
X185189158Y-104402392D01*
X184840296Y-104626879D01*
X184606258Y-104969405D01*
X184523920Y-105376000D01*
X174913776Y-105376000D01*
X174675595Y-105213258D01*
X174269000Y-105130920D01*
X173569000Y-105130920D01*
X173189158Y-105202392D01*
X172967986Y-105344713D01*
X172775595Y-105213258D01*
X172369000Y-105130920D01*
X171669000Y-105130920D01*
X171289158Y-105202392D01*
X170940296Y-105426879D01*
X170706258Y-105769405D01*
X170623920Y-106176000D01*
X167414080Y-106176000D01*
X167414080Y-105376000D01*
X167342608Y-104996158D01*
X167118121Y-104647296D01*
X166775595Y-104413258D01*
X166369000Y-104330920D01*
X165569000Y-104330920D01*
X165189158Y-104402392D01*
X164840296Y-104626879D01*
X164606258Y-104969405D01*
X164523920Y-105376000D01*
X147414080Y-105376000D01*
X147342608Y-104996158D01*
X147118121Y-104647296D01*
X146775595Y-104413258D01*
X146369000Y-104330920D01*
X145569000Y-104330920D01*
X145189158Y-104402392D01*
X144840296Y-104626879D01*
X144606258Y-104969405D01*
X144523920Y-105376000D01*
X133913016Y-105376000D01*
X133674835Y-105213258D01*
X133268240Y-105130920D01*
X132568240Y-105130920D01*
X132188398Y-105202392D01*
X131967226Y-105344713D01*
X131774835Y-105213258D01*
X131368240Y-105130920D01*
X130668240Y-105130920D01*
X130288398Y-105202392D01*
X129939536Y-105426879D01*
X129705498Y-105769405D01*
X129623160Y-106176000D01*
X127414080Y-106176000D01*
X127414080Y-105376000D01*
X127342608Y-104996158D01*
X127118121Y-104647296D01*
X126775595Y-104413258D01*
X126369000Y-104330920D01*
X125569000Y-104330920D01*
X125189158Y-104402392D01*
X124840296Y-104626879D01*
X124606258Y-104969405D01*
X124523920Y-105376000D01*
X58026480Y-105376000D01*
X58026480Y-99307854D01*
X208181202Y-99307854D01*
X208425034Y-99897972D01*
X208536666Y-100009799D01*
X208426620Y-100119653D01*
X208181759Y-100709345D01*
X208181202Y-101347854D01*
X208425034Y-101937972D01*
X208876133Y-102389860D01*
X209465825Y-102634721D01*
X210104334Y-102635278D01*
X210694452Y-102391446D01*
X211146340Y-101940347D01*
X211391201Y-101350655D01*
X211391215Y-101334881D01*
X211426133Y-101369860D01*
X212015825Y-101614721D01*
X212654334Y-101615278D01*
X213244452Y-101371446D01*
X213696340Y-100920347D01*
X213941201Y-100330655D01*
X213941758Y-99692146D01*
X213697926Y-99102028D01*
X213586294Y-98990201D01*
X213696340Y-98880347D01*
X213941201Y-98290655D01*
X213941758Y-97652146D01*
X213697926Y-97062028D01*
X213246827Y-96610140D01*
X212657135Y-96365279D01*
X212018626Y-96364722D01*
X211428508Y-96608554D01*
X210976620Y-97059653D01*
X210731759Y-97649345D01*
X210731745Y-97665119D01*
X210696827Y-97630140D01*
X210107135Y-97385279D01*
X209468626Y-97384722D01*
X208878508Y-97628554D01*
X208426620Y-98079653D01*
X208181759Y-98669345D01*
X208181202Y-99307854D01*
X58026480Y-99307854D01*
X58026480Y-93264109D01*
X133185507Y-93264109D01*
X133688514Y-94481480D01*
X134619101Y-95413692D01*
X135835592Y-95918824D01*
X137152789Y-95919973D01*
X138370160Y-95416966D01*
X139302372Y-94486379D01*
X139432196Y-94173728D01*
X139752080Y-94173728D01*
X139752080Y-94653072D01*
X139891000Y-95351469D01*
X140179607Y-95783400D01*
X139891000Y-96215331D01*
X139752080Y-96913728D01*
X139752080Y-97393072D01*
X139891000Y-98091469D01*
X140286610Y-98683542D01*
X140878683Y-99079152D01*
X141577080Y-99218072D01*
X142275477Y-99079152D01*
X142847080Y-98697220D01*
X143418683Y-99079152D01*
X144117080Y-99218072D01*
X144815477Y-99079152D01*
X145387080Y-98697220D01*
X145958683Y-99079152D01*
X146657080Y-99218072D01*
X147355477Y-99079152D01*
X147927080Y-98697220D01*
X148498683Y-99079152D01*
X149197080Y-99218072D01*
X149895477Y-99079152D01*
X150467080Y-98697220D01*
X151038683Y-99079152D01*
X151737080Y-99218072D01*
X152435477Y-99079152D01*
X153007080Y-98697220D01*
X153578683Y-99079152D01*
X154277080Y-99218072D01*
X154975477Y-99079152D01*
X155547080Y-98697220D01*
X156118683Y-99079152D01*
X156817080Y-99218072D01*
X157515477Y-99079152D01*
X158087080Y-98697220D01*
X158658683Y-99079152D01*
X159357080Y-99218072D01*
X160055477Y-99079152D01*
X160627080Y-98697220D01*
X161198683Y-99079152D01*
X161897080Y-99218072D01*
X162595477Y-99079152D01*
X163167080Y-98697220D01*
X163738683Y-99079152D01*
X164437080Y-99218072D01*
X165135477Y-99079152D01*
X165707080Y-98697220D01*
X166278683Y-99079152D01*
X166977080Y-99218072D01*
X167675477Y-99079152D01*
X168247080Y-98697220D01*
X168818683Y-99079152D01*
X169517080Y-99218072D01*
X170215477Y-99079152D01*
X170787080Y-98697220D01*
X171358683Y-99079152D01*
X172057080Y-99218072D01*
X172755477Y-99079152D01*
X173327080Y-98697220D01*
X173898683Y-99079152D01*
X174597080Y-99218072D01*
X175295477Y-99079152D01*
X175867080Y-98697220D01*
X176438683Y-99079152D01*
X177137080Y-99218072D01*
X177835477Y-99079152D01*
X178407080Y-98697220D01*
X178978683Y-99079152D01*
X179677080Y-99218072D01*
X180375477Y-99079152D01*
X180947080Y-98697220D01*
X181518683Y-99079152D01*
X182217080Y-99218072D01*
X182915477Y-99079152D01*
X183487080Y-98697220D01*
X184058683Y-99079152D01*
X184757080Y-99218072D01*
X185455477Y-99079152D01*
X186027080Y-98697220D01*
X186598683Y-99079152D01*
X187297080Y-99218072D01*
X187995477Y-99079152D01*
X188567080Y-98697220D01*
X189138683Y-99079152D01*
X189837080Y-99218072D01*
X190535477Y-99079152D01*
X191107080Y-98697220D01*
X191678683Y-99079152D01*
X192377080Y-99218072D01*
X193075477Y-99079152D01*
X193647080Y-98697220D01*
X194218683Y-99079152D01*
X194917080Y-99218072D01*
X195615477Y-99079152D01*
X196131140Y-98734597D01*
X196250485Y-98816142D01*
X196657080Y-98898480D01*
X198257080Y-98898480D01*
X198636922Y-98827008D01*
X198985784Y-98602521D01*
X199219822Y-98259995D01*
X199302160Y-97853400D01*
X199302160Y-96624624D01*
X199728514Y-97656480D01*
X200659101Y-98588692D01*
X201875592Y-99093824D01*
X203192789Y-99094973D01*
X204410160Y-98591966D01*
X205342372Y-97661379D01*
X205847504Y-96444888D01*
X205848653Y-95127691D01*
X205345646Y-93910320D01*
X204415059Y-92978108D01*
X203198568Y-92472976D01*
X201881371Y-92471827D01*
X200664000Y-92974834D01*
X199731788Y-93905421D01*
X199226656Y-95121912D01*
X199226007Y-95866283D01*
X199016608Y-95540868D01*
X199143160Y-95351469D01*
X199282080Y-94653072D01*
X199282080Y-94173728D01*
X199143160Y-93475331D01*
X198747550Y-92883258D01*
X198155477Y-92487648D01*
X197457080Y-92348728D01*
X196758683Y-92487648D01*
X196187080Y-92869580D01*
X195615477Y-92487648D01*
X194917080Y-92348728D01*
X194218683Y-92487648D01*
X193647080Y-92869580D01*
X193075477Y-92487648D01*
X192377080Y-92348728D01*
X191678683Y-92487648D01*
X191107080Y-92869580D01*
X190535477Y-92487648D01*
X189837080Y-92348728D01*
X189138683Y-92487648D01*
X188567080Y-92869580D01*
X187995477Y-92487648D01*
X187297080Y-92348728D01*
X186598683Y-92487648D01*
X186027080Y-92869580D01*
X185455477Y-92487648D01*
X184757080Y-92348728D01*
X184058683Y-92487648D01*
X183487080Y-92869580D01*
X182915477Y-92487648D01*
X182217080Y-92348728D01*
X181518683Y-92487648D01*
X180947080Y-92869580D01*
X180375477Y-92487648D01*
X179677080Y-92348728D01*
X178978683Y-92487648D01*
X178407080Y-92869580D01*
X177835477Y-92487648D01*
X177137080Y-92348728D01*
X176438683Y-92487648D01*
X175867080Y-92869580D01*
X175295477Y-92487648D01*
X174597080Y-92348728D01*
X173898683Y-92487648D01*
X173327080Y-92869580D01*
X172755477Y-92487648D01*
X172057080Y-92348728D01*
X171358683Y-92487648D01*
X170787080Y-92869580D01*
X170215477Y-92487648D01*
X169517080Y-92348728D01*
X168818683Y-92487648D01*
X168247080Y-92869580D01*
X167675477Y-92487648D01*
X166977080Y-92348728D01*
X166278683Y-92487648D01*
X165707080Y-92869580D01*
X165135477Y-92487648D01*
X164437080Y-92348728D01*
X163738683Y-92487648D01*
X163167080Y-92869580D01*
X162595477Y-92487648D01*
X161897080Y-92348728D01*
X161198683Y-92487648D01*
X160627080Y-92869580D01*
X160055477Y-92487648D01*
X159357080Y-92348728D01*
X158658683Y-92487648D01*
X158066610Y-92883258D01*
X157671000Y-93475331D01*
X157606808Y-93798046D01*
X157399421Y-93534013D01*
X157342628Y-93452201D01*
X157217080Y-93414157D01*
X157217080Y-93938400D01*
X157312080Y-93938400D01*
X157312080Y-94888400D01*
X157217080Y-94888400D01*
X157217080Y-94908400D01*
X156417080Y-94908400D01*
X156417080Y-94888400D01*
X156322080Y-94888400D01*
X156322080Y-93938400D01*
X156417080Y-93938400D01*
X156417080Y-93414157D01*
X156291532Y-93452201D01*
X156234739Y-93534013D01*
X156027352Y-93798046D01*
X155963160Y-93475331D01*
X155567550Y-92883258D01*
X154975477Y-92487648D01*
X154277080Y-92348728D01*
X153578683Y-92487648D01*
X153007080Y-92869580D01*
X152435477Y-92487648D01*
X151737080Y-92348728D01*
X151038683Y-92487648D01*
X150467080Y-92869580D01*
X149895477Y-92487648D01*
X149197080Y-92348728D01*
X148498683Y-92487648D01*
X147927080Y-92869580D01*
X147355477Y-92487648D01*
X146657080Y-92348728D01*
X145958683Y-92487648D01*
X145387080Y-92869580D01*
X144815477Y-92487648D01*
X144117080Y-92348728D01*
X143418683Y-92487648D01*
X142847080Y-92869580D01*
X142275477Y-92487648D01*
X141577080Y-92348728D01*
X140878683Y-92487648D01*
X140286610Y-92883258D01*
X139891000Y-93475331D01*
X139752080Y-94173728D01*
X139432196Y-94173728D01*
X139807504Y-93269888D01*
X139808653Y-91952691D01*
X139572023Y-91380000D01*
X209460053Y-91380000D01*
X209606585Y-92116666D01*
X210023872Y-92741181D01*
X210037071Y-92750000D01*
X210023872Y-92758819D01*
X209606585Y-93383334D01*
X209460053Y-94120000D01*
X209606585Y-94856666D01*
X210023872Y-95481181D01*
X210648387Y-95898468D01*
X211385053Y-96045000D01*
X212887907Y-96045000D01*
X213624573Y-95898468D01*
X214249088Y-95481181D01*
X214666375Y-94856666D01*
X214812907Y-94120000D01*
X214666375Y-93383334D01*
X214249088Y-92758819D01*
X214235889Y-92750000D01*
X214249088Y-92741181D01*
X214666375Y-92116666D01*
X214812907Y-91380000D01*
X214666375Y-90643334D01*
X214249088Y-90018819D01*
X213624573Y-89601532D01*
X212887907Y-89455000D01*
X211385053Y-89455000D01*
X210648387Y-89601532D01*
X210023872Y-90018819D01*
X209606585Y-90643334D01*
X209460053Y-91380000D01*
X139572023Y-91380000D01*
X139305646Y-90735320D01*
X138375059Y-89803108D01*
X137158568Y-89297976D01*
X135841371Y-89296827D01*
X134624000Y-89799834D01*
X133691788Y-90730421D01*
X133186656Y-91946912D01*
X133185507Y-93264109D01*
X58026480Y-93264109D01*
X58026480Y-85807854D01*
X208181202Y-85807854D01*
X208425034Y-86397972D01*
X208536666Y-86509799D01*
X208426620Y-86619653D01*
X208181759Y-87209345D01*
X208181202Y-87847854D01*
X208425034Y-88437972D01*
X208876133Y-88889860D01*
X209465825Y-89134721D01*
X210104334Y-89135278D01*
X210694452Y-88891446D01*
X211146340Y-88440347D01*
X211391201Y-87850655D01*
X211391215Y-87834881D01*
X211426133Y-87869860D01*
X212015825Y-88114721D01*
X212654334Y-88115278D01*
X213244452Y-87871446D01*
X213696340Y-87420347D01*
X213941201Y-86830655D01*
X213941758Y-86192146D01*
X213697926Y-85602028D01*
X213586294Y-85490201D01*
X213696340Y-85380347D01*
X213941201Y-84790655D01*
X213941758Y-84152146D01*
X213697926Y-83562028D01*
X213246827Y-83110140D01*
X212657135Y-82865279D01*
X212018626Y-82864722D01*
X211428508Y-83108554D01*
X210976620Y-83559653D01*
X210731759Y-84149345D01*
X210731745Y-84165119D01*
X210696827Y-84130140D01*
X210107135Y-83885279D01*
X209468626Y-83884722D01*
X208878508Y-84128554D01*
X208426620Y-84579653D01*
X208181759Y-85169345D01*
X208181202Y-85807854D01*
X58026480Y-85807854D01*
X58026480Y-80620000D01*
X209460053Y-80620000D01*
X209606585Y-81356666D01*
X210023872Y-81981181D01*
X210648387Y-82398468D01*
X211385053Y-82545000D01*
X212887907Y-82545000D01*
X213624573Y-82398468D01*
X214249088Y-81981181D01*
X214666375Y-81356666D01*
X214812907Y-80620000D01*
X214666375Y-79883334D01*
X214249088Y-79258819D01*
X213624573Y-78841532D01*
X212887907Y-78695000D01*
X211385053Y-78695000D01*
X210648387Y-78841532D01*
X210023872Y-79258819D01*
X209606585Y-79883334D01*
X209460053Y-80620000D01*
X58026480Y-80620000D01*
X58026480Y-76381329D01*
X84920456Y-76381329D01*
X85607895Y-78045058D01*
X86879687Y-79319071D01*
X88542213Y-80009413D01*
X90342369Y-80010984D01*
X92006098Y-79323545D01*
X93280111Y-78051753D01*
X93970453Y-76389227D01*
X93972024Y-74589071D01*
X93438476Y-73297786D01*
X207497885Y-73297786D01*
X207660182Y-73382775D01*
X208147091Y-73403161D01*
X208249578Y-73382775D01*
X208411875Y-73297786D01*
X212497885Y-73297786D01*
X212660182Y-73382775D01*
X213147091Y-73403161D01*
X213249578Y-73382775D01*
X213411875Y-73297786D01*
X212954880Y-72840791D01*
X212497885Y-73297786D01*
X208411875Y-73297786D01*
X207954880Y-72840791D01*
X207497885Y-73297786D01*
X93438476Y-73297786D01*
X93284585Y-72925342D01*
X92721478Y-72361251D01*
X206720759Y-72361251D01*
X206741145Y-72463738D01*
X206826134Y-72626035D01*
X207283129Y-72169040D01*
X208626631Y-72169040D01*
X209083626Y-72626035D01*
X209168615Y-72463738D01*
X209172905Y-72361251D01*
X211720759Y-72361251D01*
X211741145Y-72463738D01*
X211826134Y-72626035D01*
X212283129Y-72169040D01*
X213626631Y-72169040D01*
X214083626Y-72626035D01*
X214168615Y-72463738D01*
X214189001Y-71976829D01*
X214168615Y-71874342D01*
X214083626Y-71712045D01*
X213626631Y-72169040D01*
X212283129Y-72169040D01*
X211826134Y-71712045D01*
X211741145Y-71874342D01*
X211720759Y-72361251D01*
X209172905Y-72361251D01*
X209189001Y-71976829D01*
X209168615Y-71874342D01*
X209083626Y-71712045D01*
X208626631Y-72169040D01*
X207283129Y-72169040D01*
X206826134Y-71712045D01*
X206741145Y-71874342D01*
X206720759Y-72361251D01*
X92721478Y-72361251D01*
X92012793Y-71651329D01*
X90541260Y-71040294D01*
X207497885Y-71040294D01*
X207954880Y-71497289D01*
X208411875Y-71040294D01*
X208249578Y-70955305D01*
X207762669Y-70934919D01*
X207660182Y-70955305D01*
X207497885Y-71040294D01*
X90541260Y-71040294D01*
X90350267Y-70960987D01*
X88550111Y-70959416D01*
X86886382Y-71646855D01*
X85612369Y-72918647D01*
X84922027Y-74581173D01*
X84920456Y-76381329D01*
X58026480Y-76381329D01*
X58026480Y-72059273D01*
X70687937Y-72059273D01*
X70808678Y-72259734D01*
X70915669Y-72382661D01*
X71002200Y-72394553D01*
X71002200Y-71968500D01*
X71502200Y-71968500D01*
X71502200Y-72394553D01*
X71588731Y-72382661D01*
X71695722Y-72259734D01*
X71816463Y-72059273D01*
X77687937Y-72059273D01*
X77808678Y-72259734D01*
X77915669Y-72382661D01*
X78002200Y-72394553D01*
X78002200Y-71968500D01*
X78502200Y-71968500D01*
X78502200Y-72394553D01*
X78588731Y-72382661D01*
X78695722Y-72259734D01*
X78816463Y-72059273D01*
X78810065Y-71968500D01*
X78502200Y-71968500D01*
X78002200Y-71968500D01*
X77694335Y-71968500D01*
X77687937Y-72059273D01*
X71816463Y-72059273D01*
X71810065Y-71968500D01*
X71502200Y-71968500D01*
X71002200Y-71968500D01*
X70694335Y-71968500D01*
X70687937Y-72059273D01*
X58026480Y-72059273D01*
X58026480Y-71102727D01*
X70687937Y-71102727D01*
X70694335Y-71193500D01*
X71002200Y-71193500D01*
X71502200Y-71193500D01*
X71810065Y-71193500D01*
X71816463Y-71102727D01*
X77687937Y-71102727D01*
X77694335Y-71193500D01*
X78002200Y-71193500D01*
X78502200Y-71193500D01*
X78810065Y-71193500D01*
X78816463Y-71102727D01*
X78695722Y-70902266D01*
X78588731Y-70779339D01*
X78502200Y-70767447D01*
X78502200Y-71193500D01*
X78002200Y-71193500D01*
X78002200Y-70767447D01*
X77915669Y-70779339D01*
X77808678Y-70902266D01*
X77687937Y-71102727D01*
X71816463Y-71102727D01*
X71695722Y-70902266D01*
X71588731Y-70779339D01*
X71502200Y-70767447D01*
X71502200Y-71193500D01*
X71002200Y-71193500D01*
X71002200Y-70767447D01*
X70915669Y-70779339D01*
X70808678Y-70902266D01*
X70687937Y-71102727D01*
X58026480Y-71102727D01*
X58026480Y-70089874D01*
X208329512Y-70089874D01*
X208652342Y-70871183D01*
X209249593Y-71469477D01*
X210030337Y-71793670D01*
X210875714Y-71794408D01*
X211657023Y-71471578D01*
X212089060Y-71040294D01*
X212497885Y-71040294D01*
X212954880Y-71497289D01*
X213411875Y-71040294D01*
X213249578Y-70955305D01*
X212762669Y-70934919D01*
X212660182Y-70955305D01*
X212497885Y-71040294D01*
X212089060Y-71040294D01*
X212255317Y-70874327D01*
X212579510Y-70093583D01*
X212580248Y-69248206D01*
X212257418Y-68466897D01*
X212088602Y-68297786D01*
X212497885Y-68297786D01*
X212660182Y-68382775D01*
X213147091Y-68403161D01*
X213249578Y-68382775D01*
X213411875Y-68297786D01*
X212954880Y-67840791D01*
X212497885Y-68297786D01*
X212088602Y-68297786D01*
X211660167Y-67868603D01*
X210879423Y-67544410D01*
X210034046Y-67543672D01*
X209252737Y-67866502D01*
X208654443Y-68463753D01*
X208330250Y-69244497D01*
X208329512Y-70089874D01*
X58026480Y-70089874D01*
X58026480Y-69118500D01*
X71585412Y-69118500D01*
X71595144Y-69201770D01*
X71673080Y-69270253D01*
X71854706Y-69404840D01*
X71939700Y-69405857D01*
X71939700Y-69118500D01*
X72564700Y-69118500D01*
X72564700Y-69405857D01*
X72649694Y-69404840D01*
X72831320Y-69270253D01*
X72909256Y-69201770D01*
X72918988Y-69118500D01*
X76585412Y-69118500D01*
X76595144Y-69201770D01*
X76673080Y-69270253D01*
X76854706Y-69404840D01*
X76939700Y-69405857D01*
X76939700Y-69118500D01*
X77564700Y-69118500D01*
X77564700Y-69405857D01*
X77649694Y-69404840D01*
X77831320Y-69270253D01*
X77909256Y-69201770D01*
X77918988Y-69118500D01*
X77564700Y-69118500D01*
X76939700Y-69118500D01*
X76585412Y-69118500D01*
X72918988Y-69118500D01*
X72564700Y-69118500D01*
X71939700Y-69118500D01*
X71585412Y-69118500D01*
X58026480Y-69118500D01*
X58026480Y-68643500D01*
X71585412Y-68643500D01*
X71939700Y-68643500D01*
X72564700Y-68643500D01*
X72918988Y-68643500D01*
X76585412Y-68643500D01*
X76939700Y-68643500D01*
X77564700Y-68643500D01*
X77918988Y-68643500D01*
X77909256Y-68560230D01*
X77831320Y-68491747D01*
X77649694Y-68357160D01*
X77564700Y-68356143D01*
X77564700Y-68643500D01*
X76939700Y-68643500D01*
X76939700Y-68356143D01*
X76854706Y-68357160D01*
X76673080Y-68491747D01*
X76595144Y-68560230D01*
X76585412Y-68643500D01*
X72918988Y-68643500D01*
X72909256Y-68560230D01*
X72831320Y-68491747D01*
X72649694Y-68357160D01*
X72564700Y-68356143D01*
X72564700Y-68643500D01*
X71939700Y-68643500D01*
X71939700Y-68356143D01*
X71854706Y-68357160D01*
X71673080Y-68491747D01*
X71595144Y-68560230D01*
X71585412Y-68643500D01*
X58026480Y-68643500D01*
X58026480Y-68297786D01*
X207497885Y-68297786D01*
X207660182Y-68382775D01*
X208147091Y-68403161D01*
X208249578Y-68382775D01*
X208411875Y-68297786D01*
X207954880Y-67840791D01*
X207497885Y-68297786D01*
X58026480Y-68297786D01*
X58026480Y-67361251D01*
X206720759Y-67361251D01*
X206741145Y-67463738D01*
X206826134Y-67626035D01*
X207283129Y-67169040D01*
X208626631Y-67169040D01*
X209083626Y-67626035D01*
X209168615Y-67463738D01*
X209172905Y-67361251D01*
X211720759Y-67361251D01*
X211741145Y-67463738D01*
X211826134Y-67626035D01*
X212283129Y-67169040D01*
X213626631Y-67169040D01*
X214083626Y-67626035D01*
X214168615Y-67463738D01*
X214189001Y-66976829D01*
X214168615Y-66874342D01*
X214083626Y-66712045D01*
X213626631Y-67169040D01*
X212283129Y-67169040D01*
X211826134Y-66712045D01*
X211741145Y-66874342D01*
X211720759Y-67361251D01*
X209172905Y-67361251D01*
X209189001Y-66976829D01*
X209168615Y-66874342D01*
X209083626Y-66712045D01*
X208626631Y-67169040D01*
X207283129Y-67169040D01*
X206826134Y-66712045D01*
X206741145Y-66874342D01*
X206720759Y-67361251D01*
X58026480Y-67361251D01*
X58026480Y-66040294D01*
X207497885Y-66040294D01*
X207954880Y-66497289D01*
X208411875Y-66040294D01*
X212497885Y-66040294D01*
X212954880Y-66497289D01*
X213411875Y-66040294D01*
X213249578Y-65955305D01*
X212762669Y-65934919D01*
X212660182Y-65955305D01*
X212497885Y-66040294D01*
X208411875Y-66040294D01*
X208249578Y-65955305D01*
X207762669Y-65934919D01*
X207660182Y-65955305D01*
X207497885Y-66040294D01*
X58026480Y-66040294D01*
X58026480Y-61988772D01*
X64730019Y-61988772D01*
X64944739Y-62116940D01*
X65584771Y-62207917D01*
X66042141Y-62116940D01*
X66256861Y-61988772D01*
X65493440Y-61225351D01*
X64730019Y-61988772D01*
X58026480Y-61988772D01*
X58026480Y-60644931D01*
X63839123Y-60644931D01*
X63930100Y-61102301D01*
X64058268Y-61317021D01*
X64821689Y-60553600D01*
X66165191Y-60553600D01*
X66928612Y-61317021D01*
X67056780Y-61102301D01*
X67147757Y-60462269D01*
X67098382Y-60214045D01*
X208276021Y-60214045D01*
X208678609Y-61188384D01*
X209423415Y-61934491D01*
X210397050Y-62338779D01*
X211451285Y-62339699D01*
X212425624Y-61937111D01*
X213171731Y-61192305D01*
X213576019Y-60218670D01*
X213576939Y-59164435D01*
X213174351Y-58190096D01*
X212429545Y-57443989D01*
X211455910Y-57039701D01*
X210401675Y-57038781D01*
X209427336Y-57441369D01*
X208681229Y-58186175D01*
X208276941Y-59159810D01*
X208276021Y-60214045D01*
X67098382Y-60214045D01*
X67056780Y-60004899D01*
X66928612Y-59790179D01*
X66165191Y-60553600D01*
X64821689Y-60553600D01*
X64058268Y-59790179D01*
X63930100Y-60004899D01*
X63839123Y-60644931D01*
X58026480Y-60644931D01*
X58026480Y-59118428D01*
X64730019Y-59118428D01*
X65493440Y-59881849D01*
X66256861Y-59118428D01*
X66042141Y-58990260D01*
X65402109Y-58899283D01*
X64944739Y-58990260D01*
X64730019Y-59118428D01*
X58026480Y-59118428D01*
X58026480Y-58316720D01*
X67880650Y-58316720D01*
X67991008Y-58378920D01*
X68335872Y-58378920D01*
X68446230Y-58316720D01*
X68163440Y-58033930D01*
X67880650Y-58316720D01*
X58026480Y-58316720D01*
X58026480Y-57331168D01*
X67288120Y-57331168D01*
X67288120Y-57676032D01*
X67350320Y-57786390D01*
X67633110Y-57503600D01*
X68693770Y-57503600D01*
X68976560Y-57786390D01*
X69038760Y-57676032D01*
X69038760Y-57331168D01*
X68976560Y-57220810D01*
X68693770Y-57503600D01*
X67633110Y-57503600D01*
X67350320Y-57220810D01*
X67288120Y-57331168D01*
X58026480Y-57331168D01*
X58026480Y-50745120D01*
X66388133Y-50745120D01*
X66657791Y-51397743D01*
X66923211Y-51663626D01*
X66659546Y-51926831D01*
X66388749Y-52578982D01*
X66388133Y-53285120D01*
X66657791Y-53937743D01*
X66668211Y-53948181D01*
X66659546Y-53956831D01*
X66388749Y-54608982D01*
X66388133Y-55315120D01*
X66657791Y-55967743D01*
X67156671Y-56467494D01*
X67808822Y-56738291D01*
X67928565Y-56738395D01*
X68163440Y-56973270D01*
X68397905Y-56738805D01*
X68514960Y-56738907D01*
X69167583Y-56469249D01*
X69667334Y-55970369D01*
X69938131Y-55318218D01*
X69938747Y-54612080D01*
X69669089Y-53959457D01*
X69658669Y-53949019D01*
X69667334Y-53940369D01*
X69938131Y-53288218D01*
X69938747Y-52582080D01*
X69669089Y-51929457D01*
X69403669Y-51663574D01*
X69667334Y-51400369D01*
X69938131Y-50748218D01*
X69938747Y-50042080D01*
X69675181Y-49404200D01*
X115490720Y-49404200D01*
X115490720Y-53364200D01*
X115562192Y-53744042D01*
X115786679Y-54092904D01*
X116129205Y-54326942D01*
X116535800Y-54409280D01*
X118515800Y-54409280D01*
X118895642Y-54337808D01*
X119244504Y-54113321D01*
X119478542Y-53770795D01*
X119560880Y-53364200D01*
X119560880Y-50335329D01*
X120510800Y-50335329D01*
X120510800Y-52433071D01*
X120664183Y-53204178D01*
X121100980Y-53857891D01*
X121754693Y-54294688D01*
X122525800Y-54448071D01*
X123296907Y-54294688D01*
X123950620Y-53857891D01*
X124387417Y-53204178D01*
X124540800Y-52433071D01*
X124540800Y-51354109D01*
X133185507Y-51354109D01*
X133688514Y-52571480D01*
X134619101Y-53503692D01*
X135835592Y-54008824D01*
X137152789Y-54009973D01*
X138370160Y-53506966D01*
X139302372Y-52576379D01*
X139807504Y-51359888D01*
X139808653Y-50042691D01*
X139305646Y-48825320D01*
X138375059Y-47893108D01*
X137158568Y-47387976D01*
X135841371Y-47386827D01*
X134624000Y-47889834D01*
X133691788Y-48820421D01*
X133186656Y-50036912D01*
X133185507Y-51354109D01*
X124540800Y-51354109D01*
X124540800Y-50335329D01*
X124387417Y-49564222D01*
X123950620Y-48910509D01*
X123296907Y-48473712D01*
X122525800Y-48320329D01*
X121754693Y-48473712D01*
X121100980Y-48910509D01*
X120664183Y-49564222D01*
X120510800Y-50335329D01*
X119560880Y-50335329D01*
X119560880Y-49404200D01*
X119489408Y-49024358D01*
X119264921Y-48675496D01*
X118922395Y-48441458D01*
X118515800Y-48359120D01*
X116535800Y-48359120D01*
X116155958Y-48430592D01*
X115807096Y-48655079D01*
X115573058Y-48997605D01*
X115490720Y-49404200D01*
X69675181Y-49404200D01*
X69669089Y-49389457D01*
X69170209Y-48889706D01*
X68518058Y-48618909D01*
X67811920Y-48618293D01*
X67159297Y-48887951D01*
X66659546Y-49386831D01*
X66388749Y-50038982D01*
X66388133Y-50745120D01*
X58026480Y-50745120D01*
X58026480Y-48268772D01*
X64730019Y-48268772D01*
X64944739Y-48396940D01*
X65584771Y-48487917D01*
X66042141Y-48396940D01*
X66256861Y-48268772D01*
X65493440Y-47505351D01*
X64730019Y-48268772D01*
X58026480Y-48268772D01*
X58026480Y-46924931D01*
X63839123Y-46924931D01*
X63930100Y-47382301D01*
X64058268Y-47597021D01*
X64821689Y-46833600D01*
X66165191Y-46833600D01*
X66928612Y-47597021D01*
X67056780Y-47382301D01*
X67147757Y-46742269D01*
X67056780Y-46284899D01*
X66928612Y-46070179D01*
X66165191Y-46833600D01*
X64821689Y-46833600D01*
X64058268Y-46070179D01*
X63930100Y-46284899D01*
X63839123Y-46924931D01*
X58026480Y-46924931D01*
X58026480Y-45398428D01*
X64730019Y-45398428D01*
X65493440Y-46161849D01*
X65741561Y-45913728D01*
X139752080Y-45913728D01*
X139752080Y-46393072D01*
X139891000Y-47091469D01*
X140179607Y-47523400D01*
X139891000Y-47955331D01*
X139752080Y-48653728D01*
X139752080Y-49133072D01*
X139891000Y-49831469D01*
X140286610Y-50423542D01*
X140878683Y-50819152D01*
X141577080Y-50958072D01*
X142275477Y-50819152D01*
X142847080Y-50437220D01*
X143418683Y-50819152D01*
X144117080Y-50958072D01*
X144815477Y-50819152D01*
X145387080Y-50437220D01*
X145958683Y-50819152D01*
X146657080Y-50958072D01*
X147355477Y-50819152D01*
X147927080Y-50437220D01*
X148498683Y-50819152D01*
X149197080Y-50958072D01*
X149895477Y-50819152D01*
X150467080Y-50437220D01*
X151038683Y-50819152D01*
X151737080Y-50958072D01*
X152435477Y-50819152D01*
X153007080Y-50437220D01*
X153578683Y-50819152D01*
X154277080Y-50958072D01*
X154975477Y-50819152D01*
X155547080Y-50437220D01*
X156118683Y-50819152D01*
X156817080Y-50958072D01*
X157515477Y-50819152D01*
X158087080Y-50437220D01*
X158658683Y-50819152D01*
X159357080Y-50958072D01*
X160055477Y-50819152D01*
X160627080Y-50437220D01*
X161198683Y-50819152D01*
X161897080Y-50958072D01*
X162595477Y-50819152D01*
X163167080Y-50437220D01*
X163738683Y-50819152D01*
X164437080Y-50958072D01*
X165135477Y-50819152D01*
X165707080Y-50437220D01*
X166278683Y-50819152D01*
X166977080Y-50958072D01*
X167675477Y-50819152D01*
X168247080Y-50437220D01*
X168818683Y-50819152D01*
X169517080Y-50958072D01*
X170215477Y-50819152D01*
X170787080Y-50437220D01*
X171358683Y-50819152D01*
X172057080Y-50958072D01*
X172755477Y-50819152D01*
X173327080Y-50437220D01*
X173898683Y-50819152D01*
X174597080Y-50958072D01*
X175295477Y-50819152D01*
X175867080Y-50437220D01*
X176438683Y-50819152D01*
X177137080Y-50958072D01*
X177835477Y-50819152D01*
X178407080Y-50437220D01*
X178978683Y-50819152D01*
X179677080Y-50958072D01*
X180375477Y-50819152D01*
X180947080Y-50437220D01*
X181518683Y-50819152D01*
X182217080Y-50958072D01*
X182915477Y-50819152D01*
X183487080Y-50437220D01*
X184058683Y-50819152D01*
X184757080Y-50958072D01*
X185455477Y-50819152D01*
X186027080Y-50437220D01*
X186598683Y-50819152D01*
X187297080Y-50958072D01*
X187995477Y-50819152D01*
X188567080Y-50437220D01*
X189138683Y-50819152D01*
X189837080Y-50958072D01*
X190535477Y-50819152D01*
X191107080Y-50437220D01*
X191678683Y-50819152D01*
X192377080Y-50958072D01*
X193075477Y-50819152D01*
X193647080Y-50437220D01*
X194218683Y-50819152D01*
X194917080Y-50958072D01*
X195615477Y-50819152D01*
X196131140Y-50474597D01*
X196250485Y-50556142D01*
X196657080Y-50638480D01*
X198257080Y-50638480D01*
X198636922Y-50567008D01*
X198985784Y-50342521D01*
X199219822Y-49999995D01*
X199302160Y-49593400D01*
X199302160Y-48364624D01*
X199728514Y-49396480D01*
X200659101Y-50328692D01*
X201875592Y-50833824D01*
X202852698Y-50834676D01*
X202770240Y-51033257D01*
X202400089Y-50879557D01*
X201676048Y-50878925D01*
X201006880Y-51155419D01*
X200494459Y-51666947D01*
X200216797Y-52335631D01*
X200216165Y-53059672D01*
X200492659Y-53728840D01*
X200732611Y-53969210D01*
X200494459Y-54206947D01*
X200216797Y-54875631D01*
X200216165Y-55599672D01*
X200492659Y-56268840D01*
X200732611Y-56509210D01*
X200494459Y-56746947D01*
X200216797Y-57415631D01*
X200216165Y-58139672D01*
X200492659Y-58808840D01*
X201004187Y-59321261D01*
X201672871Y-59598923D01*
X202396912Y-59599555D01*
X203066080Y-59323061D01*
X203578501Y-58811533D01*
X203842720Y-58175223D01*
X204212871Y-58328923D01*
X204936912Y-58329555D01*
X205606080Y-58053061D01*
X206118501Y-57541533D01*
X206396163Y-56872849D01*
X206396795Y-56148808D01*
X206120301Y-55479640D01*
X205880349Y-55239270D01*
X206118501Y-55001533D01*
X206396163Y-54332849D01*
X206396795Y-53608808D01*
X206120301Y-52939640D01*
X205880349Y-52699270D01*
X206118501Y-52461533D01*
X206396163Y-51792849D01*
X206396795Y-51068808D01*
X206120301Y-50399640D01*
X205775309Y-50054045D01*
X208276021Y-50054045D01*
X208678609Y-51028384D01*
X209423415Y-51774491D01*
X210397050Y-52178779D01*
X211451285Y-52179699D01*
X212425624Y-51777111D01*
X213171731Y-51032305D01*
X213576019Y-50058670D01*
X213576939Y-49004435D01*
X213174351Y-48030096D01*
X212429545Y-47283989D01*
X211455910Y-46879701D01*
X210401675Y-46878781D01*
X209427336Y-47281369D01*
X208681229Y-48026175D01*
X208276941Y-48999810D01*
X208276021Y-50054045D01*
X205775309Y-50054045D01*
X205608773Y-49887219D01*
X205076916Y-49666372D01*
X205342372Y-49401379D01*
X205847504Y-48184888D01*
X205848653Y-46867691D01*
X205345646Y-45650320D01*
X204415059Y-44718108D01*
X203198568Y-44212976D01*
X201881371Y-44211827D01*
X200664000Y-44714834D01*
X199731788Y-45645421D01*
X199226656Y-46861912D01*
X199226007Y-47606283D01*
X199016608Y-47280868D01*
X199143160Y-47091469D01*
X199282080Y-46393072D01*
X199282080Y-45913728D01*
X199143160Y-45215331D01*
X198747550Y-44623258D01*
X198155477Y-44227648D01*
X197457080Y-44088728D01*
X196758683Y-44227648D01*
X196187080Y-44609580D01*
X195615477Y-44227648D01*
X194917080Y-44088728D01*
X194218683Y-44227648D01*
X193647080Y-44609580D01*
X193075477Y-44227648D01*
X192377080Y-44088728D01*
X191678683Y-44227648D01*
X191107080Y-44609580D01*
X190535477Y-44227648D01*
X189837080Y-44088728D01*
X189138683Y-44227648D01*
X188567080Y-44609580D01*
X187995477Y-44227648D01*
X187297080Y-44088728D01*
X186598683Y-44227648D01*
X186027080Y-44609580D01*
X185455477Y-44227648D01*
X184757080Y-44088728D01*
X184058683Y-44227648D01*
X183487080Y-44609580D01*
X182915477Y-44227648D01*
X182217080Y-44088728D01*
X181518683Y-44227648D01*
X180947080Y-44609580D01*
X180375477Y-44227648D01*
X179677080Y-44088728D01*
X178978683Y-44227648D01*
X178407080Y-44609580D01*
X177835477Y-44227648D01*
X177137080Y-44088728D01*
X176438683Y-44227648D01*
X175867080Y-44609580D01*
X175295477Y-44227648D01*
X174597080Y-44088728D01*
X173898683Y-44227648D01*
X173327080Y-44609580D01*
X172755477Y-44227648D01*
X172057080Y-44088728D01*
X171358683Y-44227648D01*
X170787080Y-44609580D01*
X170215477Y-44227648D01*
X169517080Y-44088728D01*
X168818683Y-44227648D01*
X168247080Y-44609580D01*
X167675477Y-44227648D01*
X166977080Y-44088728D01*
X166278683Y-44227648D01*
X165707080Y-44609580D01*
X165135477Y-44227648D01*
X164437080Y-44088728D01*
X163738683Y-44227648D01*
X163167080Y-44609580D01*
X162595477Y-44227648D01*
X161897080Y-44088728D01*
X161198683Y-44227648D01*
X160627080Y-44609580D01*
X160055477Y-44227648D01*
X159357080Y-44088728D01*
X158658683Y-44227648D01*
X158087080Y-44609580D01*
X157515477Y-44227648D01*
X156817080Y-44088728D01*
X156118683Y-44227648D01*
X155547080Y-44609580D01*
X154975477Y-44227648D01*
X154277080Y-44088728D01*
X153578683Y-44227648D01*
X153007080Y-44609580D01*
X152435477Y-44227648D01*
X151737080Y-44088728D01*
X151038683Y-44227648D01*
X150467080Y-44609580D01*
X149895477Y-44227648D01*
X149197080Y-44088728D01*
X148498683Y-44227648D01*
X147927080Y-44609580D01*
X147355477Y-44227648D01*
X146657080Y-44088728D01*
X145958683Y-44227648D01*
X145387080Y-44609580D01*
X144815477Y-44227648D01*
X144117080Y-44088728D01*
X143418683Y-44227648D01*
X142847080Y-44609580D01*
X142275477Y-44227648D01*
X141577080Y-44088728D01*
X140878683Y-44227648D01*
X140286610Y-44623258D01*
X139891000Y-45215331D01*
X139752080Y-45913728D01*
X65741561Y-45913728D01*
X66256861Y-45398428D01*
X66042141Y-45270260D01*
X65402109Y-45179283D01*
X64944739Y-45270260D01*
X64730019Y-45398428D01*
X58026480Y-45398428D01*
X58026480Y-39230280D01*
X215826480Y-39230280D01*
X215826480Y-137030280D01*
M02*
