G04 #@! TF.FileFunction,Copper,L2,Bot,Signal*
%FSLAX46Y46*%
G04 Gerber Fmt 4.6, Leading zero omitted, Abs format (unit mm)*
G04 Created by KiCad (PCBNEW 4.0.7-e2-6376~58~ubuntu16.04.1) date Wed Jul 11 08:10:18 2018*
%MOMM*%
%LPD*%
G01*
G04 APERTURE LIST*
%ADD10C,0.100000*%
%ADD11C,1.160000*%
%ADD12O,3.200000X1.800000*%
%ADD13R,1.700000X1.700000*%
%ADD14O,1.700000X1.700000*%
%ADD15R,1.600000X1.600000*%
%ADD16O,1.600000X2.000000*%
%ADD17R,1.400000X1.400000*%
%ADD18C,1.400000*%
%ADD19C,4.572000*%
%ADD20R,3.960000X1.980000*%
%ADD21O,3.960000X1.980000*%
%ADD22C,1.500000*%
%ADD23C,3.000000*%
%ADD24R,0.900000X0.800000*%
%ADD25R,0.800000X0.900000*%
%ADD26C,7.000000*%
%ADD27C,1.590000*%
%ADD28C,2.200000*%
%ADD29R,1.500000X1.300000*%
%ADD30R,1.300000X1.500000*%
%ADD31C,0.600000*%
%ADD32C,0.400000*%
%ADD33C,0.250000*%
%ADD34C,0.800000*%
%ADD35C,1.000000*%
%ADD36C,0.050000*%
G04 APERTURE END LIST*
D10*
D11*
X209786480Y-127010000D03*
X209786480Y-124970000D03*
X212336480Y-125990000D03*
X212336480Y-128030000D03*
D12*
X212136480Y-131880000D03*
X212136480Y-121120000D03*
D13*
X66040000Y-92583000D03*
D14*
X63500000Y-92583000D03*
X66040000Y-79883000D03*
X63500000Y-79883000D03*
D15*
X197457080Y-46253400D03*
D16*
X197457080Y-48893400D03*
X194917080Y-46153400D03*
X194917080Y-48893400D03*
X192377080Y-46153400D03*
X192377080Y-48893400D03*
X189837080Y-46153400D03*
X189837080Y-48893400D03*
X187297080Y-46153400D03*
X187297080Y-48893400D03*
X184757080Y-46153400D03*
X184757080Y-48893400D03*
X182217080Y-46153400D03*
X182217080Y-48893400D03*
X179677080Y-46153400D03*
X179677080Y-48893400D03*
X177137080Y-46153400D03*
X177137080Y-48893400D03*
X174597080Y-46153400D03*
X174597080Y-48893400D03*
X172057080Y-46153400D03*
X172057080Y-48893400D03*
X169517080Y-46153400D03*
X169517080Y-48893400D03*
X166977080Y-46153400D03*
X166977080Y-48893400D03*
X164437080Y-46153400D03*
X164437080Y-48893400D03*
X161897080Y-46153400D03*
X161897080Y-48893400D03*
X159357080Y-46153400D03*
X159357080Y-48893400D03*
X156817080Y-46153400D03*
X156817080Y-48893400D03*
X154277080Y-46153400D03*
X154277080Y-48893400D03*
X151737080Y-46153400D03*
X151737080Y-48893400D03*
X149197080Y-46153400D03*
X149197080Y-48893400D03*
X146657080Y-46153400D03*
X146657080Y-48893400D03*
X144117080Y-46153400D03*
X144117080Y-48893400D03*
X141577080Y-46153400D03*
X141577080Y-48893400D03*
D15*
X197457080Y-94513400D03*
D16*
X197457080Y-97153400D03*
X194917080Y-94413400D03*
X194917080Y-97153400D03*
X192377080Y-94413400D03*
X192377080Y-97153400D03*
X189837080Y-94413400D03*
X189837080Y-97153400D03*
X187297080Y-94413400D03*
X187297080Y-97153400D03*
X184757080Y-94413400D03*
X184757080Y-97153400D03*
X182217080Y-94413400D03*
X182217080Y-97153400D03*
X179677080Y-94413400D03*
X179677080Y-97153400D03*
X177137080Y-94413400D03*
X177137080Y-97153400D03*
X174597080Y-94413400D03*
X174597080Y-97153400D03*
X172057080Y-94413400D03*
X172057080Y-97153400D03*
X169517080Y-94413400D03*
X169517080Y-97153400D03*
X166977080Y-94413400D03*
X166977080Y-97153400D03*
X164437080Y-94413400D03*
X164437080Y-97153400D03*
X161897080Y-94413400D03*
X161897080Y-97153400D03*
X159357080Y-94413400D03*
X159357080Y-97153400D03*
X156817080Y-94413400D03*
X156817080Y-97153400D03*
X154277080Y-94413400D03*
X154277080Y-97153400D03*
X151737080Y-94413400D03*
X151737080Y-97153400D03*
X149197080Y-94413400D03*
X149197080Y-97153400D03*
X146657080Y-94413400D03*
X146657080Y-97153400D03*
X144117080Y-94413400D03*
X144117080Y-97153400D03*
X141577080Y-94413400D03*
X141577080Y-97153400D03*
D17*
X142699820Y-75233060D03*
D18*
X135079820Y-75233060D03*
X142699820Y-62543060D03*
X142699820Y-57453060D03*
X142699820Y-67613060D03*
X135069820Y-62523060D03*
X135069820Y-57443060D03*
X135079820Y-67613060D03*
D19*
X136497080Y-92608400D03*
X202537080Y-95783400D03*
X202537080Y-47523400D03*
X136497080Y-50698400D03*
D20*
X121615200Y-49339500D03*
D21*
X121615200Y-44339500D03*
D22*
X69352160Y-114275120D03*
X69352160Y-111735120D03*
X69352160Y-109705120D03*
X69352160Y-107165120D03*
D23*
X66682160Y-117325120D03*
X66682160Y-103605120D03*
D17*
X144033240Y-121679500D03*
D18*
X136413240Y-121679500D03*
X144033240Y-108989500D03*
X144033240Y-103899500D03*
X144033240Y-114059500D03*
X136403240Y-108969500D03*
X136403240Y-103889500D03*
X136413240Y-114059500D03*
D17*
X175120340Y-121791260D03*
D18*
X167500340Y-121791260D03*
X175120340Y-109101260D03*
X175120340Y-104011260D03*
X175120340Y-114171260D03*
X167490340Y-109081260D03*
X167490340Y-104001260D03*
X167500340Y-114171260D03*
D17*
X168656000Y-75057000D03*
D18*
X161036000Y-75057000D03*
X168656000Y-62367000D03*
X168656000Y-57277000D03*
X168656000Y-67437000D03*
X161026000Y-62347000D03*
X161026000Y-57267000D03*
X161036000Y-67437000D03*
D24*
X139828780Y-116438640D03*
X139828780Y-118338640D03*
X137828780Y-117388640D03*
D25*
X168525000Y-117150000D03*
X170425000Y-117150000D03*
X169475000Y-119150000D03*
X136982240Y-80623920D03*
X135082240Y-80623920D03*
X136032240Y-78623920D03*
X163212820Y-80240380D03*
X161312820Y-80240380D03*
X162262820Y-78240380D03*
D26*
X101242000Y-119335000D03*
X101242000Y-80235000D03*
D27*
X202036480Y-51439240D03*
X204576480Y-52709240D03*
X202036480Y-53979240D03*
X204576480Y-55249240D03*
X202036480Y-56519240D03*
X204576480Y-57789240D03*
D28*
X212949800Y-67025500D03*
X207949800Y-67025500D03*
X207949800Y-72025500D03*
X212949800Y-72025500D03*
X210449800Y-69525500D03*
D25*
X141118300Y-121719340D03*
X139018300Y-121719340D03*
X139947360Y-75303380D03*
X137847360Y-75303380D03*
X172322200Y-121859040D03*
X170222200Y-121859040D03*
X165997600Y-75039220D03*
X163897600Y-75039220D03*
D29*
X151625000Y-116150000D03*
X148925000Y-116150000D03*
X151443680Y-66385440D03*
X148743680Y-66385440D03*
X182276740Y-114388900D03*
X179576740Y-114388900D03*
X176645560Y-66832480D03*
X173945560Y-66832480D03*
X151654500Y-106474260D03*
X148954500Y-106474260D03*
X149940000Y-58369200D03*
X147240000Y-58369200D03*
X182236100Y-107119420D03*
X179536100Y-107119420D03*
X175751480Y-58059320D03*
X173051480Y-58059320D03*
X151611320Y-71526400D03*
X148911320Y-71526400D03*
X187018940Y-114294920D03*
X189718940Y-114294920D03*
X154275800Y-118772940D03*
X156975800Y-118772940D03*
X180539400Y-67589400D03*
X183239400Y-67589400D03*
X151667200Y-76555600D03*
X148967200Y-76555600D03*
X187128160Y-119936260D03*
X189828160Y-119936260D03*
X154191980Y-124360940D03*
X156891980Y-124360940D03*
X180615600Y-72847200D03*
X183315600Y-72847200D03*
X153025000Y-60800000D03*
X155725000Y-60800000D03*
X187166260Y-104353360D03*
X189866260Y-104353360D03*
X182875000Y-57950000D03*
X185575000Y-57950000D03*
X152875000Y-55675000D03*
X155575000Y-55675000D03*
X187090060Y-109153960D03*
X189790060Y-109153960D03*
X156150000Y-109100000D03*
X158850000Y-109100000D03*
X180600000Y-55325000D03*
X177900000Y-55325000D03*
D30*
X132379720Y-115774480D03*
X132379720Y-118474480D03*
X164203380Y-108649780D03*
X164203380Y-111349780D03*
D29*
X144486620Y-79880460D03*
X141786620Y-79880460D03*
X170971200Y-79832200D03*
X168271200Y-79832200D03*
X156079200Y-104175560D03*
X158779200Y-104175560D03*
D11*
X209786480Y-113510000D03*
X209786480Y-111470000D03*
X212336480Y-112490000D03*
X212336480Y-114530000D03*
D12*
X212136480Y-118380000D03*
X212136480Y-107620000D03*
D11*
X209786480Y-86510000D03*
X209786480Y-84470000D03*
X212336480Y-85490000D03*
X212336480Y-87530000D03*
D12*
X212136480Y-91380000D03*
X212136480Y-80620000D03*
D11*
X209786480Y-100010000D03*
X209786480Y-97970000D03*
X212336480Y-98990000D03*
X212336480Y-101030000D03*
D12*
X212136480Y-104880000D03*
X212136480Y-94120000D03*
D31*
X192625000Y-114175000D03*
X183550000Y-65900000D03*
X155625000Y-58425000D03*
X148800000Y-86250000D03*
X194375000Y-59025000D03*
X129750000Y-107300000D03*
X128700000Y-64700000D03*
X195785740Y-76608940D03*
X192841880Y-62082680D03*
D32*
X195675000Y-78000000D02*
X196975000Y-79300000D01*
X200500000Y-82775000D02*
X201325000Y-82775000D01*
X197025000Y-79300000D02*
X200500000Y-82775000D01*
X196975000Y-79300000D02*
X197025000Y-79300000D01*
X196850000Y-78225000D02*
X196850000Y-78175000D01*
X195900000Y-78225000D02*
X196850000Y-78225000D01*
X195675000Y-78000000D02*
X195900000Y-78225000D01*
D33*
X185575000Y-57950000D02*
X186200000Y-57950000D01*
X196850000Y-78175000D02*
X204225000Y-78175000D01*
X204225000Y-78175000D02*
X207949800Y-74450200D01*
X207949800Y-74450200D02*
X207949800Y-72025500D01*
X189718940Y-114294920D02*
X192505080Y-114294920D01*
X192505080Y-114294920D02*
X192625000Y-114175000D01*
X183239400Y-67589400D02*
X183239400Y-66210600D01*
X183239400Y-66210600D02*
X183550000Y-65900000D01*
X155725000Y-60800000D02*
X155725000Y-58525000D01*
X155725000Y-58525000D02*
X155625000Y-58425000D01*
X148967200Y-76555600D02*
X148967200Y-86082800D01*
X148967200Y-86082800D02*
X148800000Y-86250000D01*
X161312820Y-80240380D02*
X160640380Y-80240380D01*
X183315600Y-74459400D02*
X183315600Y-72847200D01*
X181725000Y-76050000D02*
X183315600Y-74459400D01*
X178525000Y-76050000D02*
X181725000Y-76050000D01*
X173850000Y-71375000D02*
X178525000Y-76050000D01*
X162250000Y-71375000D02*
X173850000Y-71375000D01*
X159300000Y-74325000D02*
X162250000Y-71375000D01*
X159300000Y-78900000D02*
X159300000Y-74325000D01*
X160640380Y-80240380D02*
X159300000Y-78900000D01*
D34*
X197457080Y-48793400D02*
X197468400Y-48793400D01*
X197468400Y-48793400D02*
X198400000Y-49725000D01*
D35*
X156975800Y-118772940D02*
X157050740Y-118772940D01*
X165997600Y-75039220D02*
X168638220Y-75039220D01*
X168638220Y-75039220D02*
X168656000Y-75057000D01*
D34*
X172322200Y-121859040D02*
X175052560Y-121859040D01*
X175052560Y-121859040D02*
X175120340Y-121791260D01*
X141118300Y-121719340D02*
X143993400Y-121719340D01*
X143993400Y-121719340D02*
X144033240Y-121679500D01*
X139947360Y-75303380D02*
X142629500Y-75303380D01*
X142629500Y-75303380D02*
X142699820Y-75233060D01*
D35*
X67101720Y-92583000D02*
X66040000Y-92583000D01*
X69352160Y-94833440D02*
X67101720Y-92583000D01*
X69352160Y-107165120D02*
X69352160Y-94833440D01*
X63500000Y-92583000D02*
X63500000Y-107812840D01*
X65392280Y-109705120D02*
X69352160Y-109705120D01*
X63500000Y-107812840D02*
X65392280Y-109705120D01*
X69352160Y-111735120D02*
X62433720Y-111735120D01*
X61559440Y-79674720D02*
X63291720Y-79674720D01*
X59563000Y-81671160D02*
X61559440Y-79674720D01*
X59563000Y-108864400D02*
X59563000Y-81671160D01*
X62433720Y-111735120D02*
X59563000Y-108864400D01*
X63291720Y-79674720D02*
X63500000Y-79883000D01*
D34*
X128686560Y-104416860D02*
X128686560Y-106236560D01*
X128686560Y-106236560D02*
X129750000Y-107300000D01*
X135079820Y-67613060D02*
X131613060Y-67613060D01*
X131613060Y-67613060D02*
X128700000Y-64700000D01*
X128686560Y-64713440D02*
X128686560Y-64761560D01*
X128686560Y-69125000D02*
X128686560Y-64761560D01*
X128700000Y-64700000D02*
X128686560Y-64713440D01*
D35*
X121615200Y-49339500D02*
X122389500Y-49339500D01*
D34*
X128686560Y-101300280D02*
X128686560Y-69125000D01*
X128686560Y-69125000D02*
X128686560Y-67861560D01*
X128686560Y-104416860D02*
X128686560Y-101300280D01*
X128686560Y-67861560D02*
X128686560Y-67558920D01*
D35*
X144033240Y-114059500D02*
X143917200Y-114059500D01*
X144033240Y-114059500D02*
X144033240Y-114327940D01*
D34*
X135079820Y-67613060D02*
X135065380Y-67627500D01*
X132379720Y-118474480D02*
X133960880Y-118474480D01*
X139254780Y-115864640D02*
X139828780Y-116438640D01*
X136570720Y-115864640D02*
X139254780Y-115864640D01*
X133960880Y-118474480D02*
X136570720Y-115864640D01*
X168525000Y-117150000D02*
X165575000Y-117150000D01*
X164203380Y-115778380D02*
X164203380Y-111349780D01*
X165575000Y-117150000D02*
X164203380Y-115778380D01*
X136982240Y-80623920D02*
X141043160Y-80623920D01*
X141043160Y-80623920D02*
X141786620Y-79880460D01*
X163212820Y-80240380D02*
X167863020Y-80240380D01*
X167863020Y-80240380D02*
X168271200Y-79832200D01*
X177137080Y-97053400D02*
X177137080Y-97937920D01*
X177137080Y-97937920D02*
X175375000Y-99700000D01*
X175375000Y-99700000D02*
X135550000Y-99700000D01*
X135550000Y-99700000D02*
X132379720Y-102870280D01*
X132379720Y-102870280D02*
X132379720Y-115774480D01*
X164203380Y-108649780D02*
X164203380Y-103496620D01*
X176875000Y-100950000D02*
X179677080Y-98147920D01*
X166750000Y-100950000D02*
X176875000Y-100950000D01*
X164203380Y-103496620D02*
X166750000Y-100950000D01*
X179677080Y-98147920D02*
X179677080Y-97053400D01*
X144486620Y-79880460D02*
X144486620Y-72311620D01*
X169517080Y-49957920D02*
X169517080Y-48793400D01*
X167050000Y-52425000D02*
X169517080Y-49957920D01*
X143775000Y-52425000D02*
X167050000Y-52425000D01*
X140425000Y-55775000D02*
X143775000Y-52425000D01*
X140425000Y-68250000D02*
X140425000Y-55775000D01*
X144486620Y-72311620D02*
X140425000Y-68250000D01*
X144486620Y-79880460D02*
X144688560Y-79880460D01*
X164700000Y-83250000D02*
X159375000Y-83250000D01*
X157675000Y-56925000D02*
X160350000Y-54250000D01*
X157675000Y-81550000D02*
X157675000Y-56925000D01*
X159375000Y-83250000D02*
X157675000Y-81550000D01*
X170971200Y-79832200D02*
X170971200Y-82503800D01*
X181925480Y-51625000D02*
X184757080Y-48793400D01*
X171375000Y-51625000D02*
X181925480Y-51625000D01*
X168750000Y-54250000D02*
X171375000Y-51625000D01*
X160350000Y-54250000D02*
X168750000Y-54250000D01*
X170225000Y-83250000D02*
X164700000Y-83250000D01*
X170971200Y-82503800D02*
X170225000Y-83250000D01*
X136413240Y-121679500D02*
X136628340Y-121679500D01*
X136628340Y-121679500D02*
X137828780Y-120479060D01*
X137828780Y-120479060D02*
X137828780Y-117388640D01*
X136413240Y-121679500D02*
X138978460Y-121679500D01*
X138978460Y-121679500D02*
X139018300Y-121719340D01*
X135079820Y-75233060D02*
X135079820Y-77671500D01*
X135079820Y-77671500D02*
X136032240Y-78623920D01*
X135079820Y-75233060D02*
X137777040Y-75233060D01*
X137777040Y-75233060D02*
X137847360Y-75303380D01*
X169475000Y-119150000D02*
X169475000Y-119816600D01*
X169475000Y-119816600D02*
X167500340Y-121791260D01*
X167500340Y-121791260D02*
X170154420Y-121791260D01*
X170154420Y-121791260D02*
X170222200Y-121859040D01*
D35*
X161036000Y-75057000D02*
X163879820Y-75057000D01*
X163879820Y-75057000D02*
X163897600Y-75039220D01*
D34*
X161036000Y-75057000D02*
X161036000Y-77013560D01*
X161036000Y-77013560D02*
X162262820Y-78240380D01*
X192841880Y-62082680D02*
X195707680Y-62082680D01*
X197950000Y-74444680D02*
X195785740Y-76608940D01*
X197950000Y-64325000D02*
X197950000Y-74444680D01*
X195707680Y-62082680D02*
X197950000Y-64325000D01*
X192841880Y-62082680D02*
X192582680Y-62082680D01*
X194917080Y-50382920D02*
X194917080Y-48793400D01*
X193350000Y-51950000D02*
X194917080Y-50382920D01*
X191250000Y-51950000D02*
X193350000Y-51950000D01*
X188925000Y-54275000D02*
X191250000Y-51950000D01*
X188925000Y-58425000D02*
X188925000Y-54275000D01*
X192582680Y-62082680D02*
X188925000Y-58425000D01*
X151625000Y-116150000D02*
X151652860Y-116150000D01*
X151652860Y-116150000D02*
X154275800Y-118772940D01*
D35*
X154191980Y-124360940D02*
X154191980Y-118856760D01*
X154191980Y-118856760D02*
X154275800Y-118772940D01*
D34*
X144033240Y-108989500D02*
X144033240Y-111258240D01*
X144033240Y-111258240D02*
X148925000Y-116150000D01*
X151611320Y-71526400D02*
X151611320Y-76499720D01*
X151611320Y-76499720D02*
X151667200Y-76555600D01*
X151443680Y-66385440D02*
X151443680Y-71358760D01*
X151443680Y-71358760D02*
X151611320Y-71526400D01*
X148743680Y-66385440D02*
X148743680Y-65759320D01*
X142699820Y-62543060D02*
X144901300Y-62543060D01*
X144901300Y-62543060D02*
X148743680Y-66385440D01*
X187018940Y-114294920D02*
X187018940Y-119827040D01*
X187018940Y-119827040D02*
X187128160Y-119936260D01*
X182276740Y-114388900D02*
X186924960Y-114388900D01*
X186924960Y-114388900D02*
X187018940Y-114294920D01*
D35*
X187018940Y-119827040D02*
X187128160Y-119936260D01*
X186924960Y-114388900D02*
X187018940Y-114294920D01*
X179576740Y-114388900D02*
X179576740Y-113557660D01*
X179576740Y-113557660D02*
X175120340Y-109101260D01*
D34*
X175120340Y-109101260D02*
X175166660Y-109101260D01*
X180539400Y-67589400D02*
X177402480Y-67589400D01*
X177402480Y-67589400D02*
X176645560Y-66832480D01*
D35*
X180539400Y-67589400D02*
X180539400Y-72771000D01*
X180539400Y-72771000D02*
X180615600Y-72847200D01*
D34*
X173945560Y-66832480D02*
X173945560Y-65055760D01*
X171256800Y-62367000D02*
X168656000Y-62367000D01*
X173945560Y-65055760D02*
X171256800Y-62367000D01*
X151654500Y-106474260D02*
X151654500Y-107129500D01*
X153625000Y-109100000D02*
X156150000Y-109100000D01*
X151654500Y-107129500D02*
X153625000Y-109100000D01*
X151654500Y-106474260D02*
X151654500Y-105995500D01*
X151654500Y-105995500D02*
X153474440Y-104175560D01*
X153474440Y-104175560D02*
X156079200Y-104175560D01*
X148954500Y-106474260D02*
X148954500Y-107404500D01*
X163400000Y-117775000D02*
X163400000Y-123325000D01*
X156750000Y-111125000D02*
X163400000Y-117775000D01*
X152675000Y-111125000D02*
X156750000Y-111125000D01*
X148954500Y-107404500D02*
X152675000Y-111125000D01*
X209786480Y-124970000D02*
X196955000Y-124970000D01*
X196955000Y-124970000D02*
X194250000Y-127675000D01*
X194250000Y-127675000D02*
X167750000Y-127675000D01*
X167750000Y-127675000D02*
X163400000Y-123325000D01*
D35*
X144033240Y-103899500D02*
X146379740Y-103899500D01*
X146379740Y-103899500D02*
X148954500Y-106474260D01*
D34*
X152875000Y-55675000D02*
X152875000Y-60650000D01*
X152875000Y-60650000D02*
X153025000Y-60800000D01*
X149940000Y-58369200D02*
X149940000Y-58740000D01*
X149940000Y-58740000D02*
X152000000Y-60800000D01*
X152000000Y-60800000D02*
X153025000Y-60800000D01*
X163725000Y-88175000D02*
X159650000Y-88175000D01*
X154900000Y-66000000D02*
X152875000Y-63975000D01*
X154900000Y-83425000D02*
X154900000Y-66000000D01*
X159650000Y-88175000D02*
X154900000Y-83425000D01*
X152875000Y-63975000D02*
X151125000Y-63975000D01*
X147240000Y-60090000D02*
X147240000Y-58369200D01*
X151125000Y-63975000D02*
X147240000Y-60090000D01*
X209786480Y-97970000D02*
X208820000Y-97970000D01*
X203275000Y-88175000D02*
X163725000Y-88175000D01*
X207825000Y-92725000D02*
X203275000Y-88175000D01*
X207825000Y-96975000D02*
X207825000Y-92725000D01*
X208820000Y-97970000D02*
X207825000Y-96975000D01*
X142699820Y-57453060D02*
X146323860Y-57453060D01*
X146323860Y-57453060D02*
X147240000Y-58369200D01*
X182236100Y-107119420D02*
X182236100Y-107436100D01*
X182236100Y-107436100D02*
X183953960Y-109153960D01*
X183953960Y-109153960D02*
X187090060Y-109153960D01*
X187166260Y-104353360D02*
X187166260Y-109077760D01*
X187166260Y-109077760D02*
X187090060Y-109153960D01*
D35*
X187166260Y-109077760D02*
X187090060Y-109153960D01*
D34*
X179536100Y-107119420D02*
X179536100Y-109111100D01*
X181850000Y-111425000D02*
X209741480Y-111425000D01*
X179536100Y-109111100D02*
X181850000Y-111425000D01*
X209741480Y-111425000D02*
X209786480Y-111470000D01*
X175120340Y-104011260D02*
X176427940Y-104011260D01*
X176427940Y-104011260D02*
X179536100Y-107119420D01*
X180600000Y-55325000D02*
X180600000Y-55675000D01*
X180600000Y-55675000D02*
X182875000Y-57950000D01*
X175751480Y-58059320D02*
X182765680Y-58059320D01*
X182765680Y-58059320D02*
X182875000Y-57950000D01*
X175695600Y-58003440D02*
X175751480Y-58059320D01*
X189287500Y-63437500D02*
X189287500Y-76162500D01*
X197595000Y-84470000D02*
X209786480Y-84470000D01*
X189287500Y-76162500D02*
X197595000Y-84470000D01*
X175392160Y-60400000D02*
X173051480Y-58059320D01*
X186250000Y-60400000D02*
X175392160Y-60400000D01*
X189287500Y-63437500D02*
X186250000Y-60400000D01*
X168656000Y-57277000D02*
X172269160Y-57277000D01*
X172269160Y-57277000D02*
X173051480Y-58059320D01*
X161800000Y-120975000D02*
X161800000Y-118700000D01*
X138413740Y-105900000D02*
X136403240Y-103889500D01*
X144850000Y-105900000D02*
X138413740Y-105900000D01*
X151825000Y-112875000D02*
X144850000Y-105900000D01*
X155975000Y-112875000D02*
X151825000Y-112875000D01*
X161800000Y-118700000D02*
X155975000Y-112875000D01*
X161800000Y-124825000D02*
X161800000Y-120975000D01*
X209786480Y-127010000D02*
X198040000Y-127010000D01*
X166500000Y-129525000D02*
X161800000Y-124825000D01*
X195525000Y-129525000D02*
X166500000Y-129525000D01*
X198040000Y-127010000D02*
X195525000Y-129525000D01*
X136403240Y-103889500D02*
X136556440Y-103889500D01*
X135069820Y-57443060D02*
X135069820Y-59419820D01*
X202875000Y-90175000D02*
X206375000Y-93675000D01*
X140475000Y-90175000D02*
X202875000Y-90175000D01*
X132200000Y-81900000D02*
X140475000Y-90175000D01*
X132200000Y-74175000D02*
X132200000Y-81900000D01*
X137800000Y-68575000D02*
X132200000Y-74175000D01*
X137800000Y-62150000D02*
X137800000Y-68575000D01*
X135069820Y-59419820D02*
X137800000Y-62150000D01*
X209786480Y-100010000D02*
X208335000Y-100010000D01*
X208335000Y-100010000D02*
X206375000Y-98050000D01*
X206375000Y-98050000D02*
X206375000Y-93675000D01*
X135069820Y-57443060D02*
X135069820Y-57505840D01*
X209786480Y-113510000D02*
X199740000Y-113510000D01*
X172200000Y-108710920D02*
X167490340Y-104001260D01*
X172200000Y-114350000D02*
X172200000Y-108710920D01*
X173850000Y-116000000D02*
X172200000Y-114350000D01*
X177100000Y-116000000D02*
X173850000Y-116000000D01*
X184625000Y-123525000D02*
X177100000Y-116000000D01*
X193200000Y-123525000D02*
X184625000Y-123525000D01*
X195200000Y-121525000D02*
X193200000Y-123525000D01*
X195200000Y-118050000D02*
X195200000Y-121525000D01*
X199740000Y-113510000D02*
X195200000Y-118050000D01*
X209786480Y-86510000D02*
X196260000Y-86510000D01*
X187550000Y-77800000D02*
X187550000Y-65750000D01*
X196260000Y-86510000D02*
X187550000Y-77800000D01*
X163109000Y-59350000D02*
X161026000Y-57267000D01*
X171200000Y-59350000D02*
X163109000Y-59350000D01*
X174575000Y-62725000D02*
X171200000Y-59350000D01*
X184525000Y-62725000D02*
X174575000Y-62725000D01*
X187550000Y-65750000D02*
X184525000Y-62725000D01*
X136403240Y-108969500D02*
X136619500Y-108969500D01*
X167490340Y-109081260D02*
X167490340Y-109115340D01*
D36*
G36*
X215826480Y-137030280D02*
X88008529Y-137030280D01*
X87995760Y-137027740D01*
X58011240Y-137027740D01*
X58011240Y-131880000D01*
X209460053Y-131880000D01*
X209606585Y-132616666D01*
X210023872Y-133241181D01*
X210648387Y-133658468D01*
X211385053Y-133805000D01*
X212887907Y-133805000D01*
X213624573Y-133658468D01*
X214249088Y-133241181D01*
X214666375Y-132616666D01*
X214812907Y-131880000D01*
X214666375Y-131143334D01*
X214249088Y-130518819D01*
X213624573Y-130101532D01*
X212887907Y-129955000D01*
X211385053Y-129955000D01*
X210648387Y-130101532D01*
X210023872Y-130518819D01*
X209606585Y-131143334D01*
X209460053Y-131880000D01*
X58011240Y-131880000D01*
X58011240Y-122240399D01*
X99008352Y-122240399D01*
X99471834Y-122579543D01*
X100848213Y-123009980D01*
X102284542Y-122880935D01*
X103012166Y-122579543D01*
X103475648Y-122240399D01*
X101242000Y-120006751D01*
X99008352Y-122240399D01*
X58011240Y-122240399D01*
X58011240Y-118760292D01*
X65918739Y-118760292D01*
X66133459Y-118888460D01*
X66773491Y-118979437D01*
X66965655Y-118941213D01*
X97567020Y-118941213D01*
X97696065Y-120377542D01*
X97997457Y-121105166D01*
X98336601Y-121568648D01*
X100570249Y-119335000D01*
X101913751Y-119335000D01*
X104147399Y-121568648D01*
X104486543Y-121105166D01*
X104916980Y-119728787D01*
X104787935Y-118292458D01*
X104486543Y-117564834D01*
X104147399Y-117101352D01*
X101913751Y-119335000D01*
X100570249Y-119335000D01*
X98336601Y-117101352D01*
X97997457Y-117564834D01*
X97567020Y-118941213D01*
X66965655Y-118941213D01*
X67230861Y-118888460D01*
X67445581Y-118760292D01*
X66682160Y-117996871D01*
X65918739Y-118760292D01*
X58011240Y-118760292D01*
X58011240Y-117416451D01*
X65027843Y-117416451D01*
X65118820Y-117873821D01*
X65246988Y-118088541D01*
X66010409Y-117325120D01*
X67353911Y-117325120D01*
X68117332Y-118088541D01*
X68245500Y-117873821D01*
X68336477Y-117233789D01*
X68245500Y-116776419D01*
X68117332Y-116561699D01*
X67353911Y-117325120D01*
X66010409Y-117325120D01*
X65246988Y-116561699D01*
X65118820Y-116776419D01*
X65027843Y-117416451D01*
X58011240Y-117416451D01*
X58011240Y-115889948D01*
X65918739Y-115889948D01*
X66682160Y-116653369D01*
X66905928Y-116429601D01*
X99008352Y-116429601D01*
X101242000Y-118663249D01*
X103475648Y-116429601D01*
X103012166Y-116090457D01*
X101635787Y-115660020D01*
X100199458Y-115789065D01*
X99471834Y-116090457D01*
X99008352Y-116429601D01*
X66905928Y-116429601D01*
X67445581Y-115889948D01*
X67230861Y-115761780D01*
X66590829Y-115670803D01*
X66133459Y-115761780D01*
X65918739Y-115889948D01*
X58011240Y-115889948D01*
X58011240Y-115088240D01*
X69069370Y-115088240D01*
X69179728Y-115150440D01*
X69524592Y-115150440D01*
X69634950Y-115088240D01*
X69352160Y-114805450D01*
X69069370Y-115088240D01*
X58011240Y-115088240D01*
X58011240Y-114102688D01*
X68476840Y-114102688D01*
X68476840Y-114447552D01*
X68539040Y-114557910D01*
X68821830Y-114275120D01*
X69882490Y-114275120D01*
X70165280Y-114557910D01*
X70227480Y-114447552D01*
X70227480Y-114102688D01*
X70165280Y-113992330D01*
X69882490Y-114275120D01*
X68821830Y-114275120D01*
X68539040Y-113992330D01*
X68476840Y-114102688D01*
X58011240Y-114102688D01*
X58011240Y-81671160D01*
X58038000Y-81671160D01*
X58038000Y-108864400D01*
X58154084Y-109447992D01*
X58484662Y-109942738D01*
X61355382Y-112813458D01*
X61850128Y-113144036D01*
X62433720Y-113260120D01*
X68396220Y-113260120D01*
X68997542Y-113509811D01*
X69117285Y-113509915D01*
X69352160Y-113744790D01*
X69586625Y-113510325D01*
X69703680Y-113510427D01*
X70356303Y-113240769D01*
X70856054Y-112741889D01*
X71126851Y-112089738D01*
X71127467Y-111383600D01*
X70857809Y-110730977D01*
X70847389Y-110720539D01*
X70856054Y-110711889D01*
X71126851Y-110059738D01*
X71127467Y-109353600D01*
X70857809Y-108700977D01*
X70592389Y-108435094D01*
X70856054Y-108171889D01*
X71126851Y-107519738D01*
X71127467Y-106813600D01*
X70877160Y-106207810D01*
X70877160Y-94833440D01*
X70761076Y-94249848D01*
X70430498Y-93755102D01*
X68180058Y-91504662D01*
X67795944Y-91248006D01*
X67639121Y-91004296D01*
X67296595Y-90770258D01*
X66890000Y-90687920D01*
X65190000Y-90687920D01*
X64810158Y-90759392D01*
X64461296Y-90983879D01*
X64458865Y-90987436D01*
X64254264Y-90850726D01*
X63536733Y-90708000D01*
X63463267Y-90708000D01*
X62745736Y-90850726D01*
X62137442Y-91257175D01*
X61730993Y-91865469D01*
X61588267Y-92583000D01*
X61730993Y-93300531D01*
X61975000Y-93665713D01*
X61975000Y-107812840D01*
X62091084Y-108396432D01*
X62421662Y-108891178D01*
X63740604Y-110210120D01*
X63065396Y-110210120D01*
X61088000Y-108232724D01*
X61088000Y-83140399D01*
X99008352Y-83140399D01*
X99471834Y-83479543D01*
X100848213Y-83909980D01*
X102284542Y-83780935D01*
X103012166Y-83479543D01*
X103475648Y-83140399D01*
X101242000Y-80906751D01*
X99008352Y-83140399D01*
X61088000Y-83140399D01*
X61088000Y-82302836D01*
X62164159Y-81226677D01*
X62745736Y-81615274D01*
X63463267Y-81758000D01*
X63536733Y-81758000D01*
X64254264Y-81615274D01*
X64862558Y-81208825D01*
X65269007Y-80600531D01*
X65290785Y-80491044D01*
X65482953Y-80683262D01*
X65615000Y-80729301D01*
X65615000Y-80308000D01*
X66465000Y-80308000D01*
X66465000Y-80729301D01*
X66597047Y-80683262D01*
X66840208Y-80440038D01*
X66882638Y-80308000D01*
X66465000Y-80308000D01*
X65615000Y-80308000D01*
X65545000Y-80308000D01*
X65545000Y-79841213D01*
X97567020Y-79841213D01*
X97696065Y-81277542D01*
X97997457Y-82005166D01*
X98336601Y-82468648D01*
X100570249Y-80235000D01*
X101913751Y-80235000D01*
X104147399Y-82468648D01*
X104486543Y-82005166D01*
X104916980Y-80628787D01*
X104787935Y-79192458D01*
X104486543Y-78464834D01*
X104147399Y-78001352D01*
X101913751Y-80235000D01*
X100570249Y-80235000D01*
X98336601Y-78001352D01*
X97997457Y-78464834D01*
X97567020Y-79841213D01*
X65545000Y-79841213D01*
X65545000Y-79458000D01*
X65615000Y-79458000D01*
X66465000Y-79458000D01*
X66882638Y-79458000D01*
X66840208Y-79325962D01*
X66597047Y-79082738D01*
X66465000Y-79036699D01*
X66465000Y-79458000D01*
X65615000Y-79458000D01*
X65615000Y-79036699D01*
X65482953Y-79082738D01*
X65290785Y-79274956D01*
X65269007Y-79165469D01*
X64862558Y-78557175D01*
X64254264Y-78150726D01*
X63536733Y-78008000D01*
X63463267Y-78008000D01*
X62750793Y-78149720D01*
X61559445Y-78149720D01*
X61559440Y-78149719D01*
X60975848Y-78265804D01*
X60481102Y-78596382D01*
X58484662Y-80592822D01*
X58154084Y-81087568D01*
X58038000Y-81671160D01*
X58011240Y-81671160D01*
X58011240Y-77329601D01*
X99008352Y-77329601D01*
X101242000Y-79563249D01*
X103475648Y-77329601D01*
X103012166Y-76990457D01*
X101635787Y-76560020D01*
X100199458Y-76689065D01*
X99471834Y-76990457D01*
X99008352Y-77329601D01*
X58011240Y-77329601D01*
X58011240Y-68091220D01*
X87934800Y-68091220D01*
X88355752Y-68007487D01*
X88712617Y-67769037D01*
X88951067Y-67412172D01*
X89034800Y-66991220D01*
X89034800Y-64713440D01*
X127261560Y-64713440D01*
X127261560Y-106236560D01*
X127370032Y-106781884D01*
X127678933Y-107244187D01*
X128742373Y-108307627D01*
X129204676Y-108616528D01*
X129750000Y-108725000D01*
X130295323Y-108616528D01*
X130757627Y-108307627D01*
X130954720Y-108012656D01*
X130954720Y-114343115D01*
X130766978Y-114617885D01*
X130684640Y-115024480D01*
X130684640Y-116524480D01*
X130756112Y-116904322D01*
X130898433Y-117125494D01*
X130766978Y-117317885D01*
X130684640Y-117724480D01*
X130684640Y-119224480D01*
X130756112Y-119604322D01*
X130980599Y-119953184D01*
X131323125Y-120187222D01*
X131729720Y-120269560D01*
X133029720Y-120269560D01*
X133409562Y-120198088D01*
X133758424Y-119973601D01*
X133809069Y-119899480D01*
X133960880Y-119899480D01*
X134506204Y-119791008D01*
X134968507Y-119482107D01*
X136385687Y-118064927D01*
X136403780Y-118161084D01*
X136403780Y-119888806D01*
X136338152Y-119954434D01*
X136071622Y-119954201D01*
X135437382Y-120216263D01*
X134951709Y-120701090D01*
X134688540Y-121334871D01*
X134687941Y-122021118D01*
X134950003Y-122655358D01*
X135434830Y-123141031D01*
X136068611Y-123404200D01*
X136754858Y-123404799D01*
X137389098Y-123142737D01*
X137427402Y-123104500D01*
X138171337Y-123104500D01*
X138211705Y-123132082D01*
X138618300Y-123214420D01*
X139418300Y-123214420D01*
X139798142Y-123142948D01*
X140070814Y-122967488D01*
X140311705Y-123132082D01*
X140718300Y-123214420D01*
X141518300Y-123214420D01*
X141890744Y-123144340D01*
X142637006Y-123144340D01*
X142926645Y-123342242D01*
X143333240Y-123424580D01*
X144733240Y-123424580D01*
X145113082Y-123353108D01*
X145461944Y-123128621D01*
X145695982Y-122786095D01*
X145778320Y-122379500D01*
X145778320Y-120979500D01*
X145706848Y-120599658D01*
X145482361Y-120250796D01*
X145139835Y-120016758D01*
X144733240Y-119934420D01*
X143333240Y-119934420D01*
X142953398Y-120005892D01*
X142604536Y-120230379D01*
X142560833Y-120294340D01*
X141864364Y-120294340D01*
X141518300Y-120224260D01*
X140718300Y-120224260D01*
X140338458Y-120295732D01*
X140065786Y-120471192D01*
X139824895Y-120306598D01*
X139418300Y-120224260D01*
X139253780Y-120224260D01*
X139253780Y-118763504D01*
X139272810Y-118809447D01*
X139307973Y-118844610D01*
X139353916Y-118863640D01*
X139572530Y-118863640D01*
X139603780Y-118832390D01*
X139603780Y-118538640D01*
X140053780Y-118538640D01*
X140053780Y-118832390D01*
X140085030Y-118863640D01*
X140303644Y-118863640D01*
X140349587Y-118844610D01*
X140384750Y-118809447D01*
X140403780Y-118763504D01*
X140403780Y-118569890D01*
X140372530Y-118538640D01*
X140053780Y-118538640D01*
X139603780Y-118538640D01*
X139285030Y-118538640D01*
X139253780Y-118569890D01*
X139253780Y-118134704D01*
X139258380Y-118111990D01*
X139285030Y-118138640D01*
X139603780Y-118138640D01*
X139603780Y-117938640D01*
X140053780Y-117938640D01*
X140053780Y-118138640D01*
X140372530Y-118138640D01*
X140403780Y-118107390D01*
X140403780Y-117913776D01*
X140384750Y-117867833D01*
X140381339Y-117864422D01*
X140658622Y-117812248D01*
X141007484Y-117587761D01*
X141241522Y-117245235D01*
X141323860Y-116838640D01*
X141323860Y-116038640D01*
X141252388Y-115658798D01*
X141027901Y-115309936D01*
X140685375Y-115075898D01*
X140429470Y-115024076D01*
X140262407Y-114857013D01*
X139800104Y-114548112D01*
X139254780Y-114439640D01*
X138123195Y-114439640D01*
X138137940Y-114404129D01*
X138138539Y-113717882D01*
X137876477Y-113083642D01*
X137391650Y-112597969D01*
X136757869Y-112334800D01*
X136071622Y-112334201D01*
X135437382Y-112596263D01*
X134951709Y-113081090D01*
X134688540Y-113714871D01*
X134687941Y-114401118D01*
X134950003Y-115035358D01*
X135167186Y-115252920D01*
X134074800Y-116345306D01*
X134074800Y-115024480D01*
X134003328Y-114644638D01*
X133804720Y-114335993D01*
X133804720Y-109311118D01*
X134677941Y-109311118D01*
X134940003Y-109945358D01*
X135424830Y-110431031D01*
X136058611Y-110694200D01*
X136744858Y-110694799D01*
X137379098Y-110432737D01*
X137864771Y-109947910D01*
X138127940Y-109314129D01*
X138128539Y-108627882D01*
X137866477Y-107993642D01*
X137381650Y-107507969D01*
X136747869Y-107244800D01*
X136061622Y-107244201D01*
X135427382Y-107506263D01*
X134941709Y-107991090D01*
X134678540Y-108624871D01*
X134677941Y-109311118D01*
X133804720Y-109311118D01*
X133804720Y-103460534D01*
X136140254Y-101125000D01*
X164559746Y-101125000D01*
X163195753Y-102488993D01*
X162886852Y-102951296D01*
X162778380Y-103496620D01*
X162778380Y-107218415D01*
X162590638Y-107493185D01*
X162508300Y-107899780D01*
X162508300Y-109399780D01*
X162579772Y-109779622D01*
X162722093Y-110000794D01*
X162590638Y-110193185D01*
X162508300Y-110599780D01*
X162508300Y-112099780D01*
X162579772Y-112479622D01*
X162778380Y-112788267D01*
X162778380Y-115138126D01*
X157835995Y-110195741D01*
X157862742Y-110156595D01*
X157945080Y-109750000D01*
X157945080Y-109456250D01*
X157975000Y-109456250D01*
X157975000Y-109774864D01*
X157994030Y-109820807D01*
X158029193Y-109855970D01*
X158075136Y-109875000D01*
X158443750Y-109875000D01*
X158475000Y-109843750D01*
X158475000Y-109425000D01*
X159225000Y-109425000D01*
X159225000Y-109843750D01*
X159256250Y-109875000D01*
X159624864Y-109875000D01*
X159670807Y-109855970D01*
X159705970Y-109820807D01*
X159725000Y-109774864D01*
X159725000Y-109456250D01*
X159693750Y-109425000D01*
X159225000Y-109425000D01*
X158475000Y-109425000D01*
X158006250Y-109425000D01*
X157975000Y-109456250D01*
X157945080Y-109456250D01*
X157945080Y-108450000D01*
X157940402Y-108425136D01*
X157975000Y-108425136D01*
X157975000Y-108743750D01*
X158006250Y-108775000D01*
X158475000Y-108775000D01*
X158475000Y-108356250D01*
X159225000Y-108356250D01*
X159225000Y-108775000D01*
X159693750Y-108775000D01*
X159725000Y-108743750D01*
X159725000Y-108425136D01*
X159705970Y-108379193D01*
X159670807Y-108344030D01*
X159624864Y-108325000D01*
X159256250Y-108325000D01*
X159225000Y-108356250D01*
X158475000Y-108356250D01*
X158443750Y-108325000D01*
X158075136Y-108325000D01*
X158029193Y-108344030D01*
X157994030Y-108379193D01*
X157975000Y-108425136D01*
X157940402Y-108425136D01*
X157873608Y-108070158D01*
X157649121Y-107721296D01*
X157306595Y-107487258D01*
X156900000Y-107404920D01*
X155400000Y-107404920D01*
X155020158Y-107476392D01*
X154711513Y-107675000D01*
X154215254Y-107675000D01*
X153449580Y-106909326D01*
X153449580Y-106215674D01*
X154064694Y-105600560D01*
X154647835Y-105600560D01*
X154922605Y-105788302D01*
X155329200Y-105870640D01*
X156829200Y-105870640D01*
X157209042Y-105799168D01*
X157557904Y-105574681D01*
X157791942Y-105232155D01*
X157874280Y-104825560D01*
X157874280Y-104531810D01*
X157904200Y-104531810D01*
X157904200Y-104850424D01*
X157923230Y-104896367D01*
X157958393Y-104931530D01*
X158004336Y-104950560D01*
X158372950Y-104950560D01*
X158404200Y-104919310D01*
X158404200Y-104500560D01*
X159154200Y-104500560D01*
X159154200Y-104919310D01*
X159185450Y-104950560D01*
X159554064Y-104950560D01*
X159600007Y-104931530D01*
X159635170Y-104896367D01*
X159654200Y-104850424D01*
X159654200Y-104531810D01*
X159622950Y-104500560D01*
X159154200Y-104500560D01*
X158404200Y-104500560D01*
X157935450Y-104500560D01*
X157904200Y-104531810D01*
X157874280Y-104531810D01*
X157874280Y-103525560D01*
X157869602Y-103500696D01*
X157904200Y-103500696D01*
X157904200Y-103819310D01*
X157935450Y-103850560D01*
X158404200Y-103850560D01*
X158404200Y-103431810D01*
X159154200Y-103431810D01*
X159154200Y-103850560D01*
X159622950Y-103850560D01*
X159654200Y-103819310D01*
X159654200Y-103500696D01*
X159635170Y-103454753D01*
X159600007Y-103419590D01*
X159554064Y-103400560D01*
X159185450Y-103400560D01*
X159154200Y-103431810D01*
X158404200Y-103431810D01*
X158372950Y-103400560D01*
X158004336Y-103400560D01*
X157958393Y-103419590D01*
X157923230Y-103454753D01*
X157904200Y-103500696D01*
X157869602Y-103500696D01*
X157802808Y-103145718D01*
X157578321Y-102796856D01*
X157235795Y-102562818D01*
X156829200Y-102480480D01*
X155329200Y-102480480D01*
X154949358Y-102551952D01*
X154640713Y-102750560D01*
X153474440Y-102750560D01*
X152929116Y-102859032D01*
X152567985Y-103100332D01*
X152466813Y-103167933D01*
X150844224Y-104790522D01*
X150524658Y-104850652D01*
X150303486Y-104992973D01*
X150111095Y-104861518D01*
X149704500Y-104779180D01*
X149416095Y-104779180D01*
X147458078Y-102821162D01*
X146963332Y-102490584D01*
X146379740Y-102374500D01*
X144858800Y-102374500D01*
X144377869Y-102174800D01*
X143691622Y-102174201D01*
X143057382Y-102436263D01*
X142571709Y-102921090D01*
X142308540Y-103554871D01*
X142307941Y-104241118D01*
X142404579Y-104475000D01*
X139003994Y-104475000D01*
X138128494Y-103599500D01*
X138128539Y-103547882D01*
X137866477Y-102913642D01*
X137381650Y-102427969D01*
X136747869Y-102164800D01*
X136061622Y-102164201D01*
X135427382Y-102426263D01*
X134941709Y-102911090D01*
X134678540Y-103544871D01*
X134677941Y-104231118D01*
X134940003Y-104865358D01*
X135424830Y-105351031D01*
X136058611Y-105614200D01*
X136112733Y-105614247D01*
X137406113Y-106907627D01*
X137868416Y-107216528D01*
X138413740Y-107325000D01*
X143544477Y-107325000D01*
X143057382Y-107526263D01*
X142571709Y-108011090D01*
X142308540Y-108644871D01*
X142307941Y-109331118D01*
X142570003Y-109965358D01*
X142608240Y-110003662D01*
X142608240Y-111258240D01*
X142716712Y-111803564D01*
X143025613Y-112265867D01*
X143268696Y-112508950D01*
X143057382Y-112596263D01*
X142571709Y-113081090D01*
X142308540Y-113714871D01*
X142307941Y-114401118D01*
X142570003Y-115035358D01*
X143054830Y-115521031D01*
X143244532Y-115599802D01*
X143449648Y-115736856D01*
X144033240Y-115852940D01*
X144616832Y-115736856D01*
X144820915Y-115600493D01*
X145009098Y-115522737D01*
X145494771Y-115037910D01*
X145583639Y-114823893D01*
X147129920Y-116370174D01*
X147129920Y-116800000D01*
X147201392Y-117179842D01*
X147425879Y-117528704D01*
X147768405Y-117762742D01*
X148175000Y-117845080D01*
X149675000Y-117845080D01*
X150054842Y-117773608D01*
X150276014Y-117631287D01*
X150468405Y-117762742D01*
X150875000Y-117845080D01*
X151332686Y-117845080D01*
X152480720Y-118993114D01*
X152480720Y-119422940D01*
X152552192Y-119802782D01*
X152666980Y-119981167D01*
X152666980Y-123029575D01*
X152479238Y-123304345D01*
X152396900Y-123710940D01*
X152396900Y-125010940D01*
X152468372Y-125390782D01*
X152692859Y-125739644D01*
X153035385Y-125973682D01*
X153441980Y-126056020D01*
X154941980Y-126056020D01*
X155321822Y-125984548D01*
X155670684Y-125760061D01*
X155904722Y-125417535D01*
X155987060Y-125010940D01*
X155987060Y-124717190D01*
X156016980Y-124717190D01*
X156016980Y-125035804D01*
X156036010Y-125081747D01*
X156071173Y-125116910D01*
X156117116Y-125135940D01*
X156485730Y-125135940D01*
X156516980Y-125104690D01*
X156516980Y-124685940D01*
X157266980Y-124685940D01*
X157266980Y-125104690D01*
X157298230Y-125135940D01*
X157666844Y-125135940D01*
X157712787Y-125116910D01*
X157747950Y-125081747D01*
X157766980Y-125035804D01*
X157766980Y-124717190D01*
X157735730Y-124685940D01*
X157266980Y-124685940D01*
X156516980Y-124685940D01*
X156048230Y-124685940D01*
X156016980Y-124717190D01*
X155987060Y-124717190D01*
X155987060Y-123710940D01*
X155982382Y-123686076D01*
X156016980Y-123686076D01*
X156016980Y-124004690D01*
X156048230Y-124035940D01*
X156516980Y-124035940D01*
X156516980Y-123617190D01*
X157266980Y-123617190D01*
X157266980Y-124035940D01*
X157735730Y-124035940D01*
X157766980Y-124004690D01*
X157766980Y-123686076D01*
X157747950Y-123640133D01*
X157712787Y-123604970D01*
X157666844Y-123585940D01*
X157298230Y-123585940D01*
X157266980Y-123617190D01*
X156516980Y-123617190D01*
X156485730Y-123585940D01*
X156117116Y-123585940D01*
X156071173Y-123604970D01*
X156036010Y-123640133D01*
X156016980Y-123686076D01*
X155982382Y-123686076D01*
X155915588Y-123331098D01*
X155716980Y-123022453D01*
X155716980Y-120196207D01*
X155754504Y-120172061D01*
X155988542Y-119829535D01*
X156070880Y-119422940D01*
X156070880Y-119129190D01*
X156100800Y-119129190D01*
X156100800Y-119447804D01*
X156119830Y-119493747D01*
X156154993Y-119528910D01*
X156200936Y-119547940D01*
X156569550Y-119547940D01*
X156600800Y-119516690D01*
X156600800Y-119097940D01*
X157350800Y-119097940D01*
X157350800Y-119516690D01*
X157382050Y-119547940D01*
X157750664Y-119547940D01*
X157796607Y-119528910D01*
X157831770Y-119493747D01*
X157850800Y-119447804D01*
X157850800Y-119129190D01*
X157819550Y-119097940D01*
X157350800Y-119097940D01*
X156600800Y-119097940D01*
X156132050Y-119097940D01*
X156100800Y-119129190D01*
X156070880Y-119129190D01*
X156070880Y-118122940D01*
X156066202Y-118098076D01*
X156100800Y-118098076D01*
X156100800Y-118416690D01*
X156132050Y-118447940D01*
X156600800Y-118447940D01*
X156600800Y-118029190D01*
X157350800Y-118029190D01*
X157350800Y-118447940D01*
X157819550Y-118447940D01*
X157850800Y-118416690D01*
X157850800Y-118098076D01*
X157831770Y-118052133D01*
X157796607Y-118016970D01*
X157750664Y-117997940D01*
X157382050Y-117997940D01*
X157350800Y-118029190D01*
X156600800Y-118029190D01*
X156569550Y-117997940D01*
X156200936Y-117997940D01*
X156154993Y-118016970D01*
X156119830Y-118052133D01*
X156100800Y-118098076D01*
X156066202Y-118098076D01*
X155999408Y-117743098D01*
X155774921Y-117394236D01*
X155432395Y-117160198D01*
X155025800Y-117077860D01*
X154595974Y-117077860D01*
X153420080Y-115901966D01*
X153420080Y-115500000D01*
X153348608Y-115120158D01*
X153124121Y-114771296D01*
X152781595Y-114537258D01*
X152375000Y-114454920D01*
X150875000Y-114454920D01*
X150495158Y-114526392D01*
X150273986Y-114668713D01*
X150081595Y-114537258D01*
X149675000Y-114454920D01*
X149245174Y-114454920D01*
X145458240Y-110667986D01*
X145458240Y-110004377D01*
X145494771Y-109967910D01*
X145757940Y-109334129D01*
X145758386Y-108823640D01*
X150817373Y-113882627D01*
X151279676Y-114191528D01*
X151825000Y-114300000D01*
X155384746Y-114300000D01*
X160375000Y-119290254D01*
X160375000Y-124825000D01*
X160483472Y-125370324D01*
X160792373Y-125832627D01*
X165492373Y-130532627D01*
X165954676Y-130841528D01*
X166500000Y-130950000D01*
X195525000Y-130950000D01*
X196070324Y-130841528D01*
X196532627Y-130532627D01*
X198389375Y-128675879D01*
X212100723Y-128675879D01*
X212184499Y-128732561D01*
X212464927Y-128737242D01*
X212488461Y-128732561D01*
X212572237Y-128675879D01*
X212336480Y-128440122D01*
X212100723Y-128675879D01*
X198389375Y-128675879D01*
X198630254Y-128435000D01*
X209033008Y-128435000D01*
X209465825Y-128614721D01*
X210104334Y-128615278D01*
X210694452Y-128371446D01*
X210907823Y-128158447D01*
X211629238Y-128158447D01*
X211633919Y-128181981D01*
X211690601Y-128265757D01*
X211926358Y-128030000D01*
X212746602Y-128030000D01*
X212982359Y-128265757D01*
X213039041Y-128181981D01*
X213043722Y-127901553D01*
X213039041Y-127878019D01*
X212982359Y-127794243D01*
X212746602Y-128030000D01*
X211926358Y-128030000D01*
X211690601Y-127794243D01*
X211633919Y-127878019D01*
X211629238Y-128158447D01*
X210907823Y-128158447D01*
X211146340Y-127920347D01*
X211369000Y-127384121D01*
X212100723Y-127384121D01*
X212336480Y-127619878D01*
X212572237Y-127384121D01*
X212488461Y-127327439D01*
X212208033Y-127322758D01*
X212184499Y-127327439D01*
X212100723Y-127384121D01*
X211369000Y-127384121D01*
X211391201Y-127330655D01*
X211391758Y-126692146D01*
X211368510Y-126635879D01*
X212100723Y-126635879D01*
X212184499Y-126692561D01*
X212464927Y-126697242D01*
X212488461Y-126692561D01*
X212572237Y-126635879D01*
X212336480Y-126400122D01*
X212100723Y-126635879D01*
X211368510Y-126635879D01*
X211154711Y-126118447D01*
X211629238Y-126118447D01*
X211633919Y-126141981D01*
X211690601Y-126225757D01*
X211926358Y-125990000D01*
X212746602Y-125990000D01*
X212982359Y-126225757D01*
X213039041Y-126141981D01*
X213043722Y-125861553D01*
X213039041Y-125838019D01*
X212982359Y-125754243D01*
X212746602Y-125990000D01*
X211926358Y-125990000D01*
X211690601Y-125754243D01*
X211633919Y-125838019D01*
X211629238Y-126118447D01*
X211154711Y-126118447D01*
X211147926Y-126102028D01*
X211036294Y-125990201D01*
X211146340Y-125880347D01*
X211369000Y-125344121D01*
X212100723Y-125344121D01*
X212336480Y-125579878D01*
X212572237Y-125344121D01*
X212488461Y-125287439D01*
X212208033Y-125282758D01*
X212184499Y-125287439D01*
X212100723Y-125344121D01*
X211369000Y-125344121D01*
X211391201Y-125290655D01*
X211391758Y-124652146D01*
X211147926Y-124062028D01*
X210696827Y-123610140D01*
X210107135Y-123365279D01*
X209468626Y-123364722D01*
X209032320Y-123545000D01*
X196955000Y-123545000D01*
X196409676Y-123653472D01*
X196164381Y-123817373D01*
X195947373Y-123962373D01*
X193659746Y-126250000D01*
X168340254Y-126250000D01*
X164825000Y-122734746D01*
X164825000Y-118329768D01*
X165029676Y-118466528D01*
X165575000Y-118575000D01*
X167778936Y-118575000D01*
X168044349Y-118628748D01*
X168029920Y-118700000D01*
X168029920Y-119246426D01*
X167210340Y-120066006D01*
X167158722Y-120065961D01*
X166524482Y-120328023D01*
X166038809Y-120812850D01*
X165775640Y-121446631D01*
X165775041Y-122132878D01*
X166037103Y-122767118D01*
X166521930Y-123252791D01*
X167155711Y-123515960D01*
X167841958Y-123516559D01*
X168476198Y-123254497D01*
X168514502Y-123216260D01*
X169334346Y-123216260D01*
X169415605Y-123271782D01*
X169822200Y-123354120D01*
X170622200Y-123354120D01*
X171002042Y-123282648D01*
X171274714Y-123107188D01*
X171515605Y-123271782D01*
X171922200Y-123354120D01*
X172722200Y-123354120D01*
X173094644Y-123284040D01*
X173764997Y-123284040D01*
X174013745Y-123454002D01*
X174420340Y-123536340D01*
X175820340Y-123536340D01*
X176200182Y-123464868D01*
X176549044Y-123240381D01*
X176783082Y-122897855D01*
X176865420Y-122491260D01*
X176865420Y-121091260D01*
X176793948Y-120711418D01*
X176569461Y-120362556D01*
X176226935Y-120128518D01*
X175820340Y-120046180D01*
X174420340Y-120046180D01*
X174040498Y-120117652D01*
X173691636Y-120342139D01*
X173628843Y-120434040D01*
X173068264Y-120434040D01*
X172722200Y-120363960D01*
X171922200Y-120363960D01*
X171542358Y-120435432D01*
X171269686Y-120610892D01*
X171028795Y-120446298D01*
X170770149Y-120393921D01*
X170791528Y-120361924D01*
X170900000Y-119816600D01*
X170900000Y-119699157D01*
X170920080Y-119600000D01*
X170920080Y-118700000D01*
X170848608Y-118320158D01*
X170624121Y-117971296D01*
X170281595Y-117737258D01*
X170198350Y-117720400D01*
X170225000Y-117693750D01*
X170225000Y-117375000D01*
X170625000Y-117375000D01*
X170625000Y-117693750D01*
X170656250Y-117725000D01*
X170849864Y-117725000D01*
X170895807Y-117705970D01*
X170930970Y-117670807D01*
X170950000Y-117624864D01*
X170950000Y-117406250D01*
X170918750Y-117375000D01*
X170625000Y-117375000D01*
X170225000Y-117375000D01*
X170025000Y-117375000D01*
X170025000Y-116925000D01*
X170225000Y-116925000D01*
X170225000Y-116606250D01*
X170625000Y-116606250D01*
X170625000Y-116925000D01*
X170918750Y-116925000D01*
X170950000Y-116893750D01*
X170950000Y-116675136D01*
X170930970Y-116629193D01*
X170895807Y-116594030D01*
X170849864Y-116575000D01*
X170656250Y-116575000D01*
X170625000Y-116606250D01*
X170225000Y-116606250D01*
X170193750Y-116575000D01*
X170000136Y-116575000D01*
X169954193Y-116594030D01*
X169950782Y-116597441D01*
X169898608Y-116320158D01*
X169674121Y-115971296D01*
X169331595Y-115737258D01*
X168925000Y-115654920D01*
X168426770Y-115654920D01*
X168476198Y-115634497D01*
X168961871Y-115149670D01*
X169225040Y-114515889D01*
X169225639Y-113829642D01*
X168963577Y-113195402D01*
X168478750Y-112709729D01*
X167844969Y-112446560D01*
X167158722Y-112445961D01*
X166524482Y-112708023D01*
X166038809Y-113192850D01*
X165775640Y-113826631D01*
X165775041Y-114512878D01*
X166037103Y-115147118D01*
X166521930Y-115632791D01*
X166743994Y-115725000D01*
X166165254Y-115725000D01*
X165628380Y-115188126D01*
X165628380Y-112781145D01*
X165816122Y-112506375D01*
X165898460Y-112099780D01*
X165898460Y-110599780D01*
X165826988Y-110219938D01*
X165684667Y-109998766D01*
X165816122Y-109806375D01*
X165851439Y-109631977D01*
X166027103Y-110057118D01*
X166511930Y-110542791D01*
X167145711Y-110805960D01*
X167831958Y-110806559D01*
X168466198Y-110544497D01*
X168951871Y-110059670D01*
X169215040Y-109425889D01*
X169215639Y-108739642D01*
X168953577Y-108105402D01*
X168468750Y-107619729D01*
X167834969Y-107356560D01*
X167148722Y-107355961D01*
X166514482Y-107618023D01*
X166028809Y-108102850D01*
X165898460Y-108416765D01*
X165898460Y-107899780D01*
X165826988Y-107519938D01*
X165628380Y-107211293D01*
X165628380Y-104086874D01*
X165765384Y-103949870D01*
X165765041Y-104342878D01*
X166027103Y-104977118D01*
X166511930Y-105462791D01*
X167145711Y-105725960D01*
X167199833Y-105726007D01*
X170775000Y-109301174D01*
X170775000Y-114350000D01*
X170883472Y-114895324D01*
X171192373Y-115357627D01*
X172842373Y-117007627D01*
X173304676Y-117316528D01*
X173850000Y-117425000D01*
X176509746Y-117425000D01*
X183617373Y-124532627D01*
X184079676Y-124841528D01*
X184625000Y-124950000D01*
X193200000Y-124950000D01*
X193745324Y-124841528D01*
X194207627Y-124532627D01*
X196207627Y-122532627D01*
X196516528Y-122070324D01*
X196625000Y-121525000D01*
X196625000Y-118640254D01*
X196885254Y-118380000D01*
X209460053Y-118380000D01*
X209606585Y-119116666D01*
X210023872Y-119741181D01*
X210037071Y-119750000D01*
X210023872Y-119758819D01*
X209606585Y-120383334D01*
X209460053Y-121120000D01*
X209606585Y-121856666D01*
X210023872Y-122481181D01*
X210648387Y-122898468D01*
X211385053Y-123045000D01*
X212887907Y-123045000D01*
X213624573Y-122898468D01*
X214249088Y-122481181D01*
X214666375Y-121856666D01*
X214812907Y-121120000D01*
X214666375Y-120383334D01*
X214249088Y-119758819D01*
X214235889Y-119750000D01*
X214249088Y-119741181D01*
X214666375Y-119116666D01*
X214812907Y-118380000D01*
X214666375Y-117643334D01*
X214249088Y-117018819D01*
X213624573Y-116601532D01*
X212887907Y-116455000D01*
X211385053Y-116455000D01*
X210648387Y-116601532D01*
X210023872Y-117018819D01*
X209606585Y-117643334D01*
X209460053Y-118380000D01*
X196885254Y-118380000D01*
X200089375Y-115175879D01*
X212100723Y-115175879D01*
X212184499Y-115232561D01*
X212464927Y-115237242D01*
X212488461Y-115232561D01*
X212572237Y-115175879D01*
X212336480Y-114940122D01*
X212100723Y-115175879D01*
X200089375Y-115175879D01*
X200330254Y-114935000D01*
X209033008Y-114935000D01*
X209465825Y-115114721D01*
X210104334Y-115115278D01*
X210694452Y-114871446D01*
X210907823Y-114658447D01*
X211629238Y-114658447D01*
X211633919Y-114681981D01*
X211690601Y-114765757D01*
X211926358Y-114530000D01*
X212746602Y-114530000D01*
X212982359Y-114765757D01*
X213039041Y-114681981D01*
X213043722Y-114401553D01*
X213039041Y-114378019D01*
X212982359Y-114294243D01*
X212746602Y-114530000D01*
X211926358Y-114530000D01*
X211690601Y-114294243D01*
X211633919Y-114378019D01*
X211629238Y-114658447D01*
X210907823Y-114658447D01*
X211146340Y-114420347D01*
X211369000Y-113884121D01*
X212100723Y-113884121D01*
X212336480Y-114119878D01*
X212572237Y-113884121D01*
X212488461Y-113827439D01*
X212208033Y-113822758D01*
X212184499Y-113827439D01*
X212100723Y-113884121D01*
X211369000Y-113884121D01*
X211391201Y-113830655D01*
X211391758Y-113192146D01*
X211368510Y-113135879D01*
X212100723Y-113135879D01*
X212184499Y-113192561D01*
X212464927Y-113197242D01*
X212488461Y-113192561D01*
X212572237Y-113135879D01*
X212336480Y-112900122D01*
X212100723Y-113135879D01*
X211368510Y-113135879D01*
X211154711Y-112618447D01*
X211629238Y-112618447D01*
X211633919Y-112641981D01*
X211690601Y-112725757D01*
X211926358Y-112490000D01*
X212746602Y-112490000D01*
X212982359Y-112725757D01*
X213039041Y-112641981D01*
X213043722Y-112361553D01*
X213039041Y-112338019D01*
X212982359Y-112254243D01*
X212746602Y-112490000D01*
X211926358Y-112490000D01*
X211690601Y-112254243D01*
X211633919Y-112338019D01*
X211629238Y-112618447D01*
X211154711Y-112618447D01*
X211147926Y-112602028D01*
X211036294Y-112490201D01*
X211146340Y-112380347D01*
X211369000Y-111844121D01*
X212100723Y-111844121D01*
X212336480Y-112079878D01*
X212572237Y-111844121D01*
X212488461Y-111787439D01*
X212208033Y-111782758D01*
X212184499Y-111787439D01*
X212100723Y-111844121D01*
X211369000Y-111844121D01*
X211391201Y-111790655D01*
X211391758Y-111152146D01*
X211147926Y-110562028D01*
X210696827Y-110110140D01*
X210107135Y-109865279D01*
X209468626Y-109864722D01*
X209141229Y-110000000D01*
X188845441Y-110000000D01*
X188885140Y-109803960D01*
X188885140Y-109510210D01*
X188915060Y-109510210D01*
X188915060Y-109828824D01*
X188934090Y-109874767D01*
X188969253Y-109909930D01*
X189015196Y-109928960D01*
X189383810Y-109928960D01*
X189415060Y-109897710D01*
X189415060Y-109478960D01*
X190165060Y-109478960D01*
X190165060Y-109897710D01*
X190196310Y-109928960D01*
X190564924Y-109928960D01*
X190610867Y-109909930D01*
X190646030Y-109874767D01*
X190665060Y-109828824D01*
X190665060Y-109510210D01*
X190633810Y-109478960D01*
X190165060Y-109478960D01*
X189415060Y-109478960D01*
X188946310Y-109478960D01*
X188915060Y-109510210D01*
X188885140Y-109510210D01*
X188885140Y-108503960D01*
X188880462Y-108479096D01*
X188915060Y-108479096D01*
X188915060Y-108797710D01*
X188946310Y-108828960D01*
X189415060Y-108828960D01*
X189415060Y-108410210D01*
X190165060Y-108410210D01*
X190165060Y-108828960D01*
X190633810Y-108828960D01*
X190665060Y-108797710D01*
X190665060Y-108479096D01*
X190646030Y-108433153D01*
X190610867Y-108397990D01*
X190564924Y-108378960D01*
X190196310Y-108378960D01*
X190165060Y-108410210D01*
X189415060Y-108410210D01*
X189383810Y-108378960D01*
X189015196Y-108378960D01*
X188969253Y-108397990D01*
X188934090Y-108433153D01*
X188915060Y-108479096D01*
X188880462Y-108479096D01*
X188813668Y-108124118D01*
X188591260Y-107778487D01*
X188591260Y-105787039D01*
X188644964Y-105752481D01*
X188879002Y-105409955D01*
X188961340Y-105003360D01*
X188961340Y-104709610D01*
X188991260Y-104709610D01*
X188991260Y-105028224D01*
X189010290Y-105074167D01*
X189045453Y-105109330D01*
X189091396Y-105128360D01*
X189460010Y-105128360D01*
X189491260Y-105097110D01*
X189491260Y-104678360D01*
X190241260Y-104678360D01*
X190241260Y-105097110D01*
X190272510Y-105128360D01*
X190641124Y-105128360D01*
X190687067Y-105109330D01*
X190722230Y-105074167D01*
X190741260Y-105028224D01*
X190741260Y-104880000D01*
X209460053Y-104880000D01*
X209606585Y-105616666D01*
X210023872Y-106241181D01*
X210037071Y-106250000D01*
X210023872Y-106258819D01*
X209606585Y-106883334D01*
X209460053Y-107620000D01*
X209606585Y-108356666D01*
X210023872Y-108981181D01*
X210648387Y-109398468D01*
X211385053Y-109545000D01*
X212887907Y-109545000D01*
X213624573Y-109398468D01*
X214249088Y-108981181D01*
X214666375Y-108356666D01*
X214812907Y-107620000D01*
X214666375Y-106883334D01*
X214249088Y-106258819D01*
X214235889Y-106250000D01*
X214249088Y-106241181D01*
X214666375Y-105616666D01*
X214812907Y-104880000D01*
X214666375Y-104143334D01*
X214249088Y-103518819D01*
X213624573Y-103101532D01*
X212887907Y-102955000D01*
X211385053Y-102955000D01*
X210648387Y-103101532D01*
X210023872Y-103518819D01*
X209606585Y-104143334D01*
X209460053Y-104880000D01*
X190741260Y-104880000D01*
X190741260Y-104709610D01*
X190710010Y-104678360D01*
X190241260Y-104678360D01*
X189491260Y-104678360D01*
X189022510Y-104678360D01*
X188991260Y-104709610D01*
X188961340Y-104709610D01*
X188961340Y-103703360D01*
X188956662Y-103678496D01*
X188991260Y-103678496D01*
X188991260Y-103997110D01*
X189022510Y-104028360D01*
X189491260Y-104028360D01*
X189491260Y-103609610D01*
X190241260Y-103609610D01*
X190241260Y-104028360D01*
X190710010Y-104028360D01*
X190741260Y-103997110D01*
X190741260Y-103678496D01*
X190722230Y-103632553D01*
X190687067Y-103597390D01*
X190641124Y-103578360D01*
X190272510Y-103578360D01*
X190241260Y-103609610D01*
X189491260Y-103609610D01*
X189460010Y-103578360D01*
X189091396Y-103578360D01*
X189045453Y-103597390D01*
X189010290Y-103632553D01*
X188991260Y-103678496D01*
X188956662Y-103678496D01*
X188889868Y-103323518D01*
X188665381Y-102974656D01*
X188322855Y-102740618D01*
X187916260Y-102658280D01*
X186416260Y-102658280D01*
X186036418Y-102729752D01*
X185687556Y-102954239D01*
X185453518Y-103296765D01*
X185371180Y-103703360D01*
X185371180Y-105003360D01*
X185442652Y-105383202D01*
X185667139Y-105732064D01*
X185741260Y-105782709D01*
X185741260Y-107671248D01*
X185651573Y-107728960D01*
X184544214Y-107728960D01*
X184031180Y-107215926D01*
X184031180Y-106469420D01*
X183959708Y-106089578D01*
X183735221Y-105740716D01*
X183392695Y-105506678D01*
X182986100Y-105424340D01*
X181486100Y-105424340D01*
X181106258Y-105495812D01*
X180885086Y-105638133D01*
X180692695Y-105506678D01*
X180286100Y-105424340D01*
X179856274Y-105424340D01*
X177435567Y-103003633D01*
X176973264Y-102694732D01*
X176427940Y-102586260D01*
X176135217Y-102586260D01*
X176098750Y-102549729D01*
X175677956Y-102375000D01*
X176875000Y-102375000D01*
X177420324Y-102266528D01*
X177882627Y-101957627D01*
X178164375Y-101675879D01*
X212100723Y-101675879D01*
X212184499Y-101732561D01*
X212464927Y-101737242D01*
X212488461Y-101732561D01*
X212572237Y-101675879D01*
X212336480Y-101440122D01*
X212100723Y-101675879D01*
X178164375Y-101675879D01*
X180684707Y-99155547D01*
X180977410Y-98717486D01*
X181518683Y-99079152D01*
X182217080Y-99218072D01*
X182915477Y-99079152D01*
X183487080Y-98697220D01*
X184058683Y-99079152D01*
X184757080Y-99218072D01*
X185455477Y-99079152D01*
X186027080Y-98697220D01*
X186598683Y-99079152D01*
X187297080Y-99218072D01*
X187995477Y-99079152D01*
X188567080Y-98697220D01*
X189138683Y-99079152D01*
X189837080Y-99218072D01*
X190535477Y-99079152D01*
X191107080Y-98697220D01*
X191678683Y-99079152D01*
X192377080Y-99218072D01*
X193075477Y-99079152D01*
X193647080Y-98697220D01*
X194218683Y-99079152D01*
X194917080Y-99218072D01*
X195615477Y-99079152D01*
X196187080Y-98697220D01*
X196758683Y-99079152D01*
X197457080Y-99218072D01*
X198155477Y-99079152D01*
X198747550Y-98683542D01*
X199143160Y-98091469D01*
X199282080Y-97393072D01*
X199282080Y-96913728D01*
X199143160Y-96215331D01*
X199013729Y-96021623D01*
X199219822Y-95719995D01*
X199226162Y-95688689D01*
X199225507Y-96439109D01*
X199728514Y-97656480D01*
X200659101Y-98588692D01*
X201875592Y-99093824D01*
X203192789Y-99094973D01*
X204410160Y-98591966D01*
X204950509Y-98052559D01*
X205058472Y-98595324D01*
X205367373Y-99057627D01*
X207327373Y-101017627D01*
X207789676Y-101326528D01*
X208335000Y-101435000D01*
X209033008Y-101435000D01*
X209465825Y-101614721D01*
X210104334Y-101615278D01*
X210694452Y-101371446D01*
X210907823Y-101158447D01*
X211629238Y-101158447D01*
X211633919Y-101181981D01*
X211690601Y-101265757D01*
X211926358Y-101030000D01*
X212746602Y-101030000D01*
X212982359Y-101265757D01*
X213039041Y-101181981D01*
X213043722Y-100901553D01*
X213039041Y-100878019D01*
X212982359Y-100794243D01*
X212746602Y-101030000D01*
X211926358Y-101030000D01*
X211690601Y-100794243D01*
X211633919Y-100878019D01*
X211629238Y-101158447D01*
X210907823Y-101158447D01*
X211146340Y-100920347D01*
X211369000Y-100384121D01*
X212100723Y-100384121D01*
X212336480Y-100619878D01*
X212572237Y-100384121D01*
X212488461Y-100327439D01*
X212208033Y-100322758D01*
X212184499Y-100327439D01*
X212100723Y-100384121D01*
X211369000Y-100384121D01*
X211391201Y-100330655D01*
X211391758Y-99692146D01*
X211368510Y-99635879D01*
X212100723Y-99635879D01*
X212184499Y-99692561D01*
X212464927Y-99697242D01*
X212488461Y-99692561D01*
X212572237Y-99635879D01*
X212336480Y-99400122D01*
X212100723Y-99635879D01*
X211368510Y-99635879D01*
X211154711Y-99118447D01*
X211629238Y-99118447D01*
X211633919Y-99141981D01*
X211690601Y-99225757D01*
X211926358Y-98990000D01*
X212746602Y-98990000D01*
X212982359Y-99225757D01*
X213039041Y-99141981D01*
X213043722Y-98861553D01*
X213039041Y-98838019D01*
X212982359Y-98754243D01*
X212746602Y-98990000D01*
X211926358Y-98990000D01*
X211690601Y-98754243D01*
X211633919Y-98838019D01*
X211629238Y-99118447D01*
X211154711Y-99118447D01*
X211147926Y-99102028D01*
X211036294Y-98990201D01*
X211146340Y-98880347D01*
X211369000Y-98344121D01*
X212100723Y-98344121D01*
X212336480Y-98579878D01*
X212572237Y-98344121D01*
X212488461Y-98287439D01*
X212208033Y-98282758D01*
X212184499Y-98287439D01*
X212100723Y-98344121D01*
X211369000Y-98344121D01*
X211391201Y-98290655D01*
X211391758Y-97652146D01*
X211147926Y-97062028D01*
X210696827Y-96610140D01*
X210107135Y-96365279D01*
X209468626Y-96364722D01*
X209299753Y-96434499D01*
X209250000Y-96384746D01*
X209250000Y-92725000D01*
X209141528Y-92179676D01*
X208832627Y-91717373D01*
X208495254Y-91380000D01*
X209460053Y-91380000D01*
X209606585Y-92116666D01*
X210023872Y-92741181D01*
X210037071Y-92750000D01*
X210023872Y-92758819D01*
X209606585Y-93383334D01*
X209460053Y-94120000D01*
X209606585Y-94856666D01*
X210023872Y-95481181D01*
X210648387Y-95898468D01*
X211385053Y-96045000D01*
X212887907Y-96045000D01*
X213624573Y-95898468D01*
X214249088Y-95481181D01*
X214666375Y-94856666D01*
X214812907Y-94120000D01*
X214666375Y-93383334D01*
X214249088Y-92758819D01*
X214235889Y-92750000D01*
X214249088Y-92741181D01*
X214666375Y-92116666D01*
X214812907Y-91380000D01*
X214666375Y-90643334D01*
X214249088Y-90018819D01*
X213624573Y-89601532D01*
X212887907Y-89455000D01*
X211385053Y-89455000D01*
X210648387Y-89601532D01*
X210023872Y-90018819D01*
X209606585Y-90643334D01*
X209460053Y-91380000D01*
X208495254Y-91380000D01*
X205291133Y-88175879D01*
X212100723Y-88175879D01*
X212184499Y-88232561D01*
X212464927Y-88237242D01*
X212488461Y-88232561D01*
X212572237Y-88175879D01*
X212336480Y-87940122D01*
X212100723Y-88175879D01*
X205291133Y-88175879D01*
X205050254Y-87935000D01*
X209033008Y-87935000D01*
X209465825Y-88114721D01*
X210104334Y-88115278D01*
X210694452Y-87871446D01*
X210907823Y-87658447D01*
X211629238Y-87658447D01*
X211633919Y-87681981D01*
X211690601Y-87765757D01*
X211926358Y-87530000D01*
X212746602Y-87530000D01*
X212982359Y-87765757D01*
X213039041Y-87681981D01*
X213043722Y-87401553D01*
X213039041Y-87378019D01*
X212982359Y-87294243D01*
X212746602Y-87530000D01*
X211926358Y-87530000D01*
X211690601Y-87294243D01*
X211633919Y-87378019D01*
X211629238Y-87658447D01*
X210907823Y-87658447D01*
X211146340Y-87420347D01*
X211369000Y-86884121D01*
X212100723Y-86884121D01*
X212336480Y-87119878D01*
X212572237Y-86884121D01*
X212488461Y-86827439D01*
X212208033Y-86822758D01*
X212184499Y-86827439D01*
X212100723Y-86884121D01*
X211369000Y-86884121D01*
X211391201Y-86830655D01*
X211391758Y-86192146D01*
X211368510Y-86135879D01*
X212100723Y-86135879D01*
X212184499Y-86192561D01*
X212464927Y-86197242D01*
X212488461Y-86192561D01*
X212572237Y-86135879D01*
X212336480Y-85900122D01*
X212100723Y-86135879D01*
X211368510Y-86135879D01*
X211154711Y-85618447D01*
X211629238Y-85618447D01*
X211633919Y-85641981D01*
X211690601Y-85725757D01*
X211926358Y-85490000D01*
X212746602Y-85490000D01*
X212982359Y-85725757D01*
X213039041Y-85641981D01*
X213043722Y-85361553D01*
X213039041Y-85338019D01*
X212982359Y-85254243D01*
X212746602Y-85490000D01*
X211926358Y-85490000D01*
X211690601Y-85254243D01*
X211633919Y-85338019D01*
X211629238Y-85618447D01*
X211154711Y-85618447D01*
X211147926Y-85602028D01*
X211036294Y-85490201D01*
X211146340Y-85380347D01*
X211369000Y-84844121D01*
X212100723Y-84844121D01*
X212336480Y-85079878D01*
X212572237Y-84844121D01*
X212488461Y-84787439D01*
X212208033Y-84782758D01*
X212184499Y-84787439D01*
X212100723Y-84844121D01*
X211369000Y-84844121D01*
X211391201Y-84790655D01*
X211391758Y-84152146D01*
X211147926Y-83562028D01*
X210696827Y-83110140D01*
X210107135Y-82865279D01*
X209468626Y-82864722D01*
X209032320Y-83045000D01*
X198185254Y-83045000D01*
X195760254Y-80620000D01*
X209460053Y-80620000D01*
X209606585Y-81356666D01*
X210023872Y-81981181D01*
X210648387Y-82398468D01*
X211385053Y-82545000D01*
X212887907Y-82545000D01*
X213624573Y-82398468D01*
X214249088Y-81981181D01*
X214666375Y-81356666D01*
X214812907Y-80620000D01*
X214666375Y-79883334D01*
X214249088Y-79258819D01*
X213624573Y-78841532D01*
X212887907Y-78695000D01*
X211385053Y-78695000D01*
X210648387Y-78841532D01*
X210023872Y-79258819D01*
X209606585Y-79883334D01*
X209460053Y-80620000D01*
X195760254Y-80620000D01*
X190712500Y-75572246D01*
X190712500Y-63437500D01*
X190604028Y-62892176D01*
X190295127Y-62429873D01*
X187257627Y-59392373D01*
X186795324Y-59083472D01*
X186250000Y-58975000D01*
X184594140Y-58975000D01*
X184670080Y-58600000D01*
X184670080Y-58306250D01*
X184700000Y-58306250D01*
X184700000Y-58624864D01*
X184719030Y-58670807D01*
X184754193Y-58705970D01*
X184800136Y-58725000D01*
X185168750Y-58725000D01*
X185200000Y-58693750D01*
X185200000Y-58275000D01*
X185950000Y-58275000D01*
X185950000Y-58693750D01*
X185981250Y-58725000D01*
X186349864Y-58725000D01*
X186395807Y-58705970D01*
X186430970Y-58670807D01*
X186450000Y-58624864D01*
X186450000Y-58306250D01*
X186418750Y-58275000D01*
X185950000Y-58275000D01*
X185200000Y-58275000D01*
X184731250Y-58275000D01*
X184700000Y-58306250D01*
X184670080Y-58306250D01*
X184670080Y-57300000D01*
X184665402Y-57275136D01*
X184700000Y-57275136D01*
X184700000Y-57593750D01*
X184731250Y-57625000D01*
X185200000Y-57625000D01*
X185200000Y-57206250D01*
X185950000Y-57206250D01*
X185950000Y-57625000D01*
X186418750Y-57625000D01*
X186450000Y-57593750D01*
X186450000Y-57275136D01*
X186430970Y-57229193D01*
X186395807Y-57194030D01*
X186349864Y-57175000D01*
X185981250Y-57175000D01*
X185950000Y-57206250D01*
X185200000Y-57206250D01*
X185168750Y-57175000D01*
X184800136Y-57175000D01*
X184754193Y-57194030D01*
X184719030Y-57229193D01*
X184700000Y-57275136D01*
X184665402Y-57275136D01*
X184598608Y-56920158D01*
X184374121Y-56571296D01*
X184031595Y-56337258D01*
X183625000Y-56254920D01*
X183195174Y-56254920D01*
X182395080Y-55454826D01*
X182395080Y-54675000D01*
X182323608Y-54295158D01*
X182099121Y-53946296D01*
X181756595Y-53712258D01*
X181350000Y-53629920D01*
X179850000Y-53629920D01*
X179470158Y-53701392D01*
X179121296Y-53925879D01*
X178887258Y-54268405D01*
X178804920Y-54675000D01*
X178804920Y-55975000D01*
X178876392Y-56354842D01*
X179056232Y-56634320D01*
X177182845Y-56634320D01*
X176908075Y-56446578D01*
X176501480Y-56364240D01*
X175001480Y-56364240D01*
X174621638Y-56435712D01*
X174400466Y-56578033D01*
X174208075Y-56446578D01*
X173801480Y-56364240D01*
X173371654Y-56364240D01*
X173276787Y-56269373D01*
X172814484Y-55960472D01*
X172269160Y-55852000D01*
X169670877Y-55852000D01*
X169634410Y-55815469D01*
X169311175Y-55681250D01*
X177025000Y-55681250D01*
X177025000Y-55999864D01*
X177044030Y-56045807D01*
X177079193Y-56080970D01*
X177125136Y-56100000D01*
X177493750Y-56100000D01*
X177525000Y-56068750D01*
X177525000Y-55650000D01*
X178275000Y-55650000D01*
X178275000Y-56068750D01*
X178306250Y-56100000D01*
X178674864Y-56100000D01*
X178720807Y-56080970D01*
X178755970Y-56045807D01*
X178775000Y-55999864D01*
X178775000Y-55681250D01*
X178743750Y-55650000D01*
X178275000Y-55650000D01*
X177525000Y-55650000D01*
X177056250Y-55650000D01*
X177025000Y-55681250D01*
X169311175Y-55681250D01*
X169119243Y-55601553D01*
X169295324Y-55566528D01*
X169757627Y-55257627D01*
X170365118Y-54650136D01*
X177025000Y-54650136D01*
X177025000Y-54968750D01*
X177056250Y-55000000D01*
X177525000Y-55000000D01*
X177525000Y-54581250D01*
X178275000Y-54581250D01*
X178275000Y-55000000D01*
X178743750Y-55000000D01*
X178775000Y-54968750D01*
X178775000Y-54650136D01*
X178755970Y-54604193D01*
X178720807Y-54569030D01*
X178674864Y-54550000D01*
X178306250Y-54550000D01*
X178275000Y-54581250D01*
X177525000Y-54581250D01*
X177493750Y-54550000D01*
X177125136Y-54550000D01*
X177079193Y-54569030D01*
X177044030Y-54604193D01*
X177025000Y-54650136D01*
X170365118Y-54650136D01*
X171965254Y-53050000D01*
X181925480Y-53050000D01*
X182470804Y-52941528D01*
X182933107Y-52632627D01*
X184632452Y-50933282D01*
X184757080Y-50958072D01*
X185455477Y-50819152D01*
X186027080Y-50437220D01*
X186598683Y-50819152D01*
X187297080Y-50958072D01*
X187995477Y-50819152D01*
X188567080Y-50437220D01*
X189138683Y-50819152D01*
X189837080Y-50958072D01*
X190380714Y-50849936D01*
X190242373Y-50942373D01*
X187917373Y-53267373D01*
X187608472Y-53729676D01*
X187500000Y-54275000D01*
X187500000Y-58425000D01*
X187608472Y-58970324D01*
X187917373Y-59432627D01*
X191575053Y-63090307D01*
X192037356Y-63399208D01*
X192582680Y-63507680D01*
X195117426Y-63507680D01*
X196525000Y-64915254D01*
X196525000Y-73854426D01*
X194778113Y-75601313D01*
X194469212Y-76063616D01*
X194360740Y-76608940D01*
X194469212Y-77154264D01*
X194778113Y-77616567D01*
X195240416Y-77925468D01*
X195785740Y-78033940D01*
X196331064Y-77925468D01*
X196793367Y-77616567D01*
X198957627Y-75452307D01*
X199137821Y-75182627D01*
X199266528Y-74990004D01*
X199375000Y-74444680D01*
X199375000Y-73154246D01*
X207492805Y-73154246D01*
X207655102Y-73239235D01*
X208142011Y-73259621D01*
X208244498Y-73239235D01*
X208406795Y-73154246D01*
X212492805Y-73154246D01*
X212655102Y-73239235D01*
X213142011Y-73259621D01*
X213244498Y-73239235D01*
X213406795Y-73154246D01*
X212949800Y-72697251D01*
X212492805Y-73154246D01*
X208406795Y-73154246D01*
X207949800Y-72697251D01*
X207492805Y-73154246D01*
X199375000Y-73154246D01*
X199375000Y-72217711D01*
X206715679Y-72217711D01*
X206736065Y-72320198D01*
X206821054Y-72482495D01*
X207278049Y-72025500D01*
X208621551Y-72025500D01*
X209078546Y-72482495D01*
X209163535Y-72320198D01*
X209167825Y-72217711D01*
X211715679Y-72217711D01*
X211736065Y-72320198D01*
X211821054Y-72482495D01*
X212278049Y-72025500D01*
X213621551Y-72025500D01*
X214078546Y-72482495D01*
X214163535Y-72320198D01*
X214183921Y-71833289D01*
X214163535Y-71730802D01*
X214078546Y-71568505D01*
X213621551Y-72025500D01*
X212278049Y-72025500D01*
X211821054Y-71568505D01*
X211736065Y-71730802D01*
X211715679Y-72217711D01*
X209167825Y-72217711D01*
X209183921Y-71833289D01*
X209163535Y-71730802D01*
X209078546Y-71568505D01*
X208621551Y-72025500D01*
X207278049Y-72025500D01*
X206821054Y-71568505D01*
X206736065Y-71730802D01*
X206715679Y-72217711D01*
X199375000Y-72217711D01*
X199375000Y-70896754D01*
X207492805Y-70896754D01*
X207949800Y-71353749D01*
X208406795Y-70896754D01*
X208244498Y-70811765D01*
X207757589Y-70791379D01*
X207655102Y-70811765D01*
X207492805Y-70896754D01*
X199375000Y-70896754D01*
X199375000Y-69946334D01*
X208324432Y-69946334D01*
X208647262Y-70727643D01*
X209244513Y-71325937D01*
X210025257Y-71650130D01*
X210870634Y-71650868D01*
X211651943Y-71328038D01*
X212083980Y-70896754D01*
X212492805Y-70896754D01*
X212949800Y-71353749D01*
X213406795Y-70896754D01*
X213244498Y-70811765D01*
X212757589Y-70791379D01*
X212655102Y-70811765D01*
X212492805Y-70896754D01*
X212083980Y-70896754D01*
X212250237Y-70730787D01*
X212574430Y-69950043D01*
X212575168Y-69104666D01*
X212252338Y-68323357D01*
X212083522Y-68154246D01*
X212492805Y-68154246D01*
X212655102Y-68239235D01*
X213142011Y-68259621D01*
X213244498Y-68239235D01*
X213406795Y-68154246D01*
X212949800Y-67697251D01*
X212492805Y-68154246D01*
X212083522Y-68154246D01*
X211655087Y-67725063D01*
X210874343Y-67400870D01*
X210028966Y-67400132D01*
X209247657Y-67722962D01*
X208649363Y-68320213D01*
X208325170Y-69100957D01*
X208324432Y-69946334D01*
X199375000Y-69946334D01*
X199375000Y-68154246D01*
X207492805Y-68154246D01*
X207655102Y-68239235D01*
X208142011Y-68259621D01*
X208244498Y-68239235D01*
X208406795Y-68154246D01*
X207949800Y-67697251D01*
X207492805Y-68154246D01*
X199375000Y-68154246D01*
X199375000Y-67217711D01*
X206715679Y-67217711D01*
X206736065Y-67320198D01*
X206821054Y-67482495D01*
X207278049Y-67025500D01*
X208621551Y-67025500D01*
X209078546Y-67482495D01*
X209163535Y-67320198D01*
X209167825Y-67217711D01*
X211715679Y-67217711D01*
X211736065Y-67320198D01*
X211821054Y-67482495D01*
X212278049Y-67025500D01*
X213621551Y-67025500D01*
X214078546Y-67482495D01*
X214163535Y-67320198D01*
X214183921Y-66833289D01*
X214163535Y-66730802D01*
X214078546Y-66568505D01*
X213621551Y-67025500D01*
X212278049Y-67025500D01*
X211821054Y-66568505D01*
X211736065Y-66730802D01*
X211715679Y-67217711D01*
X209167825Y-67217711D01*
X209183921Y-66833289D01*
X209163535Y-66730802D01*
X209078546Y-66568505D01*
X208621551Y-67025500D01*
X207278049Y-67025500D01*
X206821054Y-66568505D01*
X206736065Y-66730802D01*
X206715679Y-67217711D01*
X199375000Y-67217711D01*
X199375000Y-65896754D01*
X207492805Y-65896754D01*
X207949800Y-66353749D01*
X208406795Y-65896754D01*
X212492805Y-65896754D01*
X212949800Y-66353749D01*
X213406795Y-65896754D01*
X213244498Y-65811765D01*
X212757589Y-65791379D01*
X212655102Y-65811765D01*
X212492805Y-65896754D01*
X208406795Y-65896754D01*
X208244498Y-65811765D01*
X207757589Y-65791379D01*
X207655102Y-65811765D01*
X207492805Y-65896754D01*
X199375000Y-65896754D01*
X199375000Y-64325000D01*
X199266528Y-63779676D01*
X198957627Y-63317373D01*
X196715307Y-61075053D01*
X196253004Y-60766152D01*
X195707680Y-60657680D01*
X193172934Y-60657680D01*
X192729299Y-60214045D01*
X208276021Y-60214045D01*
X208678609Y-61188384D01*
X209423415Y-61934491D01*
X210397050Y-62338779D01*
X211451285Y-62339699D01*
X212425624Y-61937111D01*
X213171731Y-61192305D01*
X213576019Y-60218670D01*
X213576939Y-59164435D01*
X213174351Y-58190096D01*
X212429545Y-57443989D01*
X211455910Y-57039701D01*
X210401675Y-57038781D01*
X209427336Y-57441369D01*
X208681229Y-58186175D01*
X208276941Y-59159810D01*
X208276021Y-60214045D01*
X192729299Y-60214045D01*
X190350000Y-57834746D01*
X190350000Y-54865254D01*
X191840254Y-53375000D01*
X193350000Y-53375000D01*
X193895324Y-53266528D01*
X194357627Y-52957627D01*
X195924707Y-51390547D01*
X196073930Y-51167219D01*
X196233608Y-50928244D01*
X196342080Y-50382920D01*
X196342080Y-50222203D01*
X196603160Y-49831469D01*
X196667352Y-49508754D01*
X196874739Y-49772787D01*
X196931532Y-49854599D01*
X197057080Y-49892643D01*
X197057080Y-49368400D01*
X197857080Y-49368400D01*
X197857080Y-49892643D01*
X197982628Y-49854599D01*
X198039421Y-49772787D01*
X198255083Y-49498219D01*
X198277336Y-49368400D01*
X197857080Y-49368400D01*
X197057080Y-49368400D01*
X196962080Y-49368400D01*
X196962080Y-48418400D01*
X197057080Y-48418400D01*
X197857080Y-48418400D01*
X198277336Y-48418400D01*
X198255083Y-48288581D01*
X198169098Y-48179109D01*
X199225507Y-48179109D01*
X199728514Y-49396480D01*
X200616051Y-50285567D01*
X200494459Y-50406947D01*
X200216797Y-51075631D01*
X200216165Y-51799672D01*
X200492659Y-52468840D01*
X200732611Y-52709210D01*
X200494459Y-52946947D01*
X200216797Y-53615631D01*
X200216165Y-54339672D01*
X200492659Y-55008840D01*
X200732611Y-55249210D01*
X200494459Y-55486947D01*
X200216797Y-56155631D01*
X200216165Y-56879672D01*
X200492659Y-57548840D01*
X201004187Y-58061261D01*
X201672871Y-58338923D01*
X202396912Y-58339555D01*
X202770792Y-58185071D01*
X203032659Y-58818840D01*
X203544187Y-59331261D01*
X204212871Y-59608923D01*
X204936912Y-59609555D01*
X205606080Y-59333061D01*
X206118501Y-58821533D01*
X206396163Y-58152849D01*
X206396795Y-57428808D01*
X206120301Y-56759640D01*
X205880349Y-56519270D01*
X206118501Y-56281533D01*
X206396163Y-55612849D01*
X206396795Y-54888808D01*
X206120301Y-54219640D01*
X205880349Y-53979270D01*
X206118501Y-53741533D01*
X206396163Y-53072849D01*
X206396795Y-52348808D01*
X206120301Y-51679640D01*
X205608773Y-51167219D01*
X204940089Y-50889557D01*
X204216048Y-50888925D01*
X203842168Y-51043409D01*
X203673905Y-50636180D01*
X204410160Y-50331966D01*
X204688566Y-50054045D01*
X208276021Y-50054045D01*
X208678609Y-51028384D01*
X209423415Y-51774491D01*
X210397050Y-52178779D01*
X211451285Y-52179699D01*
X212425624Y-51777111D01*
X213171731Y-51032305D01*
X213576019Y-50058670D01*
X213576939Y-49004435D01*
X213174351Y-48030096D01*
X212429545Y-47283989D01*
X211455910Y-46879701D01*
X210401675Y-46878781D01*
X209427336Y-47281369D01*
X208681229Y-48026175D01*
X208276941Y-48999810D01*
X208276021Y-50054045D01*
X204688566Y-50054045D01*
X205342372Y-49401379D01*
X205847504Y-48184888D01*
X205848653Y-46867691D01*
X205345646Y-45650320D01*
X204415059Y-44718108D01*
X203198568Y-44212976D01*
X201881371Y-44211827D01*
X200664000Y-44714834D01*
X199731788Y-45645421D01*
X199226656Y-46861912D01*
X199225507Y-48179109D01*
X198169098Y-48179109D01*
X198039421Y-48014013D01*
X197982628Y-47932201D01*
X197857080Y-47894157D01*
X197857080Y-48418400D01*
X197057080Y-48418400D01*
X197057080Y-47894157D01*
X196931532Y-47932201D01*
X196874739Y-48014013D01*
X196667352Y-48278046D01*
X196603160Y-47955331D01*
X196314553Y-47523400D01*
X196569199Y-47142296D01*
X196586273Y-47159370D01*
X196632216Y-47178400D01*
X197025830Y-47178400D01*
X197057080Y-47147150D01*
X197057080Y-46653400D01*
X197857080Y-46653400D01*
X197857080Y-47147150D01*
X197888330Y-47178400D01*
X198281944Y-47178400D01*
X198327887Y-47159370D01*
X198363050Y-47124207D01*
X198382080Y-47078264D01*
X198382080Y-46684650D01*
X198350830Y-46653400D01*
X197857080Y-46653400D01*
X197057080Y-46653400D01*
X196962080Y-46653400D01*
X196962080Y-45853400D01*
X197057080Y-45853400D01*
X197057080Y-45359650D01*
X197857080Y-45359650D01*
X197857080Y-45853400D01*
X198350830Y-45853400D01*
X198382080Y-45822150D01*
X198382080Y-45428536D01*
X198363050Y-45382593D01*
X198327887Y-45347430D01*
X198281944Y-45328400D01*
X197888330Y-45328400D01*
X197857080Y-45359650D01*
X197057080Y-45359650D01*
X197025830Y-45328400D01*
X196632216Y-45328400D01*
X196626151Y-45330912D01*
X196603160Y-45215331D01*
X196207550Y-44623258D01*
X195615477Y-44227648D01*
X194917080Y-44088728D01*
X194218683Y-44227648D01*
X193647080Y-44609580D01*
X193075477Y-44227648D01*
X192377080Y-44088728D01*
X191678683Y-44227648D01*
X191107080Y-44609580D01*
X190535477Y-44227648D01*
X189837080Y-44088728D01*
X189138683Y-44227648D01*
X188567080Y-44609580D01*
X187995477Y-44227648D01*
X187297080Y-44088728D01*
X186598683Y-44227648D01*
X186027080Y-44609580D01*
X185455477Y-44227648D01*
X184757080Y-44088728D01*
X184058683Y-44227648D01*
X183487080Y-44609580D01*
X182915477Y-44227648D01*
X182217080Y-44088728D01*
X181518683Y-44227648D01*
X180947080Y-44609580D01*
X180375477Y-44227648D01*
X179677080Y-44088728D01*
X178978683Y-44227648D01*
X178407080Y-44609580D01*
X177835477Y-44227648D01*
X177137080Y-44088728D01*
X176438683Y-44227648D01*
X175867080Y-44609580D01*
X175295477Y-44227648D01*
X174597080Y-44088728D01*
X173898683Y-44227648D01*
X173327080Y-44609580D01*
X172755477Y-44227648D01*
X172057080Y-44088728D01*
X171358683Y-44227648D01*
X170787080Y-44609580D01*
X170215477Y-44227648D01*
X169517080Y-44088728D01*
X168818683Y-44227648D01*
X168247080Y-44609580D01*
X167675477Y-44227648D01*
X166977080Y-44088728D01*
X166278683Y-44227648D01*
X165707080Y-44609580D01*
X165135477Y-44227648D01*
X164437080Y-44088728D01*
X163738683Y-44227648D01*
X163167080Y-44609580D01*
X162595477Y-44227648D01*
X161897080Y-44088728D01*
X161198683Y-44227648D01*
X160627080Y-44609580D01*
X160055477Y-44227648D01*
X159357080Y-44088728D01*
X158658683Y-44227648D01*
X158087080Y-44609580D01*
X157515477Y-44227648D01*
X156817080Y-44088728D01*
X156118683Y-44227648D01*
X155547080Y-44609580D01*
X154975477Y-44227648D01*
X154277080Y-44088728D01*
X153578683Y-44227648D01*
X153007080Y-44609580D01*
X152435477Y-44227648D01*
X151737080Y-44088728D01*
X151038683Y-44227648D01*
X150467080Y-44609580D01*
X149895477Y-44227648D01*
X149197080Y-44088728D01*
X148498683Y-44227648D01*
X147927080Y-44609580D01*
X147355477Y-44227648D01*
X146657080Y-44088728D01*
X145958683Y-44227648D01*
X145366610Y-44623258D01*
X144971000Y-45215331D01*
X144906808Y-45538046D01*
X144699421Y-45274013D01*
X144642628Y-45192201D01*
X144517080Y-45154157D01*
X144517080Y-45678400D01*
X144612080Y-45678400D01*
X144612080Y-46628400D01*
X144517080Y-46628400D01*
X144517080Y-47152643D01*
X144642628Y-47114599D01*
X144699421Y-47032787D01*
X144906808Y-46768754D01*
X144971000Y-47091469D01*
X145259607Y-47523400D01*
X144971000Y-47955331D01*
X144906808Y-48278046D01*
X144699421Y-48014013D01*
X144642628Y-47932201D01*
X144517080Y-47894157D01*
X144517080Y-48418400D01*
X144612080Y-48418400D01*
X144612080Y-49368400D01*
X144517080Y-49368400D01*
X144517080Y-49892643D01*
X144642628Y-49854599D01*
X144699421Y-49772787D01*
X144906808Y-49508754D01*
X144971000Y-49831469D01*
X145366610Y-50423542D01*
X145958683Y-50819152D01*
X146657080Y-50958072D01*
X147355477Y-50819152D01*
X147927080Y-50437220D01*
X148498683Y-50819152D01*
X149197080Y-50958072D01*
X149895477Y-50819152D01*
X150467080Y-50437220D01*
X151038683Y-50819152D01*
X151737080Y-50958072D01*
X152435477Y-50819152D01*
X153007080Y-50437220D01*
X153578683Y-50819152D01*
X154277080Y-50958072D01*
X154975477Y-50819152D01*
X155567550Y-50423542D01*
X155963160Y-49831469D01*
X156027352Y-49508754D01*
X156234739Y-49772787D01*
X156291532Y-49854599D01*
X156417080Y-49892643D01*
X156417080Y-49368400D01*
X156322080Y-49368400D01*
X156322080Y-48418400D01*
X156417080Y-48418400D01*
X156417080Y-48398400D01*
X157217080Y-48398400D01*
X157217080Y-48418400D01*
X157312080Y-48418400D01*
X157312080Y-49368400D01*
X157217080Y-49368400D01*
X157217080Y-49892643D01*
X157342628Y-49854599D01*
X157399421Y-49772787D01*
X157606808Y-49508754D01*
X157671000Y-49831469D01*
X158066610Y-50423542D01*
X158658683Y-50819152D01*
X159357080Y-50958072D01*
X160055477Y-50819152D01*
X160627080Y-50437220D01*
X161198683Y-50819152D01*
X161897080Y-50958072D01*
X162595477Y-50819152D01*
X163167080Y-50437220D01*
X163738683Y-50819152D01*
X164437080Y-50958072D01*
X165135477Y-50819152D01*
X165707080Y-50437220D01*
X166278683Y-50819152D01*
X166580549Y-50879197D01*
X166459746Y-51000000D01*
X143775000Y-51000000D01*
X143229676Y-51108472D01*
X142767373Y-51417373D01*
X139417373Y-54767373D01*
X139108472Y-55229676D01*
X139000000Y-55775000D01*
X139000000Y-61430280D01*
X138807627Y-61142373D01*
X136494820Y-58829566D01*
X136494820Y-58457937D01*
X136531351Y-58421470D01*
X136794520Y-57787689D01*
X136795119Y-57101442D01*
X136533057Y-56467202D01*
X136048230Y-55981529D01*
X135414449Y-55718360D01*
X134728202Y-55717761D01*
X134093962Y-55979823D01*
X133608289Y-56464650D01*
X133345120Y-57098431D01*
X133344521Y-57784678D01*
X133606583Y-58418918D01*
X133644820Y-58457222D01*
X133644820Y-59419820D01*
X133753292Y-59965144D01*
X134062193Y-60427447D01*
X134518963Y-60884217D01*
X134093962Y-61059823D01*
X133608289Y-61544650D01*
X133345120Y-62178431D01*
X133344521Y-62864678D01*
X133606583Y-63498918D01*
X134091410Y-63984591D01*
X134725191Y-64247760D01*
X135411438Y-64248359D01*
X136045678Y-63986297D01*
X136375000Y-63657549D01*
X136375000Y-66468852D01*
X136058230Y-66151529D01*
X135424449Y-65888360D01*
X134738202Y-65887761D01*
X134103962Y-66149823D01*
X134065658Y-66188060D01*
X132203314Y-66188060D01*
X129707627Y-63692373D01*
X129245324Y-63383472D01*
X128700000Y-63275000D01*
X128154676Y-63383472D01*
X127692373Y-63692373D01*
X127678933Y-63705813D01*
X127370032Y-64168116D01*
X127261560Y-64713440D01*
X89034800Y-64713440D01*
X89034800Y-48349500D01*
X118590120Y-48349500D01*
X118590120Y-50329500D01*
X118661592Y-50709342D01*
X118886079Y-51058204D01*
X119228605Y-51292242D01*
X119635200Y-51374580D01*
X123595200Y-51374580D01*
X123703994Y-51354109D01*
X133185507Y-51354109D01*
X133688514Y-52571480D01*
X134619101Y-53503692D01*
X135835592Y-54008824D01*
X137152789Y-54009973D01*
X138370160Y-53506966D01*
X139302372Y-52576379D01*
X139807504Y-51359888D01*
X139808653Y-50042691D01*
X139530042Y-49368400D01*
X140756824Y-49368400D01*
X140779077Y-49498219D01*
X140994739Y-49772787D01*
X141051532Y-49854599D01*
X141177080Y-49892643D01*
X141177080Y-49368400D01*
X141977080Y-49368400D01*
X141977080Y-49892643D01*
X142102628Y-49854599D01*
X142159421Y-49772787D01*
X142375083Y-49498219D01*
X142397336Y-49368400D01*
X143296824Y-49368400D01*
X143319077Y-49498219D01*
X143534739Y-49772787D01*
X143591532Y-49854599D01*
X143717080Y-49892643D01*
X143717080Y-49368400D01*
X143296824Y-49368400D01*
X142397336Y-49368400D01*
X141977080Y-49368400D01*
X141177080Y-49368400D01*
X140756824Y-49368400D01*
X139530042Y-49368400D01*
X139305646Y-48825320D01*
X138899436Y-48418400D01*
X140756824Y-48418400D01*
X141177080Y-48418400D01*
X141977080Y-48418400D01*
X142397336Y-48418400D01*
X143296824Y-48418400D01*
X143717080Y-48418400D01*
X143717080Y-47894157D01*
X143591532Y-47932201D01*
X143534739Y-48014013D01*
X143319077Y-48288581D01*
X143296824Y-48418400D01*
X142397336Y-48418400D01*
X142375083Y-48288581D01*
X142159421Y-48014013D01*
X142102628Y-47932201D01*
X141977080Y-47894157D01*
X141977080Y-48418400D01*
X141177080Y-48418400D01*
X141177080Y-47894157D01*
X141051532Y-47932201D01*
X140994739Y-48014013D01*
X140779077Y-48288581D01*
X140756824Y-48418400D01*
X138899436Y-48418400D01*
X138375059Y-47893108D01*
X137158568Y-47387976D01*
X135841371Y-47386827D01*
X134624000Y-47889834D01*
X133691788Y-48820421D01*
X133186656Y-50036912D01*
X133185507Y-51354109D01*
X123703994Y-51354109D01*
X123975042Y-51303108D01*
X124323904Y-51078621D01*
X124557942Y-50736095D01*
X124640280Y-50329500D01*
X124640280Y-48349500D01*
X124568808Y-47969658D01*
X124344321Y-47620796D01*
X124001795Y-47386758D01*
X123595200Y-47304420D01*
X119635200Y-47304420D01*
X119255358Y-47375892D01*
X118906496Y-47600379D01*
X118672458Y-47942905D01*
X118590120Y-48349500D01*
X89034800Y-48349500D01*
X89034800Y-46628400D01*
X140756824Y-46628400D01*
X140779077Y-46758219D01*
X140994739Y-47032787D01*
X141051532Y-47114599D01*
X141177080Y-47152643D01*
X141177080Y-46628400D01*
X141977080Y-46628400D01*
X141977080Y-47152643D01*
X142102628Y-47114599D01*
X142159421Y-47032787D01*
X142375083Y-46758219D01*
X142397336Y-46628400D01*
X143296824Y-46628400D01*
X143319077Y-46758219D01*
X143534739Y-47032787D01*
X143591532Y-47114599D01*
X143717080Y-47152643D01*
X143717080Y-46628400D01*
X143296824Y-46628400D01*
X142397336Y-46628400D01*
X141977080Y-46628400D01*
X141177080Y-46628400D01*
X140756824Y-46628400D01*
X89034800Y-46628400D01*
X89034800Y-45678400D01*
X140756824Y-45678400D01*
X141177080Y-45678400D01*
X141977080Y-45678400D01*
X142397336Y-45678400D01*
X143296824Y-45678400D01*
X143717080Y-45678400D01*
X143717080Y-45154157D01*
X143591532Y-45192201D01*
X143534739Y-45274013D01*
X143319077Y-45548581D01*
X143296824Y-45678400D01*
X142397336Y-45678400D01*
X142375083Y-45548581D01*
X142159421Y-45274013D01*
X142102628Y-45192201D01*
X141977080Y-45154157D01*
X141977080Y-45678400D01*
X141177080Y-45678400D01*
X141177080Y-45154157D01*
X141051532Y-45192201D01*
X140994739Y-45274013D01*
X140779077Y-45548581D01*
X140756824Y-45678400D01*
X89034800Y-45678400D01*
X89034800Y-44814500D01*
X119651091Y-44814500D01*
X119703164Y-44966457D01*
X119759665Y-45187851D01*
X120150200Y-45454500D01*
X121140200Y-45454500D01*
X121140200Y-44814500D01*
X122090200Y-44814500D01*
X122090200Y-45454500D01*
X123080200Y-45454500D01*
X123470735Y-45187851D01*
X123527236Y-44966457D01*
X123579309Y-44814500D01*
X122090200Y-44814500D01*
X121140200Y-44814500D01*
X119651091Y-44814500D01*
X89034800Y-44814500D01*
X89034800Y-43864500D01*
X119651091Y-43864500D01*
X121140200Y-43864500D01*
X121140200Y-43224500D01*
X122090200Y-43224500D01*
X122090200Y-43864500D01*
X123579309Y-43864500D01*
X123527236Y-43712543D01*
X123470735Y-43491149D01*
X123080200Y-43224500D01*
X122090200Y-43224500D01*
X121140200Y-43224500D01*
X120150200Y-43224500D01*
X119759665Y-43491149D01*
X119703164Y-43712543D01*
X119651091Y-43864500D01*
X89034800Y-43864500D01*
X89034800Y-39230280D01*
X215826480Y-39230280D01*
X215826480Y-137030280D01*
X215826480Y-137030280D01*
G37*
X215826480Y-137030280D02*
X88008529Y-137030280D01*
X87995760Y-137027740D01*
X58011240Y-137027740D01*
X58011240Y-131880000D01*
X209460053Y-131880000D01*
X209606585Y-132616666D01*
X210023872Y-133241181D01*
X210648387Y-133658468D01*
X211385053Y-133805000D01*
X212887907Y-133805000D01*
X213624573Y-133658468D01*
X214249088Y-133241181D01*
X214666375Y-132616666D01*
X214812907Y-131880000D01*
X214666375Y-131143334D01*
X214249088Y-130518819D01*
X213624573Y-130101532D01*
X212887907Y-129955000D01*
X211385053Y-129955000D01*
X210648387Y-130101532D01*
X210023872Y-130518819D01*
X209606585Y-131143334D01*
X209460053Y-131880000D01*
X58011240Y-131880000D01*
X58011240Y-122240399D01*
X99008352Y-122240399D01*
X99471834Y-122579543D01*
X100848213Y-123009980D01*
X102284542Y-122880935D01*
X103012166Y-122579543D01*
X103475648Y-122240399D01*
X101242000Y-120006751D01*
X99008352Y-122240399D01*
X58011240Y-122240399D01*
X58011240Y-118760292D01*
X65918739Y-118760292D01*
X66133459Y-118888460D01*
X66773491Y-118979437D01*
X66965655Y-118941213D01*
X97567020Y-118941213D01*
X97696065Y-120377542D01*
X97997457Y-121105166D01*
X98336601Y-121568648D01*
X100570249Y-119335000D01*
X101913751Y-119335000D01*
X104147399Y-121568648D01*
X104486543Y-121105166D01*
X104916980Y-119728787D01*
X104787935Y-118292458D01*
X104486543Y-117564834D01*
X104147399Y-117101352D01*
X101913751Y-119335000D01*
X100570249Y-119335000D01*
X98336601Y-117101352D01*
X97997457Y-117564834D01*
X97567020Y-118941213D01*
X66965655Y-118941213D01*
X67230861Y-118888460D01*
X67445581Y-118760292D01*
X66682160Y-117996871D01*
X65918739Y-118760292D01*
X58011240Y-118760292D01*
X58011240Y-117416451D01*
X65027843Y-117416451D01*
X65118820Y-117873821D01*
X65246988Y-118088541D01*
X66010409Y-117325120D01*
X67353911Y-117325120D01*
X68117332Y-118088541D01*
X68245500Y-117873821D01*
X68336477Y-117233789D01*
X68245500Y-116776419D01*
X68117332Y-116561699D01*
X67353911Y-117325120D01*
X66010409Y-117325120D01*
X65246988Y-116561699D01*
X65118820Y-116776419D01*
X65027843Y-117416451D01*
X58011240Y-117416451D01*
X58011240Y-115889948D01*
X65918739Y-115889948D01*
X66682160Y-116653369D01*
X66905928Y-116429601D01*
X99008352Y-116429601D01*
X101242000Y-118663249D01*
X103475648Y-116429601D01*
X103012166Y-116090457D01*
X101635787Y-115660020D01*
X100199458Y-115789065D01*
X99471834Y-116090457D01*
X99008352Y-116429601D01*
X66905928Y-116429601D01*
X67445581Y-115889948D01*
X67230861Y-115761780D01*
X66590829Y-115670803D01*
X66133459Y-115761780D01*
X65918739Y-115889948D01*
X58011240Y-115889948D01*
X58011240Y-115088240D01*
X69069370Y-115088240D01*
X69179728Y-115150440D01*
X69524592Y-115150440D01*
X69634950Y-115088240D01*
X69352160Y-114805450D01*
X69069370Y-115088240D01*
X58011240Y-115088240D01*
X58011240Y-114102688D01*
X68476840Y-114102688D01*
X68476840Y-114447552D01*
X68539040Y-114557910D01*
X68821830Y-114275120D01*
X69882490Y-114275120D01*
X70165280Y-114557910D01*
X70227480Y-114447552D01*
X70227480Y-114102688D01*
X70165280Y-113992330D01*
X69882490Y-114275120D01*
X68821830Y-114275120D01*
X68539040Y-113992330D01*
X68476840Y-114102688D01*
X58011240Y-114102688D01*
X58011240Y-81671160D01*
X58038000Y-81671160D01*
X58038000Y-108864400D01*
X58154084Y-109447992D01*
X58484662Y-109942738D01*
X61355382Y-112813458D01*
X61850128Y-113144036D01*
X62433720Y-113260120D01*
X68396220Y-113260120D01*
X68997542Y-113509811D01*
X69117285Y-113509915D01*
X69352160Y-113744790D01*
X69586625Y-113510325D01*
X69703680Y-113510427D01*
X70356303Y-113240769D01*
X70856054Y-112741889D01*
X71126851Y-112089738D01*
X71127467Y-111383600D01*
X70857809Y-110730977D01*
X70847389Y-110720539D01*
X70856054Y-110711889D01*
X71126851Y-110059738D01*
X71127467Y-109353600D01*
X70857809Y-108700977D01*
X70592389Y-108435094D01*
X70856054Y-108171889D01*
X71126851Y-107519738D01*
X71127467Y-106813600D01*
X70877160Y-106207810D01*
X70877160Y-94833440D01*
X70761076Y-94249848D01*
X70430498Y-93755102D01*
X68180058Y-91504662D01*
X67795944Y-91248006D01*
X67639121Y-91004296D01*
X67296595Y-90770258D01*
X66890000Y-90687920D01*
X65190000Y-90687920D01*
X64810158Y-90759392D01*
X64461296Y-90983879D01*
X64458865Y-90987436D01*
X64254264Y-90850726D01*
X63536733Y-90708000D01*
X63463267Y-90708000D01*
X62745736Y-90850726D01*
X62137442Y-91257175D01*
X61730993Y-91865469D01*
X61588267Y-92583000D01*
X61730993Y-93300531D01*
X61975000Y-93665713D01*
X61975000Y-107812840D01*
X62091084Y-108396432D01*
X62421662Y-108891178D01*
X63740604Y-110210120D01*
X63065396Y-110210120D01*
X61088000Y-108232724D01*
X61088000Y-83140399D01*
X99008352Y-83140399D01*
X99471834Y-83479543D01*
X100848213Y-83909980D01*
X102284542Y-83780935D01*
X103012166Y-83479543D01*
X103475648Y-83140399D01*
X101242000Y-80906751D01*
X99008352Y-83140399D01*
X61088000Y-83140399D01*
X61088000Y-82302836D01*
X62164159Y-81226677D01*
X62745736Y-81615274D01*
X63463267Y-81758000D01*
X63536733Y-81758000D01*
X64254264Y-81615274D01*
X64862558Y-81208825D01*
X65269007Y-80600531D01*
X65290785Y-80491044D01*
X65482953Y-80683262D01*
X65615000Y-80729301D01*
X65615000Y-80308000D01*
X66465000Y-80308000D01*
X66465000Y-80729301D01*
X66597047Y-80683262D01*
X66840208Y-80440038D01*
X66882638Y-80308000D01*
X66465000Y-80308000D01*
X65615000Y-80308000D01*
X65545000Y-80308000D01*
X65545000Y-79841213D01*
X97567020Y-79841213D01*
X97696065Y-81277542D01*
X97997457Y-82005166D01*
X98336601Y-82468648D01*
X100570249Y-80235000D01*
X101913751Y-80235000D01*
X104147399Y-82468648D01*
X104486543Y-82005166D01*
X104916980Y-80628787D01*
X104787935Y-79192458D01*
X104486543Y-78464834D01*
X104147399Y-78001352D01*
X101913751Y-80235000D01*
X100570249Y-80235000D01*
X98336601Y-78001352D01*
X97997457Y-78464834D01*
X97567020Y-79841213D01*
X65545000Y-79841213D01*
X65545000Y-79458000D01*
X65615000Y-79458000D01*
X66465000Y-79458000D01*
X66882638Y-79458000D01*
X66840208Y-79325962D01*
X66597047Y-79082738D01*
X66465000Y-79036699D01*
X66465000Y-79458000D01*
X65615000Y-79458000D01*
X65615000Y-79036699D01*
X65482953Y-79082738D01*
X65290785Y-79274956D01*
X65269007Y-79165469D01*
X64862558Y-78557175D01*
X64254264Y-78150726D01*
X63536733Y-78008000D01*
X63463267Y-78008000D01*
X62750793Y-78149720D01*
X61559445Y-78149720D01*
X61559440Y-78149719D01*
X60975848Y-78265804D01*
X60481102Y-78596382D01*
X58484662Y-80592822D01*
X58154084Y-81087568D01*
X58038000Y-81671160D01*
X58011240Y-81671160D01*
X58011240Y-77329601D01*
X99008352Y-77329601D01*
X101242000Y-79563249D01*
X103475648Y-77329601D01*
X103012166Y-76990457D01*
X101635787Y-76560020D01*
X100199458Y-76689065D01*
X99471834Y-76990457D01*
X99008352Y-77329601D01*
X58011240Y-77329601D01*
X58011240Y-68091220D01*
X87934800Y-68091220D01*
X88355752Y-68007487D01*
X88712617Y-67769037D01*
X88951067Y-67412172D01*
X89034800Y-66991220D01*
X89034800Y-64713440D01*
X127261560Y-64713440D01*
X127261560Y-106236560D01*
X127370032Y-106781884D01*
X127678933Y-107244187D01*
X128742373Y-108307627D01*
X129204676Y-108616528D01*
X129750000Y-108725000D01*
X130295323Y-108616528D01*
X130757627Y-108307627D01*
X130954720Y-108012656D01*
X130954720Y-114343115D01*
X130766978Y-114617885D01*
X130684640Y-115024480D01*
X130684640Y-116524480D01*
X130756112Y-116904322D01*
X130898433Y-117125494D01*
X130766978Y-117317885D01*
X130684640Y-117724480D01*
X130684640Y-119224480D01*
X130756112Y-119604322D01*
X130980599Y-119953184D01*
X131323125Y-120187222D01*
X131729720Y-120269560D01*
X133029720Y-120269560D01*
X133409562Y-120198088D01*
X133758424Y-119973601D01*
X133809069Y-119899480D01*
X133960880Y-119899480D01*
X134506204Y-119791008D01*
X134968507Y-119482107D01*
X136385687Y-118064927D01*
X136403780Y-118161084D01*
X136403780Y-119888806D01*
X136338152Y-119954434D01*
X136071622Y-119954201D01*
X135437382Y-120216263D01*
X134951709Y-120701090D01*
X134688540Y-121334871D01*
X134687941Y-122021118D01*
X134950003Y-122655358D01*
X135434830Y-123141031D01*
X136068611Y-123404200D01*
X136754858Y-123404799D01*
X137389098Y-123142737D01*
X137427402Y-123104500D01*
X138171337Y-123104500D01*
X138211705Y-123132082D01*
X138618300Y-123214420D01*
X139418300Y-123214420D01*
X139798142Y-123142948D01*
X140070814Y-122967488D01*
X140311705Y-123132082D01*
X140718300Y-123214420D01*
X141518300Y-123214420D01*
X141890744Y-123144340D01*
X142637006Y-123144340D01*
X142926645Y-123342242D01*
X143333240Y-123424580D01*
X144733240Y-123424580D01*
X145113082Y-123353108D01*
X145461944Y-123128621D01*
X145695982Y-122786095D01*
X145778320Y-122379500D01*
X145778320Y-120979500D01*
X145706848Y-120599658D01*
X145482361Y-120250796D01*
X145139835Y-120016758D01*
X144733240Y-119934420D01*
X143333240Y-119934420D01*
X142953398Y-120005892D01*
X142604536Y-120230379D01*
X142560833Y-120294340D01*
X141864364Y-120294340D01*
X141518300Y-120224260D01*
X140718300Y-120224260D01*
X140338458Y-120295732D01*
X140065786Y-120471192D01*
X139824895Y-120306598D01*
X139418300Y-120224260D01*
X139253780Y-120224260D01*
X139253780Y-118763504D01*
X139272810Y-118809447D01*
X139307973Y-118844610D01*
X139353916Y-118863640D01*
X139572530Y-118863640D01*
X139603780Y-118832390D01*
X139603780Y-118538640D01*
X140053780Y-118538640D01*
X140053780Y-118832390D01*
X140085030Y-118863640D01*
X140303644Y-118863640D01*
X140349587Y-118844610D01*
X140384750Y-118809447D01*
X140403780Y-118763504D01*
X140403780Y-118569890D01*
X140372530Y-118538640D01*
X140053780Y-118538640D01*
X139603780Y-118538640D01*
X139285030Y-118538640D01*
X139253780Y-118569890D01*
X139253780Y-118134704D01*
X139258380Y-118111990D01*
X139285030Y-118138640D01*
X139603780Y-118138640D01*
X139603780Y-117938640D01*
X140053780Y-117938640D01*
X140053780Y-118138640D01*
X140372530Y-118138640D01*
X140403780Y-118107390D01*
X140403780Y-117913776D01*
X140384750Y-117867833D01*
X140381339Y-117864422D01*
X140658622Y-117812248D01*
X141007484Y-117587761D01*
X141241522Y-117245235D01*
X141323860Y-116838640D01*
X141323860Y-116038640D01*
X141252388Y-115658798D01*
X141027901Y-115309936D01*
X140685375Y-115075898D01*
X140429470Y-115024076D01*
X140262407Y-114857013D01*
X139800104Y-114548112D01*
X139254780Y-114439640D01*
X138123195Y-114439640D01*
X138137940Y-114404129D01*
X138138539Y-113717882D01*
X137876477Y-113083642D01*
X137391650Y-112597969D01*
X136757869Y-112334800D01*
X136071622Y-112334201D01*
X135437382Y-112596263D01*
X134951709Y-113081090D01*
X134688540Y-113714871D01*
X134687941Y-114401118D01*
X134950003Y-115035358D01*
X135167186Y-115252920D01*
X134074800Y-116345306D01*
X134074800Y-115024480D01*
X134003328Y-114644638D01*
X133804720Y-114335993D01*
X133804720Y-109311118D01*
X134677941Y-109311118D01*
X134940003Y-109945358D01*
X135424830Y-110431031D01*
X136058611Y-110694200D01*
X136744858Y-110694799D01*
X137379098Y-110432737D01*
X137864771Y-109947910D01*
X138127940Y-109314129D01*
X138128539Y-108627882D01*
X137866477Y-107993642D01*
X137381650Y-107507969D01*
X136747869Y-107244800D01*
X136061622Y-107244201D01*
X135427382Y-107506263D01*
X134941709Y-107991090D01*
X134678540Y-108624871D01*
X134677941Y-109311118D01*
X133804720Y-109311118D01*
X133804720Y-103460534D01*
X136140254Y-101125000D01*
X164559746Y-101125000D01*
X163195753Y-102488993D01*
X162886852Y-102951296D01*
X162778380Y-103496620D01*
X162778380Y-107218415D01*
X162590638Y-107493185D01*
X162508300Y-107899780D01*
X162508300Y-109399780D01*
X162579772Y-109779622D01*
X162722093Y-110000794D01*
X162590638Y-110193185D01*
X162508300Y-110599780D01*
X162508300Y-112099780D01*
X162579772Y-112479622D01*
X162778380Y-112788267D01*
X162778380Y-115138126D01*
X157835995Y-110195741D01*
X157862742Y-110156595D01*
X157945080Y-109750000D01*
X157945080Y-109456250D01*
X157975000Y-109456250D01*
X157975000Y-109774864D01*
X157994030Y-109820807D01*
X158029193Y-109855970D01*
X158075136Y-109875000D01*
X158443750Y-109875000D01*
X158475000Y-109843750D01*
X158475000Y-109425000D01*
X159225000Y-109425000D01*
X159225000Y-109843750D01*
X159256250Y-109875000D01*
X159624864Y-109875000D01*
X159670807Y-109855970D01*
X159705970Y-109820807D01*
X159725000Y-109774864D01*
X159725000Y-109456250D01*
X159693750Y-109425000D01*
X159225000Y-109425000D01*
X158475000Y-109425000D01*
X158006250Y-109425000D01*
X157975000Y-109456250D01*
X157945080Y-109456250D01*
X157945080Y-108450000D01*
X157940402Y-108425136D01*
X157975000Y-108425136D01*
X157975000Y-108743750D01*
X158006250Y-108775000D01*
X158475000Y-108775000D01*
X158475000Y-108356250D01*
X159225000Y-108356250D01*
X159225000Y-108775000D01*
X159693750Y-108775000D01*
X159725000Y-108743750D01*
X159725000Y-108425136D01*
X159705970Y-108379193D01*
X159670807Y-108344030D01*
X159624864Y-108325000D01*
X159256250Y-108325000D01*
X159225000Y-108356250D01*
X158475000Y-108356250D01*
X158443750Y-108325000D01*
X158075136Y-108325000D01*
X158029193Y-108344030D01*
X157994030Y-108379193D01*
X157975000Y-108425136D01*
X157940402Y-108425136D01*
X157873608Y-108070158D01*
X157649121Y-107721296D01*
X157306595Y-107487258D01*
X156900000Y-107404920D01*
X155400000Y-107404920D01*
X155020158Y-107476392D01*
X154711513Y-107675000D01*
X154215254Y-107675000D01*
X153449580Y-106909326D01*
X153449580Y-106215674D01*
X154064694Y-105600560D01*
X154647835Y-105600560D01*
X154922605Y-105788302D01*
X155329200Y-105870640D01*
X156829200Y-105870640D01*
X157209042Y-105799168D01*
X157557904Y-105574681D01*
X157791942Y-105232155D01*
X157874280Y-104825560D01*
X157874280Y-104531810D01*
X157904200Y-104531810D01*
X157904200Y-104850424D01*
X157923230Y-104896367D01*
X157958393Y-104931530D01*
X158004336Y-104950560D01*
X158372950Y-104950560D01*
X158404200Y-104919310D01*
X158404200Y-104500560D01*
X159154200Y-104500560D01*
X159154200Y-104919310D01*
X159185450Y-104950560D01*
X159554064Y-104950560D01*
X159600007Y-104931530D01*
X159635170Y-104896367D01*
X159654200Y-104850424D01*
X159654200Y-104531810D01*
X159622950Y-104500560D01*
X159154200Y-104500560D01*
X158404200Y-104500560D01*
X157935450Y-104500560D01*
X157904200Y-104531810D01*
X157874280Y-104531810D01*
X157874280Y-103525560D01*
X157869602Y-103500696D01*
X157904200Y-103500696D01*
X157904200Y-103819310D01*
X157935450Y-103850560D01*
X158404200Y-103850560D01*
X158404200Y-103431810D01*
X159154200Y-103431810D01*
X159154200Y-103850560D01*
X159622950Y-103850560D01*
X159654200Y-103819310D01*
X159654200Y-103500696D01*
X159635170Y-103454753D01*
X159600007Y-103419590D01*
X159554064Y-103400560D01*
X159185450Y-103400560D01*
X159154200Y-103431810D01*
X158404200Y-103431810D01*
X158372950Y-103400560D01*
X158004336Y-103400560D01*
X157958393Y-103419590D01*
X157923230Y-103454753D01*
X157904200Y-103500696D01*
X157869602Y-103500696D01*
X157802808Y-103145718D01*
X157578321Y-102796856D01*
X157235795Y-102562818D01*
X156829200Y-102480480D01*
X155329200Y-102480480D01*
X154949358Y-102551952D01*
X154640713Y-102750560D01*
X153474440Y-102750560D01*
X152929116Y-102859032D01*
X152567985Y-103100332D01*
X152466813Y-103167933D01*
X150844224Y-104790522D01*
X150524658Y-104850652D01*
X150303486Y-104992973D01*
X150111095Y-104861518D01*
X149704500Y-104779180D01*
X149416095Y-104779180D01*
X147458078Y-102821162D01*
X146963332Y-102490584D01*
X146379740Y-102374500D01*
X144858800Y-102374500D01*
X144377869Y-102174800D01*
X143691622Y-102174201D01*
X143057382Y-102436263D01*
X142571709Y-102921090D01*
X142308540Y-103554871D01*
X142307941Y-104241118D01*
X142404579Y-104475000D01*
X139003994Y-104475000D01*
X138128494Y-103599500D01*
X138128539Y-103547882D01*
X137866477Y-102913642D01*
X137381650Y-102427969D01*
X136747869Y-102164800D01*
X136061622Y-102164201D01*
X135427382Y-102426263D01*
X134941709Y-102911090D01*
X134678540Y-103544871D01*
X134677941Y-104231118D01*
X134940003Y-104865358D01*
X135424830Y-105351031D01*
X136058611Y-105614200D01*
X136112733Y-105614247D01*
X137406113Y-106907627D01*
X137868416Y-107216528D01*
X138413740Y-107325000D01*
X143544477Y-107325000D01*
X143057382Y-107526263D01*
X142571709Y-108011090D01*
X142308540Y-108644871D01*
X142307941Y-109331118D01*
X142570003Y-109965358D01*
X142608240Y-110003662D01*
X142608240Y-111258240D01*
X142716712Y-111803564D01*
X143025613Y-112265867D01*
X143268696Y-112508950D01*
X143057382Y-112596263D01*
X142571709Y-113081090D01*
X142308540Y-113714871D01*
X142307941Y-114401118D01*
X142570003Y-115035358D01*
X143054830Y-115521031D01*
X143244532Y-115599802D01*
X143449648Y-115736856D01*
X144033240Y-115852940D01*
X144616832Y-115736856D01*
X144820915Y-115600493D01*
X145009098Y-115522737D01*
X145494771Y-115037910D01*
X145583639Y-114823893D01*
X147129920Y-116370174D01*
X147129920Y-116800000D01*
X147201392Y-117179842D01*
X147425879Y-117528704D01*
X147768405Y-117762742D01*
X148175000Y-117845080D01*
X149675000Y-117845080D01*
X150054842Y-117773608D01*
X150276014Y-117631287D01*
X150468405Y-117762742D01*
X150875000Y-117845080D01*
X151332686Y-117845080D01*
X152480720Y-118993114D01*
X152480720Y-119422940D01*
X152552192Y-119802782D01*
X152666980Y-119981167D01*
X152666980Y-123029575D01*
X152479238Y-123304345D01*
X152396900Y-123710940D01*
X152396900Y-125010940D01*
X152468372Y-125390782D01*
X152692859Y-125739644D01*
X153035385Y-125973682D01*
X153441980Y-126056020D01*
X154941980Y-126056020D01*
X155321822Y-125984548D01*
X155670684Y-125760061D01*
X155904722Y-125417535D01*
X155987060Y-125010940D01*
X155987060Y-124717190D01*
X156016980Y-124717190D01*
X156016980Y-125035804D01*
X156036010Y-125081747D01*
X156071173Y-125116910D01*
X156117116Y-125135940D01*
X156485730Y-125135940D01*
X156516980Y-125104690D01*
X156516980Y-124685940D01*
X157266980Y-124685940D01*
X157266980Y-125104690D01*
X157298230Y-125135940D01*
X157666844Y-125135940D01*
X157712787Y-125116910D01*
X157747950Y-125081747D01*
X157766980Y-125035804D01*
X157766980Y-124717190D01*
X157735730Y-124685940D01*
X157266980Y-124685940D01*
X156516980Y-124685940D01*
X156048230Y-124685940D01*
X156016980Y-124717190D01*
X155987060Y-124717190D01*
X155987060Y-123710940D01*
X155982382Y-123686076D01*
X156016980Y-123686076D01*
X156016980Y-124004690D01*
X156048230Y-124035940D01*
X156516980Y-124035940D01*
X156516980Y-123617190D01*
X157266980Y-123617190D01*
X157266980Y-124035940D01*
X157735730Y-124035940D01*
X157766980Y-124004690D01*
X157766980Y-123686076D01*
X157747950Y-123640133D01*
X157712787Y-123604970D01*
X157666844Y-123585940D01*
X157298230Y-123585940D01*
X157266980Y-123617190D01*
X156516980Y-123617190D01*
X156485730Y-123585940D01*
X156117116Y-123585940D01*
X156071173Y-123604970D01*
X156036010Y-123640133D01*
X156016980Y-123686076D01*
X155982382Y-123686076D01*
X155915588Y-123331098D01*
X155716980Y-123022453D01*
X155716980Y-120196207D01*
X155754504Y-120172061D01*
X155988542Y-119829535D01*
X156070880Y-119422940D01*
X156070880Y-119129190D01*
X156100800Y-119129190D01*
X156100800Y-119447804D01*
X156119830Y-119493747D01*
X156154993Y-119528910D01*
X156200936Y-119547940D01*
X156569550Y-119547940D01*
X156600800Y-119516690D01*
X156600800Y-119097940D01*
X157350800Y-119097940D01*
X157350800Y-119516690D01*
X157382050Y-119547940D01*
X157750664Y-119547940D01*
X157796607Y-119528910D01*
X157831770Y-119493747D01*
X157850800Y-119447804D01*
X157850800Y-119129190D01*
X157819550Y-119097940D01*
X157350800Y-119097940D01*
X156600800Y-119097940D01*
X156132050Y-119097940D01*
X156100800Y-119129190D01*
X156070880Y-119129190D01*
X156070880Y-118122940D01*
X156066202Y-118098076D01*
X156100800Y-118098076D01*
X156100800Y-118416690D01*
X156132050Y-118447940D01*
X156600800Y-118447940D01*
X156600800Y-118029190D01*
X157350800Y-118029190D01*
X157350800Y-118447940D01*
X157819550Y-118447940D01*
X157850800Y-118416690D01*
X157850800Y-118098076D01*
X157831770Y-118052133D01*
X157796607Y-118016970D01*
X157750664Y-117997940D01*
X157382050Y-117997940D01*
X157350800Y-118029190D01*
X156600800Y-118029190D01*
X156569550Y-117997940D01*
X156200936Y-117997940D01*
X156154993Y-118016970D01*
X156119830Y-118052133D01*
X156100800Y-118098076D01*
X156066202Y-118098076D01*
X155999408Y-117743098D01*
X155774921Y-117394236D01*
X155432395Y-117160198D01*
X155025800Y-117077860D01*
X154595974Y-117077860D01*
X153420080Y-115901966D01*
X153420080Y-115500000D01*
X153348608Y-115120158D01*
X153124121Y-114771296D01*
X152781595Y-114537258D01*
X152375000Y-114454920D01*
X150875000Y-114454920D01*
X150495158Y-114526392D01*
X150273986Y-114668713D01*
X150081595Y-114537258D01*
X149675000Y-114454920D01*
X149245174Y-114454920D01*
X145458240Y-110667986D01*
X145458240Y-110004377D01*
X145494771Y-109967910D01*
X145757940Y-109334129D01*
X145758386Y-108823640D01*
X150817373Y-113882627D01*
X151279676Y-114191528D01*
X151825000Y-114300000D01*
X155384746Y-114300000D01*
X160375000Y-119290254D01*
X160375000Y-124825000D01*
X160483472Y-125370324D01*
X160792373Y-125832627D01*
X165492373Y-130532627D01*
X165954676Y-130841528D01*
X166500000Y-130950000D01*
X195525000Y-130950000D01*
X196070324Y-130841528D01*
X196532627Y-130532627D01*
X198389375Y-128675879D01*
X212100723Y-128675879D01*
X212184499Y-128732561D01*
X212464927Y-128737242D01*
X212488461Y-128732561D01*
X212572237Y-128675879D01*
X212336480Y-128440122D01*
X212100723Y-128675879D01*
X198389375Y-128675879D01*
X198630254Y-128435000D01*
X209033008Y-128435000D01*
X209465825Y-128614721D01*
X210104334Y-128615278D01*
X210694452Y-128371446D01*
X210907823Y-128158447D01*
X211629238Y-128158447D01*
X211633919Y-128181981D01*
X211690601Y-128265757D01*
X211926358Y-128030000D01*
X212746602Y-128030000D01*
X212982359Y-128265757D01*
X213039041Y-128181981D01*
X213043722Y-127901553D01*
X213039041Y-127878019D01*
X212982359Y-127794243D01*
X212746602Y-128030000D01*
X211926358Y-128030000D01*
X211690601Y-127794243D01*
X211633919Y-127878019D01*
X211629238Y-128158447D01*
X210907823Y-128158447D01*
X211146340Y-127920347D01*
X211369000Y-127384121D01*
X212100723Y-127384121D01*
X212336480Y-127619878D01*
X212572237Y-127384121D01*
X212488461Y-127327439D01*
X212208033Y-127322758D01*
X212184499Y-127327439D01*
X212100723Y-127384121D01*
X211369000Y-127384121D01*
X211391201Y-127330655D01*
X211391758Y-126692146D01*
X211368510Y-126635879D01*
X212100723Y-126635879D01*
X212184499Y-126692561D01*
X212464927Y-126697242D01*
X212488461Y-126692561D01*
X212572237Y-126635879D01*
X212336480Y-126400122D01*
X212100723Y-126635879D01*
X211368510Y-126635879D01*
X211154711Y-126118447D01*
X211629238Y-126118447D01*
X211633919Y-126141981D01*
X211690601Y-126225757D01*
X211926358Y-125990000D01*
X212746602Y-125990000D01*
X212982359Y-126225757D01*
X213039041Y-126141981D01*
X213043722Y-125861553D01*
X213039041Y-125838019D01*
X212982359Y-125754243D01*
X212746602Y-125990000D01*
X211926358Y-125990000D01*
X211690601Y-125754243D01*
X211633919Y-125838019D01*
X211629238Y-126118447D01*
X211154711Y-126118447D01*
X211147926Y-126102028D01*
X211036294Y-125990201D01*
X211146340Y-125880347D01*
X211369000Y-125344121D01*
X212100723Y-125344121D01*
X212336480Y-125579878D01*
X212572237Y-125344121D01*
X212488461Y-125287439D01*
X212208033Y-125282758D01*
X212184499Y-125287439D01*
X212100723Y-125344121D01*
X211369000Y-125344121D01*
X211391201Y-125290655D01*
X211391758Y-124652146D01*
X211147926Y-124062028D01*
X210696827Y-123610140D01*
X210107135Y-123365279D01*
X209468626Y-123364722D01*
X209032320Y-123545000D01*
X196955000Y-123545000D01*
X196409676Y-123653472D01*
X196164381Y-123817373D01*
X195947373Y-123962373D01*
X193659746Y-126250000D01*
X168340254Y-126250000D01*
X164825000Y-122734746D01*
X164825000Y-118329768D01*
X165029676Y-118466528D01*
X165575000Y-118575000D01*
X167778936Y-118575000D01*
X168044349Y-118628748D01*
X168029920Y-118700000D01*
X168029920Y-119246426D01*
X167210340Y-120066006D01*
X167158722Y-120065961D01*
X166524482Y-120328023D01*
X166038809Y-120812850D01*
X165775640Y-121446631D01*
X165775041Y-122132878D01*
X166037103Y-122767118D01*
X166521930Y-123252791D01*
X167155711Y-123515960D01*
X167841958Y-123516559D01*
X168476198Y-123254497D01*
X168514502Y-123216260D01*
X169334346Y-123216260D01*
X169415605Y-123271782D01*
X169822200Y-123354120D01*
X170622200Y-123354120D01*
X171002042Y-123282648D01*
X171274714Y-123107188D01*
X171515605Y-123271782D01*
X171922200Y-123354120D01*
X172722200Y-123354120D01*
X173094644Y-123284040D01*
X173764997Y-123284040D01*
X174013745Y-123454002D01*
X174420340Y-123536340D01*
X175820340Y-123536340D01*
X176200182Y-123464868D01*
X176549044Y-123240381D01*
X176783082Y-122897855D01*
X176865420Y-122491260D01*
X176865420Y-121091260D01*
X176793948Y-120711418D01*
X176569461Y-120362556D01*
X176226935Y-120128518D01*
X175820340Y-120046180D01*
X174420340Y-120046180D01*
X174040498Y-120117652D01*
X173691636Y-120342139D01*
X173628843Y-120434040D01*
X173068264Y-120434040D01*
X172722200Y-120363960D01*
X171922200Y-120363960D01*
X171542358Y-120435432D01*
X171269686Y-120610892D01*
X171028795Y-120446298D01*
X170770149Y-120393921D01*
X170791528Y-120361924D01*
X170900000Y-119816600D01*
X170900000Y-119699157D01*
X170920080Y-119600000D01*
X170920080Y-118700000D01*
X170848608Y-118320158D01*
X170624121Y-117971296D01*
X170281595Y-117737258D01*
X170198350Y-117720400D01*
X170225000Y-117693750D01*
X170225000Y-117375000D01*
X170625000Y-117375000D01*
X170625000Y-117693750D01*
X170656250Y-117725000D01*
X170849864Y-117725000D01*
X170895807Y-117705970D01*
X170930970Y-117670807D01*
X170950000Y-117624864D01*
X170950000Y-117406250D01*
X170918750Y-117375000D01*
X170625000Y-117375000D01*
X170225000Y-117375000D01*
X170025000Y-117375000D01*
X170025000Y-116925000D01*
X170225000Y-116925000D01*
X170225000Y-116606250D01*
X170625000Y-116606250D01*
X170625000Y-116925000D01*
X170918750Y-116925000D01*
X170950000Y-116893750D01*
X170950000Y-116675136D01*
X170930970Y-116629193D01*
X170895807Y-116594030D01*
X170849864Y-116575000D01*
X170656250Y-116575000D01*
X170625000Y-116606250D01*
X170225000Y-116606250D01*
X170193750Y-116575000D01*
X170000136Y-116575000D01*
X169954193Y-116594030D01*
X169950782Y-116597441D01*
X169898608Y-116320158D01*
X169674121Y-115971296D01*
X169331595Y-115737258D01*
X168925000Y-115654920D01*
X168426770Y-115654920D01*
X168476198Y-115634497D01*
X168961871Y-115149670D01*
X169225040Y-114515889D01*
X169225639Y-113829642D01*
X168963577Y-113195402D01*
X168478750Y-112709729D01*
X167844969Y-112446560D01*
X167158722Y-112445961D01*
X166524482Y-112708023D01*
X166038809Y-113192850D01*
X165775640Y-113826631D01*
X165775041Y-114512878D01*
X166037103Y-115147118D01*
X166521930Y-115632791D01*
X166743994Y-115725000D01*
X166165254Y-115725000D01*
X165628380Y-115188126D01*
X165628380Y-112781145D01*
X165816122Y-112506375D01*
X165898460Y-112099780D01*
X165898460Y-110599780D01*
X165826988Y-110219938D01*
X165684667Y-109998766D01*
X165816122Y-109806375D01*
X165851439Y-109631977D01*
X166027103Y-110057118D01*
X166511930Y-110542791D01*
X167145711Y-110805960D01*
X167831958Y-110806559D01*
X168466198Y-110544497D01*
X168951871Y-110059670D01*
X169215040Y-109425889D01*
X169215639Y-108739642D01*
X168953577Y-108105402D01*
X168468750Y-107619729D01*
X167834969Y-107356560D01*
X167148722Y-107355961D01*
X166514482Y-107618023D01*
X166028809Y-108102850D01*
X165898460Y-108416765D01*
X165898460Y-107899780D01*
X165826988Y-107519938D01*
X165628380Y-107211293D01*
X165628380Y-104086874D01*
X165765384Y-103949870D01*
X165765041Y-104342878D01*
X166027103Y-104977118D01*
X166511930Y-105462791D01*
X167145711Y-105725960D01*
X167199833Y-105726007D01*
X170775000Y-109301174D01*
X170775000Y-114350000D01*
X170883472Y-114895324D01*
X171192373Y-115357627D01*
X172842373Y-117007627D01*
X173304676Y-117316528D01*
X173850000Y-117425000D01*
X176509746Y-117425000D01*
X183617373Y-124532627D01*
X184079676Y-124841528D01*
X184625000Y-124950000D01*
X193200000Y-124950000D01*
X193745324Y-124841528D01*
X194207627Y-124532627D01*
X196207627Y-122532627D01*
X196516528Y-122070324D01*
X196625000Y-121525000D01*
X196625000Y-118640254D01*
X196885254Y-118380000D01*
X209460053Y-118380000D01*
X209606585Y-119116666D01*
X210023872Y-119741181D01*
X210037071Y-119750000D01*
X210023872Y-119758819D01*
X209606585Y-120383334D01*
X209460053Y-121120000D01*
X209606585Y-121856666D01*
X210023872Y-122481181D01*
X210648387Y-122898468D01*
X211385053Y-123045000D01*
X212887907Y-123045000D01*
X213624573Y-122898468D01*
X214249088Y-122481181D01*
X214666375Y-121856666D01*
X214812907Y-121120000D01*
X214666375Y-120383334D01*
X214249088Y-119758819D01*
X214235889Y-119750000D01*
X214249088Y-119741181D01*
X214666375Y-119116666D01*
X214812907Y-118380000D01*
X214666375Y-117643334D01*
X214249088Y-117018819D01*
X213624573Y-116601532D01*
X212887907Y-116455000D01*
X211385053Y-116455000D01*
X210648387Y-116601532D01*
X210023872Y-117018819D01*
X209606585Y-117643334D01*
X209460053Y-118380000D01*
X196885254Y-118380000D01*
X200089375Y-115175879D01*
X212100723Y-115175879D01*
X212184499Y-115232561D01*
X212464927Y-115237242D01*
X212488461Y-115232561D01*
X212572237Y-115175879D01*
X212336480Y-114940122D01*
X212100723Y-115175879D01*
X200089375Y-115175879D01*
X200330254Y-114935000D01*
X209033008Y-114935000D01*
X209465825Y-115114721D01*
X210104334Y-115115278D01*
X210694452Y-114871446D01*
X210907823Y-114658447D01*
X211629238Y-114658447D01*
X211633919Y-114681981D01*
X211690601Y-114765757D01*
X211926358Y-114530000D01*
X212746602Y-114530000D01*
X212982359Y-114765757D01*
X213039041Y-114681981D01*
X213043722Y-114401553D01*
X213039041Y-114378019D01*
X212982359Y-114294243D01*
X212746602Y-114530000D01*
X211926358Y-114530000D01*
X211690601Y-114294243D01*
X211633919Y-114378019D01*
X211629238Y-114658447D01*
X210907823Y-114658447D01*
X211146340Y-114420347D01*
X211369000Y-113884121D01*
X212100723Y-113884121D01*
X212336480Y-114119878D01*
X212572237Y-113884121D01*
X212488461Y-113827439D01*
X212208033Y-113822758D01*
X212184499Y-113827439D01*
X212100723Y-113884121D01*
X211369000Y-113884121D01*
X211391201Y-113830655D01*
X211391758Y-113192146D01*
X211368510Y-113135879D01*
X212100723Y-113135879D01*
X212184499Y-113192561D01*
X212464927Y-113197242D01*
X212488461Y-113192561D01*
X212572237Y-113135879D01*
X212336480Y-112900122D01*
X212100723Y-113135879D01*
X211368510Y-113135879D01*
X211154711Y-112618447D01*
X211629238Y-112618447D01*
X211633919Y-112641981D01*
X211690601Y-112725757D01*
X211926358Y-112490000D01*
X212746602Y-112490000D01*
X212982359Y-112725757D01*
X213039041Y-112641981D01*
X213043722Y-112361553D01*
X213039041Y-112338019D01*
X212982359Y-112254243D01*
X212746602Y-112490000D01*
X211926358Y-112490000D01*
X211690601Y-112254243D01*
X211633919Y-112338019D01*
X211629238Y-112618447D01*
X211154711Y-112618447D01*
X211147926Y-112602028D01*
X211036294Y-112490201D01*
X211146340Y-112380347D01*
X211369000Y-111844121D01*
X212100723Y-111844121D01*
X212336480Y-112079878D01*
X212572237Y-111844121D01*
X212488461Y-111787439D01*
X212208033Y-111782758D01*
X212184499Y-111787439D01*
X212100723Y-111844121D01*
X211369000Y-111844121D01*
X211391201Y-111790655D01*
X211391758Y-111152146D01*
X211147926Y-110562028D01*
X210696827Y-110110140D01*
X210107135Y-109865279D01*
X209468626Y-109864722D01*
X209141229Y-110000000D01*
X188845441Y-110000000D01*
X188885140Y-109803960D01*
X188885140Y-109510210D01*
X188915060Y-109510210D01*
X188915060Y-109828824D01*
X188934090Y-109874767D01*
X188969253Y-109909930D01*
X189015196Y-109928960D01*
X189383810Y-109928960D01*
X189415060Y-109897710D01*
X189415060Y-109478960D01*
X190165060Y-109478960D01*
X190165060Y-109897710D01*
X190196310Y-109928960D01*
X190564924Y-109928960D01*
X190610867Y-109909930D01*
X190646030Y-109874767D01*
X190665060Y-109828824D01*
X190665060Y-109510210D01*
X190633810Y-109478960D01*
X190165060Y-109478960D01*
X189415060Y-109478960D01*
X188946310Y-109478960D01*
X188915060Y-109510210D01*
X188885140Y-109510210D01*
X188885140Y-108503960D01*
X188880462Y-108479096D01*
X188915060Y-108479096D01*
X188915060Y-108797710D01*
X188946310Y-108828960D01*
X189415060Y-108828960D01*
X189415060Y-108410210D01*
X190165060Y-108410210D01*
X190165060Y-108828960D01*
X190633810Y-108828960D01*
X190665060Y-108797710D01*
X190665060Y-108479096D01*
X190646030Y-108433153D01*
X190610867Y-108397990D01*
X190564924Y-108378960D01*
X190196310Y-108378960D01*
X190165060Y-108410210D01*
X189415060Y-108410210D01*
X189383810Y-108378960D01*
X189015196Y-108378960D01*
X188969253Y-108397990D01*
X188934090Y-108433153D01*
X188915060Y-108479096D01*
X188880462Y-108479096D01*
X188813668Y-108124118D01*
X188591260Y-107778487D01*
X188591260Y-105787039D01*
X188644964Y-105752481D01*
X188879002Y-105409955D01*
X188961340Y-105003360D01*
X188961340Y-104709610D01*
X188991260Y-104709610D01*
X188991260Y-105028224D01*
X189010290Y-105074167D01*
X189045453Y-105109330D01*
X189091396Y-105128360D01*
X189460010Y-105128360D01*
X189491260Y-105097110D01*
X189491260Y-104678360D01*
X190241260Y-104678360D01*
X190241260Y-105097110D01*
X190272510Y-105128360D01*
X190641124Y-105128360D01*
X190687067Y-105109330D01*
X190722230Y-105074167D01*
X190741260Y-105028224D01*
X190741260Y-104880000D01*
X209460053Y-104880000D01*
X209606585Y-105616666D01*
X210023872Y-106241181D01*
X210037071Y-106250000D01*
X210023872Y-106258819D01*
X209606585Y-106883334D01*
X209460053Y-107620000D01*
X209606585Y-108356666D01*
X210023872Y-108981181D01*
X210648387Y-109398468D01*
X211385053Y-109545000D01*
X212887907Y-109545000D01*
X213624573Y-109398468D01*
X214249088Y-108981181D01*
X214666375Y-108356666D01*
X214812907Y-107620000D01*
X214666375Y-106883334D01*
X214249088Y-106258819D01*
X214235889Y-106250000D01*
X214249088Y-106241181D01*
X214666375Y-105616666D01*
X214812907Y-104880000D01*
X214666375Y-104143334D01*
X214249088Y-103518819D01*
X213624573Y-103101532D01*
X212887907Y-102955000D01*
X211385053Y-102955000D01*
X210648387Y-103101532D01*
X210023872Y-103518819D01*
X209606585Y-104143334D01*
X209460053Y-104880000D01*
X190741260Y-104880000D01*
X190741260Y-104709610D01*
X190710010Y-104678360D01*
X190241260Y-104678360D01*
X189491260Y-104678360D01*
X189022510Y-104678360D01*
X188991260Y-104709610D01*
X188961340Y-104709610D01*
X188961340Y-103703360D01*
X188956662Y-103678496D01*
X188991260Y-103678496D01*
X188991260Y-103997110D01*
X189022510Y-104028360D01*
X189491260Y-104028360D01*
X189491260Y-103609610D01*
X190241260Y-103609610D01*
X190241260Y-104028360D01*
X190710010Y-104028360D01*
X190741260Y-103997110D01*
X190741260Y-103678496D01*
X190722230Y-103632553D01*
X190687067Y-103597390D01*
X190641124Y-103578360D01*
X190272510Y-103578360D01*
X190241260Y-103609610D01*
X189491260Y-103609610D01*
X189460010Y-103578360D01*
X189091396Y-103578360D01*
X189045453Y-103597390D01*
X189010290Y-103632553D01*
X188991260Y-103678496D01*
X188956662Y-103678496D01*
X188889868Y-103323518D01*
X188665381Y-102974656D01*
X188322855Y-102740618D01*
X187916260Y-102658280D01*
X186416260Y-102658280D01*
X186036418Y-102729752D01*
X185687556Y-102954239D01*
X185453518Y-103296765D01*
X185371180Y-103703360D01*
X185371180Y-105003360D01*
X185442652Y-105383202D01*
X185667139Y-105732064D01*
X185741260Y-105782709D01*
X185741260Y-107671248D01*
X185651573Y-107728960D01*
X184544214Y-107728960D01*
X184031180Y-107215926D01*
X184031180Y-106469420D01*
X183959708Y-106089578D01*
X183735221Y-105740716D01*
X183392695Y-105506678D01*
X182986100Y-105424340D01*
X181486100Y-105424340D01*
X181106258Y-105495812D01*
X180885086Y-105638133D01*
X180692695Y-105506678D01*
X180286100Y-105424340D01*
X179856274Y-105424340D01*
X177435567Y-103003633D01*
X176973264Y-102694732D01*
X176427940Y-102586260D01*
X176135217Y-102586260D01*
X176098750Y-102549729D01*
X175677956Y-102375000D01*
X176875000Y-102375000D01*
X177420324Y-102266528D01*
X177882627Y-101957627D01*
X178164375Y-101675879D01*
X212100723Y-101675879D01*
X212184499Y-101732561D01*
X212464927Y-101737242D01*
X212488461Y-101732561D01*
X212572237Y-101675879D01*
X212336480Y-101440122D01*
X212100723Y-101675879D01*
X178164375Y-101675879D01*
X180684707Y-99155547D01*
X180977410Y-98717486D01*
X181518683Y-99079152D01*
X182217080Y-99218072D01*
X182915477Y-99079152D01*
X183487080Y-98697220D01*
X184058683Y-99079152D01*
X184757080Y-99218072D01*
X185455477Y-99079152D01*
X186027080Y-98697220D01*
X186598683Y-99079152D01*
X187297080Y-99218072D01*
X187995477Y-99079152D01*
X188567080Y-98697220D01*
X189138683Y-99079152D01*
X189837080Y-99218072D01*
X190535477Y-99079152D01*
X191107080Y-98697220D01*
X191678683Y-99079152D01*
X192377080Y-99218072D01*
X193075477Y-99079152D01*
X193647080Y-98697220D01*
X194218683Y-99079152D01*
X194917080Y-99218072D01*
X195615477Y-99079152D01*
X196187080Y-98697220D01*
X196758683Y-99079152D01*
X197457080Y-99218072D01*
X198155477Y-99079152D01*
X198747550Y-98683542D01*
X199143160Y-98091469D01*
X199282080Y-97393072D01*
X199282080Y-96913728D01*
X199143160Y-96215331D01*
X199013729Y-96021623D01*
X199219822Y-95719995D01*
X199226162Y-95688689D01*
X199225507Y-96439109D01*
X199728514Y-97656480D01*
X200659101Y-98588692D01*
X201875592Y-99093824D01*
X203192789Y-99094973D01*
X204410160Y-98591966D01*
X204950509Y-98052559D01*
X205058472Y-98595324D01*
X205367373Y-99057627D01*
X207327373Y-101017627D01*
X207789676Y-101326528D01*
X208335000Y-101435000D01*
X209033008Y-101435000D01*
X209465825Y-101614721D01*
X210104334Y-101615278D01*
X210694452Y-101371446D01*
X210907823Y-101158447D01*
X211629238Y-101158447D01*
X211633919Y-101181981D01*
X211690601Y-101265757D01*
X211926358Y-101030000D01*
X212746602Y-101030000D01*
X212982359Y-101265757D01*
X213039041Y-101181981D01*
X213043722Y-100901553D01*
X213039041Y-100878019D01*
X212982359Y-100794243D01*
X212746602Y-101030000D01*
X211926358Y-101030000D01*
X211690601Y-100794243D01*
X211633919Y-100878019D01*
X211629238Y-101158447D01*
X210907823Y-101158447D01*
X211146340Y-100920347D01*
X211369000Y-100384121D01*
X212100723Y-100384121D01*
X212336480Y-100619878D01*
X212572237Y-100384121D01*
X212488461Y-100327439D01*
X212208033Y-100322758D01*
X212184499Y-100327439D01*
X212100723Y-100384121D01*
X211369000Y-100384121D01*
X211391201Y-100330655D01*
X211391758Y-99692146D01*
X211368510Y-99635879D01*
X212100723Y-99635879D01*
X212184499Y-99692561D01*
X212464927Y-99697242D01*
X212488461Y-99692561D01*
X212572237Y-99635879D01*
X212336480Y-99400122D01*
X212100723Y-99635879D01*
X211368510Y-99635879D01*
X211154711Y-99118447D01*
X211629238Y-99118447D01*
X211633919Y-99141981D01*
X211690601Y-99225757D01*
X211926358Y-98990000D01*
X212746602Y-98990000D01*
X212982359Y-99225757D01*
X213039041Y-99141981D01*
X213043722Y-98861553D01*
X213039041Y-98838019D01*
X212982359Y-98754243D01*
X212746602Y-98990000D01*
X211926358Y-98990000D01*
X211690601Y-98754243D01*
X211633919Y-98838019D01*
X211629238Y-99118447D01*
X211154711Y-99118447D01*
X211147926Y-99102028D01*
X211036294Y-98990201D01*
X211146340Y-98880347D01*
X211369000Y-98344121D01*
X212100723Y-98344121D01*
X212336480Y-98579878D01*
X212572237Y-98344121D01*
X212488461Y-98287439D01*
X212208033Y-98282758D01*
X212184499Y-98287439D01*
X212100723Y-98344121D01*
X211369000Y-98344121D01*
X211391201Y-98290655D01*
X211391758Y-97652146D01*
X211147926Y-97062028D01*
X210696827Y-96610140D01*
X210107135Y-96365279D01*
X209468626Y-96364722D01*
X209299753Y-96434499D01*
X209250000Y-96384746D01*
X209250000Y-92725000D01*
X209141528Y-92179676D01*
X208832627Y-91717373D01*
X208495254Y-91380000D01*
X209460053Y-91380000D01*
X209606585Y-92116666D01*
X210023872Y-92741181D01*
X210037071Y-92750000D01*
X210023872Y-92758819D01*
X209606585Y-93383334D01*
X209460053Y-94120000D01*
X209606585Y-94856666D01*
X210023872Y-95481181D01*
X210648387Y-95898468D01*
X211385053Y-96045000D01*
X212887907Y-96045000D01*
X213624573Y-95898468D01*
X214249088Y-95481181D01*
X214666375Y-94856666D01*
X214812907Y-94120000D01*
X214666375Y-93383334D01*
X214249088Y-92758819D01*
X214235889Y-92750000D01*
X214249088Y-92741181D01*
X214666375Y-92116666D01*
X214812907Y-91380000D01*
X214666375Y-90643334D01*
X214249088Y-90018819D01*
X213624573Y-89601532D01*
X212887907Y-89455000D01*
X211385053Y-89455000D01*
X210648387Y-89601532D01*
X210023872Y-90018819D01*
X209606585Y-90643334D01*
X209460053Y-91380000D01*
X208495254Y-91380000D01*
X205291133Y-88175879D01*
X212100723Y-88175879D01*
X212184499Y-88232561D01*
X212464927Y-88237242D01*
X212488461Y-88232561D01*
X212572237Y-88175879D01*
X212336480Y-87940122D01*
X212100723Y-88175879D01*
X205291133Y-88175879D01*
X205050254Y-87935000D01*
X209033008Y-87935000D01*
X209465825Y-88114721D01*
X210104334Y-88115278D01*
X210694452Y-87871446D01*
X210907823Y-87658447D01*
X211629238Y-87658447D01*
X211633919Y-87681981D01*
X211690601Y-87765757D01*
X211926358Y-87530000D01*
X212746602Y-87530000D01*
X212982359Y-87765757D01*
X213039041Y-87681981D01*
X213043722Y-87401553D01*
X213039041Y-87378019D01*
X212982359Y-87294243D01*
X212746602Y-87530000D01*
X211926358Y-87530000D01*
X211690601Y-87294243D01*
X211633919Y-87378019D01*
X211629238Y-87658447D01*
X210907823Y-87658447D01*
X211146340Y-87420347D01*
X211369000Y-86884121D01*
X212100723Y-86884121D01*
X212336480Y-87119878D01*
X212572237Y-86884121D01*
X212488461Y-86827439D01*
X212208033Y-86822758D01*
X212184499Y-86827439D01*
X212100723Y-86884121D01*
X211369000Y-86884121D01*
X211391201Y-86830655D01*
X211391758Y-86192146D01*
X211368510Y-86135879D01*
X212100723Y-86135879D01*
X212184499Y-86192561D01*
X212464927Y-86197242D01*
X212488461Y-86192561D01*
X212572237Y-86135879D01*
X212336480Y-85900122D01*
X212100723Y-86135879D01*
X211368510Y-86135879D01*
X211154711Y-85618447D01*
X211629238Y-85618447D01*
X211633919Y-85641981D01*
X211690601Y-85725757D01*
X211926358Y-85490000D01*
X212746602Y-85490000D01*
X212982359Y-85725757D01*
X213039041Y-85641981D01*
X213043722Y-85361553D01*
X213039041Y-85338019D01*
X212982359Y-85254243D01*
X212746602Y-85490000D01*
X211926358Y-85490000D01*
X211690601Y-85254243D01*
X211633919Y-85338019D01*
X211629238Y-85618447D01*
X211154711Y-85618447D01*
X211147926Y-85602028D01*
X211036294Y-85490201D01*
X211146340Y-85380347D01*
X211369000Y-84844121D01*
X212100723Y-84844121D01*
X212336480Y-85079878D01*
X212572237Y-84844121D01*
X212488461Y-84787439D01*
X212208033Y-84782758D01*
X212184499Y-84787439D01*
X212100723Y-84844121D01*
X211369000Y-84844121D01*
X211391201Y-84790655D01*
X211391758Y-84152146D01*
X211147926Y-83562028D01*
X210696827Y-83110140D01*
X210107135Y-82865279D01*
X209468626Y-82864722D01*
X209032320Y-83045000D01*
X198185254Y-83045000D01*
X195760254Y-80620000D01*
X209460053Y-80620000D01*
X209606585Y-81356666D01*
X210023872Y-81981181D01*
X210648387Y-82398468D01*
X211385053Y-82545000D01*
X212887907Y-82545000D01*
X213624573Y-82398468D01*
X214249088Y-81981181D01*
X214666375Y-81356666D01*
X214812907Y-80620000D01*
X214666375Y-79883334D01*
X214249088Y-79258819D01*
X213624573Y-78841532D01*
X212887907Y-78695000D01*
X211385053Y-78695000D01*
X210648387Y-78841532D01*
X210023872Y-79258819D01*
X209606585Y-79883334D01*
X209460053Y-80620000D01*
X195760254Y-80620000D01*
X190712500Y-75572246D01*
X190712500Y-63437500D01*
X190604028Y-62892176D01*
X190295127Y-62429873D01*
X187257627Y-59392373D01*
X186795324Y-59083472D01*
X186250000Y-58975000D01*
X184594140Y-58975000D01*
X184670080Y-58600000D01*
X184670080Y-58306250D01*
X184700000Y-58306250D01*
X184700000Y-58624864D01*
X184719030Y-58670807D01*
X184754193Y-58705970D01*
X184800136Y-58725000D01*
X185168750Y-58725000D01*
X185200000Y-58693750D01*
X185200000Y-58275000D01*
X185950000Y-58275000D01*
X185950000Y-58693750D01*
X185981250Y-58725000D01*
X186349864Y-58725000D01*
X186395807Y-58705970D01*
X186430970Y-58670807D01*
X186450000Y-58624864D01*
X186450000Y-58306250D01*
X186418750Y-58275000D01*
X185950000Y-58275000D01*
X185200000Y-58275000D01*
X184731250Y-58275000D01*
X184700000Y-58306250D01*
X184670080Y-58306250D01*
X184670080Y-57300000D01*
X184665402Y-57275136D01*
X184700000Y-57275136D01*
X184700000Y-57593750D01*
X184731250Y-57625000D01*
X185200000Y-57625000D01*
X185200000Y-57206250D01*
X185950000Y-57206250D01*
X185950000Y-57625000D01*
X186418750Y-57625000D01*
X186450000Y-57593750D01*
X186450000Y-57275136D01*
X186430970Y-57229193D01*
X186395807Y-57194030D01*
X186349864Y-57175000D01*
X185981250Y-57175000D01*
X185950000Y-57206250D01*
X185200000Y-57206250D01*
X185168750Y-57175000D01*
X184800136Y-57175000D01*
X184754193Y-57194030D01*
X184719030Y-57229193D01*
X184700000Y-57275136D01*
X184665402Y-57275136D01*
X184598608Y-56920158D01*
X184374121Y-56571296D01*
X184031595Y-56337258D01*
X183625000Y-56254920D01*
X183195174Y-56254920D01*
X182395080Y-55454826D01*
X182395080Y-54675000D01*
X182323608Y-54295158D01*
X182099121Y-53946296D01*
X181756595Y-53712258D01*
X181350000Y-53629920D01*
X179850000Y-53629920D01*
X179470158Y-53701392D01*
X179121296Y-53925879D01*
X178887258Y-54268405D01*
X178804920Y-54675000D01*
X178804920Y-55975000D01*
X178876392Y-56354842D01*
X179056232Y-56634320D01*
X177182845Y-56634320D01*
X176908075Y-56446578D01*
X176501480Y-56364240D01*
X175001480Y-56364240D01*
X174621638Y-56435712D01*
X174400466Y-56578033D01*
X174208075Y-56446578D01*
X173801480Y-56364240D01*
X173371654Y-56364240D01*
X173276787Y-56269373D01*
X172814484Y-55960472D01*
X172269160Y-55852000D01*
X169670877Y-55852000D01*
X169634410Y-55815469D01*
X169311175Y-55681250D01*
X177025000Y-55681250D01*
X177025000Y-55999864D01*
X177044030Y-56045807D01*
X177079193Y-56080970D01*
X177125136Y-56100000D01*
X177493750Y-56100000D01*
X177525000Y-56068750D01*
X177525000Y-55650000D01*
X178275000Y-55650000D01*
X178275000Y-56068750D01*
X178306250Y-56100000D01*
X178674864Y-56100000D01*
X178720807Y-56080970D01*
X178755970Y-56045807D01*
X178775000Y-55999864D01*
X178775000Y-55681250D01*
X178743750Y-55650000D01*
X178275000Y-55650000D01*
X177525000Y-55650000D01*
X177056250Y-55650000D01*
X177025000Y-55681250D01*
X169311175Y-55681250D01*
X169119243Y-55601553D01*
X169295324Y-55566528D01*
X169757627Y-55257627D01*
X170365118Y-54650136D01*
X177025000Y-54650136D01*
X177025000Y-54968750D01*
X177056250Y-55000000D01*
X177525000Y-55000000D01*
X177525000Y-54581250D01*
X178275000Y-54581250D01*
X178275000Y-55000000D01*
X178743750Y-55000000D01*
X178775000Y-54968750D01*
X178775000Y-54650136D01*
X178755970Y-54604193D01*
X178720807Y-54569030D01*
X178674864Y-54550000D01*
X178306250Y-54550000D01*
X178275000Y-54581250D01*
X177525000Y-54581250D01*
X177493750Y-54550000D01*
X177125136Y-54550000D01*
X177079193Y-54569030D01*
X177044030Y-54604193D01*
X177025000Y-54650136D01*
X170365118Y-54650136D01*
X171965254Y-53050000D01*
X181925480Y-53050000D01*
X182470804Y-52941528D01*
X182933107Y-52632627D01*
X184632452Y-50933282D01*
X184757080Y-50958072D01*
X185455477Y-50819152D01*
X186027080Y-50437220D01*
X186598683Y-50819152D01*
X187297080Y-50958072D01*
X187995477Y-50819152D01*
X188567080Y-50437220D01*
X189138683Y-50819152D01*
X189837080Y-50958072D01*
X190380714Y-50849936D01*
X190242373Y-50942373D01*
X187917373Y-53267373D01*
X187608472Y-53729676D01*
X187500000Y-54275000D01*
X187500000Y-58425000D01*
X187608472Y-58970324D01*
X187917373Y-59432627D01*
X191575053Y-63090307D01*
X192037356Y-63399208D01*
X192582680Y-63507680D01*
X195117426Y-63507680D01*
X196525000Y-64915254D01*
X196525000Y-73854426D01*
X194778113Y-75601313D01*
X194469212Y-76063616D01*
X194360740Y-76608940D01*
X194469212Y-77154264D01*
X194778113Y-77616567D01*
X195240416Y-77925468D01*
X195785740Y-78033940D01*
X196331064Y-77925468D01*
X196793367Y-77616567D01*
X198957627Y-75452307D01*
X199137821Y-75182627D01*
X199266528Y-74990004D01*
X199375000Y-74444680D01*
X199375000Y-73154246D01*
X207492805Y-73154246D01*
X207655102Y-73239235D01*
X208142011Y-73259621D01*
X208244498Y-73239235D01*
X208406795Y-73154246D01*
X212492805Y-73154246D01*
X212655102Y-73239235D01*
X213142011Y-73259621D01*
X213244498Y-73239235D01*
X213406795Y-73154246D01*
X212949800Y-72697251D01*
X212492805Y-73154246D01*
X208406795Y-73154246D01*
X207949800Y-72697251D01*
X207492805Y-73154246D01*
X199375000Y-73154246D01*
X199375000Y-72217711D01*
X206715679Y-72217711D01*
X206736065Y-72320198D01*
X206821054Y-72482495D01*
X207278049Y-72025500D01*
X208621551Y-72025500D01*
X209078546Y-72482495D01*
X209163535Y-72320198D01*
X209167825Y-72217711D01*
X211715679Y-72217711D01*
X211736065Y-72320198D01*
X211821054Y-72482495D01*
X212278049Y-72025500D01*
X213621551Y-72025500D01*
X214078546Y-72482495D01*
X214163535Y-72320198D01*
X214183921Y-71833289D01*
X214163535Y-71730802D01*
X214078546Y-71568505D01*
X213621551Y-72025500D01*
X212278049Y-72025500D01*
X211821054Y-71568505D01*
X211736065Y-71730802D01*
X211715679Y-72217711D01*
X209167825Y-72217711D01*
X209183921Y-71833289D01*
X209163535Y-71730802D01*
X209078546Y-71568505D01*
X208621551Y-72025500D01*
X207278049Y-72025500D01*
X206821054Y-71568505D01*
X206736065Y-71730802D01*
X206715679Y-72217711D01*
X199375000Y-72217711D01*
X199375000Y-70896754D01*
X207492805Y-70896754D01*
X207949800Y-71353749D01*
X208406795Y-70896754D01*
X208244498Y-70811765D01*
X207757589Y-70791379D01*
X207655102Y-70811765D01*
X207492805Y-70896754D01*
X199375000Y-70896754D01*
X199375000Y-69946334D01*
X208324432Y-69946334D01*
X208647262Y-70727643D01*
X209244513Y-71325937D01*
X210025257Y-71650130D01*
X210870634Y-71650868D01*
X211651943Y-71328038D01*
X212083980Y-70896754D01*
X212492805Y-70896754D01*
X212949800Y-71353749D01*
X213406795Y-70896754D01*
X213244498Y-70811765D01*
X212757589Y-70791379D01*
X212655102Y-70811765D01*
X212492805Y-70896754D01*
X212083980Y-70896754D01*
X212250237Y-70730787D01*
X212574430Y-69950043D01*
X212575168Y-69104666D01*
X212252338Y-68323357D01*
X212083522Y-68154246D01*
X212492805Y-68154246D01*
X212655102Y-68239235D01*
X213142011Y-68259621D01*
X213244498Y-68239235D01*
X213406795Y-68154246D01*
X212949800Y-67697251D01*
X212492805Y-68154246D01*
X212083522Y-68154246D01*
X211655087Y-67725063D01*
X210874343Y-67400870D01*
X210028966Y-67400132D01*
X209247657Y-67722962D01*
X208649363Y-68320213D01*
X208325170Y-69100957D01*
X208324432Y-69946334D01*
X199375000Y-69946334D01*
X199375000Y-68154246D01*
X207492805Y-68154246D01*
X207655102Y-68239235D01*
X208142011Y-68259621D01*
X208244498Y-68239235D01*
X208406795Y-68154246D01*
X207949800Y-67697251D01*
X207492805Y-68154246D01*
X199375000Y-68154246D01*
X199375000Y-67217711D01*
X206715679Y-67217711D01*
X206736065Y-67320198D01*
X206821054Y-67482495D01*
X207278049Y-67025500D01*
X208621551Y-67025500D01*
X209078546Y-67482495D01*
X209163535Y-67320198D01*
X209167825Y-67217711D01*
X211715679Y-67217711D01*
X211736065Y-67320198D01*
X211821054Y-67482495D01*
X212278049Y-67025500D01*
X213621551Y-67025500D01*
X214078546Y-67482495D01*
X214163535Y-67320198D01*
X214183921Y-66833289D01*
X214163535Y-66730802D01*
X214078546Y-66568505D01*
X213621551Y-67025500D01*
X212278049Y-67025500D01*
X211821054Y-66568505D01*
X211736065Y-66730802D01*
X211715679Y-67217711D01*
X209167825Y-67217711D01*
X209183921Y-66833289D01*
X209163535Y-66730802D01*
X209078546Y-66568505D01*
X208621551Y-67025500D01*
X207278049Y-67025500D01*
X206821054Y-66568505D01*
X206736065Y-66730802D01*
X206715679Y-67217711D01*
X199375000Y-67217711D01*
X199375000Y-65896754D01*
X207492805Y-65896754D01*
X207949800Y-66353749D01*
X208406795Y-65896754D01*
X212492805Y-65896754D01*
X212949800Y-66353749D01*
X213406795Y-65896754D01*
X213244498Y-65811765D01*
X212757589Y-65791379D01*
X212655102Y-65811765D01*
X212492805Y-65896754D01*
X208406795Y-65896754D01*
X208244498Y-65811765D01*
X207757589Y-65791379D01*
X207655102Y-65811765D01*
X207492805Y-65896754D01*
X199375000Y-65896754D01*
X199375000Y-64325000D01*
X199266528Y-63779676D01*
X198957627Y-63317373D01*
X196715307Y-61075053D01*
X196253004Y-60766152D01*
X195707680Y-60657680D01*
X193172934Y-60657680D01*
X192729299Y-60214045D01*
X208276021Y-60214045D01*
X208678609Y-61188384D01*
X209423415Y-61934491D01*
X210397050Y-62338779D01*
X211451285Y-62339699D01*
X212425624Y-61937111D01*
X213171731Y-61192305D01*
X213576019Y-60218670D01*
X213576939Y-59164435D01*
X213174351Y-58190096D01*
X212429545Y-57443989D01*
X211455910Y-57039701D01*
X210401675Y-57038781D01*
X209427336Y-57441369D01*
X208681229Y-58186175D01*
X208276941Y-59159810D01*
X208276021Y-60214045D01*
X192729299Y-60214045D01*
X190350000Y-57834746D01*
X190350000Y-54865254D01*
X191840254Y-53375000D01*
X193350000Y-53375000D01*
X193895324Y-53266528D01*
X194357627Y-52957627D01*
X195924707Y-51390547D01*
X196073930Y-51167219D01*
X196233608Y-50928244D01*
X196342080Y-50382920D01*
X196342080Y-50222203D01*
X196603160Y-49831469D01*
X196667352Y-49508754D01*
X196874739Y-49772787D01*
X196931532Y-49854599D01*
X197057080Y-49892643D01*
X197057080Y-49368400D01*
X197857080Y-49368400D01*
X197857080Y-49892643D01*
X197982628Y-49854599D01*
X198039421Y-49772787D01*
X198255083Y-49498219D01*
X198277336Y-49368400D01*
X197857080Y-49368400D01*
X197057080Y-49368400D01*
X196962080Y-49368400D01*
X196962080Y-48418400D01*
X197057080Y-48418400D01*
X197857080Y-48418400D01*
X198277336Y-48418400D01*
X198255083Y-48288581D01*
X198169098Y-48179109D01*
X199225507Y-48179109D01*
X199728514Y-49396480D01*
X200616051Y-50285567D01*
X200494459Y-50406947D01*
X200216797Y-51075631D01*
X200216165Y-51799672D01*
X200492659Y-52468840D01*
X200732611Y-52709210D01*
X200494459Y-52946947D01*
X200216797Y-53615631D01*
X200216165Y-54339672D01*
X200492659Y-55008840D01*
X200732611Y-55249210D01*
X200494459Y-55486947D01*
X200216797Y-56155631D01*
X200216165Y-56879672D01*
X200492659Y-57548840D01*
X201004187Y-58061261D01*
X201672871Y-58338923D01*
X202396912Y-58339555D01*
X202770792Y-58185071D01*
X203032659Y-58818840D01*
X203544187Y-59331261D01*
X204212871Y-59608923D01*
X204936912Y-59609555D01*
X205606080Y-59333061D01*
X206118501Y-58821533D01*
X206396163Y-58152849D01*
X206396795Y-57428808D01*
X206120301Y-56759640D01*
X205880349Y-56519270D01*
X206118501Y-56281533D01*
X206396163Y-55612849D01*
X206396795Y-54888808D01*
X206120301Y-54219640D01*
X205880349Y-53979270D01*
X206118501Y-53741533D01*
X206396163Y-53072849D01*
X206396795Y-52348808D01*
X206120301Y-51679640D01*
X205608773Y-51167219D01*
X204940089Y-50889557D01*
X204216048Y-50888925D01*
X203842168Y-51043409D01*
X203673905Y-50636180D01*
X204410160Y-50331966D01*
X204688566Y-50054045D01*
X208276021Y-50054045D01*
X208678609Y-51028384D01*
X209423415Y-51774491D01*
X210397050Y-52178779D01*
X211451285Y-52179699D01*
X212425624Y-51777111D01*
X213171731Y-51032305D01*
X213576019Y-50058670D01*
X213576939Y-49004435D01*
X213174351Y-48030096D01*
X212429545Y-47283989D01*
X211455910Y-46879701D01*
X210401675Y-46878781D01*
X209427336Y-47281369D01*
X208681229Y-48026175D01*
X208276941Y-48999810D01*
X208276021Y-50054045D01*
X204688566Y-50054045D01*
X205342372Y-49401379D01*
X205847504Y-48184888D01*
X205848653Y-46867691D01*
X205345646Y-45650320D01*
X204415059Y-44718108D01*
X203198568Y-44212976D01*
X201881371Y-44211827D01*
X200664000Y-44714834D01*
X199731788Y-45645421D01*
X199226656Y-46861912D01*
X199225507Y-48179109D01*
X198169098Y-48179109D01*
X198039421Y-48014013D01*
X197982628Y-47932201D01*
X197857080Y-47894157D01*
X197857080Y-48418400D01*
X197057080Y-48418400D01*
X197057080Y-47894157D01*
X196931532Y-47932201D01*
X196874739Y-48014013D01*
X196667352Y-48278046D01*
X196603160Y-47955331D01*
X196314553Y-47523400D01*
X196569199Y-47142296D01*
X196586273Y-47159370D01*
X196632216Y-47178400D01*
X197025830Y-47178400D01*
X197057080Y-47147150D01*
X197057080Y-46653400D01*
X197857080Y-46653400D01*
X197857080Y-47147150D01*
X197888330Y-47178400D01*
X198281944Y-47178400D01*
X198327887Y-47159370D01*
X198363050Y-47124207D01*
X198382080Y-47078264D01*
X198382080Y-46684650D01*
X198350830Y-46653400D01*
X197857080Y-46653400D01*
X197057080Y-46653400D01*
X196962080Y-46653400D01*
X196962080Y-45853400D01*
X197057080Y-45853400D01*
X197057080Y-45359650D01*
X197857080Y-45359650D01*
X197857080Y-45853400D01*
X198350830Y-45853400D01*
X198382080Y-45822150D01*
X198382080Y-45428536D01*
X198363050Y-45382593D01*
X198327887Y-45347430D01*
X198281944Y-45328400D01*
X197888330Y-45328400D01*
X197857080Y-45359650D01*
X197057080Y-45359650D01*
X197025830Y-45328400D01*
X196632216Y-45328400D01*
X196626151Y-45330912D01*
X196603160Y-45215331D01*
X196207550Y-44623258D01*
X195615477Y-44227648D01*
X194917080Y-44088728D01*
X194218683Y-44227648D01*
X193647080Y-44609580D01*
X193075477Y-44227648D01*
X192377080Y-44088728D01*
X191678683Y-44227648D01*
X191107080Y-44609580D01*
X190535477Y-44227648D01*
X189837080Y-44088728D01*
X189138683Y-44227648D01*
X188567080Y-44609580D01*
X187995477Y-44227648D01*
X187297080Y-44088728D01*
X186598683Y-44227648D01*
X186027080Y-44609580D01*
X185455477Y-44227648D01*
X184757080Y-44088728D01*
X184058683Y-44227648D01*
X183487080Y-44609580D01*
X182915477Y-44227648D01*
X182217080Y-44088728D01*
X181518683Y-44227648D01*
X180947080Y-44609580D01*
X180375477Y-44227648D01*
X179677080Y-44088728D01*
X178978683Y-44227648D01*
X178407080Y-44609580D01*
X177835477Y-44227648D01*
X177137080Y-44088728D01*
X176438683Y-44227648D01*
X175867080Y-44609580D01*
X175295477Y-44227648D01*
X174597080Y-44088728D01*
X173898683Y-44227648D01*
X173327080Y-44609580D01*
X172755477Y-44227648D01*
X172057080Y-44088728D01*
X171358683Y-44227648D01*
X170787080Y-44609580D01*
X170215477Y-44227648D01*
X169517080Y-44088728D01*
X168818683Y-44227648D01*
X168247080Y-44609580D01*
X167675477Y-44227648D01*
X166977080Y-44088728D01*
X166278683Y-44227648D01*
X165707080Y-44609580D01*
X165135477Y-44227648D01*
X164437080Y-44088728D01*
X163738683Y-44227648D01*
X163167080Y-44609580D01*
X162595477Y-44227648D01*
X161897080Y-44088728D01*
X161198683Y-44227648D01*
X160627080Y-44609580D01*
X160055477Y-44227648D01*
X159357080Y-44088728D01*
X158658683Y-44227648D01*
X158087080Y-44609580D01*
X157515477Y-44227648D01*
X156817080Y-44088728D01*
X156118683Y-44227648D01*
X155547080Y-44609580D01*
X154975477Y-44227648D01*
X154277080Y-44088728D01*
X153578683Y-44227648D01*
X153007080Y-44609580D01*
X152435477Y-44227648D01*
X151737080Y-44088728D01*
X151038683Y-44227648D01*
X150467080Y-44609580D01*
X149895477Y-44227648D01*
X149197080Y-44088728D01*
X148498683Y-44227648D01*
X147927080Y-44609580D01*
X147355477Y-44227648D01*
X146657080Y-44088728D01*
X145958683Y-44227648D01*
X145366610Y-44623258D01*
X144971000Y-45215331D01*
X144906808Y-45538046D01*
X144699421Y-45274013D01*
X144642628Y-45192201D01*
X144517080Y-45154157D01*
X144517080Y-45678400D01*
X144612080Y-45678400D01*
X144612080Y-46628400D01*
X144517080Y-46628400D01*
X144517080Y-47152643D01*
X144642628Y-47114599D01*
X144699421Y-47032787D01*
X144906808Y-46768754D01*
X144971000Y-47091469D01*
X145259607Y-47523400D01*
X144971000Y-47955331D01*
X144906808Y-48278046D01*
X144699421Y-48014013D01*
X144642628Y-47932201D01*
X144517080Y-47894157D01*
X144517080Y-48418400D01*
X144612080Y-48418400D01*
X144612080Y-49368400D01*
X144517080Y-49368400D01*
X144517080Y-49892643D01*
X144642628Y-49854599D01*
X144699421Y-49772787D01*
X144906808Y-49508754D01*
X144971000Y-49831469D01*
X145366610Y-50423542D01*
X145958683Y-50819152D01*
X146657080Y-50958072D01*
X147355477Y-50819152D01*
X147927080Y-50437220D01*
X148498683Y-50819152D01*
X149197080Y-50958072D01*
X149895477Y-50819152D01*
X150467080Y-50437220D01*
X151038683Y-50819152D01*
X151737080Y-50958072D01*
X152435477Y-50819152D01*
X153007080Y-50437220D01*
X153578683Y-50819152D01*
X154277080Y-50958072D01*
X154975477Y-50819152D01*
X155567550Y-50423542D01*
X155963160Y-49831469D01*
X156027352Y-49508754D01*
X156234739Y-49772787D01*
X156291532Y-49854599D01*
X156417080Y-49892643D01*
X156417080Y-49368400D01*
X156322080Y-49368400D01*
X156322080Y-48418400D01*
X156417080Y-48418400D01*
X156417080Y-48398400D01*
X157217080Y-48398400D01*
X157217080Y-48418400D01*
X157312080Y-48418400D01*
X157312080Y-49368400D01*
X157217080Y-49368400D01*
X157217080Y-49892643D01*
X157342628Y-49854599D01*
X157399421Y-49772787D01*
X157606808Y-49508754D01*
X157671000Y-49831469D01*
X158066610Y-50423542D01*
X158658683Y-50819152D01*
X159357080Y-50958072D01*
X160055477Y-50819152D01*
X160627080Y-50437220D01*
X161198683Y-50819152D01*
X161897080Y-50958072D01*
X162595477Y-50819152D01*
X163167080Y-50437220D01*
X163738683Y-50819152D01*
X164437080Y-50958072D01*
X165135477Y-50819152D01*
X165707080Y-50437220D01*
X166278683Y-50819152D01*
X166580549Y-50879197D01*
X166459746Y-51000000D01*
X143775000Y-51000000D01*
X143229676Y-51108472D01*
X142767373Y-51417373D01*
X139417373Y-54767373D01*
X139108472Y-55229676D01*
X139000000Y-55775000D01*
X139000000Y-61430280D01*
X138807627Y-61142373D01*
X136494820Y-58829566D01*
X136494820Y-58457937D01*
X136531351Y-58421470D01*
X136794520Y-57787689D01*
X136795119Y-57101442D01*
X136533057Y-56467202D01*
X136048230Y-55981529D01*
X135414449Y-55718360D01*
X134728202Y-55717761D01*
X134093962Y-55979823D01*
X133608289Y-56464650D01*
X133345120Y-57098431D01*
X133344521Y-57784678D01*
X133606583Y-58418918D01*
X133644820Y-58457222D01*
X133644820Y-59419820D01*
X133753292Y-59965144D01*
X134062193Y-60427447D01*
X134518963Y-60884217D01*
X134093962Y-61059823D01*
X133608289Y-61544650D01*
X133345120Y-62178431D01*
X133344521Y-62864678D01*
X133606583Y-63498918D01*
X134091410Y-63984591D01*
X134725191Y-64247760D01*
X135411438Y-64248359D01*
X136045678Y-63986297D01*
X136375000Y-63657549D01*
X136375000Y-66468852D01*
X136058230Y-66151529D01*
X135424449Y-65888360D01*
X134738202Y-65887761D01*
X134103962Y-66149823D01*
X134065658Y-66188060D01*
X132203314Y-66188060D01*
X129707627Y-63692373D01*
X129245324Y-63383472D01*
X128700000Y-63275000D01*
X128154676Y-63383472D01*
X127692373Y-63692373D01*
X127678933Y-63705813D01*
X127370032Y-64168116D01*
X127261560Y-64713440D01*
X89034800Y-64713440D01*
X89034800Y-48349500D01*
X118590120Y-48349500D01*
X118590120Y-50329500D01*
X118661592Y-50709342D01*
X118886079Y-51058204D01*
X119228605Y-51292242D01*
X119635200Y-51374580D01*
X123595200Y-51374580D01*
X123703994Y-51354109D01*
X133185507Y-51354109D01*
X133688514Y-52571480D01*
X134619101Y-53503692D01*
X135835592Y-54008824D01*
X137152789Y-54009973D01*
X138370160Y-53506966D01*
X139302372Y-52576379D01*
X139807504Y-51359888D01*
X139808653Y-50042691D01*
X139530042Y-49368400D01*
X140756824Y-49368400D01*
X140779077Y-49498219D01*
X140994739Y-49772787D01*
X141051532Y-49854599D01*
X141177080Y-49892643D01*
X141177080Y-49368400D01*
X141977080Y-49368400D01*
X141977080Y-49892643D01*
X142102628Y-49854599D01*
X142159421Y-49772787D01*
X142375083Y-49498219D01*
X142397336Y-49368400D01*
X143296824Y-49368400D01*
X143319077Y-49498219D01*
X143534739Y-49772787D01*
X143591532Y-49854599D01*
X143717080Y-49892643D01*
X143717080Y-49368400D01*
X143296824Y-49368400D01*
X142397336Y-49368400D01*
X141977080Y-49368400D01*
X141177080Y-49368400D01*
X140756824Y-49368400D01*
X139530042Y-49368400D01*
X139305646Y-48825320D01*
X138899436Y-48418400D01*
X140756824Y-48418400D01*
X141177080Y-48418400D01*
X141977080Y-48418400D01*
X142397336Y-48418400D01*
X143296824Y-48418400D01*
X143717080Y-48418400D01*
X143717080Y-47894157D01*
X143591532Y-47932201D01*
X143534739Y-48014013D01*
X143319077Y-48288581D01*
X143296824Y-48418400D01*
X142397336Y-48418400D01*
X142375083Y-48288581D01*
X142159421Y-48014013D01*
X142102628Y-47932201D01*
X141977080Y-47894157D01*
X141977080Y-48418400D01*
X141177080Y-48418400D01*
X141177080Y-47894157D01*
X141051532Y-47932201D01*
X140994739Y-48014013D01*
X140779077Y-48288581D01*
X140756824Y-48418400D01*
X138899436Y-48418400D01*
X138375059Y-47893108D01*
X137158568Y-47387976D01*
X135841371Y-47386827D01*
X134624000Y-47889834D01*
X133691788Y-48820421D01*
X133186656Y-50036912D01*
X133185507Y-51354109D01*
X123703994Y-51354109D01*
X123975042Y-51303108D01*
X124323904Y-51078621D01*
X124557942Y-50736095D01*
X124640280Y-50329500D01*
X124640280Y-48349500D01*
X124568808Y-47969658D01*
X124344321Y-47620796D01*
X124001795Y-47386758D01*
X123595200Y-47304420D01*
X119635200Y-47304420D01*
X119255358Y-47375892D01*
X118906496Y-47600379D01*
X118672458Y-47942905D01*
X118590120Y-48349500D01*
X89034800Y-48349500D01*
X89034800Y-46628400D01*
X140756824Y-46628400D01*
X140779077Y-46758219D01*
X140994739Y-47032787D01*
X141051532Y-47114599D01*
X141177080Y-47152643D01*
X141177080Y-46628400D01*
X141977080Y-46628400D01*
X141977080Y-47152643D01*
X142102628Y-47114599D01*
X142159421Y-47032787D01*
X142375083Y-46758219D01*
X142397336Y-46628400D01*
X143296824Y-46628400D01*
X143319077Y-46758219D01*
X143534739Y-47032787D01*
X143591532Y-47114599D01*
X143717080Y-47152643D01*
X143717080Y-46628400D01*
X143296824Y-46628400D01*
X142397336Y-46628400D01*
X141977080Y-46628400D01*
X141177080Y-46628400D01*
X140756824Y-46628400D01*
X89034800Y-46628400D01*
X89034800Y-45678400D01*
X140756824Y-45678400D01*
X141177080Y-45678400D01*
X141977080Y-45678400D01*
X142397336Y-45678400D01*
X143296824Y-45678400D01*
X143717080Y-45678400D01*
X143717080Y-45154157D01*
X143591532Y-45192201D01*
X143534739Y-45274013D01*
X143319077Y-45548581D01*
X143296824Y-45678400D01*
X142397336Y-45678400D01*
X142375083Y-45548581D01*
X142159421Y-45274013D01*
X142102628Y-45192201D01*
X141977080Y-45154157D01*
X141977080Y-45678400D01*
X141177080Y-45678400D01*
X141177080Y-45154157D01*
X141051532Y-45192201D01*
X140994739Y-45274013D01*
X140779077Y-45548581D01*
X140756824Y-45678400D01*
X89034800Y-45678400D01*
X89034800Y-44814500D01*
X119651091Y-44814500D01*
X119703164Y-44966457D01*
X119759665Y-45187851D01*
X120150200Y-45454500D01*
X121140200Y-45454500D01*
X121140200Y-44814500D01*
X122090200Y-44814500D01*
X122090200Y-45454500D01*
X123080200Y-45454500D01*
X123470735Y-45187851D01*
X123527236Y-44966457D01*
X123579309Y-44814500D01*
X122090200Y-44814500D01*
X121140200Y-44814500D01*
X119651091Y-44814500D01*
X89034800Y-44814500D01*
X89034800Y-43864500D01*
X119651091Y-43864500D01*
X121140200Y-43864500D01*
X121140200Y-43224500D01*
X122090200Y-43224500D01*
X122090200Y-43864500D01*
X123579309Y-43864500D01*
X123527236Y-43712543D01*
X123470735Y-43491149D01*
X123080200Y-43224500D01*
X122090200Y-43224500D01*
X121140200Y-43224500D01*
X120150200Y-43224500D01*
X119759665Y-43491149D01*
X119703164Y-43712543D01*
X119651091Y-43864500D01*
X89034800Y-43864500D01*
X89034800Y-39230280D01*
X215826480Y-39230280D01*
X215826480Y-137030280D01*
G36*
X194192373Y-117042373D02*
X193883472Y-117504676D01*
X193775000Y-118050000D01*
X193775000Y-120934746D01*
X192609746Y-122100000D01*
X185215254Y-122100000D01*
X179199234Y-116083980D01*
X180326740Y-116083980D01*
X180706582Y-116012508D01*
X180927754Y-115870187D01*
X181120145Y-116001642D01*
X181526740Y-116083980D01*
X183026740Y-116083980D01*
X183406582Y-116012508D01*
X183715227Y-115813900D01*
X185593940Y-115813900D01*
X185593940Y-118618389D01*
X185415418Y-118879665D01*
X185333080Y-119286260D01*
X185333080Y-120586260D01*
X185404552Y-120966102D01*
X185629039Y-121314964D01*
X185971565Y-121549002D01*
X186378160Y-121631340D01*
X187878160Y-121631340D01*
X188258002Y-121559868D01*
X188606864Y-121335381D01*
X188840902Y-120992855D01*
X188923240Y-120586260D01*
X188923240Y-120292510D01*
X188953160Y-120292510D01*
X188953160Y-120611124D01*
X188972190Y-120657067D01*
X189007353Y-120692230D01*
X189053296Y-120711260D01*
X189421910Y-120711260D01*
X189453160Y-120680010D01*
X189453160Y-120261260D01*
X190203160Y-120261260D01*
X190203160Y-120680010D01*
X190234410Y-120711260D01*
X190603024Y-120711260D01*
X190648967Y-120692230D01*
X190684130Y-120657067D01*
X190703160Y-120611124D01*
X190703160Y-120292510D01*
X190671910Y-120261260D01*
X190203160Y-120261260D01*
X189453160Y-120261260D01*
X188984410Y-120261260D01*
X188953160Y-120292510D01*
X188923240Y-120292510D01*
X188923240Y-119286260D01*
X188918562Y-119261396D01*
X188953160Y-119261396D01*
X188953160Y-119580010D01*
X188984410Y-119611260D01*
X189453160Y-119611260D01*
X189453160Y-119192510D01*
X190203160Y-119192510D01*
X190203160Y-119611260D01*
X190671910Y-119611260D01*
X190703160Y-119580010D01*
X190703160Y-119261396D01*
X190684130Y-119215453D01*
X190648967Y-119180290D01*
X190603024Y-119161260D01*
X190234410Y-119161260D01*
X190203160Y-119192510D01*
X189453160Y-119192510D01*
X189421910Y-119161260D01*
X189053296Y-119161260D01*
X189007353Y-119180290D01*
X188972190Y-119215453D01*
X188953160Y-119261396D01*
X188918562Y-119261396D01*
X188851768Y-118906418D01*
X188627281Y-118557556D01*
X188443940Y-118432284D01*
X188443940Y-115728599D01*
X188497644Y-115694041D01*
X188731682Y-115351515D01*
X188814020Y-114944920D01*
X188814020Y-114651170D01*
X188843940Y-114651170D01*
X188843940Y-114969784D01*
X188862970Y-115015727D01*
X188898133Y-115050890D01*
X188944076Y-115069920D01*
X189312690Y-115069920D01*
X189343940Y-115038670D01*
X189343940Y-114619920D01*
X190093940Y-114619920D01*
X190093940Y-115038670D01*
X190125190Y-115069920D01*
X190493804Y-115069920D01*
X190539747Y-115050890D01*
X190574910Y-115015727D01*
X190593940Y-114969784D01*
X190593940Y-114651170D01*
X190562690Y-114619920D01*
X190093940Y-114619920D01*
X189343940Y-114619920D01*
X188875190Y-114619920D01*
X188843940Y-114651170D01*
X188814020Y-114651170D01*
X188814020Y-113644920D01*
X188809342Y-113620056D01*
X188843940Y-113620056D01*
X188843940Y-113938670D01*
X188875190Y-113969920D01*
X189343940Y-113969920D01*
X189343940Y-113551170D01*
X190093940Y-113551170D01*
X190093940Y-113969920D01*
X190562690Y-113969920D01*
X190593940Y-113938670D01*
X190593940Y-113620056D01*
X190574910Y-113574113D01*
X190539747Y-113538950D01*
X190493804Y-113519920D01*
X190125190Y-113519920D01*
X190093940Y-113551170D01*
X189343940Y-113551170D01*
X189312690Y-113519920D01*
X188944076Y-113519920D01*
X188898133Y-113538950D01*
X188862970Y-113574113D01*
X188843940Y-113620056D01*
X188809342Y-113620056D01*
X188742548Y-113265078D01*
X188518061Y-112916216D01*
X188421151Y-112850000D01*
X198384746Y-112850000D01*
X194192373Y-117042373D01*
X194192373Y-117042373D01*
G37*
X194192373Y-117042373D02*
X193883472Y-117504676D01*
X193775000Y-118050000D01*
X193775000Y-120934746D01*
X192609746Y-122100000D01*
X185215254Y-122100000D01*
X179199234Y-116083980D01*
X180326740Y-116083980D01*
X180706582Y-116012508D01*
X180927754Y-115870187D01*
X181120145Y-116001642D01*
X181526740Y-116083980D01*
X183026740Y-116083980D01*
X183406582Y-116012508D01*
X183715227Y-115813900D01*
X185593940Y-115813900D01*
X185593940Y-118618389D01*
X185415418Y-118879665D01*
X185333080Y-119286260D01*
X185333080Y-120586260D01*
X185404552Y-120966102D01*
X185629039Y-121314964D01*
X185971565Y-121549002D01*
X186378160Y-121631340D01*
X187878160Y-121631340D01*
X188258002Y-121559868D01*
X188606864Y-121335381D01*
X188840902Y-120992855D01*
X188923240Y-120586260D01*
X188923240Y-120292510D01*
X188953160Y-120292510D01*
X188953160Y-120611124D01*
X188972190Y-120657067D01*
X189007353Y-120692230D01*
X189053296Y-120711260D01*
X189421910Y-120711260D01*
X189453160Y-120680010D01*
X189453160Y-120261260D01*
X190203160Y-120261260D01*
X190203160Y-120680010D01*
X190234410Y-120711260D01*
X190603024Y-120711260D01*
X190648967Y-120692230D01*
X190684130Y-120657067D01*
X190703160Y-120611124D01*
X190703160Y-120292510D01*
X190671910Y-120261260D01*
X190203160Y-120261260D01*
X189453160Y-120261260D01*
X188984410Y-120261260D01*
X188953160Y-120292510D01*
X188923240Y-120292510D01*
X188923240Y-119286260D01*
X188918562Y-119261396D01*
X188953160Y-119261396D01*
X188953160Y-119580010D01*
X188984410Y-119611260D01*
X189453160Y-119611260D01*
X189453160Y-119192510D01*
X190203160Y-119192510D01*
X190203160Y-119611260D01*
X190671910Y-119611260D01*
X190703160Y-119580010D01*
X190703160Y-119261396D01*
X190684130Y-119215453D01*
X190648967Y-119180290D01*
X190603024Y-119161260D01*
X190234410Y-119161260D01*
X190203160Y-119192510D01*
X189453160Y-119192510D01*
X189421910Y-119161260D01*
X189053296Y-119161260D01*
X189007353Y-119180290D01*
X188972190Y-119215453D01*
X188953160Y-119261396D01*
X188918562Y-119261396D01*
X188851768Y-118906418D01*
X188627281Y-118557556D01*
X188443940Y-118432284D01*
X188443940Y-115728599D01*
X188497644Y-115694041D01*
X188731682Y-115351515D01*
X188814020Y-114944920D01*
X188814020Y-114651170D01*
X188843940Y-114651170D01*
X188843940Y-114969784D01*
X188862970Y-115015727D01*
X188898133Y-115050890D01*
X188944076Y-115069920D01*
X189312690Y-115069920D01*
X189343940Y-115038670D01*
X189343940Y-114619920D01*
X190093940Y-114619920D01*
X190093940Y-115038670D01*
X190125190Y-115069920D01*
X190493804Y-115069920D01*
X190539747Y-115050890D01*
X190574910Y-115015727D01*
X190593940Y-114969784D01*
X190593940Y-114651170D01*
X190562690Y-114619920D01*
X190093940Y-114619920D01*
X189343940Y-114619920D01*
X188875190Y-114619920D01*
X188843940Y-114651170D01*
X188814020Y-114651170D01*
X188814020Y-113644920D01*
X188809342Y-113620056D01*
X188843940Y-113620056D01*
X188843940Y-113938670D01*
X188875190Y-113969920D01*
X189343940Y-113969920D01*
X189343940Y-113551170D01*
X190093940Y-113551170D01*
X190093940Y-113969920D01*
X190562690Y-113969920D01*
X190593940Y-113938670D01*
X190593940Y-113620056D01*
X190574910Y-113574113D01*
X190539747Y-113538950D01*
X190493804Y-113519920D01*
X190125190Y-113519920D01*
X190093940Y-113551170D01*
X189343940Y-113551170D01*
X189312690Y-113519920D01*
X188944076Y-113519920D01*
X188898133Y-113538950D01*
X188862970Y-113574113D01*
X188843940Y-113620056D01*
X188809342Y-113620056D01*
X188742548Y-113265078D01*
X188518061Y-112916216D01*
X188421151Y-112850000D01*
X198384746Y-112850000D01*
X194192373Y-117042373D01*
G36*
X146948600Y-66605614D02*
X146948600Y-67035440D01*
X147020072Y-67415282D01*
X147244559Y-67764144D01*
X147587085Y-67998182D01*
X147993680Y-68080520D01*
X149493680Y-68080520D01*
X149873522Y-68009048D01*
X150018680Y-67915641D01*
X150018680Y-70294030D01*
X149898578Y-70469805D01*
X149816240Y-70876400D01*
X149816240Y-72176400D01*
X149887712Y-72556242D01*
X150112199Y-72905104D01*
X150186320Y-72955749D01*
X150186320Y-75159664D01*
X149954458Y-75499005D01*
X149872120Y-75905600D01*
X149872120Y-77205600D01*
X149943592Y-77585442D01*
X150168079Y-77934304D01*
X150510605Y-78168342D01*
X150917200Y-78250680D01*
X152417200Y-78250680D01*
X152797042Y-78179208D01*
X153145904Y-77954721D01*
X153379942Y-77612195D01*
X153462280Y-77205600D01*
X153462280Y-75905600D01*
X153390808Y-75525758D01*
X153166321Y-75176896D01*
X153036320Y-75088070D01*
X153036320Y-72960079D01*
X153090024Y-72925521D01*
X153324062Y-72582995D01*
X153406400Y-72176400D01*
X153406400Y-70876400D01*
X153334928Y-70496558D01*
X153110441Y-70147696D01*
X152868680Y-69982508D01*
X152868680Y-67819119D01*
X152922384Y-67784561D01*
X153156422Y-67442035D01*
X153238760Y-67035440D01*
X153238760Y-66354014D01*
X153475000Y-66590254D01*
X153475000Y-83425000D01*
X153583472Y-83970324D01*
X153892373Y-84432627D01*
X158209746Y-88750000D01*
X141065254Y-88750000D01*
X133625000Y-81309746D01*
X133625000Y-80880170D01*
X134557240Y-80880170D01*
X134557240Y-81098784D01*
X134576270Y-81144727D01*
X134611433Y-81179890D01*
X134657376Y-81198920D01*
X134850990Y-81198920D01*
X134882240Y-81167670D01*
X134882240Y-80848920D01*
X134588490Y-80848920D01*
X134557240Y-80880170D01*
X133625000Y-80880170D01*
X133625000Y-80149056D01*
X134557240Y-80149056D01*
X134557240Y-80367670D01*
X134588490Y-80398920D01*
X134882240Y-80398920D01*
X134882240Y-80080170D01*
X134850990Y-80048920D01*
X134657376Y-80048920D01*
X134611433Y-80067950D01*
X134576270Y-80103113D01*
X134557240Y-80149056D01*
X133625000Y-80149056D01*
X133625000Y-76217350D01*
X133654820Y-76247222D01*
X133654820Y-77671500D01*
X133763292Y-78216824D01*
X134072193Y-78679127D01*
X134615013Y-79221947D01*
X134658632Y-79453762D01*
X134883119Y-79802624D01*
X135225645Y-80036662D01*
X135308890Y-80053520D01*
X135282240Y-80080170D01*
X135282240Y-80398920D01*
X135482240Y-80398920D01*
X135482240Y-80848920D01*
X135282240Y-80848920D01*
X135282240Y-81167670D01*
X135313490Y-81198920D01*
X135507104Y-81198920D01*
X135553047Y-81179890D01*
X135556458Y-81176479D01*
X135608632Y-81453762D01*
X135833119Y-81802624D01*
X136175645Y-82036662D01*
X136582240Y-82119000D01*
X137382240Y-82119000D01*
X137754684Y-82048920D01*
X141043160Y-82048920D01*
X141588484Y-81940448D01*
X142050787Y-81631547D01*
X142106794Y-81575540D01*
X142536620Y-81575540D01*
X142916462Y-81504068D01*
X143137634Y-81361747D01*
X143330025Y-81493202D01*
X143736620Y-81575540D01*
X145236620Y-81575540D01*
X145616462Y-81504068D01*
X145965324Y-81279581D01*
X146199362Y-80937055D01*
X146281700Y-80530460D01*
X146281700Y-79230460D01*
X146210228Y-78850618D01*
X145985741Y-78501756D01*
X145911620Y-78451111D01*
X145911620Y-76911850D01*
X148092200Y-76911850D01*
X148092200Y-77230464D01*
X148111230Y-77276407D01*
X148146393Y-77311570D01*
X148192336Y-77330600D01*
X148560950Y-77330600D01*
X148592200Y-77299350D01*
X148592200Y-76880600D01*
X149342200Y-76880600D01*
X149342200Y-77299350D01*
X149373450Y-77330600D01*
X149742064Y-77330600D01*
X149788007Y-77311570D01*
X149823170Y-77276407D01*
X149842200Y-77230464D01*
X149842200Y-76911850D01*
X149810950Y-76880600D01*
X149342200Y-76880600D01*
X148592200Y-76880600D01*
X148123450Y-76880600D01*
X148092200Y-76911850D01*
X145911620Y-76911850D01*
X145911620Y-75880736D01*
X148092200Y-75880736D01*
X148092200Y-76199350D01*
X148123450Y-76230600D01*
X148592200Y-76230600D01*
X148592200Y-75811850D01*
X149342200Y-75811850D01*
X149342200Y-76230600D01*
X149810950Y-76230600D01*
X149842200Y-76199350D01*
X149842200Y-75880736D01*
X149823170Y-75834793D01*
X149788007Y-75799630D01*
X149742064Y-75780600D01*
X149373450Y-75780600D01*
X149342200Y-75811850D01*
X148592200Y-75811850D01*
X148560950Y-75780600D01*
X148192336Y-75780600D01*
X148146393Y-75799630D01*
X148111230Y-75834793D01*
X148092200Y-75880736D01*
X145911620Y-75880736D01*
X145911620Y-72311620D01*
X145826293Y-71882650D01*
X148036320Y-71882650D01*
X148036320Y-72201264D01*
X148055350Y-72247207D01*
X148090513Y-72282370D01*
X148136456Y-72301400D01*
X148505070Y-72301400D01*
X148536320Y-72270150D01*
X148536320Y-71851400D01*
X149286320Y-71851400D01*
X149286320Y-72270150D01*
X149317570Y-72301400D01*
X149686184Y-72301400D01*
X149732127Y-72282370D01*
X149767290Y-72247207D01*
X149786320Y-72201264D01*
X149786320Y-71882650D01*
X149755070Y-71851400D01*
X149286320Y-71851400D01*
X148536320Y-71851400D01*
X148067570Y-71851400D01*
X148036320Y-71882650D01*
X145826293Y-71882650D01*
X145803148Y-71766296D01*
X145494247Y-71303993D01*
X145041790Y-70851536D01*
X148036320Y-70851536D01*
X148036320Y-71170150D01*
X148067570Y-71201400D01*
X148536320Y-71201400D01*
X148536320Y-70782650D01*
X149286320Y-70782650D01*
X149286320Y-71201400D01*
X149755070Y-71201400D01*
X149786320Y-71170150D01*
X149786320Y-70851536D01*
X149767290Y-70805593D01*
X149732127Y-70770430D01*
X149686184Y-70751400D01*
X149317570Y-70751400D01*
X149286320Y-70782650D01*
X148536320Y-70782650D01*
X148505070Y-70751400D01*
X148136456Y-70751400D01*
X148090513Y-70770430D01*
X148055350Y-70805593D01*
X148036320Y-70851536D01*
X145041790Y-70851536D01*
X143386172Y-69195918D01*
X143675678Y-69076297D01*
X144161351Y-68591470D01*
X144424520Y-67957689D01*
X144425119Y-67271442D01*
X144163057Y-66637202D01*
X143678230Y-66151529D01*
X143044449Y-65888360D01*
X142358202Y-65887761D01*
X141850000Y-66097745D01*
X141850000Y-64057986D01*
X142355191Y-64267760D01*
X143041438Y-64268359D01*
X143675678Y-64006297D01*
X143713982Y-63968060D01*
X144311046Y-63968060D01*
X146948600Y-66605614D01*
X146948600Y-66605614D01*
G37*
X146948600Y-66605614D02*
X146948600Y-67035440D01*
X147020072Y-67415282D01*
X147244559Y-67764144D01*
X147587085Y-67998182D01*
X147993680Y-68080520D01*
X149493680Y-68080520D01*
X149873522Y-68009048D01*
X150018680Y-67915641D01*
X150018680Y-70294030D01*
X149898578Y-70469805D01*
X149816240Y-70876400D01*
X149816240Y-72176400D01*
X149887712Y-72556242D01*
X150112199Y-72905104D01*
X150186320Y-72955749D01*
X150186320Y-75159664D01*
X149954458Y-75499005D01*
X149872120Y-75905600D01*
X149872120Y-77205600D01*
X149943592Y-77585442D01*
X150168079Y-77934304D01*
X150510605Y-78168342D01*
X150917200Y-78250680D01*
X152417200Y-78250680D01*
X152797042Y-78179208D01*
X153145904Y-77954721D01*
X153379942Y-77612195D01*
X153462280Y-77205600D01*
X153462280Y-75905600D01*
X153390808Y-75525758D01*
X153166321Y-75176896D01*
X153036320Y-75088070D01*
X153036320Y-72960079D01*
X153090024Y-72925521D01*
X153324062Y-72582995D01*
X153406400Y-72176400D01*
X153406400Y-70876400D01*
X153334928Y-70496558D01*
X153110441Y-70147696D01*
X152868680Y-69982508D01*
X152868680Y-67819119D01*
X152922384Y-67784561D01*
X153156422Y-67442035D01*
X153238760Y-67035440D01*
X153238760Y-66354014D01*
X153475000Y-66590254D01*
X153475000Y-83425000D01*
X153583472Y-83970324D01*
X153892373Y-84432627D01*
X158209746Y-88750000D01*
X141065254Y-88750000D01*
X133625000Y-81309746D01*
X133625000Y-80880170D01*
X134557240Y-80880170D01*
X134557240Y-81098784D01*
X134576270Y-81144727D01*
X134611433Y-81179890D01*
X134657376Y-81198920D01*
X134850990Y-81198920D01*
X134882240Y-81167670D01*
X134882240Y-80848920D01*
X134588490Y-80848920D01*
X134557240Y-80880170D01*
X133625000Y-80880170D01*
X133625000Y-80149056D01*
X134557240Y-80149056D01*
X134557240Y-80367670D01*
X134588490Y-80398920D01*
X134882240Y-80398920D01*
X134882240Y-80080170D01*
X134850990Y-80048920D01*
X134657376Y-80048920D01*
X134611433Y-80067950D01*
X134576270Y-80103113D01*
X134557240Y-80149056D01*
X133625000Y-80149056D01*
X133625000Y-76217350D01*
X133654820Y-76247222D01*
X133654820Y-77671500D01*
X133763292Y-78216824D01*
X134072193Y-78679127D01*
X134615013Y-79221947D01*
X134658632Y-79453762D01*
X134883119Y-79802624D01*
X135225645Y-80036662D01*
X135308890Y-80053520D01*
X135282240Y-80080170D01*
X135282240Y-80398920D01*
X135482240Y-80398920D01*
X135482240Y-80848920D01*
X135282240Y-80848920D01*
X135282240Y-81167670D01*
X135313490Y-81198920D01*
X135507104Y-81198920D01*
X135553047Y-81179890D01*
X135556458Y-81176479D01*
X135608632Y-81453762D01*
X135833119Y-81802624D01*
X136175645Y-82036662D01*
X136582240Y-82119000D01*
X137382240Y-82119000D01*
X137754684Y-82048920D01*
X141043160Y-82048920D01*
X141588484Y-81940448D01*
X142050787Y-81631547D01*
X142106794Y-81575540D01*
X142536620Y-81575540D01*
X142916462Y-81504068D01*
X143137634Y-81361747D01*
X143330025Y-81493202D01*
X143736620Y-81575540D01*
X145236620Y-81575540D01*
X145616462Y-81504068D01*
X145965324Y-81279581D01*
X146199362Y-80937055D01*
X146281700Y-80530460D01*
X146281700Y-79230460D01*
X146210228Y-78850618D01*
X145985741Y-78501756D01*
X145911620Y-78451111D01*
X145911620Y-76911850D01*
X148092200Y-76911850D01*
X148092200Y-77230464D01*
X148111230Y-77276407D01*
X148146393Y-77311570D01*
X148192336Y-77330600D01*
X148560950Y-77330600D01*
X148592200Y-77299350D01*
X148592200Y-76880600D01*
X149342200Y-76880600D01*
X149342200Y-77299350D01*
X149373450Y-77330600D01*
X149742064Y-77330600D01*
X149788007Y-77311570D01*
X149823170Y-77276407D01*
X149842200Y-77230464D01*
X149842200Y-76911850D01*
X149810950Y-76880600D01*
X149342200Y-76880600D01*
X148592200Y-76880600D01*
X148123450Y-76880600D01*
X148092200Y-76911850D01*
X145911620Y-76911850D01*
X145911620Y-75880736D01*
X148092200Y-75880736D01*
X148092200Y-76199350D01*
X148123450Y-76230600D01*
X148592200Y-76230600D01*
X148592200Y-75811850D01*
X149342200Y-75811850D01*
X149342200Y-76230600D01*
X149810950Y-76230600D01*
X149842200Y-76199350D01*
X149842200Y-75880736D01*
X149823170Y-75834793D01*
X149788007Y-75799630D01*
X149742064Y-75780600D01*
X149373450Y-75780600D01*
X149342200Y-75811850D01*
X148592200Y-75811850D01*
X148560950Y-75780600D01*
X148192336Y-75780600D01*
X148146393Y-75799630D01*
X148111230Y-75834793D01*
X148092200Y-75880736D01*
X145911620Y-75880736D01*
X145911620Y-72311620D01*
X145826293Y-71882650D01*
X148036320Y-71882650D01*
X148036320Y-72201264D01*
X148055350Y-72247207D01*
X148090513Y-72282370D01*
X148136456Y-72301400D01*
X148505070Y-72301400D01*
X148536320Y-72270150D01*
X148536320Y-71851400D01*
X149286320Y-71851400D01*
X149286320Y-72270150D01*
X149317570Y-72301400D01*
X149686184Y-72301400D01*
X149732127Y-72282370D01*
X149767290Y-72247207D01*
X149786320Y-72201264D01*
X149786320Y-71882650D01*
X149755070Y-71851400D01*
X149286320Y-71851400D01*
X148536320Y-71851400D01*
X148067570Y-71851400D01*
X148036320Y-71882650D01*
X145826293Y-71882650D01*
X145803148Y-71766296D01*
X145494247Y-71303993D01*
X145041790Y-70851536D01*
X148036320Y-70851536D01*
X148036320Y-71170150D01*
X148067570Y-71201400D01*
X148536320Y-71201400D01*
X148536320Y-70782650D01*
X149286320Y-70782650D01*
X149286320Y-71201400D01*
X149755070Y-71201400D01*
X149786320Y-71170150D01*
X149786320Y-70851536D01*
X149767290Y-70805593D01*
X149732127Y-70770430D01*
X149686184Y-70751400D01*
X149317570Y-70751400D01*
X149286320Y-70782650D01*
X148536320Y-70782650D01*
X148505070Y-70751400D01*
X148136456Y-70751400D01*
X148090513Y-70770430D01*
X148055350Y-70805593D01*
X148036320Y-70851536D01*
X145041790Y-70851536D01*
X143386172Y-69195918D01*
X143675678Y-69076297D01*
X144161351Y-68591470D01*
X144424520Y-67957689D01*
X144425119Y-67271442D01*
X144163057Y-66637202D01*
X143678230Y-66151529D01*
X143044449Y-65888360D01*
X142358202Y-65887761D01*
X141850000Y-66097745D01*
X141850000Y-64057986D01*
X142355191Y-64267760D01*
X143041438Y-64268359D01*
X143675678Y-64006297D01*
X143713982Y-63968060D01*
X144311046Y-63968060D01*
X146948600Y-66605614D01*
G36*
X159300701Y-57608618D02*
X159562763Y-58242858D01*
X160047590Y-58728531D01*
X160681371Y-58991700D01*
X160735493Y-58991747D01*
X162101373Y-60357627D01*
X162563676Y-60666528D01*
X163109000Y-60775000D01*
X167991773Y-60775000D01*
X167680142Y-60903763D01*
X167194469Y-61388590D01*
X166931300Y-62022371D01*
X166930701Y-62708618D01*
X167192763Y-63342858D01*
X167677590Y-63828531D01*
X168311371Y-64091700D01*
X168997618Y-64092299D01*
X169631858Y-63830237D01*
X169670162Y-63792000D01*
X170666546Y-63792000D01*
X172402335Y-65527789D01*
X172232818Y-65775885D01*
X172150480Y-66182480D01*
X172150480Y-67482480D01*
X172221952Y-67862322D01*
X172446439Y-68211184D01*
X172788965Y-68445222D01*
X173195560Y-68527560D01*
X174695560Y-68527560D01*
X175075402Y-68456088D01*
X175296574Y-68313767D01*
X175488965Y-68445222D01*
X175895560Y-68527560D01*
X176325386Y-68527560D01*
X176394853Y-68597027D01*
X176857157Y-68905929D01*
X177402480Y-69014400D01*
X179014400Y-69014400D01*
X179014400Y-71627358D01*
X178902858Y-71790605D01*
X178820520Y-72197200D01*
X178820520Y-73497200D01*
X178891992Y-73877042D01*
X179116479Y-74225904D01*
X179459005Y-74459942D01*
X179865600Y-74542280D01*
X181365600Y-74542280D01*
X181745442Y-74470808D01*
X182094304Y-74246321D01*
X182328342Y-73903795D01*
X182410680Y-73497200D01*
X182410680Y-73203450D01*
X182440600Y-73203450D01*
X182440600Y-73522064D01*
X182459630Y-73568007D01*
X182494793Y-73603170D01*
X182540736Y-73622200D01*
X182909350Y-73622200D01*
X182940600Y-73590950D01*
X182940600Y-73172200D01*
X183690600Y-73172200D01*
X183690600Y-73590950D01*
X183721850Y-73622200D01*
X184090464Y-73622200D01*
X184136407Y-73603170D01*
X184171570Y-73568007D01*
X184190600Y-73522064D01*
X184190600Y-73203450D01*
X184159350Y-73172200D01*
X183690600Y-73172200D01*
X182940600Y-73172200D01*
X182471850Y-73172200D01*
X182440600Y-73203450D01*
X182410680Y-73203450D01*
X182410680Y-72197200D01*
X182406002Y-72172336D01*
X182440600Y-72172336D01*
X182440600Y-72490950D01*
X182471850Y-72522200D01*
X182940600Y-72522200D01*
X182940600Y-72103450D01*
X183690600Y-72103450D01*
X183690600Y-72522200D01*
X184159350Y-72522200D01*
X184190600Y-72490950D01*
X184190600Y-72172336D01*
X184171570Y-72126393D01*
X184136407Y-72091230D01*
X184090464Y-72072200D01*
X183721850Y-72072200D01*
X183690600Y-72103450D01*
X182940600Y-72103450D01*
X182909350Y-72072200D01*
X182540736Y-72072200D01*
X182494793Y-72091230D01*
X182459630Y-72126393D01*
X182440600Y-72172336D01*
X182406002Y-72172336D01*
X182339208Y-71817358D01*
X182114721Y-71468496D01*
X182064400Y-71434113D01*
X182064400Y-68920765D01*
X182252142Y-68645995D01*
X182334480Y-68239400D01*
X182334480Y-67945650D01*
X182364400Y-67945650D01*
X182364400Y-68264264D01*
X182383430Y-68310207D01*
X182418593Y-68345370D01*
X182464536Y-68364400D01*
X182833150Y-68364400D01*
X182864400Y-68333150D01*
X182864400Y-67914400D01*
X183614400Y-67914400D01*
X183614400Y-68333150D01*
X183645650Y-68364400D01*
X184014264Y-68364400D01*
X184060207Y-68345370D01*
X184095370Y-68310207D01*
X184114400Y-68264264D01*
X184114400Y-67945650D01*
X184083150Y-67914400D01*
X183614400Y-67914400D01*
X182864400Y-67914400D01*
X182395650Y-67914400D01*
X182364400Y-67945650D01*
X182334480Y-67945650D01*
X182334480Y-66939400D01*
X182329802Y-66914536D01*
X182364400Y-66914536D01*
X182364400Y-67233150D01*
X182395650Y-67264400D01*
X182864400Y-67264400D01*
X182864400Y-66845650D01*
X183614400Y-66845650D01*
X183614400Y-67264400D01*
X184083150Y-67264400D01*
X184114400Y-67233150D01*
X184114400Y-66914536D01*
X184095370Y-66868593D01*
X184060207Y-66833430D01*
X184014264Y-66814400D01*
X183645650Y-66814400D01*
X183614400Y-66845650D01*
X182864400Y-66845650D01*
X182833150Y-66814400D01*
X182464536Y-66814400D01*
X182418593Y-66833430D01*
X182383430Y-66868593D01*
X182364400Y-66914536D01*
X182329802Y-66914536D01*
X182263008Y-66559558D01*
X182038521Y-66210696D01*
X181695995Y-65976658D01*
X181289400Y-65894320D01*
X179789400Y-65894320D01*
X179409558Y-65965792D01*
X179100913Y-66164400D01*
X178437238Y-66164400D01*
X178369168Y-65802638D01*
X178144681Y-65453776D01*
X177802155Y-65219738D01*
X177395560Y-65137400D01*
X175895560Y-65137400D01*
X175515718Y-65208872D01*
X175370560Y-65302279D01*
X175370560Y-65055760D01*
X175262088Y-64510436D01*
X175021252Y-64150000D01*
X183934746Y-64150000D01*
X186125000Y-66340254D01*
X186125000Y-77800000D01*
X186233472Y-78345324D01*
X186542373Y-78807627D01*
X194484746Y-86750000D01*
X160240254Y-86750000D01*
X156325000Y-82834746D01*
X156325000Y-81927049D01*
X156358472Y-82095324D01*
X156667373Y-82557627D01*
X158367373Y-84257627D01*
X158829676Y-84566528D01*
X159375000Y-84675000D01*
X170225000Y-84675000D01*
X170770324Y-84566528D01*
X171232627Y-84257627D01*
X171978827Y-83511427D01*
X172287728Y-83049124D01*
X172396200Y-82503800D01*
X172396200Y-81265879D01*
X172449904Y-81231321D01*
X172683942Y-80888795D01*
X172766280Y-80482200D01*
X172766280Y-79182200D01*
X172694808Y-78802358D01*
X172470321Y-78453496D01*
X172127795Y-78219458D01*
X171721200Y-78137120D01*
X170221200Y-78137120D01*
X169841358Y-78208592D01*
X169620186Y-78350913D01*
X169427795Y-78219458D01*
X169021200Y-78137120D01*
X167521200Y-78137120D01*
X167141358Y-78208592D01*
X166792496Y-78433079D01*
X166558458Y-78775605D01*
X166550403Y-78815380D01*
X163958884Y-78815380D01*
X163693471Y-78761632D01*
X163707900Y-78690380D01*
X163707900Y-77790380D01*
X163636428Y-77410538D01*
X163411941Y-77061676D01*
X163069415Y-76827638D01*
X162813510Y-76775816D01*
X162619694Y-76582000D01*
X163879820Y-76582000D01*
X164119623Y-76534300D01*
X164297600Y-76534300D01*
X164677442Y-76462828D01*
X164950114Y-76287368D01*
X165191005Y-76451962D01*
X165597600Y-76534300D01*
X165847182Y-76534300D01*
X165997600Y-76564220D01*
X167321791Y-76564220D01*
X167549405Y-76719742D01*
X167956000Y-76802080D01*
X169356000Y-76802080D01*
X169735842Y-76730608D01*
X170084704Y-76506121D01*
X170318742Y-76163595D01*
X170401080Y-75757000D01*
X170401080Y-74357000D01*
X170329608Y-73977158D01*
X170105121Y-73628296D01*
X169762595Y-73394258D01*
X169356000Y-73311920D01*
X167956000Y-73311920D01*
X167576158Y-73383392D01*
X167372846Y-73514220D01*
X165997600Y-73514220D01*
X165847182Y-73544140D01*
X165597600Y-73544140D01*
X165217758Y-73615612D01*
X164945086Y-73791072D01*
X164704195Y-73626478D01*
X164297600Y-73544140D01*
X164048018Y-73544140D01*
X163897600Y-73514220D01*
X163808214Y-73532000D01*
X161861560Y-73532000D01*
X161380629Y-73332300D01*
X160694382Y-73331701D01*
X160060142Y-73593763D01*
X159574469Y-74078590D01*
X159311300Y-74712371D01*
X159310701Y-75398618D01*
X159572763Y-76032858D01*
X159611000Y-76071162D01*
X159611000Y-77013560D01*
X159719472Y-77558884D01*
X160028373Y-78021187D01*
X160845593Y-78838408D01*
X160889212Y-79070222D01*
X161113699Y-79419084D01*
X161456225Y-79653122D01*
X161539470Y-79669980D01*
X161512820Y-79696630D01*
X161512820Y-80015380D01*
X161712820Y-80015380D01*
X161712820Y-80465380D01*
X161512820Y-80465380D01*
X161512820Y-80784130D01*
X161544070Y-80815380D01*
X161737684Y-80815380D01*
X161783627Y-80796350D01*
X161787038Y-80792939D01*
X161839212Y-81070222D01*
X162063699Y-81419084D01*
X162406225Y-81653122D01*
X162812820Y-81735460D01*
X163612820Y-81735460D01*
X163985264Y-81665380D01*
X167863020Y-81665380D01*
X168408344Y-81556908D01*
X168452685Y-81527280D01*
X169021200Y-81527280D01*
X169401042Y-81455808D01*
X169546200Y-81362401D01*
X169546200Y-81825000D01*
X159965254Y-81825000D01*
X159100000Y-80959746D01*
X159100000Y-80496630D01*
X160787820Y-80496630D01*
X160787820Y-80715244D01*
X160806850Y-80761187D01*
X160842013Y-80796350D01*
X160887956Y-80815380D01*
X161081570Y-80815380D01*
X161112820Y-80784130D01*
X161112820Y-80465380D01*
X160819070Y-80465380D01*
X160787820Y-80496630D01*
X159100000Y-80496630D01*
X159100000Y-79765516D01*
X160787820Y-79765516D01*
X160787820Y-79984130D01*
X160819070Y-80015380D01*
X161112820Y-80015380D01*
X161112820Y-79696630D01*
X161081570Y-79665380D01*
X160887956Y-79665380D01*
X160842013Y-79684410D01*
X160806850Y-79719573D01*
X160787820Y-79765516D01*
X159100000Y-79765516D01*
X159100000Y-67778618D01*
X159310701Y-67778618D01*
X159572763Y-68412858D01*
X160057590Y-68898531D01*
X160691371Y-69161700D01*
X161377618Y-69162299D01*
X162011858Y-68900237D01*
X162497531Y-68415410D01*
X162760700Y-67781629D01*
X162760702Y-67778618D01*
X166930701Y-67778618D01*
X167192763Y-68412858D01*
X167677590Y-68898531D01*
X168311371Y-69161700D01*
X168997618Y-69162299D01*
X169631858Y-68900237D01*
X170117531Y-68415410D01*
X170380700Y-67781629D01*
X170381299Y-67095382D01*
X170119237Y-66461142D01*
X169634410Y-65975469D01*
X169000629Y-65712300D01*
X168314382Y-65711701D01*
X167680142Y-65973763D01*
X167194469Y-66458590D01*
X166931300Y-67092371D01*
X166930701Y-67778618D01*
X162760702Y-67778618D01*
X162761299Y-67095382D01*
X162499237Y-66461142D01*
X162014410Y-65975469D01*
X161380629Y-65712300D01*
X160694382Y-65711701D01*
X160060142Y-65973763D01*
X159574469Y-66458590D01*
X159311300Y-67092371D01*
X159310701Y-67778618D01*
X159100000Y-67778618D01*
X159100000Y-62688618D01*
X159300701Y-62688618D01*
X159562763Y-63322858D01*
X160047590Y-63808531D01*
X160681371Y-64071700D01*
X161367618Y-64072299D01*
X162001858Y-63810237D01*
X162487531Y-63325410D01*
X162750700Y-62691629D01*
X162751299Y-62005382D01*
X162489237Y-61371142D01*
X162004410Y-60885469D01*
X161370629Y-60622300D01*
X160684382Y-60621701D01*
X160050142Y-60883763D01*
X159564469Y-61368590D01*
X159301300Y-62002371D01*
X159300701Y-62688618D01*
X159100000Y-62688618D01*
X159100000Y-57515254D01*
X159300958Y-57314296D01*
X159300701Y-57608618D01*
X159300701Y-57608618D01*
G37*
X159300701Y-57608618D02*
X159562763Y-58242858D01*
X160047590Y-58728531D01*
X160681371Y-58991700D01*
X160735493Y-58991747D01*
X162101373Y-60357627D01*
X162563676Y-60666528D01*
X163109000Y-60775000D01*
X167991773Y-60775000D01*
X167680142Y-60903763D01*
X167194469Y-61388590D01*
X166931300Y-62022371D01*
X166930701Y-62708618D01*
X167192763Y-63342858D01*
X167677590Y-63828531D01*
X168311371Y-64091700D01*
X168997618Y-64092299D01*
X169631858Y-63830237D01*
X169670162Y-63792000D01*
X170666546Y-63792000D01*
X172402335Y-65527789D01*
X172232818Y-65775885D01*
X172150480Y-66182480D01*
X172150480Y-67482480D01*
X172221952Y-67862322D01*
X172446439Y-68211184D01*
X172788965Y-68445222D01*
X173195560Y-68527560D01*
X174695560Y-68527560D01*
X175075402Y-68456088D01*
X175296574Y-68313767D01*
X175488965Y-68445222D01*
X175895560Y-68527560D01*
X176325386Y-68527560D01*
X176394853Y-68597027D01*
X176857157Y-68905929D01*
X177402480Y-69014400D01*
X179014400Y-69014400D01*
X179014400Y-71627358D01*
X178902858Y-71790605D01*
X178820520Y-72197200D01*
X178820520Y-73497200D01*
X178891992Y-73877042D01*
X179116479Y-74225904D01*
X179459005Y-74459942D01*
X179865600Y-74542280D01*
X181365600Y-74542280D01*
X181745442Y-74470808D01*
X182094304Y-74246321D01*
X182328342Y-73903795D01*
X182410680Y-73497200D01*
X182410680Y-73203450D01*
X182440600Y-73203450D01*
X182440600Y-73522064D01*
X182459630Y-73568007D01*
X182494793Y-73603170D01*
X182540736Y-73622200D01*
X182909350Y-73622200D01*
X182940600Y-73590950D01*
X182940600Y-73172200D01*
X183690600Y-73172200D01*
X183690600Y-73590950D01*
X183721850Y-73622200D01*
X184090464Y-73622200D01*
X184136407Y-73603170D01*
X184171570Y-73568007D01*
X184190600Y-73522064D01*
X184190600Y-73203450D01*
X184159350Y-73172200D01*
X183690600Y-73172200D01*
X182940600Y-73172200D01*
X182471850Y-73172200D01*
X182440600Y-73203450D01*
X182410680Y-73203450D01*
X182410680Y-72197200D01*
X182406002Y-72172336D01*
X182440600Y-72172336D01*
X182440600Y-72490950D01*
X182471850Y-72522200D01*
X182940600Y-72522200D01*
X182940600Y-72103450D01*
X183690600Y-72103450D01*
X183690600Y-72522200D01*
X184159350Y-72522200D01*
X184190600Y-72490950D01*
X184190600Y-72172336D01*
X184171570Y-72126393D01*
X184136407Y-72091230D01*
X184090464Y-72072200D01*
X183721850Y-72072200D01*
X183690600Y-72103450D01*
X182940600Y-72103450D01*
X182909350Y-72072200D01*
X182540736Y-72072200D01*
X182494793Y-72091230D01*
X182459630Y-72126393D01*
X182440600Y-72172336D01*
X182406002Y-72172336D01*
X182339208Y-71817358D01*
X182114721Y-71468496D01*
X182064400Y-71434113D01*
X182064400Y-68920765D01*
X182252142Y-68645995D01*
X182334480Y-68239400D01*
X182334480Y-67945650D01*
X182364400Y-67945650D01*
X182364400Y-68264264D01*
X182383430Y-68310207D01*
X182418593Y-68345370D01*
X182464536Y-68364400D01*
X182833150Y-68364400D01*
X182864400Y-68333150D01*
X182864400Y-67914400D01*
X183614400Y-67914400D01*
X183614400Y-68333150D01*
X183645650Y-68364400D01*
X184014264Y-68364400D01*
X184060207Y-68345370D01*
X184095370Y-68310207D01*
X184114400Y-68264264D01*
X184114400Y-67945650D01*
X184083150Y-67914400D01*
X183614400Y-67914400D01*
X182864400Y-67914400D01*
X182395650Y-67914400D01*
X182364400Y-67945650D01*
X182334480Y-67945650D01*
X182334480Y-66939400D01*
X182329802Y-66914536D01*
X182364400Y-66914536D01*
X182364400Y-67233150D01*
X182395650Y-67264400D01*
X182864400Y-67264400D01*
X182864400Y-66845650D01*
X183614400Y-66845650D01*
X183614400Y-67264400D01*
X184083150Y-67264400D01*
X184114400Y-67233150D01*
X184114400Y-66914536D01*
X184095370Y-66868593D01*
X184060207Y-66833430D01*
X184014264Y-66814400D01*
X183645650Y-66814400D01*
X183614400Y-66845650D01*
X182864400Y-66845650D01*
X182833150Y-66814400D01*
X182464536Y-66814400D01*
X182418593Y-66833430D01*
X182383430Y-66868593D01*
X182364400Y-66914536D01*
X182329802Y-66914536D01*
X182263008Y-66559558D01*
X182038521Y-66210696D01*
X181695995Y-65976658D01*
X181289400Y-65894320D01*
X179789400Y-65894320D01*
X179409558Y-65965792D01*
X179100913Y-66164400D01*
X178437238Y-66164400D01*
X178369168Y-65802638D01*
X178144681Y-65453776D01*
X177802155Y-65219738D01*
X177395560Y-65137400D01*
X175895560Y-65137400D01*
X175515718Y-65208872D01*
X175370560Y-65302279D01*
X175370560Y-65055760D01*
X175262088Y-64510436D01*
X175021252Y-64150000D01*
X183934746Y-64150000D01*
X186125000Y-66340254D01*
X186125000Y-77800000D01*
X186233472Y-78345324D01*
X186542373Y-78807627D01*
X194484746Y-86750000D01*
X160240254Y-86750000D01*
X156325000Y-82834746D01*
X156325000Y-81927049D01*
X156358472Y-82095324D01*
X156667373Y-82557627D01*
X158367373Y-84257627D01*
X158829676Y-84566528D01*
X159375000Y-84675000D01*
X170225000Y-84675000D01*
X170770324Y-84566528D01*
X171232627Y-84257627D01*
X171978827Y-83511427D01*
X172287728Y-83049124D01*
X172396200Y-82503800D01*
X172396200Y-81265879D01*
X172449904Y-81231321D01*
X172683942Y-80888795D01*
X172766280Y-80482200D01*
X172766280Y-79182200D01*
X172694808Y-78802358D01*
X172470321Y-78453496D01*
X172127795Y-78219458D01*
X171721200Y-78137120D01*
X170221200Y-78137120D01*
X169841358Y-78208592D01*
X169620186Y-78350913D01*
X169427795Y-78219458D01*
X169021200Y-78137120D01*
X167521200Y-78137120D01*
X167141358Y-78208592D01*
X166792496Y-78433079D01*
X166558458Y-78775605D01*
X166550403Y-78815380D01*
X163958884Y-78815380D01*
X163693471Y-78761632D01*
X163707900Y-78690380D01*
X163707900Y-77790380D01*
X163636428Y-77410538D01*
X163411941Y-77061676D01*
X163069415Y-76827638D01*
X162813510Y-76775816D01*
X162619694Y-76582000D01*
X163879820Y-76582000D01*
X164119623Y-76534300D01*
X164297600Y-76534300D01*
X164677442Y-76462828D01*
X164950114Y-76287368D01*
X165191005Y-76451962D01*
X165597600Y-76534300D01*
X165847182Y-76534300D01*
X165997600Y-76564220D01*
X167321791Y-76564220D01*
X167549405Y-76719742D01*
X167956000Y-76802080D01*
X169356000Y-76802080D01*
X169735842Y-76730608D01*
X170084704Y-76506121D01*
X170318742Y-76163595D01*
X170401080Y-75757000D01*
X170401080Y-74357000D01*
X170329608Y-73977158D01*
X170105121Y-73628296D01*
X169762595Y-73394258D01*
X169356000Y-73311920D01*
X167956000Y-73311920D01*
X167576158Y-73383392D01*
X167372846Y-73514220D01*
X165997600Y-73514220D01*
X165847182Y-73544140D01*
X165597600Y-73544140D01*
X165217758Y-73615612D01*
X164945086Y-73791072D01*
X164704195Y-73626478D01*
X164297600Y-73544140D01*
X164048018Y-73544140D01*
X163897600Y-73514220D01*
X163808214Y-73532000D01*
X161861560Y-73532000D01*
X161380629Y-73332300D01*
X160694382Y-73331701D01*
X160060142Y-73593763D01*
X159574469Y-74078590D01*
X159311300Y-74712371D01*
X159310701Y-75398618D01*
X159572763Y-76032858D01*
X159611000Y-76071162D01*
X159611000Y-77013560D01*
X159719472Y-77558884D01*
X160028373Y-78021187D01*
X160845593Y-78838408D01*
X160889212Y-79070222D01*
X161113699Y-79419084D01*
X161456225Y-79653122D01*
X161539470Y-79669980D01*
X161512820Y-79696630D01*
X161512820Y-80015380D01*
X161712820Y-80015380D01*
X161712820Y-80465380D01*
X161512820Y-80465380D01*
X161512820Y-80784130D01*
X161544070Y-80815380D01*
X161737684Y-80815380D01*
X161783627Y-80796350D01*
X161787038Y-80792939D01*
X161839212Y-81070222D01*
X162063699Y-81419084D01*
X162406225Y-81653122D01*
X162812820Y-81735460D01*
X163612820Y-81735460D01*
X163985264Y-81665380D01*
X167863020Y-81665380D01*
X168408344Y-81556908D01*
X168452685Y-81527280D01*
X169021200Y-81527280D01*
X169401042Y-81455808D01*
X169546200Y-81362401D01*
X169546200Y-81825000D01*
X159965254Y-81825000D01*
X159100000Y-80959746D01*
X159100000Y-80496630D01*
X160787820Y-80496630D01*
X160787820Y-80715244D01*
X160806850Y-80761187D01*
X160842013Y-80796350D01*
X160887956Y-80815380D01*
X161081570Y-80815380D01*
X161112820Y-80784130D01*
X161112820Y-80465380D01*
X160819070Y-80465380D01*
X160787820Y-80496630D01*
X159100000Y-80496630D01*
X159100000Y-79765516D01*
X160787820Y-79765516D01*
X160787820Y-79984130D01*
X160819070Y-80015380D01*
X161112820Y-80015380D01*
X161112820Y-79696630D01*
X161081570Y-79665380D01*
X160887956Y-79665380D01*
X160842013Y-79684410D01*
X160806850Y-79719573D01*
X160787820Y-79765516D01*
X159100000Y-79765516D01*
X159100000Y-67778618D01*
X159310701Y-67778618D01*
X159572763Y-68412858D01*
X160057590Y-68898531D01*
X160691371Y-69161700D01*
X161377618Y-69162299D01*
X162011858Y-68900237D01*
X162497531Y-68415410D01*
X162760700Y-67781629D01*
X162760702Y-67778618D01*
X166930701Y-67778618D01*
X167192763Y-68412858D01*
X167677590Y-68898531D01*
X168311371Y-69161700D01*
X168997618Y-69162299D01*
X169631858Y-68900237D01*
X170117531Y-68415410D01*
X170380700Y-67781629D01*
X170381299Y-67095382D01*
X170119237Y-66461142D01*
X169634410Y-65975469D01*
X169000629Y-65712300D01*
X168314382Y-65711701D01*
X167680142Y-65973763D01*
X167194469Y-66458590D01*
X166931300Y-67092371D01*
X166930701Y-67778618D01*
X162760702Y-67778618D01*
X162761299Y-67095382D01*
X162499237Y-66461142D01*
X162014410Y-65975469D01*
X161380629Y-65712300D01*
X160694382Y-65711701D01*
X160060142Y-65973763D01*
X159574469Y-66458590D01*
X159311300Y-67092371D01*
X159310701Y-67778618D01*
X159100000Y-67778618D01*
X159100000Y-62688618D01*
X159300701Y-62688618D01*
X159562763Y-63322858D01*
X160047590Y-63808531D01*
X160681371Y-64071700D01*
X161367618Y-64072299D01*
X162001858Y-63810237D01*
X162487531Y-63325410D01*
X162750700Y-62691629D01*
X162751299Y-62005382D01*
X162489237Y-61371142D01*
X162004410Y-60885469D01*
X161370629Y-60622300D01*
X160684382Y-60621701D01*
X160050142Y-60883763D01*
X159564469Y-61368590D01*
X159301300Y-62002371D01*
X159300701Y-62688618D01*
X159100000Y-62688618D01*
X159100000Y-57515254D01*
X159300958Y-57314296D01*
X159300701Y-57608618D01*
G36*
X156667373Y-55917373D02*
X156450000Y-56242695D01*
X156450000Y-56031250D01*
X156418750Y-56000000D01*
X155950000Y-56000000D01*
X155950000Y-56418750D01*
X155981250Y-56450000D01*
X156344484Y-56450000D01*
X156250000Y-56925000D01*
X156250000Y-60025000D01*
X156131250Y-60025000D01*
X156100000Y-60056250D01*
X156100000Y-60475000D01*
X156220000Y-60475000D01*
X156220000Y-61125000D01*
X156100000Y-61125000D01*
X156100000Y-61543750D01*
X156131250Y-61575000D01*
X156250000Y-61575000D01*
X156250000Y-65622951D01*
X156216528Y-65454676D01*
X155907627Y-64992373D01*
X153882627Y-62967373D01*
X153420324Y-62658472D01*
X152875000Y-62550000D01*
X151715254Y-62550000D01*
X149229534Y-60064280D01*
X149249026Y-60064280D01*
X150992373Y-61807627D01*
X151454676Y-62116528D01*
X151490449Y-62123644D01*
X151525879Y-62178704D01*
X151868405Y-62412742D01*
X152275000Y-62495080D01*
X153775000Y-62495080D01*
X154154842Y-62423608D01*
X154503704Y-62199121D01*
X154737742Y-61856595D01*
X154820080Y-61450000D01*
X154820080Y-61156250D01*
X154850000Y-61156250D01*
X154850000Y-61474864D01*
X154869030Y-61520807D01*
X154904193Y-61555970D01*
X154950136Y-61575000D01*
X155318750Y-61575000D01*
X155350000Y-61543750D01*
X155350000Y-61125000D01*
X154881250Y-61125000D01*
X154850000Y-61156250D01*
X154820080Y-61156250D01*
X154820080Y-60150000D01*
X154815402Y-60125136D01*
X154850000Y-60125136D01*
X154850000Y-60443750D01*
X154881250Y-60475000D01*
X155350000Y-60475000D01*
X155350000Y-60056250D01*
X155318750Y-60025000D01*
X154950136Y-60025000D01*
X154904193Y-60044030D01*
X154869030Y-60079193D01*
X154850000Y-60125136D01*
X154815402Y-60125136D01*
X154748608Y-59770158D01*
X154524121Y-59421296D01*
X154300000Y-59268161D01*
X154300000Y-57108679D01*
X154353704Y-57074121D01*
X154587742Y-56731595D01*
X154670080Y-56325000D01*
X154670080Y-56031250D01*
X154700000Y-56031250D01*
X154700000Y-56349864D01*
X154719030Y-56395807D01*
X154754193Y-56430970D01*
X154800136Y-56450000D01*
X155168750Y-56450000D01*
X155200000Y-56418750D01*
X155200000Y-56000000D01*
X154731250Y-56000000D01*
X154700000Y-56031250D01*
X154670080Y-56031250D01*
X154670080Y-55025000D01*
X154665402Y-55000136D01*
X154700000Y-55000136D01*
X154700000Y-55318750D01*
X154731250Y-55350000D01*
X155200000Y-55350000D01*
X155200000Y-54931250D01*
X155950000Y-54931250D01*
X155950000Y-55350000D01*
X156418750Y-55350000D01*
X156450000Y-55318750D01*
X156450000Y-55000136D01*
X156430970Y-54954193D01*
X156395807Y-54919030D01*
X156349864Y-54900000D01*
X155981250Y-54900000D01*
X155950000Y-54931250D01*
X155200000Y-54931250D01*
X155168750Y-54900000D01*
X154800136Y-54900000D01*
X154754193Y-54919030D01*
X154719030Y-54954193D01*
X154700000Y-55000136D01*
X154665402Y-55000136D01*
X154598608Y-54645158D01*
X154374121Y-54296296D01*
X154031595Y-54062258D01*
X153625000Y-53979920D01*
X152125000Y-53979920D01*
X151745158Y-54051392D01*
X151396296Y-54275879D01*
X151162258Y-54618405D01*
X151079920Y-55025000D01*
X151079920Y-56325000D01*
X151151392Y-56704842D01*
X151253666Y-56863780D01*
X151096595Y-56756458D01*
X150690000Y-56674120D01*
X149190000Y-56674120D01*
X148810158Y-56745592D01*
X148588986Y-56887913D01*
X148396595Y-56756458D01*
X147990000Y-56674120D01*
X147560174Y-56674120D01*
X147331487Y-56445433D01*
X146869184Y-56136532D01*
X146323860Y-56028060D01*
X143714697Y-56028060D01*
X143678230Y-55991529D01*
X143044449Y-55728360D01*
X142487380Y-55727874D01*
X144365254Y-53850000D01*
X158734746Y-53850000D01*
X156667373Y-55917373D01*
X156667373Y-55917373D01*
G37*
X156667373Y-55917373D02*
X156450000Y-56242695D01*
X156450000Y-56031250D01*
X156418750Y-56000000D01*
X155950000Y-56000000D01*
X155950000Y-56418750D01*
X155981250Y-56450000D01*
X156344484Y-56450000D01*
X156250000Y-56925000D01*
X156250000Y-60025000D01*
X156131250Y-60025000D01*
X156100000Y-60056250D01*
X156100000Y-60475000D01*
X156220000Y-60475000D01*
X156220000Y-61125000D01*
X156100000Y-61125000D01*
X156100000Y-61543750D01*
X156131250Y-61575000D01*
X156250000Y-61575000D01*
X156250000Y-65622951D01*
X156216528Y-65454676D01*
X155907627Y-64992373D01*
X153882627Y-62967373D01*
X153420324Y-62658472D01*
X152875000Y-62550000D01*
X151715254Y-62550000D01*
X149229534Y-60064280D01*
X149249026Y-60064280D01*
X150992373Y-61807627D01*
X151454676Y-62116528D01*
X151490449Y-62123644D01*
X151525879Y-62178704D01*
X151868405Y-62412742D01*
X152275000Y-62495080D01*
X153775000Y-62495080D01*
X154154842Y-62423608D01*
X154503704Y-62199121D01*
X154737742Y-61856595D01*
X154820080Y-61450000D01*
X154820080Y-61156250D01*
X154850000Y-61156250D01*
X154850000Y-61474864D01*
X154869030Y-61520807D01*
X154904193Y-61555970D01*
X154950136Y-61575000D01*
X155318750Y-61575000D01*
X155350000Y-61543750D01*
X155350000Y-61125000D01*
X154881250Y-61125000D01*
X154850000Y-61156250D01*
X154820080Y-61156250D01*
X154820080Y-60150000D01*
X154815402Y-60125136D01*
X154850000Y-60125136D01*
X154850000Y-60443750D01*
X154881250Y-60475000D01*
X155350000Y-60475000D01*
X155350000Y-60056250D01*
X155318750Y-60025000D01*
X154950136Y-60025000D01*
X154904193Y-60044030D01*
X154869030Y-60079193D01*
X154850000Y-60125136D01*
X154815402Y-60125136D01*
X154748608Y-59770158D01*
X154524121Y-59421296D01*
X154300000Y-59268161D01*
X154300000Y-57108679D01*
X154353704Y-57074121D01*
X154587742Y-56731595D01*
X154670080Y-56325000D01*
X154670080Y-56031250D01*
X154700000Y-56031250D01*
X154700000Y-56349864D01*
X154719030Y-56395807D01*
X154754193Y-56430970D01*
X154800136Y-56450000D01*
X155168750Y-56450000D01*
X155200000Y-56418750D01*
X155200000Y-56000000D01*
X154731250Y-56000000D01*
X154700000Y-56031250D01*
X154670080Y-56031250D01*
X154670080Y-55025000D01*
X154665402Y-55000136D01*
X154700000Y-55000136D01*
X154700000Y-55318750D01*
X154731250Y-55350000D01*
X155200000Y-55350000D01*
X155200000Y-54931250D01*
X155950000Y-54931250D01*
X155950000Y-55350000D01*
X156418750Y-55350000D01*
X156450000Y-55318750D01*
X156450000Y-55000136D01*
X156430970Y-54954193D01*
X156395807Y-54919030D01*
X156349864Y-54900000D01*
X155981250Y-54900000D01*
X155950000Y-54931250D01*
X155200000Y-54931250D01*
X155168750Y-54900000D01*
X154800136Y-54900000D01*
X154754193Y-54919030D01*
X154719030Y-54954193D01*
X154700000Y-55000136D01*
X154665402Y-55000136D01*
X154598608Y-54645158D01*
X154374121Y-54296296D01*
X154031595Y-54062258D01*
X153625000Y-53979920D01*
X152125000Y-53979920D01*
X151745158Y-54051392D01*
X151396296Y-54275879D01*
X151162258Y-54618405D01*
X151079920Y-55025000D01*
X151079920Y-56325000D01*
X151151392Y-56704842D01*
X151253666Y-56863780D01*
X151096595Y-56756458D01*
X150690000Y-56674120D01*
X149190000Y-56674120D01*
X148810158Y-56745592D01*
X148588986Y-56887913D01*
X148396595Y-56756458D01*
X147990000Y-56674120D01*
X147560174Y-56674120D01*
X147331487Y-56445433D01*
X146869184Y-56136532D01*
X146323860Y-56028060D01*
X143714697Y-56028060D01*
X143678230Y-55991529D01*
X143044449Y-55728360D01*
X142487380Y-55727874D01*
X144365254Y-53850000D01*
X158734746Y-53850000D01*
X156667373Y-55917373D01*
G36*
X65190000Y-94478080D02*
X66840124Y-94478080D01*
X67827160Y-95465116D01*
X67827160Y-102407693D01*
X67517496Y-102098029D01*
X67445579Y-102169947D01*
X67230861Y-102041780D01*
X66590829Y-101950803D01*
X66133459Y-102041780D01*
X65918739Y-102169948D01*
X66682160Y-102933369D01*
X66696303Y-102919227D01*
X67368054Y-103590978D01*
X67353911Y-103605120D01*
X67368054Y-103619263D01*
X66696303Y-104291014D01*
X66682160Y-104276871D01*
X65918739Y-105040292D01*
X66133459Y-105168460D01*
X66773491Y-105259437D01*
X67230861Y-105168460D01*
X67445579Y-105040293D01*
X67517496Y-105112211D01*
X67827160Y-104802547D01*
X67827160Y-106209180D01*
X67577469Y-106810502D01*
X67576853Y-107516640D01*
X67846511Y-108169263D01*
X67857349Y-108180120D01*
X66023956Y-108180120D01*
X65025000Y-107181164D01*
X65025000Y-103696451D01*
X65027843Y-103696451D01*
X65118820Y-104153821D01*
X65246988Y-104368541D01*
X66010409Y-103605120D01*
X65246988Y-102841699D01*
X65118820Y-103056419D01*
X65027843Y-103696451D01*
X65025000Y-103696451D01*
X65025000Y-94444666D01*
X65190000Y-94478080D01*
X65190000Y-94478080D01*
G37*
X65190000Y-94478080D02*
X66840124Y-94478080D01*
X67827160Y-95465116D01*
X67827160Y-102407693D01*
X67517496Y-102098029D01*
X67445579Y-102169947D01*
X67230861Y-102041780D01*
X66590829Y-101950803D01*
X66133459Y-102041780D01*
X65918739Y-102169948D01*
X66682160Y-102933369D01*
X66696303Y-102919227D01*
X67368054Y-103590978D01*
X67353911Y-103605120D01*
X67368054Y-103619263D01*
X66696303Y-104291014D01*
X66682160Y-104276871D01*
X65918739Y-105040292D01*
X66133459Y-105168460D01*
X66773491Y-105259437D01*
X67230861Y-105168460D01*
X67445579Y-105040293D01*
X67517496Y-105112211D01*
X67827160Y-104802547D01*
X67827160Y-106209180D01*
X67577469Y-106810502D01*
X67576853Y-107516640D01*
X67846511Y-108169263D01*
X67857349Y-108180120D01*
X66023956Y-108180120D01*
X65025000Y-107181164D01*
X65025000Y-103696451D01*
X65027843Y-103696451D01*
X65118820Y-104153821D01*
X65246988Y-104368541D01*
X66010409Y-103605120D01*
X65246988Y-102841699D01*
X65118820Y-103056419D01*
X65027843Y-103696451D01*
X65025000Y-103696451D01*
X65025000Y-94444666D01*
X65190000Y-94478080D01*
M02*
