M48
;DRILL file {KiCad 4.0.7-e2-6376~58~ubuntu16.04.1} date Wed Jul  4 10:12:18 2018
;FORMAT={-:-/ absolute / inch / decimal}
FMAT,2
INCH,TZ
T1C0.016
T2C0.028
T3C0.031
T4C0.035
T5C0.039
T6C0.043
T7C0.052
T8C0.059
T9C0.091
T10C0.118
T11C0.125
%
G90
G05
M72
T1
X5.0248Y-4.1525
X6.2359Y-4.6233
X6.4713Y-4.6255
X7.5878Y-2.3078
X7.5922Y-2.4442
X7.7081Y-3.0161
X7.7748Y-4.1118
T2
X5.3177Y-2.2615
X5.3177Y-2.4615
X5.3181Y-2.6619
X5.3181Y-2.9619
X5.3702Y-4.0901
X5.3702Y-4.2901
X5.3706Y-4.4905
X5.3706Y-4.7905
X5.6181Y-2.2619
X5.6181Y-2.4623
X5.6181Y-2.6619
X5.6181Y-2.9619
X5.6706Y-4.0905
X5.6706Y-4.2909
X5.6706Y-4.4905
X5.6706Y-4.7905
X6.3396Y-2.2546
X6.3396Y-2.4546
X6.34Y-2.655
X6.34Y-2.955
X6.5941Y-4.0945
X6.5941Y-4.2945
X6.5945Y-4.4949
X6.5945Y-4.7949
X6.64Y-2.255
X6.64Y-2.4554
X6.64Y-2.655
X6.64Y-2.955
X6.8945Y-4.0949
X6.8945Y-4.2953
X6.8945Y-4.4949
X6.8945Y-4.7949
T3
X8.2593Y-3.3256
X8.2593Y-3.4059
X8.2593Y-3.8571
X8.2593Y-3.9374
X8.2593Y-4.3886
X8.2593Y-4.4689
X8.2593Y-4.9201
X8.2593Y-5.0004
X8.3597Y-3.3657
X8.3597Y-3.4461
X8.3597Y-3.8972
X8.3597Y-3.9776
X8.3597Y-4.4287
X8.3597Y-4.5091
X8.3597Y-4.9602
X8.3597Y-5.0406
T4
X7.9542Y-2.0252
X7.9542Y-2.1252
X7.9542Y-2.2252
X8.0542Y-2.0752
X8.0542Y-2.1752
X8.0542Y-2.2752
T5
X2.3534Y-2.9304
X2.3534Y-3.0304
X2.7304Y-3.9392
X2.7304Y-4.0392
X2.7304Y-4.1191
X2.7304Y-4.2191
X2.8534Y-2.9304
X2.8534Y-3.0304
T6
X5.5739Y-1.821
X5.5739Y-1.921
X5.5739Y-3.721
X5.5739Y-3.821
X5.6739Y-1.821
X5.6739Y-1.921
X5.6739Y-3.721
X5.6739Y-3.821
X5.7739Y-1.821
X5.7739Y-1.921
X5.7739Y-3.721
X5.7739Y-3.821
X5.8739Y-1.821
X5.8739Y-1.921
X5.8739Y-3.721
X5.8739Y-3.821
X5.9739Y-1.821
X5.9739Y-1.921
X5.9739Y-3.721
X5.9739Y-3.821
X6.0739Y-1.821
X6.0739Y-1.921
X6.0739Y-3.721
X6.0739Y-3.821
X6.1739Y-1.821
X6.1739Y-1.921
X6.1739Y-3.721
X6.1739Y-3.821
X6.2739Y-1.821
X6.2739Y-1.921
X6.2739Y-3.721
X6.2739Y-3.821
X6.3739Y-1.821
X6.3739Y-1.921
X6.3739Y-3.721
X6.3739Y-3.821
X6.4739Y-1.821
X6.4739Y-1.921
X6.4739Y-3.721
X6.4739Y-3.821
X6.5739Y-1.821
X6.5739Y-1.921
X6.5739Y-3.721
X6.5739Y-3.821
X6.6739Y-1.821
X6.6739Y-1.921
X6.6739Y-3.721
X6.6739Y-3.821
X6.7739Y-1.821
X6.7739Y-1.921
X6.7739Y-3.721
X6.7739Y-3.821
X6.8739Y-1.821
X6.8739Y-1.921
X6.8739Y-3.721
X6.8739Y-3.821
X6.9739Y-1.821
X6.9739Y-1.921
X6.9739Y-3.721
X6.9739Y-3.821
X7.0739Y-1.821
X7.0739Y-1.921
X7.0739Y-3.721
X7.0739Y-3.821
X7.1739Y-1.821
X7.1739Y-1.921
X7.1739Y-3.721
X7.1739Y-3.821
X7.2739Y-1.821
X7.2739Y-1.921
X7.2739Y-3.721
X7.2739Y-3.821
X7.3739Y-1.821
X7.3739Y-1.921
X7.3739Y-3.721
X7.3739Y-3.821
X7.4739Y-1.821
X7.4739Y-1.921
X7.4739Y-3.721
X7.4739Y-3.821
X7.5739Y-1.821
X7.5739Y-1.921
X7.5739Y-3.721
X7.5739Y-3.821
X7.6739Y-1.821
X7.6739Y-1.921
X7.6739Y-3.721
X7.6739Y-3.821
X7.7739Y-1.821
X7.7739Y-1.921
X7.7739Y-3.721
X7.7739Y-3.821
T7
X4.788Y-1.7456
X4.788Y-1.9425
T8
X8.187Y-2.6388
X8.187Y-2.8356
X8.2854Y-2.7372
X8.3839Y-2.6388
X8.3839Y-2.8356
T9
X2.6253Y-3.8191
X2.6253Y-4.3593
T10
X3.9859Y-3.1589
X3.9859Y-4.6982
T11
X5.3739Y-1.996
X5.3739Y-3.646
X7.9739Y-1.871
X7.9739Y-3.771
T0
M30
