G04 #@! TF.FileFunction,Drawing*
%FSLAX46Y46*%
G04 Gerber Fmt 4.6, Leading zero omitted, Abs format (unit mm)*
G04 Created by KiCad (PCBNEW 4.0.7-e2-6376~61~ubuntu18.04.1) date Mon Nov 26 09:53:18 2018*
%MOMM*%
%LPD*%
G01*
G04 APERTURE LIST*
%ADD10C,0.100000*%
%ADD11C,0.150000*%
%ADD12C,0.250000*%
G04 APERTURE END LIST*
D10*
D11*
X137840000Y-54550000D02*
X137840000Y-66550000D01*
X145840000Y-66550000D02*
X145840000Y-54550000D01*
X153840000Y-54550000D02*
X153840000Y-66550000D01*
X161840000Y-66550000D02*
X161840000Y-54550000D01*
X129840000Y-54550000D02*
X169840000Y-54550000D01*
X169840000Y-54550000D02*
X169840000Y-66550000D01*
X129840000Y-66550000D02*
X129840000Y-54550000D01*
X179840000Y-129050000D02*
X128840000Y-129050000D01*
X128840000Y-129050000D02*
X128840000Y-66550000D01*
X128840000Y-66550000D02*
X179840000Y-66550000D01*
X179840000Y-66550000D02*
X179840000Y-129050000D01*
X270974800Y-71675500D02*
X282474800Y-71675500D01*
X270974800Y-65675500D02*
X282474800Y-65675500D01*
X282474800Y-65675500D02*
X282474800Y-71675500D01*
X262974800Y-64675500D02*
X270974800Y-64675500D01*
X270974800Y-64675500D02*
X270974800Y-72675500D01*
X270974800Y-72675500D02*
X262974800Y-72675500D01*
X262974800Y-64675500D02*
X262974800Y-72675500D01*
X277151480Y-80050000D02*
X277151480Y-90250000D01*
X274651480Y-90250000D02*
X277151480Y-90250000D01*
X274651480Y-80050000D02*
X277151480Y-80050000D01*
D12*
X263151480Y-91550000D02*
X274651480Y-91550000D01*
X263151480Y-78750000D02*
X274651480Y-78750000D01*
X274651480Y-78750000D02*
X274651480Y-91550000D01*
D11*
X277151480Y-93550000D02*
X277151480Y-103750000D01*
X274651480Y-103750000D02*
X277151480Y-103750000D01*
X274651480Y-93550000D02*
X277151480Y-93550000D01*
D12*
X263151480Y-105050000D02*
X274651480Y-105050000D01*
X263151480Y-92250000D02*
X274651480Y-92250000D01*
X274651480Y-92250000D02*
X274651480Y-105050000D01*
D11*
X277151480Y-107050000D02*
X277151480Y-117250000D01*
X274651480Y-117250000D02*
X277151480Y-117250000D01*
X274651480Y-107050000D02*
X277151480Y-107050000D01*
D12*
X263151480Y-118550000D02*
X274651480Y-118550000D01*
X263151480Y-105750000D02*
X274651480Y-105750000D01*
X274651480Y-105750000D02*
X274651480Y-118550000D01*
D11*
X277151480Y-120550000D02*
X277151480Y-130750000D01*
X274651480Y-130750000D02*
X277151480Y-130750000D01*
X274651480Y-120550000D02*
X277151480Y-120550000D01*
D12*
X263151480Y-132050000D02*
X274651480Y-132050000D01*
X263151480Y-119250000D02*
X274651480Y-119250000D01*
X274651480Y-119250000D02*
X274651480Y-132050000D01*
M02*
