G04 #@! TF.FileFunction,Other,Fab,Top*
%FSLAX46Y46*%
G04 Gerber Fmt 4.6, Leading zero omitted, Abs format (unit mm)*
G04 Created by KiCad (PCBNEW 4.0.7-e2-6376~61~ubuntu18.04.1) date Mon Nov 26 09:53:19 2018*
%MOMM*%
%LPD*%
G01*
G04 APERTURE LIST*
%ADD10C,0.100000*%
%ADD11C,0.120000*%
%ADD12C,0.150000*%
%ADD13C,0.075000*%
G04 APERTURE END LIST*
D10*
D11*
X200434820Y-74683060D02*
X199524820Y-75693060D01*
X190394820Y-75693060D02*
X199524820Y-75693060D01*
X200434820Y-74683060D02*
X200434820Y-54803060D01*
X200434820Y-55313060D02*
X190394820Y-55313060D01*
X190394820Y-55313060D02*
X190394820Y-75693060D01*
X201768240Y-121129500D02*
X200858240Y-122139500D01*
X191728240Y-122139500D02*
X200858240Y-122139500D01*
X201768240Y-121129500D02*
X201768240Y-101249500D01*
X201768240Y-101759500D02*
X191728240Y-101759500D01*
X191728240Y-101759500D02*
X191728240Y-122139500D01*
X232855340Y-121241260D02*
X231945340Y-122251260D01*
X222815340Y-122251260D02*
X231945340Y-122251260D01*
X232855340Y-121241260D02*
X232855340Y-101361260D01*
X232855340Y-101871260D02*
X222815340Y-101871260D01*
X222815340Y-101871260D02*
X222815340Y-122251260D01*
X226391000Y-74507000D02*
X225481000Y-75517000D01*
X216351000Y-75517000D02*
X225481000Y-75517000D01*
X226391000Y-74507000D02*
X226391000Y-54627000D01*
X226391000Y-55137000D02*
X216351000Y-55137000D01*
X216351000Y-55137000D02*
X216351000Y-75517000D01*
D10*
X250490000Y-67580000D02*
X251730000Y-67580000D01*
X250490000Y-69580000D02*
X250490000Y-67580000D01*
X251730000Y-69580000D02*
X250490000Y-69580000D01*
X251730000Y-67580000D02*
X251730000Y-69580000D01*
X246310000Y-70330000D02*
X247550000Y-70330000D01*
X246310000Y-72330000D02*
X246310000Y-70330000D01*
X247550000Y-72330000D02*
X246310000Y-72330000D01*
X247550000Y-70330000D02*
X247550000Y-72330000D01*
X250425000Y-53920000D02*
X250425000Y-52680000D01*
X252425000Y-53920000D02*
X250425000Y-53920000D01*
X252425000Y-52680000D02*
X252425000Y-53920000D01*
X250425000Y-52680000D02*
X252425000Y-52680000D01*
X246025000Y-58095000D02*
X246025000Y-56855000D01*
X248025000Y-58095000D02*
X246025000Y-58095000D01*
X248025000Y-56855000D02*
X248025000Y-58095000D01*
X246025000Y-56855000D02*
X248025000Y-56855000D01*
X257210000Y-71100000D02*
X257210000Y-72340000D01*
X255210000Y-71100000D02*
X257210000Y-71100000D01*
X255210000Y-72340000D02*
X255210000Y-71100000D01*
X257210000Y-72340000D02*
X255210000Y-72340000D01*
X257340000Y-65180000D02*
X257340000Y-66420000D01*
X255340000Y-65180000D02*
X257340000Y-65180000D01*
X255340000Y-66420000D02*
X255340000Y-65180000D01*
X257340000Y-66420000D02*
X255340000Y-66420000D01*
D12*
X194546725Y-65675441D02*
X194546725Y-64675441D01*
X195118154Y-65675441D02*
X194689582Y-65104012D01*
X195118154Y-64675441D02*
X194546725Y-65246870D01*
X195499106Y-64770679D02*
X195546725Y-64723060D01*
X195641963Y-64675441D01*
X195880059Y-64675441D01*
X195975297Y-64723060D01*
X196022916Y-64770679D01*
X196070535Y-64865917D01*
X196070535Y-64961155D01*
X196022916Y-65104012D01*
X195451487Y-65675441D01*
X196070535Y-65675441D01*
X195880145Y-112121881D02*
X195880145Y-111121881D01*
X196451574Y-112121881D02*
X196023002Y-111550452D01*
X196451574Y-111121881D02*
X195880145Y-111693310D01*
X197308717Y-111455214D02*
X197308717Y-112121881D01*
X197070621Y-111074262D02*
X196832526Y-111788548D01*
X197451574Y-111788548D01*
X226967245Y-112233641D02*
X226967245Y-111233641D01*
X227538674Y-112233641D02*
X227110102Y-111662212D01*
X227538674Y-111233641D02*
X226967245Y-111805070D01*
X227872007Y-111233641D02*
X228491055Y-111233641D01*
X228157721Y-111614593D01*
X228300579Y-111614593D01*
X228395817Y-111662212D01*
X228443436Y-111709831D01*
X228491055Y-111805070D01*
X228491055Y-112043165D01*
X228443436Y-112138403D01*
X228395817Y-112186022D01*
X228300579Y-112233641D01*
X228014864Y-112233641D01*
X227919626Y-112186022D01*
X227872007Y-112138403D01*
X220502905Y-65499381D02*
X220502905Y-64499381D01*
X221074334Y-65499381D02*
X220645762Y-64927952D01*
X221074334Y-64499381D02*
X220502905Y-65070810D01*
X222026715Y-65499381D02*
X221455286Y-65499381D01*
X221741000Y-65499381D02*
X221741000Y-64499381D01*
X221645762Y-64642238D01*
X221550524Y-64737476D01*
X221455286Y-64785095D01*
D13*
X251336190Y-68901428D02*
X251098095Y-69068095D01*
X251336190Y-69187142D02*
X250836190Y-69187142D01*
X250836190Y-68996666D01*
X250860000Y-68949047D01*
X250883810Y-68925238D01*
X250931429Y-68901428D01*
X251002857Y-68901428D01*
X251050476Y-68925238D01*
X251074286Y-68949047D01*
X251098095Y-68996666D01*
X251098095Y-69187142D01*
X250883810Y-68710952D02*
X250860000Y-68687142D01*
X250836190Y-68639523D01*
X250836190Y-68520476D01*
X250860000Y-68472857D01*
X250883810Y-68449047D01*
X250931429Y-68425238D01*
X250979048Y-68425238D01*
X251050476Y-68449047D01*
X251336190Y-68734761D01*
X251336190Y-68425238D01*
X251336190Y-67949048D02*
X251336190Y-68234762D01*
X251336190Y-68091905D02*
X250836190Y-68091905D01*
X250907619Y-68139524D01*
X250955238Y-68187143D01*
X250979048Y-68234762D01*
X247156190Y-71651428D02*
X246918095Y-71818095D01*
X247156190Y-71937142D02*
X246656190Y-71937142D01*
X246656190Y-71746666D01*
X246680000Y-71699047D01*
X246703810Y-71675238D01*
X246751429Y-71651428D01*
X246822857Y-71651428D01*
X246870476Y-71675238D01*
X246894286Y-71699047D01*
X246918095Y-71746666D01*
X246918095Y-71937142D01*
X246703810Y-71460952D02*
X246680000Y-71437142D01*
X246656190Y-71389523D01*
X246656190Y-71270476D01*
X246680000Y-71222857D01*
X246703810Y-71199047D01*
X246751429Y-71175238D01*
X246799048Y-71175238D01*
X246870476Y-71199047D01*
X247156190Y-71484761D01*
X247156190Y-71175238D01*
X246703810Y-70984762D02*
X246680000Y-70960952D01*
X246656190Y-70913333D01*
X246656190Y-70794286D01*
X246680000Y-70746667D01*
X246703810Y-70722857D01*
X246751429Y-70699048D01*
X246799048Y-70699048D01*
X246870476Y-70722857D01*
X247156190Y-71008571D01*
X247156190Y-70699048D01*
X251103572Y-53526190D02*
X250936905Y-53288095D01*
X250817858Y-53526190D02*
X250817858Y-53026190D01*
X251008334Y-53026190D01*
X251055953Y-53050000D01*
X251079762Y-53073810D01*
X251103572Y-53121429D01*
X251103572Y-53192857D01*
X251079762Y-53240476D01*
X251055953Y-53264286D01*
X251008334Y-53288095D01*
X250817858Y-53288095D01*
X251294048Y-53073810D02*
X251317858Y-53050000D01*
X251365477Y-53026190D01*
X251484524Y-53026190D01*
X251532143Y-53050000D01*
X251555953Y-53073810D01*
X251579762Y-53121429D01*
X251579762Y-53169048D01*
X251555953Y-53240476D01*
X251270239Y-53526190D01*
X251579762Y-53526190D01*
X252008333Y-53192857D02*
X252008333Y-53526190D01*
X251889286Y-53002381D02*
X251770238Y-53359524D01*
X252079762Y-53359524D01*
X246703572Y-57701190D02*
X246536905Y-57463095D01*
X246417858Y-57701190D02*
X246417858Y-57201190D01*
X246608334Y-57201190D01*
X246655953Y-57225000D01*
X246679762Y-57248810D01*
X246703572Y-57296429D01*
X246703572Y-57367857D01*
X246679762Y-57415476D01*
X246655953Y-57439286D01*
X246608334Y-57463095D01*
X246417858Y-57463095D01*
X246894048Y-57248810D02*
X246917858Y-57225000D01*
X246965477Y-57201190D01*
X247084524Y-57201190D01*
X247132143Y-57225000D01*
X247155953Y-57248810D01*
X247179762Y-57296429D01*
X247179762Y-57344048D01*
X247155953Y-57415476D01*
X246870239Y-57701190D01*
X247179762Y-57701190D01*
X247346429Y-57201190D02*
X247655952Y-57201190D01*
X247489286Y-57391667D01*
X247560714Y-57391667D01*
X247608333Y-57415476D01*
X247632143Y-57439286D01*
X247655952Y-57486905D01*
X247655952Y-57605952D01*
X247632143Y-57653571D01*
X247608333Y-57677381D01*
X247560714Y-57701190D01*
X247417857Y-57701190D01*
X247370238Y-57677381D01*
X247346429Y-57653571D01*
X255888572Y-71946190D02*
X255721905Y-71708095D01*
X255602858Y-71946190D02*
X255602858Y-71446190D01*
X255793334Y-71446190D01*
X255840953Y-71470000D01*
X255864762Y-71493810D01*
X255888572Y-71541429D01*
X255888572Y-71612857D01*
X255864762Y-71660476D01*
X255840953Y-71684286D01*
X255793334Y-71708095D01*
X255602858Y-71708095D01*
X256055239Y-71446190D02*
X256364762Y-71446190D01*
X256198096Y-71636667D01*
X256269524Y-71636667D01*
X256317143Y-71660476D01*
X256340953Y-71684286D01*
X256364762Y-71731905D01*
X256364762Y-71850952D01*
X256340953Y-71898571D01*
X256317143Y-71922381D01*
X256269524Y-71946190D01*
X256126667Y-71946190D01*
X256079048Y-71922381D01*
X256055239Y-71898571D01*
X256793333Y-71612857D02*
X256793333Y-71946190D01*
X256674286Y-71422381D02*
X256555238Y-71779524D01*
X256864762Y-71779524D01*
X256018572Y-66026190D02*
X255851905Y-65788095D01*
X255732858Y-66026190D02*
X255732858Y-65526190D01*
X255923334Y-65526190D01*
X255970953Y-65550000D01*
X255994762Y-65573810D01*
X256018572Y-65621429D01*
X256018572Y-65692857D01*
X255994762Y-65740476D01*
X255970953Y-65764286D01*
X255923334Y-65788095D01*
X255732858Y-65788095D01*
X256185239Y-65526190D02*
X256494762Y-65526190D01*
X256328096Y-65716667D01*
X256399524Y-65716667D01*
X256447143Y-65740476D01*
X256470953Y-65764286D01*
X256494762Y-65811905D01*
X256494762Y-65930952D01*
X256470953Y-65978571D01*
X256447143Y-66002381D01*
X256399524Y-66026190D01*
X256256667Y-66026190D01*
X256209048Y-66002381D01*
X256185239Y-65978571D01*
X256947143Y-65526190D02*
X256709048Y-65526190D01*
X256685238Y-65764286D01*
X256709048Y-65740476D01*
X256756667Y-65716667D01*
X256875714Y-65716667D01*
X256923333Y-65740476D01*
X256947143Y-65764286D01*
X256970952Y-65811905D01*
X256970952Y-65930952D01*
X256947143Y-65978571D01*
X256923333Y-66002381D01*
X256875714Y-66026190D01*
X256756667Y-66026190D01*
X256709048Y-66002381D01*
X256685238Y-65978571D01*
M02*
