M48
;DRILL file {KiCad 4.0.7-e2-6376~58~ubuntu16.04.1} date Tue Jun 19 11:31:39 2018
;FORMAT={-:-/ absolute / inch / decimal}
FMAT,2
INCH,TZ
T1C0.020
T2C0.022
T3C0.028
T4C0.031
T5C0.035
T6C0.039
T7C0.043
T8C0.052
T9C0.059
T10C0.091
T11C0.118
T12C0.125
%
G90
G05
M72
T3
X4.9346Y-4.9424
X4.9346Y-5.1424
X4.935Y-4.442
X4.935Y-4.742
X5.235Y-4.442
X5.235Y-4.742
X5.235Y-4.9416
X5.235Y-5.142
X5.722Y-4.9424
X5.722Y-5.1424
X5.7224Y-4.442
X5.7224Y-4.742
X6.0224Y-4.442
X6.0224Y-4.742
X6.0224Y-4.9416
X6.0224Y-5.142
X6.5094Y-4.9424
X6.5094Y-5.1424
X6.5098Y-4.442
X6.5098Y-4.742
X6.8098Y-4.442
X6.8098Y-4.742
X6.8098Y-4.9416
X6.8098Y-5.142
X7.2968Y-4.9424
X7.2968Y-5.1424
X7.2972Y-4.442
X7.2972Y-4.742
X7.5972Y-4.442
X7.5972Y-4.742
X7.5972Y-4.9416
X7.5972Y-5.142
T4
X8.2593Y-3.3657
X8.2593Y-3.4461
X8.2593Y-3.8972
X8.2593Y-3.9776
X8.2593Y-4.4287
X8.2593Y-4.5091
X8.2593Y-4.9602
X8.2593Y-5.0406
X8.3597Y-3.3256
X8.3597Y-3.4059
X8.3597Y-3.8571
X8.3597Y-3.9374
X8.3597Y-4.3886
X8.3597Y-4.4689
X8.3597Y-4.9201
X8.3597Y-5.0004
T5
X7.9542Y-2.0748
X7.9542Y-2.1748
X7.9542Y-2.2748
X8.0542Y-2.0248
X8.0542Y-2.1248
X8.0542Y-2.2248
T6
X2.6836Y-1.984
X2.6836Y-2.084
X2.6836Y-2.1639
X2.6836Y-2.2639
T7
X5.5739Y-1.821
X5.5739Y-1.921
X5.5739Y-3.721
X5.5739Y-3.821
X5.6739Y-1.821
X5.6739Y-1.921
X5.6739Y-3.721
X5.6739Y-3.821
X5.7739Y-1.821
X5.7739Y-1.921
X5.7739Y-3.721
X5.7739Y-3.821
X5.8739Y-1.821
X5.8739Y-1.921
X5.8739Y-3.721
X5.8739Y-3.821
X5.9739Y-1.821
X5.9739Y-1.921
X5.9739Y-3.721
X5.9739Y-3.821
X6.0739Y-1.821
X6.0739Y-1.921
X6.0739Y-3.721
X6.0739Y-3.821
X6.1739Y-1.821
X6.1739Y-1.921
X6.1739Y-3.721
X6.1739Y-3.821
X6.2739Y-1.821
X6.2739Y-1.921
X6.2739Y-3.721
X6.2739Y-3.821
X6.3739Y-1.821
X6.3739Y-1.921
X6.3739Y-3.721
X6.3739Y-3.821
X6.4739Y-1.821
X6.4739Y-1.921
X6.4739Y-3.721
X6.4739Y-3.821
X6.5739Y-1.821
X6.5739Y-1.921
X6.5739Y-3.721
X6.5739Y-3.821
X6.6739Y-1.821
X6.6739Y-1.921
X6.6739Y-3.721
X6.6739Y-3.821
X6.7739Y-1.821
X6.7739Y-1.921
X6.7739Y-3.721
X6.7739Y-3.821
X6.8739Y-1.821
X6.8739Y-1.921
X6.8739Y-3.721
X6.8739Y-3.821
X6.9739Y-1.821
X6.9739Y-1.921
X6.9739Y-3.721
X6.9739Y-3.821
X7.0739Y-1.821
X7.0739Y-1.921
X7.0739Y-3.721
X7.0739Y-3.821
X7.1739Y-1.821
X7.1739Y-1.921
X7.1739Y-3.721
X7.1739Y-3.821
X7.2739Y-1.821
X7.2739Y-1.921
X7.2739Y-3.721
X7.2739Y-3.821
X7.3739Y-1.821
X7.3739Y-1.921
X7.3739Y-3.721
X7.3739Y-3.821
X7.4739Y-1.821
X7.4739Y-1.921
X7.4739Y-3.721
X7.4739Y-3.821
X7.5739Y-1.821
X7.5739Y-1.921
X7.5739Y-3.721
X7.5739Y-3.821
X7.6739Y-1.821
X7.6739Y-1.921
X7.6739Y-3.721
X7.6739Y-3.821
X7.7739Y-1.821
X7.7739Y-1.921
X7.7739Y-3.721
X7.7739Y-3.821
T8
X4.627Y-2.023
X4.8239Y-2.023
T9
X8.1872Y-2.6445
X8.1872Y-2.8413
X8.2856Y-2.7429
X8.3841Y-2.6445
X8.3841Y-2.8413
T10
X2.5785Y-1.8438
X2.5785Y-2.384
T11
X3.5215Y-2.9719
X3.5215Y-4.5112
T12
X5.3739Y-1.996
X5.3739Y-3.646
X7.9739Y-1.871
X7.9739Y-3.771
T1
X2.8052Y-2.8309G85X2.8052Y-2.8054
G05
X3.0808Y-2.8309G85X3.0808Y-2.8054
G05
T2
X2.8387Y-2.7119G85X2.8505Y-2.7119
G05
X3.0355Y-2.7119G85X3.0473Y-2.7119
G05
T6
X8.3243Y-3.174G85X8.3794Y-3.174
G05
X8.3243Y-3.5976G85X8.3794Y-3.5976
G05
X8.3243Y-3.7055G85X8.3794Y-3.7055
G05
X8.3243Y-4.1291G85X8.3794Y-4.1291
G05
X8.3243Y-4.237G85X8.3794Y-4.237
G05
X8.3243Y-4.6606G85X8.3794Y-4.6606
G05
X8.3243Y-4.7685G85X8.3794Y-4.7685
G05
X8.3243Y-5.1921G85X8.3794Y-5.1921
G05
T0
M30
