G04 #@! TF.FileFunction,Soldermask,Bot*
%FSLAX46Y46*%
G04 Gerber Fmt 4.6, Leading zero omitted, Abs format (unit mm)*
G04 Created by KiCad (PCBNEW 4.0.4+e1-6308~48~ubuntu15.10.1-stable) date Thu Jul 12 11:54:00 2018*
%MOMM*%
%LPD*%
G01*
G04 APERTURE LIST*
%ADD10C,0.100000*%
%ADD11R,2.100000X2.100000*%
%ADD12O,2.100000X2.100000*%
%ADD13R,2.000000X2.000000*%
%ADD14O,2.000000X2.400000*%
%ADD15R,1.800000X1.800000*%
%ADD16C,1.800000*%
%ADD17C,4.972000*%
%ADD18R,4.360000X2.380000*%
%ADD19O,4.360000X2.380000*%
%ADD20C,1.900000*%
%ADD21C,3.400000*%
%ADD22R,1.300000X1.200000*%
%ADD23R,1.200000X1.300000*%
%ADD24C,7.400000*%
%ADD25C,3.650000*%
%ADD26C,1.990000*%
%ADD27C,2.600000*%
%ADD28R,1.900000X1.700000*%
%ADD29R,1.700000X1.900000*%
%ADD30C,1.560000*%
%ADD31O,3.600000X2.200000*%
G04 APERTURE END LIST*
D10*
D11*
X66040000Y-92583000D03*
D12*
X63500000Y-92583000D03*
X66040000Y-79883000D03*
X63500000Y-79883000D03*
D13*
X197457080Y-46253400D03*
D14*
X197457080Y-48893400D03*
X194917080Y-46153400D03*
X194917080Y-48893400D03*
X192377080Y-46153400D03*
X192377080Y-48893400D03*
X189837080Y-46153400D03*
X189837080Y-48893400D03*
X187297080Y-46153400D03*
X187297080Y-48893400D03*
X184757080Y-46153400D03*
X184757080Y-48893400D03*
X182217080Y-46153400D03*
X182217080Y-48893400D03*
X179677080Y-46153400D03*
X179677080Y-48893400D03*
X177137080Y-46153400D03*
X177137080Y-48893400D03*
X174597080Y-46153400D03*
X174597080Y-48893400D03*
X172057080Y-46153400D03*
X172057080Y-48893400D03*
X169517080Y-46153400D03*
X169517080Y-48893400D03*
X166977080Y-46153400D03*
X166977080Y-48893400D03*
X164437080Y-46153400D03*
X164437080Y-48893400D03*
X161897080Y-46153400D03*
X161897080Y-48893400D03*
X159357080Y-46153400D03*
X159357080Y-48893400D03*
X156817080Y-46153400D03*
X156817080Y-48893400D03*
X154277080Y-46153400D03*
X154277080Y-48893400D03*
X151737080Y-46153400D03*
X151737080Y-48893400D03*
X149197080Y-46153400D03*
X149197080Y-48893400D03*
X146657080Y-46153400D03*
X146657080Y-48893400D03*
X144117080Y-46153400D03*
X144117080Y-48893400D03*
X141577080Y-46153400D03*
X141577080Y-48893400D03*
D13*
X197457080Y-94513400D03*
D14*
X197457080Y-97153400D03*
X194917080Y-94413400D03*
X194917080Y-97153400D03*
X192377080Y-94413400D03*
X192377080Y-97153400D03*
X189837080Y-94413400D03*
X189837080Y-97153400D03*
X187297080Y-94413400D03*
X187297080Y-97153400D03*
X184757080Y-94413400D03*
X184757080Y-97153400D03*
X182217080Y-94413400D03*
X182217080Y-97153400D03*
X179677080Y-94413400D03*
X179677080Y-97153400D03*
X177137080Y-94413400D03*
X177137080Y-97153400D03*
X174597080Y-94413400D03*
X174597080Y-97153400D03*
X172057080Y-94413400D03*
X172057080Y-97153400D03*
X169517080Y-94413400D03*
X169517080Y-97153400D03*
X166977080Y-94413400D03*
X166977080Y-97153400D03*
X164437080Y-94413400D03*
X164437080Y-97153400D03*
X161897080Y-94413400D03*
X161897080Y-97153400D03*
X159357080Y-94413400D03*
X159357080Y-97153400D03*
X156817080Y-94413400D03*
X156817080Y-97153400D03*
X154277080Y-94413400D03*
X154277080Y-97153400D03*
X151737080Y-94413400D03*
X151737080Y-97153400D03*
X149197080Y-94413400D03*
X149197080Y-97153400D03*
X146657080Y-94413400D03*
X146657080Y-97153400D03*
X144117080Y-94413400D03*
X144117080Y-97153400D03*
X141577080Y-94413400D03*
X141577080Y-97153400D03*
D15*
X142699820Y-75233060D03*
D16*
X135079820Y-75233060D03*
X142699820Y-62543060D03*
X142699820Y-57453060D03*
X142699820Y-67613060D03*
X135069820Y-62523060D03*
X135069820Y-57443060D03*
X135079820Y-67613060D03*
D17*
X136497080Y-92608400D03*
X202537080Y-95783400D03*
X202537080Y-47523400D03*
X136497080Y-50698400D03*
D18*
X121615200Y-49339500D03*
D19*
X121615200Y-44339500D03*
D20*
X69352160Y-114275120D03*
X69352160Y-111735120D03*
X69352160Y-109705120D03*
X69352160Y-107165120D03*
D21*
X66682160Y-117325120D03*
X66682160Y-103605120D03*
D15*
X144033240Y-121679500D03*
D16*
X136413240Y-121679500D03*
X144033240Y-108989500D03*
X144033240Y-103899500D03*
X144033240Y-114059500D03*
X136403240Y-108969500D03*
X136403240Y-103889500D03*
X136413240Y-114059500D03*
D15*
X175120340Y-121791260D03*
D16*
X167500340Y-121791260D03*
X175120340Y-109101260D03*
X175120340Y-104011260D03*
X175120340Y-114171260D03*
X167490340Y-109081260D03*
X167490340Y-104001260D03*
X167500340Y-114171260D03*
D15*
X168656000Y-75057000D03*
D16*
X161036000Y-75057000D03*
X168656000Y-62367000D03*
X168656000Y-57277000D03*
X168656000Y-67437000D03*
X161026000Y-62347000D03*
X161026000Y-57267000D03*
X161036000Y-67437000D03*
D22*
X139828780Y-116438640D03*
X139828780Y-118338640D03*
X137828780Y-117388640D03*
D23*
X168525000Y-117150000D03*
X170425000Y-117150000D03*
X169475000Y-119150000D03*
X136982240Y-80623920D03*
X135082240Y-80623920D03*
X136032240Y-78623920D03*
X163212820Y-80240380D03*
X161312820Y-80240380D03*
X162262820Y-78240380D03*
D24*
X101242000Y-119335000D03*
X101242000Y-80235000D03*
D25*
X210926480Y-49529240D03*
D26*
X202036480Y-51439240D03*
X204576480Y-52709240D03*
X202036480Y-53979240D03*
X204576480Y-55249240D03*
X202036480Y-56519240D03*
X204576480Y-57789240D03*
D25*
X210926480Y-59689240D03*
D27*
X212949800Y-67025500D03*
X207949800Y-67025500D03*
X207949800Y-72025500D03*
X212949800Y-72025500D03*
X210449800Y-69525500D03*
D23*
X141118300Y-121719340D03*
X139018300Y-121719340D03*
X139947360Y-75303380D03*
X137847360Y-75303380D03*
X172322200Y-121859040D03*
X170222200Y-121859040D03*
X165997600Y-75039220D03*
X163897600Y-75039220D03*
D28*
X151625000Y-116150000D03*
X148925000Y-116150000D03*
X151443680Y-66385440D03*
X148743680Y-66385440D03*
X182276740Y-114388900D03*
X179576740Y-114388900D03*
X176645560Y-66832480D03*
X173945560Y-66832480D03*
X151654500Y-106474260D03*
X148954500Y-106474260D03*
X149940000Y-58369200D03*
X147240000Y-58369200D03*
X182236100Y-107119420D03*
X179536100Y-107119420D03*
X175751480Y-58059320D03*
X173051480Y-58059320D03*
X151611320Y-71526400D03*
X148911320Y-71526400D03*
X187018940Y-114294920D03*
X189718940Y-114294920D03*
X154275800Y-118772940D03*
X156975800Y-118772940D03*
X180539400Y-67589400D03*
X183239400Y-67589400D03*
X151667200Y-76555600D03*
X148967200Y-76555600D03*
X187128160Y-119936260D03*
X189828160Y-119936260D03*
X154191980Y-124360940D03*
X156891980Y-124360940D03*
X180615600Y-72847200D03*
X183315600Y-72847200D03*
X153025000Y-60800000D03*
X155725000Y-60800000D03*
X187166260Y-104353360D03*
X189866260Y-104353360D03*
X182875000Y-57950000D03*
X185575000Y-57950000D03*
X152875000Y-55675000D03*
X155575000Y-55675000D03*
X187090060Y-109153960D03*
X189790060Y-109153960D03*
X156150000Y-109100000D03*
X158850000Y-109100000D03*
X180600000Y-55325000D03*
X177900000Y-55325000D03*
D29*
X132379720Y-115774480D03*
X132379720Y-118474480D03*
X164203380Y-108649780D03*
X164203380Y-111349780D03*
D28*
X144486620Y-79880460D03*
X141786620Y-79880460D03*
X170971200Y-79832200D03*
X168271200Y-79832200D03*
X156079200Y-104175560D03*
X158779200Y-104175560D03*
D30*
X209786480Y-86510000D03*
X209786480Y-84470000D03*
X212336480Y-85490000D03*
X212336480Y-87530000D03*
D31*
X212136480Y-91380000D03*
X212136480Y-80620000D03*
D30*
X209786480Y-100010000D03*
X209786480Y-97970000D03*
X212336480Y-98990000D03*
X212336480Y-101030000D03*
D31*
X212136480Y-104880000D03*
X212136480Y-94120000D03*
D30*
X209786480Y-113510000D03*
X209786480Y-111470000D03*
X212336480Y-112490000D03*
X212336480Y-114530000D03*
D31*
X212136480Y-118380000D03*
X212136480Y-107620000D03*
D30*
X209786480Y-127010000D03*
X209786480Y-124970000D03*
X212336480Y-125990000D03*
X212336480Y-128030000D03*
D31*
X212136480Y-131880000D03*
X212136480Y-121120000D03*
M02*
