G04 #@! TF.FileFunction,Paste,Bot*
%FSLAX46Y46*%
G04 Gerber Fmt 4.6, Leading zero omitted, Abs format (unit mm)*
G04 Created by KiCad (PCBNEW 4.0.4+e1-6308~48~ubuntu15.10.1-stable) date Thu Jul 12 11:54:00 2018*
%MOMM*%
%LPD*%
G01*
G04 APERTURE LIST*
%ADD10C,0.100000*%
%ADD11R,0.900000X0.800000*%
%ADD12R,0.800000X0.900000*%
%ADD13R,1.500000X1.300000*%
%ADD14R,1.300000X1.500000*%
G04 APERTURE END LIST*
D10*
D11*
X139828780Y-116438640D03*
X139828780Y-118338640D03*
X137828780Y-117388640D03*
D12*
X168525000Y-117150000D03*
X170425000Y-117150000D03*
X169475000Y-119150000D03*
X136982240Y-80623920D03*
X135082240Y-80623920D03*
X136032240Y-78623920D03*
X163212820Y-80240380D03*
X161312820Y-80240380D03*
X162262820Y-78240380D03*
X141118300Y-121719340D03*
X139018300Y-121719340D03*
X139947360Y-75303380D03*
X137847360Y-75303380D03*
X172322200Y-121859040D03*
X170222200Y-121859040D03*
X165997600Y-75039220D03*
X163897600Y-75039220D03*
D13*
X151625000Y-116150000D03*
X148925000Y-116150000D03*
X151443680Y-66385440D03*
X148743680Y-66385440D03*
X182276740Y-114388900D03*
X179576740Y-114388900D03*
X176645560Y-66832480D03*
X173945560Y-66832480D03*
X151654500Y-106474260D03*
X148954500Y-106474260D03*
X149940000Y-58369200D03*
X147240000Y-58369200D03*
X182236100Y-107119420D03*
X179536100Y-107119420D03*
X175751480Y-58059320D03*
X173051480Y-58059320D03*
X151611320Y-71526400D03*
X148911320Y-71526400D03*
X187018940Y-114294920D03*
X189718940Y-114294920D03*
X154275800Y-118772940D03*
X156975800Y-118772940D03*
X180539400Y-67589400D03*
X183239400Y-67589400D03*
X151667200Y-76555600D03*
X148967200Y-76555600D03*
X187128160Y-119936260D03*
X189828160Y-119936260D03*
X154191980Y-124360940D03*
X156891980Y-124360940D03*
X180615600Y-72847200D03*
X183315600Y-72847200D03*
X153025000Y-60800000D03*
X155725000Y-60800000D03*
X187166260Y-104353360D03*
X189866260Y-104353360D03*
X182875000Y-57950000D03*
X185575000Y-57950000D03*
X152875000Y-55675000D03*
X155575000Y-55675000D03*
X187090060Y-109153960D03*
X189790060Y-109153960D03*
X156150000Y-109100000D03*
X158850000Y-109100000D03*
X180600000Y-55325000D03*
X177900000Y-55325000D03*
D14*
X132379720Y-115774480D03*
X132379720Y-118474480D03*
X164203380Y-108649780D03*
X164203380Y-111349780D03*
D13*
X144486620Y-79880460D03*
X141786620Y-79880460D03*
X170971200Y-79832200D03*
X168271200Y-79832200D03*
X156079200Y-104175560D03*
X158779200Y-104175560D03*
M02*
