G04 #@! TF.FileFunction,Other,User*
%FSLAX46Y46*%
G04 Gerber Fmt 4.6, Leading zero omitted, Abs format (unit mm)*
G04 Created by KiCad (PCBNEW 4.0.4+e1-6308~48~ubuntu15.10.1-stable) date Thu Jul 12 11:54:00 2018*
%MOMM*%
%LPD*%
G01*
G04 APERTURE LIST*
%ADD10C,0.100000*%
%ADD11C,0.050000*%
G04 APERTURE END LIST*
D10*
D11*
X128085200Y-52169500D02*
X128085200Y-40979500D01*
X128085200Y-52169500D02*
X115145200Y-52169500D01*
X115145200Y-40979500D02*
X128085200Y-40979500D01*
X115145200Y-40979500D02*
X115145200Y-52169500D01*
X140528780Y-115638640D02*
X137128780Y-115638640D01*
X137128780Y-115638640D02*
X137128780Y-119138640D01*
X137128780Y-119138640D02*
X140528780Y-119138640D01*
X140528780Y-119138640D02*
X140528780Y-115638640D01*
X167725000Y-116450000D02*
X167725000Y-119850000D01*
X167725000Y-119850000D02*
X171225000Y-119850000D01*
X171225000Y-119850000D02*
X171225000Y-116450000D01*
X171225000Y-116450000D02*
X167725000Y-116450000D01*
X137782240Y-81323920D02*
X137782240Y-77923920D01*
X137782240Y-77923920D02*
X134282240Y-77923920D01*
X134282240Y-77923920D02*
X134282240Y-81323920D01*
X134282240Y-81323920D02*
X137782240Y-81323920D01*
X164012820Y-80940380D02*
X164012820Y-77540380D01*
X164012820Y-77540380D02*
X160512820Y-77540380D01*
X160512820Y-77540380D02*
X160512820Y-80940380D01*
X160512820Y-80940380D02*
X164012820Y-80940380D01*
X141768300Y-122599340D02*
X141768300Y-120839340D01*
X138368300Y-122599340D02*
X141768300Y-122599340D01*
X138368300Y-120839340D02*
X138368300Y-122599340D01*
X141768300Y-120839340D02*
X138368300Y-120839340D01*
X140597360Y-76183380D02*
X140597360Y-74423380D01*
X137197360Y-76183380D02*
X140597360Y-76183380D01*
X137197360Y-74423380D02*
X137197360Y-76183380D01*
X140597360Y-74423380D02*
X137197360Y-74423380D01*
X172972200Y-122739040D02*
X172972200Y-120979040D01*
X169572200Y-122739040D02*
X172972200Y-122739040D01*
X169572200Y-120979040D02*
X169572200Y-122739040D01*
X172972200Y-120979040D02*
X169572200Y-120979040D01*
X166647600Y-75919220D02*
X166647600Y-74159220D01*
X163247600Y-75919220D02*
X166647600Y-75919220D01*
X163247600Y-74159220D02*
X163247600Y-75919220D01*
X166647600Y-74159220D02*
X163247600Y-74159220D01*
X152625000Y-115250000D02*
X147925000Y-115250000D01*
X152625000Y-115250000D02*
X152625000Y-117050000D01*
X147925000Y-117050000D02*
X147925000Y-115250000D01*
X147925000Y-117050000D02*
X152625000Y-117050000D01*
X152443680Y-65485440D02*
X147743680Y-65485440D01*
X152443680Y-65485440D02*
X152443680Y-67285440D01*
X147743680Y-67285440D02*
X147743680Y-65485440D01*
X147743680Y-67285440D02*
X152443680Y-67285440D01*
X183276740Y-113488900D02*
X178576740Y-113488900D01*
X183276740Y-113488900D02*
X183276740Y-115288900D01*
X178576740Y-115288900D02*
X178576740Y-113488900D01*
X178576740Y-115288900D02*
X183276740Y-115288900D01*
X177645560Y-65932480D02*
X172945560Y-65932480D01*
X177645560Y-65932480D02*
X177645560Y-67732480D01*
X172945560Y-67732480D02*
X172945560Y-65932480D01*
X172945560Y-67732480D02*
X177645560Y-67732480D01*
X152654500Y-105574260D02*
X147954500Y-105574260D01*
X152654500Y-105574260D02*
X152654500Y-107374260D01*
X147954500Y-107374260D02*
X147954500Y-105574260D01*
X147954500Y-107374260D02*
X152654500Y-107374260D01*
X150940000Y-57469200D02*
X146240000Y-57469200D01*
X150940000Y-57469200D02*
X150940000Y-59269200D01*
X146240000Y-59269200D02*
X146240000Y-57469200D01*
X146240000Y-59269200D02*
X150940000Y-59269200D01*
X183236100Y-106219420D02*
X178536100Y-106219420D01*
X183236100Y-106219420D02*
X183236100Y-108019420D01*
X178536100Y-108019420D02*
X178536100Y-106219420D01*
X178536100Y-108019420D02*
X183236100Y-108019420D01*
X176751480Y-57159320D02*
X172051480Y-57159320D01*
X176751480Y-57159320D02*
X176751480Y-58959320D01*
X172051480Y-58959320D02*
X172051480Y-57159320D01*
X172051480Y-58959320D02*
X176751480Y-58959320D01*
X152611320Y-70626400D02*
X147911320Y-70626400D01*
X152611320Y-70626400D02*
X152611320Y-72426400D01*
X147911320Y-72426400D02*
X147911320Y-70626400D01*
X147911320Y-72426400D02*
X152611320Y-72426400D01*
X186018940Y-115194920D02*
X190718940Y-115194920D01*
X186018940Y-115194920D02*
X186018940Y-113394920D01*
X190718940Y-113394920D02*
X190718940Y-115194920D01*
X190718940Y-113394920D02*
X186018940Y-113394920D01*
X153275800Y-119672940D02*
X157975800Y-119672940D01*
X153275800Y-119672940D02*
X153275800Y-117872940D01*
X157975800Y-117872940D02*
X157975800Y-119672940D01*
X157975800Y-117872940D02*
X153275800Y-117872940D01*
X179539400Y-68489400D02*
X184239400Y-68489400D01*
X179539400Y-68489400D02*
X179539400Y-66689400D01*
X184239400Y-66689400D02*
X184239400Y-68489400D01*
X184239400Y-66689400D02*
X179539400Y-66689400D01*
X152667200Y-75655600D02*
X147967200Y-75655600D01*
X152667200Y-75655600D02*
X152667200Y-77455600D01*
X147967200Y-77455600D02*
X147967200Y-75655600D01*
X147967200Y-77455600D02*
X152667200Y-77455600D01*
X186128160Y-120836260D02*
X190828160Y-120836260D01*
X186128160Y-120836260D02*
X186128160Y-119036260D01*
X190828160Y-119036260D02*
X190828160Y-120836260D01*
X190828160Y-119036260D02*
X186128160Y-119036260D01*
X153191980Y-125260940D02*
X157891980Y-125260940D01*
X153191980Y-125260940D02*
X153191980Y-123460940D01*
X157891980Y-123460940D02*
X157891980Y-125260940D01*
X157891980Y-123460940D02*
X153191980Y-123460940D01*
X179615600Y-73747200D02*
X184315600Y-73747200D01*
X179615600Y-73747200D02*
X179615600Y-71947200D01*
X184315600Y-71947200D02*
X184315600Y-73747200D01*
X184315600Y-71947200D02*
X179615600Y-71947200D01*
X152025000Y-61700000D02*
X156725000Y-61700000D01*
X152025000Y-61700000D02*
X152025000Y-59900000D01*
X156725000Y-59900000D02*
X156725000Y-61700000D01*
X156725000Y-59900000D02*
X152025000Y-59900000D01*
X186166260Y-105253360D02*
X190866260Y-105253360D01*
X186166260Y-105253360D02*
X186166260Y-103453360D01*
X190866260Y-103453360D02*
X190866260Y-105253360D01*
X190866260Y-103453360D02*
X186166260Y-103453360D01*
X181875000Y-58850000D02*
X186575000Y-58850000D01*
X181875000Y-58850000D02*
X181875000Y-57050000D01*
X186575000Y-57050000D02*
X186575000Y-58850000D01*
X186575000Y-57050000D02*
X181875000Y-57050000D01*
X151875000Y-56575000D02*
X156575000Y-56575000D01*
X151875000Y-56575000D02*
X151875000Y-54775000D01*
X156575000Y-54775000D02*
X156575000Y-56575000D01*
X156575000Y-54775000D02*
X151875000Y-54775000D01*
X186090060Y-110053960D02*
X190790060Y-110053960D01*
X186090060Y-110053960D02*
X186090060Y-108253960D01*
X190790060Y-108253960D02*
X190790060Y-110053960D01*
X190790060Y-108253960D02*
X186090060Y-108253960D01*
X155150000Y-110000000D02*
X159850000Y-110000000D01*
X155150000Y-110000000D02*
X155150000Y-108200000D01*
X159850000Y-108200000D02*
X159850000Y-110000000D01*
X159850000Y-108200000D02*
X155150000Y-108200000D01*
X181600000Y-54425000D02*
X176900000Y-54425000D01*
X181600000Y-54425000D02*
X181600000Y-56225000D01*
X176900000Y-56225000D02*
X176900000Y-54425000D01*
X176900000Y-56225000D02*
X181600000Y-56225000D01*
X131479720Y-114774480D02*
X131479720Y-119474480D01*
X131479720Y-114774480D02*
X133279720Y-114774480D01*
X133279720Y-119474480D02*
X131479720Y-119474480D01*
X133279720Y-119474480D02*
X133279720Y-114774480D01*
X163303380Y-107649780D02*
X163303380Y-112349780D01*
X163303380Y-107649780D02*
X165103380Y-107649780D01*
X165103380Y-112349780D02*
X163303380Y-112349780D01*
X165103380Y-112349780D02*
X165103380Y-107649780D01*
X145486620Y-78980460D02*
X140786620Y-78980460D01*
X145486620Y-78980460D02*
X145486620Y-80780460D01*
X140786620Y-80780460D02*
X140786620Y-78980460D01*
X140786620Y-80780460D02*
X145486620Y-80780460D01*
X171971200Y-78932200D02*
X167271200Y-78932200D01*
X171971200Y-78932200D02*
X171971200Y-80732200D01*
X167271200Y-80732200D02*
X167271200Y-78932200D01*
X167271200Y-80732200D02*
X171971200Y-80732200D01*
X155079200Y-105075560D02*
X159779200Y-105075560D01*
X155079200Y-105075560D02*
X155079200Y-103275560D01*
X159779200Y-103275560D02*
X159779200Y-105075560D01*
X159779200Y-103275560D02*
X155079200Y-103275560D01*
M02*
