G04 #@! TF.FileFunction,Other,Fab,Top*
%FSLAX46Y46*%
G04 Gerber Fmt 4.6, Leading zero omitted, Abs format (unit mm)*
G04 Created by KiCad (PCBNEW 4.0.4+e1-6308~48~ubuntu15.10.1-stable) date Thu Jul 12 11:54:00 2018*
%MOMM*%
%LPD*%
G01*
G04 APERTURE LIST*
%ADD10C,0.100000*%
%ADD11C,0.120000*%
%ADD12C,0.150000*%
%ADD13C,0.075000*%
G04 APERTURE END LIST*
D10*
X66040000Y-93853000D02*
X62230000Y-93853000D01*
X62230000Y-93853000D02*
X62230000Y-78613000D01*
X62230000Y-78613000D02*
X67310000Y-78613000D01*
X67310000Y-78613000D02*
X67310000Y-92583000D01*
X67310000Y-92583000D02*
X66040000Y-93853000D01*
D11*
X143909820Y-75533060D02*
X142999820Y-76543060D01*
X133869820Y-76543060D02*
X142999820Y-76543060D01*
X143909820Y-75533060D02*
X143909820Y-55653060D01*
X143909820Y-56163060D02*
X133869820Y-56163060D01*
X133869820Y-56163060D02*
X133869820Y-76543060D01*
X145243240Y-121979500D02*
X144333240Y-122989500D01*
X135203240Y-122989500D02*
X144333240Y-122989500D01*
X145243240Y-121979500D02*
X145243240Y-102099500D01*
X145243240Y-102609500D02*
X135203240Y-102609500D01*
X135203240Y-102609500D02*
X135203240Y-122989500D01*
X176330340Y-122091260D02*
X175420340Y-123101260D01*
X166290340Y-123101260D02*
X175420340Y-123101260D01*
X176330340Y-122091260D02*
X176330340Y-102211260D01*
X176330340Y-102721260D02*
X166290340Y-102721260D01*
X166290340Y-102721260D02*
X166290340Y-123101260D01*
X169866000Y-75357000D02*
X168956000Y-76367000D01*
X159826000Y-76367000D02*
X168956000Y-76367000D01*
X169866000Y-75357000D02*
X169866000Y-55477000D01*
X169866000Y-55987000D02*
X159826000Y-55987000D01*
X159826000Y-55987000D02*
X159826000Y-76367000D01*
D10*
X194876180Y-69436740D02*
X196116180Y-69436740D01*
X194876180Y-71436740D02*
X194876180Y-69436740D01*
X196116180Y-71436740D02*
X194876180Y-71436740D01*
X196116180Y-69436740D02*
X196116180Y-71436740D01*
X200083660Y-71436740D02*
X198843660Y-71436740D01*
X200083660Y-69436740D02*
X200083660Y-71436740D01*
X198843660Y-69436740D02*
X200083660Y-69436740D01*
X198843660Y-71436740D02*
X198843660Y-69436740D01*
X193900000Y-54770000D02*
X193900000Y-53530000D01*
X195900000Y-54770000D02*
X193900000Y-54770000D01*
X195900000Y-53530000D02*
X195900000Y-54770000D01*
X193900000Y-53530000D02*
X195900000Y-53530000D01*
X191500000Y-57705000D02*
X191500000Y-58945000D01*
X189500000Y-57705000D02*
X191500000Y-57705000D01*
X189500000Y-58945000D02*
X189500000Y-57705000D01*
X191500000Y-58945000D02*
X189500000Y-58945000D01*
D12*
X61722381Y-77005381D02*
X61722381Y-77814905D01*
X61770000Y-77910143D01*
X61817619Y-77957762D01*
X61912857Y-78005381D01*
X62103334Y-78005381D01*
X62198572Y-77957762D01*
X62246191Y-77910143D01*
X62293810Y-77814905D01*
X62293810Y-77005381D01*
X62722381Y-77957762D02*
X62865238Y-78005381D01*
X63103334Y-78005381D01*
X63198572Y-77957762D01*
X63246191Y-77910143D01*
X63293810Y-77814905D01*
X63293810Y-77719667D01*
X63246191Y-77624429D01*
X63198572Y-77576810D01*
X63103334Y-77529190D01*
X62912857Y-77481571D01*
X62817619Y-77433952D01*
X62770000Y-77386333D01*
X62722381Y-77291095D01*
X62722381Y-77195857D01*
X62770000Y-77100619D01*
X62817619Y-77053000D01*
X62912857Y-77005381D01*
X63150953Y-77005381D01*
X63293810Y-77053000D01*
X64055715Y-77481571D02*
X64198572Y-77529190D01*
X64246191Y-77576810D01*
X64293810Y-77672048D01*
X64293810Y-77814905D01*
X64246191Y-77910143D01*
X64198572Y-77957762D01*
X64103334Y-78005381D01*
X63722381Y-78005381D01*
X63722381Y-77005381D01*
X64055715Y-77005381D01*
X64150953Y-77053000D01*
X64198572Y-77100619D01*
X64246191Y-77195857D01*
X64246191Y-77291095D01*
X64198572Y-77386333D01*
X64150953Y-77433952D01*
X64055715Y-77481571D01*
X63722381Y-77481571D01*
X64484286Y-78100619D02*
X65246191Y-78100619D01*
X65674762Y-77005381D02*
X65865239Y-77005381D01*
X65960477Y-77053000D01*
X66055715Y-77148238D01*
X66103334Y-77338714D01*
X66103334Y-77672048D01*
X66055715Y-77862524D01*
X65960477Y-77957762D01*
X65865239Y-78005381D01*
X65674762Y-78005381D01*
X65579524Y-77957762D01*
X65484286Y-77862524D01*
X65436667Y-77672048D01*
X65436667Y-77338714D01*
X65484286Y-77148238D01*
X65579524Y-77053000D01*
X65674762Y-77005381D01*
X66389048Y-77005381D02*
X66960477Y-77005381D01*
X66674762Y-78005381D02*
X66674762Y-77005381D01*
X67817620Y-77053000D02*
X67722382Y-77005381D01*
X67579525Y-77005381D01*
X67436667Y-77053000D01*
X67341429Y-77148238D01*
X67293810Y-77243476D01*
X67246191Y-77433952D01*
X67246191Y-77576810D01*
X67293810Y-77767286D01*
X67341429Y-77862524D01*
X67436667Y-77957762D01*
X67579525Y-78005381D01*
X67674763Y-78005381D01*
X67817620Y-77957762D01*
X67865239Y-77910143D01*
X67865239Y-77576810D01*
X67674763Y-77576810D01*
X64222381Y-86566333D02*
X64936667Y-86566333D01*
X65079524Y-86613953D01*
X65174762Y-86709191D01*
X65222381Y-86852048D01*
X65222381Y-86947286D01*
X64317619Y-86137762D02*
X64270000Y-86090143D01*
X64222381Y-85994905D01*
X64222381Y-85756809D01*
X64270000Y-85661571D01*
X64317619Y-85613952D01*
X64412857Y-85566333D01*
X64508095Y-85566333D01*
X64650952Y-85613952D01*
X65222381Y-86185381D01*
X65222381Y-85566333D01*
X145562201Y-71127823D02*
X145086010Y-71461157D01*
X145562201Y-71699252D02*
X144562201Y-71699252D01*
X144562201Y-71318299D01*
X144609820Y-71223061D01*
X144657439Y-71175442D01*
X144752677Y-71127823D01*
X144895534Y-71127823D01*
X144990772Y-71175442D01*
X145038391Y-71223061D01*
X145086010Y-71318299D01*
X145086010Y-71699252D01*
X145038391Y-70699252D02*
X145038391Y-70365918D01*
X145562201Y-70223061D02*
X145562201Y-70699252D01*
X144562201Y-70699252D01*
X144562201Y-70223061D01*
X145562201Y-69318299D02*
X145562201Y-69794490D01*
X144562201Y-69794490D01*
X145276487Y-69032585D02*
X145276487Y-68556394D01*
X145562201Y-69127823D02*
X144562201Y-68794490D01*
X145562201Y-68461156D01*
X145086010Y-67937347D02*
X145562201Y-67937347D01*
X144562201Y-68270680D02*
X145086010Y-67937347D01*
X144562201Y-67604013D01*
X145657439Y-67508775D02*
X145657439Y-66746870D01*
X145562201Y-66508775D02*
X144562201Y-66508775D01*
X145276487Y-66175441D01*
X144562201Y-65842108D01*
X145562201Y-65842108D01*
X145514582Y-64984965D02*
X145562201Y-65080203D01*
X145562201Y-65270680D01*
X145514582Y-65365918D01*
X145419344Y-65413537D01*
X145038391Y-65413537D01*
X144943153Y-65365918D01*
X144895534Y-65270680D01*
X144895534Y-65080203D01*
X144943153Y-64984965D01*
X145038391Y-64937346D01*
X145133630Y-64937346D01*
X145228868Y-65413537D01*
X144895534Y-64651632D02*
X144895534Y-64270680D01*
X144562201Y-64508775D02*
X145419344Y-64508775D01*
X145514582Y-64461156D01*
X145562201Y-64365918D01*
X145562201Y-64270680D01*
X145562201Y-63508774D02*
X145038391Y-63508774D01*
X144943153Y-63556393D01*
X144895534Y-63651631D01*
X144895534Y-63842108D01*
X144943153Y-63937346D01*
X145514582Y-63508774D02*
X145562201Y-63604012D01*
X145562201Y-63842108D01*
X145514582Y-63937346D01*
X145419344Y-63984965D01*
X145324106Y-63984965D01*
X145228868Y-63937346D01*
X145181249Y-63842108D01*
X145181249Y-63604012D01*
X145133630Y-63508774D01*
X145562201Y-62889727D02*
X145514582Y-62984965D01*
X145419344Y-63032584D01*
X144562201Y-63032584D01*
X144895534Y-62651631D02*
X144895534Y-62270679D01*
X144562201Y-62508774D02*
X145419344Y-62508774D01*
X145514582Y-62461155D01*
X145562201Y-62365917D01*
X145562201Y-62270679D01*
X145514582Y-61556392D02*
X145562201Y-61651630D01*
X145562201Y-61842107D01*
X145514582Y-61937345D01*
X145419344Y-61984964D01*
X145038391Y-61984964D01*
X144943153Y-61937345D01*
X144895534Y-61842107D01*
X144895534Y-61651630D01*
X144943153Y-61556392D01*
X145038391Y-61508773D01*
X145133630Y-61508773D01*
X145228868Y-61984964D01*
X145562201Y-61175440D02*
X144895534Y-60651630D01*
X144895534Y-61175440D02*
X145562201Y-60651630D01*
X138021725Y-66525441D02*
X138021725Y-65525441D01*
X138593154Y-66525441D02*
X138164582Y-65954012D01*
X138593154Y-65525441D02*
X138021725Y-66096870D01*
X139545535Y-66525441D02*
X138974106Y-66525441D01*
X139259820Y-66525441D02*
X139259820Y-65525441D01*
X139164582Y-65668298D01*
X139069344Y-65763536D01*
X138974106Y-65811155D01*
X61364541Y-113076549D02*
X62174065Y-113076549D01*
X62269303Y-113028930D01*
X62316922Y-112981311D01*
X62364541Y-112886073D01*
X62364541Y-112695596D01*
X62316922Y-112600358D01*
X62269303Y-112552739D01*
X62174065Y-112505120D01*
X61364541Y-112505120D01*
X62316922Y-112076549D02*
X62364541Y-111933692D01*
X62364541Y-111695596D01*
X62316922Y-111600358D01*
X62269303Y-111552739D01*
X62174065Y-111505120D01*
X62078827Y-111505120D01*
X61983589Y-111552739D01*
X61935970Y-111600358D01*
X61888350Y-111695596D01*
X61840731Y-111886073D01*
X61793112Y-111981311D01*
X61745493Y-112028930D01*
X61650255Y-112076549D01*
X61555017Y-112076549D01*
X61459779Y-112028930D01*
X61412160Y-111981311D01*
X61364541Y-111886073D01*
X61364541Y-111647977D01*
X61412160Y-111505120D01*
X61840731Y-110743215D02*
X61888350Y-110600358D01*
X61935970Y-110552739D01*
X62031208Y-110505120D01*
X62174065Y-110505120D01*
X62269303Y-110552739D01*
X62316922Y-110600358D01*
X62364541Y-110695596D01*
X62364541Y-111076549D01*
X61364541Y-111076549D01*
X61364541Y-110743215D01*
X61412160Y-110647977D01*
X61459779Y-110600358D01*
X61555017Y-110552739D01*
X61650255Y-110552739D01*
X61745493Y-110600358D01*
X61793112Y-110647977D01*
X61840731Y-110743215D01*
X61840731Y-111076549D01*
X62459779Y-110314644D02*
X62459779Y-109552739D01*
X62078827Y-109362263D02*
X62078827Y-108886072D01*
X62364541Y-109457501D02*
X61364541Y-109124168D01*
X62364541Y-108790834D01*
X146895621Y-117574263D02*
X146419430Y-117907597D01*
X146895621Y-118145692D02*
X145895621Y-118145692D01*
X145895621Y-117764739D01*
X145943240Y-117669501D01*
X145990859Y-117621882D01*
X146086097Y-117574263D01*
X146228954Y-117574263D01*
X146324192Y-117621882D01*
X146371811Y-117669501D01*
X146419430Y-117764739D01*
X146419430Y-118145692D01*
X146371811Y-117145692D02*
X146371811Y-116812358D01*
X146895621Y-116669501D02*
X146895621Y-117145692D01*
X145895621Y-117145692D01*
X145895621Y-116669501D01*
X146895621Y-115764739D02*
X146895621Y-116240930D01*
X145895621Y-116240930D01*
X146609907Y-115479025D02*
X146609907Y-115002834D01*
X146895621Y-115574263D02*
X145895621Y-115240930D01*
X146895621Y-114907596D01*
X146419430Y-114383787D02*
X146895621Y-114383787D01*
X145895621Y-114717120D02*
X146419430Y-114383787D01*
X145895621Y-114050453D01*
X146990859Y-113955215D02*
X146990859Y-113193310D01*
X146895621Y-112955215D02*
X145895621Y-112955215D01*
X146609907Y-112621881D01*
X145895621Y-112288548D01*
X146895621Y-112288548D01*
X146848002Y-111431405D02*
X146895621Y-111526643D01*
X146895621Y-111717120D01*
X146848002Y-111812358D01*
X146752764Y-111859977D01*
X146371811Y-111859977D01*
X146276573Y-111812358D01*
X146228954Y-111717120D01*
X146228954Y-111526643D01*
X146276573Y-111431405D01*
X146371811Y-111383786D01*
X146467050Y-111383786D01*
X146562288Y-111859977D01*
X146228954Y-111098072D02*
X146228954Y-110717120D01*
X145895621Y-110955215D02*
X146752764Y-110955215D01*
X146848002Y-110907596D01*
X146895621Y-110812358D01*
X146895621Y-110717120D01*
X146895621Y-109955214D02*
X146371811Y-109955214D01*
X146276573Y-110002833D01*
X146228954Y-110098071D01*
X146228954Y-110288548D01*
X146276573Y-110383786D01*
X146848002Y-109955214D02*
X146895621Y-110050452D01*
X146895621Y-110288548D01*
X146848002Y-110383786D01*
X146752764Y-110431405D01*
X146657526Y-110431405D01*
X146562288Y-110383786D01*
X146514669Y-110288548D01*
X146514669Y-110050452D01*
X146467050Y-109955214D01*
X146895621Y-109336167D02*
X146848002Y-109431405D01*
X146752764Y-109479024D01*
X145895621Y-109479024D01*
X146228954Y-109098071D02*
X146228954Y-108717119D01*
X145895621Y-108955214D02*
X146752764Y-108955214D01*
X146848002Y-108907595D01*
X146895621Y-108812357D01*
X146895621Y-108717119D01*
X146848002Y-108002832D02*
X146895621Y-108098070D01*
X146895621Y-108288547D01*
X146848002Y-108383785D01*
X146752764Y-108431404D01*
X146371811Y-108431404D01*
X146276573Y-108383785D01*
X146228954Y-108288547D01*
X146228954Y-108098070D01*
X146276573Y-108002832D01*
X146371811Y-107955213D01*
X146467050Y-107955213D01*
X146562288Y-108431404D01*
X146895621Y-107621880D02*
X146228954Y-107098070D01*
X146228954Y-107621880D02*
X146895621Y-107098070D01*
X139355145Y-112971881D02*
X139355145Y-111971881D01*
X139926574Y-112971881D02*
X139498002Y-112400452D01*
X139926574Y-111971881D02*
X139355145Y-112543310D01*
X140307526Y-112067119D02*
X140355145Y-112019500D01*
X140450383Y-111971881D01*
X140688479Y-111971881D01*
X140783717Y-112019500D01*
X140831336Y-112067119D01*
X140878955Y-112162357D01*
X140878955Y-112257595D01*
X140831336Y-112400452D01*
X140259907Y-112971881D01*
X140878955Y-112971881D01*
X177982721Y-117686023D02*
X177506530Y-118019357D01*
X177982721Y-118257452D02*
X176982721Y-118257452D01*
X176982721Y-117876499D01*
X177030340Y-117781261D01*
X177077959Y-117733642D01*
X177173197Y-117686023D01*
X177316054Y-117686023D01*
X177411292Y-117733642D01*
X177458911Y-117781261D01*
X177506530Y-117876499D01*
X177506530Y-118257452D01*
X177458911Y-117257452D02*
X177458911Y-116924118D01*
X177982721Y-116781261D02*
X177982721Y-117257452D01*
X176982721Y-117257452D01*
X176982721Y-116781261D01*
X177982721Y-115876499D02*
X177982721Y-116352690D01*
X176982721Y-116352690D01*
X177697007Y-115590785D02*
X177697007Y-115114594D01*
X177982721Y-115686023D02*
X176982721Y-115352690D01*
X177982721Y-115019356D01*
X177506530Y-114495547D02*
X177982721Y-114495547D01*
X176982721Y-114828880D02*
X177506530Y-114495547D01*
X176982721Y-114162213D01*
X178077959Y-114066975D02*
X178077959Y-113305070D01*
X177982721Y-113066975D02*
X176982721Y-113066975D01*
X177697007Y-112733641D01*
X176982721Y-112400308D01*
X177982721Y-112400308D01*
X177935102Y-111543165D02*
X177982721Y-111638403D01*
X177982721Y-111828880D01*
X177935102Y-111924118D01*
X177839864Y-111971737D01*
X177458911Y-111971737D01*
X177363673Y-111924118D01*
X177316054Y-111828880D01*
X177316054Y-111638403D01*
X177363673Y-111543165D01*
X177458911Y-111495546D01*
X177554150Y-111495546D01*
X177649388Y-111971737D01*
X177316054Y-111209832D02*
X177316054Y-110828880D01*
X176982721Y-111066975D02*
X177839864Y-111066975D01*
X177935102Y-111019356D01*
X177982721Y-110924118D01*
X177982721Y-110828880D01*
X177982721Y-110066974D02*
X177458911Y-110066974D01*
X177363673Y-110114593D01*
X177316054Y-110209831D01*
X177316054Y-110400308D01*
X177363673Y-110495546D01*
X177935102Y-110066974D02*
X177982721Y-110162212D01*
X177982721Y-110400308D01*
X177935102Y-110495546D01*
X177839864Y-110543165D01*
X177744626Y-110543165D01*
X177649388Y-110495546D01*
X177601769Y-110400308D01*
X177601769Y-110162212D01*
X177554150Y-110066974D01*
X177982721Y-109447927D02*
X177935102Y-109543165D01*
X177839864Y-109590784D01*
X176982721Y-109590784D01*
X177316054Y-109209831D02*
X177316054Y-108828879D01*
X176982721Y-109066974D02*
X177839864Y-109066974D01*
X177935102Y-109019355D01*
X177982721Y-108924117D01*
X177982721Y-108828879D01*
X177935102Y-108114592D02*
X177982721Y-108209830D01*
X177982721Y-108400307D01*
X177935102Y-108495545D01*
X177839864Y-108543164D01*
X177458911Y-108543164D01*
X177363673Y-108495545D01*
X177316054Y-108400307D01*
X177316054Y-108209830D01*
X177363673Y-108114592D01*
X177458911Y-108066973D01*
X177554150Y-108066973D01*
X177649388Y-108543164D01*
X177982721Y-107733640D02*
X177316054Y-107209830D01*
X177316054Y-107733640D02*
X177982721Y-107209830D01*
X170442245Y-113083641D02*
X170442245Y-112083641D01*
X171013674Y-113083641D02*
X170585102Y-112512212D01*
X171013674Y-112083641D02*
X170442245Y-112655070D01*
X171347007Y-112083641D02*
X171966055Y-112083641D01*
X171632721Y-112464593D01*
X171775579Y-112464593D01*
X171870817Y-112512212D01*
X171918436Y-112559831D01*
X171966055Y-112655070D01*
X171966055Y-112893165D01*
X171918436Y-112988403D01*
X171870817Y-113036022D01*
X171775579Y-113083641D01*
X171489864Y-113083641D01*
X171394626Y-113036022D01*
X171347007Y-112988403D01*
X171518381Y-70951763D02*
X171042190Y-71285097D01*
X171518381Y-71523192D02*
X170518381Y-71523192D01*
X170518381Y-71142239D01*
X170566000Y-71047001D01*
X170613619Y-70999382D01*
X170708857Y-70951763D01*
X170851714Y-70951763D01*
X170946952Y-70999382D01*
X170994571Y-71047001D01*
X171042190Y-71142239D01*
X171042190Y-71523192D01*
X170994571Y-70523192D02*
X170994571Y-70189858D01*
X171518381Y-70047001D02*
X171518381Y-70523192D01*
X170518381Y-70523192D01*
X170518381Y-70047001D01*
X171518381Y-69142239D02*
X171518381Y-69618430D01*
X170518381Y-69618430D01*
X171232667Y-68856525D02*
X171232667Y-68380334D01*
X171518381Y-68951763D02*
X170518381Y-68618430D01*
X171518381Y-68285096D01*
X171042190Y-67761287D02*
X171518381Y-67761287D01*
X170518381Y-68094620D02*
X171042190Y-67761287D01*
X170518381Y-67427953D01*
X171613619Y-67332715D02*
X171613619Y-66570810D01*
X171518381Y-66332715D02*
X170518381Y-66332715D01*
X171232667Y-65999381D01*
X170518381Y-65666048D01*
X171518381Y-65666048D01*
X171470762Y-64808905D02*
X171518381Y-64904143D01*
X171518381Y-65094620D01*
X171470762Y-65189858D01*
X171375524Y-65237477D01*
X170994571Y-65237477D01*
X170899333Y-65189858D01*
X170851714Y-65094620D01*
X170851714Y-64904143D01*
X170899333Y-64808905D01*
X170994571Y-64761286D01*
X171089810Y-64761286D01*
X171185048Y-65237477D01*
X170851714Y-64475572D02*
X170851714Y-64094620D01*
X170518381Y-64332715D02*
X171375524Y-64332715D01*
X171470762Y-64285096D01*
X171518381Y-64189858D01*
X171518381Y-64094620D01*
X171518381Y-63332714D02*
X170994571Y-63332714D01*
X170899333Y-63380333D01*
X170851714Y-63475571D01*
X170851714Y-63666048D01*
X170899333Y-63761286D01*
X171470762Y-63332714D02*
X171518381Y-63427952D01*
X171518381Y-63666048D01*
X171470762Y-63761286D01*
X171375524Y-63808905D01*
X171280286Y-63808905D01*
X171185048Y-63761286D01*
X171137429Y-63666048D01*
X171137429Y-63427952D01*
X171089810Y-63332714D01*
X171518381Y-62713667D02*
X171470762Y-62808905D01*
X171375524Y-62856524D01*
X170518381Y-62856524D01*
X170851714Y-62475571D02*
X170851714Y-62094619D01*
X170518381Y-62332714D02*
X171375524Y-62332714D01*
X171470762Y-62285095D01*
X171518381Y-62189857D01*
X171518381Y-62094619D01*
X171470762Y-61380332D02*
X171518381Y-61475570D01*
X171518381Y-61666047D01*
X171470762Y-61761285D01*
X171375524Y-61808904D01*
X170994571Y-61808904D01*
X170899333Y-61761285D01*
X170851714Y-61666047D01*
X170851714Y-61475570D01*
X170899333Y-61380332D01*
X170994571Y-61332713D01*
X171089810Y-61332713D01*
X171185048Y-61808904D01*
X171518381Y-60999380D02*
X170851714Y-60475570D01*
X170851714Y-60999380D02*
X171518381Y-60475570D01*
X163977905Y-66349381D02*
X163977905Y-65349381D01*
X164549334Y-66349381D02*
X164120762Y-65777952D01*
X164549334Y-65349381D02*
X163977905Y-65920810D01*
X165406477Y-65682714D02*
X165406477Y-66349381D01*
X165168381Y-65301762D02*
X164930286Y-66016048D01*
X165549334Y-66016048D01*
X193198561Y-70603406D02*
X193198561Y-71079597D01*
X193674751Y-71127216D01*
X193627132Y-71079597D01*
X193579513Y-70984359D01*
X193579513Y-70746263D01*
X193627132Y-70651025D01*
X193674751Y-70603406D01*
X193769990Y-70555787D01*
X194008085Y-70555787D01*
X194103323Y-70603406D01*
X194150942Y-70651025D01*
X194198561Y-70746263D01*
X194198561Y-70984359D01*
X194150942Y-71079597D01*
X194103323Y-71127216D01*
X194198561Y-70127216D02*
X193198561Y-70127216D01*
X193817609Y-70031978D02*
X194198561Y-69746263D01*
X193531894Y-69746263D02*
X193912847Y-70127216D01*
D13*
X195722370Y-70520073D02*
X195484275Y-70686740D01*
X195722370Y-70805787D02*
X195222370Y-70805787D01*
X195222370Y-70615311D01*
X195246180Y-70567692D01*
X195269990Y-70543883D01*
X195317609Y-70520073D01*
X195389037Y-70520073D01*
X195436656Y-70543883D01*
X195460466Y-70567692D01*
X195484275Y-70615311D01*
X195484275Y-70805787D01*
X195222370Y-70091502D02*
X195222370Y-70186740D01*
X195246180Y-70234359D01*
X195269990Y-70258168D01*
X195341418Y-70305787D01*
X195436656Y-70329597D01*
X195627132Y-70329597D01*
X195674751Y-70305787D01*
X195698561Y-70281978D01*
X195722370Y-70234359D01*
X195722370Y-70139121D01*
X195698561Y-70091502D01*
X195674751Y-70067692D01*
X195627132Y-70043883D01*
X195508085Y-70043883D01*
X195460466Y-70067692D01*
X195436656Y-70091502D01*
X195412847Y-70139121D01*
X195412847Y-70234359D01*
X195436656Y-70281978D01*
X195460466Y-70305787D01*
X195508085Y-70329597D01*
D12*
X201666041Y-71031978D02*
X201666041Y-71603407D01*
X201666041Y-71317693D02*
X200666041Y-71317693D01*
X200808898Y-71412931D01*
X200904136Y-71508169D01*
X200951755Y-71603407D01*
X200666041Y-70412931D02*
X200666041Y-70317692D01*
X200713660Y-70222454D01*
X200761279Y-70174835D01*
X200856517Y-70127216D01*
X201046993Y-70079597D01*
X201285089Y-70079597D01*
X201475565Y-70127216D01*
X201570803Y-70174835D01*
X201618422Y-70222454D01*
X201666041Y-70317692D01*
X201666041Y-70412931D01*
X201618422Y-70508169D01*
X201570803Y-70555788D01*
X201475565Y-70603407D01*
X201285089Y-70651026D01*
X201046993Y-70651026D01*
X200856517Y-70603407D01*
X200761279Y-70555788D01*
X200713660Y-70508169D01*
X200666041Y-70412931D01*
X201666041Y-69651026D02*
X200666041Y-69651026D01*
X201285089Y-69555788D02*
X201666041Y-69270073D01*
X200999374Y-69270073D02*
X201380327Y-69651026D01*
D13*
X199689850Y-70520073D02*
X199451755Y-70686740D01*
X199689850Y-70805787D02*
X199189850Y-70805787D01*
X199189850Y-70615311D01*
X199213660Y-70567692D01*
X199237470Y-70543883D01*
X199285089Y-70520073D01*
X199356517Y-70520073D01*
X199404136Y-70543883D01*
X199427946Y-70567692D01*
X199451755Y-70615311D01*
X199451755Y-70805787D01*
X199189850Y-70067692D02*
X199189850Y-70305787D01*
X199427946Y-70329597D01*
X199404136Y-70305787D01*
X199380327Y-70258168D01*
X199380327Y-70139121D01*
X199404136Y-70091502D01*
X199427946Y-70067692D01*
X199475565Y-70043883D01*
X199594612Y-70043883D01*
X199642231Y-70067692D01*
X199666041Y-70091502D01*
X199689850Y-70139121D01*
X199689850Y-70258168D01*
X199666041Y-70305787D01*
X199642231Y-70329597D01*
D12*
X194304762Y-56352381D02*
X193733333Y-56352381D01*
X194019047Y-56352381D02*
X194019047Y-55352381D01*
X193923809Y-55495238D01*
X193828571Y-55590476D01*
X193733333Y-55638095D01*
X194923809Y-55352381D02*
X195019048Y-55352381D01*
X195114286Y-55400000D01*
X195161905Y-55447619D01*
X195209524Y-55542857D01*
X195257143Y-55733333D01*
X195257143Y-55971429D01*
X195209524Y-56161905D01*
X195161905Y-56257143D01*
X195114286Y-56304762D01*
X195019048Y-56352381D01*
X194923809Y-56352381D01*
X194828571Y-56304762D01*
X194780952Y-56257143D01*
X194733333Y-56161905D01*
X194685714Y-55971429D01*
X194685714Y-55733333D01*
X194733333Y-55542857D01*
X194780952Y-55447619D01*
X194828571Y-55400000D01*
X194923809Y-55352381D01*
X195685714Y-56352381D02*
X195685714Y-55352381D01*
X195780952Y-55971429D02*
X196066667Y-56352381D01*
X196066667Y-55685714D02*
X195685714Y-56066667D01*
D13*
X194816667Y-54376190D02*
X194650000Y-54138095D01*
X194530953Y-54376190D02*
X194530953Y-53876190D01*
X194721429Y-53876190D01*
X194769048Y-53900000D01*
X194792857Y-53923810D01*
X194816667Y-53971429D01*
X194816667Y-54042857D01*
X194792857Y-54090476D01*
X194769048Y-54114286D01*
X194721429Y-54138095D01*
X194530953Y-54138095D01*
X194983334Y-53876190D02*
X195316667Y-53876190D01*
X195102381Y-54376190D01*
D12*
X189904762Y-57027381D02*
X189333333Y-57027381D01*
X189619047Y-57027381D02*
X189619047Y-56027381D01*
X189523809Y-56170238D01*
X189428571Y-56265476D01*
X189333333Y-56313095D01*
X190523809Y-56027381D02*
X190619048Y-56027381D01*
X190714286Y-56075000D01*
X190761905Y-56122619D01*
X190809524Y-56217857D01*
X190857143Y-56408333D01*
X190857143Y-56646429D01*
X190809524Y-56836905D01*
X190761905Y-56932143D01*
X190714286Y-56979762D01*
X190619048Y-57027381D01*
X190523809Y-57027381D01*
X190428571Y-56979762D01*
X190380952Y-56932143D01*
X190333333Y-56836905D01*
X190285714Y-56646429D01*
X190285714Y-56408333D01*
X190333333Y-56217857D01*
X190380952Y-56122619D01*
X190428571Y-56075000D01*
X190523809Y-56027381D01*
X191285714Y-57027381D02*
X191285714Y-56027381D01*
X191380952Y-56646429D02*
X191666667Y-57027381D01*
X191666667Y-56360714D02*
X191285714Y-56741667D01*
D13*
X190416667Y-58551190D02*
X190250000Y-58313095D01*
X190130953Y-58551190D02*
X190130953Y-58051190D01*
X190321429Y-58051190D01*
X190369048Y-58075000D01*
X190392857Y-58098810D01*
X190416667Y-58146429D01*
X190416667Y-58217857D01*
X190392857Y-58265476D01*
X190369048Y-58289286D01*
X190321429Y-58313095D01*
X190130953Y-58313095D01*
X190702381Y-58265476D02*
X190654762Y-58241667D01*
X190630953Y-58217857D01*
X190607143Y-58170238D01*
X190607143Y-58146429D01*
X190630953Y-58098810D01*
X190654762Y-58075000D01*
X190702381Y-58051190D01*
X190797619Y-58051190D01*
X190845238Y-58075000D01*
X190869048Y-58098810D01*
X190892857Y-58146429D01*
X190892857Y-58170238D01*
X190869048Y-58217857D01*
X190845238Y-58241667D01*
X190797619Y-58265476D01*
X190702381Y-58265476D01*
X190654762Y-58289286D01*
X190630953Y-58313095D01*
X190607143Y-58360714D01*
X190607143Y-58455952D01*
X190630953Y-58503571D01*
X190654762Y-58527381D01*
X190702381Y-58551190D01*
X190797619Y-58551190D01*
X190845238Y-58527381D01*
X190869048Y-58503571D01*
X190892857Y-58455952D01*
X190892857Y-58360714D01*
X190869048Y-58313095D01*
X190845238Y-58289286D01*
X190797619Y-58265476D01*
M02*
