G04 #@! TF.FileFunction,Legend,Top*
%FSLAX46Y46*%
G04 Gerber Fmt 4.6, Leading zero omitted, Abs format (unit mm)*
G04 Created by KiCad (PCBNEW 4.0.7-e2-6376~61~ubuntu18.04.1) date Mon Nov 26 07:37:29 2018*
%MOMM*%
%LPD*%
G01*
G04 APERTURE LIST*
%ADD10C,0.100000*%
%ADD11C,0.200000*%
%ADD12C,0.150000*%
%ADD13C,0.120000*%
%ADD14C,0.010000*%
G04 APERTURE END LIST*
D10*
D11*
X233780000Y-131090000D02*
X234050000Y-131090000D01*
X233780000Y-118930000D02*
X233780000Y-131090000D01*
X259120000Y-131090000D02*
X234030000Y-131090000D01*
X259120000Y-118950000D02*
X259120000Y-131090000D01*
X233800000Y-118950000D02*
X259120000Y-118950000D01*
X235402859Y-119520000D02*
X235288573Y-119462857D01*
X235117144Y-119462857D01*
X234945716Y-119520000D01*
X234831430Y-119634286D01*
X234774287Y-119748571D01*
X234717144Y-119977143D01*
X234717144Y-120148571D01*
X234774287Y-120377143D01*
X234831430Y-120491429D01*
X234945716Y-120605714D01*
X235117144Y-120662857D01*
X235231430Y-120662857D01*
X235402859Y-120605714D01*
X235460002Y-120548571D01*
X235460002Y-120148571D01*
X235231430Y-120148571D01*
X235974287Y-120662857D02*
X235974287Y-119862857D01*
X235974287Y-120091429D02*
X236031430Y-119977143D01*
X236088573Y-119920000D01*
X236202859Y-119862857D01*
X236317144Y-119862857D01*
X237231430Y-119862857D02*
X237231430Y-120662857D01*
X236717144Y-119862857D02*
X236717144Y-120491429D01*
X236774287Y-120605714D01*
X236888573Y-120662857D01*
X237060001Y-120662857D01*
X237174287Y-120605714D01*
X237231430Y-120548571D01*
X237802858Y-119862857D02*
X237802858Y-121062857D01*
X237802858Y-119920000D02*
X237917144Y-119862857D01*
X238145715Y-119862857D01*
X238260001Y-119920000D01*
X238317144Y-119977143D01*
X238374287Y-120091429D01*
X238374287Y-120434286D01*
X238317144Y-120548571D01*
X238260001Y-120605714D01*
X238145715Y-120662857D01*
X237917144Y-120662857D01*
X237802858Y-120605714D01*
X239060001Y-120662857D02*
X238945715Y-120605714D01*
X238888572Y-120548571D01*
X238831429Y-120434286D01*
X238831429Y-120091429D01*
X238888572Y-119977143D01*
X238945715Y-119920000D01*
X239060001Y-119862857D01*
X239231429Y-119862857D01*
X239345715Y-119920000D01*
X239402858Y-119977143D01*
X239460001Y-120091429D01*
X239460001Y-120434286D01*
X239402858Y-120548571D01*
X239345715Y-120605714D01*
X239231429Y-120662857D01*
X239060001Y-120662857D01*
X241402858Y-120662857D02*
X241402858Y-119462857D01*
X241402858Y-120605714D02*
X241288572Y-120662857D01*
X241060001Y-120662857D01*
X240945715Y-120605714D01*
X240888572Y-120548571D01*
X240831429Y-120434286D01*
X240831429Y-120091429D01*
X240888572Y-119977143D01*
X240945715Y-119920000D01*
X241060001Y-119862857D01*
X241288572Y-119862857D01*
X241402858Y-119920000D01*
X242431429Y-120605714D02*
X242317143Y-120662857D01*
X242088572Y-120662857D01*
X241974286Y-120605714D01*
X241917143Y-120491429D01*
X241917143Y-120034286D01*
X241974286Y-119920000D01*
X242088572Y-119862857D01*
X242317143Y-119862857D01*
X242431429Y-119920000D01*
X242488572Y-120034286D01*
X242488572Y-120148571D01*
X241917143Y-120262857D01*
X244602858Y-120548571D02*
X244545715Y-120605714D01*
X244374286Y-120662857D01*
X244260000Y-120662857D01*
X244088572Y-120605714D01*
X243974286Y-120491429D01*
X243917143Y-120377143D01*
X243860000Y-120148571D01*
X243860000Y-119977143D01*
X243917143Y-119748571D01*
X243974286Y-119634286D01*
X244088572Y-119520000D01*
X244260000Y-119462857D01*
X244374286Y-119462857D01*
X244545715Y-119520000D01*
X244602858Y-119577143D01*
X245288572Y-120662857D02*
X245174286Y-120605714D01*
X245117143Y-120548571D01*
X245060000Y-120434286D01*
X245060000Y-120091429D01*
X245117143Y-119977143D01*
X245174286Y-119920000D01*
X245288572Y-119862857D01*
X245460000Y-119862857D01*
X245574286Y-119920000D01*
X245631429Y-119977143D01*
X245688572Y-120091429D01*
X245688572Y-120434286D01*
X245631429Y-120548571D01*
X245574286Y-120605714D01*
X245460000Y-120662857D01*
X245288572Y-120662857D01*
X246202857Y-119862857D02*
X246202857Y-120662857D01*
X246202857Y-119977143D02*
X246260000Y-119920000D01*
X246374286Y-119862857D01*
X246545714Y-119862857D01*
X246660000Y-119920000D01*
X246717143Y-120034286D01*
X246717143Y-120662857D01*
X247117143Y-119862857D02*
X247574286Y-119862857D01*
X247288571Y-119462857D02*
X247288571Y-120491429D01*
X247345714Y-120605714D01*
X247460000Y-120662857D01*
X247574286Y-120662857D01*
X247974285Y-120662857D02*
X247974285Y-119862857D01*
X247974285Y-120091429D02*
X248031428Y-119977143D01*
X248088571Y-119920000D01*
X248202857Y-119862857D01*
X248317142Y-119862857D01*
X248888571Y-120662857D02*
X248774285Y-120605714D01*
X248717142Y-120548571D01*
X248659999Y-120434286D01*
X248659999Y-120091429D01*
X248717142Y-119977143D01*
X248774285Y-119920000D01*
X248888571Y-119862857D01*
X249059999Y-119862857D01*
X249174285Y-119920000D01*
X249231428Y-119977143D01*
X249288571Y-120091429D01*
X249288571Y-120434286D01*
X249231428Y-120548571D01*
X249174285Y-120605714D01*
X249059999Y-120662857D01*
X248888571Y-120662857D01*
X249974285Y-120662857D02*
X249859999Y-120605714D01*
X249802856Y-120491429D01*
X249802856Y-119462857D01*
X250888570Y-120605714D02*
X250774284Y-120662857D01*
X250545713Y-120662857D01*
X250431427Y-120605714D01*
X250374284Y-120491429D01*
X250374284Y-120034286D01*
X250431427Y-119920000D01*
X250545713Y-119862857D01*
X250774284Y-119862857D01*
X250888570Y-119920000D01*
X250945713Y-120034286D01*
X250945713Y-120148571D01*
X250374284Y-120262857D01*
X252374284Y-120205714D02*
X253288570Y-120205714D01*
X255345713Y-120662857D02*
X254774284Y-120662857D01*
X254774284Y-119462857D01*
X255745713Y-120662857D02*
X255745713Y-119462857D01*
X256431428Y-120662857D01*
X256431428Y-119462857D01*
X257574285Y-120662857D02*
X257002856Y-120662857D01*
X257002856Y-119462857D01*
X257917142Y-120605714D02*
X258088571Y-120662857D01*
X258374285Y-120662857D01*
X258488571Y-120605714D01*
X258545714Y-120548571D01*
X258602857Y-120434286D01*
X258602857Y-120320000D01*
X258545714Y-120205714D01*
X258488571Y-120148571D01*
X258374285Y-120091429D01*
X258145714Y-120034286D01*
X258031428Y-119977143D01*
X257974285Y-119920000D01*
X257917142Y-119805714D01*
X257917142Y-119691429D01*
X257974285Y-119577143D01*
X258031428Y-119520000D01*
X258145714Y-119462857D01*
X258431428Y-119462857D01*
X258602857Y-119520000D01*
X236145717Y-121462857D02*
X236545717Y-122662857D01*
X236945717Y-121462857D01*
X237860002Y-122662857D02*
X237860002Y-122034286D01*
X237802859Y-121920000D01*
X237688573Y-121862857D01*
X237460002Y-121862857D01*
X237345716Y-121920000D01*
X237860002Y-122605714D02*
X237745716Y-122662857D01*
X237460002Y-122662857D01*
X237345716Y-122605714D01*
X237288573Y-122491429D01*
X237288573Y-122377143D01*
X237345716Y-122262857D01*
X237460002Y-122205714D01*
X237745716Y-122205714D01*
X237860002Y-122148571D01*
X238945716Y-122605714D02*
X238831430Y-122662857D01*
X238602859Y-122662857D01*
X238488573Y-122605714D01*
X238431430Y-122548571D01*
X238374287Y-122434286D01*
X238374287Y-122091429D01*
X238431430Y-121977143D01*
X238488573Y-121920000D01*
X238602859Y-121862857D01*
X238831430Y-121862857D01*
X238945716Y-121920000D01*
X239974287Y-121862857D02*
X239974287Y-122662857D01*
X239460001Y-121862857D02*
X239460001Y-122491429D01*
X239517144Y-122605714D01*
X239631430Y-122662857D01*
X239802858Y-122662857D01*
X239917144Y-122605714D01*
X239974287Y-122548571D01*
X241060001Y-121862857D02*
X241060001Y-122662857D01*
X240545715Y-121862857D02*
X240545715Y-122491429D01*
X240602858Y-122605714D01*
X240717144Y-122662857D01*
X240888572Y-122662857D01*
X241002858Y-122605714D01*
X241060001Y-122548571D01*
X241631429Y-122662857D02*
X241631429Y-121862857D01*
X241631429Y-121977143D02*
X241688572Y-121920000D01*
X241802858Y-121862857D01*
X241974286Y-121862857D01*
X242088572Y-121920000D01*
X242145715Y-122034286D01*
X242145715Y-122662857D01*
X242145715Y-122034286D02*
X242202858Y-121920000D01*
X242317144Y-121862857D01*
X242488572Y-121862857D01*
X242602858Y-121920000D01*
X242660001Y-122034286D01*
X242660001Y-122662857D01*
X244545715Y-122034286D02*
X244717144Y-122091429D01*
X244774287Y-122148571D01*
X244831430Y-122262857D01*
X244831430Y-122434286D01*
X244774287Y-122548571D01*
X244717144Y-122605714D01*
X244602858Y-122662857D01*
X244145715Y-122662857D01*
X244145715Y-121462857D01*
X244545715Y-121462857D01*
X244660001Y-121520000D01*
X244717144Y-121577143D01*
X244774287Y-121691429D01*
X244774287Y-121805714D01*
X244717144Y-121920000D01*
X244660001Y-121977143D01*
X244545715Y-122034286D01*
X244145715Y-122034286D01*
X245745715Y-122034286D02*
X245917144Y-122091429D01*
X245974287Y-122148571D01*
X246031430Y-122262857D01*
X246031430Y-122434286D01*
X245974287Y-122548571D01*
X245917144Y-122605714D01*
X245802858Y-122662857D01*
X245345715Y-122662857D01*
X245345715Y-121462857D01*
X245745715Y-121462857D01*
X245860001Y-121520000D01*
X245917144Y-121577143D01*
X245974287Y-121691429D01*
X245974287Y-121805714D01*
X245917144Y-121920000D01*
X245860001Y-121977143D01*
X245745715Y-122034286D01*
X245345715Y-122034286D01*
X246945715Y-122034286D02*
X247117144Y-122091429D01*
X247174287Y-122148571D01*
X247231430Y-122262857D01*
X247231430Y-122434286D01*
X247174287Y-122548571D01*
X247117144Y-122605714D01*
X247002858Y-122662857D01*
X246545715Y-122662857D01*
X246545715Y-121462857D01*
X246945715Y-121462857D01*
X247060001Y-121520000D01*
X247117144Y-121577143D01*
X247174287Y-121691429D01*
X247174287Y-121805714D01*
X247117144Y-121920000D01*
X247060001Y-121977143D01*
X246945715Y-122034286D01*
X246545715Y-122034286D01*
X249345716Y-122548571D02*
X249288573Y-122605714D01*
X249117144Y-122662857D01*
X249002858Y-122662857D01*
X248831430Y-122605714D01*
X248717144Y-122491429D01*
X248660001Y-122377143D01*
X248602858Y-122148571D01*
X248602858Y-121977143D01*
X248660001Y-121748571D01*
X248717144Y-121634286D01*
X248831430Y-121520000D01*
X249002858Y-121462857D01*
X249117144Y-121462857D01*
X249288573Y-121520000D01*
X249345716Y-121577143D01*
X250031430Y-122662857D02*
X249917144Y-122605714D01*
X249860001Y-122548571D01*
X249802858Y-122434286D01*
X249802858Y-122091429D01*
X249860001Y-121977143D01*
X249917144Y-121920000D01*
X250031430Y-121862857D01*
X250202858Y-121862857D01*
X250317144Y-121920000D01*
X250374287Y-121977143D01*
X250431430Y-122091429D01*
X250431430Y-122434286D01*
X250374287Y-122548571D01*
X250317144Y-122605714D01*
X250202858Y-122662857D01*
X250031430Y-122662857D01*
X250945715Y-121862857D02*
X250945715Y-122662857D01*
X250945715Y-121977143D02*
X251002858Y-121920000D01*
X251117144Y-121862857D01*
X251288572Y-121862857D01*
X251402858Y-121920000D01*
X251460001Y-122034286D01*
X251460001Y-122662857D01*
X251860001Y-121862857D02*
X252317144Y-121862857D01*
X252031429Y-121462857D02*
X252031429Y-122491429D01*
X252088572Y-122605714D01*
X252202858Y-122662857D01*
X252317144Y-122662857D01*
X252717143Y-122662857D02*
X252717143Y-121862857D01*
X252717143Y-122091429D02*
X252774286Y-121977143D01*
X252831429Y-121920000D01*
X252945715Y-121862857D01*
X253060000Y-121862857D01*
X253631429Y-122662857D02*
X253517143Y-122605714D01*
X253460000Y-122548571D01*
X253402857Y-122434286D01*
X253402857Y-122091429D01*
X253460000Y-121977143D01*
X253517143Y-121920000D01*
X253631429Y-121862857D01*
X253802857Y-121862857D01*
X253917143Y-121920000D01*
X253974286Y-121977143D01*
X254031429Y-122091429D01*
X254031429Y-122434286D01*
X253974286Y-122548571D01*
X253917143Y-122605714D01*
X253802857Y-122662857D01*
X253631429Y-122662857D01*
X254717143Y-122662857D02*
X254602857Y-122605714D01*
X254545714Y-122491429D01*
X254545714Y-121462857D01*
X255345714Y-122662857D02*
X255231428Y-122605714D01*
X255174285Y-122491429D01*
X255174285Y-121462857D01*
X256259999Y-122605714D02*
X256145713Y-122662857D01*
X255917142Y-122662857D01*
X255802856Y-122605714D01*
X255745713Y-122491429D01*
X255745713Y-122034286D01*
X255802856Y-121920000D01*
X255917142Y-121862857D01*
X256145713Y-121862857D01*
X256259999Y-121920000D01*
X256317142Y-122034286D01*
X256317142Y-122148571D01*
X255745713Y-122262857D01*
X256831427Y-122662857D02*
X256831427Y-121862857D01*
X256831427Y-122091429D02*
X256888570Y-121977143D01*
X256945713Y-121920000D01*
X257059999Y-121862857D01*
X257174284Y-121862857D01*
X242288571Y-123462857D02*
X242288571Y-124320000D01*
X242231429Y-124491429D01*
X242117143Y-124605714D01*
X241945714Y-124662857D01*
X241831429Y-124662857D01*
X243374286Y-123862857D02*
X243374286Y-124662857D01*
X242860000Y-123862857D02*
X242860000Y-124491429D01*
X242917143Y-124605714D01*
X243031429Y-124662857D01*
X243202857Y-124662857D01*
X243317143Y-124605714D01*
X243374286Y-124548571D01*
X243260000Y-123405714D02*
X243088572Y-123577143D01*
X244117143Y-124662857D02*
X244002857Y-124605714D01*
X243945714Y-124491429D01*
X243945714Y-123462857D01*
X244574285Y-124662857D02*
X244574285Y-123862857D01*
X244574285Y-123462857D02*
X244517142Y-123520000D01*
X244574285Y-123577143D01*
X244631428Y-123520000D01*
X244574285Y-123462857D01*
X244574285Y-123577143D01*
X245660000Y-124662857D02*
X245660000Y-124034286D01*
X245602857Y-123920000D01*
X245488571Y-123862857D01*
X245260000Y-123862857D01*
X245145714Y-123920000D01*
X245660000Y-124605714D02*
X245545714Y-124662857D01*
X245260000Y-124662857D01*
X245145714Y-124605714D01*
X245088571Y-124491429D01*
X245088571Y-124377143D01*
X245145714Y-124262857D01*
X245260000Y-124205714D01*
X245545714Y-124205714D01*
X245660000Y-124148571D01*
X247774286Y-123520000D02*
X247660000Y-123462857D01*
X247488571Y-123462857D01*
X247317143Y-123520000D01*
X247202857Y-123634286D01*
X247145714Y-123748571D01*
X247088571Y-123977143D01*
X247088571Y-124148571D01*
X247145714Y-124377143D01*
X247202857Y-124491429D01*
X247317143Y-124605714D01*
X247488571Y-124662857D01*
X247602857Y-124662857D01*
X247774286Y-124605714D01*
X247831429Y-124548571D01*
X247831429Y-124148571D01*
X247602857Y-124148571D01*
X248345714Y-124662857D02*
X248345714Y-123862857D01*
X248345714Y-123462857D02*
X248288571Y-123520000D01*
X248345714Y-123577143D01*
X248402857Y-123520000D01*
X248345714Y-123462857D01*
X248345714Y-123577143D01*
X249431429Y-124662857D02*
X249431429Y-124034286D01*
X249374286Y-123920000D01*
X249260000Y-123862857D01*
X249031429Y-123862857D01*
X248917143Y-123920000D01*
X249431429Y-124605714D02*
X249317143Y-124662857D01*
X249031429Y-124662857D01*
X248917143Y-124605714D01*
X248860000Y-124491429D01*
X248860000Y-124377143D01*
X248917143Y-124262857D01*
X249031429Y-124205714D01*
X249317143Y-124205714D01*
X249431429Y-124148571D01*
X249831429Y-123862857D02*
X250288572Y-123862857D01*
X250002857Y-123462857D02*
X250002857Y-124491429D01*
X250060000Y-124605714D01*
X250174286Y-124662857D01*
X250288572Y-124662857D01*
X250517143Y-123862857D02*
X250974286Y-123862857D01*
X250688571Y-123462857D02*
X250688571Y-124491429D01*
X250745714Y-124605714D01*
X250860000Y-124662857D01*
X250974286Y-124662857D01*
X251374285Y-124662857D02*
X251374285Y-123862857D01*
X251374285Y-123462857D02*
X251317142Y-123520000D01*
X251374285Y-123577143D01*
X251431428Y-123520000D01*
X251374285Y-123462857D01*
X251374285Y-123577143D01*
X240374286Y-126662857D02*
X240374286Y-125462857D01*
X240831429Y-125462857D01*
X240945715Y-125520000D01*
X241002858Y-125577143D01*
X241060001Y-125691429D01*
X241060001Y-125862857D01*
X241002858Y-125977143D01*
X240945715Y-126034286D01*
X240831429Y-126091429D01*
X240374286Y-126091429D01*
X242088572Y-126662857D02*
X242088572Y-126034286D01*
X242031429Y-125920000D01*
X241917143Y-125862857D01*
X241688572Y-125862857D01*
X241574286Y-125920000D01*
X242088572Y-126605714D02*
X241974286Y-126662857D01*
X241688572Y-126662857D01*
X241574286Y-126605714D01*
X241517143Y-126491429D01*
X241517143Y-126377143D01*
X241574286Y-126262857D01*
X241688572Y-126205714D01*
X241974286Y-126205714D01*
X242088572Y-126148571D01*
X242488572Y-125862857D02*
X242945715Y-125862857D01*
X242660000Y-125462857D02*
X242660000Y-126491429D01*
X242717143Y-126605714D01*
X242831429Y-126662857D01*
X242945715Y-126662857D01*
X243345714Y-126662857D02*
X243345714Y-125862857D01*
X243345714Y-126091429D02*
X243402857Y-125977143D01*
X243460000Y-125920000D01*
X243574286Y-125862857D01*
X243688571Y-125862857D01*
X244088571Y-126662857D02*
X244088571Y-125862857D01*
X244202857Y-125405714D02*
X244031428Y-125577143D01*
X245174286Y-126605714D02*
X245060000Y-126662857D01*
X244831429Y-126662857D01*
X244717143Y-126605714D01*
X244660000Y-126548571D01*
X244602857Y-126434286D01*
X244602857Y-126091429D01*
X244660000Y-125977143D01*
X244717143Y-125920000D01*
X244831429Y-125862857D01*
X245060000Y-125862857D01*
X245174286Y-125920000D01*
X245688571Y-126662857D02*
X245688571Y-125862857D01*
X245688571Y-125462857D02*
X245631428Y-125520000D01*
X245688571Y-125577143D01*
X245745714Y-125520000D01*
X245688571Y-125462857D01*
X245688571Y-125577143D01*
X246774286Y-126662857D02*
X246774286Y-126034286D01*
X246717143Y-125920000D01*
X246602857Y-125862857D01*
X246374286Y-125862857D01*
X246260000Y-125920000D01*
X246774286Y-126605714D02*
X246660000Y-126662857D01*
X246374286Y-126662857D01*
X246260000Y-126605714D01*
X246202857Y-126491429D01*
X246202857Y-126377143D01*
X246260000Y-126262857D01*
X246374286Y-126205714D01*
X246660000Y-126205714D01*
X246774286Y-126148571D01*
X248260000Y-126662857D02*
X248260000Y-125462857D01*
X248945715Y-126662857D01*
X248945715Y-125462857D01*
X250031429Y-126662857D02*
X250031429Y-126034286D01*
X249974286Y-125920000D01*
X249860000Y-125862857D01*
X249631429Y-125862857D01*
X249517143Y-125920000D01*
X250031429Y-126605714D02*
X249917143Y-126662857D01*
X249631429Y-126662857D01*
X249517143Y-126605714D01*
X249460000Y-126491429D01*
X249460000Y-126377143D01*
X249517143Y-126262857D01*
X249631429Y-126205714D01*
X249917143Y-126205714D01*
X250031429Y-126148571D01*
X250774286Y-126662857D02*
X250660000Y-126605714D01*
X250602857Y-126491429D01*
X250602857Y-125462857D01*
X251402857Y-126662857D02*
X251288571Y-126605714D01*
X251231428Y-126491429D01*
X251231428Y-125462857D01*
X251859999Y-126662857D02*
X251859999Y-125862857D01*
X251859999Y-125462857D02*
X251802856Y-125520000D01*
X251859999Y-125577143D01*
X251917142Y-125520000D01*
X251859999Y-125462857D01*
X251859999Y-125577143D01*
X252431428Y-125862857D02*
X252431428Y-126662857D01*
X252431428Y-125977143D02*
X252488571Y-125920000D01*
X252602857Y-125862857D01*
X252774285Y-125862857D01*
X252888571Y-125920000D01*
X252945714Y-126034286D01*
X252945714Y-126662857D01*
X243145716Y-128662857D02*
X242745716Y-128091429D01*
X242460001Y-128662857D02*
X242460001Y-127462857D01*
X242917144Y-127462857D01*
X243031430Y-127520000D01*
X243088573Y-127577143D01*
X243145716Y-127691429D01*
X243145716Y-127862857D01*
X243088573Y-127977143D01*
X243031430Y-128034286D01*
X242917144Y-128091429D01*
X242460001Y-128091429D01*
X244174287Y-128662857D02*
X244174287Y-128034286D01*
X244117144Y-127920000D01*
X244002858Y-127862857D01*
X243774287Y-127862857D01*
X243660001Y-127920000D01*
X244174287Y-128605714D02*
X244060001Y-128662857D01*
X243774287Y-128662857D01*
X243660001Y-128605714D01*
X243602858Y-128491429D01*
X243602858Y-128377143D01*
X243660001Y-128262857D01*
X243774287Y-128205714D01*
X244060001Y-128205714D01*
X244174287Y-128148571D01*
X244574287Y-127862857D02*
X245031430Y-127862857D01*
X244745715Y-128662857D02*
X244745715Y-127634286D01*
X244802858Y-127520000D01*
X244917144Y-127462857D01*
X245031430Y-127462857D01*
X245945715Y-128662857D02*
X245945715Y-128034286D01*
X245888572Y-127920000D01*
X245774286Y-127862857D01*
X245545715Y-127862857D01*
X245431429Y-127920000D01*
X245945715Y-128605714D02*
X245831429Y-128662857D01*
X245545715Y-128662857D01*
X245431429Y-128605714D01*
X245374286Y-128491429D01*
X245374286Y-128377143D01*
X245431429Y-128262857D01*
X245545715Y-128205714D01*
X245831429Y-128205714D01*
X245945715Y-128148571D01*
X246974286Y-128605714D02*
X246860000Y-128662857D01*
X246631429Y-128662857D01*
X246517143Y-128605714D01*
X246460000Y-128491429D01*
X246460000Y-128034286D01*
X246517143Y-127920000D01*
X246631429Y-127862857D01*
X246860000Y-127862857D01*
X246974286Y-127920000D01*
X247031429Y-128034286D01*
X247031429Y-128148571D01*
X246460000Y-128262857D01*
X247717143Y-128662857D02*
X247602857Y-128605714D01*
X247545714Y-128491429D01*
X247545714Y-127462857D01*
X249088571Y-128662857D02*
X249088571Y-127462857D01*
X249488572Y-127862857D02*
X249945715Y-127862857D01*
X249660000Y-127462857D02*
X249660000Y-128491429D01*
X249717143Y-128605714D01*
X249831429Y-128662857D01*
X249945715Y-128662857D01*
X250517143Y-128662857D02*
X250402857Y-128605714D01*
X250345714Y-128548571D01*
X250288571Y-128434286D01*
X250288571Y-128091429D01*
X250345714Y-127977143D01*
X250402857Y-127920000D01*
X250517143Y-127862857D01*
X250688571Y-127862857D01*
X250802857Y-127920000D01*
X250860000Y-127977143D01*
X250917143Y-128091429D01*
X250917143Y-128434286D01*
X250860000Y-128548571D01*
X250802857Y-128605714D01*
X250688571Y-128662857D01*
X250517143Y-128662857D01*
X236145715Y-129862857D02*
X236431429Y-130662857D01*
X236717143Y-129862857D01*
X237631429Y-130605714D02*
X237517143Y-130662857D01*
X237288572Y-130662857D01*
X237174286Y-130605714D01*
X237117143Y-130491429D01*
X237117143Y-130034286D01*
X237174286Y-129920000D01*
X237288572Y-129862857D01*
X237517143Y-129862857D01*
X237631429Y-129920000D01*
X237688572Y-130034286D01*
X237688572Y-130148571D01*
X237117143Y-130262857D01*
X238202857Y-130662857D02*
X238202857Y-129862857D01*
X238202857Y-130091429D02*
X238260000Y-129977143D01*
X238317143Y-129920000D01*
X238431429Y-129862857D01*
X238545714Y-129862857D01*
X238888571Y-130605714D02*
X239002857Y-130662857D01*
X239231429Y-130662857D01*
X239345714Y-130605714D01*
X239402857Y-130491429D01*
X239402857Y-130434286D01*
X239345714Y-130320000D01*
X239231429Y-130262857D01*
X239060000Y-130262857D01*
X238945714Y-130205714D01*
X238888571Y-130091429D01*
X238888571Y-130034286D01*
X238945714Y-129920000D01*
X239060000Y-129862857D01*
X239231429Y-129862857D01*
X239345714Y-129920000D01*
X240431429Y-130662857D02*
X240431429Y-130034286D01*
X240374286Y-129920000D01*
X240260000Y-129862857D01*
X240031429Y-129862857D01*
X239917143Y-129920000D01*
X240431429Y-130605714D02*
X240317143Y-130662857D01*
X240031429Y-130662857D01*
X239917143Y-130605714D01*
X239860000Y-130491429D01*
X239860000Y-130377143D01*
X239917143Y-130262857D01*
X240031429Y-130205714D01*
X240317143Y-130205714D01*
X240431429Y-130148571D01*
X239860000Y-129577143D02*
X239917143Y-129520000D01*
X240031429Y-129462857D01*
X240260000Y-129577143D01*
X240374286Y-129520000D01*
X240431429Y-129462857D01*
X241174286Y-130662857D02*
X241060000Y-130605714D01*
X241002857Y-130548571D01*
X240945714Y-130434286D01*
X240945714Y-130091429D01*
X241002857Y-129977143D01*
X241060000Y-129920000D01*
X241174286Y-129862857D01*
X241345714Y-129862857D01*
X241460000Y-129920000D01*
X241517143Y-129977143D01*
X241574286Y-130091429D01*
X241574286Y-130434286D01*
X241517143Y-130548571D01*
X241460000Y-130605714D01*
X241345714Y-130662857D01*
X241174286Y-130662857D01*
X242945714Y-129577143D02*
X243002857Y-129520000D01*
X243117143Y-129462857D01*
X243402857Y-129462857D01*
X243517143Y-129520000D01*
X243574286Y-129577143D01*
X243631429Y-129691429D01*
X243631429Y-129805714D01*
X243574286Y-129977143D01*
X242888572Y-130662857D01*
X243631429Y-130662857D01*
X244145714Y-130548571D02*
X244202857Y-130605714D01*
X244145714Y-130662857D01*
X244088571Y-130605714D01*
X244145714Y-130548571D01*
X244145714Y-130662857D01*
X245345715Y-130662857D02*
X244660000Y-130662857D01*
X245002858Y-130662857D02*
X245002858Y-129462857D01*
X244888572Y-129634286D01*
X244774286Y-129748571D01*
X244660000Y-129805714D01*
X246774286Y-130205714D02*
X247688572Y-130205714D01*
X249517143Y-129462857D02*
X249517143Y-130320000D01*
X249460001Y-130491429D01*
X249345715Y-130605714D01*
X249174286Y-130662857D01*
X249060001Y-130662857D01*
X250602858Y-129862857D02*
X250602858Y-130662857D01*
X250088572Y-129862857D02*
X250088572Y-130491429D01*
X250145715Y-130605714D01*
X250260001Y-130662857D01*
X250431429Y-130662857D01*
X250545715Y-130605714D01*
X250602858Y-130548571D01*
X251345715Y-130662857D02*
X251231429Y-130605714D01*
X251174286Y-130491429D01*
X251174286Y-129462857D01*
X252660000Y-129405714D02*
X251631429Y-130948571D01*
X253002857Y-129577143D02*
X253060000Y-129520000D01*
X253174286Y-129462857D01*
X253460000Y-129462857D01*
X253574286Y-129520000D01*
X253631429Y-129577143D01*
X253688572Y-129691429D01*
X253688572Y-129805714D01*
X253631429Y-129977143D01*
X252945715Y-130662857D01*
X253688572Y-130662857D01*
X254431429Y-129462857D02*
X254545714Y-129462857D01*
X254660000Y-129520000D01*
X254717143Y-129577143D01*
X254774286Y-129691429D01*
X254831429Y-129920000D01*
X254831429Y-130205714D01*
X254774286Y-130434286D01*
X254717143Y-130548571D01*
X254660000Y-130605714D01*
X254545714Y-130662857D01*
X254431429Y-130662857D01*
X254317143Y-130605714D01*
X254260000Y-130548571D01*
X254202857Y-130434286D01*
X254145714Y-130205714D01*
X254145714Y-129920000D01*
X254202857Y-129691429D01*
X254260000Y-129577143D01*
X254317143Y-129520000D01*
X254431429Y-129462857D01*
X255974286Y-130662857D02*
X255288571Y-130662857D01*
X255631429Y-130662857D02*
X255631429Y-129462857D01*
X255517143Y-129634286D01*
X255402857Y-129748571D01*
X255288571Y-129805714D01*
X256660000Y-129977143D02*
X256545714Y-129920000D01*
X256488571Y-129862857D01*
X256431428Y-129748571D01*
X256431428Y-129691429D01*
X256488571Y-129577143D01*
X256545714Y-129520000D01*
X256660000Y-129462857D01*
X256888571Y-129462857D01*
X257002857Y-129520000D01*
X257060000Y-129577143D01*
X257117143Y-129691429D01*
X257117143Y-129748571D01*
X257060000Y-129862857D01*
X257002857Y-129920000D01*
X256888571Y-129977143D01*
X256660000Y-129977143D01*
X256545714Y-130034286D01*
X256488571Y-130091429D01*
X256431428Y-130205714D01*
X256431428Y-130434286D01*
X256488571Y-130548571D01*
X256545714Y-130605714D01*
X256660000Y-130662857D01*
X256888571Y-130662857D01*
X257002857Y-130605714D01*
X257060000Y-130548571D01*
X257117143Y-130434286D01*
X257117143Y-130205714D01*
X257060000Y-130091429D01*
X257002857Y-130034286D01*
X256888571Y-129977143D01*
D12*
X139300000Y-68545000D02*
X140500000Y-68545000D01*
X140500000Y-70295000D02*
X139300000Y-70295000D01*
D13*
X200734820Y-75983060D02*
X199524820Y-75983060D01*
X200734820Y-74683060D02*
X200734820Y-75983060D01*
X200574820Y-75833060D02*
X200574820Y-55163060D01*
X200574820Y-55163060D02*
X190254820Y-55163060D01*
X190254820Y-55163060D02*
X190254820Y-75833060D01*
X190254820Y-75833060D02*
X200574820Y-75833060D01*
X196924820Y-75833060D02*
X196924820Y-74793060D01*
X196924820Y-74773060D02*
X193924820Y-74773060D01*
X193924820Y-74773060D02*
X193924820Y-75833060D01*
X195754820Y-73993060D02*
X196854820Y-73993060D01*
X195054820Y-73993060D02*
X193954820Y-73993060D01*
X195754820Y-73823060D02*
X195054820Y-74223060D01*
X195754820Y-74623060D02*
X195754820Y-73423060D01*
X195754820Y-73423060D02*
X195054820Y-73423060D01*
X195054820Y-73423060D02*
X195054820Y-74623060D01*
X195054820Y-74623060D02*
X195754820Y-74623060D01*
X202068240Y-122429500D02*
X200858240Y-122429500D01*
X202068240Y-121129500D02*
X202068240Y-122429500D01*
X201908240Y-122279500D02*
X201908240Y-101609500D01*
X201908240Y-101609500D02*
X191588240Y-101609500D01*
X191588240Y-101609500D02*
X191588240Y-122279500D01*
X191588240Y-122279500D02*
X201908240Y-122279500D01*
X198258240Y-122279500D02*
X198258240Y-121239500D01*
X198258240Y-121219500D02*
X195258240Y-121219500D01*
X195258240Y-121219500D02*
X195258240Y-122279500D01*
X197088240Y-120439500D02*
X198188240Y-120439500D01*
X196388240Y-120439500D02*
X195288240Y-120439500D01*
X197088240Y-120269500D02*
X196388240Y-120669500D01*
X197088240Y-121069500D02*
X197088240Y-119869500D01*
X197088240Y-119869500D02*
X196388240Y-119869500D01*
X196388240Y-119869500D02*
X196388240Y-121069500D01*
X196388240Y-121069500D02*
X197088240Y-121069500D01*
X233155340Y-122541260D02*
X231945340Y-122541260D01*
X233155340Y-121241260D02*
X233155340Y-122541260D01*
X232995340Y-122391260D02*
X232995340Y-101721260D01*
X232995340Y-101721260D02*
X222675340Y-101721260D01*
X222675340Y-101721260D02*
X222675340Y-122391260D01*
X222675340Y-122391260D02*
X232995340Y-122391260D01*
X229345340Y-122391260D02*
X229345340Y-121351260D01*
X229345340Y-121331260D02*
X226345340Y-121331260D01*
X226345340Y-121331260D02*
X226345340Y-122391260D01*
X228175340Y-120551260D02*
X229275340Y-120551260D01*
X227475340Y-120551260D02*
X226375340Y-120551260D01*
X228175340Y-120381260D02*
X227475340Y-120781260D01*
X228175340Y-121181260D02*
X228175340Y-119981260D01*
X228175340Y-119981260D02*
X227475340Y-119981260D01*
X227475340Y-119981260D02*
X227475340Y-121181260D01*
X227475340Y-121181260D02*
X228175340Y-121181260D01*
X226691000Y-75807000D02*
X225481000Y-75807000D01*
X226691000Y-74507000D02*
X226691000Y-75807000D01*
X226531000Y-75657000D02*
X226531000Y-54987000D01*
X226531000Y-54987000D02*
X216211000Y-54987000D01*
X216211000Y-54987000D02*
X216211000Y-75657000D01*
X216211000Y-75657000D02*
X226531000Y-75657000D01*
X222881000Y-75657000D02*
X222881000Y-74617000D01*
X222881000Y-74597000D02*
X219881000Y-74597000D01*
X219881000Y-74597000D02*
X219881000Y-75657000D01*
X221711000Y-73817000D02*
X222811000Y-73817000D01*
X221011000Y-73817000D02*
X219911000Y-73817000D01*
X221711000Y-73647000D02*
X221011000Y-74047000D01*
X221711000Y-74447000D02*
X221711000Y-73247000D01*
X221711000Y-73247000D02*
X221011000Y-73247000D01*
X221011000Y-73247000D02*
X221011000Y-74447000D01*
X221011000Y-74447000D02*
X221711000Y-74447000D01*
X250230000Y-69180000D02*
X250230000Y-67980000D01*
X251990000Y-67980000D02*
X251990000Y-69180000D01*
X246050000Y-71930000D02*
X246050000Y-70730000D01*
X247810000Y-70730000D02*
X247810000Y-71930000D01*
X252025000Y-54180000D02*
X250825000Y-54180000D01*
X250825000Y-52420000D02*
X252025000Y-52420000D01*
X247625000Y-58355000D02*
X246425000Y-58355000D01*
X246425000Y-56595000D02*
X247625000Y-56595000D01*
D12*
X134541500Y-112057500D02*
G75*
G03X134541500Y-112057500I-127000J0D01*
G01*
X134795500Y-112438500D02*
X135557500Y-112438500D01*
X134795500Y-110279500D02*
X134795500Y-110406500D01*
X132509500Y-110279500D02*
X132509500Y-110406500D01*
X132509500Y-112565500D02*
X132509500Y-112438500D01*
X134795500Y-112565500D02*
X134795500Y-112438500D01*
X134795500Y-110279500D02*
X132509500Y-110279500D01*
X132509500Y-112565500D02*
X134795500Y-112565500D01*
X137241500Y-104337500D02*
G75*
G03X137241500Y-104337500I-127000J0D01*
G01*
X137495500Y-104718500D02*
X138257500Y-104718500D01*
X137495500Y-102559500D02*
X137495500Y-102686500D01*
X135209500Y-102559500D02*
X135209500Y-102686500D01*
X135209500Y-104845500D02*
X135209500Y-104718500D01*
X137495500Y-104845500D02*
X137495500Y-104718500D01*
X137495500Y-102559500D02*
X135209500Y-102559500D01*
X135209500Y-104845500D02*
X137495500Y-104845500D01*
X150645000Y-64965000D02*
X150990000Y-64965000D01*
X150645000Y-57215000D02*
X150990000Y-57215000D01*
X168895000Y-57215000D02*
X168550000Y-57215000D01*
X168895000Y-64965000D02*
X168550000Y-64965000D01*
X150645000Y-64965000D02*
X150645000Y-57215000D01*
X168895000Y-64965000D02*
X168895000Y-57215000D01*
X150990000Y-64965000D02*
X150990000Y-66790000D01*
X163727500Y-108087500D02*
X163727500Y-107732500D01*
X155977500Y-108087500D02*
X155977500Y-107732500D01*
X155977500Y-97437500D02*
X155977500Y-97792500D01*
X163727500Y-97437500D02*
X163727500Y-97792500D01*
X163727500Y-108087500D02*
X155977500Y-108087500D01*
X163727500Y-97437500D02*
X155977500Y-97437500D01*
X163727500Y-107732500D02*
X165252500Y-107732500D01*
X171577500Y-100937500D02*
X171577500Y-101587500D01*
X177327500Y-100937500D02*
X177327500Y-101587500D01*
X177327500Y-111587500D02*
X177327500Y-110937500D01*
X171577500Y-111587500D02*
X171577500Y-110937500D01*
X171577500Y-100937500D02*
X177327500Y-100937500D01*
X171577500Y-111587500D02*
X177327500Y-111587500D01*
X171577500Y-101587500D02*
X169977500Y-101587500D01*
X174765000Y-58070000D02*
X174765000Y-59270000D01*
X173015000Y-59270000D02*
X173015000Y-58070000D01*
X164170000Y-69575000D02*
X165370000Y-69575000D01*
X165370000Y-71325000D02*
X164170000Y-71325000D01*
X139320000Y-77855000D02*
X140520000Y-77855000D01*
X140520000Y-79605000D02*
X139320000Y-79605000D01*
X165360000Y-123875000D02*
X166560000Y-123875000D01*
X166560000Y-125625000D02*
X165360000Y-125625000D01*
X171880000Y-70370000D02*
X172880000Y-70370000D01*
X172880000Y-68670000D02*
X171880000Y-68670000D01*
X168970000Y-78090000D02*
X167970000Y-78090000D01*
X167970000Y-79790000D02*
X168970000Y-79790000D01*
X150045000Y-44990000D02*
X150045000Y-46990000D01*
X152995000Y-46990000D02*
X152995000Y-44990000D01*
X148602500Y-106462500D02*
X148602500Y-107462500D01*
X150302500Y-107462500D02*
X150302500Y-106462500D01*
X151402500Y-106462500D02*
X151402500Y-107462500D01*
X153102500Y-107462500D02*
X153102500Y-106462500D01*
X183150000Y-106610000D02*
X183150000Y-107610000D01*
X184850000Y-107610000D02*
X184850000Y-106610000D01*
X166652500Y-106712500D02*
X166652500Y-107712500D01*
X168352500Y-107712500D02*
X168352500Y-106712500D01*
X165510000Y-129450000D02*
X166510000Y-129450000D01*
X166510000Y-127750000D02*
X165510000Y-127750000D01*
X165570000Y-121340000D02*
X166570000Y-121340000D01*
X166570000Y-119640000D02*
X165570000Y-119640000D01*
X164350000Y-118135000D02*
X166350000Y-118135000D01*
X166350000Y-115185000D02*
X164350000Y-115185000D01*
X146127500Y-110822500D02*
X146127500Y-112022500D01*
X144377500Y-112022500D02*
X144377500Y-110822500D01*
X145627500Y-102802500D02*
X145627500Y-104002500D01*
X143877500Y-104002500D02*
X143877500Y-102802500D01*
X141277500Y-112022500D02*
X141277500Y-110822500D01*
X143027500Y-110822500D02*
X143027500Y-112022500D01*
X140977500Y-104002500D02*
X140977500Y-102802500D01*
X142727500Y-102802500D02*
X142727500Y-104002500D01*
X138077500Y-112022500D02*
X138077500Y-110822500D01*
X139827500Y-110822500D02*
X139827500Y-112022500D01*
D13*
X255610000Y-70840000D02*
X256810000Y-70840000D01*
X256810000Y-72600000D02*
X255610000Y-72600000D01*
X255740000Y-64920000D02*
X256940000Y-64920000D01*
X256940000Y-66680000D02*
X255740000Y-66680000D01*
D14*
G36*
X250124287Y-116564795D02*
X250129937Y-116585488D01*
X250147860Y-116676207D01*
X250167997Y-116815123D01*
X250186056Y-116972552D01*
X250186423Y-116976257D01*
X250202664Y-117120152D01*
X250219204Y-117233088D01*
X250232737Y-117292875D01*
X250233941Y-117295323D01*
X250271517Y-117293959D01*
X250337803Y-117247841D01*
X250346584Y-117239810D01*
X250427171Y-117181416D01*
X250466132Y-117183280D01*
X250453749Y-117234314D01*
X250401231Y-117302153D01*
X250346563Y-117373599D01*
X250332479Y-117421078D01*
X250334706Y-117424501D01*
X250382047Y-117438456D01*
X250489177Y-117455752D01*
X250637961Y-117473742D01*
X250741912Y-117483968D01*
X250949872Y-117503713D01*
X251083016Y-117519446D01*
X251144486Y-117532652D01*
X251137427Y-117544810D01*
X251064981Y-117557405D01*
X250930292Y-117571917D01*
X250928769Y-117572065D01*
X250755103Y-117589439D01*
X250581010Y-117607764D01*
X250466260Y-117620549D01*
X250277289Y-117642564D01*
X250385257Y-117755259D01*
X250452237Y-117841092D01*
X250465054Y-117890823D01*
X250429727Y-117893612D01*
X250352272Y-117838621D01*
X250343481Y-117830505D01*
X250290580Y-117784908D01*
X250254411Y-117772849D01*
X250230076Y-117804153D01*
X250212677Y-117888645D01*
X250197317Y-118036149D01*
X250188473Y-118141455D01*
X250166980Y-118326987D01*
X250139105Y-118442732D01*
X250105891Y-118485825D01*
X250072419Y-118460330D01*
X250057841Y-118404402D01*
X250041498Y-118292141D01*
X250026397Y-118145222D01*
X250023139Y-118105232D01*
X250007231Y-117936215D01*
X249988552Y-117836962D01*
X249962852Y-117799098D01*
X249925880Y-117814248D01*
X249893231Y-117849230D01*
X249836821Y-117898354D01*
X249810292Y-117907846D01*
X249776907Y-117882223D01*
X249788649Y-117820816D01*
X249839358Y-117746812D01*
X249857885Y-117728623D01*
X249939769Y-117654518D01*
X249848115Y-117628769D01*
X249754294Y-117612147D01*
X249622862Y-117599841D01*
X249561077Y-117596873D01*
X249406188Y-117586525D01*
X249252865Y-117567983D01*
X249209385Y-117560515D01*
X249132355Y-117544468D01*
X249108454Y-117533148D01*
X249144742Y-117523081D01*
X249248276Y-117510792D01*
X249326615Y-117502815D01*
X249495889Y-117485185D01*
X249661507Y-117466932D01*
X249770617Y-117454072D01*
X249941081Y-117432818D01*
X249832082Y-117319047D01*
X249765384Y-117233719D01*
X249751127Y-117182892D01*
X249783981Y-117177783D01*
X249858616Y-117229611D01*
X249869724Y-117239810D01*
X249937596Y-117290502D01*
X249979525Y-117297960D01*
X249981672Y-117295323D01*
X249994984Y-117242217D01*
X250011520Y-117135265D01*
X250026441Y-117009076D01*
X250044416Y-116850964D01*
X250063964Y-116702871D01*
X250077210Y-116618307D01*
X250094407Y-116530892D01*
X250107121Y-116514909D01*
X250124287Y-116564795D01*
X250124287Y-116564795D01*
G37*
X250124287Y-116564795D02*
X250129937Y-116585488D01*
X250147860Y-116676207D01*
X250167997Y-116815123D01*
X250186056Y-116972552D01*
X250186423Y-116976257D01*
X250202664Y-117120152D01*
X250219204Y-117233088D01*
X250232737Y-117292875D01*
X250233941Y-117295323D01*
X250271517Y-117293959D01*
X250337803Y-117247841D01*
X250346584Y-117239810D01*
X250427171Y-117181416D01*
X250466132Y-117183280D01*
X250453749Y-117234314D01*
X250401231Y-117302153D01*
X250346563Y-117373599D01*
X250332479Y-117421078D01*
X250334706Y-117424501D01*
X250382047Y-117438456D01*
X250489177Y-117455752D01*
X250637961Y-117473742D01*
X250741912Y-117483968D01*
X250949872Y-117503713D01*
X251083016Y-117519446D01*
X251144486Y-117532652D01*
X251137427Y-117544810D01*
X251064981Y-117557405D01*
X250930292Y-117571917D01*
X250928769Y-117572065D01*
X250755103Y-117589439D01*
X250581010Y-117607764D01*
X250466260Y-117620549D01*
X250277289Y-117642564D01*
X250385257Y-117755259D01*
X250452237Y-117841092D01*
X250465054Y-117890823D01*
X250429727Y-117893612D01*
X250352272Y-117838621D01*
X250343481Y-117830505D01*
X250290580Y-117784908D01*
X250254411Y-117772849D01*
X250230076Y-117804153D01*
X250212677Y-117888645D01*
X250197317Y-118036149D01*
X250188473Y-118141455D01*
X250166980Y-118326987D01*
X250139105Y-118442732D01*
X250105891Y-118485825D01*
X250072419Y-118460330D01*
X250057841Y-118404402D01*
X250041498Y-118292141D01*
X250026397Y-118145222D01*
X250023139Y-118105232D01*
X250007231Y-117936215D01*
X249988552Y-117836962D01*
X249962852Y-117799098D01*
X249925880Y-117814248D01*
X249893231Y-117849230D01*
X249836821Y-117898354D01*
X249810292Y-117907846D01*
X249776907Y-117882223D01*
X249788649Y-117820816D01*
X249839358Y-117746812D01*
X249857885Y-117728623D01*
X249939769Y-117654518D01*
X249848115Y-117628769D01*
X249754294Y-117612147D01*
X249622862Y-117599841D01*
X249561077Y-117596873D01*
X249406188Y-117586525D01*
X249252865Y-117567983D01*
X249209385Y-117560515D01*
X249132355Y-117544468D01*
X249108454Y-117533148D01*
X249144742Y-117523081D01*
X249248276Y-117510792D01*
X249326615Y-117502815D01*
X249495889Y-117485185D01*
X249661507Y-117466932D01*
X249770617Y-117454072D01*
X249941081Y-117432818D01*
X249832082Y-117319047D01*
X249765384Y-117233719D01*
X249751127Y-117182892D01*
X249783981Y-117177783D01*
X249858616Y-117229611D01*
X249869724Y-117239810D01*
X249937596Y-117290502D01*
X249979525Y-117297960D01*
X249981672Y-117295323D01*
X249994984Y-117242217D01*
X250011520Y-117135265D01*
X250026441Y-117009076D01*
X250044416Y-116850964D01*
X250063964Y-116702871D01*
X250077210Y-116618307D01*
X250094407Y-116530892D01*
X250107121Y-116514909D01*
X250124287Y-116564795D01*
G36*
X252087469Y-117167974D02*
X252161775Y-117179448D01*
X252193010Y-117205364D01*
X252198769Y-117243538D01*
X252189826Y-117287936D01*
X252150871Y-117311541D01*
X252063714Y-117320698D01*
X251974077Y-117321905D01*
X251749385Y-117322119D01*
X252013154Y-117480378D01*
X252156533Y-117572537D01*
X252239813Y-117643401D01*
X252274277Y-117703493D01*
X252276923Y-117726349D01*
X252262315Y-117812341D01*
X252210265Y-117867264D01*
X252108436Y-117897025D01*
X251944491Y-117907531D01*
X251897877Y-117907846D01*
X251750445Y-117905901D01*
X251664734Y-117897073D01*
X251624346Y-117876869D01*
X251612884Y-117840797D01*
X251612615Y-117829692D01*
X251620882Y-117786712D01*
X251657387Y-117763039D01*
X251739692Y-117753016D01*
X251856846Y-117751007D01*
X252101077Y-117750477D01*
X251856846Y-117605715D01*
X251724678Y-117522151D01*
X251649366Y-117458032D01*
X251617084Y-117399452D01*
X251612615Y-117360060D01*
X251628143Y-117263587D01*
X251683111Y-117203788D01*
X251790101Y-117173460D01*
X251952585Y-117165384D01*
X252087469Y-117167974D01*
X252087469Y-117167974D01*
G37*
X252087469Y-117167974D02*
X252161775Y-117179448D01*
X252193010Y-117205364D01*
X252198769Y-117243538D01*
X252189826Y-117287936D01*
X252150871Y-117311541D01*
X252063714Y-117320698D01*
X251974077Y-117321905D01*
X251749385Y-117322119D01*
X252013154Y-117480378D01*
X252156533Y-117572537D01*
X252239813Y-117643401D01*
X252274277Y-117703493D01*
X252276923Y-117726349D01*
X252262315Y-117812341D01*
X252210265Y-117867264D01*
X252108436Y-117897025D01*
X251944491Y-117907531D01*
X251897877Y-117907846D01*
X251750445Y-117905901D01*
X251664734Y-117897073D01*
X251624346Y-117876869D01*
X251612884Y-117840797D01*
X251612615Y-117829692D01*
X251620882Y-117786712D01*
X251657387Y-117763039D01*
X251739692Y-117753016D01*
X251856846Y-117751007D01*
X252101077Y-117750477D01*
X251856846Y-117605715D01*
X251724678Y-117522151D01*
X251649366Y-117458032D01*
X251617084Y-117399452D01*
X251612615Y-117360060D01*
X251628143Y-117263587D01*
X251683111Y-117203788D01*
X251790101Y-117173460D01*
X251952585Y-117165384D01*
X252087469Y-117167974D01*
G36*
X252693411Y-117167962D02*
X252721954Y-117185455D01*
X252737635Y-117232504D01*
X252744307Y-117323746D01*
X252745821Y-117473821D01*
X252745846Y-117536615D01*
X252745168Y-117708593D01*
X252740564Y-117817056D01*
X252728183Y-117876644D01*
X252704172Y-117901996D01*
X252664678Y-117907752D01*
X252648154Y-117907846D01*
X252602896Y-117905268D01*
X252574353Y-117887774D01*
X252558672Y-117840726D01*
X252552001Y-117749484D01*
X252550486Y-117599409D01*
X252550461Y-117536615D01*
X252551140Y-117364637D01*
X252555743Y-117256174D01*
X252568124Y-117196586D01*
X252592136Y-117171233D01*
X252631629Y-117165478D01*
X252648154Y-117165384D01*
X252693411Y-117167962D01*
X252693411Y-117167962D01*
G37*
X252693411Y-117167962D02*
X252721954Y-117185455D01*
X252737635Y-117232504D01*
X252744307Y-117323746D01*
X252745821Y-117473821D01*
X252745846Y-117536615D01*
X252745168Y-117708593D01*
X252740564Y-117817056D01*
X252728183Y-117876644D01*
X252704172Y-117901996D01*
X252664678Y-117907752D01*
X252648154Y-117907846D01*
X252602896Y-117905268D01*
X252574353Y-117887774D01*
X252558672Y-117840726D01*
X252552001Y-117749484D01*
X252550486Y-117599409D01*
X252550461Y-117536615D01*
X252551140Y-117364637D01*
X252555743Y-117256174D01*
X252568124Y-117196586D01*
X252592136Y-117171233D01*
X252631629Y-117165478D01*
X252648154Y-117165384D01*
X252693411Y-117167962D01*
G36*
X253494238Y-117167974D02*
X253568545Y-117179448D01*
X253599779Y-117205364D01*
X253605538Y-117243538D01*
X253596210Y-117288703D01*
X253555876Y-117312231D01*
X253466016Y-117320858D01*
X253390615Y-117321692D01*
X253175692Y-117321692D01*
X253175692Y-117614769D01*
X253173846Y-117764615D01*
X253165429Y-117852536D01*
X253146122Y-117894728D01*
X253111607Y-117907386D01*
X253097538Y-117907846D01*
X253059171Y-117901532D01*
X253035907Y-117872288D01*
X253024023Y-117804660D01*
X253019796Y-117683196D01*
X253019385Y-117583507D01*
X253025283Y-117402362D01*
X253041900Y-117273926D01*
X253066277Y-117212276D01*
X253129803Y-117186708D01*
X253246700Y-117169891D01*
X253359354Y-117165384D01*
X253494238Y-117167974D01*
X253494238Y-117167974D01*
G37*
X253494238Y-117167974D02*
X253568545Y-117179448D01*
X253599779Y-117205364D01*
X253605538Y-117243538D01*
X253596210Y-117288703D01*
X253555876Y-117312231D01*
X253466016Y-117320858D01*
X253390615Y-117321692D01*
X253175692Y-117321692D01*
X253175692Y-117614769D01*
X253173846Y-117764615D01*
X253165429Y-117852536D01*
X253146122Y-117894728D01*
X253111607Y-117907386D01*
X253097538Y-117907846D01*
X253059171Y-117901532D01*
X253035907Y-117872288D01*
X253024023Y-117804660D01*
X253019796Y-117683196D01*
X253019385Y-117583507D01*
X253025283Y-117402362D01*
X253041900Y-117273926D01*
X253066277Y-117212276D01*
X253129803Y-117186708D01*
X253246700Y-117169891D01*
X253359354Y-117165384D01*
X253494238Y-117167974D01*
G36*
X254022026Y-117167962D02*
X254050569Y-117185455D01*
X254066251Y-117232504D01*
X254072922Y-117323746D01*
X254074437Y-117473821D01*
X254074461Y-117536615D01*
X254073783Y-117708593D01*
X254069179Y-117817056D01*
X254056798Y-117876644D01*
X254032787Y-117901996D01*
X253993294Y-117907752D01*
X253976769Y-117907846D01*
X253931512Y-117905268D01*
X253902969Y-117887774D01*
X253887288Y-117840726D01*
X253880616Y-117749484D01*
X253879102Y-117599409D01*
X253879077Y-117536615D01*
X253879755Y-117364637D01*
X253884359Y-117256174D01*
X253896740Y-117196586D01*
X253920751Y-117171233D01*
X253960244Y-117165478D01*
X253976769Y-117165384D01*
X254022026Y-117167962D01*
X254022026Y-117167962D01*
G37*
X254022026Y-117167962D02*
X254050569Y-117185455D01*
X254066251Y-117232504D01*
X254072922Y-117323746D01*
X254074437Y-117473821D01*
X254074461Y-117536615D01*
X254073783Y-117708593D01*
X254069179Y-117817056D01*
X254056798Y-117876644D01*
X254032787Y-117901996D01*
X253993294Y-117907752D01*
X253976769Y-117907846D01*
X253931512Y-117905268D01*
X253902969Y-117887774D01*
X253887288Y-117840726D01*
X253880616Y-117749484D01*
X253879102Y-117599409D01*
X253879077Y-117536615D01*
X253879755Y-117364637D01*
X253884359Y-117256174D01*
X253896740Y-117196586D01*
X253920751Y-117171233D01*
X253960244Y-117165478D01*
X253976769Y-117165384D01*
X254022026Y-117167962D01*
G36*
X254972521Y-117171698D02*
X254995785Y-117200942D01*
X255007669Y-117268570D01*
X255011896Y-117390033D01*
X255012308Y-117489723D01*
X255006409Y-117670868D01*
X254989792Y-117799304D01*
X254965415Y-117860953D01*
X254906323Y-117883101D01*
X254796520Y-117898859D01*
X254662108Y-117907308D01*
X254529189Y-117907526D01*
X254423863Y-117898596D01*
X254374051Y-117881794D01*
X254362392Y-117833406D01*
X254353429Y-117726289D01*
X254348523Y-117579856D01*
X254348000Y-117510564D01*
X254349352Y-117345317D01*
X254355676Y-117243202D01*
X254370367Y-117189211D01*
X254396824Y-117168336D01*
X254426154Y-117165384D01*
X254466113Y-117172306D01*
X254489558Y-117203870D01*
X254500810Y-117276271D01*
X254504185Y-117405705D01*
X254504308Y-117458461D01*
X254504308Y-117751538D01*
X254856000Y-117751538D01*
X254856000Y-117458461D01*
X254857846Y-117308614D01*
X254866263Y-117220693D01*
X254885570Y-117178502D01*
X254920086Y-117165844D01*
X254934154Y-117165384D01*
X254972521Y-117171698D01*
X254972521Y-117171698D01*
G37*
X254972521Y-117171698D02*
X254995785Y-117200942D01*
X255007669Y-117268570D01*
X255011896Y-117390033D01*
X255012308Y-117489723D01*
X255006409Y-117670868D01*
X254989792Y-117799304D01*
X254965415Y-117860953D01*
X254906323Y-117883101D01*
X254796520Y-117898859D01*
X254662108Y-117907308D01*
X254529189Y-117907526D01*
X254423863Y-117898596D01*
X254374051Y-117881794D01*
X254362392Y-117833406D01*
X254353429Y-117726289D01*
X254348523Y-117579856D01*
X254348000Y-117510564D01*
X254349352Y-117345317D01*
X254355676Y-117243202D01*
X254370367Y-117189211D01*
X254396824Y-117168336D01*
X254426154Y-117165384D01*
X254466113Y-117172306D01*
X254489558Y-117203870D01*
X254500810Y-117276271D01*
X254504185Y-117405705D01*
X254504308Y-117458461D01*
X254504308Y-117751538D01*
X254856000Y-117751538D01*
X254856000Y-117458461D01*
X254857846Y-117308614D01*
X254866263Y-117220693D01*
X254885570Y-117178502D01*
X254920086Y-117165844D01*
X254934154Y-117165384D01*
X254972521Y-117171698D01*
G36*
X255760700Y-117167974D02*
X255835006Y-117179448D01*
X255866240Y-117205364D01*
X255872000Y-117243538D01*
X255863057Y-117287936D01*
X255824102Y-117311541D01*
X255736945Y-117320698D01*
X255647308Y-117321905D01*
X255422615Y-117322119D01*
X255686385Y-117480378D01*
X255829764Y-117572537D01*
X255913044Y-117643401D01*
X255947508Y-117703493D01*
X255950154Y-117726349D01*
X255935545Y-117812341D01*
X255883495Y-117867264D01*
X255781667Y-117897025D01*
X255617722Y-117907531D01*
X255571108Y-117907846D01*
X255423676Y-117905901D01*
X255337964Y-117897073D01*
X255297576Y-117876869D01*
X255286115Y-117840797D01*
X255285846Y-117829692D01*
X255294112Y-117786712D01*
X255330618Y-117763039D01*
X255412923Y-117753016D01*
X255530077Y-117751007D01*
X255774308Y-117750477D01*
X255530077Y-117605715D01*
X255397909Y-117522151D01*
X255322597Y-117458032D01*
X255290315Y-117399452D01*
X255285846Y-117360060D01*
X255301373Y-117263587D01*
X255356342Y-117203788D01*
X255463332Y-117173460D01*
X255625815Y-117165384D01*
X255760700Y-117167974D01*
X255760700Y-117167974D01*
G37*
X255760700Y-117167974D02*
X255835006Y-117179448D01*
X255866240Y-117205364D01*
X255872000Y-117243538D01*
X255863057Y-117287936D01*
X255824102Y-117311541D01*
X255736945Y-117320698D01*
X255647308Y-117321905D01*
X255422615Y-117322119D01*
X255686385Y-117480378D01*
X255829764Y-117572537D01*
X255913044Y-117643401D01*
X255947508Y-117703493D01*
X255950154Y-117726349D01*
X255935545Y-117812341D01*
X255883495Y-117867264D01*
X255781667Y-117897025D01*
X255617722Y-117907531D01*
X255571108Y-117907846D01*
X255423676Y-117905901D01*
X255337964Y-117897073D01*
X255297576Y-117876869D01*
X255286115Y-117840797D01*
X255285846Y-117829692D01*
X255294112Y-117786712D01*
X255330618Y-117763039D01*
X255412923Y-117753016D01*
X255530077Y-117751007D01*
X255774308Y-117750477D01*
X255530077Y-117605715D01*
X255397909Y-117522151D01*
X255322597Y-117458032D01*
X255290315Y-117399452D01*
X255285846Y-117360060D01*
X255301373Y-117263587D01*
X255356342Y-117203788D01*
X255463332Y-117173460D01*
X255625815Y-117165384D01*
X255760700Y-117167974D01*
G36*
X249736923Y-117106769D02*
X249717385Y-117126307D01*
X249697846Y-117106769D01*
X249717385Y-117087230D01*
X249736923Y-117106769D01*
X249736923Y-117106769D01*
G37*
X249736923Y-117106769D02*
X249717385Y-117126307D01*
X249697846Y-117106769D01*
X249717385Y-117087230D01*
X249736923Y-117106769D01*
G36*
X252724760Y-116753855D02*
X252745846Y-116813692D01*
X252722950Y-116874977D01*
X252648154Y-116891846D01*
X252571547Y-116873529D01*
X252550461Y-116813692D01*
X252573358Y-116752406D01*
X252648154Y-116735538D01*
X252724760Y-116753855D01*
X252724760Y-116753855D01*
G37*
X252724760Y-116753855D02*
X252745846Y-116813692D01*
X252722950Y-116874977D01*
X252648154Y-116891846D01*
X252571547Y-116873529D01*
X252550461Y-116813692D01*
X252573358Y-116752406D01*
X252648154Y-116735538D01*
X252724760Y-116753855D01*
G36*
X254053376Y-116753855D02*
X254074461Y-116813692D01*
X254051565Y-116874977D01*
X253976769Y-116891846D01*
X253900162Y-116873529D01*
X253879077Y-116813692D01*
X253901973Y-116752406D01*
X253976769Y-116735538D01*
X254053376Y-116753855D01*
X254053376Y-116753855D01*
G37*
X254053376Y-116753855D02*
X254074461Y-116813692D01*
X254051565Y-116874977D01*
X253976769Y-116891846D01*
X253900162Y-116873529D01*
X253879077Y-116813692D01*
X253901973Y-116752406D01*
X253976769Y-116735538D01*
X254053376Y-116753855D01*
G36*
X256067385Y-116344769D02*
X241413538Y-116344769D01*
X241413538Y-116032153D01*
X256067385Y-116032153D01*
X256067385Y-116344769D01*
X256067385Y-116344769D01*
G37*
X256067385Y-116344769D02*
X241413538Y-116344769D01*
X241413538Y-116032153D01*
X256067385Y-116032153D01*
X256067385Y-116344769D01*
G36*
X242077846Y-114197314D02*
X242077575Y-114477233D01*
X242083148Y-114688666D01*
X242104144Y-114841193D01*
X242150142Y-114944394D01*
X242230723Y-115007848D01*
X242355465Y-115041135D01*
X242533948Y-115053833D01*
X242775752Y-115055523D01*
X242935762Y-115055230D01*
X243601846Y-115055230D01*
X243601846Y-115406923D01*
X242769972Y-115406923D01*
X242492105Y-115406482D01*
X242280390Y-115404461D01*
X242122830Y-115399811D01*
X242007424Y-115391483D01*
X241922174Y-115378430D01*
X241855081Y-115359602D01*
X241794145Y-115333952D01*
X241763741Y-115319000D01*
X241614519Y-115217041D01*
X241510068Y-115073370D01*
X241501461Y-115056720D01*
X241469227Y-114987245D01*
X241445966Y-114917052D01*
X241430230Y-114832154D01*
X241420574Y-114718570D01*
X241415551Y-114562315D01*
X241413715Y-114349405D01*
X241413538Y-114206796D01*
X241413538Y-113531230D01*
X242077846Y-113531230D01*
X242077846Y-114197314D01*
X242077846Y-114197314D01*
G37*
X242077846Y-114197314D02*
X242077575Y-114477233D01*
X242083148Y-114688666D01*
X242104144Y-114841193D01*
X242150142Y-114944394D01*
X242230723Y-115007848D01*
X242355465Y-115041135D01*
X242533948Y-115053833D01*
X242775752Y-115055523D01*
X242935762Y-115055230D01*
X243601846Y-115055230D01*
X243601846Y-115406923D01*
X242769972Y-115406923D01*
X242492105Y-115406482D01*
X242280390Y-115404461D01*
X242122830Y-115399811D01*
X242007424Y-115391483D01*
X241922174Y-115378430D01*
X241855081Y-115359602D01*
X241794145Y-115333952D01*
X241763741Y-115319000D01*
X241614519Y-115217041D01*
X241510068Y-115073370D01*
X241501461Y-115056720D01*
X241469227Y-114987245D01*
X241445966Y-114917052D01*
X241430230Y-114832154D01*
X241420574Y-114718570D01*
X241415551Y-114562315D01*
X241413715Y-114349405D01*
X241413538Y-114206796D01*
X241413538Y-113531230D01*
X242077846Y-113531230D01*
X242077846Y-114197314D01*
G36*
X247861231Y-115406923D02*
X247295478Y-115406923D01*
X246660047Y-114772367D01*
X246024615Y-114137811D01*
X246024615Y-115406923D01*
X245399385Y-115406923D01*
X245399385Y-113531230D01*
X245663154Y-113532116D01*
X245926923Y-113533003D01*
X247196923Y-114749827D01*
X247196923Y-113531230D01*
X247861231Y-113531230D01*
X247861231Y-115406923D01*
X247861231Y-115406923D01*
G37*
X247861231Y-115406923D02*
X247295478Y-115406923D01*
X246660047Y-114772367D01*
X246024615Y-114137811D01*
X246024615Y-115406923D01*
X245399385Y-115406923D01*
X245399385Y-113531230D01*
X245663154Y-113532116D01*
X245926923Y-113533003D01*
X247196923Y-114749827D01*
X247196923Y-113531230D01*
X247861231Y-113531230D01*
X247861231Y-115406923D01*
G36*
X250440308Y-114197314D02*
X250440667Y-114440149D01*
X250442798Y-114617373D01*
X250448279Y-114741531D01*
X250458689Y-114825167D01*
X250475607Y-114880823D01*
X250500612Y-114921044D01*
X250535284Y-114958374D01*
X250536224Y-114959314D01*
X250573636Y-114994231D01*
X250613646Y-115019444D01*
X250668798Y-115036534D01*
X250751635Y-115047078D01*
X250874702Y-115052656D01*
X251050541Y-115054847D01*
X251291696Y-115055230D01*
X251964308Y-115055230D01*
X251964308Y-115406923D01*
X251132434Y-115406923D01*
X250854566Y-115406482D01*
X250642852Y-115404461D01*
X250485291Y-115399811D01*
X250369886Y-115391483D01*
X250284636Y-115378430D01*
X250217542Y-115359602D01*
X250156607Y-115333952D01*
X250126203Y-115319000D01*
X249976981Y-115217041D01*
X249872529Y-115073370D01*
X249863923Y-115056720D01*
X249831689Y-114987245D01*
X249808427Y-114917052D01*
X249792692Y-114832154D01*
X249783036Y-114718570D01*
X249778013Y-114562315D01*
X249776176Y-114349405D01*
X249776000Y-114206796D01*
X249776000Y-113531230D01*
X250440308Y-113531230D01*
X250440308Y-114197314D01*
X250440308Y-114197314D01*
G37*
X250440308Y-114197314D02*
X250440667Y-114440149D01*
X250442798Y-114617373D01*
X250448279Y-114741531D01*
X250458689Y-114825167D01*
X250475607Y-114880823D01*
X250500612Y-114921044D01*
X250535284Y-114958374D01*
X250536224Y-114959314D01*
X250573636Y-114994231D01*
X250613646Y-115019444D01*
X250668798Y-115036534D01*
X250751635Y-115047078D01*
X250874702Y-115052656D01*
X251050541Y-115054847D01*
X251291696Y-115055230D01*
X251964308Y-115055230D01*
X251964308Y-115406923D01*
X251132434Y-115406923D01*
X250854566Y-115406482D01*
X250642852Y-115404461D01*
X250485291Y-115399811D01*
X250369886Y-115391483D01*
X250284636Y-115378430D01*
X250217542Y-115359602D01*
X250156607Y-115333952D01*
X250126203Y-115319000D01*
X249976981Y-115217041D01*
X249872529Y-115073370D01*
X249863923Y-115056720D01*
X249831689Y-114987245D01*
X249808427Y-114917052D01*
X249792692Y-114832154D01*
X249783036Y-114718570D01*
X249778013Y-114562315D01*
X249776176Y-114349405D01*
X249776000Y-114206796D01*
X249776000Y-113531230D01*
X250440308Y-113531230D01*
X250440308Y-114197314D01*
G36*
X255911077Y-113882923D02*
X254349802Y-113882923D01*
X254287508Y-113977994D01*
X254252442Y-114089362D01*
X254289325Y-114190732D01*
X254392087Y-114267541D01*
X254411535Y-114275562D01*
X254484185Y-114288672D01*
X254618443Y-114299778D01*
X254797770Y-114307986D01*
X255005629Y-114312403D01*
X255102775Y-114312915D01*
X255336338Y-114314018D01*
X255506130Y-114318241D01*
X255626517Y-114327154D01*
X255711864Y-114342329D01*
X255776540Y-114365335D01*
X255825505Y-114391924D01*
X255957880Y-114515042D01*
X256038549Y-114678998D01*
X256063122Y-114862428D01*
X256027208Y-115043967D01*
X255978682Y-115137375D01*
X255921585Y-115216431D01*
X255861662Y-115278354D01*
X255788969Y-115325224D01*
X255693561Y-115359121D01*
X255565493Y-115382122D01*
X255394823Y-115396309D01*
X255171604Y-115403760D01*
X254885893Y-115406555D01*
X254689923Y-115406862D01*
X253761846Y-115406923D01*
X253761846Y-115055230D01*
X254517790Y-115055230D01*
X254781521Y-115054621D01*
X254978186Y-115052150D01*
X255118866Y-115046852D01*
X255214643Y-115037762D01*
X255276599Y-115023915D01*
X255315816Y-115004347D01*
X255338405Y-114983769D01*
X255396508Y-114873833D01*
X255384101Y-114764954D01*
X255316228Y-114686215D01*
X255266730Y-114662108D01*
X255190062Y-114645015D01*
X255074211Y-114633901D01*
X254907161Y-114627728D01*
X254676899Y-114625462D01*
X254610903Y-114625384D01*
X254339027Y-114622982D01*
X254133023Y-114613620D01*
X253980699Y-114594069D01*
X253869862Y-114561097D01*
X253788318Y-114511473D01*
X253723876Y-114441966D01*
X253682110Y-114379256D01*
X253620707Y-114214272D01*
X253609104Y-114025259D01*
X253647466Y-113846776D01*
X253679225Y-113782103D01*
X253728871Y-113709156D01*
X253784941Y-113651815D01*
X253856981Y-113608221D01*
X253954540Y-113576518D01*
X254087166Y-113554850D01*
X254264406Y-113541360D01*
X254495808Y-113534192D01*
X254790921Y-113531488D01*
X254969367Y-113531230D01*
X255911077Y-113531230D01*
X255911077Y-113882923D01*
X255911077Y-113882923D01*
G37*
X255911077Y-113882923D02*
X254349802Y-113882923D01*
X254287508Y-113977994D01*
X254252442Y-114089362D01*
X254289325Y-114190732D01*
X254392087Y-114267541D01*
X254411535Y-114275562D01*
X254484185Y-114288672D01*
X254618443Y-114299778D01*
X254797770Y-114307986D01*
X255005629Y-114312403D01*
X255102775Y-114312915D01*
X255336338Y-114314018D01*
X255506130Y-114318241D01*
X255626517Y-114327154D01*
X255711864Y-114342329D01*
X255776540Y-114365335D01*
X255825505Y-114391924D01*
X255957880Y-114515042D01*
X256038549Y-114678998D01*
X256063122Y-114862428D01*
X256027208Y-115043967D01*
X255978682Y-115137375D01*
X255921585Y-115216431D01*
X255861662Y-115278354D01*
X255788969Y-115325224D01*
X255693561Y-115359121D01*
X255565493Y-115382122D01*
X255394823Y-115396309D01*
X255171604Y-115403760D01*
X254885893Y-115406555D01*
X254689923Y-115406862D01*
X253761846Y-115406923D01*
X253761846Y-115055230D01*
X254517790Y-115055230D01*
X254781521Y-115054621D01*
X254978186Y-115052150D01*
X255118866Y-115046852D01*
X255214643Y-115037762D01*
X255276599Y-115023915D01*
X255315816Y-115004347D01*
X255338405Y-114983769D01*
X255396508Y-114873833D01*
X255384101Y-114764954D01*
X255316228Y-114686215D01*
X255266730Y-114662108D01*
X255190062Y-114645015D01*
X255074211Y-114633901D01*
X254907161Y-114627728D01*
X254676899Y-114625462D01*
X254610903Y-114625384D01*
X254339027Y-114622982D01*
X254133023Y-114613620D01*
X253980699Y-114594069D01*
X253869862Y-114561097D01*
X253788318Y-114511473D01*
X253723876Y-114441966D01*
X253682110Y-114379256D01*
X253620707Y-114214272D01*
X253609104Y-114025259D01*
X253647466Y-113846776D01*
X253679225Y-113782103D01*
X253728871Y-113709156D01*
X253784941Y-113651815D01*
X253856981Y-113608221D01*
X253954540Y-113576518D01*
X254087166Y-113554850D01*
X254264406Y-113541360D01*
X254495808Y-113534192D01*
X254790921Y-113531488D01*
X254969367Y-113531230D01*
X255911077Y-113531230D01*
X255911077Y-113882923D01*
G36*
X256165077Y-113003692D02*
X248749043Y-113013562D01*
X247823127Y-113014703D01*
X246972554Y-113015549D01*
X246194515Y-113016086D01*
X245486201Y-113016298D01*
X244844800Y-113016170D01*
X244267504Y-113015689D01*
X243751504Y-113014839D01*
X243293988Y-113013605D01*
X242892147Y-113011973D01*
X242543173Y-113009928D01*
X242244254Y-113007455D01*
X241992581Y-113004539D01*
X241785345Y-113001166D01*
X241619735Y-112997320D01*
X241492942Y-112992988D01*
X241402157Y-112988154D01*
X241344569Y-112982803D01*
X241317368Y-112976921D01*
X241314392Y-112974485D01*
X241312368Y-112930551D01*
X241310532Y-112812691D01*
X241308889Y-112625130D01*
X241307445Y-112372096D01*
X241306206Y-112057815D01*
X241305178Y-111686513D01*
X241304367Y-111262419D01*
X241303778Y-110789757D01*
X241303418Y-110272756D01*
X241303292Y-109715642D01*
X241303407Y-109122640D01*
X241303767Y-108497979D01*
X241304380Y-107845885D01*
X241305251Y-107170584D01*
X241305810Y-106810000D01*
X241315429Y-100948461D01*
X241569846Y-100948461D01*
X241569846Y-112749692D01*
X242527231Y-112749692D01*
X242791461Y-112749258D01*
X243027754Y-112748039D01*
X243225541Y-112746158D01*
X243374251Y-112743737D01*
X243463317Y-112740900D01*
X243484615Y-112738568D01*
X243472289Y-112699064D01*
X243440126Y-112606961D01*
X243399499Y-112494337D01*
X243335734Y-112250854D01*
X243299409Y-111962609D01*
X243291255Y-111658288D01*
X243312003Y-111366577D01*
X243362384Y-111116163D01*
X243364221Y-111110049D01*
X243520515Y-110722098D01*
X243737180Y-110375841D01*
X244006667Y-110076974D01*
X244321426Y-109831195D01*
X244673908Y-109644200D01*
X245056563Y-109521685D01*
X245461842Y-109469348D01*
X245540589Y-109467808D01*
X245855178Y-109482754D01*
X246131321Y-109534244D01*
X246403257Y-109630103D01*
X246552154Y-109698989D01*
X246915615Y-109919215D01*
X247224293Y-110191101D01*
X247474322Y-110507526D01*
X247661841Y-110861370D01*
X247782984Y-111245511D01*
X247833888Y-111652829D01*
X247816882Y-112029916D01*
X247787279Y-112209882D01*
X247745782Y-112391174D01*
X247703394Y-112528657D01*
X247661317Y-112640969D01*
X247633492Y-112718325D01*
X247626789Y-112739923D01*
X247664794Y-112741585D01*
X247774546Y-112743159D01*
X247949637Y-112744619D01*
X248183659Y-112745942D01*
X248470205Y-112747104D01*
X248802867Y-112748080D01*
X249175237Y-112748847D01*
X249580909Y-112749381D01*
X250013475Y-112749658D01*
X250231783Y-112749692D01*
X252836797Y-112749692D01*
X252351706Y-112257758D01*
X251671478Y-111613027D01*
X250976749Y-111044352D01*
X250265605Y-110550657D01*
X249536132Y-110130864D01*
X248786417Y-109783897D01*
X248014545Y-109508677D01*
X247218603Y-109304128D01*
X247040615Y-109268606D01*
X246822315Y-109226616D01*
X246628437Y-109188159D01*
X246473103Y-109156128D01*
X246370437Y-109133418D01*
X246337231Y-109124526D01*
X246335018Y-109107226D01*
X246402047Y-109085830D01*
X246529587Y-109061575D01*
X246708909Y-109035696D01*
X246931281Y-109009431D01*
X247187974Y-108984016D01*
X247470257Y-108960686D01*
X247520044Y-108957025D01*
X248367564Y-108934111D01*
X249226554Y-108985525D01*
X250089990Y-109109656D01*
X250950850Y-109304898D01*
X251802110Y-109569643D01*
X252636748Y-109902281D01*
X253447740Y-110301206D01*
X253489365Y-110323860D01*
X253660041Y-110418571D01*
X253882508Y-110544084D01*
X254141228Y-110691517D01*
X254420662Y-110851986D01*
X254705274Y-111016609D01*
X254922432Y-111143099D01*
X255168117Y-111286252D01*
X255391571Y-111415584D01*
X255583997Y-111526074D01*
X255736598Y-111612699D01*
X255840576Y-111670438D01*
X255887136Y-111694269D01*
X255888528Y-111694615D01*
X255891220Y-111656282D01*
X255893819Y-111544256D01*
X255896308Y-111363000D01*
X255898669Y-111116974D01*
X255900881Y-110810642D01*
X255902927Y-110448463D01*
X255904788Y-110034899D01*
X255906444Y-109574413D01*
X255907878Y-109071466D01*
X255909071Y-108530519D01*
X255910004Y-107956033D01*
X255910657Y-107352472D01*
X255911014Y-106724295D01*
X255911077Y-106321538D01*
X255911077Y-100948461D01*
X241569846Y-100948461D01*
X241315429Y-100948461D01*
X241315846Y-100694461D01*
X256165077Y-100694461D01*
X256165077Y-113003692D01*
X256165077Y-113003692D01*
G37*
X256165077Y-113003692D02*
X248749043Y-113013562D01*
X247823127Y-113014703D01*
X246972554Y-113015549D01*
X246194515Y-113016086D01*
X245486201Y-113016298D01*
X244844800Y-113016170D01*
X244267504Y-113015689D01*
X243751504Y-113014839D01*
X243293988Y-113013605D01*
X242892147Y-113011973D01*
X242543173Y-113009928D01*
X242244254Y-113007455D01*
X241992581Y-113004539D01*
X241785345Y-113001166D01*
X241619735Y-112997320D01*
X241492942Y-112992988D01*
X241402157Y-112988154D01*
X241344569Y-112982803D01*
X241317368Y-112976921D01*
X241314392Y-112974485D01*
X241312368Y-112930551D01*
X241310532Y-112812691D01*
X241308889Y-112625130D01*
X241307445Y-112372096D01*
X241306206Y-112057815D01*
X241305178Y-111686513D01*
X241304367Y-111262419D01*
X241303778Y-110789757D01*
X241303418Y-110272756D01*
X241303292Y-109715642D01*
X241303407Y-109122640D01*
X241303767Y-108497979D01*
X241304380Y-107845885D01*
X241305251Y-107170584D01*
X241305810Y-106810000D01*
X241315429Y-100948461D01*
X241569846Y-100948461D01*
X241569846Y-112749692D01*
X242527231Y-112749692D01*
X242791461Y-112749258D01*
X243027754Y-112748039D01*
X243225541Y-112746158D01*
X243374251Y-112743737D01*
X243463317Y-112740900D01*
X243484615Y-112738568D01*
X243472289Y-112699064D01*
X243440126Y-112606961D01*
X243399499Y-112494337D01*
X243335734Y-112250854D01*
X243299409Y-111962609D01*
X243291255Y-111658288D01*
X243312003Y-111366577D01*
X243362384Y-111116163D01*
X243364221Y-111110049D01*
X243520515Y-110722098D01*
X243737180Y-110375841D01*
X244006667Y-110076974D01*
X244321426Y-109831195D01*
X244673908Y-109644200D01*
X245056563Y-109521685D01*
X245461842Y-109469348D01*
X245540589Y-109467808D01*
X245855178Y-109482754D01*
X246131321Y-109534244D01*
X246403257Y-109630103D01*
X246552154Y-109698989D01*
X246915615Y-109919215D01*
X247224293Y-110191101D01*
X247474322Y-110507526D01*
X247661841Y-110861370D01*
X247782984Y-111245511D01*
X247833888Y-111652829D01*
X247816882Y-112029916D01*
X247787279Y-112209882D01*
X247745782Y-112391174D01*
X247703394Y-112528657D01*
X247661317Y-112640969D01*
X247633492Y-112718325D01*
X247626789Y-112739923D01*
X247664794Y-112741585D01*
X247774546Y-112743159D01*
X247949637Y-112744619D01*
X248183659Y-112745942D01*
X248470205Y-112747104D01*
X248802867Y-112748080D01*
X249175237Y-112748847D01*
X249580909Y-112749381D01*
X250013475Y-112749658D01*
X250231783Y-112749692D01*
X252836797Y-112749692D01*
X252351706Y-112257758D01*
X251671478Y-111613027D01*
X250976749Y-111044352D01*
X250265605Y-110550657D01*
X249536132Y-110130864D01*
X248786417Y-109783897D01*
X248014545Y-109508677D01*
X247218603Y-109304128D01*
X247040615Y-109268606D01*
X246822315Y-109226616D01*
X246628437Y-109188159D01*
X246473103Y-109156128D01*
X246370437Y-109133418D01*
X246337231Y-109124526D01*
X246335018Y-109107226D01*
X246402047Y-109085830D01*
X246529587Y-109061575D01*
X246708909Y-109035696D01*
X246931281Y-109009431D01*
X247187974Y-108984016D01*
X247470257Y-108960686D01*
X247520044Y-108957025D01*
X248367564Y-108934111D01*
X249226554Y-108985525D01*
X250089990Y-109109656D01*
X250950850Y-109304898D01*
X251802110Y-109569643D01*
X252636748Y-109902281D01*
X253447740Y-110301206D01*
X253489365Y-110323860D01*
X253660041Y-110418571D01*
X253882508Y-110544084D01*
X254141228Y-110691517D01*
X254420662Y-110851986D01*
X254705274Y-111016609D01*
X254922432Y-111143099D01*
X255168117Y-111286252D01*
X255391571Y-111415584D01*
X255583997Y-111526074D01*
X255736598Y-111612699D01*
X255840576Y-111670438D01*
X255887136Y-111694269D01*
X255888528Y-111694615D01*
X255891220Y-111656282D01*
X255893819Y-111544256D01*
X255896308Y-111363000D01*
X255898669Y-111116974D01*
X255900881Y-110810642D01*
X255902927Y-110448463D01*
X255904788Y-110034899D01*
X255906444Y-109574413D01*
X255907878Y-109071466D01*
X255909071Y-108530519D01*
X255910004Y-107956033D01*
X255910657Y-107352472D01*
X255911014Y-106724295D01*
X255911077Y-106321538D01*
X255911077Y-100948461D01*
X241569846Y-100948461D01*
X241315429Y-100948461D01*
X241315846Y-100694461D01*
X256165077Y-100694461D01*
X256165077Y-113003692D01*
G36*
X245730153Y-101336797D02*
X245801733Y-101379002D01*
X245931063Y-101454168D01*
X246108034Y-101556491D01*
X246322535Y-101680164D01*
X246564457Y-101819380D01*
X246823689Y-101968335D01*
X247090122Y-102121221D01*
X247353646Y-102272233D01*
X247604150Y-102415565D01*
X247831525Y-102545409D01*
X248025661Y-102655960D01*
X248144472Y-102723344D01*
X248304897Y-102815922D01*
X248437066Y-102895684D01*
X248527913Y-102954493D01*
X248564371Y-102984208D01*
X248564549Y-102985006D01*
X248534102Y-103014742D01*
X248450771Y-103078973D01*
X248326650Y-103168768D01*
X248173833Y-103275194D01*
X248144538Y-103295204D01*
X247373531Y-103847227D01*
X246675878Y-104404317D01*
X246046779Y-104971616D01*
X245481435Y-105554268D01*
X244975046Y-106157417D01*
X244522812Y-106786204D01*
X244119934Y-107445775D01*
X243916386Y-107826000D01*
X243701126Y-108268850D01*
X243521790Y-108688258D01*
X243370940Y-109106124D01*
X243241139Y-109544347D01*
X243124948Y-110024826D01*
X243054444Y-110363868D01*
X243000140Y-110632454D01*
X242957947Y-110826242D01*
X242927263Y-110947545D01*
X242907487Y-110998677D01*
X242898017Y-110981952D01*
X242897222Y-110968435D01*
X242891327Y-110916675D01*
X242876434Y-110805936D01*
X242855057Y-110654541D01*
X242838705Y-110541846D01*
X242817064Y-110362580D01*
X242795743Y-110130034D01*
X242776670Y-109869065D01*
X242761776Y-109604530D01*
X242756796Y-109486769D01*
X242762475Y-108588929D01*
X242845959Y-107694195D01*
X243006918Y-106803859D01*
X243245024Y-105919216D01*
X243559947Y-105041559D01*
X243951360Y-104172181D01*
X244252765Y-103601171D01*
X244350807Y-103427716D01*
X244479410Y-103202957D01*
X244629353Y-102942859D01*
X244791410Y-102663387D01*
X244956360Y-102380506D01*
X245070006Y-102186627D01*
X245611537Y-101265065D01*
X245730153Y-101336797D01*
X245730153Y-101336797D01*
G37*
X245730153Y-101336797D02*
X245801733Y-101379002D01*
X245931063Y-101454168D01*
X246108034Y-101556491D01*
X246322535Y-101680164D01*
X246564457Y-101819380D01*
X246823689Y-101968335D01*
X247090122Y-102121221D01*
X247353646Y-102272233D01*
X247604150Y-102415565D01*
X247831525Y-102545409D01*
X248025661Y-102655960D01*
X248144472Y-102723344D01*
X248304897Y-102815922D01*
X248437066Y-102895684D01*
X248527913Y-102954493D01*
X248564371Y-102984208D01*
X248564549Y-102985006D01*
X248534102Y-103014742D01*
X248450771Y-103078973D01*
X248326650Y-103168768D01*
X248173833Y-103275194D01*
X248144538Y-103295204D01*
X247373531Y-103847227D01*
X246675878Y-104404317D01*
X246046779Y-104971616D01*
X245481435Y-105554268D01*
X244975046Y-106157417D01*
X244522812Y-106786204D01*
X244119934Y-107445775D01*
X243916386Y-107826000D01*
X243701126Y-108268850D01*
X243521790Y-108688258D01*
X243370940Y-109106124D01*
X243241139Y-109544347D01*
X243124948Y-110024826D01*
X243054444Y-110363868D01*
X243000140Y-110632454D01*
X242957947Y-110826242D01*
X242927263Y-110947545D01*
X242907487Y-110998677D01*
X242898017Y-110981952D01*
X242897222Y-110968435D01*
X242891327Y-110916675D01*
X242876434Y-110805936D01*
X242855057Y-110654541D01*
X242838705Y-110541846D01*
X242817064Y-110362580D01*
X242795743Y-110130034D01*
X242776670Y-109869065D01*
X242761776Y-109604530D01*
X242756796Y-109486769D01*
X242762475Y-108588929D01*
X242845959Y-107694195D01*
X243006918Y-106803859D01*
X243245024Y-105919216D01*
X243559947Y-105041559D01*
X243951360Y-104172181D01*
X244252765Y-103601171D01*
X244350807Y-103427716D01*
X244479410Y-103202957D01*
X244629353Y-102942859D01*
X244791410Y-102663387D01*
X244956360Y-102380506D01*
X245070006Y-102186627D01*
X245611537Y-101265065D01*
X245730153Y-101336797D01*
G36*
X253264447Y-106551334D02*
X253473065Y-106555786D01*
X254660615Y-106584515D01*
X254660615Y-108299411D01*
X254659970Y-108656879D01*
X254658125Y-108988957D01*
X254655214Y-109287769D01*
X254651373Y-109545439D01*
X254646737Y-109754090D01*
X254641440Y-109905845D01*
X254635617Y-109992827D01*
X254631308Y-110010958D01*
X254586968Y-109993015D01*
X254487489Y-109946540D01*
X254347371Y-109878471D01*
X254181116Y-109795749D01*
X254172154Y-109791240D01*
X253322649Y-109391877D01*
X252494848Y-109061333D01*
X251679088Y-108796841D01*
X250865708Y-108595636D01*
X250045044Y-108454953D01*
X249215981Y-108372580D01*
X248417547Y-108352883D01*
X247634176Y-108400702D01*
X246855285Y-108517586D01*
X246070288Y-108705082D01*
X245338679Y-108939456D01*
X245175248Y-108995373D01*
X245037975Y-109037715D01*
X244944102Y-109061434D01*
X244912900Y-109064094D01*
X244917091Y-109035636D01*
X244979555Y-108972746D01*
X245091617Y-108881313D01*
X245244601Y-108767225D01*
X245429830Y-108636371D01*
X245638629Y-108494640D01*
X245862322Y-108347920D01*
X246092231Y-108202100D01*
X246319683Y-108063070D01*
X246536000Y-107936716D01*
X246732506Y-107828929D01*
X246733502Y-107828405D01*
X247296536Y-107550016D01*
X247857407Y-107309299D01*
X248424431Y-107104685D01*
X249005923Y-106934602D01*
X249610202Y-106797481D01*
X250245582Y-106691751D01*
X250920380Y-106615842D01*
X251642913Y-106568183D01*
X252421497Y-106547204D01*
X253264447Y-106551334D01*
X253264447Y-106551334D01*
G37*
X253264447Y-106551334D02*
X253473065Y-106555786D01*
X254660615Y-106584515D01*
X254660615Y-108299411D01*
X254659970Y-108656879D01*
X254658125Y-108988957D01*
X254655214Y-109287769D01*
X254651373Y-109545439D01*
X254646737Y-109754090D01*
X254641440Y-109905845D01*
X254635617Y-109992827D01*
X254631308Y-110010958D01*
X254586968Y-109993015D01*
X254487489Y-109946540D01*
X254347371Y-109878471D01*
X254181116Y-109795749D01*
X254172154Y-109791240D01*
X253322649Y-109391877D01*
X252494848Y-109061333D01*
X251679088Y-108796841D01*
X250865708Y-108595636D01*
X250045044Y-108454953D01*
X249215981Y-108372580D01*
X248417547Y-108352883D01*
X247634176Y-108400702D01*
X246855285Y-108517586D01*
X246070288Y-108705082D01*
X245338679Y-108939456D01*
X245175248Y-108995373D01*
X245037975Y-109037715D01*
X244944102Y-109061434D01*
X244912900Y-109064094D01*
X244917091Y-109035636D01*
X244979555Y-108972746D01*
X245091617Y-108881313D01*
X245244601Y-108767225D01*
X245429830Y-108636371D01*
X245638629Y-108494640D01*
X245862322Y-108347920D01*
X246092231Y-108202100D01*
X246319683Y-108063070D01*
X246536000Y-107936716D01*
X246732506Y-107828929D01*
X246733502Y-107828405D01*
X247296536Y-107550016D01*
X247857407Y-107309299D01*
X248424431Y-107104685D01*
X249005923Y-106934602D01*
X249610202Y-106797481D01*
X250245582Y-106691751D01*
X250920380Y-106615842D01*
X251642913Y-106568183D01*
X252421497Y-106547204D01*
X253264447Y-106551334D01*
G36*
X250927159Y-102873641D02*
X250976689Y-102955866D01*
X251055921Y-103090141D01*
X251159903Y-103267877D01*
X251283683Y-103480485D01*
X251422311Y-103719377D01*
X251570833Y-103975962D01*
X251724299Y-104241652D01*
X251877756Y-104507858D01*
X252026254Y-104765991D01*
X252164841Y-105007461D01*
X252288564Y-105223679D01*
X252392472Y-105406057D01*
X252471614Y-105546005D01*
X252521038Y-105634934D01*
X252535995Y-105664319D01*
X252497043Y-105669750D01*
X252392456Y-105680583D01*
X252234479Y-105695651D01*
X252035353Y-105713787D01*
X251807424Y-105733813D01*
X251229228Y-105789748D01*
X250714120Y-105852884D01*
X250247184Y-105925535D01*
X249813506Y-106010014D01*
X249408485Y-106105971D01*
X248524322Y-106365423D01*
X247698974Y-106673571D01*
X246928129Y-107033036D01*
X246207476Y-107446437D01*
X245532705Y-107916395D01*
X244899502Y-108445528D01*
X244303558Y-109036457D01*
X243973222Y-109408615D01*
X243838032Y-109567940D01*
X243745510Y-109676112D01*
X243687592Y-109741427D01*
X243656209Y-109772178D01*
X243643297Y-109776661D01*
X243640789Y-109763170D01*
X243640923Y-109750331D01*
X243656611Y-109691419D01*
X243699499Y-109576350D01*
X243763326Y-109419598D01*
X243841830Y-109235633D01*
X243928747Y-109038927D01*
X244017815Y-108843952D01*
X244102773Y-108665180D01*
X244160806Y-108548923D01*
X244547884Y-107854164D01*
X244968847Y-107215008D01*
X245438014Y-106611391D01*
X245945838Y-106048000D01*
X246261642Y-105728650D01*
X246571897Y-105434998D01*
X246886283Y-105159895D01*
X247214479Y-104896191D01*
X247566165Y-104636737D01*
X247951019Y-104374385D01*
X248378722Y-104101984D01*
X248858952Y-103812386D01*
X249385231Y-103507648D01*
X249605810Y-103382363D01*
X249837545Y-103251517D01*
X250067337Y-103122431D01*
X250282088Y-103002424D01*
X250468696Y-102898814D01*
X250614063Y-102818923D01*
X250705089Y-102770069D01*
X250707297Y-102768925D01*
X250824713Y-102708207D01*
X250927159Y-102873641D01*
X250927159Y-102873641D01*
G37*
X250927159Y-102873641D02*
X250976689Y-102955866D01*
X251055921Y-103090141D01*
X251159903Y-103267877D01*
X251283683Y-103480485D01*
X251422311Y-103719377D01*
X251570833Y-103975962D01*
X251724299Y-104241652D01*
X251877756Y-104507858D01*
X252026254Y-104765991D01*
X252164841Y-105007461D01*
X252288564Y-105223679D01*
X252392472Y-105406057D01*
X252471614Y-105546005D01*
X252521038Y-105634934D01*
X252535995Y-105664319D01*
X252497043Y-105669750D01*
X252392456Y-105680583D01*
X252234479Y-105695651D01*
X252035353Y-105713787D01*
X251807424Y-105733813D01*
X251229228Y-105789748D01*
X250714120Y-105852884D01*
X250247184Y-105925535D01*
X249813506Y-106010014D01*
X249408485Y-106105971D01*
X248524322Y-106365423D01*
X247698974Y-106673571D01*
X246928129Y-107033036D01*
X246207476Y-107446437D01*
X245532705Y-107916395D01*
X244899502Y-108445528D01*
X244303558Y-109036457D01*
X243973222Y-109408615D01*
X243838032Y-109567940D01*
X243745510Y-109676112D01*
X243687592Y-109741427D01*
X243656209Y-109772178D01*
X243643297Y-109776661D01*
X243640789Y-109763170D01*
X243640923Y-109750331D01*
X243656611Y-109691419D01*
X243699499Y-109576350D01*
X243763326Y-109419598D01*
X243841830Y-109235633D01*
X243928747Y-109038927D01*
X244017815Y-108843952D01*
X244102773Y-108665180D01*
X244160806Y-108548923D01*
X244547884Y-107854164D01*
X244968847Y-107215008D01*
X245438014Y-106611391D01*
X245945838Y-106048000D01*
X246261642Y-105728650D01*
X246571897Y-105434998D01*
X246886283Y-105159895D01*
X247214479Y-104896191D01*
X247566165Y-104636737D01*
X247951019Y-104374385D01*
X248378722Y-104101984D01*
X248858952Y-103812386D01*
X249385231Y-103507648D01*
X249605810Y-103382363D01*
X249837545Y-103251517D01*
X250067337Y-103122431D01*
X250282088Y-103002424D01*
X250468696Y-102898814D01*
X250614063Y-102818923D01*
X250705089Y-102770069D01*
X250707297Y-102768925D01*
X250824713Y-102708207D01*
X250927159Y-102873641D01*
D10*
X141250000Y-71546667D02*
X141016666Y-71213333D01*
X140850000Y-71546667D02*
X140850000Y-70846667D01*
X141116666Y-70846667D01*
X141183333Y-70880000D01*
X141216666Y-70913333D01*
X141250000Y-70980000D01*
X141250000Y-71080000D01*
X141216666Y-71146667D01*
X141183333Y-71180000D01*
X141116666Y-71213333D01*
X140850000Y-71213333D01*
X141516666Y-70913333D02*
X141550000Y-70880000D01*
X141616666Y-70846667D01*
X141783333Y-70846667D01*
X141850000Y-70880000D01*
X141883333Y-70913333D01*
X141916666Y-70980000D01*
X141916666Y-71046667D01*
X141883333Y-71146667D01*
X141483333Y-71546667D01*
X141916666Y-71546667D01*
X142250000Y-71546667D02*
X142383333Y-71546667D01*
X142450000Y-71513333D01*
X142483333Y-71480000D01*
X142550000Y-71380000D01*
X142583333Y-71246667D01*
X142583333Y-70980000D01*
X142550000Y-70913333D01*
X142516667Y-70880000D01*
X142450000Y-70846667D01*
X142316667Y-70846667D01*
X142250000Y-70880000D01*
X142216667Y-70913333D01*
X142183333Y-70980000D01*
X142183333Y-71146667D01*
X142216667Y-71213333D01*
X142250000Y-71246667D01*
X142316667Y-71280000D01*
X142450000Y-71280000D01*
X142516667Y-71246667D01*
X142550000Y-71213333D01*
X142583333Y-71146667D01*
X137510000Y-70776667D02*
X137943333Y-70776667D01*
X137710000Y-71043333D01*
X137810000Y-71043333D01*
X137876667Y-71076667D01*
X137910000Y-71110000D01*
X137943333Y-71176667D01*
X137943333Y-71343333D01*
X137910000Y-71410000D01*
X137876667Y-71443333D01*
X137810000Y-71476667D01*
X137610000Y-71476667D01*
X137543333Y-71443333D01*
X137510000Y-71410000D01*
X138176667Y-70776667D02*
X138610000Y-70776667D01*
X138376667Y-71043333D01*
X138476667Y-71043333D01*
X138543334Y-71076667D01*
X138576667Y-71110000D01*
X138610000Y-71176667D01*
X138610000Y-71343333D01*
X138576667Y-71410000D01*
X138543334Y-71443333D01*
X138476667Y-71476667D01*
X138276667Y-71476667D01*
X138210000Y-71443333D01*
X138176667Y-71410000D01*
X139043334Y-70776667D02*
X139110001Y-70776667D01*
X139176667Y-70810000D01*
X139210001Y-70843333D01*
X139243334Y-70910000D01*
X139276667Y-71043333D01*
X139276667Y-71210000D01*
X139243334Y-71343333D01*
X139210001Y-71410000D01*
X139176667Y-71443333D01*
X139110001Y-71476667D01*
X139043334Y-71476667D01*
X138976667Y-71443333D01*
X138943334Y-71410000D01*
X138910001Y-71343333D01*
X138876667Y-71210000D01*
X138876667Y-71043333D01*
X138910001Y-70910000D01*
X138943334Y-70843333D01*
X138976667Y-70810000D01*
X139043334Y-70776667D01*
X139543334Y-71476667D02*
X139710001Y-71476667D01*
X139710001Y-71343333D01*
X139643334Y-71310000D01*
X139576668Y-71243333D01*
X139543334Y-71143333D01*
X139543334Y-70976667D01*
X139576668Y-70876667D01*
X139643334Y-70810000D01*
X139743334Y-70776667D01*
X139876668Y-70776667D01*
X139976668Y-70810000D01*
X140043334Y-70876667D01*
X140076668Y-70976667D01*
X140076668Y-71143333D01*
X140043334Y-71243333D01*
X139976668Y-71310000D01*
X139910001Y-71343333D01*
X139910001Y-71476667D01*
X140076668Y-71476667D01*
D12*
X195886725Y-77135441D02*
X195886725Y-76135441D01*
X196458154Y-77135441D02*
X196029582Y-76564012D01*
X196458154Y-76135441D02*
X195886725Y-76706870D01*
X196839106Y-76230679D02*
X196886725Y-76183060D01*
X196981963Y-76135441D01*
X197220059Y-76135441D01*
X197315297Y-76183060D01*
X197362916Y-76230679D01*
X197410535Y-76325917D01*
X197410535Y-76421155D01*
X197362916Y-76564012D01*
X196791487Y-77135441D01*
X197410535Y-77135441D01*
X202087201Y-70277823D02*
X201611010Y-70611157D01*
X202087201Y-70849252D02*
X201087201Y-70849252D01*
X201087201Y-70468299D01*
X201134820Y-70373061D01*
X201182439Y-70325442D01*
X201277677Y-70277823D01*
X201420534Y-70277823D01*
X201515772Y-70325442D01*
X201563391Y-70373061D01*
X201611010Y-70468299D01*
X201611010Y-70849252D01*
X201563391Y-69849252D02*
X201563391Y-69515918D01*
X202087201Y-69373061D02*
X202087201Y-69849252D01*
X201087201Y-69849252D01*
X201087201Y-69373061D01*
X202087201Y-68468299D02*
X202087201Y-68944490D01*
X201087201Y-68944490D01*
X201801487Y-68182585D02*
X201801487Y-67706394D01*
X202087201Y-68277823D02*
X201087201Y-67944490D01*
X202087201Y-67611156D01*
X201611010Y-67087347D02*
X202087201Y-67087347D01*
X201087201Y-67420680D02*
X201611010Y-67087347D01*
X201087201Y-66754013D01*
X202182439Y-66658775D02*
X202182439Y-65896870D01*
X202087201Y-65658775D02*
X201087201Y-65658775D01*
X201801487Y-65325441D01*
X201087201Y-64992108D01*
X202087201Y-64992108D01*
X202039582Y-64134965D02*
X202087201Y-64230203D01*
X202087201Y-64420680D01*
X202039582Y-64515918D01*
X201944344Y-64563537D01*
X201563391Y-64563537D01*
X201468153Y-64515918D01*
X201420534Y-64420680D01*
X201420534Y-64230203D01*
X201468153Y-64134965D01*
X201563391Y-64087346D01*
X201658630Y-64087346D01*
X201753868Y-64563537D01*
X201420534Y-63801632D02*
X201420534Y-63420680D01*
X201087201Y-63658775D02*
X201944344Y-63658775D01*
X202039582Y-63611156D01*
X202087201Y-63515918D01*
X202087201Y-63420680D01*
X202087201Y-62658774D02*
X201563391Y-62658774D01*
X201468153Y-62706393D01*
X201420534Y-62801631D01*
X201420534Y-62992108D01*
X201468153Y-63087346D01*
X202039582Y-62658774D02*
X202087201Y-62754012D01*
X202087201Y-62992108D01*
X202039582Y-63087346D01*
X201944344Y-63134965D01*
X201849106Y-63134965D01*
X201753868Y-63087346D01*
X201706249Y-62992108D01*
X201706249Y-62754012D01*
X201658630Y-62658774D01*
X202087201Y-62039727D02*
X202039582Y-62134965D01*
X201944344Y-62182584D01*
X201087201Y-62182584D01*
X201420534Y-61801631D02*
X201420534Y-61420679D01*
X201087201Y-61658774D02*
X201944344Y-61658774D01*
X202039582Y-61611155D01*
X202087201Y-61515917D01*
X202087201Y-61420679D01*
X202039582Y-60706392D02*
X202087201Y-60801630D01*
X202087201Y-60992107D01*
X202039582Y-61087345D01*
X201944344Y-61134964D01*
X201563391Y-61134964D01*
X201468153Y-61087345D01*
X201420534Y-60992107D01*
X201420534Y-60801630D01*
X201468153Y-60706392D01*
X201563391Y-60658773D01*
X201658630Y-60658773D01*
X201753868Y-61134964D01*
X202087201Y-60325440D02*
X201420534Y-59801630D01*
X201420534Y-60325440D02*
X202087201Y-59801630D01*
X194546725Y-65675441D02*
X194546725Y-64675441D01*
X195118154Y-65675441D02*
X194689582Y-65104012D01*
X195118154Y-64675441D02*
X194546725Y-65246870D01*
X195499106Y-64770679D02*
X195546725Y-64723060D01*
X195641963Y-64675441D01*
X195880059Y-64675441D01*
X195975297Y-64723060D01*
X196022916Y-64770679D01*
X196070535Y-64865917D01*
X196070535Y-64961155D01*
X196022916Y-65104012D01*
X195451487Y-65675441D01*
X196070535Y-65675441D01*
X197220145Y-123581881D02*
X197220145Y-122581881D01*
X197791574Y-123581881D02*
X197363002Y-123010452D01*
X197791574Y-122581881D02*
X197220145Y-123153310D01*
X198743955Y-123581881D02*
X198172526Y-123581881D01*
X198458240Y-123581881D02*
X198458240Y-122581881D01*
X198363002Y-122724738D01*
X198267764Y-122819976D01*
X198172526Y-122867595D01*
X203420621Y-116724263D02*
X202944430Y-117057597D01*
X203420621Y-117295692D02*
X202420621Y-117295692D01*
X202420621Y-116914739D01*
X202468240Y-116819501D01*
X202515859Y-116771882D01*
X202611097Y-116724263D01*
X202753954Y-116724263D01*
X202849192Y-116771882D01*
X202896811Y-116819501D01*
X202944430Y-116914739D01*
X202944430Y-117295692D01*
X202896811Y-116295692D02*
X202896811Y-115962358D01*
X203420621Y-115819501D02*
X203420621Y-116295692D01*
X202420621Y-116295692D01*
X202420621Y-115819501D01*
X203420621Y-114914739D02*
X203420621Y-115390930D01*
X202420621Y-115390930D01*
X203134907Y-114629025D02*
X203134907Y-114152834D01*
X203420621Y-114724263D02*
X202420621Y-114390930D01*
X203420621Y-114057596D01*
X202944430Y-113533787D02*
X203420621Y-113533787D01*
X202420621Y-113867120D02*
X202944430Y-113533787D01*
X202420621Y-113200453D01*
X203515859Y-113105215D02*
X203515859Y-112343310D01*
X203420621Y-112105215D02*
X202420621Y-112105215D01*
X203134907Y-111771881D01*
X202420621Y-111438548D01*
X203420621Y-111438548D01*
X203373002Y-110581405D02*
X203420621Y-110676643D01*
X203420621Y-110867120D01*
X203373002Y-110962358D01*
X203277764Y-111009977D01*
X202896811Y-111009977D01*
X202801573Y-110962358D01*
X202753954Y-110867120D01*
X202753954Y-110676643D01*
X202801573Y-110581405D01*
X202896811Y-110533786D01*
X202992050Y-110533786D01*
X203087288Y-111009977D01*
X202753954Y-110248072D02*
X202753954Y-109867120D01*
X202420621Y-110105215D02*
X203277764Y-110105215D01*
X203373002Y-110057596D01*
X203420621Y-109962358D01*
X203420621Y-109867120D01*
X203420621Y-109105214D02*
X202896811Y-109105214D01*
X202801573Y-109152833D01*
X202753954Y-109248071D01*
X202753954Y-109438548D01*
X202801573Y-109533786D01*
X203373002Y-109105214D02*
X203420621Y-109200452D01*
X203420621Y-109438548D01*
X203373002Y-109533786D01*
X203277764Y-109581405D01*
X203182526Y-109581405D01*
X203087288Y-109533786D01*
X203039669Y-109438548D01*
X203039669Y-109200452D01*
X202992050Y-109105214D01*
X203420621Y-108486167D02*
X203373002Y-108581405D01*
X203277764Y-108629024D01*
X202420621Y-108629024D01*
X202753954Y-108248071D02*
X202753954Y-107867119D01*
X202420621Y-108105214D02*
X203277764Y-108105214D01*
X203373002Y-108057595D01*
X203420621Y-107962357D01*
X203420621Y-107867119D01*
X203373002Y-107152832D02*
X203420621Y-107248070D01*
X203420621Y-107438547D01*
X203373002Y-107533785D01*
X203277764Y-107581404D01*
X202896811Y-107581404D01*
X202801573Y-107533785D01*
X202753954Y-107438547D01*
X202753954Y-107248070D01*
X202801573Y-107152832D01*
X202896811Y-107105213D01*
X202992050Y-107105213D01*
X203087288Y-107581404D01*
X203420621Y-106771880D02*
X202753954Y-106248070D01*
X202753954Y-106771880D02*
X203420621Y-106248070D01*
X195880145Y-112121881D02*
X195880145Y-111121881D01*
X196451574Y-112121881D02*
X196023002Y-111550452D01*
X196451574Y-111121881D02*
X195880145Y-111693310D01*
X197403955Y-112121881D02*
X196832526Y-112121881D01*
X197118240Y-112121881D02*
X197118240Y-111121881D01*
X197023002Y-111264738D01*
X196927764Y-111359976D01*
X196832526Y-111407595D01*
X228307245Y-123693641D02*
X228307245Y-122693641D01*
X228878674Y-123693641D02*
X228450102Y-123122212D01*
X228878674Y-122693641D02*
X228307245Y-123265070D01*
X229212007Y-122693641D02*
X229831055Y-122693641D01*
X229497721Y-123074593D01*
X229640579Y-123074593D01*
X229735817Y-123122212D01*
X229783436Y-123169831D01*
X229831055Y-123265070D01*
X229831055Y-123503165D01*
X229783436Y-123598403D01*
X229735817Y-123646022D01*
X229640579Y-123693641D01*
X229354864Y-123693641D01*
X229259626Y-123646022D01*
X229212007Y-123598403D01*
X234507721Y-116836023D02*
X234031530Y-117169357D01*
X234507721Y-117407452D02*
X233507721Y-117407452D01*
X233507721Y-117026499D01*
X233555340Y-116931261D01*
X233602959Y-116883642D01*
X233698197Y-116836023D01*
X233841054Y-116836023D01*
X233936292Y-116883642D01*
X233983911Y-116931261D01*
X234031530Y-117026499D01*
X234031530Y-117407452D01*
X233983911Y-116407452D02*
X233983911Y-116074118D01*
X234507721Y-115931261D02*
X234507721Y-116407452D01*
X233507721Y-116407452D01*
X233507721Y-115931261D01*
X234507721Y-115026499D02*
X234507721Y-115502690D01*
X233507721Y-115502690D01*
X234222007Y-114740785D02*
X234222007Y-114264594D01*
X234507721Y-114836023D02*
X233507721Y-114502690D01*
X234507721Y-114169356D01*
X234031530Y-113645547D02*
X234507721Y-113645547D01*
X233507721Y-113978880D02*
X234031530Y-113645547D01*
X233507721Y-113312213D01*
X234602959Y-113216975D02*
X234602959Y-112455070D01*
X234507721Y-112216975D02*
X233507721Y-112216975D01*
X234222007Y-111883641D01*
X233507721Y-111550308D01*
X234507721Y-111550308D01*
X234460102Y-110693165D02*
X234507721Y-110788403D01*
X234507721Y-110978880D01*
X234460102Y-111074118D01*
X234364864Y-111121737D01*
X233983911Y-111121737D01*
X233888673Y-111074118D01*
X233841054Y-110978880D01*
X233841054Y-110788403D01*
X233888673Y-110693165D01*
X233983911Y-110645546D01*
X234079150Y-110645546D01*
X234174388Y-111121737D01*
X233841054Y-110359832D02*
X233841054Y-109978880D01*
X233507721Y-110216975D02*
X234364864Y-110216975D01*
X234460102Y-110169356D01*
X234507721Y-110074118D01*
X234507721Y-109978880D01*
X234507721Y-109216974D02*
X233983911Y-109216974D01*
X233888673Y-109264593D01*
X233841054Y-109359831D01*
X233841054Y-109550308D01*
X233888673Y-109645546D01*
X234460102Y-109216974D02*
X234507721Y-109312212D01*
X234507721Y-109550308D01*
X234460102Y-109645546D01*
X234364864Y-109693165D01*
X234269626Y-109693165D01*
X234174388Y-109645546D01*
X234126769Y-109550308D01*
X234126769Y-109312212D01*
X234079150Y-109216974D01*
X234507721Y-108597927D02*
X234460102Y-108693165D01*
X234364864Y-108740784D01*
X233507721Y-108740784D01*
X233841054Y-108359831D02*
X233841054Y-107978879D01*
X233507721Y-108216974D02*
X234364864Y-108216974D01*
X234460102Y-108169355D01*
X234507721Y-108074117D01*
X234507721Y-107978879D01*
X234460102Y-107264592D02*
X234507721Y-107359830D01*
X234507721Y-107550307D01*
X234460102Y-107645545D01*
X234364864Y-107693164D01*
X233983911Y-107693164D01*
X233888673Y-107645545D01*
X233841054Y-107550307D01*
X233841054Y-107359830D01*
X233888673Y-107264592D01*
X233983911Y-107216973D01*
X234079150Y-107216973D01*
X234174388Y-107693164D01*
X234507721Y-106883640D02*
X233841054Y-106359830D01*
X233841054Y-106883640D02*
X234507721Y-106359830D01*
X226967245Y-112233641D02*
X226967245Y-111233641D01*
X227538674Y-112233641D02*
X227110102Y-111662212D01*
X227538674Y-111233641D02*
X226967245Y-111805070D01*
X227872007Y-111233641D02*
X228491055Y-111233641D01*
X228157721Y-111614593D01*
X228300579Y-111614593D01*
X228395817Y-111662212D01*
X228443436Y-111709831D01*
X228491055Y-111805070D01*
X228491055Y-112043165D01*
X228443436Y-112138403D01*
X228395817Y-112186022D01*
X228300579Y-112233641D01*
X228014864Y-112233641D01*
X227919626Y-112186022D01*
X227872007Y-112138403D01*
X221842905Y-76959381D02*
X221842905Y-75959381D01*
X222414334Y-76959381D02*
X221985762Y-76387952D01*
X222414334Y-75959381D02*
X221842905Y-76530810D01*
X223271477Y-76292714D02*
X223271477Y-76959381D01*
X223033381Y-75911762D02*
X222795286Y-76626048D01*
X223414334Y-76626048D01*
X228043381Y-70101763D02*
X227567190Y-70435097D01*
X228043381Y-70673192D02*
X227043381Y-70673192D01*
X227043381Y-70292239D01*
X227091000Y-70197001D01*
X227138619Y-70149382D01*
X227233857Y-70101763D01*
X227376714Y-70101763D01*
X227471952Y-70149382D01*
X227519571Y-70197001D01*
X227567190Y-70292239D01*
X227567190Y-70673192D01*
X227519571Y-69673192D02*
X227519571Y-69339858D01*
X228043381Y-69197001D02*
X228043381Y-69673192D01*
X227043381Y-69673192D01*
X227043381Y-69197001D01*
X228043381Y-68292239D02*
X228043381Y-68768430D01*
X227043381Y-68768430D01*
X227757667Y-68006525D02*
X227757667Y-67530334D01*
X228043381Y-68101763D02*
X227043381Y-67768430D01*
X228043381Y-67435096D01*
X227567190Y-66911287D02*
X228043381Y-66911287D01*
X227043381Y-67244620D02*
X227567190Y-66911287D01*
X227043381Y-66577953D01*
X228138619Y-66482715D02*
X228138619Y-65720810D01*
X228043381Y-65482715D02*
X227043381Y-65482715D01*
X227757667Y-65149381D01*
X227043381Y-64816048D01*
X228043381Y-64816048D01*
X227995762Y-63958905D02*
X228043381Y-64054143D01*
X228043381Y-64244620D01*
X227995762Y-64339858D01*
X227900524Y-64387477D01*
X227519571Y-64387477D01*
X227424333Y-64339858D01*
X227376714Y-64244620D01*
X227376714Y-64054143D01*
X227424333Y-63958905D01*
X227519571Y-63911286D01*
X227614810Y-63911286D01*
X227710048Y-64387477D01*
X227376714Y-63625572D02*
X227376714Y-63244620D01*
X227043381Y-63482715D02*
X227900524Y-63482715D01*
X227995762Y-63435096D01*
X228043381Y-63339858D01*
X228043381Y-63244620D01*
X228043381Y-62482714D02*
X227519571Y-62482714D01*
X227424333Y-62530333D01*
X227376714Y-62625571D01*
X227376714Y-62816048D01*
X227424333Y-62911286D01*
X227995762Y-62482714D02*
X228043381Y-62577952D01*
X228043381Y-62816048D01*
X227995762Y-62911286D01*
X227900524Y-62958905D01*
X227805286Y-62958905D01*
X227710048Y-62911286D01*
X227662429Y-62816048D01*
X227662429Y-62577952D01*
X227614810Y-62482714D01*
X228043381Y-61863667D02*
X227995762Y-61958905D01*
X227900524Y-62006524D01*
X227043381Y-62006524D01*
X227376714Y-61625571D02*
X227376714Y-61244619D01*
X227043381Y-61482714D02*
X227900524Y-61482714D01*
X227995762Y-61435095D01*
X228043381Y-61339857D01*
X228043381Y-61244619D01*
X227995762Y-60530332D02*
X228043381Y-60625570D01*
X228043381Y-60816047D01*
X227995762Y-60911285D01*
X227900524Y-60958904D01*
X227519571Y-60958904D01*
X227424333Y-60911285D01*
X227376714Y-60816047D01*
X227376714Y-60625570D01*
X227424333Y-60530332D01*
X227519571Y-60482713D01*
X227614810Y-60482713D01*
X227710048Y-60958904D01*
X228043381Y-60149380D02*
X227376714Y-59625570D01*
X227376714Y-60149380D02*
X228043381Y-59625570D01*
X220502905Y-65499381D02*
X220502905Y-64499381D01*
X221074334Y-65499381D02*
X220645762Y-64927952D01*
X221074334Y-64499381D02*
X220502905Y-65070810D01*
X221931477Y-64832714D02*
X221931477Y-65499381D01*
X221693381Y-64451762D02*
X221455286Y-65166048D01*
X222074334Y-65166048D01*
X253262381Y-69222857D02*
X252786190Y-69556191D01*
X253262381Y-69794286D02*
X252262381Y-69794286D01*
X252262381Y-69413333D01*
X252310000Y-69318095D01*
X252357619Y-69270476D01*
X252452857Y-69222857D01*
X252595714Y-69222857D01*
X252690952Y-69270476D01*
X252738571Y-69318095D01*
X252786190Y-69413333D01*
X252786190Y-69794286D01*
X252357619Y-68841905D02*
X252310000Y-68794286D01*
X252262381Y-68699048D01*
X252262381Y-68460952D01*
X252310000Y-68365714D01*
X252357619Y-68318095D01*
X252452857Y-68270476D01*
X252548095Y-68270476D01*
X252690952Y-68318095D01*
X253262381Y-68889524D01*
X253262381Y-68270476D01*
X253262381Y-67318095D02*
X253262381Y-67889524D01*
X253262381Y-67603810D02*
X252262381Y-67603810D01*
X252405238Y-67699048D01*
X252500476Y-67794286D01*
X252548095Y-67889524D01*
X249812381Y-69175238D02*
X249812381Y-69746667D01*
X249812381Y-69460953D02*
X248812381Y-69460953D01*
X248955238Y-69556191D01*
X249050476Y-69651429D01*
X249098095Y-69746667D01*
X248812381Y-68556191D02*
X248812381Y-68460952D01*
X248860000Y-68365714D01*
X248907619Y-68318095D01*
X249002857Y-68270476D01*
X249193333Y-68222857D01*
X249431429Y-68222857D01*
X249621905Y-68270476D01*
X249717143Y-68318095D01*
X249764762Y-68365714D01*
X249812381Y-68460952D01*
X249812381Y-68556191D01*
X249764762Y-68651429D01*
X249717143Y-68699048D01*
X249621905Y-68746667D01*
X249431429Y-68794286D01*
X249193333Y-68794286D01*
X249002857Y-68746667D01*
X248907619Y-68699048D01*
X248860000Y-68651429D01*
X248812381Y-68556191D01*
X249812381Y-67794286D02*
X248812381Y-67794286D01*
X249431429Y-67699048D02*
X249812381Y-67413333D01*
X249145714Y-67413333D02*
X249526667Y-67794286D01*
X249082381Y-71972857D02*
X248606190Y-72306191D01*
X249082381Y-72544286D02*
X248082381Y-72544286D01*
X248082381Y-72163333D01*
X248130000Y-72068095D01*
X248177619Y-72020476D01*
X248272857Y-71972857D01*
X248415714Y-71972857D01*
X248510952Y-72020476D01*
X248558571Y-72068095D01*
X248606190Y-72163333D01*
X248606190Y-72544286D01*
X248177619Y-71591905D02*
X248130000Y-71544286D01*
X248082381Y-71449048D01*
X248082381Y-71210952D01*
X248130000Y-71115714D01*
X248177619Y-71068095D01*
X248272857Y-71020476D01*
X248368095Y-71020476D01*
X248510952Y-71068095D01*
X249082381Y-71639524D01*
X249082381Y-71020476D01*
X248177619Y-70639524D02*
X248130000Y-70591905D01*
X248082381Y-70496667D01*
X248082381Y-70258571D01*
X248130000Y-70163333D01*
X248177619Y-70115714D01*
X248272857Y-70068095D01*
X248368095Y-70068095D01*
X248510952Y-70115714D01*
X249082381Y-70687143D01*
X249082381Y-70068095D01*
X244632381Y-71496666D02*
X244632381Y-71972857D01*
X245108571Y-72020476D01*
X245060952Y-71972857D01*
X245013333Y-71877619D01*
X245013333Y-71639523D01*
X245060952Y-71544285D01*
X245108571Y-71496666D01*
X245203810Y-71449047D01*
X245441905Y-71449047D01*
X245537143Y-71496666D01*
X245584762Y-71544285D01*
X245632381Y-71639523D01*
X245632381Y-71877619D01*
X245584762Y-71972857D01*
X245537143Y-72020476D01*
X245632381Y-71020476D02*
X244632381Y-71020476D01*
X245251429Y-70925238D02*
X245632381Y-70639523D01*
X244965714Y-70639523D02*
X245346667Y-71020476D01*
X250726263Y-52048041D02*
X250392929Y-51571850D01*
X250154834Y-52048041D02*
X250154834Y-51048041D01*
X250535787Y-51048041D01*
X250631025Y-51095660D01*
X250678644Y-51143279D01*
X250726263Y-51238517D01*
X250726263Y-51381374D01*
X250678644Y-51476612D01*
X250631025Y-51524231D01*
X250535787Y-51571850D01*
X250154834Y-51571850D01*
X251107215Y-51143279D02*
X251154834Y-51095660D01*
X251250072Y-51048041D01*
X251488168Y-51048041D01*
X251583406Y-51095660D01*
X251631025Y-51143279D01*
X251678644Y-51238517D01*
X251678644Y-51333755D01*
X251631025Y-51476612D01*
X251059596Y-52048041D01*
X251678644Y-52048041D01*
X252535787Y-51381374D02*
X252535787Y-52048041D01*
X252297691Y-51000422D02*
X252059596Y-51714708D01*
X252678644Y-51714708D01*
X250829762Y-55502381D02*
X250258333Y-55502381D01*
X250544047Y-55502381D02*
X250544047Y-54502381D01*
X250448809Y-54645238D01*
X250353571Y-54740476D01*
X250258333Y-54788095D01*
X251448809Y-54502381D02*
X251544048Y-54502381D01*
X251639286Y-54550000D01*
X251686905Y-54597619D01*
X251734524Y-54692857D01*
X251782143Y-54883333D01*
X251782143Y-55121429D01*
X251734524Y-55311905D01*
X251686905Y-55407143D01*
X251639286Y-55454762D01*
X251544048Y-55502381D01*
X251448809Y-55502381D01*
X251353571Y-55454762D01*
X251305952Y-55407143D01*
X251258333Y-55311905D01*
X251210714Y-55121429D01*
X251210714Y-54883333D01*
X251258333Y-54692857D01*
X251305952Y-54597619D01*
X251353571Y-54550000D01*
X251448809Y-54502381D01*
X252210714Y-55502381D02*
X252210714Y-54502381D01*
X252305952Y-55121429D02*
X252591667Y-55502381D01*
X252591667Y-54835714D02*
X252210714Y-55216667D01*
X246382143Y-56227381D02*
X246048809Y-55751190D01*
X245810714Y-56227381D02*
X245810714Y-55227381D01*
X246191667Y-55227381D01*
X246286905Y-55275000D01*
X246334524Y-55322619D01*
X246382143Y-55417857D01*
X246382143Y-55560714D01*
X246334524Y-55655952D01*
X246286905Y-55703571D01*
X246191667Y-55751190D01*
X245810714Y-55751190D01*
X246763095Y-55322619D02*
X246810714Y-55275000D01*
X246905952Y-55227381D01*
X247144048Y-55227381D01*
X247239286Y-55275000D01*
X247286905Y-55322619D01*
X247334524Y-55417857D01*
X247334524Y-55513095D01*
X247286905Y-55655952D01*
X246715476Y-56227381D01*
X247334524Y-56227381D01*
X247667857Y-55227381D02*
X248286905Y-55227381D01*
X247953571Y-55608333D01*
X248096429Y-55608333D01*
X248191667Y-55655952D01*
X248239286Y-55703571D01*
X248286905Y-55798810D01*
X248286905Y-56036905D01*
X248239286Y-56132143D01*
X248191667Y-56179762D01*
X248096429Y-56227381D01*
X247810714Y-56227381D01*
X247715476Y-56179762D01*
X247667857Y-56132143D01*
X246429762Y-59677381D02*
X245858333Y-59677381D01*
X246144047Y-59677381D02*
X246144047Y-58677381D01*
X246048809Y-58820238D01*
X245953571Y-58915476D01*
X245858333Y-58963095D01*
X247048809Y-58677381D02*
X247144048Y-58677381D01*
X247239286Y-58725000D01*
X247286905Y-58772619D01*
X247334524Y-58867857D01*
X247382143Y-59058333D01*
X247382143Y-59296429D01*
X247334524Y-59486905D01*
X247286905Y-59582143D01*
X247239286Y-59629762D01*
X247144048Y-59677381D01*
X247048809Y-59677381D01*
X246953571Y-59629762D01*
X246905952Y-59582143D01*
X246858333Y-59486905D01*
X246810714Y-59296429D01*
X246810714Y-59058333D01*
X246858333Y-58867857D01*
X246905952Y-58772619D01*
X246953571Y-58725000D01*
X247048809Y-58677381D01*
X247810714Y-59677381D02*
X247810714Y-58677381D01*
X247905952Y-59296429D02*
X248191667Y-59677381D01*
X248191667Y-59010714D02*
X247810714Y-59391667D01*
D10*
X133099167Y-107969167D02*
X133099167Y-108535833D01*
X133132500Y-108602500D01*
X133165833Y-108635833D01*
X133232500Y-108669167D01*
X133365833Y-108669167D01*
X133432500Y-108635833D01*
X133465833Y-108602500D01*
X133499167Y-108535833D01*
X133499167Y-107969167D01*
X133799166Y-108035833D02*
X133832500Y-108002500D01*
X133899166Y-107969167D01*
X134065833Y-107969167D01*
X134132500Y-108002500D01*
X134165833Y-108035833D01*
X134199166Y-108102500D01*
X134199166Y-108169167D01*
X134165833Y-108269167D01*
X133765833Y-108669167D01*
X134199166Y-108669167D01*
X130569166Y-109079167D02*
X130969166Y-109079167D01*
X130769166Y-109779167D02*
X130769166Y-109079167D01*
X131169165Y-109745833D02*
X131269165Y-109779167D01*
X131435832Y-109779167D01*
X131502499Y-109745833D01*
X131535832Y-109712500D01*
X131569165Y-109645833D01*
X131569165Y-109579167D01*
X131535832Y-109512500D01*
X131502499Y-109479167D01*
X131435832Y-109445833D01*
X131302499Y-109412500D01*
X131235832Y-109379167D01*
X131202499Y-109345833D01*
X131169165Y-109279167D01*
X131169165Y-109212500D01*
X131202499Y-109145833D01*
X131235832Y-109112500D01*
X131302499Y-109079167D01*
X131469165Y-109079167D01*
X131569165Y-109112500D01*
X132202499Y-109079167D02*
X131869166Y-109079167D01*
X131835832Y-109412500D01*
X131869166Y-109379167D01*
X131935832Y-109345833D01*
X132102499Y-109345833D01*
X132169166Y-109379167D01*
X132202499Y-109412500D01*
X132235832Y-109479167D01*
X132235832Y-109645833D01*
X132202499Y-109712500D01*
X132169166Y-109745833D01*
X132102499Y-109779167D01*
X131935832Y-109779167D01*
X131869166Y-109745833D01*
X131835832Y-109712500D01*
X132502499Y-109579167D02*
X132835833Y-109579167D01*
X132435833Y-109779167D02*
X132669166Y-109079167D01*
X132902499Y-109779167D01*
X133102499Y-109145833D02*
X133135833Y-109112500D01*
X133202499Y-109079167D01*
X133369166Y-109079167D01*
X133435833Y-109112500D01*
X133469166Y-109145833D01*
X133502499Y-109212500D01*
X133502499Y-109279167D01*
X133469166Y-109379167D01*
X133069166Y-109779167D01*
X133502499Y-109779167D01*
X134169166Y-109779167D02*
X133769166Y-109779167D01*
X133969166Y-109779167D02*
X133969166Y-109079167D01*
X133902500Y-109179167D01*
X133835833Y-109245833D01*
X133769166Y-109279167D01*
X134402500Y-109079167D02*
X134835833Y-109079167D01*
X134602500Y-109345833D01*
X134702500Y-109345833D01*
X134769167Y-109379167D01*
X134802500Y-109412500D01*
X134835833Y-109479167D01*
X134835833Y-109645833D01*
X134802500Y-109712500D01*
X134769167Y-109745833D01*
X134702500Y-109779167D01*
X134502500Y-109779167D01*
X134435833Y-109745833D01*
X134402500Y-109712500D01*
X135435834Y-109079167D02*
X135302500Y-109079167D01*
X135235834Y-109112500D01*
X135202500Y-109145833D01*
X135135834Y-109245833D01*
X135102500Y-109379167D01*
X135102500Y-109645833D01*
X135135834Y-109712500D01*
X135169167Y-109745833D01*
X135235834Y-109779167D01*
X135369167Y-109779167D01*
X135435834Y-109745833D01*
X135469167Y-109712500D01*
X135502500Y-109645833D01*
X135502500Y-109479167D01*
X135469167Y-109412500D01*
X135435834Y-109379167D01*
X135369167Y-109345833D01*
X135235834Y-109345833D01*
X135169167Y-109379167D01*
X135135834Y-109412500D01*
X135102500Y-109479167D01*
X136102501Y-109079167D02*
X135969167Y-109079167D01*
X135902501Y-109112500D01*
X135869167Y-109145833D01*
X135802501Y-109245833D01*
X135769167Y-109379167D01*
X135769167Y-109645833D01*
X135802501Y-109712500D01*
X135835834Y-109745833D01*
X135902501Y-109779167D01*
X136035834Y-109779167D01*
X136102501Y-109745833D01*
X136135834Y-109712500D01*
X136169167Y-109645833D01*
X136169167Y-109479167D01*
X136135834Y-109412500D01*
X136102501Y-109379167D01*
X136035834Y-109345833D01*
X135902501Y-109345833D01*
X135835834Y-109379167D01*
X135802501Y-109412500D01*
X135769167Y-109479167D01*
X135749167Y-100369167D02*
X135749167Y-100935833D01*
X135782500Y-101002500D01*
X135815833Y-101035833D01*
X135882500Y-101069167D01*
X136015833Y-101069167D01*
X136082500Y-101035833D01*
X136115833Y-101002500D01*
X136149167Y-100935833D01*
X136149167Y-100369167D01*
X136849166Y-101069167D02*
X136449166Y-101069167D01*
X136649166Y-101069167D02*
X136649166Y-100369167D01*
X136582500Y-100469167D01*
X136515833Y-100535833D01*
X136449166Y-100569167D01*
X134976666Y-101576667D02*
X135376666Y-101576667D01*
X135176666Y-102276667D02*
X135176666Y-101576667D01*
X135576665Y-102243333D02*
X135676665Y-102276667D01*
X135843332Y-102276667D01*
X135909999Y-102243333D01*
X135943332Y-102210000D01*
X135976665Y-102143333D01*
X135976665Y-102076667D01*
X135943332Y-102010000D01*
X135909999Y-101976667D01*
X135843332Y-101943333D01*
X135709999Y-101910000D01*
X135643332Y-101876667D01*
X135609999Y-101843333D01*
X135576665Y-101776667D01*
X135576665Y-101710000D01*
X135609999Y-101643333D01*
X135643332Y-101610000D01*
X135709999Y-101576667D01*
X135876665Y-101576667D01*
X135976665Y-101610000D01*
X136609999Y-101576667D02*
X136276666Y-101576667D01*
X136243332Y-101910000D01*
X136276666Y-101876667D01*
X136343332Y-101843333D01*
X136509999Y-101843333D01*
X136576666Y-101876667D01*
X136609999Y-101910000D01*
X136643332Y-101976667D01*
X136643332Y-102143333D01*
X136609999Y-102210000D01*
X136576666Y-102243333D01*
X136509999Y-102276667D01*
X136343332Y-102276667D01*
X136276666Y-102243333D01*
X136243332Y-102210000D01*
X136909999Y-102076667D02*
X137243333Y-102076667D01*
X136843333Y-102276667D02*
X137076666Y-101576667D01*
X137309999Y-102276667D01*
X137509999Y-101643333D02*
X137543333Y-101610000D01*
X137609999Y-101576667D01*
X137776666Y-101576667D01*
X137843333Y-101610000D01*
X137876666Y-101643333D01*
X137909999Y-101710000D01*
X137909999Y-101776667D01*
X137876666Y-101876667D01*
X137476666Y-102276667D01*
X137909999Y-102276667D01*
X138576666Y-102276667D02*
X138176666Y-102276667D01*
X138376666Y-102276667D02*
X138376666Y-101576667D01*
X138310000Y-101676667D01*
X138243333Y-101743333D01*
X138176666Y-101776667D01*
X138810000Y-101576667D02*
X139243333Y-101576667D01*
X139010000Y-101843333D01*
X139110000Y-101843333D01*
X139176667Y-101876667D01*
X139210000Y-101910000D01*
X139243333Y-101976667D01*
X139243333Y-102143333D01*
X139210000Y-102210000D01*
X139176667Y-102243333D01*
X139110000Y-102276667D01*
X138910000Y-102276667D01*
X138843333Y-102243333D01*
X138810000Y-102210000D01*
X139843334Y-101576667D02*
X139710000Y-101576667D01*
X139643334Y-101610000D01*
X139610000Y-101643333D01*
X139543334Y-101743333D01*
X139510000Y-101876667D01*
X139510000Y-102143333D01*
X139543334Y-102210000D01*
X139576667Y-102243333D01*
X139643334Y-102276667D01*
X139776667Y-102276667D01*
X139843334Y-102243333D01*
X139876667Y-102210000D01*
X139910000Y-102143333D01*
X139910000Y-101976667D01*
X139876667Y-101910000D01*
X139843334Y-101876667D01*
X139776667Y-101843333D01*
X139643334Y-101843333D01*
X139576667Y-101876667D01*
X139543334Y-101910000D01*
X139510000Y-101976667D01*
X140510001Y-101576667D02*
X140376667Y-101576667D01*
X140310001Y-101610000D01*
X140276667Y-101643333D01*
X140210001Y-101743333D01*
X140176667Y-101876667D01*
X140176667Y-102143333D01*
X140210001Y-102210000D01*
X140243334Y-102243333D01*
X140310001Y-102276667D01*
X140443334Y-102276667D01*
X140510001Y-102243333D01*
X140543334Y-102210000D01*
X140576667Y-102143333D01*
X140576667Y-101976667D01*
X140543334Y-101910000D01*
X140510001Y-101876667D01*
X140443334Y-101843333D01*
X140310001Y-101843333D01*
X140243334Y-101876667D01*
X140210001Y-101910000D01*
X140176667Y-101976667D01*
X170876667Y-61633333D02*
X171443333Y-61633333D01*
X171510000Y-61600000D01*
X171543333Y-61566667D01*
X171576667Y-61500000D01*
X171576667Y-61366667D01*
X171543333Y-61300000D01*
X171510000Y-61266667D01*
X171443333Y-61233333D01*
X170876667Y-61233333D01*
X170876667Y-60566667D02*
X170876667Y-60900000D01*
X171210000Y-60933334D01*
X171176667Y-60900000D01*
X171143333Y-60833334D01*
X171143333Y-60666667D01*
X171176667Y-60600000D01*
X171210000Y-60566667D01*
X171276667Y-60533334D01*
X171443333Y-60533334D01*
X171510000Y-60566667D01*
X171543333Y-60600000D01*
X171576667Y-60666667D01*
X171576667Y-60833334D01*
X171543333Y-60900000D01*
X171510000Y-60933334D01*
X170216667Y-64310000D02*
X169516667Y-64310000D01*
X169516667Y-64143334D01*
X169550000Y-64043334D01*
X169616667Y-63976667D01*
X169683333Y-63943334D01*
X169816667Y-63910000D01*
X169916667Y-63910000D01*
X170050000Y-63943334D01*
X170116667Y-63976667D01*
X170183333Y-64043334D01*
X170216667Y-64143334D01*
X170216667Y-64310000D01*
X170150000Y-63210000D02*
X170183333Y-63243334D01*
X170216667Y-63343334D01*
X170216667Y-63410000D01*
X170183333Y-63510000D01*
X170116667Y-63576667D01*
X170050000Y-63610000D01*
X169916667Y-63643334D01*
X169816667Y-63643334D01*
X169683333Y-63610000D01*
X169616667Y-63576667D01*
X169550000Y-63510000D01*
X169516667Y-63410000D01*
X169516667Y-63343334D01*
X169550000Y-63243334D01*
X169583333Y-63210000D01*
X170216667Y-62510000D02*
X169883333Y-62743334D01*
X170216667Y-62910000D02*
X169516667Y-62910000D01*
X169516667Y-62643334D01*
X169550000Y-62576667D01*
X169583333Y-62543334D01*
X169650000Y-62510000D01*
X169750000Y-62510000D01*
X169816667Y-62543334D01*
X169850000Y-62576667D01*
X169883333Y-62643334D01*
X169883333Y-62910000D01*
X169516667Y-62076667D02*
X169516667Y-62010000D01*
X169550000Y-61943334D01*
X169583333Y-61910000D01*
X169650000Y-61876667D01*
X169783333Y-61843334D01*
X169950000Y-61843334D01*
X170083333Y-61876667D01*
X170150000Y-61910000D01*
X170183333Y-61943334D01*
X170216667Y-62010000D01*
X170216667Y-62076667D01*
X170183333Y-62143334D01*
X170150000Y-62176667D01*
X170083333Y-62210000D01*
X169950000Y-62243334D01*
X169783333Y-62243334D01*
X169650000Y-62210000D01*
X169583333Y-62176667D01*
X169550000Y-62143334D01*
X169516667Y-62076667D01*
X170216667Y-61176667D02*
X170216667Y-61576667D01*
X170216667Y-61376667D02*
X169516667Y-61376667D01*
X169616667Y-61443333D01*
X169683333Y-61510000D01*
X169716667Y-61576667D01*
X169516667Y-60743333D02*
X169516667Y-60676666D01*
X169550000Y-60610000D01*
X169583333Y-60576666D01*
X169650000Y-60543333D01*
X169783333Y-60510000D01*
X169950000Y-60510000D01*
X170083333Y-60543333D01*
X170150000Y-60576666D01*
X170183333Y-60610000D01*
X170216667Y-60676666D01*
X170216667Y-60743333D01*
X170183333Y-60810000D01*
X170150000Y-60843333D01*
X170083333Y-60876666D01*
X169950000Y-60910000D01*
X169783333Y-60910000D01*
X169650000Y-60876666D01*
X169583333Y-60843333D01*
X169550000Y-60810000D01*
X169516667Y-60743333D01*
X169516667Y-59876666D02*
X169516667Y-60209999D01*
X169850000Y-60243333D01*
X169816667Y-60209999D01*
X169783333Y-60143333D01*
X169783333Y-59976666D01*
X169816667Y-59909999D01*
X169850000Y-59876666D01*
X169916667Y-59843333D01*
X170083333Y-59843333D01*
X170150000Y-59876666D01*
X170183333Y-59909999D01*
X170216667Y-59976666D01*
X170216667Y-60143333D01*
X170183333Y-60209999D01*
X170150000Y-60243333D01*
X169516667Y-59409999D02*
X169516667Y-59343332D01*
X169550000Y-59276666D01*
X169583333Y-59243332D01*
X169650000Y-59209999D01*
X169783333Y-59176666D01*
X169950000Y-59176666D01*
X170083333Y-59209999D01*
X170150000Y-59243332D01*
X170183333Y-59276666D01*
X170216667Y-59343332D01*
X170216667Y-59409999D01*
X170183333Y-59476666D01*
X170150000Y-59509999D01*
X170083333Y-59543332D01*
X169950000Y-59576666D01*
X169783333Y-59576666D01*
X169650000Y-59543332D01*
X169583333Y-59509999D01*
X169550000Y-59476666D01*
X169516667Y-59409999D01*
X169516667Y-58543332D02*
X169516667Y-58876665D01*
X169850000Y-58909999D01*
X169816667Y-58876665D01*
X169783333Y-58809999D01*
X169783333Y-58643332D01*
X169816667Y-58576665D01*
X169850000Y-58543332D01*
X169916667Y-58509999D01*
X170083333Y-58509999D01*
X170150000Y-58543332D01*
X170183333Y-58576665D01*
X170216667Y-58643332D01*
X170216667Y-58809999D01*
X170183333Y-58876665D01*
X170150000Y-58909999D01*
X169516667Y-58209998D02*
X170083333Y-58209998D01*
X170150000Y-58176665D01*
X170183333Y-58143332D01*
X170216667Y-58076665D01*
X170216667Y-57943332D01*
X170183333Y-57876665D01*
X170150000Y-57843332D01*
X170083333Y-57809998D01*
X169516667Y-57809998D01*
X159279167Y-94889167D02*
X159279167Y-95455833D01*
X159312500Y-95522500D01*
X159345833Y-95555833D01*
X159412500Y-95589167D01*
X159545833Y-95589167D01*
X159612500Y-95555833D01*
X159645833Y-95522500D01*
X159679167Y-95455833D01*
X159679167Y-94889167D01*
X160312500Y-95122500D02*
X160312500Y-95589167D01*
X160145833Y-94855833D02*
X159979166Y-95355833D01*
X160412500Y-95355833D01*
X158185833Y-96859167D02*
X158185833Y-96159167D01*
X158852499Y-96859167D02*
X158519166Y-96859167D01*
X158519166Y-96159167D01*
X159019166Y-96159167D02*
X159452499Y-96159167D01*
X159219166Y-96425833D01*
X159319166Y-96425833D01*
X159385833Y-96459167D01*
X159419166Y-96492500D01*
X159452499Y-96559167D01*
X159452499Y-96725833D01*
X159419166Y-96792500D01*
X159385833Y-96825833D01*
X159319166Y-96859167D01*
X159119166Y-96859167D01*
X159052499Y-96825833D01*
X159019166Y-96792500D01*
X160052500Y-96159167D02*
X159919166Y-96159167D01*
X159852500Y-96192500D01*
X159819166Y-96225833D01*
X159752500Y-96325833D01*
X159719166Y-96459167D01*
X159719166Y-96725833D01*
X159752500Y-96792500D01*
X159785833Y-96825833D01*
X159852500Y-96859167D01*
X159985833Y-96859167D01*
X160052500Y-96825833D01*
X160085833Y-96792500D01*
X160119166Y-96725833D01*
X160119166Y-96559167D01*
X160085833Y-96492500D01*
X160052500Y-96459167D01*
X159985833Y-96425833D01*
X159852500Y-96425833D01*
X159785833Y-96459167D01*
X159752500Y-96492500D01*
X159719166Y-96559167D01*
X160519167Y-96459167D02*
X160452500Y-96425833D01*
X160419167Y-96392500D01*
X160385833Y-96325833D01*
X160385833Y-96292500D01*
X160419167Y-96225833D01*
X160452500Y-96192500D01*
X160519167Y-96159167D01*
X160652500Y-96159167D01*
X160719167Y-96192500D01*
X160752500Y-96225833D01*
X160785833Y-96292500D01*
X160785833Y-96325833D01*
X160752500Y-96392500D01*
X160719167Y-96425833D01*
X160652500Y-96459167D01*
X160519167Y-96459167D01*
X160452500Y-96492500D01*
X160419167Y-96525833D01*
X160385833Y-96592500D01*
X160385833Y-96725833D01*
X160419167Y-96792500D01*
X160452500Y-96825833D01*
X160519167Y-96859167D01*
X160652500Y-96859167D01*
X160719167Y-96825833D01*
X160752500Y-96792500D01*
X160785833Y-96725833D01*
X160785833Y-96592500D01*
X160752500Y-96525833D01*
X160719167Y-96492500D01*
X160652500Y-96459167D01*
X161419167Y-96159167D02*
X161085834Y-96159167D01*
X161052500Y-96492500D01*
X161085834Y-96459167D01*
X161152500Y-96425833D01*
X161319167Y-96425833D01*
X161385834Y-96459167D01*
X161419167Y-96492500D01*
X161452500Y-96559167D01*
X161452500Y-96725833D01*
X161419167Y-96792500D01*
X161385834Y-96825833D01*
X161319167Y-96859167D01*
X161152500Y-96859167D01*
X161085834Y-96825833D01*
X161052500Y-96792500D01*
X174009167Y-113439167D02*
X174009167Y-114005833D01*
X174042500Y-114072500D01*
X174075833Y-114105833D01*
X174142500Y-114139167D01*
X174275833Y-114139167D01*
X174342500Y-114105833D01*
X174375833Y-114072500D01*
X174409167Y-114005833D01*
X174409167Y-113439167D01*
X174675833Y-113439167D02*
X175109166Y-113439167D01*
X174875833Y-113705833D01*
X174975833Y-113705833D01*
X175042500Y-113739167D01*
X175075833Y-113772500D01*
X175109166Y-113839167D01*
X175109166Y-114005833D01*
X175075833Y-114072500D01*
X175042500Y-114105833D01*
X174975833Y-114139167D01*
X174775833Y-114139167D01*
X174709166Y-114105833D01*
X174675833Y-114072500D01*
X172762500Y-112532500D02*
X172529167Y-112532500D01*
X172529167Y-112899167D02*
X172529167Y-112199167D01*
X172862500Y-112199167D01*
X173029167Y-112199167D02*
X173429167Y-112199167D01*
X173229167Y-112899167D02*
X173229167Y-112199167D01*
X173629166Y-112265833D02*
X173662500Y-112232500D01*
X173729166Y-112199167D01*
X173895833Y-112199167D01*
X173962500Y-112232500D01*
X173995833Y-112265833D01*
X174029166Y-112332500D01*
X174029166Y-112399167D01*
X173995833Y-112499167D01*
X173595833Y-112899167D01*
X174029166Y-112899167D01*
X174262500Y-112199167D02*
X174695833Y-112199167D01*
X174462500Y-112465833D01*
X174562500Y-112465833D01*
X174629167Y-112499167D01*
X174662500Y-112532500D01*
X174695833Y-112599167D01*
X174695833Y-112765833D01*
X174662500Y-112832500D01*
X174629167Y-112865833D01*
X174562500Y-112899167D01*
X174362500Y-112899167D01*
X174295833Y-112865833D01*
X174262500Y-112832500D01*
X174962500Y-112265833D02*
X174995834Y-112232500D01*
X175062500Y-112199167D01*
X175229167Y-112199167D01*
X175295834Y-112232500D01*
X175329167Y-112265833D01*
X175362500Y-112332500D01*
X175362500Y-112399167D01*
X175329167Y-112499167D01*
X174929167Y-112899167D01*
X175362500Y-112899167D01*
X176062501Y-112899167D02*
X175829167Y-112565833D01*
X175662501Y-112899167D02*
X175662501Y-112199167D01*
X175929167Y-112199167D01*
X175995834Y-112232500D01*
X176029167Y-112265833D01*
X176062501Y-112332500D01*
X176062501Y-112432500D01*
X176029167Y-112499167D01*
X175995834Y-112532500D01*
X175929167Y-112565833D01*
X175662501Y-112565833D01*
X176695834Y-112899167D02*
X176362501Y-112899167D01*
X176362501Y-112199167D01*
X173586667Y-54950000D02*
X173253333Y-55183334D01*
X173586667Y-55350000D02*
X172886667Y-55350000D01*
X172886667Y-55083334D01*
X172920000Y-55016667D01*
X172953333Y-54983334D01*
X173020000Y-54950000D01*
X173120000Y-54950000D01*
X173186667Y-54983334D01*
X173220000Y-55016667D01*
X173253333Y-55083334D01*
X173253333Y-55350000D01*
X172886667Y-54716667D02*
X172886667Y-54283334D01*
X173153333Y-54516667D01*
X173153333Y-54416667D01*
X173186667Y-54350000D01*
X173220000Y-54316667D01*
X173286667Y-54283334D01*
X173453333Y-54283334D01*
X173520000Y-54316667D01*
X173553333Y-54350000D01*
X173586667Y-54416667D01*
X173586667Y-54616667D01*
X173553333Y-54683334D01*
X173520000Y-54716667D01*
X172886667Y-54050000D02*
X172886667Y-53616667D01*
X173153333Y-53850000D01*
X173153333Y-53750000D01*
X173186667Y-53683333D01*
X173220000Y-53650000D01*
X173286667Y-53616667D01*
X173453333Y-53616667D01*
X173520000Y-53650000D01*
X173553333Y-53683333D01*
X173586667Y-53750000D01*
X173586667Y-53950000D01*
X173553333Y-54016667D01*
X173520000Y-54050000D01*
X174716667Y-55426667D02*
X174716667Y-55826667D01*
X174716667Y-55626667D02*
X174016667Y-55626667D01*
X174116667Y-55693333D01*
X174183333Y-55760000D01*
X174216667Y-55826667D01*
X174016667Y-54993333D02*
X174016667Y-54926666D01*
X174050000Y-54860000D01*
X174083333Y-54826666D01*
X174150000Y-54793333D01*
X174283333Y-54760000D01*
X174450000Y-54760000D01*
X174583333Y-54793333D01*
X174650000Y-54826666D01*
X174683333Y-54860000D01*
X174716667Y-54926666D01*
X174716667Y-54993333D01*
X174683333Y-55060000D01*
X174650000Y-55093333D01*
X174583333Y-55126666D01*
X174450000Y-55160000D01*
X174283333Y-55160000D01*
X174150000Y-55126666D01*
X174083333Y-55093333D01*
X174050000Y-55060000D01*
X174016667Y-54993333D01*
X174716667Y-54459999D02*
X174016667Y-54459999D01*
X174450000Y-54393333D02*
X174716667Y-54193333D01*
X174250000Y-54193333D02*
X174516667Y-54459999D01*
X174716667Y-53926666D02*
X174716667Y-53759999D01*
X174583333Y-53759999D01*
X174550000Y-53826666D01*
X174483333Y-53893332D01*
X174383333Y-53926666D01*
X174216667Y-53926666D01*
X174116667Y-53893332D01*
X174050000Y-53826666D01*
X174016667Y-53726666D01*
X174016667Y-53593332D01*
X174050000Y-53493332D01*
X174116667Y-53426666D01*
X174216667Y-53393332D01*
X174383333Y-53393332D01*
X174483333Y-53426666D01*
X174550000Y-53493332D01*
X174583333Y-53559999D01*
X174716667Y-53559999D01*
X174716667Y-53393332D01*
X168310000Y-71346667D02*
X168076666Y-71013333D01*
X167910000Y-71346667D02*
X167910000Y-70646667D01*
X168176666Y-70646667D01*
X168243333Y-70680000D01*
X168276666Y-70713333D01*
X168310000Y-70780000D01*
X168310000Y-70880000D01*
X168276666Y-70946667D01*
X168243333Y-70980000D01*
X168176666Y-71013333D01*
X167910000Y-71013333D01*
X168543333Y-70646667D02*
X168976666Y-70646667D01*
X168743333Y-70913333D01*
X168843333Y-70913333D01*
X168910000Y-70946667D01*
X168943333Y-70980000D01*
X168976666Y-71046667D01*
X168976666Y-71213333D01*
X168943333Y-71280000D01*
X168910000Y-71313333D01*
X168843333Y-71346667D01*
X168643333Y-71346667D01*
X168576666Y-71313333D01*
X168543333Y-71280000D01*
X169243333Y-70713333D02*
X169276667Y-70680000D01*
X169343333Y-70646667D01*
X169510000Y-70646667D01*
X169576667Y-70680000D01*
X169610000Y-70713333D01*
X169643333Y-70780000D01*
X169643333Y-70846667D01*
X169610000Y-70946667D01*
X169210000Y-71346667D01*
X169643333Y-71346667D01*
X167923333Y-70186667D02*
X167523333Y-70186667D01*
X167723333Y-70186667D02*
X167723333Y-69486667D01*
X167656667Y-69586667D01*
X167590000Y-69653333D01*
X167523333Y-69686667D01*
X168356667Y-69486667D02*
X168423334Y-69486667D01*
X168490000Y-69520000D01*
X168523334Y-69553333D01*
X168556667Y-69620000D01*
X168590000Y-69753333D01*
X168590000Y-69920000D01*
X168556667Y-70053333D01*
X168523334Y-70120000D01*
X168490000Y-70153333D01*
X168423334Y-70186667D01*
X168356667Y-70186667D01*
X168290000Y-70153333D01*
X168256667Y-70120000D01*
X168223334Y-70053333D01*
X168190000Y-69920000D01*
X168190000Y-69753333D01*
X168223334Y-69620000D01*
X168256667Y-69553333D01*
X168290000Y-69520000D01*
X168356667Y-69486667D01*
X168890001Y-70186667D02*
X168890001Y-69486667D01*
X168956667Y-69920000D02*
X169156667Y-70186667D01*
X169156667Y-69720000D02*
X168890001Y-69986667D01*
X169423334Y-70186667D02*
X169590001Y-70186667D01*
X169590001Y-70053333D01*
X169523334Y-70020000D01*
X169456668Y-69953333D01*
X169423334Y-69853333D01*
X169423334Y-69686667D01*
X169456668Y-69586667D01*
X169523334Y-69520000D01*
X169623334Y-69486667D01*
X169756668Y-69486667D01*
X169856668Y-69520000D01*
X169923334Y-69586667D01*
X169956668Y-69686667D01*
X169956668Y-69853333D01*
X169923334Y-69953333D01*
X169856668Y-70020000D01*
X169790001Y-70053333D01*
X169790001Y-70186667D01*
X169956668Y-70186667D01*
X141300000Y-80886667D02*
X141066666Y-80553333D01*
X140900000Y-80886667D02*
X140900000Y-80186667D01*
X141166666Y-80186667D01*
X141233333Y-80220000D01*
X141266666Y-80253333D01*
X141300000Y-80320000D01*
X141300000Y-80420000D01*
X141266666Y-80486667D01*
X141233333Y-80520000D01*
X141166666Y-80553333D01*
X140900000Y-80553333D01*
X141566666Y-80253333D02*
X141600000Y-80220000D01*
X141666666Y-80186667D01*
X141833333Y-80186667D01*
X141900000Y-80220000D01*
X141933333Y-80253333D01*
X141966666Y-80320000D01*
X141966666Y-80386667D01*
X141933333Y-80486667D01*
X141533333Y-80886667D01*
X141966666Y-80886667D01*
X142366667Y-80486667D02*
X142300000Y-80453333D01*
X142266667Y-80420000D01*
X142233333Y-80353333D01*
X142233333Y-80320000D01*
X142266667Y-80253333D01*
X142300000Y-80220000D01*
X142366667Y-80186667D01*
X142500000Y-80186667D01*
X142566667Y-80220000D01*
X142600000Y-80253333D01*
X142633333Y-80320000D01*
X142633333Y-80353333D01*
X142600000Y-80420000D01*
X142566667Y-80453333D01*
X142500000Y-80486667D01*
X142366667Y-80486667D01*
X142300000Y-80520000D01*
X142266667Y-80553333D01*
X142233333Y-80620000D01*
X142233333Y-80753333D01*
X142266667Y-80820000D01*
X142300000Y-80853333D01*
X142366667Y-80886667D01*
X142500000Y-80886667D01*
X142566667Y-80853333D01*
X142600000Y-80820000D01*
X142633333Y-80753333D01*
X142633333Y-80620000D01*
X142600000Y-80553333D01*
X142566667Y-80520000D01*
X142500000Y-80486667D01*
X137530000Y-80166667D02*
X137963333Y-80166667D01*
X137730000Y-80433333D01*
X137830000Y-80433333D01*
X137896667Y-80466667D01*
X137930000Y-80500000D01*
X137963333Y-80566667D01*
X137963333Y-80733333D01*
X137930000Y-80800000D01*
X137896667Y-80833333D01*
X137830000Y-80866667D01*
X137630000Y-80866667D01*
X137563333Y-80833333D01*
X137530000Y-80800000D01*
X138196667Y-80166667D02*
X138630000Y-80166667D01*
X138396667Y-80433333D01*
X138496667Y-80433333D01*
X138563334Y-80466667D01*
X138596667Y-80500000D01*
X138630000Y-80566667D01*
X138630000Y-80733333D01*
X138596667Y-80800000D01*
X138563334Y-80833333D01*
X138496667Y-80866667D01*
X138296667Y-80866667D01*
X138230000Y-80833333D01*
X138196667Y-80800000D01*
X139063334Y-80166667D02*
X139130001Y-80166667D01*
X139196667Y-80200000D01*
X139230001Y-80233333D01*
X139263334Y-80300000D01*
X139296667Y-80433333D01*
X139296667Y-80600000D01*
X139263334Y-80733333D01*
X139230001Y-80800000D01*
X139196667Y-80833333D01*
X139130001Y-80866667D01*
X139063334Y-80866667D01*
X138996667Y-80833333D01*
X138963334Y-80800000D01*
X138930001Y-80733333D01*
X138896667Y-80600000D01*
X138896667Y-80433333D01*
X138930001Y-80300000D01*
X138963334Y-80233333D01*
X138996667Y-80200000D01*
X139063334Y-80166667D01*
X139563334Y-80866667D02*
X139730001Y-80866667D01*
X139730001Y-80733333D01*
X139663334Y-80700000D01*
X139596668Y-80633333D01*
X139563334Y-80533333D01*
X139563334Y-80366667D01*
X139596668Y-80266667D01*
X139663334Y-80200000D01*
X139763334Y-80166667D01*
X139896668Y-80166667D01*
X139996668Y-80200000D01*
X140063334Y-80266667D01*
X140096668Y-80366667D01*
X140096668Y-80533333D01*
X140063334Y-80633333D01*
X139996668Y-80700000D01*
X139930001Y-80733333D01*
X139930001Y-80866667D01*
X140096668Y-80866667D01*
X169366667Y-124640000D02*
X169133334Y-124640000D01*
X169133334Y-125006667D02*
X169133334Y-124306667D01*
X169466667Y-124306667D01*
X169966667Y-124640000D02*
X170066667Y-124673333D01*
X170100000Y-124706667D01*
X170133334Y-124773333D01*
X170133334Y-124873333D01*
X170100000Y-124940000D01*
X170066667Y-124973333D01*
X170000000Y-125006667D01*
X169733334Y-125006667D01*
X169733334Y-124306667D01*
X169966667Y-124306667D01*
X170033334Y-124340000D01*
X170066667Y-124373333D01*
X170100000Y-124440000D01*
X170100000Y-124506667D01*
X170066667Y-124573333D01*
X170033334Y-124606667D01*
X169966667Y-124640000D01*
X169733334Y-124640000D01*
X170800000Y-125006667D02*
X170400000Y-125006667D01*
X170600000Y-125006667D02*
X170600000Y-124306667D01*
X170533334Y-124406667D01*
X170466667Y-124473333D01*
X170400000Y-124506667D01*
X163540000Y-122840000D02*
X163540000Y-123306667D01*
X163373333Y-122573333D02*
X163206666Y-123073333D01*
X163640000Y-123073333D01*
X164040000Y-122606667D02*
X164106667Y-122606667D01*
X164173333Y-122640000D01*
X164206667Y-122673333D01*
X164240000Y-122740000D01*
X164273333Y-122873333D01*
X164273333Y-123040000D01*
X164240000Y-123173333D01*
X164206667Y-123240000D01*
X164173333Y-123273333D01*
X164106667Y-123306667D01*
X164040000Y-123306667D01*
X163973333Y-123273333D01*
X163940000Y-123240000D01*
X163906667Y-123173333D01*
X163873333Y-123040000D01*
X163873333Y-122873333D01*
X163906667Y-122740000D01*
X163940000Y-122673333D01*
X163973333Y-122640000D01*
X164040000Y-122606667D01*
X164540000Y-123306667D02*
X164706667Y-123306667D01*
X164706667Y-123173333D01*
X164640000Y-123140000D01*
X164573334Y-123073333D01*
X164540000Y-122973333D01*
X164540000Y-122806667D01*
X164573334Y-122706667D01*
X164640000Y-122640000D01*
X164740000Y-122606667D01*
X164873334Y-122606667D01*
X164973334Y-122640000D01*
X165040000Y-122706667D01*
X165073334Y-122806667D01*
X165073334Y-122973333D01*
X165040000Y-123073333D01*
X164973334Y-123140000D01*
X164906667Y-123173333D01*
X164906667Y-123306667D01*
X165073334Y-123306667D01*
X166340000Y-122973333D02*
X166306667Y-122940000D01*
X166240000Y-122906667D01*
X166173333Y-122906667D01*
X166106667Y-122940000D01*
X166073333Y-122973333D01*
X166040000Y-123040000D01*
X166040000Y-123106667D01*
X166073333Y-123173333D01*
X166106667Y-123206667D01*
X166173333Y-123240000D01*
X166240000Y-123240000D01*
X166306667Y-123206667D01*
X166340000Y-123173333D01*
X166340000Y-122906667D02*
X166340000Y-123173333D01*
X166373333Y-123206667D01*
X166406667Y-123206667D01*
X166473333Y-123173333D01*
X166506667Y-123106667D01*
X166506667Y-122940000D01*
X166440000Y-122840000D01*
X166340000Y-122773333D01*
X166206667Y-122740000D01*
X166073333Y-122773333D01*
X165973333Y-122840000D01*
X165906667Y-122940000D01*
X165873333Y-123073333D01*
X165906667Y-123206667D01*
X165973333Y-123306667D01*
X166073333Y-123373333D01*
X166206667Y-123406667D01*
X166340000Y-123373333D01*
X166440000Y-123306667D01*
X167706666Y-123306667D02*
X167306666Y-123306667D01*
X167506666Y-123306667D02*
X167506666Y-122606667D01*
X167440000Y-122706667D01*
X167373333Y-122773333D01*
X167306666Y-122806667D01*
X168140000Y-122606667D02*
X168206667Y-122606667D01*
X168273333Y-122640000D01*
X168306667Y-122673333D01*
X168340000Y-122740000D01*
X168373333Y-122873333D01*
X168373333Y-123040000D01*
X168340000Y-123173333D01*
X168306667Y-123240000D01*
X168273333Y-123273333D01*
X168206667Y-123306667D01*
X168140000Y-123306667D01*
X168073333Y-123273333D01*
X168040000Y-123240000D01*
X168006667Y-123173333D01*
X167973333Y-123040000D01*
X167973333Y-122873333D01*
X168006667Y-122740000D01*
X168040000Y-122673333D01*
X168073333Y-122640000D01*
X168140000Y-122606667D01*
X168806667Y-122606667D02*
X168873334Y-122606667D01*
X168940000Y-122640000D01*
X168973334Y-122673333D01*
X169006667Y-122740000D01*
X169040000Y-122873333D01*
X169040000Y-123040000D01*
X169006667Y-123173333D01*
X168973334Y-123240000D01*
X168940000Y-123273333D01*
X168873334Y-123306667D01*
X168806667Y-123306667D01*
X168740000Y-123273333D01*
X168706667Y-123240000D01*
X168673334Y-123173333D01*
X168640000Y-123040000D01*
X168640000Y-122873333D01*
X168673334Y-122740000D01*
X168706667Y-122673333D01*
X168740000Y-122640000D01*
X168806667Y-122606667D01*
X169873334Y-123306667D02*
X169873334Y-122606667D01*
X170106667Y-123106667D01*
X170340000Y-122606667D01*
X170340000Y-123306667D01*
X170673334Y-123306667D02*
X170673334Y-122606667D01*
X170673334Y-122940000D02*
X171073334Y-122940000D01*
X171073334Y-123306667D02*
X171073334Y-122606667D01*
X171340000Y-122840000D02*
X171706667Y-122840000D01*
X171340000Y-123306667D01*
X171706667Y-123306667D01*
X173310000Y-66850000D02*
X173276666Y-66883333D01*
X173176666Y-66916667D01*
X173110000Y-66916667D01*
X173010000Y-66883333D01*
X172943333Y-66816667D01*
X172910000Y-66750000D01*
X172876666Y-66616667D01*
X172876666Y-66516667D01*
X172910000Y-66383333D01*
X172943333Y-66316667D01*
X173010000Y-66250000D01*
X173110000Y-66216667D01*
X173176666Y-66216667D01*
X173276666Y-66250000D01*
X173310000Y-66283333D01*
X173976666Y-66916667D02*
X173576666Y-66916667D01*
X173776666Y-66916667D02*
X173776666Y-66216667D01*
X173710000Y-66316667D01*
X173643333Y-66383333D01*
X173576666Y-66416667D01*
X174410000Y-66216667D02*
X174476667Y-66216667D01*
X174543333Y-66250000D01*
X174576667Y-66283333D01*
X174610000Y-66350000D01*
X174643333Y-66483333D01*
X174643333Y-66650000D01*
X174610000Y-66783333D01*
X174576667Y-66850000D01*
X174543333Y-66883333D01*
X174476667Y-66916667D01*
X174410000Y-66916667D01*
X174343333Y-66883333D01*
X174310000Y-66850000D01*
X174276667Y-66783333D01*
X174243333Y-66650000D01*
X174243333Y-66483333D01*
X174276667Y-66350000D01*
X174310000Y-66283333D01*
X174343333Y-66250000D01*
X174410000Y-66216667D01*
X172826666Y-68076667D02*
X172426666Y-68076667D01*
X172626666Y-68076667D02*
X172626666Y-67376667D01*
X172560000Y-67476667D01*
X172493333Y-67543333D01*
X172426666Y-67576667D01*
X173260000Y-67376667D02*
X173326667Y-67376667D01*
X173393333Y-67410000D01*
X173426667Y-67443333D01*
X173460000Y-67510000D01*
X173493333Y-67643333D01*
X173493333Y-67810000D01*
X173460000Y-67943333D01*
X173426667Y-68010000D01*
X173393333Y-68043333D01*
X173326667Y-68076667D01*
X173260000Y-68076667D01*
X173193333Y-68043333D01*
X173160000Y-68010000D01*
X173126667Y-67943333D01*
X173093333Y-67810000D01*
X173093333Y-67643333D01*
X173126667Y-67510000D01*
X173160000Y-67443333D01*
X173193333Y-67410000D01*
X173260000Y-67376667D01*
X173926667Y-67376667D02*
X173993334Y-67376667D01*
X174060000Y-67410000D01*
X174093334Y-67443333D01*
X174126667Y-67510000D01*
X174160000Y-67643333D01*
X174160000Y-67810000D01*
X174126667Y-67943333D01*
X174093334Y-68010000D01*
X174060000Y-68043333D01*
X173993334Y-68076667D01*
X173926667Y-68076667D01*
X173860000Y-68043333D01*
X173826667Y-68010000D01*
X173793334Y-67943333D01*
X173760000Y-67810000D01*
X173760000Y-67643333D01*
X173793334Y-67510000D01*
X173826667Y-67443333D01*
X173860000Y-67410000D01*
X173926667Y-67376667D01*
X174460001Y-67610000D02*
X174460001Y-68076667D01*
X174460001Y-67676667D02*
X174493334Y-67643333D01*
X174560001Y-67610000D01*
X174660001Y-67610000D01*
X174726667Y-67643333D01*
X174760001Y-67710000D01*
X174760001Y-68076667D01*
X175326667Y-67710000D02*
X175093334Y-67710000D01*
X175093334Y-68076667D02*
X175093334Y-67376667D01*
X175426667Y-67376667D01*
X171893334Y-78540000D02*
X171860000Y-78573333D01*
X171760000Y-78606667D01*
X171693334Y-78606667D01*
X171593334Y-78573333D01*
X171526667Y-78506667D01*
X171493334Y-78440000D01*
X171460000Y-78306667D01*
X171460000Y-78206667D01*
X171493334Y-78073333D01*
X171526667Y-78006667D01*
X171593334Y-77940000D01*
X171693334Y-77906667D01*
X171760000Y-77906667D01*
X171860000Y-77940000D01*
X171893334Y-77973333D01*
X172293334Y-78206667D02*
X172226667Y-78173333D01*
X172193334Y-78140000D01*
X172160000Y-78073333D01*
X172160000Y-78040000D01*
X172193334Y-77973333D01*
X172226667Y-77940000D01*
X172293334Y-77906667D01*
X172426667Y-77906667D01*
X172493334Y-77940000D01*
X172526667Y-77973333D01*
X172560000Y-78040000D01*
X172560000Y-78073333D01*
X172526667Y-78140000D01*
X172493334Y-78173333D01*
X172426667Y-78206667D01*
X172293334Y-78206667D01*
X172226667Y-78240000D01*
X172193334Y-78273333D01*
X172160000Y-78340000D01*
X172160000Y-78473333D01*
X172193334Y-78540000D01*
X172226667Y-78573333D01*
X172293334Y-78606667D01*
X172426667Y-78606667D01*
X172493334Y-78573333D01*
X172526667Y-78540000D01*
X172560000Y-78473333D01*
X172560000Y-78340000D01*
X172526667Y-78273333D01*
X172493334Y-78240000D01*
X172426667Y-78206667D01*
X171703333Y-79726667D02*
X171303333Y-79726667D01*
X171503333Y-79726667D02*
X171503333Y-79026667D01*
X171436667Y-79126667D01*
X171370000Y-79193333D01*
X171303333Y-79226667D01*
X172003334Y-79260000D02*
X172003334Y-79960000D01*
X172336667Y-79626667D02*
X172370000Y-79693333D01*
X172436667Y-79726667D01*
X172003334Y-79626667D02*
X172036667Y-79693333D01*
X172103334Y-79726667D01*
X172236667Y-79726667D01*
X172303334Y-79693333D01*
X172336667Y-79626667D01*
X172336667Y-79260000D01*
X172970000Y-79360000D02*
X172736667Y-79360000D01*
X172736667Y-79726667D02*
X172736667Y-79026667D01*
X173070000Y-79026667D01*
X151020000Y-40856666D02*
X151053333Y-40890000D01*
X151086667Y-40990000D01*
X151086667Y-41056666D01*
X151053333Y-41156666D01*
X150986667Y-41223333D01*
X150920000Y-41256666D01*
X150786667Y-41290000D01*
X150686667Y-41290000D01*
X150553333Y-41256666D01*
X150486667Y-41223333D01*
X150420000Y-41156666D01*
X150386667Y-41056666D01*
X150386667Y-40990000D01*
X150420000Y-40890000D01*
X150453333Y-40856666D01*
X150386667Y-40623333D02*
X150386667Y-40156666D01*
X151086667Y-40456666D01*
X152020000Y-41583333D02*
X152486667Y-41583333D01*
X151753333Y-41750000D02*
X152253333Y-41916667D01*
X152253333Y-41483333D01*
X152420000Y-41216666D02*
X152453333Y-41183333D01*
X152486667Y-41216666D01*
X152453333Y-41250000D01*
X152420000Y-41216666D01*
X152486667Y-41216666D01*
X151786667Y-40950000D02*
X151786667Y-40483333D01*
X152486667Y-40783333D01*
X152020000Y-40216666D02*
X152720000Y-40216666D01*
X152386667Y-39883333D02*
X152453333Y-39850000D01*
X152486667Y-39783333D01*
X152386667Y-40216666D02*
X152453333Y-40183333D01*
X152486667Y-40116666D01*
X152486667Y-39983333D01*
X152453333Y-39916666D01*
X152386667Y-39883333D01*
X152020000Y-39883333D01*
X152120000Y-39250000D02*
X152120000Y-39483333D01*
X152486667Y-39483333D02*
X151786667Y-39483333D01*
X151786667Y-39150000D01*
X149182500Y-111322500D02*
X149215833Y-111355834D01*
X149249167Y-111455834D01*
X149249167Y-111522500D01*
X149215833Y-111622500D01*
X149149167Y-111689167D01*
X149082500Y-111722500D01*
X148949167Y-111755834D01*
X148849167Y-111755834D01*
X148715833Y-111722500D01*
X148649167Y-111689167D01*
X148582500Y-111622500D01*
X148549167Y-111522500D01*
X148549167Y-111455834D01*
X148582500Y-111355834D01*
X148615833Y-111322500D01*
X149249167Y-110655834D02*
X149249167Y-111055834D01*
X149249167Y-110855834D02*
X148549167Y-110855834D01*
X148649167Y-110922500D01*
X148715833Y-110989167D01*
X148749167Y-111055834D01*
X149249167Y-109989167D02*
X149249167Y-110389167D01*
X149249167Y-110189167D02*
X148549167Y-110189167D01*
X148649167Y-110255833D01*
X148715833Y-110322500D01*
X148749167Y-110389167D01*
X150329167Y-111672500D02*
X150329167Y-112072500D01*
X150329167Y-111872500D02*
X149629167Y-111872500D01*
X149729167Y-111939166D01*
X149795833Y-112005833D01*
X149829167Y-112072500D01*
X149629167Y-111239166D02*
X149629167Y-111172499D01*
X149662500Y-111105833D01*
X149695833Y-111072499D01*
X149762500Y-111039166D01*
X149895833Y-111005833D01*
X150062500Y-111005833D01*
X150195833Y-111039166D01*
X150262500Y-111072499D01*
X150295833Y-111105833D01*
X150329167Y-111172499D01*
X150329167Y-111239166D01*
X150295833Y-111305833D01*
X150262500Y-111339166D01*
X150195833Y-111372499D01*
X150062500Y-111405833D01*
X149895833Y-111405833D01*
X149762500Y-111372499D01*
X149695833Y-111339166D01*
X149662500Y-111305833D01*
X149629167Y-111239166D01*
X149862500Y-110705832D02*
X150562500Y-110705832D01*
X150229167Y-110372499D02*
X150295833Y-110339166D01*
X150329167Y-110272499D01*
X150229167Y-110705832D02*
X150295833Y-110672499D01*
X150329167Y-110605832D01*
X150329167Y-110472499D01*
X150295833Y-110405832D01*
X150229167Y-110372499D01*
X149862500Y-110372499D01*
X149962500Y-109739166D02*
X149962500Y-109972499D01*
X150329167Y-109972499D02*
X149629167Y-109972499D01*
X149629167Y-109639166D01*
X151900000Y-103666666D02*
X151933333Y-103700000D01*
X151966667Y-103800000D01*
X151966667Y-103866666D01*
X151933333Y-103966666D01*
X151866667Y-104033333D01*
X151800000Y-104066666D01*
X151666667Y-104100000D01*
X151566667Y-104100000D01*
X151433333Y-104066666D01*
X151366667Y-104033333D01*
X151300000Y-103966666D01*
X151266667Y-103866666D01*
X151266667Y-103800000D01*
X151300000Y-103700000D01*
X151333333Y-103666666D01*
X151966667Y-103333333D02*
X151966667Y-103200000D01*
X151933333Y-103133333D01*
X151900000Y-103100000D01*
X151800000Y-103033333D01*
X151666667Y-103000000D01*
X151400000Y-103000000D01*
X151333333Y-103033333D01*
X151300000Y-103066666D01*
X151266667Y-103133333D01*
X151266667Y-103266666D01*
X151300000Y-103333333D01*
X151333333Y-103366666D01*
X151400000Y-103400000D01*
X151566667Y-103400000D01*
X151633333Y-103366666D01*
X151666667Y-103333333D01*
X151700000Y-103266666D01*
X151700000Y-103133333D01*
X151666667Y-103066666D01*
X151633333Y-103033333D01*
X151566667Y-103000000D01*
X152475000Y-103891666D02*
X152941667Y-103891666D01*
X152208333Y-104058333D02*
X152708333Y-104225000D01*
X152708333Y-103791666D01*
X152241667Y-103591666D02*
X152241667Y-103124999D01*
X152941667Y-103424999D01*
X152475000Y-102858332D02*
X152941667Y-102858332D01*
X152541667Y-102858332D02*
X152508333Y-102824999D01*
X152475000Y-102758332D01*
X152475000Y-102658332D01*
X152508333Y-102591666D01*
X152575000Y-102558332D01*
X152941667Y-102558332D01*
X152575000Y-101991666D02*
X152575000Y-102224999D01*
X152941667Y-102224999D02*
X152241667Y-102224999D01*
X152241667Y-101891666D01*
X186260000Y-107236666D02*
X186293333Y-107270000D01*
X186326667Y-107370000D01*
X186326667Y-107436666D01*
X186293333Y-107536666D01*
X186226667Y-107603333D01*
X186160000Y-107636666D01*
X186026667Y-107670000D01*
X185926667Y-107670000D01*
X185793333Y-107636666D01*
X185726667Y-107603333D01*
X185660000Y-107536666D01*
X185626667Y-107436666D01*
X185626667Y-107370000D01*
X185660000Y-107270000D01*
X185693333Y-107236666D01*
X185626667Y-106636666D02*
X185626667Y-106770000D01*
X185660000Y-106836666D01*
X185693333Y-106870000D01*
X185793333Y-106936666D01*
X185926667Y-106970000D01*
X186193333Y-106970000D01*
X186260000Y-106936666D01*
X186293333Y-106903333D01*
X186326667Y-106836666D01*
X186326667Y-106703333D01*
X186293333Y-106636666D01*
X186260000Y-106603333D01*
X186193333Y-106570000D01*
X186026667Y-106570000D01*
X185960000Y-106603333D01*
X185926667Y-106636666D01*
X185893333Y-106703333D01*
X185893333Y-106836666D01*
X185926667Y-106903333D01*
X185960000Y-106936666D01*
X186026667Y-106970000D01*
X187536667Y-108083334D02*
X187536667Y-108483334D01*
X187536667Y-108283334D02*
X186836667Y-108283334D01*
X186936667Y-108350000D01*
X187003333Y-108416667D01*
X187036667Y-108483334D01*
X186836667Y-107650000D02*
X186836667Y-107583333D01*
X186870000Y-107516667D01*
X186903333Y-107483333D01*
X186970000Y-107450000D01*
X187103333Y-107416667D01*
X187270000Y-107416667D01*
X187403333Y-107450000D01*
X187470000Y-107483333D01*
X187503333Y-107516667D01*
X187536667Y-107583333D01*
X187536667Y-107650000D01*
X187503333Y-107716667D01*
X187470000Y-107750000D01*
X187403333Y-107783333D01*
X187270000Y-107816667D01*
X187103333Y-107816667D01*
X186970000Y-107783333D01*
X186903333Y-107750000D01*
X186870000Y-107716667D01*
X186836667Y-107650000D01*
X186836667Y-106983333D02*
X186836667Y-106916666D01*
X186870000Y-106850000D01*
X186903333Y-106816666D01*
X186970000Y-106783333D01*
X187103333Y-106750000D01*
X187270000Y-106750000D01*
X187403333Y-106783333D01*
X187470000Y-106816666D01*
X187503333Y-106850000D01*
X187536667Y-106916666D01*
X187536667Y-106983333D01*
X187503333Y-107050000D01*
X187470000Y-107083333D01*
X187403333Y-107116666D01*
X187270000Y-107150000D01*
X187103333Y-107150000D01*
X186970000Y-107116666D01*
X186903333Y-107083333D01*
X186870000Y-107050000D01*
X186836667Y-106983333D01*
X187070000Y-106449999D02*
X187536667Y-106449999D01*
X187136667Y-106449999D02*
X187103333Y-106416666D01*
X187070000Y-106349999D01*
X187070000Y-106249999D01*
X187103333Y-106183333D01*
X187170000Y-106149999D01*
X187536667Y-106149999D01*
X187170000Y-105583333D02*
X187170000Y-105816666D01*
X187536667Y-105816666D02*
X186836667Y-105816666D01*
X186836667Y-105483333D01*
X167312500Y-103639166D02*
X167345833Y-103672500D01*
X167379167Y-103772500D01*
X167379167Y-103839166D01*
X167345833Y-103939166D01*
X167279167Y-104005833D01*
X167212500Y-104039166D01*
X167079167Y-104072500D01*
X166979167Y-104072500D01*
X166845833Y-104039166D01*
X166779167Y-104005833D01*
X166712500Y-103939166D01*
X166679167Y-103839166D01*
X166679167Y-103772500D01*
X166712500Y-103672500D01*
X166745833Y-103639166D01*
X166679167Y-103005833D02*
X166679167Y-103339166D01*
X167012500Y-103372500D01*
X166979167Y-103339166D01*
X166945833Y-103272500D01*
X166945833Y-103105833D01*
X166979167Y-103039166D01*
X167012500Y-103005833D01*
X167079167Y-102972500D01*
X167245833Y-102972500D01*
X167312500Y-103005833D01*
X167345833Y-103039166D01*
X167379167Y-103105833D01*
X167379167Y-103272500D01*
X167345833Y-103339166D01*
X167312500Y-103372500D01*
X167952500Y-104219166D02*
X168419167Y-104219166D01*
X167685833Y-104385833D02*
X168185833Y-104552500D01*
X168185833Y-104119166D01*
X167719167Y-103919166D02*
X167719167Y-103452499D01*
X168419167Y-103752499D01*
X167952500Y-103185832D02*
X168419167Y-103185832D01*
X168019167Y-103185832D02*
X167985833Y-103152499D01*
X167952500Y-103085832D01*
X167952500Y-102985832D01*
X167985833Y-102919166D01*
X168052500Y-102885832D01*
X168419167Y-102885832D01*
X168052500Y-102319166D02*
X168052500Y-102552499D01*
X168419167Y-102552499D02*
X167719167Y-102552499D01*
X167719167Y-102219166D01*
X161933334Y-128440000D02*
X161900000Y-128473333D01*
X161800000Y-128506667D01*
X161733334Y-128506667D01*
X161633334Y-128473333D01*
X161566667Y-128406667D01*
X161533334Y-128340000D01*
X161500000Y-128206667D01*
X161500000Y-128106667D01*
X161533334Y-127973333D01*
X161566667Y-127906667D01*
X161633334Y-127840000D01*
X161733334Y-127806667D01*
X161800000Y-127806667D01*
X161900000Y-127840000D01*
X161933334Y-127873333D01*
X162533334Y-128040000D02*
X162533334Y-128506667D01*
X162366667Y-127773333D02*
X162200000Y-128273333D01*
X162633334Y-128273333D01*
X161390000Y-129856667D02*
X160990000Y-129856667D01*
X161190000Y-129856667D02*
X161190000Y-129156667D01*
X161123334Y-129256667D01*
X161056667Y-129323333D01*
X160990000Y-129356667D01*
X161823334Y-129156667D02*
X161890001Y-129156667D01*
X161956667Y-129190000D01*
X161990001Y-129223333D01*
X162023334Y-129290000D01*
X162056667Y-129423333D01*
X162056667Y-129590000D01*
X162023334Y-129723333D01*
X161990001Y-129790000D01*
X161956667Y-129823333D01*
X161890001Y-129856667D01*
X161823334Y-129856667D01*
X161756667Y-129823333D01*
X161723334Y-129790000D01*
X161690001Y-129723333D01*
X161656667Y-129590000D01*
X161656667Y-129423333D01*
X161690001Y-129290000D01*
X161723334Y-129223333D01*
X161756667Y-129190000D01*
X161823334Y-129156667D01*
X162356668Y-129390000D02*
X162356668Y-129856667D01*
X162356668Y-129456667D02*
X162390001Y-129423333D01*
X162456668Y-129390000D01*
X162556668Y-129390000D01*
X162623334Y-129423333D01*
X162656668Y-129490000D01*
X162656668Y-129856667D01*
X163223334Y-129490000D02*
X162990001Y-129490000D01*
X162990001Y-129856667D02*
X162990001Y-129156667D01*
X163323334Y-129156667D01*
X170293334Y-121380000D02*
X170260000Y-121413333D01*
X170160000Y-121446667D01*
X170093334Y-121446667D01*
X169993334Y-121413333D01*
X169926667Y-121346667D01*
X169893334Y-121280000D01*
X169860000Y-121146667D01*
X169860000Y-121046667D01*
X169893334Y-120913333D01*
X169926667Y-120846667D01*
X169993334Y-120780000D01*
X170093334Y-120746667D01*
X170160000Y-120746667D01*
X170260000Y-120780000D01*
X170293334Y-120813333D01*
X170526667Y-120746667D02*
X170960000Y-120746667D01*
X170726667Y-121013333D01*
X170826667Y-121013333D01*
X170893334Y-121046667D01*
X170926667Y-121080000D01*
X170960000Y-121146667D01*
X170960000Y-121313333D01*
X170926667Y-121380000D01*
X170893334Y-121413333D01*
X170826667Y-121446667D01*
X170626667Y-121446667D01*
X170560000Y-121413333D01*
X170526667Y-121380000D01*
X169176666Y-120266667D02*
X168776666Y-120266667D01*
X168976666Y-120266667D02*
X168976666Y-119566667D01*
X168910000Y-119666667D01*
X168843333Y-119733333D01*
X168776666Y-119766667D01*
X169610000Y-119566667D02*
X169676667Y-119566667D01*
X169743333Y-119600000D01*
X169776667Y-119633333D01*
X169810000Y-119700000D01*
X169843333Y-119833333D01*
X169843333Y-120000000D01*
X169810000Y-120133333D01*
X169776667Y-120200000D01*
X169743333Y-120233333D01*
X169676667Y-120266667D01*
X169610000Y-120266667D01*
X169543333Y-120233333D01*
X169510000Y-120200000D01*
X169476667Y-120133333D01*
X169443333Y-120000000D01*
X169443333Y-119833333D01*
X169476667Y-119700000D01*
X169510000Y-119633333D01*
X169543333Y-119600000D01*
X169610000Y-119566667D01*
X170276667Y-119566667D02*
X170343334Y-119566667D01*
X170410000Y-119600000D01*
X170443334Y-119633333D01*
X170476667Y-119700000D01*
X170510000Y-119833333D01*
X170510000Y-120000000D01*
X170476667Y-120133333D01*
X170443334Y-120200000D01*
X170410000Y-120233333D01*
X170343334Y-120266667D01*
X170276667Y-120266667D01*
X170210000Y-120233333D01*
X170176667Y-120200000D01*
X170143334Y-120133333D01*
X170110000Y-120000000D01*
X170110000Y-119833333D01*
X170143334Y-119700000D01*
X170176667Y-119633333D01*
X170210000Y-119600000D01*
X170276667Y-119566667D01*
X170810001Y-119800000D02*
X170810001Y-120266667D01*
X170810001Y-119866667D02*
X170843334Y-119833333D01*
X170910001Y-119800000D01*
X171010001Y-119800000D01*
X171076667Y-119833333D01*
X171110001Y-119900000D01*
X171110001Y-120266667D01*
X171676667Y-119900000D02*
X171443334Y-119900000D01*
X171443334Y-120266667D02*
X171443334Y-119566667D01*
X171776667Y-119566667D01*
X170513334Y-117670000D02*
X170480000Y-117703333D01*
X170380000Y-117736667D01*
X170313334Y-117736667D01*
X170213334Y-117703333D01*
X170146667Y-117636667D01*
X170113334Y-117570000D01*
X170080000Y-117436667D01*
X170080000Y-117336667D01*
X170113334Y-117203333D01*
X170146667Y-117136667D01*
X170213334Y-117070000D01*
X170313334Y-117036667D01*
X170380000Y-117036667D01*
X170480000Y-117070000D01*
X170513334Y-117103333D01*
X170780000Y-117103333D02*
X170813334Y-117070000D01*
X170880000Y-117036667D01*
X171046667Y-117036667D01*
X171113334Y-117070000D01*
X171146667Y-117103333D01*
X171180000Y-117170000D01*
X171180000Y-117236667D01*
X171146667Y-117336667D01*
X170746667Y-117736667D01*
X171180000Y-117736667D01*
X169516667Y-115810000D02*
X169516667Y-116276667D01*
X169350000Y-115543333D02*
X169183333Y-116043333D01*
X169616667Y-116043333D01*
X169883334Y-116210000D02*
X169916667Y-116243333D01*
X169883334Y-116276667D01*
X169850000Y-116243333D01*
X169883334Y-116210000D01*
X169883334Y-116276667D01*
X170150000Y-115576667D02*
X170616667Y-115576667D01*
X170316667Y-116276667D01*
X170883334Y-115810000D02*
X170883334Y-116510000D01*
X171216667Y-116176667D02*
X171250000Y-116243333D01*
X171316667Y-116276667D01*
X170883334Y-116176667D02*
X170916667Y-116243333D01*
X170983334Y-116276667D01*
X171116667Y-116276667D01*
X171183334Y-116243333D01*
X171216667Y-116176667D01*
X171216667Y-115810000D01*
X171850000Y-115910000D02*
X171616667Y-115910000D01*
X171616667Y-116276667D02*
X171616667Y-115576667D01*
X171950000Y-115576667D01*
X145009167Y-116072500D02*
X144675833Y-116305834D01*
X145009167Y-116472500D02*
X144309167Y-116472500D01*
X144309167Y-116205834D01*
X144342500Y-116139167D01*
X144375833Y-116105834D01*
X144442500Y-116072500D01*
X144542500Y-116072500D01*
X144609167Y-116105834D01*
X144642500Y-116139167D01*
X144675833Y-116205834D01*
X144675833Y-116472500D01*
X144375833Y-115805834D02*
X144342500Y-115772500D01*
X144309167Y-115705834D01*
X144309167Y-115539167D01*
X144342500Y-115472500D01*
X144375833Y-115439167D01*
X144442500Y-115405834D01*
X144509167Y-115405834D01*
X144609167Y-115439167D01*
X145009167Y-115839167D01*
X145009167Y-115405834D01*
X144309167Y-114805833D02*
X144309167Y-114939167D01*
X144342500Y-115005833D01*
X144375833Y-115039167D01*
X144475833Y-115105833D01*
X144609167Y-115139167D01*
X144875833Y-115139167D01*
X144942500Y-115105833D01*
X144975833Y-115072500D01*
X145009167Y-115005833D01*
X145009167Y-114872500D01*
X144975833Y-114805833D01*
X144942500Y-114772500D01*
X144875833Y-114739167D01*
X144709167Y-114739167D01*
X144642500Y-114772500D01*
X144609167Y-114805833D01*
X144575833Y-114872500D01*
X144575833Y-115005833D01*
X144609167Y-115072500D01*
X144642500Y-115105833D01*
X144709167Y-115139167D01*
X145439167Y-116952500D02*
X145439167Y-116519167D01*
X145705833Y-116752500D01*
X145705833Y-116652500D01*
X145739167Y-116585833D01*
X145772500Y-116552500D01*
X145839167Y-116519167D01*
X146005833Y-116519167D01*
X146072500Y-116552500D01*
X146105833Y-116585833D01*
X146139167Y-116652500D01*
X146139167Y-116852500D01*
X146105833Y-116919167D01*
X146072500Y-116952500D01*
X146139167Y-116185833D02*
X146139167Y-116052500D01*
X146105833Y-115985833D01*
X146072500Y-115952500D01*
X145972500Y-115885833D01*
X145839167Y-115852500D01*
X145572500Y-115852500D01*
X145505833Y-115885833D01*
X145472500Y-115919166D01*
X145439167Y-115985833D01*
X145439167Y-116119166D01*
X145472500Y-116185833D01*
X145505833Y-116219166D01*
X145572500Y-116252500D01*
X145739167Y-116252500D01*
X145805833Y-116219166D01*
X145839167Y-116185833D01*
X145872500Y-116119166D01*
X145872500Y-115985833D01*
X145839167Y-115919166D01*
X145805833Y-115885833D01*
X145739167Y-115852500D01*
X145439167Y-115419166D02*
X145439167Y-115352499D01*
X145472500Y-115285833D01*
X145505833Y-115252499D01*
X145572500Y-115219166D01*
X145705833Y-115185833D01*
X145872500Y-115185833D01*
X146005833Y-115219166D01*
X146072500Y-115252499D01*
X146105833Y-115285833D01*
X146139167Y-115352499D01*
X146139167Y-115419166D01*
X146105833Y-115485833D01*
X146072500Y-115519166D01*
X146005833Y-115552499D01*
X145872500Y-115585833D01*
X145705833Y-115585833D01*
X145572500Y-115552499D01*
X145505833Y-115519166D01*
X145472500Y-115485833D01*
X145439167Y-115419166D01*
X146139167Y-114919166D02*
X146139167Y-114752499D01*
X146005833Y-114752499D01*
X145972500Y-114819166D01*
X145905833Y-114885832D01*
X145805833Y-114919166D01*
X145639167Y-114919166D01*
X145539167Y-114885832D01*
X145472500Y-114819166D01*
X145439167Y-114719166D01*
X145439167Y-114585832D01*
X145472500Y-114485832D01*
X145539167Y-114419166D01*
X145639167Y-114385832D01*
X145805833Y-114385832D01*
X145905833Y-114419166D01*
X145972500Y-114485832D01*
X146005833Y-114552499D01*
X146139167Y-114552499D01*
X146139167Y-114385832D01*
X144569167Y-99822500D02*
X144235833Y-100055834D01*
X144569167Y-100222500D02*
X143869167Y-100222500D01*
X143869167Y-99955834D01*
X143902500Y-99889167D01*
X143935833Y-99855834D01*
X144002500Y-99822500D01*
X144102500Y-99822500D01*
X144169167Y-99855834D01*
X144202500Y-99889167D01*
X144235833Y-99955834D01*
X144235833Y-100222500D01*
X143935833Y-99555834D02*
X143902500Y-99522500D01*
X143869167Y-99455834D01*
X143869167Y-99289167D01*
X143902500Y-99222500D01*
X143935833Y-99189167D01*
X144002500Y-99155834D01*
X144069167Y-99155834D01*
X144169167Y-99189167D01*
X144569167Y-99589167D01*
X144569167Y-99155834D01*
X143869167Y-98522500D02*
X143869167Y-98855833D01*
X144202500Y-98889167D01*
X144169167Y-98855833D01*
X144135833Y-98789167D01*
X144135833Y-98622500D01*
X144169167Y-98555833D01*
X144202500Y-98522500D01*
X144269167Y-98489167D01*
X144435833Y-98489167D01*
X144502500Y-98522500D01*
X144535833Y-98555833D01*
X144569167Y-98622500D01*
X144569167Y-98789167D01*
X144535833Y-98855833D01*
X144502500Y-98889167D01*
X145065833Y-100599167D02*
X145032500Y-100565833D01*
X144999167Y-100499167D01*
X144999167Y-100332500D01*
X145032500Y-100265833D01*
X145065833Y-100232500D01*
X145132500Y-100199167D01*
X145199167Y-100199167D01*
X145299167Y-100232500D01*
X145699167Y-100632500D01*
X145699167Y-100199167D01*
X145065833Y-99932500D02*
X145032500Y-99899166D01*
X144999167Y-99832500D01*
X144999167Y-99665833D01*
X145032500Y-99599166D01*
X145065833Y-99565833D01*
X145132500Y-99532500D01*
X145199167Y-99532500D01*
X145299167Y-99565833D01*
X145699167Y-99965833D01*
X145699167Y-99532500D01*
X144999167Y-99099166D02*
X144999167Y-99032499D01*
X145032500Y-98965833D01*
X145065833Y-98932499D01*
X145132500Y-98899166D01*
X145265833Y-98865833D01*
X145432500Y-98865833D01*
X145565833Y-98899166D01*
X145632500Y-98932499D01*
X145665833Y-98965833D01*
X145699167Y-99032499D01*
X145699167Y-99099166D01*
X145665833Y-99165833D01*
X145632500Y-99199166D01*
X145565833Y-99232499D01*
X145432500Y-99265833D01*
X145265833Y-99265833D01*
X145132500Y-99232499D01*
X145065833Y-99199166D01*
X145032500Y-99165833D01*
X144999167Y-99099166D01*
X145699167Y-98599166D02*
X145699167Y-98432499D01*
X145565833Y-98432499D01*
X145532500Y-98499166D01*
X145465833Y-98565832D01*
X145365833Y-98599166D01*
X145199167Y-98599166D01*
X145099167Y-98565832D01*
X145032500Y-98499166D01*
X144999167Y-98399166D01*
X144999167Y-98265832D01*
X145032500Y-98165832D01*
X145099167Y-98099166D01*
X145199167Y-98065832D01*
X145365833Y-98065832D01*
X145465833Y-98099166D01*
X145532500Y-98165832D01*
X145565833Y-98232499D01*
X145699167Y-98232499D01*
X145699167Y-98065832D01*
X142079167Y-115992500D02*
X141745833Y-116225834D01*
X142079167Y-116392500D02*
X141379167Y-116392500D01*
X141379167Y-116125834D01*
X141412500Y-116059167D01*
X141445833Y-116025834D01*
X141512500Y-115992500D01*
X141612500Y-115992500D01*
X141679167Y-116025834D01*
X141712500Y-116059167D01*
X141745833Y-116125834D01*
X141745833Y-116392500D01*
X141445833Y-115725834D02*
X141412500Y-115692500D01*
X141379167Y-115625834D01*
X141379167Y-115459167D01*
X141412500Y-115392500D01*
X141445833Y-115359167D01*
X141512500Y-115325834D01*
X141579167Y-115325834D01*
X141679167Y-115359167D01*
X142079167Y-115759167D01*
X142079167Y-115325834D01*
X141379167Y-115092500D02*
X141379167Y-114625833D01*
X142079167Y-114925833D01*
X142379167Y-116842500D02*
X142379167Y-116409167D01*
X142645833Y-116642500D01*
X142645833Y-116542500D01*
X142679167Y-116475833D01*
X142712500Y-116442500D01*
X142779167Y-116409167D01*
X142945833Y-116409167D01*
X143012500Y-116442500D01*
X143045833Y-116475833D01*
X143079167Y-116542500D01*
X143079167Y-116742500D01*
X143045833Y-116809167D01*
X143012500Y-116842500D01*
X143079167Y-116075833D02*
X143079167Y-115942500D01*
X143045833Y-115875833D01*
X143012500Y-115842500D01*
X142912500Y-115775833D01*
X142779167Y-115742500D01*
X142512500Y-115742500D01*
X142445833Y-115775833D01*
X142412500Y-115809166D01*
X142379167Y-115875833D01*
X142379167Y-116009166D01*
X142412500Y-116075833D01*
X142445833Y-116109166D01*
X142512500Y-116142500D01*
X142679167Y-116142500D01*
X142745833Y-116109166D01*
X142779167Y-116075833D01*
X142812500Y-116009166D01*
X142812500Y-115875833D01*
X142779167Y-115809166D01*
X142745833Y-115775833D01*
X142679167Y-115742500D01*
X142379167Y-115309166D02*
X142379167Y-115242499D01*
X142412500Y-115175833D01*
X142445833Y-115142499D01*
X142512500Y-115109166D01*
X142645833Y-115075833D01*
X142812500Y-115075833D01*
X142945833Y-115109166D01*
X143012500Y-115142499D01*
X143045833Y-115175833D01*
X143079167Y-115242499D01*
X143079167Y-115309166D01*
X143045833Y-115375833D01*
X143012500Y-115409166D01*
X142945833Y-115442499D01*
X142812500Y-115475833D01*
X142645833Y-115475833D01*
X142512500Y-115442499D01*
X142445833Y-115409166D01*
X142412500Y-115375833D01*
X142379167Y-115309166D01*
X143079167Y-114809166D02*
X143079167Y-114642499D01*
X142945833Y-114642499D01*
X142912500Y-114709166D01*
X142845833Y-114775832D01*
X142745833Y-114809166D01*
X142579167Y-114809166D01*
X142479167Y-114775832D01*
X142412500Y-114709166D01*
X142379167Y-114609166D01*
X142379167Y-114475832D01*
X142412500Y-114375832D01*
X142479167Y-114309166D01*
X142579167Y-114275832D01*
X142745833Y-114275832D01*
X142845833Y-114309166D01*
X142912500Y-114375832D01*
X142945833Y-114442499D01*
X143079167Y-114442499D01*
X143079167Y-114275832D01*
X141609167Y-99802500D02*
X141275833Y-100035834D01*
X141609167Y-100202500D02*
X140909167Y-100202500D01*
X140909167Y-99935834D01*
X140942500Y-99869167D01*
X140975833Y-99835834D01*
X141042500Y-99802500D01*
X141142500Y-99802500D01*
X141209167Y-99835834D01*
X141242500Y-99869167D01*
X141275833Y-99935834D01*
X141275833Y-100202500D01*
X140909167Y-99569167D02*
X140909167Y-99135834D01*
X141175833Y-99369167D01*
X141175833Y-99269167D01*
X141209167Y-99202500D01*
X141242500Y-99169167D01*
X141309167Y-99135834D01*
X141475833Y-99135834D01*
X141542500Y-99169167D01*
X141575833Y-99202500D01*
X141609167Y-99269167D01*
X141609167Y-99469167D01*
X141575833Y-99535834D01*
X141542500Y-99569167D01*
X140909167Y-98702500D02*
X140909167Y-98635833D01*
X140942500Y-98569167D01*
X140975833Y-98535833D01*
X141042500Y-98502500D01*
X141175833Y-98469167D01*
X141342500Y-98469167D01*
X141475833Y-98502500D01*
X141542500Y-98535833D01*
X141575833Y-98569167D01*
X141609167Y-98635833D01*
X141609167Y-98702500D01*
X141575833Y-98769167D01*
X141542500Y-98802500D01*
X141475833Y-98835833D01*
X141342500Y-98869167D01*
X141175833Y-98869167D01*
X141042500Y-98835833D01*
X140975833Y-98802500D01*
X140942500Y-98769167D01*
X140909167Y-98702500D01*
X142689167Y-100029167D02*
X142689167Y-100429167D01*
X142689167Y-100229167D02*
X141989167Y-100229167D01*
X142089167Y-100295833D01*
X142155833Y-100362500D01*
X142189167Y-100429167D01*
X141989167Y-99595833D02*
X141989167Y-99529166D01*
X142022500Y-99462500D01*
X142055833Y-99429166D01*
X142122500Y-99395833D01*
X142255833Y-99362500D01*
X142422500Y-99362500D01*
X142555833Y-99395833D01*
X142622500Y-99429166D01*
X142655833Y-99462500D01*
X142689167Y-99529166D01*
X142689167Y-99595833D01*
X142655833Y-99662500D01*
X142622500Y-99695833D01*
X142555833Y-99729166D01*
X142422500Y-99762500D01*
X142255833Y-99762500D01*
X142122500Y-99729166D01*
X142055833Y-99695833D01*
X142022500Y-99662500D01*
X141989167Y-99595833D01*
X142689167Y-99062499D02*
X141989167Y-99062499D01*
X142422500Y-98995833D02*
X142689167Y-98795833D01*
X142222500Y-98795833D02*
X142489167Y-99062499D01*
X142689167Y-98529166D02*
X142689167Y-98362499D01*
X142555833Y-98362499D01*
X142522500Y-98429166D01*
X142455833Y-98495832D01*
X142355833Y-98529166D01*
X142189167Y-98529166D01*
X142089167Y-98495832D01*
X142022500Y-98429166D01*
X141989167Y-98329166D01*
X141989167Y-98195832D01*
X142022500Y-98095832D01*
X142089167Y-98029166D01*
X142189167Y-97995832D01*
X142355833Y-97995832D01*
X142455833Y-98029166D01*
X142522500Y-98095832D01*
X142555833Y-98162499D01*
X142689167Y-98162499D01*
X142689167Y-97995832D01*
X138719167Y-115872500D02*
X138385833Y-116105834D01*
X138719167Y-116272500D02*
X138019167Y-116272500D01*
X138019167Y-116005834D01*
X138052500Y-115939167D01*
X138085833Y-115905834D01*
X138152500Y-115872500D01*
X138252500Y-115872500D01*
X138319167Y-115905834D01*
X138352500Y-115939167D01*
X138385833Y-116005834D01*
X138385833Y-116272500D01*
X138019167Y-115639167D02*
X138019167Y-115205834D01*
X138285833Y-115439167D01*
X138285833Y-115339167D01*
X138319167Y-115272500D01*
X138352500Y-115239167D01*
X138419167Y-115205834D01*
X138585833Y-115205834D01*
X138652500Y-115239167D01*
X138685833Y-115272500D01*
X138719167Y-115339167D01*
X138719167Y-115539167D01*
X138685833Y-115605834D01*
X138652500Y-115639167D01*
X138719167Y-114539167D02*
X138719167Y-114939167D01*
X138719167Y-114739167D02*
X138019167Y-114739167D01*
X138119167Y-114805833D01*
X138185833Y-114872500D01*
X138219167Y-114939167D01*
X139799167Y-116199167D02*
X139799167Y-116599167D01*
X139799167Y-116399167D02*
X139099167Y-116399167D01*
X139199167Y-116465833D01*
X139265833Y-116532500D01*
X139299167Y-116599167D01*
X139099167Y-115765833D02*
X139099167Y-115699166D01*
X139132500Y-115632500D01*
X139165833Y-115599166D01*
X139232500Y-115565833D01*
X139365833Y-115532500D01*
X139532500Y-115532500D01*
X139665833Y-115565833D01*
X139732500Y-115599166D01*
X139765833Y-115632500D01*
X139799167Y-115699166D01*
X139799167Y-115765833D01*
X139765833Y-115832500D01*
X139732500Y-115865833D01*
X139665833Y-115899166D01*
X139532500Y-115932500D01*
X139365833Y-115932500D01*
X139232500Y-115899166D01*
X139165833Y-115865833D01*
X139132500Y-115832500D01*
X139099167Y-115765833D01*
X139799167Y-115232499D02*
X139099167Y-115232499D01*
X139532500Y-115165833D02*
X139799167Y-114965833D01*
X139332500Y-114965833D02*
X139599167Y-115232499D01*
X139799167Y-114699166D02*
X139799167Y-114532499D01*
X139665833Y-114532499D01*
X139632500Y-114599166D01*
X139565833Y-114665832D01*
X139465833Y-114699166D01*
X139299167Y-114699166D01*
X139199167Y-114665832D01*
X139132500Y-114599166D01*
X139099167Y-114499166D01*
X139099167Y-114365832D01*
X139132500Y-114265832D01*
X139199167Y-114199166D01*
X139299167Y-114165832D01*
X139465833Y-114165832D01*
X139565833Y-114199166D01*
X139632500Y-114265832D01*
X139665833Y-114332499D01*
X139799167Y-114332499D01*
X139799167Y-114165832D01*
D12*
X255567143Y-73872381D02*
X255233809Y-73396190D01*
X254995714Y-73872381D02*
X254995714Y-72872381D01*
X255376667Y-72872381D01*
X255471905Y-72920000D01*
X255519524Y-72967619D01*
X255567143Y-73062857D01*
X255567143Y-73205714D01*
X255519524Y-73300952D01*
X255471905Y-73348571D01*
X255376667Y-73396190D01*
X254995714Y-73396190D01*
X255900476Y-72872381D02*
X256519524Y-72872381D01*
X256186190Y-73253333D01*
X256329048Y-73253333D01*
X256424286Y-73300952D01*
X256471905Y-73348571D01*
X256519524Y-73443810D01*
X256519524Y-73681905D01*
X256471905Y-73777143D01*
X256424286Y-73824762D01*
X256329048Y-73872381D01*
X256043333Y-73872381D01*
X255948095Y-73824762D01*
X255900476Y-73777143D01*
X257376667Y-73205714D02*
X257376667Y-73872381D01*
X257138571Y-72824762D02*
X256900476Y-73539048D01*
X257519524Y-73539048D01*
X256043334Y-69422381D02*
X255567143Y-69422381D01*
X255519524Y-69898571D01*
X255567143Y-69850952D01*
X255662381Y-69803333D01*
X255900477Y-69803333D01*
X255995715Y-69850952D01*
X256043334Y-69898571D01*
X256090953Y-69993810D01*
X256090953Y-70231905D01*
X256043334Y-70327143D01*
X255995715Y-70374762D01*
X255900477Y-70422381D01*
X255662381Y-70422381D01*
X255567143Y-70374762D01*
X255519524Y-70327143D01*
X256519524Y-70422381D02*
X256519524Y-69422381D01*
X256614762Y-70041429D02*
X256900477Y-70422381D01*
X256900477Y-69755714D02*
X256519524Y-70136667D01*
X255697143Y-67952381D02*
X255363809Y-67476190D01*
X255125714Y-67952381D02*
X255125714Y-66952381D01*
X255506667Y-66952381D01*
X255601905Y-67000000D01*
X255649524Y-67047619D01*
X255697143Y-67142857D01*
X255697143Y-67285714D01*
X255649524Y-67380952D01*
X255601905Y-67428571D01*
X255506667Y-67476190D01*
X255125714Y-67476190D01*
X256030476Y-66952381D02*
X256649524Y-66952381D01*
X256316190Y-67333333D01*
X256459048Y-67333333D01*
X256554286Y-67380952D01*
X256601905Y-67428571D01*
X256649524Y-67523810D01*
X256649524Y-67761905D01*
X256601905Y-67857143D01*
X256554286Y-67904762D01*
X256459048Y-67952381D01*
X256173333Y-67952381D01*
X256078095Y-67904762D01*
X256030476Y-67857143D01*
X257554286Y-66952381D02*
X257078095Y-66952381D01*
X257030476Y-67428571D01*
X257078095Y-67380952D01*
X257173333Y-67333333D01*
X257411429Y-67333333D01*
X257506667Y-67380952D01*
X257554286Y-67428571D01*
X257601905Y-67523810D01*
X257601905Y-67761905D01*
X257554286Y-67857143D01*
X257506667Y-67904762D01*
X257411429Y-67952381D01*
X257173333Y-67952381D01*
X257078095Y-67904762D01*
X257030476Y-67857143D01*
X255744762Y-64502381D02*
X255173333Y-64502381D01*
X255459047Y-64502381D02*
X255459047Y-63502381D01*
X255363809Y-63645238D01*
X255268571Y-63740476D01*
X255173333Y-63788095D01*
X256363809Y-63502381D02*
X256459048Y-63502381D01*
X256554286Y-63550000D01*
X256601905Y-63597619D01*
X256649524Y-63692857D01*
X256697143Y-63883333D01*
X256697143Y-64121429D01*
X256649524Y-64311905D01*
X256601905Y-64407143D01*
X256554286Y-64454762D01*
X256459048Y-64502381D01*
X256363809Y-64502381D01*
X256268571Y-64454762D01*
X256220952Y-64407143D01*
X256173333Y-64311905D01*
X256125714Y-64121429D01*
X256125714Y-63883333D01*
X256173333Y-63692857D01*
X256220952Y-63597619D01*
X256268571Y-63550000D01*
X256363809Y-63502381D01*
X257125714Y-64502381D02*
X257125714Y-63502381D01*
X257220952Y-64121429D02*
X257506667Y-64502381D01*
X257506667Y-63835714D02*
X257125714Y-64216667D01*
M02*
