G04 #@! TF.FileFunction,Other,User*
%FSLAX46Y46*%
G04 Gerber Fmt 4.6, Leading zero omitted, Abs format (unit mm)*
G04 Created by KiCad (PCBNEW 4.0.7-e2-6376~58~ubuntu16.04.1) date Wed Jul 18 13:35:48 2018*
%MOMM*%
%LPD*%
G01*
G04 APERTURE LIST*
%ADD10C,0.100000*%
%ADD11C,0.050000*%
G04 APERTURE END LIST*
D10*
D11*
X184610200Y-51319500D02*
X184610200Y-40129500D01*
X184610200Y-51319500D02*
X171670200Y-51319500D01*
X171670200Y-40129500D02*
X184610200Y-40129500D01*
X171670200Y-40129500D02*
X171670200Y-51319500D01*
X197053780Y-114788640D02*
X193653780Y-114788640D01*
X193653780Y-114788640D02*
X193653780Y-118288640D01*
X193653780Y-118288640D02*
X197053780Y-118288640D01*
X197053780Y-118288640D02*
X197053780Y-114788640D01*
X224250000Y-115600000D02*
X224250000Y-119000000D01*
X224250000Y-119000000D02*
X227750000Y-119000000D01*
X227750000Y-119000000D02*
X227750000Y-115600000D01*
X227750000Y-115600000D02*
X224250000Y-115600000D01*
X194307240Y-80473920D02*
X194307240Y-77073920D01*
X194307240Y-77073920D02*
X190807240Y-77073920D01*
X190807240Y-77073920D02*
X190807240Y-80473920D01*
X190807240Y-80473920D02*
X194307240Y-80473920D01*
X220537820Y-80090380D02*
X220537820Y-76690380D01*
X220537820Y-76690380D02*
X217037820Y-76690380D01*
X217037820Y-76690380D02*
X217037820Y-80090380D01*
X217037820Y-80090380D02*
X220537820Y-80090380D01*
X198293300Y-121749340D02*
X198293300Y-119989340D01*
X194893300Y-121749340D02*
X198293300Y-121749340D01*
X194893300Y-119989340D02*
X194893300Y-121749340D01*
X198293300Y-119989340D02*
X194893300Y-119989340D01*
X197122360Y-75333380D02*
X197122360Y-73573380D01*
X193722360Y-75333380D02*
X197122360Y-75333380D01*
X193722360Y-73573380D02*
X193722360Y-75333380D01*
X197122360Y-73573380D02*
X193722360Y-73573380D01*
X229497200Y-121889040D02*
X229497200Y-120129040D01*
X226097200Y-121889040D02*
X229497200Y-121889040D01*
X226097200Y-120129040D02*
X226097200Y-121889040D01*
X229497200Y-120129040D02*
X226097200Y-120129040D01*
X223172600Y-75069220D02*
X223172600Y-73309220D01*
X219772600Y-75069220D02*
X223172600Y-75069220D01*
X219772600Y-73309220D02*
X219772600Y-75069220D01*
X223172600Y-73309220D02*
X219772600Y-73309220D01*
X209150000Y-114400000D02*
X204450000Y-114400000D01*
X209150000Y-114400000D02*
X209150000Y-116200000D01*
X204450000Y-116200000D02*
X204450000Y-114400000D01*
X204450000Y-116200000D02*
X209150000Y-116200000D01*
X208968680Y-64635440D02*
X204268680Y-64635440D01*
X208968680Y-64635440D02*
X208968680Y-66435440D01*
X204268680Y-66435440D02*
X204268680Y-64635440D01*
X204268680Y-66435440D02*
X208968680Y-66435440D01*
X239801740Y-112638900D02*
X235101740Y-112638900D01*
X239801740Y-112638900D02*
X239801740Y-114438900D01*
X235101740Y-114438900D02*
X235101740Y-112638900D01*
X235101740Y-114438900D02*
X239801740Y-114438900D01*
X234170560Y-65082480D02*
X229470560Y-65082480D01*
X234170560Y-65082480D02*
X234170560Y-66882480D01*
X229470560Y-66882480D02*
X229470560Y-65082480D01*
X229470560Y-66882480D02*
X234170560Y-66882480D01*
X209179500Y-104724260D02*
X204479500Y-104724260D01*
X209179500Y-104724260D02*
X209179500Y-106524260D01*
X204479500Y-106524260D02*
X204479500Y-104724260D01*
X204479500Y-106524260D02*
X209179500Y-106524260D01*
X207465000Y-56619200D02*
X202765000Y-56619200D01*
X207465000Y-56619200D02*
X207465000Y-58419200D01*
X202765000Y-58419200D02*
X202765000Y-56619200D01*
X202765000Y-58419200D02*
X207465000Y-58419200D01*
X239761100Y-105369420D02*
X235061100Y-105369420D01*
X239761100Y-105369420D02*
X239761100Y-107169420D01*
X235061100Y-107169420D02*
X235061100Y-105369420D01*
X235061100Y-107169420D02*
X239761100Y-107169420D01*
X233276480Y-56309320D02*
X228576480Y-56309320D01*
X233276480Y-56309320D02*
X233276480Y-58109320D01*
X228576480Y-58109320D02*
X228576480Y-56309320D01*
X228576480Y-58109320D02*
X233276480Y-58109320D01*
X209136320Y-69776400D02*
X204436320Y-69776400D01*
X209136320Y-69776400D02*
X209136320Y-71576400D01*
X204436320Y-71576400D02*
X204436320Y-69776400D01*
X204436320Y-71576400D02*
X209136320Y-71576400D01*
X242543940Y-114344920D02*
X247243940Y-114344920D01*
X242543940Y-114344920D02*
X242543940Y-112544920D01*
X247243940Y-112544920D02*
X247243940Y-114344920D01*
X247243940Y-112544920D02*
X242543940Y-112544920D01*
X209800800Y-118822940D02*
X214500800Y-118822940D01*
X209800800Y-118822940D02*
X209800800Y-117022940D01*
X214500800Y-117022940D02*
X214500800Y-118822940D01*
X214500800Y-117022940D02*
X209800800Y-117022940D01*
X236064400Y-67639400D02*
X240764400Y-67639400D01*
X236064400Y-67639400D02*
X236064400Y-65839400D01*
X240764400Y-65839400D02*
X240764400Y-67639400D01*
X240764400Y-65839400D02*
X236064400Y-65839400D01*
X209192200Y-74805600D02*
X204492200Y-74805600D01*
X209192200Y-74805600D02*
X209192200Y-76605600D01*
X204492200Y-76605600D02*
X204492200Y-74805600D01*
X204492200Y-76605600D02*
X209192200Y-76605600D01*
X242653160Y-119986260D02*
X247353160Y-119986260D01*
X242653160Y-119986260D02*
X242653160Y-118186260D01*
X247353160Y-118186260D02*
X247353160Y-119986260D01*
X247353160Y-118186260D02*
X242653160Y-118186260D01*
X209716980Y-124410940D02*
X214416980Y-124410940D01*
X209716980Y-124410940D02*
X209716980Y-122610940D01*
X214416980Y-122610940D02*
X214416980Y-124410940D01*
X214416980Y-122610940D02*
X209716980Y-122610940D01*
X236140600Y-72897200D02*
X240840600Y-72897200D01*
X236140600Y-72897200D02*
X236140600Y-71097200D01*
X240840600Y-71097200D02*
X240840600Y-72897200D01*
X240840600Y-71097200D02*
X236140600Y-71097200D01*
X208550000Y-60850000D02*
X213250000Y-60850000D01*
X208550000Y-60850000D02*
X208550000Y-59050000D01*
X213250000Y-59050000D02*
X213250000Y-60850000D01*
X213250000Y-59050000D02*
X208550000Y-59050000D01*
X242691260Y-104403360D02*
X247391260Y-104403360D01*
X242691260Y-104403360D02*
X242691260Y-102603360D01*
X247391260Y-102603360D02*
X247391260Y-104403360D01*
X247391260Y-102603360D02*
X242691260Y-102603360D01*
X238400000Y-58000000D02*
X243100000Y-58000000D01*
X238400000Y-58000000D02*
X238400000Y-56200000D01*
X243100000Y-56200000D02*
X243100000Y-58000000D01*
X243100000Y-56200000D02*
X238400000Y-56200000D01*
X208400000Y-55725000D02*
X213100000Y-55725000D01*
X208400000Y-55725000D02*
X208400000Y-53925000D01*
X213100000Y-53925000D02*
X213100000Y-55725000D01*
X213100000Y-53925000D02*
X208400000Y-53925000D01*
X242615060Y-109203960D02*
X247315060Y-109203960D01*
X242615060Y-109203960D02*
X242615060Y-107403960D01*
X247315060Y-107403960D02*
X247315060Y-109203960D01*
X247315060Y-107403960D02*
X242615060Y-107403960D01*
X211675000Y-109150000D02*
X216375000Y-109150000D01*
X211675000Y-109150000D02*
X211675000Y-107350000D01*
X216375000Y-107350000D02*
X216375000Y-109150000D01*
X216375000Y-107350000D02*
X211675000Y-107350000D01*
X238125000Y-53575000D02*
X233425000Y-53575000D01*
X238125000Y-53575000D02*
X238125000Y-55375000D01*
X233425000Y-55375000D02*
X233425000Y-53575000D01*
X233425000Y-55375000D02*
X238125000Y-55375000D01*
X188004720Y-113924480D02*
X188004720Y-118624480D01*
X188004720Y-113924480D02*
X189804720Y-113924480D01*
X189804720Y-118624480D02*
X188004720Y-118624480D01*
X189804720Y-118624480D02*
X189804720Y-113924480D01*
X219828380Y-106799780D02*
X219828380Y-111499780D01*
X219828380Y-106799780D02*
X221628380Y-106799780D01*
X221628380Y-111499780D02*
X219828380Y-111499780D01*
X221628380Y-111499780D02*
X221628380Y-106799780D01*
X202011620Y-78130460D02*
X197311620Y-78130460D01*
X202011620Y-78130460D02*
X202011620Y-79930460D01*
X197311620Y-79930460D02*
X197311620Y-78130460D01*
X197311620Y-79930460D02*
X202011620Y-79930460D01*
X228496200Y-78082200D02*
X223796200Y-78082200D01*
X228496200Y-78082200D02*
X228496200Y-79882200D01*
X223796200Y-79882200D02*
X223796200Y-78082200D01*
X223796200Y-79882200D02*
X228496200Y-79882200D01*
X211604200Y-104225560D02*
X216304200Y-104225560D01*
X211604200Y-104225560D02*
X211604200Y-102425560D01*
X216304200Y-102425560D02*
X216304200Y-104225560D01*
X216304200Y-102425560D02*
X211604200Y-102425560D01*
M02*
