G04 #@! TF.FileFunction,Other,Fab,Top*
%FSLAX46Y46*%
G04 Gerber Fmt 4.6, Leading zero omitted, Abs format (unit mm)*
G04 Created by KiCad (PCBNEW 4.0.7-e2-6376~58~ubuntu16.04.1) date Fri Jul 20 08:47:31 2018*
%MOMM*%
%LPD*%
G01*
G04 APERTURE LIST*
%ADD10C,0.100000*%
%ADD11C,0.120000*%
%ADD12C,0.150000*%
%ADD13C,0.075000*%
G04 APERTURE END LIST*
D10*
X120435000Y-130860000D02*
X118530000Y-130860000D01*
X118530000Y-130860000D02*
X118530000Y-123360000D01*
X118530000Y-123316200D02*
X121070000Y-123316200D01*
X121070000Y-123360000D02*
X121070000Y-130225000D01*
X121070000Y-130225000D02*
X120435000Y-130860000D01*
X122890000Y-129910000D02*
X121070000Y-129910000D01*
X122890000Y-129910000D02*
X122890000Y-129270000D01*
X122890000Y-129270000D02*
X121070000Y-129270000D01*
X118530000Y-129910000D02*
X112530000Y-129910000D01*
X112530000Y-129910000D02*
X112530000Y-129270000D01*
X118530000Y-129270000D02*
X112530000Y-129270000D01*
X122890000Y-124830000D02*
X121070000Y-124830000D01*
X122890000Y-124830000D02*
X122890000Y-124190000D01*
X122890000Y-124190000D02*
X121070000Y-124190000D01*
X118530000Y-124830000D02*
X112530000Y-124830000D01*
X112530000Y-124830000D02*
X112530000Y-124190000D01*
X118530000Y-124190000D02*
X112530000Y-124190000D01*
D11*
X200434820Y-74683060D02*
X199524820Y-75693060D01*
X190394820Y-75693060D02*
X199524820Y-75693060D01*
X200434820Y-74683060D02*
X200434820Y-54803060D01*
X200434820Y-55313060D02*
X190394820Y-55313060D01*
X190394820Y-55313060D02*
X190394820Y-75693060D01*
X201768240Y-121129500D02*
X200858240Y-122139500D01*
X191728240Y-122139500D02*
X200858240Y-122139500D01*
X201768240Y-121129500D02*
X201768240Y-101249500D01*
X201768240Y-101759500D02*
X191728240Y-101759500D01*
X191728240Y-101759500D02*
X191728240Y-122139500D01*
X232855340Y-121241260D02*
X231945340Y-122251260D01*
X222815340Y-122251260D02*
X231945340Y-122251260D01*
X232855340Y-121241260D02*
X232855340Y-101361260D01*
X232855340Y-101871260D02*
X222815340Y-101871260D01*
X222815340Y-101871260D02*
X222815340Y-122251260D01*
X226391000Y-74507000D02*
X225481000Y-75517000D01*
X216351000Y-75517000D02*
X225481000Y-75517000D01*
X226391000Y-74507000D02*
X226391000Y-54627000D01*
X226391000Y-55137000D02*
X216351000Y-55137000D01*
X216351000Y-55137000D02*
X216351000Y-75517000D01*
D10*
X250490000Y-67580000D02*
X251730000Y-67580000D01*
X250490000Y-69580000D02*
X250490000Y-67580000D01*
X251730000Y-69580000D02*
X250490000Y-69580000D01*
X251730000Y-67580000D02*
X251730000Y-69580000D01*
X246310000Y-70330000D02*
X247550000Y-70330000D01*
X246310000Y-72330000D02*
X246310000Y-70330000D01*
X247550000Y-72330000D02*
X246310000Y-72330000D01*
X247550000Y-70330000D02*
X247550000Y-72330000D01*
X250425000Y-53920000D02*
X250425000Y-52680000D01*
X252425000Y-53920000D02*
X250425000Y-53920000D01*
X252425000Y-52680000D02*
X252425000Y-53920000D01*
X250425000Y-52680000D02*
X252425000Y-52680000D01*
X246025000Y-58095000D02*
X246025000Y-56855000D01*
X248025000Y-58095000D02*
X246025000Y-58095000D01*
X248025000Y-56855000D02*
X248025000Y-58095000D01*
X246025000Y-56855000D02*
X248025000Y-56855000D01*
X257210000Y-71100000D02*
X257210000Y-72340000D01*
X255210000Y-71100000D02*
X257210000Y-71100000D01*
X255210000Y-72340000D02*
X255210000Y-71100000D01*
X257210000Y-72340000D02*
X255210000Y-72340000D01*
X257340000Y-65180000D02*
X257340000Y-66420000D01*
X255340000Y-65180000D02*
X257340000Y-65180000D01*
X255340000Y-66420000D02*
X255340000Y-65180000D01*
X257340000Y-66420000D02*
X255340000Y-66420000D01*
D12*
X104448885Y-121228581D02*
X104448885Y-120228581D01*
X104829838Y-120228581D01*
X104925076Y-120276200D01*
X104972695Y-120323819D01*
X105020314Y-120419057D01*
X105020314Y-120561914D01*
X104972695Y-120657152D01*
X104925076Y-120704771D01*
X104829838Y-120752390D01*
X104448885Y-120752390D01*
X105448885Y-121228581D02*
X105448885Y-120561914D01*
X105448885Y-120228581D02*
X105401266Y-120276200D01*
X105448885Y-120323819D01*
X105496504Y-120276200D01*
X105448885Y-120228581D01*
X105448885Y-120323819D01*
X105925075Y-120561914D02*
X105925075Y-121228581D01*
X105925075Y-120657152D02*
X105972694Y-120609533D01*
X106067932Y-120561914D01*
X106210790Y-120561914D01*
X106306028Y-120609533D01*
X106353647Y-120704771D01*
X106353647Y-121228581D01*
X106591742Y-121323819D02*
X107353647Y-121323819D01*
X107591742Y-121228581D02*
X107591742Y-120228581D01*
X107591742Y-120704771D02*
X108163171Y-120704771D01*
X108163171Y-121228581D02*
X108163171Y-120228581D01*
X109020314Y-121180962D02*
X108925076Y-121228581D01*
X108734599Y-121228581D01*
X108639361Y-121180962D01*
X108591742Y-121085724D01*
X108591742Y-120704771D01*
X108639361Y-120609533D01*
X108734599Y-120561914D01*
X108925076Y-120561914D01*
X109020314Y-120609533D01*
X109067933Y-120704771D01*
X109067933Y-120800010D01*
X108591742Y-120895248D01*
X109925076Y-121228581D02*
X109925076Y-120704771D01*
X109877457Y-120609533D01*
X109782219Y-120561914D01*
X109591742Y-120561914D01*
X109496504Y-120609533D01*
X109925076Y-121180962D02*
X109829838Y-121228581D01*
X109591742Y-121228581D01*
X109496504Y-121180962D01*
X109448885Y-121085724D01*
X109448885Y-120990486D01*
X109496504Y-120895248D01*
X109591742Y-120847629D01*
X109829838Y-120847629D01*
X109925076Y-120800010D01*
X110829838Y-121228581D02*
X110829838Y-120228581D01*
X110829838Y-121180962D02*
X110734600Y-121228581D01*
X110544123Y-121228581D01*
X110448885Y-121180962D01*
X110401266Y-121133343D01*
X110353647Y-121038105D01*
X110353647Y-120752390D01*
X110401266Y-120657152D01*
X110448885Y-120609533D01*
X110544123Y-120561914D01*
X110734600Y-120561914D01*
X110829838Y-120609533D01*
X111686981Y-121180962D02*
X111591743Y-121228581D01*
X111401266Y-121228581D01*
X111306028Y-121180962D01*
X111258409Y-121085724D01*
X111258409Y-120704771D01*
X111306028Y-120609533D01*
X111401266Y-120561914D01*
X111591743Y-120561914D01*
X111686981Y-120609533D01*
X111734600Y-120704771D01*
X111734600Y-120800010D01*
X111258409Y-120895248D01*
X112163171Y-121228581D02*
X112163171Y-120561914D01*
X112163171Y-120752390D02*
X112210790Y-120657152D01*
X112258409Y-120609533D01*
X112353647Y-120561914D01*
X112448886Y-120561914D01*
X112544124Y-121323819D02*
X113306029Y-121323819D01*
X113496505Y-120942867D02*
X113972696Y-120942867D01*
X113401267Y-121228581D02*
X113734600Y-120228581D01*
X114067934Y-121228581D01*
X114401267Y-120561914D02*
X114401267Y-121228581D01*
X114401267Y-120657152D02*
X114448886Y-120609533D01*
X114544124Y-120561914D01*
X114686982Y-120561914D01*
X114782220Y-120609533D01*
X114829839Y-120704771D01*
X114829839Y-121228581D01*
X115734601Y-120561914D02*
X115734601Y-121371438D01*
X115686982Y-121466676D01*
X115639363Y-121514295D01*
X115544124Y-121561914D01*
X115401267Y-121561914D01*
X115306029Y-121514295D01*
X115734601Y-121180962D02*
X115639363Y-121228581D01*
X115448886Y-121228581D01*
X115353648Y-121180962D01*
X115306029Y-121133343D01*
X115258410Y-121038105D01*
X115258410Y-120752390D01*
X115306029Y-120657152D01*
X115353648Y-120609533D01*
X115448886Y-120561914D01*
X115639363Y-120561914D01*
X115734601Y-120609533D01*
X116353648Y-121228581D02*
X116258410Y-121180962D01*
X116210791Y-121085724D01*
X116210791Y-120228581D01*
X117115554Y-121180962D02*
X117020316Y-121228581D01*
X116829839Y-121228581D01*
X116734601Y-121180962D01*
X116686982Y-121085724D01*
X116686982Y-120704771D01*
X116734601Y-120609533D01*
X116829839Y-120561914D01*
X117020316Y-120561914D01*
X117115554Y-120609533D01*
X117163173Y-120704771D01*
X117163173Y-120800010D01*
X116686982Y-120895248D01*
X118020316Y-121228581D02*
X118020316Y-120228581D01*
X118020316Y-121180962D02*
X117925078Y-121228581D01*
X117734601Y-121228581D01*
X117639363Y-121180962D01*
X117591744Y-121133343D01*
X117544125Y-121038105D01*
X117544125Y-120752390D01*
X117591744Y-120657152D01*
X117639363Y-120609533D01*
X117734601Y-120561914D01*
X117925078Y-120561914D01*
X118020316Y-120609533D01*
X118258411Y-121323819D02*
X119020316Y-121323819D01*
X119782221Y-121228581D02*
X119210792Y-121228581D01*
X119496506Y-121228581D02*
X119496506Y-120228581D01*
X119401268Y-120371438D01*
X119306030Y-120466676D01*
X119210792Y-120514295D01*
X120115554Y-121228581D02*
X120639364Y-120561914D01*
X120115554Y-120561914D02*
X120639364Y-121228581D01*
X121210792Y-120228581D02*
X121306031Y-120228581D01*
X121401269Y-120276200D01*
X121448888Y-120323819D01*
X121496507Y-120419057D01*
X121544126Y-120609533D01*
X121544126Y-120847629D01*
X121496507Y-121038105D01*
X121448888Y-121133343D01*
X121401269Y-121180962D01*
X121306031Y-121228581D01*
X121210792Y-121228581D01*
X121115554Y-121180962D01*
X121067935Y-121133343D01*
X121020316Y-121038105D01*
X120972697Y-120847629D01*
X120972697Y-120609533D01*
X121020316Y-120419057D01*
X121067935Y-120323819D01*
X121115554Y-120276200D01*
X121210792Y-120228581D01*
X121925078Y-120323819D02*
X121972697Y-120276200D01*
X122067935Y-120228581D01*
X122306031Y-120228581D01*
X122401269Y-120276200D01*
X122448888Y-120323819D01*
X122496507Y-120419057D01*
X122496507Y-120514295D01*
X122448888Y-120657152D01*
X121877459Y-121228581D01*
X122496507Y-121228581D01*
X122686983Y-121323819D02*
X123448888Y-121323819D01*
X123686983Y-121228581D02*
X123686983Y-120228581D01*
X124067936Y-120228581D01*
X124163174Y-120276200D01*
X124210793Y-120323819D01*
X124258412Y-120419057D01*
X124258412Y-120561914D01*
X124210793Y-120657152D01*
X124163174Y-120704771D01*
X124067936Y-120752390D01*
X123686983Y-120752390D01*
X124686983Y-121228581D02*
X124686983Y-120561914D01*
X124686983Y-120228581D02*
X124639364Y-120276200D01*
X124686983Y-120323819D01*
X124734602Y-120276200D01*
X124686983Y-120228581D01*
X124686983Y-120323819D01*
X125020316Y-120561914D02*
X125401268Y-120561914D01*
X125163173Y-120228581D02*
X125163173Y-121085724D01*
X125210792Y-121180962D01*
X125306030Y-121228581D01*
X125401268Y-121228581D01*
X126163174Y-121180962D02*
X126067936Y-121228581D01*
X125877459Y-121228581D01*
X125782221Y-121180962D01*
X125734602Y-121133343D01*
X125686983Y-121038105D01*
X125686983Y-120752390D01*
X125734602Y-120657152D01*
X125782221Y-120609533D01*
X125877459Y-120561914D01*
X126067936Y-120561914D01*
X126163174Y-120609533D01*
X126591745Y-121228581D02*
X126591745Y-120228581D01*
X127020317Y-121228581D02*
X127020317Y-120704771D01*
X126972698Y-120609533D01*
X126877460Y-120561914D01*
X126734602Y-120561914D01*
X126639364Y-120609533D01*
X126591745Y-120657152D01*
X127448888Y-120323819D02*
X127496507Y-120276200D01*
X127591745Y-120228581D01*
X127829841Y-120228581D01*
X127925079Y-120276200D01*
X127972698Y-120323819D01*
X128020317Y-120419057D01*
X128020317Y-120514295D01*
X127972698Y-120657152D01*
X127401269Y-121228581D01*
X128020317Y-121228581D01*
X128448888Y-121133343D02*
X128496507Y-121180962D01*
X128448888Y-121228581D01*
X128401269Y-121180962D01*
X128448888Y-121133343D01*
X128448888Y-121228581D01*
X129401269Y-120228581D02*
X128925078Y-120228581D01*
X128877459Y-120704771D01*
X128925078Y-120657152D01*
X129020316Y-120609533D01*
X129258412Y-120609533D01*
X129353650Y-120657152D01*
X129401269Y-120704771D01*
X129448888Y-120800010D01*
X129448888Y-121038105D01*
X129401269Y-121133343D01*
X129353650Y-121180962D01*
X129258412Y-121228581D01*
X129020316Y-121228581D01*
X128925078Y-121180962D01*
X128877459Y-121133343D01*
X130306031Y-120561914D02*
X130306031Y-121228581D01*
X130067935Y-120180962D02*
X129829840Y-120895248D01*
X130448888Y-120895248D01*
X130829840Y-121228581D02*
X130829840Y-120561914D01*
X130829840Y-120657152D02*
X130877459Y-120609533D01*
X130972697Y-120561914D01*
X131115555Y-120561914D01*
X131210793Y-120609533D01*
X131258412Y-120704771D01*
X131258412Y-121228581D01*
X131258412Y-120704771D02*
X131306031Y-120609533D01*
X131401269Y-120561914D01*
X131544126Y-120561914D01*
X131639364Y-120609533D01*
X131686983Y-120704771D01*
X131686983Y-121228581D01*
X132163173Y-121228581D02*
X132163173Y-120561914D01*
X132163173Y-120657152D02*
X132210792Y-120609533D01*
X132306030Y-120561914D01*
X132448888Y-120561914D01*
X132544126Y-120609533D01*
X132591745Y-120704771D01*
X132591745Y-121228581D01*
X132591745Y-120704771D02*
X132639364Y-120609533D01*
X132734602Y-120561914D01*
X132877459Y-120561914D01*
X132972697Y-120609533D01*
X133020316Y-120704771D01*
X133020316Y-121228581D01*
X120126781Y-128586533D02*
X119650590Y-128919867D01*
X120126781Y-129157962D02*
X119126781Y-129157962D01*
X119126781Y-128777009D01*
X119174400Y-128681771D01*
X119222019Y-128634152D01*
X119317257Y-128586533D01*
X119460114Y-128586533D01*
X119555352Y-128634152D01*
X119602971Y-128681771D01*
X119650590Y-128777009D01*
X119650590Y-129157962D01*
X119602971Y-128157962D02*
X119602971Y-127824628D01*
X120126781Y-127681771D02*
X120126781Y-128157962D01*
X119126781Y-128157962D01*
X119126781Y-127681771D01*
X119602971Y-126919866D02*
X119602971Y-127253200D01*
X120126781Y-127253200D02*
X119126781Y-127253200D01*
X119126781Y-126777009D01*
X119126781Y-126253200D02*
X119364876Y-126253200D01*
X119269638Y-126491295D02*
X119364876Y-126253200D01*
X119269638Y-126015104D01*
X119555352Y-126396057D02*
X119364876Y-126253200D01*
X119555352Y-126110342D01*
X119126781Y-125491295D02*
X119364876Y-125491295D01*
X119269638Y-125729390D02*
X119364876Y-125491295D01*
X119269638Y-125253199D01*
X119555352Y-125634152D02*
X119364876Y-125491295D01*
X119555352Y-125348437D01*
X194546725Y-65675441D02*
X194546725Y-64675441D01*
X195118154Y-65675441D02*
X194689582Y-65104012D01*
X195118154Y-64675441D02*
X194546725Y-65246870D01*
X195499106Y-64770679D02*
X195546725Y-64723060D01*
X195641963Y-64675441D01*
X195880059Y-64675441D01*
X195975297Y-64723060D01*
X196022916Y-64770679D01*
X196070535Y-64865917D01*
X196070535Y-64961155D01*
X196022916Y-65104012D01*
X195451487Y-65675441D01*
X196070535Y-65675441D01*
X195880145Y-112121881D02*
X195880145Y-111121881D01*
X196451574Y-112121881D02*
X196023002Y-111550452D01*
X196451574Y-111121881D02*
X195880145Y-111693310D01*
X197403955Y-112121881D02*
X196832526Y-112121881D01*
X197118240Y-112121881D02*
X197118240Y-111121881D01*
X197023002Y-111264738D01*
X196927764Y-111359976D01*
X196832526Y-111407595D01*
X226967245Y-112233641D02*
X226967245Y-111233641D01*
X227538674Y-112233641D02*
X227110102Y-111662212D01*
X227538674Y-111233641D02*
X226967245Y-111805070D01*
X227872007Y-111233641D02*
X228491055Y-111233641D01*
X228157721Y-111614593D01*
X228300579Y-111614593D01*
X228395817Y-111662212D01*
X228443436Y-111709831D01*
X228491055Y-111805070D01*
X228491055Y-112043165D01*
X228443436Y-112138403D01*
X228395817Y-112186022D01*
X228300579Y-112233641D01*
X228014864Y-112233641D01*
X227919626Y-112186022D01*
X227872007Y-112138403D01*
X220502905Y-65499381D02*
X220502905Y-64499381D01*
X221074334Y-65499381D02*
X220645762Y-64927952D01*
X221074334Y-64499381D02*
X220502905Y-65070810D01*
X221931477Y-64832714D02*
X221931477Y-65499381D01*
X221693381Y-64451762D02*
X221455286Y-65166048D01*
X222074334Y-65166048D01*
X249812381Y-69175238D02*
X249812381Y-69746667D01*
X249812381Y-69460953D02*
X248812381Y-69460953D01*
X248955238Y-69556191D01*
X249050476Y-69651429D01*
X249098095Y-69746667D01*
X248812381Y-68556191D02*
X248812381Y-68460952D01*
X248860000Y-68365714D01*
X248907619Y-68318095D01*
X249002857Y-68270476D01*
X249193333Y-68222857D01*
X249431429Y-68222857D01*
X249621905Y-68270476D01*
X249717143Y-68318095D01*
X249764762Y-68365714D01*
X249812381Y-68460952D01*
X249812381Y-68556191D01*
X249764762Y-68651429D01*
X249717143Y-68699048D01*
X249621905Y-68746667D01*
X249431429Y-68794286D01*
X249193333Y-68794286D01*
X249002857Y-68746667D01*
X248907619Y-68699048D01*
X248860000Y-68651429D01*
X248812381Y-68556191D01*
X249812381Y-67794286D02*
X248812381Y-67794286D01*
X249431429Y-67699048D02*
X249812381Y-67413333D01*
X249145714Y-67413333D02*
X249526667Y-67794286D01*
D13*
X251336190Y-68901428D02*
X251098095Y-69068095D01*
X251336190Y-69187142D02*
X250836190Y-69187142D01*
X250836190Y-68996666D01*
X250860000Y-68949047D01*
X250883810Y-68925238D01*
X250931429Y-68901428D01*
X251002857Y-68901428D01*
X251050476Y-68925238D01*
X251074286Y-68949047D01*
X251098095Y-68996666D01*
X251098095Y-69187142D01*
X250883810Y-68710952D02*
X250860000Y-68687142D01*
X250836190Y-68639523D01*
X250836190Y-68520476D01*
X250860000Y-68472857D01*
X250883810Y-68449047D01*
X250931429Y-68425238D01*
X250979048Y-68425238D01*
X251050476Y-68449047D01*
X251336190Y-68734761D01*
X251336190Y-68425238D01*
X251336190Y-67949048D02*
X251336190Y-68234762D01*
X251336190Y-68091905D02*
X250836190Y-68091905D01*
X250907619Y-68139524D01*
X250955238Y-68187143D01*
X250979048Y-68234762D01*
D12*
X244632381Y-71496666D02*
X244632381Y-71972857D01*
X245108571Y-72020476D01*
X245060952Y-71972857D01*
X245013333Y-71877619D01*
X245013333Y-71639523D01*
X245060952Y-71544285D01*
X245108571Y-71496666D01*
X245203810Y-71449047D01*
X245441905Y-71449047D01*
X245537143Y-71496666D01*
X245584762Y-71544285D01*
X245632381Y-71639523D01*
X245632381Y-71877619D01*
X245584762Y-71972857D01*
X245537143Y-72020476D01*
X245632381Y-71020476D02*
X244632381Y-71020476D01*
X245251429Y-70925238D02*
X245632381Y-70639523D01*
X244965714Y-70639523D02*
X245346667Y-71020476D01*
D13*
X247156190Y-71651428D02*
X246918095Y-71818095D01*
X247156190Y-71937142D02*
X246656190Y-71937142D01*
X246656190Y-71746666D01*
X246680000Y-71699047D01*
X246703810Y-71675238D01*
X246751429Y-71651428D01*
X246822857Y-71651428D01*
X246870476Y-71675238D01*
X246894286Y-71699047D01*
X246918095Y-71746666D01*
X246918095Y-71937142D01*
X246703810Y-71460952D02*
X246680000Y-71437142D01*
X246656190Y-71389523D01*
X246656190Y-71270476D01*
X246680000Y-71222857D01*
X246703810Y-71199047D01*
X246751429Y-71175238D01*
X246799048Y-71175238D01*
X246870476Y-71199047D01*
X247156190Y-71484761D01*
X247156190Y-71175238D01*
X246703810Y-70984762D02*
X246680000Y-70960952D01*
X246656190Y-70913333D01*
X246656190Y-70794286D01*
X246680000Y-70746667D01*
X246703810Y-70722857D01*
X246751429Y-70699048D01*
X246799048Y-70699048D01*
X246870476Y-70722857D01*
X247156190Y-71008571D01*
X247156190Y-70699048D01*
X251103572Y-53526190D02*
X250936905Y-53288095D01*
X250817858Y-53526190D02*
X250817858Y-53026190D01*
X251008334Y-53026190D01*
X251055953Y-53050000D01*
X251079762Y-53073810D01*
X251103572Y-53121429D01*
X251103572Y-53192857D01*
X251079762Y-53240476D01*
X251055953Y-53264286D01*
X251008334Y-53288095D01*
X250817858Y-53288095D01*
X251294048Y-53073810D02*
X251317858Y-53050000D01*
X251365477Y-53026190D01*
X251484524Y-53026190D01*
X251532143Y-53050000D01*
X251555953Y-53073810D01*
X251579762Y-53121429D01*
X251579762Y-53169048D01*
X251555953Y-53240476D01*
X251270239Y-53526190D01*
X251579762Y-53526190D01*
X252008333Y-53192857D02*
X252008333Y-53526190D01*
X251889286Y-53002381D02*
X251770238Y-53359524D01*
X252079762Y-53359524D01*
X246703572Y-57701190D02*
X246536905Y-57463095D01*
X246417858Y-57701190D02*
X246417858Y-57201190D01*
X246608334Y-57201190D01*
X246655953Y-57225000D01*
X246679762Y-57248810D01*
X246703572Y-57296429D01*
X246703572Y-57367857D01*
X246679762Y-57415476D01*
X246655953Y-57439286D01*
X246608334Y-57463095D01*
X246417858Y-57463095D01*
X246894048Y-57248810D02*
X246917858Y-57225000D01*
X246965477Y-57201190D01*
X247084524Y-57201190D01*
X247132143Y-57225000D01*
X247155953Y-57248810D01*
X247179762Y-57296429D01*
X247179762Y-57344048D01*
X247155953Y-57415476D01*
X246870239Y-57701190D01*
X247179762Y-57701190D01*
X247346429Y-57201190D02*
X247655952Y-57201190D01*
X247489286Y-57391667D01*
X247560714Y-57391667D01*
X247608333Y-57415476D01*
X247632143Y-57439286D01*
X247655952Y-57486905D01*
X247655952Y-57605952D01*
X247632143Y-57653571D01*
X247608333Y-57677381D01*
X247560714Y-57701190D01*
X247417857Y-57701190D01*
X247370238Y-57677381D01*
X247346429Y-57653571D01*
D12*
X256043334Y-69422381D02*
X255567143Y-69422381D01*
X255519524Y-69898571D01*
X255567143Y-69850952D01*
X255662381Y-69803333D01*
X255900477Y-69803333D01*
X255995715Y-69850952D01*
X256043334Y-69898571D01*
X256090953Y-69993810D01*
X256090953Y-70231905D01*
X256043334Y-70327143D01*
X255995715Y-70374762D01*
X255900477Y-70422381D01*
X255662381Y-70422381D01*
X255567143Y-70374762D01*
X255519524Y-70327143D01*
X256519524Y-70422381D02*
X256519524Y-69422381D01*
X256614762Y-70041429D02*
X256900477Y-70422381D01*
X256900477Y-69755714D02*
X256519524Y-70136667D01*
D13*
X255888572Y-71946190D02*
X255721905Y-71708095D01*
X255602858Y-71946190D02*
X255602858Y-71446190D01*
X255793334Y-71446190D01*
X255840953Y-71470000D01*
X255864762Y-71493810D01*
X255888572Y-71541429D01*
X255888572Y-71612857D01*
X255864762Y-71660476D01*
X255840953Y-71684286D01*
X255793334Y-71708095D01*
X255602858Y-71708095D01*
X256055239Y-71446190D02*
X256364762Y-71446190D01*
X256198096Y-71636667D01*
X256269524Y-71636667D01*
X256317143Y-71660476D01*
X256340953Y-71684286D01*
X256364762Y-71731905D01*
X256364762Y-71850952D01*
X256340953Y-71898571D01*
X256317143Y-71922381D01*
X256269524Y-71946190D01*
X256126667Y-71946190D01*
X256079048Y-71922381D01*
X256055239Y-71898571D01*
X256793333Y-71612857D02*
X256793333Y-71946190D01*
X256674286Y-71422381D02*
X256555238Y-71779524D01*
X256864762Y-71779524D01*
D12*
X255744762Y-64502381D02*
X255173333Y-64502381D01*
X255459047Y-64502381D02*
X255459047Y-63502381D01*
X255363809Y-63645238D01*
X255268571Y-63740476D01*
X255173333Y-63788095D01*
X256363809Y-63502381D02*
X256459048Y-63502381D01*
X256554286Y-63550000D01*
X256601905Y-63597619D01*
X256649524Y-63692857D01*
X256697143Y-63883333D01*
X256697143Y-64121429D01*
X256649524Y-64311905D01*
X256601905Y-64407143D01*
X256554286Y-64454762D01*
X256459048Y-64502381D01*
X256363809Y-64502381D01*
X256268571Y-64454762D01*
X256220952Y-64407143D01*
X256173333Y-64311905D01*
X256125714Y-64121429D01*
X256125714Y-63883333D01*
X256173333Y-63692857D01*
X256220952Y-63597619D01*
X256268571Y-63550000D01*
X256363809Y-63502381D01*
X257125714Y-64502381D02*
X257125714Y-63502381D01*
X257220952Y-64121429D02*
X257506667Y-64502381D01*
X257506667Y-63835714D02*
X257125714Y-64216667D01*
D13*
X256018572Y-66026190D02*
X255851905Y-65788095D01*
X255732858Y-66026190D02*
X255732858Y-65526190D01*
X255923334Y-65526190D01*
X255970953Y-65550000D01*
X255994762Y-65573810D01*
X256018572Y-65621429D01*
X256018572Y-65692857D01*
X255994762Y-65740476D01*
X255970953Y-65764286D01*
X255923334Y-65788095D01*
X255732858Y-65788095D01*
X256185239Y-65526190D02*
X256494762Y-65526190D01*
X256328096Y-65716667D01*
X256399524Y-65716667D01*
X256447143Y-65740476D01*
X256470953Y-65764286D01*
X256494762Y-65811905D01*
X256494762Y-65930952D01*
X256470953Y-65978571D01*
X256447143Y-66002381D01*
X256399524Y-66026190D01*
X256256667Y-66026190D01*
X256209048Y-66002381D01*
X256185239Y-65978571D01*
X256947143Y-65526190D02*
X256709048Y-65526190D01*
X256685238Y-65764286D01*
X256709048Y-65740476D01*
X256756667Y-65716667D01*
X256875714Y-65716667D01*
X256923333Y-65740476D01*
X256947143Y-65764286D01*
X256970952Y-65811905D01*
X256970952Y-65930952D01*
X256947143Y-65978571D01*
X256923333Y-66002381D01*
X256875714Y-66026190D01*
X256756667Y-66026190D01*
X256709048Y-66002381D01*
X256685238Y-65978571D01*
M02*
