G04 #@! TF.FileFunction,Paste,Top*
%FSLAX46Y46*%
G04 Gerber Fmt 4.6, Leading zero omitted, Abs format (unit mm)*
G04 Created by KiCad (PCBNEW 4.0.7-e2-6376~58~ubuntu16.04.1) date Wed Jul 18 13:48:42 2018*
%MOMM*%
%LPD*%
G01*
G04 APERTURE LIST*
%ADD10C,0.100000*%
%ADD11R,1.500000X1.300000*%
%ADD12R,1.300000X1.500000*%
%ADD13R,0.750000X0.250000*%
%ADD14R,0.600000X2.000000*%
%ADD15R,1.500000X0.600000*%
%ADD16R,1.750000X0.450000*%
%ADD17R,1.500000X1.250000*%
%ADD18R,2.500000X2.000000*%
%ADD19R,1.250000X1.500000*%
%ADD20R,2.000000X2.500000*%
G04 APERTURE END LIST*
D10*
D11*
X141250000Y-69420000D03*
X138550000Y-69420000D03*
D12*
X251110000Y-67230000D03*
X251110000Y-69930000D03*
X246930000Y-69980000D03*
X246930000Y-72680000D03*
D11*
X250075000Y-53300000D03*
X252775000Y-53300000D03*
X245675000Y-57475000D03*
X248375000Y-57475000D03*
D13*
X135202500Y-110672500D03*
X135202500Y-111172500D03*
X135202500Y-111672500D03*
X135202500Y-112172500D03*
X132102500Y-110672500D03*
X132102500Y-111172500D03*
X132102500Y-112172500D03*
X132102500Y-111672500D03*
X137902500Y-102952500D03*
X137902500Y-103452500D03*
X137902500Y-103952500D03*
X137902500Y-104452500D03*
X134802500Y-102952500D03*
X134802500Y-103452500D03*
X134802500Y-104452500D03*
X134802500Y-103952500D03*
D14*
X151515000Y-65790000D03*
X152785000Y-65790000D03*
X154055000Y-65790000D03*
X165485000Y-65790000D03*
X166755000Y-65790000D03*
X168025000Y-65790000D03*
X168025000Y-56390000D03*
X166755000Y-56390000D03*
X165485000Y-56390000D03*
X154055000Y-56390000D03*
X152785000Y-56390000D03*
X151515000Y-56390000D03*
D15*
X164502500Y-107207500D03*
X164502500Y-105937500D03*
X164502500Y-104667500D03*
X164502500Y-103397500D03*
X164502500Y-102127500D03*
X164502500Y-100857500D03*
X164502500Y-99587500D03*
X164502500Y-98317500D03*
X155202500Y-98317500D03*
X155202500Y-99587500D03*
X155202500Y-100857500D03*
X155202500Y-102127500D03*
X155202500Y-103397500D03*
X155202500Y-104667500D03*
X155202500Y-105937500D03*
X155202500Y-107207500D03*
D16*
X170852500Y-102037500D03*
X170852500Y-102687500D03*
X170852500Y-103337500D03*
X170852500Y-103987500D03*
X170852500Y-104637500D03*
X170852500Y-105287500D03*
X170852500Y-105937500D03*
X170852500Y-106587500D03*
X170852500Y-107237500D03*
X170852500Y-107887500D03*
X170852500Y-108537500D03*
X170852500Y-109187500D03*
X170852500Y-109837500D03*
X170852500Y-110487500D03*
X178052500Y-110487500D03*
X178052500Y-109837500D03*
X178052500Y-109187500D03*
X178052500Y-108537500D03*
X178052500Y-107887500D03*
X178052500Y-107237500D03*
X178052500Y-106587500D03*
X178052500Y-105937500D03*
X178052500Y-105287500D03*
X178052500Y-104637500D03*
X178052500Y-103987500D03*
X178052500Y-103337500D03*
X178052500Y-102687500D03*
X178052500Y-102037500D03*
D12*
X173890000Y-60020000D03*
X173890000Y-57320000D03*
D11*
X166120000Y-70450000D03*
X163420000Y-70450000D03*
X141270000Y-78730000D03*
X138570000Y-78730000D03*
X167310000Y-124750000D03*
X164610000Y-124750000D03*
D17*
X173630000Y-69520000D03*
X171130000Y-69520000D03*
X167220000Y-78940000D03*
X169720000Y-78940000D03*
D18*
X151520000Y-47990000D03*
X151520000Y-43990000D03*
D19*
X149452500Y-108212500D03*
X149452500Y-105712500D03*
X152252500Y-108212500D03*
X152252500Y-105712500D03*
X184000000Y-108360000D03*
X184000000Y-105860000D03*
X167502500Y-108462500D03*
X167502500Y-105962500D03*
D17*
X167260000Y-128600000D03*
X164760000Y-128600000D03*
X167320000Y-120490000D03*
X164820000Y-120490000D03*
D20*
X167350000Y-116660000D03*
X163350000Y-116660000D03*
D12*
X145252500Y-112772500D03*
X145252500Y-110072500D03*
X144752500Y-104752500D03*
X144752500Y-102052500D03*
X142152500Y-110072500D03*
X142152500Y-112772500D03*
X141852500Y-102052500D03*
X141852500Y-104752500D03*
X138952500Y-110072500D03*
X138952500Y-112772500D03*
D11*
X257560000Y-71720000D03*
X254860000Y-71720000D03*
X257690000Y-65800000D03*
X254990000Y-65800000D03*
M02*
