M48
;DRILL file {KiCad 4.0.7-e2-6376~58~ubuntu16.04.1} date Fri Jul 20 14:34:30 2018
;FORMAT={-:-/ absolute / inch / decimal}
FMAT,2
INCH,TZ
T1C0.016
T2C0.024
T3C0.028
T4C0.031
T5C0.035
T6C0.039
T7C0.043
T8C0.052
T9C0.059
T10C0.063
T11C0.118
T12C0.125
%
G90
G05
M72
T1
X7.2923Y-2.5138
X8.0837Y-3.3622
X8.3524Y-2.2667
X9.4518Y-2.561
X9.7638Y-4.5299
X9.9335Y-2.9826
T2
X5.1106Y-4.4142
X5.1608Y-4.586
X5.2442Y-4.1123
X5.3032Y-3.7283
X5.3623Y-4.5206
X5.3741Y-4.1694
X5.4686Y-3.6661
X5.4686Y-4.1674
X5.8899Y-3.8092
X6.3879Y-4.4237
X6.5441Y-3.4488
X6.6536Y-4.4218
X6.7913Y-3.6366
X7.2114Y-3.9917
X7.278Y-4.0591
X10.0528Y-2.3969
T3
X7.5431Y-2.2281
X7.5431Y-2.4281
X7.5435Y-2.6285
X7.5435Y-2.9285
X7.5956Y-4.0567
X7.5956Y-4.2567
X7.596Y-4.4571
X7.596Y-4.7571
X7.8435Y-2.2285
X7.8435Y-2.4289
X7.8435Y-2.6285
X7.8435Y-2.9285
X7.896Y-4.0571
X7.896Y-4.2575
X7.896Y-4.4571
X7.896Y-4.7571
X8.565Y-2.2211
X8.565Y-2.4211
X8.5654Y-2.6215
X8.5654Y-2.9215
X8.8195Y-4.0611
X8.8195Y-4.2611
X8.8199Y-4.4615
X8.8199Y-4.7615
X8.8654Y-2.2215
X8.8654Y-2.4219
X8.8654Y-2.6215
X8.8654Y-2.9215
X9.1199Y-4.0615
X9.1199Y-4.2619
X9.1199Y-4.4615
X9.1199Y-4.7615
T4
X10.4847Y-3.2921
X10.4847Y-3.3724
X10.4847Y-3.8236
X10.4847Y-3.9039
X10.4847Y-4.3551
X10.4847Y-4.4354
X10.4847Y-4.8866
X10.4847Y-4.9669
X10.5851Y-3.3323
X10.5851Y-3.4126
X10.5851Y-3.8638
X10.5851Y-3.9441
X10.5851Y-4.3953
X10.5851Y-4.4756
X10.5851Y-4.9268
X10.5851Y-5.0071
T5
X4.8926Y-3.3021
X4.8926Y-3.4021
X4.8926Y-3.5021
X4.8926Y-3.9714
X4.8926Y-4.0714
X4.8926Y-4.1714
X4.9926Y-3.3521
X4.9926Y-3.4521
X4.9926Y-3.5521
X4.9926Y-4.0214
X4.9926Y-4.1214
X4.9926Y-4.2214
X7.3337Y-4.1909
X10.1796Y-1.9917
X10.1796Y-2.0917
X10.1796Y-2.1917
X10.2796Y-2.0417
X10.2796Y-2.1417
X10.2796Y-2.2417
T6
X4.5644Y-2.672
X4.5644Y-2.772
X4.5644Y-2.9122
X4.5644Y-3.0122
X7.1732Y-4.5146
X7.1732Y-5.0146
X7.2732Y-4.5146
X7.2732Y-5.0146
T7
X4.5735Y-4.5328
X4.5735Y-4.6328
X4.6735Y-4.5328
X4.6735Y-4.6328
X7.7993Y-1.7875
X7.7993Y-1.8875
X7.7993Y-3.6875
X7.7993Y-3.7875
X7.8993Y-1.7875
X7.8993Y-1.8875
X7.8993Y-3.6875
X7.8993Y-3.7875
X7.9993Y-1.7875
X7.9993Y-1.8875
X7.9993Y-3.6875
X7.9993Y-3.7875
X8.0993Y-1.7875
X8.0993Y-1.8875
X8.0993Y-3.6875
X8.0993Y-3.7875
X8.1993Y-1.7875
X8.1993Y-1.8875
X8.1993Y-3.6875
X8.1993Y-3.7875
X8.2993Y-1.7875
X8.2993Y-1.8875
X8.2993Y-3.6875
X8.2993Y-3.7875
X8.3993Y-1.7875
X8.3993Y-1.8875
X8.3993Y-3.6875
X8.3993Y-3.7875
X8.4993Y-1.7875
X8.4993Y-1.8875
X8.4993Y-3.6875
X8.4993Y-3.7875
X8.5993Y-1.7875
X8.5993Y-1.8875
X8.5993Y-3.6875
X8.5993Y-3.7875
X8.6993Y-1.7875
X8.6993Y-1.8875
X8.6993Y-3.6875
X8.6993Y-3.7875
X8.7993Y-1.7875
X8.7993Y-1.8875
X8.7993Y-3.6875
X8.7993Y-3.7875
X8.8993Y-1.7875
X8.8993Y-1.8875
X8.8993Y-3.6875
X8.8993Y-3.7875
X8.9993Y-1.7875
X8.9993Y-1.8875
X8.9993Y-3.6875
X8.9993Y-3.7875
X9.0993Y-1.7875
X9.0993Y-1.8875
X9.0993Y-3.6875
X9.0993Y-3.7875
X9.1993Y-1.7875
X9.1993Y-1.8875
X9.1993Y-3.6875
X9.1993Y-3.7875
X9.2993Y-1.7875
X9.2993Y-1.8875
X9.2993Y-3.6875
X9.2993Y-3.7875
X9.3993Y-1.7875
X9.3993Y-1.8875
X9.3993Y-3.6875
X9.3993Y-3.7875
X9.4993Y-1.7875
X9.4993Y-1.8875
X9.4993Y-3.6875
X9.4993Y-3.7875
X9.5993Y-1.7875
X9.5993Y-1.8875
X9.5993Y-3.6875
X9.5993Y-3.7875
X9.6993Y-1.7875
X9.6993Y-1.8875
X9.6993Y-3.6875
X9.6993Y-3.7875
X9.7993Y-1.7875
X9.7993Y-1.8875
X9.7993Y-3.6875
X9.7993Y-3.7875
X9.8993Y-1.7875
X9.8993Y-1.8875
X9.8993Y-3.6875
X9.8993Y-3.7875
X9.9993Y-1.7875
X9.9993Y-1.8875
X9.9993Y-3.6875
X9.9993Y-3.7875
T8
X7.0134Y-1.7122
X7.0134Y-1.909
T9
X10.4124Y-2.6053
X10.4124Y-2.8022
X10.5108Y-2.7038
X10.6092Y-2.6053
X10.6092Y-2.8022
T10
X4.7937Y-4.9039
X4.7937Y-5.1039
T11
X6.0862Y-2.9646
X6.0862Y-4.5039
T12
X7.5993Y-1.9625
X7.5993Y-3.6125
X10.1993Y-1.8375
X10.1993Y-3.7375
T6
X10.6048Y-3.1406G85X10.5497Y-3.1406
G05
X10.6048Y-3.5642G85X10.5497Y-3.5642
G05
X10.6048Y-3.672G85X10.5497Y-3.672
G05
X10.6048Y-4.0957G85X10.5497Y-4.0957
G05
X10.6048Y-4.2035G85X10.5497Y-4.2035
G05
X10.6048Y-4.6272G85X10.5497Y-4.6272
G05
X10.6048Y-4.735G85X10.5497Y-4.735
G05
X10.6048Y-5.1587G85X10.5497Y-5.1587
G05
T0
M30
