G04 #@! TF.FileFunction,Other,Fab,Bot*
%FSLAX46Y46*%
G04 Gerber Fmt 4.6, Leading zero omitted, Abs format (unit mm)*
G04 Created by KiCad (PCBNEW 4.0.7-e2-6376~58~ubuntu16.04.1) date Wed Jul 18 13:48:42 2018*
%MOMM*%
%LPD*%
G01*
G04 APERTURE LIST*
%ADD10C,0.100000*%
%ADD11C,0.150000*%
%ADD12C,0.075000*%
G04 APERTURE END LIST*
D10*
X175600200Y-49749500D02*
X175600200Y-47209500D01*
X175600200Y-47209500D02*
X178390200Y-47209500D01*
X178390200Y-49749500D02*
X178390200Y-47209500D01*
X175600200Y-49749500D02*
X178390200Y-49749500D01*
X175600200Y-44749500D02*
X175600200Y-42209500D01*
X175600200Y-42209500D02*
X178390200Y-42209500D01*
X178390200Y-44749500D02*
X178390200Y-42209500D01*
X175600200Y-44749500D02*
X178390200Y-44749500D01*
X184360200Y-40879500D02*
X181310200Y-40879500D01*
X184360200Y-40879500D02*
X184360200Y-51069500D01*
X184360200Y-40879500D02*
X184360200Y-40379500D01*
X184360200Y-40379500D02*
X179540200Y-40379500D01*
X179540200Y-40379500D02*
X179790200Y-40879500D01*
X172680200Y-40379500D02*
X172930200Y-40879500D01*
X172930200Y-40879500D02*
X171920200Y-40879500D01*
X174330200Y-40379500D02*
X174080200Y-40879500D01*
X174080200Y-40879500D02*
X172930200Y-40879500D01*
X174330200Y-40379500D02*
X172680200Y-40379500D01*
X171920200Y-45509500D02*
X173820200Y-45509500D01*
X178390200Y-41439500D02*
X173820200Y-41439500D01*
X171920200Y-45509500D02*
X171920200Y-41439500D01*
X171920200Y-41439500D02*
X171920200Y-40879500D01*
X171920200Y-46449500D02*
X173820200Y-46449500D01*
X171920200Y-46449500D02*
X171920200Y-45509500D01*
X178390200Y-50509500D02*
X173820200Y-50509500D01*
X171920200Y-51069500D02*
X171920200Y-50509500D01*
X171920200Y-50509500D02*
X171920200Y-46449500D01*
X173820200Y-45509500D02*
X173820200Y-41439500D01*
X173820200Y-45509500D02*
X178390200Y-45509500D01*
X173820200Y-41439500D02*
X171920200Y-41439500D01*
X173820200Y-46449500D02*
X173820200Y-50509500D01*
X173820200Y-46449500D02*
X178390200Y-46449500D01*
X173820200Y-50509500D02*
X171920200Y-50509500D01*
X174460200Y-41819500D02*
X177630200Y-41819500D01*
X174460200Y-41819500D02*
X174460200Y-45129500D01*
X174460200Y-45129500D02*
X177630200Y-45129500D01*
X174460200Y-46829500D02*
X177630200Y-46829500D01*
X174460200Y-46829500D02*
X174460200Y-50129500D01*
X174460200Y-50129500D02*
X177630200Y-50129500D01*
X177630200Y-50129500D02*
X177630200Y-49749500D01*
X177630200Y-46829500D02*
X177630200Y-47209500D01*
X177630200Y-45129500D02*
X177630200Y-44749500D01*
X177630200Y-41819500D02*
X177630200Y-42209500D01*
X171920200Y-51069500D02*
X178780200Y-51069500D01*
X178780200Y-51069500D02*
X181310200Y-51069500D01*
X179790200Y-40879500D02*
X178780200Y-40879500D01*
X178780200Y-40879500D02*
X174080200Y-40879500D01*
X181310200Y-51069500D02*
X181310200Y-40879500D01*
X181310200Y-51069500D02*
X184360200Y-51069500D01*
X181310200Y-40879500D02*
X179790200Y-40879500D01*
X181570200Y-45509500D02*
X184110200Y-45509500D01*
X184110200Y-45509500D02*
X184110200Y-41439500D01*
X184110200Y-41439500D02*
X181570200Y-41439500D01*
X181570200Y-41439500D02*
X181570200Y-45509500D01*
X181570200Y-46449500D02*
X184110200Y-46449500D01*
X181570200Y-46449500D02*
X181570200Y-50509500D01*
X181570200Y-50509500D02*
X184110200Y-50509500D01*
X184110200Y-46449500D02*
X184110200Y-50509500D01*
X182590200Y-45099500D02*
X183220200Y-42049500D01*
X182460200Y-44969500D02*
X183090200Y-41929500D01*
X182590200Y-50109500D02*
X183220200Y-47049500D01*
X182460200Y-49979500D02*
X183090200Y-46929500D01*
X178390200Y-50509500D02*
X178390200Y-50129500D01*
X178390200Y-46449500D02*
X178390200Y-46829500D01*
X178390200Y-46829500D02*
X178390200Y-50129500D01*
X178780200Y-51069500D02*
X178780200Y-50129500D01*
X178780200Y-50129500D02*
X178780200Y-46829500D01*
X178780200Y-46829500D02*
X178780200Y-45129500D01*
X178780200Y-40879500D02*
X178780200Y-41819500D01*
X178780200Y-41819500D02*
X178780200Y-45129500D01*
X178390200Y-41439500D02*
X178390200Y-41819500D01*
X178390200Y-45509500D02*
X178390200Y-45129500D01*
X178390200Y-45129500D02*
X178390200Y-41819500D01*
X182216205Y-42003968D02*
G75*
G02X183190200Y-41949500I513995J-455532D01*
G01*
X182308463Y-44941833D02*
G75*
G02X182260200Y-41959500I1901737J1522333D01*
G01*
X183201887Y-41951261D02*
G75*
G02X183140200Y-45099500I-1351687J-1548239D01*
G01*
X183198899Y-45052472D02*
G75*
G02X182270200Y-44909500I-408699J432972D01*
G01*
X182226204Y-47003880D02*
G75*
G02X183190200Y-46959500I503996J-455620D01*
G01*
X182298782Y-49949329D02*
G75*
G02X182260200Y-46959500I1911418J1519829D01*
G01*
X183211734Y-46949524D02*
G75*
G02X183140200Y-50109500I-1361534J-1549976D01*
G01*
X183198899Y-50052472D02*
G75*
G02X182270200Y-49909500I-408699J432972D01*
G01*
X196053780Y-115588640D02*
X196053780Y-118038640D01*
X195503780Y-115018640D02*
X194653780Y-115018640D01*
X196053780Y-115588640D02*
X195503780Y-115018640D01*
X194653780Y-115018640D02*
X194653780Y-118058640D01*
X196053780Y-118058640D02*
X194653780Y-118058640D01*
X225050000Y-116600000D02*
X227500000Y-116600000D01*
X224480000Y-117150000D02*
X224480000Y-118000000D01*
X225050000Y-116600000D02*
X224480000Y-117150000D01*
X224480000Y-118000000D02*
X227520000Y-118000000D01*
X227520000Y-116600000D02*
X227520000Y-118000000D01*
X193507240Y-79473920D02*
X191057240Y-79473920D01*
X194077240Y-78923920D02*
X194077240Y-78073920D01*
X193507240Y-79473920D02*
X194077240Y-78923920D01*
X194077240Y-78073920D02*
X191037240Y-78073920D01*
X191037240Y-79473920D02*
X191037240Y-78073920D01*
X219737820Y-79090380D02*
X217287820Y-79090380D01*
X220307820Y-78540380D02*
X220307820Y-77690380D01*
X219737820Y-79090380D02*
X220307820Y-78540380D01*
X220307820Y-77690380D02*
X217267820Y-77690380D01*
X217267820Y-79090380D02*
X217267820Y-77690380D01*
X196393300Y-120869340D02*
X196193300Y-120869340D01*
X196693300Y-120869340D02*
X196893300Y-120869340D01*
X196693300Y-120669340D02*
X196693300Y-121069340D01*
X196393300Y-121069340D02*
X196393300Y-120669340D01*
X196693300Y-120869340D02*
X196393300Y-121069340D01*
X196393300Y-120669340D02*
X196693300Y-120869340D01*
X197593300Y-121519340D02*
X197593300Y-120219340D01*
X195593300Y-121519340D02*
X197593300Y-121519340D01*
X195593300Y-120219340D02*
X195593300Y-121519340D01*
X197593300Y-120219340D02*
X195593300Y-120219340D01*
X195222360Y-74453380D02*
X195022360Y-74453380D01*
X195522360Y-74453380D02*
X195722360Y-74453380D01*
X195522360Y-74253380D02*
X195522360Y-74653380D01*
X195222360Y-74653380D02*
X195222360Y-74253380D01*
X195522360Y-74453380D02*
X195222360Y-74653380D01*
X195222360Y-74253380D02*
X195522360Y-74453380D01*
X196422360Y-75103380D02*
X196422360Y-73803380D01*
X194422360Y-75103380D02*
X196422360Y-75103380D01*
X194422360Y-73803380D02*
X194422360Y-75103380D01*
X196422360Y-73803380D02*
X194422360Y-73803380D01*
X227597200Y-121009040D02*
X227397200Y-121009040D01*
X227897200Y-121009040D02*
X228097200Y-121009040D01*
X227897200Y-120809040D02*
X227897200Y-121209040D01*
X227597200Y-121209040D02*
X227597200Y-120809040D01*
X227897200Y-121009040D02*
X227597200Y-121209040D01*
X227597200Y-120809040D02*
X227897200Y-121009040D01*
X228797200Y-121659040D02*
X228797200Y-120359040D01*
X226797200Y-121659040D02*
X228797200Y-121659040D01*
X226797200Y-120359040D02*
X226797200Y-121659040D01*
X228797200Y-120359040D02*
X226797200Y-120359040D01*
X221272600Y-74189220D02*
X221072600Y-74189220D01*
X221572600Y-74189220D02*
X221772600Y-74189220D01*
X221572600Y-73989220D02*
X221572600Y-74389220D01*
X221272600Y-74389220D02*
X221272600Y-73989220D01*
X221572600Y-74189220D02*
X221272600Y-74389220D01*
X221272600Y-73989220D02*
X221572600Y-74189220D01*
X222472600Y-74839220D02*
X222472600Y-73539220D01*
X220472600Y-74839220D02*
X222472600Y-74839220D01*
X220472600Y-73539220D02*
X220472600Y-74839220D01*
X222472600Y-73539220D02*
X220472600Y-73539220D01*
X207200000Y-114900000D02*
X207200000Y-115700000D01*
X207200000Y-115300000D02*
X206600000Y-114900000D01*
X206600000Y-115700000D02*
X207200000Y-115300000D01*
X206600000Y-114900000D02*
X206600000Y-115700000D01*
X207800000Y-115920000D02*
X207800000Y-114680000D01*
X205800000Y-115920000D02*
X207800000Y-115920000D01*
X205800000Y-114680000D02*
X205800000Y-115920000D01*
X207800000Y-114680000D02*
X205800000Y-114680000D01*
X207018680Y-65135440D02*
X207018680Y-65935440D01*
X207018680Y-65535440D02*
X206418680Y-65135440D01*
X206418680Y-65935440D02*
X207018680Y-65535440D01*
X206418680Y-65135440D02*
X206418680Y-65935440D01*
X207618680Y-66155440D02*
X207618680Y-64915440D01*
X205618680Y-66155440D02*
X207618680Y-66155440D01*
X205618680Y-64915440D02*
X205618680Y-66155440D01*
X207618680Y-64915440D02*
X205618680Y-64915440D01*
X237851740Y-113138900D02*
X237851740Y-113938900D01*
X237851740Y-113538900D02*
X237251740Y-113138900D01*
X237251740Y-113938900D02*
X237851740Y-113538900D01*
X237251740Y-113138900D02*
X237251740Y-113938900D01*
X238451740Y-114158900D02*
X238451740Y-112918900D01*
X236451740Y-114158900D02*
X238451740Y-114158900D01*
X236451740Y-112918900D02*
X236451740Y-114158900D01*
X238451740Y-112918900D02*
X236451740Y-112918900D01*
X232220560Y-65582480D02*
X232220560Y-66382480D01*
X232220560Y-65982480D02*
X231620560Y-65582480D01*
X231620560Y-66382480D02*
X232220560Y-65982480D01*
X231620560Y-65582480D02*
X231620560Y-66382480D01*
X232820560Y-66602480D02*
X232820560Y-65362480D01*
X230820560Y-66602480D02*
X232820560Y-66602480D01*
X230820560Y-65362480D02*
X230820560Y-66602480D01*
X232820560Y-65362480D02*
X230820560Y-65362480D01*
X207229500Y-105224260D02*
X207229500Y-106024260D01*
X207229500Y-105624260D02*
X206629500Y-105224260D01*
X206629500Y-106024260D02*
X207229500Y-105624260D01*
X206629500Y-105224260D02*
X206629500Y-106024260D01*
X207829500Y-106244260D02*
X207829500Y-105004260D01*
X205829500Y-106244260D02*
X207829500Y-106244260D01*
X205829500Y-105004260D02*
X205829500Y-106244260D01*
X207829500Y-105004260D02*
X205829500Y-105004260D01*
X205515000Y-57119200D02*
X205515000Y-57919200D01*
X205515000Y-57519200D02*
X204915000Y-57119200D01*
X204915000Y-57919200D02*
X205515000Y-57519200D01*
X204915000Y-57119200D02*
X204915000Y-57919200D01*
X206115000Y-58139200D02*
X206115000Y-56899200D01*
X204115000Y-58139200D02*
X206115000Y-58139200D01*
X204115000Y-56899200D02*
X204115000Y-58139200D01*
X206115000Y-56899200D02*
X204115000Y-56899200D01*
X237811100Y-105869420D02*
X237811100Y-106669420D01*
X237811100Y-106269420D02*
X237211100Y-105869420D01*
X237211100Y-106669420D02*
X237811100Y-106269420D01*
X237211100Y-105869420D02*
X237211100Y-106669420D01*
X238411100Y-106889420D02*
X238411100Y-105649420D01*
X236411100Y-106889420D02*
X238411100Y-106889420D01*
X236411100Y-105649420D02*
X236411100Y-106889420D01*
X238411100Y-105649420D02*
X236411100Y-105649420D01*
X231326480Y-56809320D02*
X231326480Y-57609320D01*
X231326480Y-57209320D02*
X230726480Y-56809320D01*
X230726480Y-57609320D02*
X231326480Y-57209320D01*
X230726480Y-56809320D02*
X230726480Y-57609320D01*
X231926480Y-57829320D02*
X231926480Y-56589320D01*
X229926480Y-57829320D02*
X231926480Y-57829320D01*
X229926480Y-56589320D02*
X229926480Y-57829320D01*
X231926480Y-56589320D02*
X229926480Y-56589320D01*
X207786320Y-71296400D02*
X207786320Y-70056400D01*
X205786320Y-71296400D02*
X207786320Y-71296400D01*
X205786320Y-70056400D02*
X205786320Y-71296400D01*
X207786320Y-70056400D02*
X205786320Y-70056400D01*
X243893940Y-112824920D02*
X243893940Y-114064920D01*
X245893940Y-112824920D02*
X243893940Y-112824920D01*
X245893940Y-114064920D02*
X245893940Y-112824920D01*
X243893940Y-114064920D02*
X245893940Y-114064920D01*
X211150800Y-117302940D02*
X211150800Y-118542940D01*
X213150800Y-117302940D02*
X211150800Y-117302940D01*
X213150800Y-118542940D02*
X213150800Y-117302940D01*
X211150800Y-118542940D02*
X213150800Y-118542940D01*
X237414400Y-66119400D02*
X237414400Y-67359400D01*
X239414400Y-66119400D02*
X237414400Y-66119400D01*
X239414400Y-67359400D02*
X239414400Y-66119400D01*
X237414400Y-67359400D02*
X239414400Y-67359400D01*
X207842200Y-76325600D02*
X207842200Y-75085600D01*
X205842200Y-76325600D02*
X207842200Y-76325600D01*
X205842200Y-75085600D02*
X205842200Y-76325600D01*
X207842200Y-75085600D02*
X205842200Y-75085600D01*
X244003160Y-118466260D02*
X244003160Y-119706260D01*
X246003160Y-118466260D02*
X244003160Y-118466260D01*
X246003160Y-119706260D02*
X246003160Y-118466260D01*
X244003160Y-119706260D02*
X246003160Y-119706260D01*
X211066980Y-122890940D02*
X211066980Y-124130940D01*
X213066980Y-122890940D02*
X211066980Y-122890940D01*
X213066980Y-124130940D02*
X213066980Y-122890940D01*
X211066980Y-124130940D02*
X213066980Y-124130940D01*
X237490600Y-71377200D02*
X237490600Y-72617200D01*
X239490600Y-71377200D02*
X237490600Y-71377200D01*
X239490600Y-72617200D02*
X239490600Y-71377200D01*
X237490600Y-72617200D02*
X239490600Y-72617200D01*
X209900000Y-59330000D02*
X209900000Y-60570000D01*
X211900000Y-59330000D02*
X209900000Y-59330000D01*
X211900000Y-60570000D02*
X211900000Y-59330000D01*
X209900000Y-60570000D02*
X211900000Y-60570000D01*
X244041260Y-102883360D02*
X244041260Y-104123360D01*
X246041260Y-102883360D02*
X244041260Y-102883360D01*
X246041260Y-104123360D02*
X246041260Y-102883360D01*
X244041260Y-104123360D02*
X246041260Y-104123360D01*
X239750000Y-56480000D02*
X239750000Y-57720000D01*
X241750000Y-56480000D02*
X239750000Y-56480000D01*
X241750000Y-57720000D02*
X241750000Y-56480000D01*
X239750000Y-57720000D02*
X241750000Y-57720000D01*
X209750000Y-54205000D02*
X209750000Y-55445000D01*
X211750000Y-54205000D02*
X209750000Y-54205000D01*
X211750000Y-55445000D02*
X211750000Y-54205000D01*
X209750000Y-55445000D02*
X211750000Y-55445000D01*
X243965060Y-107683960D02*
X243965060Y-108923960D01*
X245965060Y-107683960D02*
X243965060Y-107683960D01*
X245965060Y-108923960D02*
X245965060Y-107683960D01*
X243965060Y-108923960D02*
X245965060Y-108923960D01*
X213025000Y-107630000D02*
X213025000Y-108870000D01*
X215025000Y-107630000D02*
X213025000Y-107630000D01*
X215025000Y-108870000D02*
X215025000Y-107630000D01*
X213025000Y-108870000D02*
X215025000Y-108870000D01*
X236775000Y-55095000D02*
X236775000Y-53855000D01*
X234775000Y-55095000D02*
X236775000Y-55095000D01*
X234775000Y-53855000D02*
X234775000Y-55095000D01*
X236775000Y-53855000D02*
X234775000Y-53855000D01*
X189524720Y-115274480D02*
X188284720Y-115274480D01*
X189524720Y-117274480D02*
X189524720Y-115274480D01*
X188284720Y-117274480D02*
X189524720Y-117274480D01*
X188284720Y-115274480D02*
X188284720Y-117274480D01*
X221348380Y-108149780D02*
X220108380Y-108149780D01*
X221348380Y-110149780D02*
X221348380Y-108149780D01*
X220108380Y-110149780D02*
X221348380Y-110149780D01*
X220108380Y-108149780D02*
X220108380Y-110149780D01*
X200661620Y-79650460D02*
X200661620Y-78410460D01*
X198661620Y-79650460D02*
X200661620Y-79650460D01*
X198661620Y-78410460D02*
X198661620Y-79650460D01*
X200661620Y-78410460D02*
X198661620Y-78410460D01*
X227146200Y-79602200D02*
X227146200Y-78362200D01*
X225146200Y-79602200D02*
X227146200Y-79602200D01*
X225146200Y-78362200D02*
X225146200Y-79602200D01*
X227146200Y-78362200D02*
X225146200Y-78362200D01*
X212954200Y-102705560D02*
X212954200Y-103945560D01*
X214954200Y-102705560D02*
X212954200Y-102705560D01*
X214954200Y-103945560D02*
X214954200Y-102705560D01*
X212954200Y-103945560D02*
X214954200Y-103945560D01*
D11*
X183578095Y-128907143D02*
X183625714Y-128954762D01*
X183768571Y-129002381D01*
X183863809Y-129002381D01*
X184006667Y-128954762D01*
X184101905Y-128859524D01*
X184149524Y-128764286D01*
X184197143Y-128573810D01*
X184197143Y-128430952D01*
X184149524Y-128240476D01*
X184101905Y-128145238D01*
X184006667Y-128050000D01*
X183863809Y-128002381D01*
X183768571Y-128002381D01*
X183625714Y-128050000D01*
X183578095Y-128097619D01*
X183006667Y-129002381D02*
X183101905Y-128954762D01*
X183149524Y-128907143D01*
X183197143Y-128811905D01*
X183197143Y-128526190D01*
X183149524Y-128430952D01*
X183101905Y-128383333D01*
X183006667Y-128335714D01*
X182863809Y-128335714D01*
X182768571Y-128383333D01*
X182720952Y-128430952D01*
X182673333Y-128526190D01*
X182673333Y-128811905D01*
X182720952Y-128907143D01*
X182768571Y-128954762D01*
X182863809Y-129002381D01*
X183006667Y-129002381D01*
X182244762Y-128335714D02*
X182244762Y-129002381D01*
X182244762Y-128430952D02*
X182197143Y-128383333D01*
X182101905Y-128335714D01*
X181959047Y-128335714D01*
X181863809Y-128383333D01*
X181816190Y-128478571D01*
X181816190Y-129002381D01*
X181340000Y-128335714D02*
X181340000Y-129002381D01*
X181340000Y-128430952D02*
X181292381Y-128383333D01*
X181197143Y-128335714D01*
X181054285Y-128335714D01*
X180959047Y-128383333D01*
X180911428Y-128478571D01*
X180911428Y-129002381D01*
X180673333Y-129097619D02*
X179911428Y-129097619D01*
X179482857Y-128002381D02*
X179387618Y-128002381D01*
X179292380Y-128050000D01*
X179244761Y-128097619D01*
X179197142Y-128192857D01*
X179149523Y-128383333D01*
X179149523Y-128621429D01*
X179197142Y-128811905D01*
X179244761Y-128907143D01*
X179292380Y-128954762D01*
X179387618Y-129002381D01*
X179482857Y-129002381D01*
X179578095Y-128954762D01*
X179625714Y-128907143D01*
X179673333Y-128811905D01*
X179720952Y-128621429D01*
X179720952Y-128383333D01*
X179673333Y-128192857D01*
X179625714Y-128097619D01*
X179578095Y-128050000D01*
X179482857Y-128002381D01*
X178197142Y-129002381D02*
X178768571Y-129002381D01*
X178482857Y-129002381D02*
X178482857Y-128002381D01*
X178578095Y-128145238D01*
X178673333Y-128240476D01*
X178768571Y-128288095D01*
X177863809Y-129002381D02*
X177339999Y-128335714D01*
X177863809Y-128335714D02*
X177339999Y-129002381D01*
X176768571Y-128002381D02*
X176673332Y-128002381D01*
X176578094Y-128050000D01*
X176530475Y-128097619D01*
X176482856Y-128192857D01*
X176435237Y-128383333D01*
X176435237Y-128621429D01*
X176482856Y-128811905D01*
X176530475Y-128907143D01*
X176578094Y-128954762D01*
X176673332Y-129002381D01*
X176768571Y-129002381D01*
X176863809Y-128954762D01*
X176911428Y-128907143D01*
X176959047Y-128811905D01*
X177006666Y-128621429D01*
X177006666Y-128383333D01*
X176959047Y-128192857D01*
X176911428Y-128097619D01*
X176863809Y-128050000D01*
X176768571Y-128002381D01*
X175482856Y-129002381D02*
X176054285Y-129002381D01*
X175768571Y-129002381D02*
X175768571Y-128002381D01*
X175863809Y-128145238D01*
X175959047Y-128240476D01*
X176054285Y-128288095D01*
X170747343Y-41971405D02*
X170794962Y-41923786D01*
X170842581Y-41780929D01*
X170842581Y-41685691D01*
X170794962Y-41542833D01*
X170699724Y-41447595D01*
X170604486Y-41399976D01*
X170414010Y-41352357D01*
X170271152Y-41352357D01*
X170080676Y-41399976D01*
X169985438Y-41447595D01*
X169890200Y-41542833D01*
X169842581Y-41685691D01*
X169842581Y-41780929D01*
X169890200Y-41923786D01*
X169937819Y-41971405D01*
X170842581Y-42542833D02*
X170794962Y-42447595D01*
X170747343Y-42399976D01*
X170652105Y-42352357D01*
X170366390Y-42352357D01*
X170271152Y-42399976D01*
X170223533Y-42447595D01*
X170175914Y-42542833D01*
X170175914Y-42685691D01*
X170223533Y-42780929D01*
X170271152Y-42828548D01*
X170366390Y-42876167D01*
X170652105Y-42876167D01*
X170747343Y-42828548D01*
X170794962Y-42780929D01*
X170842581Y-42685691D01*
X170842581Y-42542833D01*
X170175914Y-43304738D02*
X170842581Y-43304738D01*
X170271152Y-43304738D02*
X170223533Y-43352357D01*
X170175914Y-43447595D01*
X170175914Y-43590453D01*
X170223533Y-43685691D01*
X170318771Y-43733310D01*
X170842581Y-43733310D01*
X170175914Y-44209500D02*
X170842581Y-44209500D01*
X170271152Y-44209500D02*
X170223533Y-44257119D01*
X170175914Y-44352357D01*
X170175914Y-44495215D01*
X170223533Y-44590453D01*
X170318771Y-44638072D01*
X170842581Y-44638072D01*
X170937819Y-44876167D02*
X170937819Y-45638072D01*
X169842581Y-46066643D02*
X169842581Y-46161882D01*
X169890200Y-46257120D01*
X169937819Y-46304739D01*
X170033057Y-46352358D01*
X170223533Y-46399977D01*
X170461629Y-46399977D01*
X170652105Y-46352358D01*
X170747343Y-46304739D01*
X170794962Y-46257120D01*
X170842581Y-46161882D01*
X170842581Y-46066643D01*
X170794962Y-45971405D01*
X170747343Y-45923786D01*
X170652105Y-45876167D01*
X170461629Y-45828548D01*
X170223533Y-45828548D01*
X170033057Y-45876167D01*
X169937819Y-45923786D01*
X169890200Y-45971405D01*
X169842581Y-46066643D01*
X170842581Y-47352358D02*
X170842581Y-46780929D01*
X170842581Y-47066643D02*
X169842581Y-47066643D01*
X169985438Y-46971405D01*
X170080676Y-46876167D01*
X170128295Y-46780929D01*
X170842581Y-47685691D02*
X170175914Y-48209501D01*
X170175914Y-47685691D02*
X170842581Y-48209501D01*
X169842581Y-48780929D02*
X169842581Y-48876168D01*
X169890200Y-48971406D01*
X169937819Y-49019025D01*
X170033057Y-49066644D01*
X170223533Y-49114263D01*
X170461629Y-49114263D01*
X170652105Y-49066644D01*
X170747343Y-49019025D01*
X170794962Y-48971406D01*
X170842581Y-48876168D01*
X170842581Y-48780929D01*
X170794962Y-48685691D01*
X170747343Y-48638072D01*
X170652105Y-48590453D01*
X170461629Y-48542834D01*
X170223533Y-48542834D01*
X170033057Y-48590453D01*
X169937819Y-48638072D01*
X169890200Y-48685691D01*
X169842581Y-48780929D01*
X169937819Y-49495215D02*
X169890200Y-49542834D01*
X169842581Y-49638072D01*
X169842581Y-49876168D01*
X169890200Y-49971406D01*
X169937819Y-50019025D01*
X170033057Y-50066644D01*
X170128295Y-50066644D01*
X170271152Y-50019025D01*
X170842581Y-49447596D01*
X170842581Y-50066644D01*
X179592581Y-45656167D02*
X180306867Y-45656167D01*
X180449724Y-45608547D01*
X180544962Y-45513309D01*
X180592581Y-45370452D01*
X180592581Y-45275214D01*
X179592581Y-46560929D02*
X179592581Y-46370452D01*
X179640200Y-46275214D01*
X179687819Y-46227595D01*
X179830676Y-46132357D01*
X180021152Y-46084738D01*
X180402105Y-46084738D01*
X180497343Y-46132357D01*
X180544962Y-46179976D01*
X180592581Y-46275214D01*
X180592581Y-46465691D01*
X180544962Y-46560929D01*
X180497343Y-46608548D01*
X180402105Y-46656167D01*
X180164010Y-46656167D01*
X180068771Y-46608548D01*
X180021152Y-46560929D01*
X179973533Y-46465691D01*
X179973533Y-46275214D01*
X180021152Y-46179976D01*
X180068771Y-46132357D01*
X180164010Y-46084738D01*
D12*
X195627590Y-116491021D02*
X195603780Y-116443402D01*
X195556161Y-116395783D01*
X195484732Y-116324354D01*
X195460923Y-116276735D01*
X195460923Y-116229116D01*
X195579970Y-116252926D02*
X195556161Y-116205307D01*
X195508542Y-116157688D01*
X195413304Y-116133878D01*
X195246637Y-116133878D01*
X195151399Y-116157688D01*
X195103780Y-116205307D01*
X195079970Y-116252926D01*
X195079970Y-116348164D01*
X195103780Y-116395783D01*
X195151399Y-116443402D01*
X195246637Y-116467211D01*
X195413304Y-116467211D01*
X195508542Y-116443402D01*
X195556161Y-116395783D01*
X195579970Y-116348164D01*
X195579970Y-116252926D01*
X195579970Y-116943402D02*
X195579970Y-116657688D01*
X195579970Y-116800545D02*
X195079970Y-116800545D01*
X195151399Y-116752926D01*
X195199018Y-116705307D01*
X195222828Y-116657688D01*
X226047619Y-117573810D02*
X226095238Y-117550000D01*
X226142857Y-117502381D01*
X226214286Y-117430952D01*
X226261905Y-117407143D01*
X226309524Y-117407143D01*
X226285714Y-117526190D02*
X226333333Y-117502381D01*
X226380952Y-117454762D01*
X226404762Y-117359524D01*
X226404762Y-117192857D01*
X226380952Y-117097619D01*
X226333333Y-117050000D01*
X226285714Y-117026190D01*
X226190476Y-117026190D01*
X226142857Y-117050000D01*
X226095238Y-117097619D01*
X226071429Y-117192857D01*
X226071429Y-117359524D01*
X226095238Y-117454762D01*
X226142857Y-117502381D01*
X226190476Y-117526190D01*
X226285714Y-117526190D01*
X225904761Y-117026190D02*
X225595238Y-117026190D01*
X225761904Y-117216667D01*
X225690476Y-117216667D01*
X225642857Y-117240476D01*
X225619047Y-117264286D01*
X225595238Y-117311905D01*
X225595238Y-117430952D01*
X225619047Y-117478571D01*
X225642857Y-117502381D01*
X225690476Y-117526190D01*
X225833333Y-117526190D01*
X225880952Y-117502381D01*
X225904761Y-117478571D01*
X192604859Y-79047730D02*
X192652478Y-79023920D01*
X192700097Y-78976301D01*
X192771526Y-78904872D01*
X192819145Y-78881063D01*
X192866764Y-78881063D01*
X192842954Y-79000110D02*
X192890573Y-78976301D01*
X192938192Y-78928682D01*
X192962002Y-78833444D01*
X192962002Y-78666777D01*
X192938192Y-78571539D01*
X192890573Y-78523920D01*
X192842954Y-78500110D01*
X192747716Y-78500110D01*
X192700097Y-78523920D01*
X192652478Y-78571539D01*
X192628669Y-78666777D01*
X192628669Y-78833444D01*
X192652478Y-78928682D01*
X192700097Y-78976301D01*
X192747716Y-79000110D01*
X192842954Y-79000110D01*
X192438192Y-78547730D02*
X192414382Y-78523920D01*
X192366763Y-78500110D01*
X192247716Y-78500110D01*
X192200097Y-78523920D01*
X192176287Y-78547730D01*
X192152478Y-78595349D01*
X192152478Y-78642968D01*
X192176287Y-78714396D01*
X192462001Y-79000110D01*
X192152478Y-79000110D01*
D11*
X216216391Y-76533238D02*
X216264010Y-76676095D01*
X216311630Y-76723714D01*
X216406868Y-76771333D01*
X216549725Y-76771333D01*
X216644963Y-76723714D01*
X216692582Y-76676095D01*
X216740201Y-76580857D01*
X216740201Y-76199904D01*
X215740201Y-76199904D01*
X215740201Y-76533238D01*
X215787820Y-76628476D01*
X215835439Y-76676095D01*
X215930677Y-76723714D01*
X216025915Y-76723714D01*
X216121153Y-76676095D01*
X216168772Y-76628476D01*
X216216391Y-76533238D01*
X216216391Y-76199904D01*
X216644963Y-77771333D02*
X216692582Y-77723714D01*
X216740201Y-77580857D01*
X216740201Y-77485619D01*
X216692582Y-77342761D01*
X216597344Y-77247523D01*
X216502106Y-77199904D01*
X216311630Y-77152285D01*
X216168772Y-77152285D01*
X215978296Y-77199904D01*
X215883058Y-77247523D01*
X215787820Y-77342761D01*
X215740201Y-77485619D01*
X215740201Y-77580857D01*
X215787820Y-77723714D01*
X215835439Y-77771333D01*
X216168772Y-78342761D02*
X216121153Y-78247523D01*
X216073534Y-78199904D01*
X215978296Y-78152285D01*
X215930677Y-78152285D01*
X215835439Y-78199904D01*
X215787820Y-78247523D01*
X215740201Y-78342761D01*
X215740201Y-78533238D01*
X215787820Y-78628476D01*
X215835439Y-78676095D01*
X215930677Y-78723714D01*
X215978296Y-78723714D01*
X216073534Y-78676095D01*
X216121153Y-78628476D01*
X216168772Y-78533238D01*
X216168772Y-78342761D01*
X216216391Y-78247523D01*
X216264010Y-78199904D01*
X216359249Y-78152285D01*
X216549725Y-78152285D01*
X216644963Y-78199904D01*
X216692582Y-78247523D01*
X216740201Y-78342761D01*
X216740201Y-78533238D01*
X216692582Y-78628476D01*
X216644963Y-78676095D01*
X216549725Y-78723714D01*
X216359249Y-78723714D01*
X216264010Y-78676095D01*
X216216391Y-78628476D01*
X216168772Y-78533238D01*
X216740201Y-79676095D02*
X216740201Y-79104666D01*
X216740201Y-79390380D02*
X215740201Y-79390380D01*
X215883058Y-79295142D01*
X215978296Y-79199904D01*
X216025915Y-79104666D01*
X215740201Y-80009428D02*
X215740201Y-80676095D01*
X216740201Y-80247523D01*
D12*
X218835439Y-78664190D02*
X218883058Y-78640380D01*
X218930677Y-78592761D01*
X219002106Y-78521332D01*
X219049725Y-78497523D01*
X219097344Y-78497523D01*
X219073534Y-78616570D02*
X219121153Y-78592761D01*
X219168772Y-78545142D01*
X219192582Y-78449904D01*
X219192582Y-78283237D01*
X219168772Y-78187999D01*
X219121153Y-78140380D01*
X219073534Y-78116570D01*
X218978296Y-78116570D01*
X218930677Y-78140380D01*
X218883058Y-78187999D01*
X218859249Y-78283237D01*
X218859249Y-78449904D01*
X218883058Y-78545142D01*
X218930677Y-78592761D01*
X218978296Y-78616570D01*
X219073534Y-78616570D01*
X218430677Y-78283237D02*
X218430677Y-78616570D01*
X218549724Y-78092761D02*
X218668772Y-78449904D01*
X218359248Y-78449904D01*
D11*
X281284324Y-77532643D02*
X281331943Y-77580262D01*
X281474800Y-77627881D01*
X281570038Y-77627881D01*
X281712896Y-77580262D01*
X281808134Y-77485024D01*
X281855753Y-77389786D01*
X281903372Y-77199310D01*
X281903372Y-77056452D01*
X281855753Y-76865976D01*
X281808134Y-76770738D01*
X281712896Y-76675500D01*
X281570038Y-76627881D01*
X281474800Y-76627881D01*
X281331943Y-76675500D01*
X281284324Y-76723119D01*
X280712896Y-77627881D02*
X280808134Y-77580262D01*
X280855753Y-77532643D01*
X280903372Y-77437405D01*
X280903372Y-77151690D01*
X280855753Y-77056452D01*
X280808134Y-77008833D01*
X280712896Y-76961214D01*
X280570038Y-76961214D01*
X280474800Y-77008833D01*
X280427181Y-77056452D01*
X280379562Y-77151690D01*
X280379562Y-77437405D01*
X280427181Y-77532643D01*
X280474800Y-77580262D01*
X280570038Y-77627881D01*
X280712896Y-77627881D01*
X279950991Y-76961214D02*
X279950991Y-77627881D01*
X279950991Y-77056452D02*
X279903372Y-77008833D01*
X279808134Y-76961214D01*
X279665276Y-76961214D01*
X279570038Y-77008833D01*
X279522419Y-77104071D01*
X279522419Y-77627881D01*
X279046229Y-76961214D02*
X279046229Y-77627881D01*
X279046229Y-77056452D02*
X278998610Y-77008833D01*
X278903372Y-76961214D01*
X278760514Y-76961214D01*
X278665276Y-77008833D01*
X278617657Y-77104071D01*
X278617657Y-77627881D01*
X278379562Y-77723119D02*
X277617657Y-77723119D01*
X277427181Y-77580262D02*
X277284324Y-77627881D01*
X277046228Y-77627881D01*
X276950990Y-77580262D01*
X276903371Y-77532643D01*
X276855752Y-77437405D01*
X276855752Y-77342167D01*
X276903371Y-77246929D01*
X276950990Y-77199310D01*
X277046228Y-77151690D01*
X277236705Y-77104071D01*
X277331943Y-77056452D01*
X277379562Y-77008833D01*
X277427181Y-76913595D01*
X277427181Y-76818357D01*
X277379562Y-76723119D01*
X277331943Y-76675500D01*
X277236705Y-76627881D01*
X276998609Y-76627881D01*
X276855752Y-76675500D01*
X276427181Y-77627881D02*
X276427181Y-76627881D01*
X276093847Y-77342167D01*
X275760514Y-76627881D01*
X275760514Y-77627881D01*
X275331943Y-77342167D02*
X274855752Y-77342167D01*
X275427181Y-77627881D02*
X275093848Y-76627881D01*
X274760514Y-77627881D01*
X274665276Y-77723119D02*
X273903371Y-77723119D01*
X273617657Y-77627881D02*
X273427181Y-77627881D01*
X273331942Y-77580262D01*
X273284323Y-77532643D01*
X273189085Y-77389786D01*
X273141466Y-77199310D01*
X273141466Y-76818357D01*
X273189085Y-76723119D01*
X273236704Y-76675500D01*
X273331942Y-76627881D01*
X273522419Y-76627881D01*
X273617657Y-76675500D01*
X273665276Y-76723119D01*
X273712895Y-76818357D01*
X273712895Y-77056452D01*
X273665276Y-77151690D01*
X273617657Y-77199310D01*
X273522419Y-77246929D01*
X273331942Y-77246929D01*
X273236704Y-77199310D01*
X273189085Y-77151690D01*
X273141466Y-77056452D01*
X272522419Y-76627881D02*
X272427180Y-76627881D01*
X272331942Y-76675500D01*
X272284323Y-76723119D01*
X272236704Y-76818357D01*
X272189085Y-77008833D01*
X272189085Y-77246929D01*
X272236704Y-77437405D01*
X272284323Y-77532643D01*
X272331942Y-77580262D01*
X272427180Y-77627881D01*
X272522419Y-77627881D01*
X272617657Y-77580262D01*
X272665276Y-77532643D01*
X272712895Y-77437405D01*
X272760514Y-77246929D01*
X272760514Y-77008833D01*
X272712895Y-76818357D01*
X272665276Y-76723119D01*
X272617657Y-76675500D01*
X272522419Y-76627881D01*
X271331942Y-76961214D02*
X271331942Y-77770738D01*
X271379561Y-77865976D01*
X271427180Y-77913595D01*
X271522419Y-77961214D01*
X271665276Y-77961214D01*
X271760514Y-77913595D01*
X271331942Y-77580262D02*
X271427180Y-77627881D01*
X271617657Y-77627881D01*
X271712895Y-77580262D01*
X271760514Y-77532643D01*
X271808133Y-77437405D01*
X271808133Y-77151690D01*
X271760514Y-77056452D01*
X271712895Y-77008833D01*
X271617657Y-76961214D01*
X271427180Y-76961214D01*
X271331942Y-77008833D01*
X270855752Y-77627881D02*
X270855752Y-76961214D01*
X270855752Y-77151690D02*
X270808133Y-77056452D01*
X270760514Y-77008833D01*
X270665276Y-76961214D01*
X270570037Y-76961214D01*
X269808132Y-77627881D02*
X269808132Y-77104071D01*
X269855751Y-77008833D01*
X269950989Y-76961214D01*
X270141466Y-76961214D01*
X270236704Y-77008833D01*
X269808132Y-77580262D02*
X269903370Y-77627881D01*
X270141466Y-77627881D01*
X270236704Y-77580262D01*
X270284323Y-77485024D01*
X270284323Y-77389786D01*
X270236704Y-77294548D01*
X270141466Y-77246929D01*
X269903370Y-77246929D01*
X269808132Y-77199310D01*
X268903370Y-76961214D02*
X268903370Y-77627881D01*
X269331942Y-76961214D02*
X269331942Y-77485024D01*
X269284323Y-77580262D01*
X269189085Y-77627881D01*
X269046227Y-77627881D01*
X268950989Y-77580262D01*
X268903370Y-77532643D01*
X268474799Y-77580262D02*
X268379561Y-77627881D01*
X268189085Y-77627881D01*
X268093846Y-77580262D01*
X268046227Y-77485024D01*
X268046227Y-77437405D01*
X268093846Y-77342167D01*
X268189085Y-77294548D01*
X268331942Y-77294548D01*
X268427180Y-77246929D01*
X268474799Y-77151690D01*
X268474799Y-77104071D01*
X268427180Y-77008833D01*
X268331942Y-76961214D01*
X268189085Y-76961214D01*
X268093846Y-77008833D01*
X196931905Y-119722381D02*
X196931905Y-118722381D01*
X196693810Y-118722381D01*
X196550952Y-118770000D01*
X196455714Y-118865238D01*
X196408095Y-118960476D01*
X196360476Y-119150952D01*
X196360476Y-119293810D01*
X196408095Y-119484286D01*
X196455714Y-119579524D01*
X196550952Y-119674762D01*
X196693810Y-119722381D01*
X196931905Y-119722381D01*
X195684265Y-76605761D02*
X195684265Y-75605761D01*
X195446170Y-75605761D01*
X195303312Y-75653380D01*
X195208074Y-75748618D01*
X195160455Y-75843856D01*
X195112836Y-76034332D01*
X195112836Y-76177190D01*
X195160455Y-76367666D01*
X195208074Y-76462904D01*
X195303312Y-76558142D01*
X195446170Y-76605761D01*
X195684265Y-76605761D01*
X196160455Y-73305761D02*
X196160455Y-72305761D01*
X195922360Y-72305761D01*
X195779502Y-72353380D01*
X195684264Y-72448618D01*
X195636645Y-72543856D01*
X195589026Y-72734332D01*
X195589026Y-72877190D01*
X195636645Y-73067666D01*
X195684264Y-73162904D01*
X195779502Y-73258142D01*
X195922360Y-73305761D01*
X196160455Y-73305761D01*
X195208074Y-72400999D02*
X195160455Y-72353380D01*
X195065217Y-72305761D01*
X194827121Y-72305761D01*
X194731883Y-72353380D01*
X194684264Y-72400999D01*
X194636645Y-72496237D01*
X194636645Y-72591475D01*
X194684264Y-72734332D01*
X195255693Y-73305761D01*
X194636645Y-73305761D01*
X228059105Y-123161421D02*
X228059105Y-122161421D01*
X227821010Y-122161421D01*
X227678152Y-122209040D01*
X227582914Y-122304278D01*
X227535295Y-122399516D01*
X227487676Y-122589992D01*
X227487676Y-122732850D01*
X227535295Y-122923326D01*
X227582914Y-123018564D01*
X227678152Y-123113802D01*
X227821010Y-123161421D01*
X228059105Y-123161421D01*
X228535295Y-119861421D02*
X228535295Y-118861421D01*
X228297200Y-118861421D01*
X228154342Y-118909040D01*
X228059104Y-119004278D01*
X228011485Y-119099516D01*
X227963866Y-119289992D01*
X227963866Y-119432850D01*
X228011485Y-119623326D01*
X228059104Y-119718564D01*
X228154342Y-119813802D01*
X228297200Y-119861421D01*
X228535295Y-119861421D01*
X227630533Y-118861421D02*
X227011485Y-118861421D01*
X227344819Y-119242373D01*
X227201961Y-119242373D01*
X227106723Y-119289992D01*
X227059104Y-119337611D01*
X227011485Y-119432850D01*
X227011485Y-119670945D01*
X227059104Y-119766183D01*
X227106723Y-119813802D01*
X227201961Y-119861421D01*
X227487676Y-119861421D01*
X227582914Y-119813802D01*
X227630533Y-119766183D01*
X221734505Y-76341601D02*
X221734505Y-75341601D01*
X221496410Y-75341601D01*
X221353552Y-75389220D01*
X221258314Y-75484458D01*
X221210695Y-75579696D01*
X221163076Y-75770172D01*
X221163076Y-75913030D01*
X221210695Y-76103506D01*
X221258314Y-76198744D01*
X221353552Y-76293982D01*
X221496410Y-76341601D01*
X221734505Y-76341601D01*
X222210695Y-73041601D02*
X222210695Y-72041601D01*
X221972600Y-72041601D01*
X221829742Y-72089220D01*
X221734504Y-72184458D01*
X221686885Y-72279696D01*
X221639266Y-72470172D01*
X221639266Y-72613030D01*
X221686885Y-72803506D01*
X221734504Y-72898744D01*
X221829742Y-72993982D01*
X221972600Y-73041601D01*
X222210695Y-73041601D01*
X220782123Y-72374934D02*
X220782123Y-73041601D01*
X221020219Y-71993982D02*
X221258314Y-72708268D01*
X220639266Y-72708268D01*
D12*
X206869653Y-70902590D02*
X207036320Y-70664495D01*
X207155367Y-70902590D02*
X207155367Y-70402590D01*
X206964891Y-70402590D01*
X206917272Y-70426400D01*
X206893463Y-70450210D01*
X206869653Y-70497829D01*
X206869653Y-70569257D01*
X206893463Y-70616876D01*
X206917272Y-70640686D01*
X206964891Y-70664495D01*
X207155367Y-70664495D01*
X206417272Y-70402590D02*
X206655367Y-70402590D01*
X206679177Y-70640686D01*
X206655367Y-70616876D01*
X206607748Y-70593067D01*
X206488701Y-70593067D01*
X206441082Y-70616876D01*
X206417272Y-70640686D01*
X206393463Y-70688305D01*
X206393463Y-70807352D01*
X206417272Y-70854971D01*
X206441082Y-70878781D01*
X206488701Y-70902590D01*
X206607748Y-70902590D01*
X206655367Y-70878781D01*
X206679177Y-70854971D01*
X245215368Y-113671110D02*
X245382035Y-113433015D01*
X245501082Y-113671110D02*
X245501082Y-113171110D01*
X245310606Y-113171110D01*
X245262987Y-113194920D01*
X245239178Y-113218730D01*
X245215368Y-113266349D01*
X245215368Y-113337777D01*
X245239178Y-113385396D01*
X245262987Y-113409206D01*
X245310606Y-113433015D01*
X245501082Y-113433015D01*
X244739178Y-113671110D02*
X245024892Y-113671110D01*
X244882035Y-113671110D02*
X244882035Y-113171110D01*
X244929654Y-113242539D01*
X244977273Y-113290158D01*
X245024892Y-113313968D01*
X244429654Y-113171110D02*
X244382035Y-113171110D01*
X244334416Y-113194920D01*
X244310607Y-113218730D01*
X244286797Y-113266349D01*
X244262988Y-113361587D01*
X244262988Y-113480634D01*
X244286797Y-113575872D01*
X244310607Y-113623491D01*
X244334416Y-113647301D01*
X244382035Y-113671110D01*
X244429654Y-113671110D01*
X244477273Y-113647301D01*
X244501083Y-113623491D01*
X244524892Y-113575872D01*
X244548702Y-113480634D01*
X244548702Y-113361587D01*
X244524892Y-113266349D01*
X244501083Y-113218730D01*
X244477273Y-113194920D01*
X244429654Y-113171110D01*
X212472228Y-118149130D02*
X212638895Y-117911035D01*
X212757942Y-118149130D02*
X212757942Y-117649130D01*
X212567466Y-117649130D01*
X212519847Y-117672940D01*
X212496038Y-117696750D01*
X212472228Y-117744369D01*
X212472228Y-117815797D01*
X212496038Y-117863416D01*
X212519847Y-117887226D01*
X212567466Y-117911035D01*
X212757942Y-117911035D01*
X211996038Y-118149130D02*
X212281752Y-118149130D01*
X212138895Y-118149130D02*
X212138895Y-117649130D01*
X212186514Y-117720559D01*
X212234133Y-117768178D01*
X212281752Y-117791988D01*
X211805562Y-117696750D02*
X211781752Y-117672940D01*
X211734133Y-117649130D01*
X211615086Y-117649130D01*
X211567467Y-117672940D01*
X211543657Y-117696750D01*
X211519848Y-117744369D01*
X211519848Y-117791988D01*
X211543657Y-117863416D01*
X211829371Y-118149130D01*
X211519848Y-118149130D01*
X238735828Y-66965590D02*
X238902495Y-66727495D01*
X239021542Y-66965590D02*
X239021542Y-66465590D01*
X238831066Y-66465590D01*
X238783447Y-66489400D01*
X238759638Y-66513210D01*
X238735828Y-66560829D01*
X238735828Y-66632257D01*
X238759638Y-66679876D01*
X238783447Y-66703686D01*
X238831066Y-66727495D01*
X239021542Y-66727495D01*
X238259638Y-66965590D02*
X238545352Y-66965590D01*
X238402495Y-66965590D02*
X238402495Y-66465590D01*
X238450114Y-66537019D01*
X238497733Y-66584638D01*
X238545352Y-66608448D01*
X237783448Y-66965590D02*
X238069162Y-66965590D01*
X237926305Y-66965590D02*
X237926305Y-66465590D01*
X237973924Y-66537019D01*
X238021543Y-66584638D01*
X238069162Y-66608448D01*
X206925533Y-75931790D02*
X207092200Y-75693695D01*
X207211247Y-75931790D02*
X207211247Y-75431790D01*
X207020771Y-75431790D01*
X206973152Y-75455600D01*
X206949343Y-75479410D01*
X206925533Y-75527029D01*
X206925533Y-75598457D01*
X206949343Y-75646076D01*
X206973152Y-75669886D01*
X207020771Y-75693695D01*
X207211247Y-75693695D01*
X206687438Y-75931790D02*
X206592200Y-75931790D01*
X206544581Y-75907981D01*
X206520771Y-75884171D01*
X206473152Y-75812743D01*
X206449343Y-75717505D01*
X206449343Y-75527029D01*
X206473152Y-75479410D01*
X206496962Y-75455600D01*
X206544581Y-75431790D01*
X206639819Y-75431790D01*
X206687438Y-75455600D01*
X206711247Y-75479410D01*
X206735057Y-75527029D01*
X206735057Y-75646076D01*
X206711247Y-75693695D01*
X206687438Y-75717505D01*
X206639819Y-75741314D01*
X206544581Y-75741314D01*
X206496962Y-75717505D01*
X206473152Y-75693695D01*
X206449343Y-75646076D01*
X245086493Y-119312450D02*
X245253160Y-119074355D01*
X245372207Y-119312450D02*
X245372207Y-118812450D01*
X245181731Y-118812450D01*
X245134112Y-118836260D01*
X245110303Y-118860070D01*
X245086493Y-118907689D01*
X245086493Y-118979117D01*
X245110303Y-119026736D01*
X245134112Y-119050546D01*
X245181731Y-119074355D01*
X245372207Y-119074355D01*
X244657922Y-118812450D02*
X244753160Y-118812450D01*
X244800779Y-118836260D01*
X244824588Y-118860070D01*
X244872207Y-118931498D01*
X244896017Y-119026736D01*
X244896017Y-119217212D01*
X244872207Y-119264831D01*
X244848398Y-119288641D01*
X244800779Y-119312450D01*
X244705541Y-119312450D01*
X244657922Y-119288641D01*
X244634112Y-119264831D01*
X244610303Y-119217212D01*
X244610303Y-119098165D01*
X244634112Y-119050546D01*
X244657922Y-119026736D01*
X244705541Y-119002927D01*
X244800779Y-119002927D01*
X244848398Y-119026736D01*
X244872207Y-119050546D01*
X244896017Y-119098165D01*
X212150313Y-123737130D02*
X212316980Y-123499035D01*
X212436027Y-123737130D02*
X212436027Y-123237130D01*
X212245551Y-123237130D01*
X212197932Y-123260940D01*
X212174123Y-123284750D01*
X212150313Y-123332369D01*
X212150313Y-123403797D01*
X212174123Y-123451416D01*
X212197932Y-123475226D01*
X212245551Y-123499035D01*
X212436027Y-123499035D01*
X211864599Y-123451416D02*
X211912218Y-123427607D01*
X211936027Y-123403797D01*
X211959837Y-123356178D01*
X211959837Y-123332369D01*
X211936027Y-123284750D01*
X211912218Y-123260940D01*
X211864599Y-123237130D01*
X211769361Y-123237130D01*
X211721742Y-123260940D01*
X211697932Y-123284750D01*
X211674123Y-123332369D01*
X211674123Y-123356178D01*
X211697932Y-123403797D01*
X211721742Y-123427607D01*
X211769361Y-123451416D01*
X211864599Y-123451416D01*
X211912218Y-123475226D01*
X211936027Y-123499035D01*
X211959837Y-123546654D01*
X211959837Y-123641892D01*
X211936027Y-123689511D01*
X211912218Y-123713321D01*
X211864599Y-123737130D01*
X211769361Y-123737130D01*
X211721742Y-123713321D01*
X211697932Y-123689511D01*
X211674123Y-123641892D01*
X211674123Y-123546654D01*
X211697932Y-123499035D01*
X211721742Y-123475226D01*
X211769361Y-123451416D01*
X238573933Y-72223390D02*
X238740600Y-71985295D01*
X238859647Y-72223390D02*
X238859647Y-71723390D01*
X238669171Y-71723390D01*
X238621552Y-71747200D01*
X238597743Y-71771010D01*
X238573933Y-71818629D01*
X238573933Y-71890057D01*
X238597743Y-71937676D01*
X238621552Y-71961486D01*
X238669171Y-71985295D01*
X238859647Y-71985295D01*
X238407266Y-71723390D02*
X238073933Y-71723390D01*
X238288219Y-72223390D01*
X211221428Y-60176190D02*
X211388095Y-59938095D01*
X211507142Y-60176190D02*
X211507142Y-59676190D01*
X211316666Y-59676190D01*
X211269047Y-59700000D01*
X211245238Y-59723810D01*
X211221428Y-59771429D01*
X211221428Y-59842857D01*
X211245238Y-59890476D01*
X211269047Y-59914286D01*
X211316666Y-59938095D01*
X211507142Y-59938095D01*
X210745238Y-60176190D02*
X211030952Y-60176190D01*
X210888095Y-60176190D02*
X210888095Y-59676190D01*
X210935714Y-59747619D01*
X210983333Y-59795238D01*
X211030952Y-59819048D01*
X210578571Y-59676190D02*
X210245238Y-59676190D01*
X210459524Y-60176190D01*
X245362688Y-103729550D02*
X245529355Y-103491455D01*
X245648402Y-103729550D02*
X245648402Y-103229550D01*
X245457926Y-103229550D01*
X245410307Y-103253360D01*
X245386498Y-103277170D01*
X245362688Y-103324789D01*
X245362688Y-103396217D01*
X245386498Y-103443836D01*
X245410307Y-103467646D01*
X245457926Y-103491455D01*
X245648402Y-103491455D01*
X244886498Y-103729550D02*
X245172212Y-103729550D01*
X245029355Y-103729550D02*
X245029355Y-103229550D01*
X245076974Y-103300979D01*
X245124593Y-103348598D01*
X245172212Y-103372408D01*
X244457927Y-103396217D02*
X244457927Y-103729550D01*
X244576974Y-103205741D02*
X244696022Y-103562884D01*
X244386498Y-103562884D01*
X241071428Y-57326190D02*
X241238095Y-57088095D01*
X241357142Y-57326190D02*
X241357142Y-56826190D01*
X241166666Y-56826190D01*
X241119047Y-56850000D01*
X241095238Y-56873810D01*
X241071428Y-56921429D01*
X241071428Y-56992857D01*
X241095238Y-57040476D01*
X241119047Y-57064286D01*
X241166666Y-57088095D01*
X241357142Y-57088095D01*
X240595238Y-57326190D02*
X240880952Y-57326190D01*
X240738095Y-57326190D02*
X240738095Y-56826190D01*
X240785714Y-56897619D01*
X240833333Y-56945238D01*
X240880952Y-56969048D01*
X240357143Y-57326190D02*
X240261905Y-57326190D01*
X240214286Y-57302381D01*
X240190476Y-57278571D01*
X240142857Y-57207143D01*
X240119048Y-57111905D01*
X240119048Y-56921429D01*
X240142857Y-56873810D01*
X240166667Y-56850000D01*
X240214286Y-56826190D01*
X240309524Y-56826190D01*
X240357143Y-56850000D01*
X240380952Y-56873810D01*
X240404762Y-56921429D01*
X240404762Y-57040476D01*
X240380952Y-57088095D01*
X240357143Y-57111905D01*
X240309524Y-57135714D01*
X240214286Y-57135714D01*
X240166667Y-57111905D01*
X240142857Y-57088095D01*
X240119048Y-57040476D01*
X211071428Y-55051190D02*
X211238095Y-54813095D01*
X211357142Y-55051190D02*
X211357142Y-54551190D01*
X211166666Y-54551190D01*
X211119047Y-54575000D01*
X211095238Y-54598810D01*
X211071428Y-54646429D01*
X211071428Y-54717857D01*
X211095238Y-54765476D01*
X211119047Y-54789286D01*
X211166666Y-54813095D01*
X211357142Y-54813095D01*
X210595238Y-55051190D02*
X210880952Y-55051190D01*
X210738095Y-55051190D02*
X210738095Y-54551190D01*
X210785714Y-54622619D01*
X210833333Y-54670238D01*
X210880952Y-54694048D01*
X210428571Y-54551190D02*
X210119048Y-54551190D01*
X210285714Y-54741667D01*
X210214286Y-54741667D01*
X210166667Y-54765476D01*
X210142857Y-54789286D01*
X210119048Y-54836905D01*
X210119048Y-54955952D01*
X210142857Y-55003571D01*
X210166667Y-55027381D01*
X210214286Y-55051190D01*
X210357143Y-55051190D01*
X210404762Y-55027381D01*
X210428571Y-55003571D01*
X245286488Y-108530150D02*
X245453155Y-108292055D01*
X245572202Y-108530150D02*
X245572202Y-108030150D01*
X245381726Y-108030150D01*
X245334107Y-108053960D01*
X245310298Y-108077770D01*
X245286488Y-108125389D01*
X245286488Y-108196817D01*
X245310298Y-108244436D01*
X245334107Y-108268246D01*
X245381726Y-108292055D01*
X245572202Y-108292055D01*
X244810298Y-108530150D02*
X245096012Y-108530150D01*
X244953155Y-108530150D02*
X244953155Y-108030150D01*
X245000774Y-108101579D01*
X245048393Y-108149198D01*
X245096012Y-108173008D01*
X244524584Y-108244436D02*
X244572203Y-108220627D01*
X244596012Y-108196817D01*
X244619822Y-108149198D01*
X244619822Y-108125389D01*
X244596012Y-108077770D01*
X244572203Y-108053960D01*
X244524584Y-108030150D01*
X244429346Y-108030150D01*
X244381727Y-108053960D01*
X244357917Y-108077770D01*
X244334108Y-108125389D01*
X244334108Y-108149198D01*
X244357917Y-108196817D01*
X244381727Y-108220627D01*
X244429346Y-108244436D01*
X244524584Y-108244436D01*
X244572203Y-108268246D01*
X244596012Y-108292055D01*
X244619822Y-108339674D01*
X244619822Y-108434912D01*
X244596012Y-108482531D01*
X244572203Y-108506341D01*
X244524584Y-108530150D01*
X244429346Y-108530150D01*
X244381727Y-108506341D01*
X244357917Y-108482531D01*
X244334108Y-108434912D01*
X244334108Y-108339674D01*
X244357917Y-108292055D01*
X244381727Y-108268246D01*
X244429346Y-108244436D01*
X214346428Y-108476190D02*
X214513095Y-108238095D01*
X214632142Y-108476190D02*
X214632142Y-107976190D01*
X214441666Y-107976190D01*
X214394047Y-108000000D01*
X214370238Y-108023810D01*
X214346428Y-108071429D01*
X214346428Y-108142857D01*
X214370238Y-108190476D01*
X214394047Y-108214286D01*
X214441666Y-108238095D01*
X214632142Y-108238095D01*
X214155952Y-108023810D02*
X214132142Y-108000000D01*
X214084523Y-107976190D01*
X213965476Y-107976190D01*
X213917857Y-108000000D01*
X213894047Y-108023810D01*
X213870238Y-108071429D01*
X213870238Y-108119048D01*
X213894047Y-108190476D01*
X214179761Y-108476190D01*
X213870238Y-108476190D01*
X213560714Y-107976190D02*
X213513095Y-107976190D01*
X213465476Y-108000000D01*
X213441667Y-108023810D01*
X213417857Y-108071429D01*
X213394048Y-108166667D01*
X213394048Y-108285714D01*
X213417857Y-108380952D01*
X213441667Y-108428571D01*
X213465476Y-108452381D01*
X213513095Y-108476190D01*
X213560714Y-108476190D01*
X213608333Y-108452381D01*
X213632143Y-108428571D01*
X213655952Y-108380952D01*
X213679762Y-108285714D01*
X213679762Y-108166667D01*
X213655952Y-108071429D01*
X213632143Y-108023810D01*
X213608333Y-108000000D01*
X213560714Y-107976190D01*
X236096428Y-54701190D02*
X236263095Y-54463095D01*
X236382142Y-54701190D02*
X236382142Y-54201190D01*
X236191666Y-54201190D01*
X236144047Y-54225000D01*
X236120238Y-54248810D01*
X236096428Y-54296429D01*
X236096428Y-54367857D01*
X236120238Y-54415476D01*
X236144047Y-54439286D01*
X236191666Y-54463095D01*
X236382142Y-54463095D01*
X235620238Y-54701190D02*
X235905952Y-54701190D01*
X235763095Y-54701190D02*
X235763095Y-54201190D01*
X235810714Y-54272619D01*
X235858333Y-54320238D01*
X235905952Y-54344048D01*
X235167857Y-54201190D02*
X235405952Y-54201190D01*
X235429762Y-54439286D01*
X235405952Y-54415476D01*
X235358333Y-54391667D01*
X235239286Y-54391667D01*
X235191667Y-54415476D01*
X235167857Y-54439286D01*
X235144048Y-54486905D01*
X235144048Y-54605952D01*
X235167857Y-54653571D01*
X235191667Y-54677381D01*
X235239286Y-54701190D01*
X235358333Y-54701190D01*
X235405952Y-54677381D01*
X235429762Y-54653571D01*
X189130910Y-116191147D02*
X188892815Y-116024480D01*
X189130910Y-115905433D02*
X188630910Y-115905433D01*
X188630910Y-116095909D01*
X188654720Y-116143528D01*
X188678530Y-116167337D01*
X188726149Y-116191147D01*
X188797577Y-116191147D01*
X188845196Y-116167337D01*
X188869006Y-116143528D01*
X188892815Y-116095909D01*
X188892815Y-115905433D01*
X189130910Y-116667337D02*
X189130910Y-116381623D01*
X189130910Y-116524480D02*
X188630910Y-116524480D01*
X188702339Y-116476861D01*
X188749958Y-116429242D01*
X188773768Y-116381623D01*
D11*
X222930761Y-109030733D02*
X222930761Y-108459304D01*
X222930761Y-108745018D02*
X221930761Y-108745018D01*
X222073618Y-108649780D01*
X222168856Y-108554542D01*
X222216475Y-108459304D01*
X222930761Y-109459304D02*
X221930761Y-109459304D01*
X222549809Y-109554542D02*
X222930761Y-109840257D01*
X222264094Y-109840257D02*
X222645047Y-109459304D01*
D12*
X220954570Y-109066447D02*
X220716475Y-108899780D01*
X220954570Y-108780733D02*
X220454570Y-108780733D01*
X220454570Y-108971209D01*
X220478380Y-109018828D01*
X220502190Y-109042637D01*
X220549809Y-109066447D01*
X220621237Y-109066447D01*
X220668856Y-109042637D01*
X220692666Y-109018828D01*
X220716475Y-108971209D01*
X220716475Y-108780733D01*
X220454570Y-109233114D02*
X220454570Y-109542637D01*
X220645047Y-109375971D01*
X220645047Y-109447399D01*
X220668856Y-109495018D01*
X220692666Y-109518828D01*
X220740285Y-109542637D01*
X220859332Y-109542637D01*
X220906951Y-109518828D01*
X220930761Y-109495018D01*
X220954570Y-109447399D01*
X220954570Y-109304542D01*
X220930761Y-109256923D01*
X220906951Y-109233114D01*
X199744953Y-79256650D02*
X199911620Y-79018555D01*
X200030667Y-79256650D02*
X200030667Y-78756650D01*
X199840191Y-78756650D01*
X199792572Y-78780460D01*
X199768763Y-78804270D01*
X199744953Y-78851889D01*
X199744953Y-78923317D01*
X199768763Y-78970936D01*
X199792572Y-78994746D01*
X199840191Y-79018555D01*
X200030667Y-79018555D01*
X199554477Y-78804270D02*
X199530667Y-78780460D01*
X199483048Y-78756650D01*
X199364001Y-78756650D01*
X199316382Y-78780460D01*
X199292572Y-78804270D01*
X199268763Y-78851889D01*
X199268763Y-78899508D01*
X199292572Y-78970936D01*
X199578286Y-79256650D01*
X199268763Y-79256650D01*
D11*
X226265247Y-81184581D02*
X226836676Y-81184581D01*
X226550962Y-81184581D02*
X226550962Y-80184581D01*
X226646200Y-80327438D01*
X226741438Y-80422676D01*
X226836676Y-80470295D01*
X225836676Y-81184581D02*
X225836676Y-80184581D01*
X225741438Y-80803629D02*
X225455723Y-81184581D01*
X225455723Y-80517914D02*
X225836676Y-80898867D01*
D12*
X226229533Y-79208390D02*
X226396200Y-78970295D01*
X226515247Y-79208390D02*
X226515247Y-78708390D01*
X226324771Y-78708390D01*
X226277152Y-78732200D01*
X226253343Y-78756010D01*
X226229533Y-78803629D01*
X226229533Y-78875057D01*
X226253343Y-78922676D01*
X226277152Y-78946486D01*
X226324771Y-78970295D01*
X226515247Y-78970295D01*
X225800962Y-78875057D02*
X225800962Y-79208390D01*
X225920009Y-78684581D02*
X226039057Y-79041724D01*
X225729533Y-79041724D01*
X214275628Y-103551750D02*
X214442295Y-103313655D01*
X214561342Y-103551750D02*
X214561342Y-103051750D01*
X214370866Y-103051750D01*
X214323247Y-103075560D01*
X214299438Y-103099370D01*
X214275628Y-103146989D01*
X214275628Y-103218417D01*
X214299438Y-103266036D01*
X214323247Y-103289846D01*
X214370866Y-103313655D01*
X214561342Y-103313655D01*
X213799438Y-103551750D02*
X214085152Y-103551750D01*
X213942295Y-103551750D02*
X213942295Y-103051750D01*
X213989914Y-103123179D01*
X214037533Y-103170798D01*
X214085152Y-103194608D01*
X213370867Y-103051750D02*
X213466105Y-103051750D01*
X213513724Y-103075560D01*
X213537533Y-103099370D01*
X213585152Y-103170798D01*
X213608962Y-103266036D01*
X213608962Y-103456512D01*
X213585152Y-103504131D01*
X213561343Y-103527941D01*
X213513724Y-103551750D01*
X213418486Y-103551750D01*
X213370867Y-103527941D01*
X213347057Y-103504131D01*
X213323248Y-103456512D01*
X213323248Y-103337465D01*
X213347057Y-103289846D01*
X213370867Y-103266036D01*
X213418486Y-103242227D01*
X213513724Y-103242227D01*
X213561343Y-103266036D01*
X213585152Y-103289846D01*
X213608962Y-103337465D01*
M02*
