G04 #@! TF.FileFunction,Legend,Bot*
%FSLAX46Y46*%
G04 Gerber Fmt 4.6, Leading zero omitted, Abs format (unit mm)*
G04 Created by KiCad (PCBNEW 4.0.7-e2-6376~58~ubuntu16.04.1) date Fri Jul 20 08:47:30 2018*
%MOMM*%
%LPD*%
G01*
G04 APERTURE LIST*
%ADD10C,0.100000*%
%ADD11C,0.120000*%
%ADD12C,0.150000*%
%ADD13C,0.250000*%
%ADD14C,0.304800*%
G04 APERTURE END LIST*
D10*
D11*
X186070000Y-128700000D02*
X180870000Y-128700000D01*
X186070000Y-115940000D02*
X186070000Y-128700000D01*
X180870000Y-113340000D02*
X180870000Y-128700000D01*
X186070000Y-115940000D02*
X183470000Y-115940000D01*
X183470000Y-115940000D02*
X183470000Y-113340000D01*
X183470000Y-113340000D02*
X180870000Y-113340000D01*
X186070000Y-114670000D02*
X186070000Y-113340000D01*
X186070000Y-113340000D02*
X184740000Y-113340000D01*
D12*
X137840000Y-54550000D02*
X137840000Y-66550000D01*
X145840000Y-66550000D02*
X145840000Y-54550000D01*
X153840000Y-54550000D02*
X153840000Y-66550000D01*
X161840000Y-66550000D02*
X161840000Y-54550000D01*
X129840000Y-54550000D02*
X169840000Y-54550000D01*
X169840000Y-54550000D02*
X169840000Y-66550000D01*
X129840000Y-66550000D02*
X129840000Y-54550000D01*
X179840000Y-129050000D02*
X128840000Y-129050000D01*
X128840000Y-129050000D02*
X128840000Y-66550000D01*
X128840000Y-66550000D02*
X179840000Y-66550000D01*
X179840000Y-66550000D02*
X179840000Y-129050000D01*
X277151480Y-120550000D02*
X277151480Y-130750000D01*
X274651480Y-130750000D02*
X277151480Y-130750000D01*
X274651480Y-120550000D02*
X277151480Y-120550000D01*
D13*
X263151480Y-132050000D02*
X274651480Y-132050000D01*
X263151480Y-119250000D02*
X274651480Y-119250000D01*
X263151480Y-119250000D02*
X263151480Y-132050000D01*
X274651480Y-119250000D02*
X274651480Y-132050000D01*
D11*
X184440200Y-51139500D02*
X171840200Y-51139500D01*
X171840200Y-51139500D02*
X171840200Y-40789500D01*
X171840200Y-40789500D02*
X172790200Y-40789500D01*
X172790200Y-40789500D02*
X172540200Y-40289500D01*
X172540200Y-40289500D02*
X174440200Y-40289500D01*
X174440200Y-40289500D02*
X174490200Y-40289500D01*
X174490200Y-40289500D02*
X174240200Y-40789500D01*
X174240200Y-40789500D02*
X179640200Y-40789500D01*
X179640200Y-40789500D02*
X179340200Y-40289500D01*
X179340200Y-40289500D02*
X184440200Y-40289500D01*
X184440200Y-40289500D02*
X184440200Y-51139500D01*
X194593780Y-118118640D02*
X194593780Y-117188640D01*
X194593780Y-114958640D02*
X194593780Y-115888640D01*
X194593780Y-114958640D02*
X196753780Y-114958640D01*
X194593780Y-118118640D02*
X196053780Y-118118640D01*
X227580000Y-118060000D02*
X226650000Y-118060000D01*
X224420000Y-118060000D02*
X225350000Y-118060000D01*
X224420000Y-118060000D02*
X224420000Y-115900000D01*
X227580000Y-118060000D02*
X227580000Y-116600000D01*
X190977240Y-78013920D02*
X191907240Y-78013920D01*
X194137240Y-78013920D02*
X193207240Y-78013920D01*
X194137240Y-78013920D02*
X194137240Y-80173920D01*
X190977240Y-78013920D02*
X190977240Y-79473920D01*
X217207820Y-77630380D02*
X218137820Y-77630380D01*
X220367820Y-77630380D02*
X219437820Y-77630380D01*
X220367820Y-77630380D02*
X220367820Y-79790380D01*
X217207820Y-77630380D02*
X217207820Y-79090380D01*
D12*
X270974800Y-71675500D02*
X282474800Y-71675500D01*
X282474800Y-71675500D02*
X282474800Y-71175500D01*
X270974800Y-65675500D02*
X282474800Y-65675500D01*
X282474800Y-65675500D02*
X282474800Y-71675500D01*
X262974800Y-64675500D02*
X270974800Y-64675500D01*
X270974800Y-64675500D02*
X270974800Y-72675500D01*
X270974800Y-72675500D02*
X262974800Y-72675500D01*
X262974800Y-64675500D02*
X262974800Y-72675500D01*
D11*
X198193300Y-120069340D02*
X198193300Y-121669340D01*
X198193300Y-121669340D02*
X195593300Y-121669340D01*
X198193300Y-120069340D02*
X195593300Y-120069340D01*
X197022360Y-73653380D02*
X197022360Y-75253380D01*
X197022360Y-75253380D02*
X194422360Y-75253380D01*
X197022360Y-73653380D02*
X194422360Y-73653380D01*
X229397200Y-120209040D02*
X229397200Y-121809040D01*
X229397200Y-121809040D02*
X226797200Y-121809040D01*
X229397200Y-120209040D02*
X226797200Y-120209040D01*
X223072600Y-73389220D02*
X223072600Y-74989220D01*
X223072600Y-74989220D02*
X220472600Y-74989220D01*
X223072600Y-73389220D02*
X220472600Y-73389220D01*
X205800000Y-116050000D02*
X209000000Y-116050000D01*
X209000000Y-114550000D02*
X205800000Y-114550000D01*
X209000000Y-114550000D02*
X209000000Y-116050000D01*
X205618680Y-66285440D02*
X208818680Y-66285440D01*
X208818680Y-64785440D02*
X205618680Y-64785440D01*
X208818680Y-64785440D02*
X208818680Y-66285440D01*
X236451740Y-114288900D02*
X239651740Y-114288900D01*
X239651740Y-112788900D02*
X236451740Y-112788900D01*
X239651740Y-112788900D02*
X239651740Y-114288900D01*
X230820560Y-66732480D02*
X234020560Y-66732480D01*
X234020560Y-65232480D02*
X230820560Y-65232480D01*
X234020560Y-65232480D02*
X234020560Y-66732480D01*
X205829500Y-106374260D02*
X209029500Y-106374260D01*
X209029500Y-104874260D02*
X205829500Y-104874260D01*
X209029500Y-104874260D02*
X209029500Y-106374260D01*
X204115000Y-58269200D02*
X207315000Y-58269200D01*
X207315000Y-56769200D02*
X204115000Y-56769200D01*
X207315000Y-56769200D02*
X207315000Y-58269200D01*
X236411100Y-107019420D02*
X239611100Y-107019420D01*
X239611100Y-105519420D02*
X236411100Y-105519420D01*
X239611100Y-105519420D02*
X239611100Y-107019420D01*
X229926480Y-57959320D02*
X233126480Y-57959320D01*
X233126480Y-56459320D02*
X229926480Y-56459320D01*
X233126480Y-56459320D02*
X233126480Y-57959320D01*
X206186320Y-71556400D02*
X207386320Y-71556400D01*
X207386320Y-69796400D02*
X206186320Y-69796400D01*
X245493940Y-112564920D02*
X244293940Y-112564920D01*
X244293940Y-114324920D02*
X245493940Y-114324920D01*
X212750800Y-117042940D02*
X211550800Y-117042940D01*
X211550800Y-118802940D02*
X212750800Y-118802940D01*
X239014400Y-65859400D02*
X237814400Y-65859400D01*
X237814400Y-67619400D02*
X239014400Y-67619400D01*
X206242200Y-76585600D02*
X207442200Y-76585600D01*
X207442200Y-74825600D02*
X206242200Y-74825600D01*
X245603160Y-118206260D02*
X244403160Y-118206260D01*
X244403160Y-119966260D02*
X245603160Y-119966260D01*
X212666980Y-122630940D02*
X211466980Y-122630940D01*
X211466980Y-124390940D02*
X212666980Y-124390940D01*
X239090600Y-71117200D02*
X237890600Y-71117200D01*
X237890600Y-72877200D02*
X239090600Y-72877200D01*
X211500000Y-59070000D02*
X210300000Y-59070000D01*
X210300000Y-60830000D02*
X211500000Y-60830000D01*
X245641260Y-102623360D02*
X244441260Y-102623360D01*
X244441260Y-104383360D02*
X245641260Y-104383360D01*
X241350000Y-56220000D02*
X240150000Y-56220000D01*
X240150000Y-57980000D02*
X241350000Y-57980000D01*
X211350000Y-53945000D02*
X210150000Y-53945000D01*
X210150000Y-55705000D02*
X211350000Y-55705000D01*
X245565060Y-107423960D02*
X244365060Y-107423960D01*
X244365060Y-109183960D02*
X245565060Y-109183960D01*
X214625000Y-107370000D02*
X213425000Y-107370000D01*
X213425000Y-109130000D02*
X214625000Y-109130000D01*
X235175000Y-55355000D02*
X236375000Y-55355000D01*
X236375000Y-53595000D02*
X235175000Y-53595000D01*
X189784720Y-116874480D02*
X189784720Y-115674480D01*
X188024720Y-115674480D02*
X188024720Y-116874480D01*
X221608380Y-109749780D02*
X221608380Y-108549780D01*
X219848380Y-108549780D02*
X219848380Y-109749780D01*
X199061620Y-79910460D02*
X200261620Y-79910460D01*
X200261620Y-78150460D02*
X199061620Y-78150460D01*
X225546200Y-79862200D02*
X226746200Y-79862200D01*
X226746200Y-78102200D02*
X225546200Y-78102200D01*
X214554200Y-102445560D02*
X213354200Y-102445560D01*
X213354200Y-104205560D02*
X214554200Y-104205560D01*
D12*
X277151480Y-107050000D02*
X277151480Y-117250000D01*
X274651480Y-117250000D02*
X277151480Y-117250000D01*
X274651480Y-107050000D02*
X277151480Y-107050000D01*
D13*
X263151480Y-118550000D02*
X274651480Y-118550000D01*
X263151480Y-105750000D02*
X274651480Y-105750000D01*
X263151480Y-105750000D02*
X263151480Y-118550000D01*
X274651480Y-105750000D02*
X274651480Y-118550000D01*
D12*
X277151480Y-80050000D02*
X277151480Y-90250000D01*
X274651480Y-90250000D02*
X277151480Y-90250000D01*
X274651480Y-80050000D02*
X277151480Y-80050000D01*
D13*
X263151480Y-91550000D02*
X274651480Y-91550000D01*
X263151480Y-78750000D02*
X274651480Y-78750000D01*
X263151480Y-78750000D02*
X263151480Y-91550000D01*
X274651480Y-78750000D02*
X274651480Y-91550000D01*
D12*
X277151480Y-93550000D02*
X277151480Y-103750000D01*
X274651480Y-103750000D02*
X277151480Y-103750000D01*
X274651480Y-93550000D02*
X277151480Y-93550000D01*
D13*
X263151480Y-105050000D02*
X274651480Y-105050000D01*
X263151480Y-92250000D02*
X274651480Y-92250000D01*
X263151480Y-92250000D02*
X263151480Y-105050000D01*
X274651480Y-92250000D02*
X274651480Y-105050000D01*
D12*
X184208095Y-112792381D02*
X184208095Y-111792381D01*
X183827142Y-111792381D01*
X183731904Y-111840000D01*
X183684285Y-111887619D01*
X183636666Y-111982857D01*
X183636666Y-112125714D01*
X183684285Y-112220952D01*
X183731904Y-112268571D01*
X183827142Y-112316190D01*
X184208095Y-112316190D01*
X183255714Y-111887619D02*
X183208095Y-111840000D01*
X183112857Y-111792381D01*
X182874761Y-111792381D01*
X182779523Y-111840000D01*
X182731904Y-111887619D01*
X182684285Y-111982857D01*
X182684285Y-112078095D01*
X182731904Y-112220952D01*
X183303333Y-112792381D01*
X182684285Y-112792381D01*
X180173333Y-129002381D02*
X180173333Y-129716667D01*
X180220953Y-129859524D01*
X180316191Y-129954762D01*
X180459048Y-130002381D01*
X180554286Y-130002381D01*
X179792381Y-129002381D02*
X179125714Y-129002381D01*
X179554286Y-130002381D01*
D14*
X258826909Y-125142000D02*
X259915480Y-125142000D01*
X260133194Y-125069428D01*
X260278337Y-124924285D01*
X260350909Y-124706571D01*
X260350909Y-124561428D01*
X260350909Y-126666000D02*
X260350909Y-125795143D01*
X260350909Y-126230571D02*
X258826909Y-126230571D01*
X259044623Y-126085428D01*
X259189766Y-125940286D01*
X259262337Y-125795143D01*
X271850909Y-124089714D02*
X271125194Y-123581714D01*
X271850909Y-123218857D02*
X270326909Y-123218857D01*
X270326909Y-123799429D01*
X270399480Y-123944571D01*
X270472051Y-124017143D01*
X270617194Y-124089714D01*
X270834909Y-124089714D01*
X270980051Y-124017143D01*
X271052623Y-123944571D01*
X271125194Y-123799429D01*
X271125194Y-123218857D01*
X270326909Y-125178286D02*
X271415480Y-125178286D01*
X271633194Y-125105714D01*
X271778337Y-124960571D01*
X271850909Y-124742857D01*
X271850909Y-124597714D01*
X271850909Y-126702286D02*
X271850909Y-125831429D01*
X271850909Y-126266857D02*
X270326909Y-126266857D01*
X270544623Y-126121714D01*
X270689766Y-125976572D01*
X270762337Y-125831429D01*
X271850909Y-128153715D02*
X271850909Y-127282858D01*
X271850909Y-127718286D02*
X270326909Y-127718286D01*
X270544623Y-127573143D01*
X270689766Y-127428001D01*
X270762337Y-127282858D01*
D12*
X184582581Y-50076167D02*
X185296867Y-50076167D01*
X185439724Y-50028547D01*
X185534962Y-49933309D01*
X185582581Y-49790452D01*
X185582581Y-49695214D01*
X184582581Y-50980929D02*
X184582581Y-50790452D01*
X184630200Y-50695214D01*
X184677819Y-50647595D01*
X184820676Y-50552357D01*
X185011152Y-50504738D01*
X185392105Y-50504738D01*
X185487343Y-50552357D01*
X185534962Y-50599976D01*
X185582581Y-50695214D01*
X185582581Y-50885691D01*
X185534962Y-50980929D01*
X185487343Y-51028548D01*
X185392105Y-51076167D01*
X185154010Y-51076167D01*
X185058771Y-51028548D01*
X185011152Y-50980929D01*
X184963533Y-50885691D01*
X184963533Y-50695214D01*
X185011152Y-50599976D01*
X185058771Y-50552357D01*
X185154010Y-50504738D01*
X195449018Y-114586259D02*
X195544256Y-114538640D01*
X195639494Y-114443402D01*
X195782351Y-114300545D01*
X195877590Y-114252926D01*
X195972828Y-114252926D01*
X195925209Y-114491021D02*
X196020447Y-114443402D01*
X196115685Y-114348164D01*
X196163304Y-114157688D01*
X196163304Y-113824354D01*
X196115685Y-113633878D01*
X196020447Y-113538640D01*
X195925209Y-113491021D01*
X195734732Y-113491021D01*
X195639494Y-113538640D01*
X195544256Y-113633878D01*
X195496637Y-113824354D01*
X195496637Y-114157688D01*
X195544256Y-114348164D01*
X195639494Y-114443402D01*
X195734732Y-114491021D01*
X195925209Y-114491021D01*
X194544256Y-114491021D02*
X195115685Y-114491021D01*
X194829971Y-114491021D02*
X194829971Y-113491021D01*
X194925209Y-113633878D01*
X195020447Y-113729116D01*
X195115685Y-113776735D01*
X193020000Y-115010000D02*
X193053333Y-115110000D01*
X193086667Y-115143333D01*
X193153333Y-115176667D01*
X193253333Y-115176667D01*
X193320000Y-115143333D01*
X193353333Y-115110000D01*
X193386667Y-115043333D01*
X193386667Y-114776667D01*
X192686667Y-114776667D01*
X192686667Y-115010000D01*
X192720000Y-115076667D01*
X192753333Y-115110000D01*
X192820000Y-115143333D01*
X192886667Y-115143333D01*
X192953333Y-115110000D01*
X192986667Y-115076667D01*
X193020000Y-115010000D01*
X193020000Y-114776667D01*
X193320000Y-115876667D02*
X193353333Y-115843333D01*
X193386667Y-115743333D01*
X193386667Y-115676667D01*
X193353333Y-115576667D01*
X193286667Y-115510000D01*
X193220000Y-115476667D01*
X193086667Y-115443333D01*
X192986667Y-115443333D01*
X192853333Y-115476667D01*
X192786667Y-115510000D01*
X192720000Y-115576667D01*
X192686667Y-115676667D01*
X192686667Y-115743333D01*
X192720000Y-115843333D01*
X192753333Y-115876667D01*
X192986667Y-116276667D02*
X192953333Y-116210000D01*
X192920000Y-116176667D01*
X192853333Y-116143333D01*
X192820000Y-116143333D01*
X192753333Y-116176667D01*
X192720000Y-116210000D01*
X192686667Y-116276667D01*
X192686667Y-116410000D01*
X192720000Y-116476667D01*
X192753333Y-116510000D01*
X192820000Y-116543333D01*
X192853333Y-116543333D01*
X192920000Y-116510000D01*
X192953333Y-116476667D01*
X192986667Y-116410000D01*
X192986667Y-116276667D01*
X193020000Y-116210000D01*
X193053333Y-116176667D01*
X193120000Y-116143333D01*
X193253333Y-116143333D01*
X193320000Y-116176667D01*
X193353333Y-116210000D01*
X193386667Y-116276667D01*
X193386667Y-116410000D01*
X193353333Y-116476667D01*
X193320000Y-116510000D01*
X193253333Y-116543333D01*
X193120000Y-116543333D01*
X193053333Y-116510000D01*
X193020000Y-116476667D01*
X192986667Y-116410000D01*
X193386667Y-117210000D02*
X193386667Y-116810000D01*
X193386667Y-117010000D02*
X192686667Y-117010000D01*
X192786667Y-116943334D01*
X192853333Y-116876667D01*
X192886667Y-116810000D01*
X192686667Y-117443334D02*
X192686667Y-117910001D01*
X193386667Y-117610001D01*
X226155238Y-115437619D02*
X226250476Y-115390000D01*
X226345714Y-115294762D01*
X226488571Y-115151905D01*
X226583810Y-115104286D01*
X226679048Y-115104286D01*
X226631429Y-115342381D02*
X226726667Y-115294762D01*
X226821905Y-115199524D01*
X226869524Y-115009048D01*
X226869524Y-114675714D01*
X226821905Y-114485238D01*
X226726667Y-114390000D01*
X226631429Y-114342381D01*
X226440952Y-114342381D01*
X226345714Y-114390000D01*
X226250476Y-114485238D01*
X226202857Y-114675714D01*
X226202857Y-115009048D01*
X226250476Y-115199524D01*
X226345714Y-115294762D01*
X226440952Y-115342381D01*
X226631429Y-115342381D01*
X225869524Y-114342381D02*
X225250476Y-114342381D01*
X225583810Y-114723333D01*
X225440952Y-114723333D01*
X225345714Y-114770952D01*
X225298095Y-114818571D01*
X225250476Y-114913810D01*
X225250476Y-115151905D01*
X225298095Y-115247143D01*
X225345714Y-115294762D01*
X225440952Y-115342381D01*
X225726667Y-115342381D01*
X225821905Y-115294762D01*
X225869524Y-115247143D01*
X223810000Y-116020000D02*
X223843333Y-116120000D01*
X223876667Y-116153333D01*
X223943333Y-116186667D01*
X224043333Y-116186667D01*
X224110000Y-116153333D01*
X224143333Y-116120000D01*
X224176667Y-116053333D01*
X224176667Y-115786667D01*
X223476667Y-115786667D01*
X223476667Y-116020000D01*
X223510000Y-116086667D01*
X223543333Y-116120000D01*
X223610000Y-116153333D01*
X223676667Y-116153333D01*
X223743333Y-116120000D01*
X223776667Y-116086667D01*
X223810000Y-116020000D01*
X223810000Y-115786667D01*
X224110000Y-116886667D02*
X224143333Y-116853333D01*
X224176667Y-116753333D01*
X224176667Y-116686667D01*
X224143333Y-116586667D01*
X224076667Y-116520000D01*
X224010000Y-116486667D01*
X223876667Y-116453333D01*
X223776667Y-116453333D01*
X223643333Y-116486667D01*
X223576667Y-116520000D01*
X223510000Y-116586667D01*
X223476667Y-116686667D01*
X223476667Y-116753333D01*
X223510000Y-116853333D01*
X223543333Y-116886667D01*
X223776667Y-117286667D02*
X223743333Y-117220000D01*
X223710000Y-117186667D01*
X223643333Y-117153333D01*
X223610000Y-117153333D01*
X223543333Y-117186667D01*
X223510000Y-117220000D01*
X223476667Y-117286667D01*
X223476667Y-117420000D01*
X223510000Y-117486667D01*
X223543333Y-117520000D01*
X223610000Y-117553333D01*
X223643333Y-117553333D01*
X223710000Y-117520000D01*
X223743333Y-117486667D01*
X223776667Y-117420000D01*
X223776667Y-117286667D01*
X223810000Y-117220000D01*
X223843333Y-117186667D01*
X223910000Y-117153333D01*
X224043333Y-117153333D01*
X224110000Y-117186667D01*
X224143333Y-117220000D01*
X224176667Y-117286667D01*
X224176667Y-117420000D01*
X224143333Y-117486667D01*
X224110000Y-117520000D01*
X224043333Y-117553333D01*
X223910000Y-117553333D01*
X223843333Y-117520000D01*
X223810000Y-117486667D01*
X223776667Y-117420000D01*
X224176667Y-118220000D02*
X224176667Y-117820000D01*
X224176667Y-118020000D02*
X223476667Y-118020000D01*
X223576667Y-117953334D01*
X223643333Y-117886667D01*
X223676667Y-117820000D01*
X223476667Y-118453334D02*
X223476667Y-118920001D01*
X224176667Y-118620001D01*
X195604859Y-78678682D02*
X195557240Y-78583444D01*
X195462002Y-78488206D01*
X195319145Y-78345349D01*
X195271526Y-78250110D01*
X195271526Y-78154872D01*
X195509621Y-78202491D02*
X195462002Y-78107253D01*
X195366764Y-78012015D01*
X195176288Y-77964396D01*
X194842954Y-77964396D01*
X194652478Y-78012015D01*
X194557240Y-78107253D01*
X194509621Y-78202491D01*
X194509621Y-78392968D01*
X194557240Y-78488206D01*
X194652478Y-78583444D01*
X194842954Y-78631063D01*
X195176288Y-78631063D01*
X195366764Y-78583444D01*
X195462002Y-78488206D01*
X195509621Y-78392968D01*
X195509621Y-78202491D01*
X194604859Y-79012015D02*
X194557240Y-79059634D01*
X194509621Y-79154872D01*
X194509621Y-79392968D01*
X194557240Y-79488206D01*
X194604859Y-79535825D01*
X194700097Y-79583444D01*
X194795335Y-79583444D01*
X194938192Y-79535825D01*
X195509621Y-78964396D01*
X195509621Y-79583444D01*
X189985811Y-76916778D02*
X190033430Y-77059635D01*
X190081050Y-77107254D01*
X190176288Y-77154873D01*
X190319145Y-77154873D01*
X190414383Y-77107254D01*
X190462002Y-77059635D01*
X190509621Y-76964397D01*
X190509621Y-76583444D01*
X189509621Y-76583444D01*
X189509621Y-76916778D01*
X189557240Y-77012016D01*
X189604859Y-77059635D01*
X189700097Y-77107254D01*
X189795335Y-77107254D01*
X189890573Y-77059635D01*
X189938192Y-77012016D01*
X189985811Y-76916778D01*
X189985811Y-76583444D01*
X190414383Y-78154873D02*
X190462002Y-78107254D01*
X190509621Y-77964397D01*
X190509621Y-77869159D01*
X190462002Y-77726301D01*
X190366764Y-77631063D01*
X190271526Y-77583444D01*
X190081050Y-77535825D01*
X189938192Y-77535825D01*
X189747716Y-77583444D01*
X189652478Y-77631063D01*
X189557240Y-77726301D01*
X189509621Y-77869159D01*
X189509621Y-77964397D01*
X189557240Y-78107254D01*
X189604859Y-78154873D01*
X189938192Y-78726301D02*
X189890573Y-78631063D01*
X189842954Y-78583444D01*
X189747716Y-78535825D01*
X189700097Y-78535825D01*
X189604859Y-78583444D01*
X189557240Y-78631063D01*
X189509621Y-78726301D01*
X189509621Y-78916778D01*
X189557240Y-79012016D01*
X189604859Y-79059635D01*
X189700097Y-79107254D01*
X189747716Y-79107254D01*
X189842954Y-79059635D01*
X189890573Y-79012016D01*
X189938192Y-78916778D01*
X189938192Y-78726301D01*
X189985811Y-78631063D01*
X190033430Y-78583444D01*
X190128669Y-78535825D01*
X190319145Y-78535825D01*
X190414383Y-78583444D01*
X190462002Y-78631063D01*
X190509621Y-78726301D01*
X190509621Y-78916778D01*
X190462002Y-79012016D01*
X190414383Y-79059635D01*
X190319145Y-79107254D01*
X190128669Y-79107254D01*
X190033430Y-79059635D01*
X189985811Y-79012016D01*
X189938192Y-78916778D01*
X190509621Y-80059635D02*
X190509621Y-79488206D01*
X190509621Y-79773920D02*
X189509621Y-79773920D01*
X189652478Y-79678682D01*
X189747716Y-79583444D01*
X189795335Y-79488206D01*
X189509621Y-80392968D02*
X189509621Y-81059635D01*
X190509621Y-80631063D01*
X221835439Y-78295142D02*
X221787820Y-78199904D01*
X221692582Y-78104666D01*
X221549725Y-77961809D01*
X221502106Y-77866570D01*
X221502106Y-77771332D01*
X221740201Y-77818951D02*
X221692582Y-77723713D01*
X221597344Y-77628475D01*
X221406868Y-77580856D01*
X221073534Y-77580856D01*
X220883058Y-77628475D01*
X220787820Y-77723713D01*
X220740201Y-77818951D01*
X220740201Y-78009428D01*
X220787820Y-78104666D01*
X220883058Y-78199904D01*
X221073534Y-78247523D01*
X221406868Y-78247523D01*
X221597344Y-78199904D01*
X221692582Y-78104666D01*
X221740201Y-78009428D01*
X221740201Y-77818951D01*
X221073534Y-79104666D02*
X221740201Y-79104666D01*
X220692582Y-78866570D02*
X221406868Y-78628475D01*
X221406868Y-79247523D01*
D10*
X253548147Y-54135907D02*
X254048147Y-54135907D01*
X254148147Y-54102573D01*
X254214813Y-54035907D01*
X254248147Y-53935907D01*
X254248147Y-53869240D01*
X253548147Y-54802573D02*
X253548147Y-54469240D01*
X253881480Y-54435906D01*
X253848147Y-54469240D01*
X253814813Y-54535906D01*
X253814813Y-54702573D01*
X253848147Y-54769240D01*
X253881480Y-54802573D01*
X253948147Y-54835906D01*
X254114813Y-54835906D01*
X254181480Y-54802573D01*
X254214813Y-54769240D01*
X254248147Y-54702573D01*
X254248147Y-54535906D01*
X254214813Y-54469240D01*
X254181480Y-54435906D01*
X254258147Y-50242574D02*
X253924813Y-50009240D01*
X254258147Y-49842574D02*
X253558147Y-49842574D01*
X253558147Y-50109240D01*
X253591480Y-50175907D01*
X253624813Y-50209240D01*
X253691480Y-50242574D01*
X253791480Y-50242574D01*
X253858147Y-50209240D01*
X253891480Y-50175907D01*
X253924813Y-50109240D01*
X253924813Y-49842574D01*
X253558147Y-50742574D02*
X254058147Y-50742574D01*
X254158147Y-50709240D01*
X254224813Y-50642574D01*
X254258147Y-50542574D01*
X254258147Y-50475907D01*
X253624813Y-51042573D02*
X253591480Y-51075907D01*
X253558147Y-51142573D01*
X253558147Y-51309240D01*
X253591480Y-51375907D01*
X253624813Y-51409240D01*
X253691480Y-51442573D01*
X253758147Y-51442573D01*
X253858147Y-51409240D01*
X254258147Y-51009240D01*
X254258147Y-51442573D01*
X253558147Y-52075907D02*
X253558147Y-51742574D01*
X253891480Y-51709240D01*
X253858147Y-51742574D01*
X253824813Y-51809240D01*
X253824813Y-51975907D01*
X253858147Y-52042574D01*
X253891480Y-52075907D01*
X253958147Y-52109240D01*
X254124813Y-52109240D01*
X254191480Y-52075907D01*
X254224813Y-52042574D01*
X254258147Y-51975907D01*
X254258147Y-51809240D01*
X254224813Y-51742574D01*
X254191480Y-51709240D01*
D12*
X276071466Y-74492643D02*
X276119085Y-74540262D01*
X276261942Y-74587881D01*
X276357180Y-74587881D01*
X276500038Y-74540262D01*
X276595276Y-74445024D01*
X276642895Y-74349786D01*
X276690514Y-74159310D01*
X276690514Y-74016452D01*
X276642895Y-73825976D01*
X276595276Y-73730738D01*
X276500038Y-73635500D01*
X276357180Y-73587881D01*
X276261942Y-73587881D01*
X276119085Y-73635500D01*
X276071466Y-73683119D01*
X275119085Y-74587881D02*
X275690514Y-74587881D01*
X275404800Y-74587881D02*
X275404800Y-73587881D01*
X275500038Y-73730738D01*
X275595276Y-73825976D01*
X275690514Y-73873595D01*
X199028095Y-119782381D02*
X199028095Y-118782381D01*
X198790000Y-118782381D01*
X198647142Y-118830000D01*
X198551904Y-118925238D01*
X198504285Y-119020476D01*
X198456666Y-119210952D01*
X198456666Y-119353810D01*
X198504285Y-119544286D01*
X198551904Y-119639524D01*
X198647142Y-119734762D01*
X198790000Y-119782381D01*
X199028095Y-119782381D01*
X197504285Y-119782381D02*
X198075714Y-119782381D01*
X197790000Y-119782381D02*
X197790000Y-118782381D01*
X197885238Y-118925238D01*
X197980476Y-119020476D01*
X198075714Y-119068095D01*
X199028095Y-119792381D02*
X199028095Y-118792381D01*
X198790000Y-118792381D01*
X198647142Y-118840000D01*
X198551904Y-118935238D01*
X198504285Y-119030476D01*
X198456666Y-119220952D01*
X198456666Y-119363810D01*
X198504285Y-119554286D01*
X198551904Y-119649524D01*
X198647142Y-119744762D01*
X198790000Y-119792381D01*
X199028095Y-119792381D01*
X197504285Y-119792381D02*
X198075714Y-119792381D01*
X197790000Y-119792381D02*
X197790000Y-118792381D01*
X197885238Y-118935238D01*
X197980476Y-119030476D01*
X198075714Y-119078095D01*
X196160455Y-73305761D02*
X196160455Y-72305761D01*
X195922360Y-72305761D01*
X195779502Y-72353380D01*
X195684264Y-72448618D01*
X195636645Y-72543856D01*
X195589026Y-72734332D01*
X195589026Y-72877190D01*
X195636645Y-73067666D01*
X195684264Y-73162904D01*
X195779502Y-73258142D01*
X195922360Y-73305761D01*
X196160455Y-73305761D01*
X195208074Y-72400999D02*
X195160455Y-72353380D01*
X195065217Y-72305761D01*
X194827121Y-72305761D01*
X194731883Y-72353380D01*
X194684264Y-72400999D01*
X194636645Y-72496237D01*
X194636645Y-72591475D01*
X194684264Y-72734332D01*
X195255693Y-73305761D01*
X194636645Y-73305761D01*
X228535295Y-119861421D02*
X228535295Y-118861421D01*
X228297200Y-118861421D01*
X228154342Y-118909040D01*
X228059104Y-119004278D01*
X228011485Y-119099516D01*
X227963866Y-119289992D01*
X227963866Y-119432850D01*
X228011485Y-119623326D01*
X228059104Y-119718564D01*
X228154342Y-119813802D01*
X228297200Y-119861421D01*
X228535295Y-119861421D01*
X227630533Y-118861421D02*
X227011485Y-118861421D01*
X227344819Y-119242373D01*
X227201961Y-119242373D01*
X227106723Y-119289992D01*
X227059104Y-119337611D01*
X227011485Y-119432850D01*
X227011485Y-119670945D01*
X227059104Y-119766183D01*
X227106723Y-119813802D01*
X227201961Y-119861421D01*
X227487676Y-119861421D01*
X227582914Y-119813802D01*
X227630533Y-119766183D01*
X222210695Y-73041601D02*
X222210695Y-72041601D01*
X221972600Y-72041601D01*
X221829742Y-72089220D01*
X221734504Y-72184458D01*
X221686885Y-72279696D01*
X221639266Y-72470172D01*
X221639266Y-72613030D01*
X221686885Y-72803506D01*
X221734504Y-72898744D01*
X221829742Y-72993982D01*
X221972600Y-73041601D01*
X222210695Y-73041601D01*
X220782123Y-72374934D02*
X220782123Y-73041601D01*
X221020219Y-71993982D02*
X221258314Y-72708268D01*
X220639266Y-72708268D01*
X207538095Y-114052381D02*
X207538095Y-113052381D01*
X207300000Y-113052381D01*
X207157142Y-113100000D01*
X207061904Y-113195238D01*
X207014285Y-113290476D01*
X206966666Y-113480952D01*
X206966666Y-113623810D01*
X207014285Y-113814286D01*
X207061904Y-113909524D01*
X207157142Y-114004762D01*
X207300000Y-114052381D01*
X207538095Y-114052381D01*
X206395238Y-113480952D02*
X206490476Y-113433333D01*
X206538095Y-113385714D01*
X206585714Y-113290476D01*
X206585714Y-113242857D01*
X206538095Y-113147619D01*
X206490476Y-113100000D01*
X206395238Y-113052381D01*
X206204761Y-113052381D01*
X206109523Y-113100000D01*
X206061904Y-113147619D01*
X206014285Y-113242857D01*
X206014285Y-113290476D01*
X206061904Y-113385714D01*
X206109523Y-113433333D01*
X206204761Y-113480952D01*
X206395238Y-113480952D01*
X206490476Y-113528571D01*
X206538095Y-113576190D01*
X206585714Y-113671429D01*
X206585714Y-113861905D01*
X206538095Y-113957143D01*
X206490476Y-114004762D01*
X206395238Y-114052381D01*
X206204761Y-114052381D01*
X206109523Y-114004762D01*
X206061904Y-113957143D01*
X206014285Y-113861905D01*
X206014285Y-113671429D01*
X206061904Y-113576190D01*
X206109523Y-113528571D01*
X206204761Y-113480952D01*
X209895238Y-117502381D02*
X210371429Y-117502381D01*
X210371429Y-116502381D01*
X209561905Y-116978571D02*
X209228571Y-116978571D01*
X209085714Y-117502381D02*
X209561905Y-117502381D01*
X209561905Y-116502381D01*
X209085714Y-116502381D01*
X208657143Y-117502381D02*
X208657143Y-116502381D01*
X208419048Y-116502381D01*
X208276190Y-116550000D01*
X208180952Y-116645238D01*
X208133333Y-116740476D01*
X208085714Y-116930952D01*
X208085714Y-117073810D01*
X208133333Y-117264286D01*
X208180952Y-117359524D01*
X208276190Y-117454762D01*
X208419048Y-117502381D01*
X208657143Y-117502381D01*
X206466666Y-116835714D02*
X206466666Y-117645238D01*
X206514285Y-117740476D01*
X206561904Y-117788095D01*
X206657143Y-117835714D01*
X206800000Y-117835714D01*
X206895238Y-117788095D01*
X206466666Y-117454762D02*
X206561904Y-117502381D01*
X206752381Y-117502381D01*
X206847619Y-117454762D01*
X206895238Y-117407143D01*
X206942857Y-117311905D01*
X206942857Y-117026190D01*
X206895238Y-116930952D01*
X206847619Y-116883333D01*
X206752381Y-116835714D01*
X206561904Y-116835714D01*
X206466666Y-116883333D01*
X205990476Y-117502381D02*
X205990476Y-116835714D01*
X205990476Y-117026190D02*
X205942857Y-116930952D01*
X205895238Y-116883333D01*
X205800000Y-116835714D01*
X205704761Y-116835714D01*
X204990475Y-117454762D02*
X205085713Y-117502381D01*
X205276190Y-117502381D01*
X205371428Y-117454762D01*
X205419047Y-117359524D01*
X205419047Y-116978571D01*
X205371428Y-116883333D01*
X205276190Y-116835714D01*
X205085713Y-116835714D01*
X204990475Y-116883333D01*
X204942856Y-116978571D01*
X204942856Y-117073810D01*
X205419047Y-117169048D01*
X204133332Y-117454762D02*
X204228570Y-117502381D01*
X204419047Y-117502381D01*
X204514285Y-117454762D01*
X204561904Y-117359524D01*
X204561904Y-116978571D01*
X204514285Y-116883333D01*
X204419047Y-116835714D01*
X204228570Y-116835714D01*
X204133332Y-116883333D01*
X204085713Y-116978571D01*
X204085713Y-117073810D01*
X204561904Y-117169048D01*
X203657142Y-116835714D02*
X203657142Y-117502381D01*
X203657142Y-116930952D02*
X203609523Y-116883333D01*
X203514285Y-116835714D01*
X203371427Y-116835714D01*
X203276189Y-116883333D01*
X203228570Y-116978571D01*
X203228570Y-117502381D01*
X207356775Y-64287821D02*
X207356775Y-63287821D01*
X207118680Y-63287821D01*
X206975822Y-63335440D01*
X206880584Y-63430678D01*
X206832965Y-63525916D01*
X206785346Y-63716392D01*
X206785346Y-63859250D01*
X206832965Y-64049726D01*
X206880584Y-64144964D01*
X206975822Y-64240202D01*
X207118680Y-64287821D01*
X207356775Y-64287821D01*
X205880584Y-63287821D02*
X206356775Y-63287821D01*
X206404394Y-63764011D01*
X206356775Y-63716392D01*
X206261537Y-63668773D01*
X206023441Y-63668773D01*
X205928203Y-63716392D01*
X205880584Y-63764011D01*
X205832965Y-63859250D01*
X205832965Y-64097345D01*
X205880584Y-64192583D01*
X205928203Y-64240202D01*
X206023441Y-64287821D01*
X206261537Y-64287821D01*
X206356775Y-64240202D01*
X206404394Y-64192583D01*
X209713918Y-67737821D02*
X210190109Y-67737821D01*
X210190109Y-66737821D01*
X209380585Y-67214011D02*
X209047251Y-67214011D01*
X208904394Y-67737821D02*
X209380585Y-67737821D01*
X209380585Y-66737821D01*
X208904394Y-66737821D01*
X208475823Y-67737821D02*
X208475823Y-66737821D01*
X208237728Y-66737821D01*
X208094870Y-66785440D01*
X207999632Y-66880678D01*
X207952013Y-66975916D01*
X207904394Y-67166392D01*
X207904394Y-67309250D01*
X207952013Y-67499726D01*
X207999632Y-67594964D01*
X208094870Y-67690202D01*
X208237728Y-67737821D01*
X208475823Y-67737821D01*
X206285346Y-67071154D02*
X206285346Y-67880678D01*
X206332965Y-67975916D01*
X206380584Y-68023535D01*
X206475823Y-68071154D01*
X206618680Y-68071154D01*
X206713918Y-68023535D01*
X206285346Y-67690202D02*
X206380584Y-67737821D01*
X206571061Y-67737821D01*
X206666299Y-67690202D01*
X206713918Y-67642583D01*
X206761537Y-67547345D01*
X206761537Y-67261630D01*
X206713918Y-67166392D01*
X206666299Y-67118773D01*
X206571061Y-67071154D01*
X206380584Y-67071154D01*
X206285346Y-67118773D01*
X205809156Y-67737821D02*
X205809156Y-67071154D01*
X205809156Y-67261630D02*
X205761537Y-67166392D01*
X205713918Y-67118773D01*
X205618680Y-67071154D01*
X205523441Y-67071154D01*
X204809155Y-67690202D02*
X204904393Y-67737821D01*
X205094870Y-67737821D01*
X205190108Y-67690202D01*
X205237727Y-67594964D01*
X205237727Y-67214011D01*
X205190108Y-67118773D01*
X205094870Y-67071154D01*
X204904393Y-67071154D01*
X204809155Y-67118773D01*
X204761536Y-67214011D01*
X204761536Y-67309250D01*
X205237727Y-67404488D01*
X203952012Y-67690202D02*
X204047250Y-67737821D01*
X204237727Y-67737821D01*
X204332965Y-67690202D01*
X204380584Y-67594964D01*
X204380584Y-67214011D01*
X204332965Y-67118773D01*
X204237727Y-67071154D01*
X204047250Y-67071154D01*
X203952012Y-67118773D01*
X203904393Y-67214011D01*
X203904393Y-67309250D01*
X204380584Y-67404488D01*
X203475822Y-67071154D02*
X203475822Y-67737821D01*
X203475822Y-67166392D02*
X203428203Y-67118773D01*
X203332965Y-67071154D01*
X203190107Y-67071154D01*
X203094869Y-67118773D01*
X203047250Y-67214011D01*
X203047250Y-67737821D01*
X238189835Y-112291281D02*
X238189835Y-111291281D01*
X237951740Y-111291281D01*
X237808882Y-111338900D01*
X237713644Y-111434138D01*
X237666025Y-111529376D01*
X237618406Y-111719852D01*
X237618406Y-111862710D01*
X237666025Y-112053186D01*
X237713644Y-112148424D01*
X237808882Y-112243662D01*
X237951740Y-112291281D01*
X238189835Y-112291281D01*
X236761263Y-111291281D02*
X236951740Y-111291281D01*
X237046978Y-111338900D01*
X237094597Y-111386519D01*
X237189835Y-111529376D01*
X237237454Y-111719852D01*
X237237454Y-112100805D01*
X237189835Y-112196043D01*
X237142216Y-112243662D01*
X237046978Y-112291281D01*
X236856501Y-112291281D01*
X236761263Y-112243662D01*
X236713644Y-112196043D01*
X236666025Y-112100805D01*
X236666025Y-111862710D01*
X236713644Y-111767471D01*
X236761263Y-111719852D01*
X236856501Y-111672233D01*
X237046978Y-111672233D01*
X237142216Y-111719852D01*
X237189835Y-111767471D01*
X237237454Y-111862710D01*
X240546978Y-115741281D02*
X241023169Y-115741281D01*
X241023169Y-114741281D01*
X240213645Y-115217471D02*
X239880311Y-115217471D01*
X239737454Y-115741281D02*
X240213645Y-115741281D01*
X240213645Y-114741281D01*
X239737454Y-114741281D01*
X239308883Y-115741281D02*
X239308883Y-114741281D01*
X239070788Y-114741281D01*
X238927930Y-114788900D01*
X238832692Y-114884138D01*
X238785073Y-114979376D01*
X238737454Y-115169852D01*
X238737454Y-115312710D01*
X238785073Y-115503186D01*
X238832692Y-115598424D01*
X238927930Y-115693662D01*
X239070788Y-115741281D01*
X239308883Y-115741281D01*
X237118406Y-115074614D02*
X237118406Y-115884138D01*
X237166025Y-115979376D01*
X237213644Y-116026995D01*
X237308883Y-116074614D01*
X237451740Y-116074614D01*
X237546978Y-116026995D01*
X237118406Y-115693662D02*
X237213644Y-115741281D01*
X237404121Y-115741281D01*
X237499359Y-115693662D01*
X237546978Y-115646043D01*
X237594597Y-115550805D01*
X237594597Y-115265090D01*
X237546978Y-115169852D01*
X237499359Y-115122233D01*
X237404121Y-115074614D01*
X237213644Y-115074614D01*
X237118406Y-115122233D01*
X236642216Y-115741281D02*
X236642216Y-115074614D01*
X236642216Y-115265090D02*
X236594597Y-115169852D01*
X236546978Y-115122233D01*
X236451740Y-115074614D01*
X236356501Y-115074614D01*
X235642215Y-115693662D02*
X235737453Y-115741281D01*
X235927930Y-115741281D01*
X236023168Y-115693662D01*
X236070787Y-115598424D01*
X236070787Y-115217471D01*
X236023168Y-115122233D01*
X235927930Y-115074614D01*
X235737453Y-115074614D01*
X235642215Y-115122233D01*
X235594596Y-115217471D01*
X235594596Y-115312710D01*
X236070787Y-115407948D01*
X234785072Y-115693662D02*
X234880310Y-115741281D01*
X235070787Y-115741281D01*
X235166025Y-115693662D01*
X235213644Y-115598424D01*
X235213644Y-115217471D01*
X235166025Y-115122233D01*
X235070787Y-115074614D01*
X234880310Y-115074614D01*
X234785072Y-115122233D01*
X234737453Y-115217471D01*
X234737453Y-115312710D01*
X235213644Y-115407948D01*
X234308882Y-115074614D02*
X234308882Y-115741281D01*
X234308882Y-115169852D02*
X234261263Y-115122233D01*
X234166025Y-115074614D01*
X234023167Y-115074614D01*
X233927929Y-115122233D01*
X233880310Y-115217471D01*
X233880310Y-115741281D01*
X232558655Y-64734861D02*
X232558655Y-63734861D01*
X232320560Y-63734861D01*
X232177702Y-63782480D01*
X232082464Y-63877718D01*
X232034845Y-63972956D01*
X231987226Y-64163432D01*
X231987226Y-64306290D01*
X232034845Y-64496766D01*
X232082464Y-64592004D01*
X232177702Y-64687242D01*
X232320560Y-64734861D01*
X232558655Y-64734861D01*
X231653893Y-63734861D02*
X230987226Y-63734861D01*
X231415798Y-64734861D01*
X234915798Y-68184861D02*
X235391989Y-68184861D01*
X235391989Y-67184861D01*
X234582465Y-67661051D02*
X234249131Y-67661051D01*
X234106274Y-68184861D02*
X234582465Y-68184861D01*
X234582465Y-67184861D01*
X234106274Y-67184861D01*
X233677703Y-68184861D02*
X233677703Y-67184861D01*
X233439608Y-67184861D01*
X233296750Y-67232480D01*
X233201512Y-67327718D01*
X233153893Y-67422956D01*
X233106274Y-67613432D01*
X233106274Y-67756290D01*
X233153893Y-67946766D01*
X233201512Y-68042004D01*
X233296750Y-68137242D01*
X233439608Y-68184861D01*
X233677703Y-68184861D01*
X231487226Y-67518194D02*
X231487226Y-68327718D01*
X231534845Y-68422956D01*
X231582464Y-68470575D01*
X231677703Y-68518194D01*
X231820560Y-68518194D01*
X231915798Y-68470575D01*
X231487226Y-68137242D02*
X231582464Y-68184861D01*
X231772941Y-68184861D01*
X231868179Y-68137242D01*
X231915798Y-68089623D01*
X231963417Y-67994385D01*
X231963417Y-67708670D01*
X231915798Y-67613432D01*
X231868179Y-67565813D01*
X231772941Y-67518194D01*
X231582464Y-67518194D01*
X231487226Y-67565813D01*
X231011036Y-68184861D02*
X231011036Y-67518194D01*
X231011036Y-67708670D02*
X230963417Y-67613432D01*
X230915798Y-67565813D01*
X230820560Y-67518194D01*
X230725321Y-67518194D01*
X230011035Y-68137242D02*
X230106273Y-68184861D01*
X230296750Y-68184861D01*
X230391988Y-68137242D01*
X230439607Y-68042004D01*
X230439607Y-67661051D01*
X230391988Y-67565813D01*
X230296750Y-67518194D01*
X230106273Y-67518194D01*
X230011035Y-67565813D01*
X229963416Y-67661051D01*
X229963416Y-67756290D01*
X230439607Y-67851528D01*
X229153892Y-68137242D02*
X229249130Y-68184861D01*
X229439607Y-68184861D01*
X229534845Y-68137242D01*
X229582464Y-68042004D01*
X229582464Y-67661051D01*
X229534845Y-67565813D01*
X229439607Y-67518194D01*
X229249130Y-67518194D01*
X229153892Y-67565813D01*
X229106273Y-67661051D01*
X229106273Y-67756290D01*
X229582464Y-67851528D01*
X228677702Y-67518194D02*
X228677702Y-68184861D01*
X228677702Y-67613432D02*
X228630083Y-67565813D01*
X228534845Y-67518194D01*
X228391987Y-67518194D01*
X228296749Y-67565813D01*
X228249130Y-67661051D01*
X228249130Y-68184861D01*
X208043786Y-104376641D02*
X208043786Y-103376641D01*
X207805691Y-103376641D01*
X207662833Y-103424260D01*
X207567595Y-103519498D01*
X207519976Y-103614736D01*
X207472357Y-103805212D01*
X207472357Y-103948070D01*
X207519976Y-104138546D01*
X207567595Y-104233784D01*
X207662833Y-104329022D01*
X207805691Y-104376641D01*
X208043786Y-104376641D01*
X206519976Y-104376641D02*
X207091405Y-104376641D01*
X206805691Y-104376641D02*
X206805691Y-103376641D01*
X206900929Y-103519498D01*
X206996167Y-103614736D01*
X207091405Y-103662355D01*
X206139024Y-103471879D02*
X206091405Y-103424260D01*
X205996167Y-103376641D01*
X205758071Y-103376641D01*
X205662833Y-103424260D01*
X205615214Y-103471879D01*
X205567595Y-103567117D01*
X205567595Y-103662355D01*
X205615214Y-103805212D01*
X206186643Y-104376641D01*
X205567595Y-104376641D01*
X209043786Y-107826641D02*
X209519977Y-107826641D01*
X209519977Y-106826641D01*
X208710453Y-107302831D02*
X208377119Y-107302831D01*
X208234262Y-107826641D02*
X208710453Y-107826641D01*
X208710453Y-106826641D01*
X208234262Y-106826641D01*
X207805691Y-107826641D02*
X207805691Y-106826641D01*
X207567596Y-106826641D01*
X207424738Y-106874260D01*
X207329500Y-106969498D01*
X207281881Y-107064736D01*
X207234262Y-107255212D01*
X207234262Y-107398070D01*
X207281881Y-107588546D01*
X207329500Y-107683784D01*
X207424738Y-107779022D01*
X207567596Y-107826641D01*
X207805691Y-107826641D01*
X206043786Y-107826641D02*
X206043786Y-107159974D01*
X206043786Y-107350450D02*
X205996167Y-107255212D01*
X205948548Y-107207593D01*
X205853310Y-107159974D01*
X205758071Y-107159974D01*
X205043785Y-107779022D02*
X205139023Y-107826641D01*
X205329500Y-107826641D01*
X205424738Y-107779022D01*
X205472357Y-107683784D01*
X205472357Y-107302831D01*
X205424738Y-107207593D01*
X205329500Y-107159974D01*
X205139023Y-107159974D01*
X205043785Y-107207593D01*
X204996166Y-107302831D01*
X204996166Y-107398070D01*
X205472357Y-107493308D01*
X204139023Y-107826641D02*
X204139023Y-106826641D01*
X204139023Y-107779022D02*
X204234261Y-107826641D01*
X204424738Y-107826641D01*
X204519976Y-107779022D01*
X204567595Y-107731403D01*
X204615214Y-107636165D01*
X204615214Y-107350450D01*
X204567595Y-107255212D01*
X204519976Y-107207593D01*
X204424738Y-107159974D01*
X204234261Y-107159974D01*
X204139023Y-107207593D01*
X205853095Y-56271581D02*
X205853095Y-55271581D01*
X205615000Y-55271581D01*
X205472142Y-55319200D01*
X205376904Y-55414438D01*
X205329285Y-55509676D01*
X205281666Y-55700152D01*
X205281666Y-55843010D01*
X205329285Y-56033486D01*
X205376904Y-56128724D01*
X205472142Y-56223962D01*
X205615000Y-56271581D01*
X205853095Y-56271581D01*
X204805476Y-56271581D02*
X204615000Y-56271581D01*
X204519761Y-56223962D01*
X204472142Y-56176343D01*
X204376904Y-56033486D01*
X204329285Y-55843010D01*
X204329285Y-55462057D01*
X204376904Y-55366819D01*
X204424523Y-55319200D01*
X204519761Y-55271581D01*
X204710238Y-55271581D01*
X204805476Y-55319200D01*
X204853095Y-55366819D01*
X204900714Y-55462057D01*
X204900714Y-55700152D01*
X204853095Y-55795390D01*
X204805476Y-55843010D01*
X204710238Y-55890629D01*
X204519761Y-55890629D01*
X204424523Y-55843010D01*
X204376904Y-55795390D01*
X204329285Y-55700152D01*
X207329286Y-59721581D02*
X207805477Y-59721581D01*
X207805477Y-58721581D01*
X206995953Y-59197771D02*
X206662619Y-59197771D01*
X206519762Y-59721581D02*
X206995953Y-59721581D01*
X206995953Y-58721581D01*
X206519762Y-58721581D01*
X206091191Y-59721581D02*
X206091191Y-58721581D01*
X205853096Y-58721581D01*
X205710238Y-58769200D01*
X205615000Y-58864438D01*
X205567381Y-58959676D01*
X205519762Y-59150152D01*
X205519762Y-59293010D01*
X205567381Y-59483486D01*
X205615000Y-59578724D01*
X205710238Y-59673962D01*
X205853096Y-59721581D01*
X206091191Y-59721581D01*
X204329286Y-59721581D02*
X204329286Y-59054914D01*
X204329286Y-59245390D02*
X204281667Y-59150152D01*
X204234048Y-59102533D01*
X204138810Y-59054914D01*
X204043571Y-59054914D01*
X203329285Y-59673962D02*
X203424523Y-59721581D01*
X203615000Y-59721581D01*
X203710238Y-59673962D01*
X203757857Y-59578724D01*
X203757857Y-59197771D01*
X203710238Y-59102533D01*
X203615000Y-59054914D01*
X203424523Y-59054914D01*
X203329285Y-59102533D01*
X203281666Y-59197771D01*
X203281666Y-59293010D01*
X203757857Y-59388248D01*
X202424523Y-59721581D02*
X202424523Y-58721581D01*
X202424523Y-59673962D02*
X202519761Y-59721581D01*
X202710238Y-59721581D01*
X202805476Y-59673962D01*
X202853095Y-59626343D01*
X202900714Y-59531105D01*
X202900714Y-59245390D01*
X202853095Y-59150152D01*
X202805476Y-59102533D01*
X202710238Y-59054914D01*
X202519761Y-59054914D01*
X202424523Y-59102533D01*
X238625386Y-105021801D02*
X238625386Y-104021801D01*
X238387291Y-104021801D01*
X238244433Y-104069420D01*
X238149195Y-104164658D01*
X238101576Y-104259896D01*
X238053957Y-104450372D01*
X238053957Y-104593230D01*
X238101576Y-104783706D01*
X238149195Y-104878944D01*
X238244433Y-104974182D01*
X238387291Y-105021801D01*
X238625386Y-105021801D01*
X237101576Y-105021801D02*
X237673005Y-105021801D01*
X237387291Y-105021801D02*
X237387291Y-104021801D01*
X237482529Y-104164658D01*
X237577767Y-104259896D01*
X237673005Y-104307515D01*
X236482529Y-104021801D02*
X236387290Y-104021801D01*
X236292052Y-104069420D01*
X236244433Y-104117039D01*
X236196814Y-104212277D01*
X236149195Y-104402753D01*
X236149195Y-104640849D01*
X236196814Y-104831325D01*
X236244433Y-104926563D01*
X236292052Y-104974182D01*
X236387290Y-105021801D01*
X236482529Y-105021801D01*
X236577767Y-104974182D01*
X236625386Y-104926563D01*
X236673005Y-104831325D01*
X236720624Y-104640849D01*
X236720624Y-104402753D01*
X236673005Y-104212277D01*
X236625386Y-104117039D01*
X236577767Y-104069420D01*
X236482529Y-104021801D01*
X239625386Y-108471801D02*
X240101577Y-108471801D01*
X240101577Y-107471801D01*
X239292053Y-107947991D02*
X238958719Y-107947991D01*
X238815862Y-108471801D02*
X239292053Y-108471801D01*
X239292053Y-107471801D01*
X238815862Y-107471801D01*
X238387291Y-108471801D02*
X238387291Y-107471801D01*
X238149196Y-107471801D01*
X238006338Y-107519420D01*
X237911100Y-107614658D01*
X237863481Y-107709896D01*
X237815862Y-107900372D01*
X237815862Y-108043230D01*
X237863481Y-108233706D01*
X237911100Y-108328944D01*
X238006338Y-108424182D01*
X238149196Y-108471801D01*
X238387291Y-108471801D01*
X236625386Y-108471801D02*
X236625386Y-107805134D01*
X236625386Y-107995610D02*
X236577767Y-107900372D01*
X236530148Y-107852753D01*
X236434910Y-107805134D01*
X236339671Y-107805134D01*
X235625385Y-108424182D02*
X235720623Y-108471801D01*
X235911100Y-108471801D01*
X236006338Y-108424182D01*
X236053957Y-108328944D01*
X236053957Y-107947991D01*
X236006338Y-107852753D01*
X235911100Y-107805134D01*
X235720623Y-107805134D01*
X235625385Y-107852753D01*
X235577766Y-107947991D01*
X235577766Y-108043230D01*
X236053957Y-108138468D01*
X234720623Y-108471801D02*
X234720623Y-107471801D01*
X234720623Y-108424182D02*
X234815861Y-108471801D01*
X235006338Y-108471801D01*
X235101576Y-108424182D01*
X235149195Y-108376563D01*
X235196814Y-108281325D01*
X235196814Y-107995610D01*
X235149195Y-107900372D01*
X235101576Y-107852753D01*
X235006338Y-107805134D01*
X234815861Y-107805134D01*
X234720623Y-107852753D01*
X232140766Y-55961701D02*
X232140766Y-54961701D01*
X231902671Y-54961701D01*
X231759813Y-55009320D01*
X231664575Y-55104558D01*
X231616956Y-55199796D01*
X231569337Y-55390272D01*
X231569337Y-55533130D01*
X231616956Y-55723606D01*
X231664575Y-55818844D01*
X231759813Y-55914082D01*
X231902671Y-55961701D01*
X232140766Y-55961701D01*
X230616956Y-55961701D02*
X231188385Y-55961701D01*
X230902671Y-55961701D02*
X230902671Y-54961701D01*
X230997909Y-55104558D01*
X231093147Y-55199796D01*
X231188385Y-55247415D01*
X229664575Y-55961701D02*
X230236004Y-55961701D01*
X229950290Y-55961701D02*
X229950290Y-54961701D01*
X230045528Y-55104558D01*
X230140766Y-55199796D01*
X230236004Y-55247415D01*
X233140766Y-59411701D02*
X233616957Y-59411701D01*
X233616957Y-58411701D01*
X232807433Y-58887891D02*
X232474099Y-58887891D01*
X232331242Y-59411701D02*
X232807433Y-59411701D01*
X232807433Y-58411701D01*
X232331242Y-58411701D01*
X231902671Y-59411701D02*
X231902671Y-58411701D01*
X231664576Y-58411701D01*
X231521718Y-58459320D01*
X231426480Y-58554558D01*
X231378861Y-58649796D01*
X231331242Y-58840272D01*
X231331242Y-58983130D01*
X231378861Y-59173606D01*
X231426480Y-59268844D01*
X231521718Y-59364082D01*
X231664576Y-59411701D01*
X231902671Y-59411701D01*
X230140766Y-59411701D02*
X230140766Y-58745034D01*
X230140766Y-58935510D02*
X230093147Y-58840272D01*
X230045528Y-58792653D01*
X229950290Y-58745034D01*
X229855051Y-58745034D01*
X229140765Y-59364082D02*
X229236003Y-59411701D01*
X229426480Y-59411701D01*
X229521718Y-59364082D01*
X229569337Y-59268844D01*
X229569337Y-58887891D01*
X229521718Y-58792653D01*
X229426480Y-58745034D01*
X229236003Y-58745034D01*
X229140765Y-58792653D01*
X229093146Y-58887891D01*
X229093146Y-58983130D01*
X229569337Y-59078368D01*
X228236003Y-59411701D02*
X228236003Y-58411701D01*
X228236003Y-59364082D02*
X228331241Y-59411701D01*
X228521718Y-59411701D01*
X228616956Y-59364082D01*
X228664575Y-59316463D01*
X228712194Y-59221225D01*
X228712194Y-58935510D01*
X228664575Y-58840272D01*
X228616956Y-58792653D01*
X228521718Y-58745034D01*
X228331241Y-58745034D01*
X228236003Y-58792653D01*
X210976666Y-71052381D02*
X211310000Y-70576190D01*
X211548095Y-71052381D02*
X211548095Y-70052381D01*
X211167142Y-70052381D01*
X211071904Y-70100000D01*
X211024285Y-70147619D01*
X210976666Y-70242857D01*
X210976666Y-70385714D01*
X211024285Y-70480952D01*
X211071904Y-70528571D01*
X211167142Y-70576190D01*
X211548095Y-70576190D01*
X210071904Y-70052381D02*
X210548095Y-70052381D01*
X210595714Y-70528571D01*
X210548095Y-70480952D01*
X210452857Y-70433333D01*
X210214761Y-70433333D01*
X210119523Y-70480952D01*
X210071904Y-70528571D01*
X210024285Y-70623810D01*
X210024285Y-70861905D01*
X210071904Y-70957143D01*
X210119523Y-71004762D01*
X210214761Y-71052381D01*
X210452857Y-71052381D01*
X210548095Y-71004762D01*
X210595714Y-70957143D01*
X207476796Y-72212114D02*
X207476796Y-72878781D01*
X207714892Y-71831162D02*
X207952987Y-72545448D01*
X207333939Y-72545448D01*
X206952987Y-72878781D02*
X206952987Y-71878781D01*
X206857749Y-72497829D02*
X206572034Y-72878781D01*
X206572034Y-72212114D02*
X206952987Y-72593067D01*
X206238701Y-71878781D02*
X205572034Y-71878781D01*
X206000606Y-72878781D01*
X249752857Y-113772381D02*
X250086191Y-113296190D01*
X250324286Y-113772381D02*
X250324286Y-112772381D01*
X249943333Y-112772381D01*
X249848095Y-112820000D01*
X249800476Y-112867619D01*
X249752857Y-112962857D01*
X249752857Y-113105714D01*
X249800476Y-113200952D01*
X249848095Y-113248571D01*
X249943333Y-113296190D01*
X250324286Y-113296190D01*
X248800476Y-113772381D02*
X249371905Y-113772381D01*
X249086191Y-113772381D02*
X249086191Y-112772381D01*
X249181429Y-112915238D01*
X249276667Y-113010476D01*
X249371905Y-113058095D01*
X248181429Y-112772381D02*
X248086190Y-112772381D01*
X247990952Y-112820000D01*
X247943333Y-112867619D01*
X247895714Y-112962857D01*
X247848095Y-113153333D01*
X247848095Y-113391429D01*
X247895714Y-113581905D01*
X247943333Y-113677143D01*
X247990952Y-113724762D01*
X248086190Y-113772381D01*
X248181429Y-113772381D01*
X248276667Y-113724762D01*
X248324286Y-113677143D01*
X248371905Y-113581905D01*
X248419524Y-113391429D01*
X248419524Y-113153333D01*
X248371905Y-112962857D01*
X248324286Y-112867619D01*
X248276667Y-112820000D01*
X248181429Y-112772381D01*
X245584416Y-111480634D02*
X245584416Y-112147301D01*
X245822512Y-111099682D02*
X246060607Y-111813968D01*
X245441559Y-111813968D01*
X245060607Y-112147301D02*
X245060607Y-111147301D01*
X244965369Y-111766349D02*
X244679654Y-112147301D01*
X244679654Y-111480634D02*
X245060607Y-111861587D01*
X244346321Y-111147301D02*
X243679654Y-111147301D01*
X244108226Y-112147301D01*
X212793657Y-120075321D02*
X213126991Y-119599130D01*
X213365086Y-120075321D02*
X213365086Y-119075321D01*
X212984133Y-119075321D01*
X212888895Y-119122940D01*
X212841276Y-119170559D01*
X212793657Y-119265797D01*
X212793657Y-119408654D01*
X212841276Y-119503892D01*
X212888895Y-119551511D01*
X212984133Y-119599130D01*
X213365086Y-119599130D01*
X211841276Y-120075321D02*
X212412705Y-120075321D01*
X212126991Y-120075321D02*
X212126991Y-119075321D01*
X212222229Y-119218178D01*
X212317467Y-119313416D01*
X212412705Y-119361035D01*
X211460324Y-119170559D02*
X211412705Y-119122940D01*
X211317467Y-119075321D01*
X211079371Y-119075321D01*
X210984133Y-119122940D01*
X210936514Y-119170559D01*
X210888895Y-119265797D01*
X210888895Y-119361035D01*
X210936514Y-119503892D01*
X211507943Y-120075321D01*
X210888895Y-120075321D01*
X212841276Y-115958654D02*
X212841276Y-116625321D01*
X213079372Y-115577702D02*
X213317467Y-116291988D01*
X212698419Y-116291988D01*
X212317467Y-116625321D02*
X212317467Y-115625321D01*
X212222229Y-116244369D02*
X211936514Y-116625321D01*
X211936514Y-115958654D02*
X212317467Y-116339607D01*
X211603181Y-115625321D02*
X210936514Y-115625321D01*
X211365086Y-116625321D01*
X243272857Y-67062381D02*
X243606191Y-66586190D01*
X243844286Y-67062381D02*
X243844286Y-66062381D01*
X243463333Y-66062381D01*
X243368095Y-66110000D01*
X243320476Y-66157619D01*
X243272857Y-66252857D01*
X243272857Y-66395714D01*
X243320476Y-66490952D01*
X243368095Y-66538571D01*
X243463333Y-66586190D01*
X243844286Y-66586190D01*
X242320476Y-67062381D02*
X242891905Y-67062381D01*
X242606191Y-67062381D02*
X242606191Y-66062381D01*
X242701429Y-66205238D01*
X242796667Y-66300476D01*
X242891905Y-66348095D01*
X241368095Y-67062381D02*
X241939524Y-67062381D01*
X241653810Y-67062381D02*
X241653810Y-66062381D01*
X241749048Y-66205238D01*
X241844286Y-66300476D01*
X241939524Y-66348095D01*
X239104876Y-64775114D02*
X239104876Y-65441781D01*
X239342972Y-64394162D02*
X239581067Y-65108448D01*
X238962019Y-65108448D01*
X238581067Y-65441781D02*
X238581067Y-64441781D01*
X238485829Y-65060829D02*
X238200114Y-65441781D01*
X238200114Y-64775114D02*
X238581067Y-65156067D01*
X237866781Y-64441781D02*
X237200114Y-64441781D01*
X237628686Y-65441781D01*
X210976666Y-76192381D02*
X211310000Y-75716190D01*
X211548095Y-76192381D02*
X211548095Y-75192381D01*
X211167142Y-75192381D01*
X211071904Y-75240000D01*
X211024285Y-75287619D01*
X210976666Y-75382857D01*
X210976666Y-75525714D01*
X211024285Y-75620952D01*
X211071904Y-75668571D01*
X211167142Y-75716190D01*
X211548095Y-75716190D01*
X210500476Y-76192381D02*
X210310000Y-76192381D01*
X210214761Y-76144762D01*
X210167142Y-76097143D01*
X210071904Y-75954286D01*
X210024285Y-75763810D01*
X210024285Y-75382857D01*
X210071904Y-75287619D01*
X210119523Y-75240000D01*
X210214761Y-75192381D01*
X210405238Y-75192381D01*
X210500476Y-75240000D01*
X210548095Y-75287619D01*
X210595714Y-75382857D01*
X210595714Y-75620952D01*
X210548095Y-75716190D01*
X210500476Y-75763810D01*
X210405238Y-75811429D01*
X210214761Y-75811429D01*
X210119523Y-75763810D01*
X210071904Y-75716190D01*
X210024285Y-75620952D01*
X207532676Y-77241314D02*
X207532676Y-77907981D01*
X207770772Y-76860362D02*
X208008867Y-77574648D01*
X207389819Y-77574648D01*
X207008867Y-77907981D02*
X207008867Y-76907981D01*
X206913629Y-77527029D02*
X206627914Y-77907981D01*
X206627914Y-77241314D02*
X207008867Y-77622267D01*
X206294581Y-76907981D02*
X205627914Y-76907981D01*
X206056486Y-77907981D01*
X248946666Y-119592381D02*
X249280000Y-119116190D01*
X249518095Y-119592381D02*
X249518095Y-118592381D01*
X249137142Y-118592381D01*
X249041904Y-118640000D01*
X248994285Y-118687619D01*
X248946666Y-118782857D01*
X248946666Y-118925714D01*
X248994285Y-119020952D01*
X249041904Y-119068571D01*
X249137142Y-119116190D01*
X249518095Y-119116190D01*
X248089523Y-118592381D02*
X248280000Y-118592381D01*
X248375238Y-118640000D01*
X248422857Y-118687619D01*
X248518095Y-118830476D01*
X248565714Y-119020952D01*
X248565714Y-119401905D01*
X248518095Y-119497143D01*
X248470476Y-119544762D01*
X248375238Y-119592381D01*
X248184761Y-119592381D01*
X248089523Y-119544762D01*
X248041904Y-119497143D01*
X247994285Y-119401905D01*
X247994285Y-119163810D01*
X248041904Y-119068571D01*
X248089523Y-119020952D01*
X248184761Y-118973333D01*
X248375238Y-118973333D01*
X248470476Y-119020952D01*
X248518095Y-119068571D01*
X248565714Y-119163810D01*
X245693636Y-117121974D02*
X245693636Y-117788641D01*
X245931732Y-116741022D02*
X246169827Y-117455308D01*
X245550779Y-117455308D01*
X245169827Y-117788641D02*
X245169827Y-116788641D01*
X245074589Y-117407689D02*
X244788874Y-117788641D01*
X244788874Y-117121974D02*
X245169827Y-117502927D01*
X244455541Y-116788641D02*
X243788874Y-116788641D01*
X244217446Y-117788641D01*
X212233646Y-125663321D02*
X212566980Y-125187130D01*
X212805075Y-125663321D02*
X212805075Y-124663321D01*
X212424122Y-124663321D01*
X212328884Y-124710940D01*
X212281265Y-124758559D01*
X212233646Y-124853797D01*
X212233646Y-124996654D01*
X212281265Y-125091892D01*
X212328884Y-125139511D01*
X212424122Y-125187130D01*
X212805075Y-125187130D01*
X211662218Y-125091892D02*
X211757456Y-125044273D01*
X211805075Y-124996654D01*
X211852694Y-124901416D01*
X211852694Y-124853797D01*
X211805075Y-124758559D01*
X211757456Y-124710940D01*
X211662218Y-124663321D01*
X211471741Y-124663321D01*
X211376503Y-124710940D01*
X211328884Y-124758559D01*
X211281265Y-124853797D01*
X211281265Y-124901416D01*
X211328884Y-124996654D01*
X211376503Y-125044273D01*
X211471741Y-125091892D01*
X211662218Y-125091892D01*
X211757456Y-125139511D01*
X211805075Y-125187130D01*
X211852694Y-125282369D01*
X211852694Y-125472845D01*
X211805075Y-125568083D01*
X211757456Y-125615702D01*
X211662218Y-125663321D01*
X211471741Y-125663321D01*
X211376503Y-125615702D01*
X211328884Y-125568083D01*
X211281265Y-125472845D01*
X211281265Y-125282369D01*
X211328884Y-125187130D01*
X211376503Y-125139511D01*
X211471741Y-125091892D01*
X212757456Y-121546654D02*
X212757456Y-122213321D01*
X212995552Y-121165702D02*
X213233647Y-121879988D01*
X212614599Y-121879988D01*
X212233647Y-122213321D02*
X212233647Y-121213321D01*
X212138409Y-121832369D02*
X211852694Y-122213321D01*
X211852694Y-121546654D02*
X212233647Y-121927607D01*
X211519361Y-121213321D02*
X210852694Y-121213321D01*
X211281266Y-122213321D01*
X242856666Y-72422381D02*
X243190000Y-71946190D01*
X243428095Y-72422381D02*
X243428095Y-71422381D01*
X243047142Y-71422381D01*
X242951904Y-71470000D01*
X242904285Y-71517619D01*
X242856666Y-71612857D01*
X242856666Y-71755714D01*
X242904285Y-71850952D01*
X242951904Y-71898571D01*
X243047142Y-71946190D01*
X243428095Y-71946190D01*
X242523333Y-71422381D02*
X241856666Y-71422381D01*
X242285238Y-72422381D01*
X239181076Y-70032914D02*
X239181076Y-70699581D01*
X239419172Y-69651962D02*
X239657267Y-70366248D01*
X239038219Y-70366248D01*
X238657267Y-70699581D02*
X238657267Y-69699581D01*
X238562029Y-70318629D02*
X238276314Y-70699581D01*
X238276314Y-70032914D02*
X238657267Y-70413867D01*
X237942981Y-69699581D02*
X237276314Y-69699581D01*
X237704886Y-70699581D01*
X215302857Y-60352381D02*
X215636191Y-59876190D01*
X215874286Y-60352381D02*
X215874286Y-59352381D01*
X215493333Y-59352381D01*
X215398095Y-59400000D01*
X215350476Y-59447619D01*
X215302857Y-59542857D01*
X215302857Y-59685714D01*
X215350476Y-59780952D01*
X215398095Y-59828571D01*
X215493333Y-59876190D01*
X215874286Y-59876190D01*
X214350476Y-60352381D02*
X214921905Y-60352381D01*
X214636191Y-60352381D02*
X214636191Y-59352381D01*
X214731429Y-59495238D01*
X214826667Y-59590476D01*
X214921905Y-59638095D01*
X214017143Y-59352381D02*
X213350476Y-59352381D01*
X213779048Y-60352381D01*
X211590476Y-57985714D02*
X211590476Y-58652381D01*
X211828572Y-57604762D02*
X212066667Y-58319048D01*
X211447619Y-58319048D01*
X211066667Y-58652381D02*
X211066667Y-57652381D01*
X210971429Y-58271429D02*
X210685714Y-58652381D01*
X210685714Y-57985714D02*
X211066667Y-58366667D01*
X210352381Y-57652381D02*
X209685714Y-57652381D01*
X210114286Y-58652381D01*
X249782857Y-104012381D02*
X250116191Y-103536190D01*
X250354286Y-104012381D02*
X250354286Y-103012381D01*
X249973333Y-103012381D01*
X249878095Y-103060000D01*
X249830476Y-103107619D01*
X249782857Y-103202857D01*
X249782857Y-103345714D01*
X249830476Y-103440952D01*
X249878095Y-103488571D01*
X249973333Y-103536190D01*
X250354286Y-103536190D01*
X248830476Y-104012381D02*
X249401905Y-104012381D01*
X249116191Y-104012381D02*
X249116191Y-103012381D01*
X249211429Y-103155238D01*
X249306667Y-103250476D01*
X249401905Y-103298095D01*
X247973333Y-103345714D02*
X247973333Y-104012381D01*
X248211429Y-102964762D02*
X248449524Y-103679048D01*
X247830476Y-103679048D01*
X245731736Y-101539074D02*
X245731736Y-102205741D01*
X245969832Y-101158122D02*
X246207927Y-101872408D01*
X245588879Y-101872408D01*
X245207927Y-102205741D02*
X245207927Y-101205741D01*
X245112689Y-101824789D02*
X244826974Y-102205741D01*
X244826974Y-101539074D02*
X245207927Y-101920027D01*
X244493641Y-101205741D02*
X243826974Y-101205741D01*
X244255546Y-102205741D01*
X241392857Y-59252381D02*
X241726191Y-58776190D01*
X241964286Y-59252381D02*
X241964286Y-58252381D01*
X241583333Y-58252381D01*
X241488095Y-58300000D01*
X241440476Y-58347619D01*
X241392857Y-58442857D01*
X241392857Y-58585714D01*
X241440476Y-58680952D01*
X241488095Y-58728571D01*
X241583333Y-58776190D01*
X241964286Y-58776190D01*
X240440476Y-59252381D02*
X241011905Y-59252381D01*
X240726191Y-59252381D02*
X240726191Y-58252381D01*
X240821429Y-58395238D01*
X240916667Y-58490476D01*
X241011905Y-58538095D01*
X239964286Y-59252381D02*
X239773810Y-59252381D01*
X239678571Y-59204762D01*
X239630952Y-59157143D01*
X239535714Y-59014286D01*
X239488095Y-58823810D01*
X239488095Y-58442857D01*
X239535714Y-58347619D01*
X239583333Y-58300000D01*
X239678571Y-58252381D01*
X239869048Y-58252381D01*
X239964286Y-58300000D01*
X240011905Y-58347619D01*
X240059524Y-58442857D01*
X240059524Y-58680952D01*
X240011905Y-58776190D01*
X239964286Y-58823810D01*
X239869048Y-58871429D01*
X239678571Y-58871429D01*
X239583333Y-58823810D01*
X239535714Y-58776190D01*
X239488095Y-58680952D01*
X241440476Y-55135714D02*
X241440476Y-55802381D01*
X241678572Y-54754762D02*
X241916667Y-55469048D01*
X241297619Y-55469048D01*
X240916667Y-55802381D02*
X240916667Y-54802381D01*
X240821429Y-55421429D02*
X240535714Y-55802381D01*
X240535714Y-55135714D02*
X240916667Y-55516667D01*
X240202381Y-54802381D02*
X239535714Y-54802381D01*
X239964286Y-55802381D01*
X215392857Y-55382381D02*
X215726191Y-54906190D01*
X215964286Y-55382381D02*
X215964286Y-54382381D01*
X215583333Y-54382381D01*
X215488095Y-54430000D01*
X215440476Y-54477619D01*
X215392857Y-54572857D01*
X215392857Y-54715714D01*
X215440476Y-54810952D01*
X215488095Y-54858571D01*
X215583333Y-54906190D01*
X215964286Y-54906190D01*
X214440476Y-55382381D02*
X215011905Y-55382381D01*
X214726191Y-55382381D02*
X214726191Y-54382381D01*
X214821429Y-54525238D01*
X214916667Y-54620476D01*
X215011905Y-54668095D01*
X214107143Y-54382381D02*
X213488095Y-54382381D01*
X213821429Y-54763333D01*
X213678571Y-54763333D01*
X213583333Y-54810952D01*
X213535714Y-54858571D01*
X213488095Y-54953810D01*
X213488095Y-55191905D01*
X213535714Y-55287143D01*
X213583333Y-55334762D01*
X213678571Y-55382381D01*
X213964286Y-55382381D01*
X214059524Y-55334762D01*
X214107143Y-55287143D01*
X211440476Y-52860714D02*
X211440476Y-53527381D01*
X211678572Y-52479762D02*
X211916667Y-53194048D01*
X211297619Y-53194048D01*
X210916667Y-53527381D02*
X210916667Y-52527381D01*
X210821429Y-53146429D02*
X210535714Y-53527381D01*
X210535714Y-52860714D02*
X210916667Y-53241667D01*
X210202381Y-52527381D02*
X209535714Y-52527381D01*
X209964286Y-53527381D01*
X249812857Y-108692381D02*
X250146191Y-108216190D01*
X250384286Y-108692381D02*
X250384286Y-107692381D01*
X250003333Y-107692381D01*
X249908095Y-107740000D01*
X249860476Y-107787619D01*
X249812857Y-107882857D01*
X249812857Y-108025714D01*
X249860476Y-108120952D01*
X249908095Y-108168571D01*
X250003333Y-108216190D01*
X250384286Y-108216190D01*
X248860476Y-108692381D02*
X249431905Y-108692381D01*
X249146191Y-108692381D02*
X249146191Y-107692381D01*
X249241429Y-107835238D01*
X249336667Y-107930476D01*
X249431905Y-107978095D01*
X248289048Y-108120952D02*
X248384286Y-108073333D01*
X248431905Y-108025714D01*
X248479524Y-107930476D01*
X248479524Y-107882857D01*
X248431905Y-107787619D01*
X248384286Y-107740000D01*
X248289048Y-107692381D01*
X248098571Y-107692381D01*
X248003333Y-107740000D01*
X247955714Y-107787619D01*
X247908095Y-107882857D01*
X247908095Y-107930476D01*
X247955714Y-108025714D01*
X248003333Y-108073333D01*
X248098571Y-108120952D01*
X248289048Y-108120952D01*
X248384286Y-108168571D01*
X248431905Y-108216190D01*
X248479524Y-108311429D01*
X248479524Y-108501905D01*
X248431905Y-108597143D01*
X248384286Y-108644762D01*
X248289048Y-108692381D01*
X248098571Y-108692381D01*
X248003333Y-108644762D01*
X247955714Y-108597143D01*
X247908095Y-108501905D01*
X247908095Y-108311429D01*
X247955714Y-108216190D01*
X248003333Y-108168571D01*
X248098571Y-108120952D01*
X245655536Y-106339674D02*
X245655536Y-107006341D01*
X245893632Y-105958722D02*
X246131727Y-106673008D01*
X245512679Y-106673008D01*
X245131727Y-107006341D02*
X245131727Y-106006341D01*
X245036489Y-106625389D02*
X244750774Y-107006341D01*
X244750774Y-106339674D02*
X245131727Y-106720627D01*
X244417441Y-106006341D02*
X243750774Y-106006341D01*
X244179346Y-107006341D01*
X214667857Y-110402381D02*
X215001191Y-109926190D01*
X215239286Y-110402381D02*
X215239286Y-109402381D01*
X214858333Y-109402381D01*
X214763095Y-109450000D01*
X214715476Y-109497619D01*
X214667857Y-109592857D01*
X214667857Y-109735714D01*
X214715476Y-109830952D01*
X214763095Y-109878571D01*
X214858333Y-109926190D01*
X215239286Y-109926190D01*
X214286905Y-109497619D02*
X214239286Y-109450000D01*
X214144048Y-109402381D01*
X213905952Y-109402381D01*
X213810714Y-109450000D01*
X213763095Y-109497619D01*
X213715476Y-109592857D01*
X213715476Y-109688095D01*
X213763095Y-109830952D01*
X214334524Y-110402381D01*
X213715476Y-110402381D01*
X213096429Y-109402381D02*
X213001190Y-109402381D01*
X212905952Y-109450000D01*
X212858333Y-109497619D01*
X212810714Y-109592857D01*
X212763095Y-109783333D01*
X212763095Y-110021429D01*
X212810714Y-110211905D01*
X212858333Y-110307143D01*
X212905952Y-110354762D01*
X213001190Y-110402381D01*
X213096429Y-110402381D01*
X213191667Y-110354762D01*
X213239286Y-110307143D01*
X213286905Y-110211905D01*
X213334524Y-110021429D01*
X213334524Y-109783333D01*
X213286905Y-109592857D01*
X213239286Y-109497619D01*
X213191667Y-109450000D01*
X213096429Y-109402381D01*
X214715476Y-106285714D02*
X214715476Y-106952381D01*
X214953572Y-105904762D02*
X215191667Y-106619048D01*
X214572619Y-106619048D01*
X214191667Y-106952381D02*
X214191667Y-105952381D01*
X214096429Y-106571429D02*
X213810714Y-106952381D01*
X213810714Y-106285714D02*
X214191667Y-106666667D01*
X213477381Y-105952381D02*
X212810714Y-105952381D01*
X213239286Y-106952381D01*
X236417857Y-53227381D02*
X236751191Y-52751190D01*
X236989286Y-53227381D02*
X236989286Y-52227381D01*
X236608333Y-52227381D01*
X236513095Y-52275000D01*
X236465476Y-52322619D01*
X236417857Y-52417857D01*
X236417857Y-52560714D01*
X236465476Y-52655952D01*
X236513095Y-52703571D01*
X236608333Y-52751190D01*
X236989286Y-52751190D01*
X235465476Y-53227381D02*
X236036905Y-53227381D01*
X235751191Y-53227381D02*
X235751191Y-52227381D01*
X235846429Y-52370238D01*
X235941667Y-52465476D01*
X236036905Y-52513095D01*
X234560714Y-52227381D02*
X235036905Y-52227381D01*
X235084524Y-52703571D01*
X235036905Y-52655952D01*
X234941667Y-52608333D01*
X234703571Y-52608333D01*
X234608333Y-52655952D01*
X234560714Y-52703571D01*
X234513095Y-52798810D01*
X234513095Y-53036905D01*
X234560714Y-53132143D01*
X234608333Y-53179762D01*
X234703571Y-53227381D01*
X234941667Y-53227381D01*
X235036905Y-53179762D01*
X235084524Y-53132143D01*
X236465476Y-56010714D02*
X236465476Y-56677381D01*
X236703572Y-55629762D02*
X236941667Y-56344048D01*
X236322619Y-56344048D01*
X235941667Y-56677381D02*
X235941667Y-55677381D01*
X235846429Y-56296429D02*
X235560714Y-56677381D01*
X235560714Y-56010714D02*
X235941667Y-56391667D01*
X235227381Y-55677381D02*
X234560714Y-55677381D01*
X234989286Y-56677381D01*
X187657101Y-116107814D02*
X187180910Y-115774480D01*
X187657101Y-115536385D02*
X186657101Y-115536385D01*
X186657101Y-115917338D01*
X186704720Y-116012576D01*
X186752339Y-116060195D01*
X186847577Y-116107814D01*
X186990434Y-116107814D01*
X187085672Y-116060195D01*
X187133291Y-116012576D01*
X187180910Y-115917338D01*
X187180910Y-115536385D01*
X187657101Y-117060195D02*
X187657101Y-116488766D01*
X187657101Y-116774480D02*
X186657101Y-116774480D01*
X186799958Y-116679242D01*
X186895196Y-116584004D01*
X186942815Y-116488766D01*
X191107101Y-116155433D02*
X191107101Y-115584004D01*
X191107101Y-115869718D02*
X190107101Y-115869718D01*
X190249958Y-115774480D01*
X190345196Y-115679242D01*
X190392815Y-115584004D01*
X191107101Y-116584004D02*
X190107101Y-116584004D01*
X190726149Y-116679242D02*
X191107101Y-116964957D01*
X190440434Y-116964957D02*
X190821387Y-116584004D01*
X219480761Y-108983114D02*
X219004570Y-108649780D01*
X219480761Y-108411685D02*
X218480761Y-108411685D01*
X218480761Y-108792638D01*
X218528380Y-108887876D01*
X218575999Y-108935495D01*
X218671237Y-108983114D01*
X218814094Y-108983114D01*
X218909332Y-108935495D01*
X218956951Y-108887876D01*
X219004570Y-108792638D01*
X219004570Y-108411685D01*
X218480761Y-109316447D02*
X218480761Y-109935495D01*
X218861713Y-109602161D01*
X218861713Y-109745019D01*
X218909332Y-109840257D01*
X218956951Y-109887876D01*
X219052190Y-109935495D01*
X219290285Y-109935495D01*
X219385523Y-109887876D01*
X219433142Y-109840257D01*
X219480761Y-109745019D01*
X219480761Y-109459304D01*
X219433142Y-109364066D01*
X219385523Y-109316447D01*
X199828286Y-77782841D02*
X200161620Y-77306650D01*
X200399715Y-77782841D02*
X200399715Y-76782841D01*
X200018762Y-76782841D01*
X199923524Y-76830460D01*
X199875905Y-76878079D01*
X199828286Y-76973317D01*
X199828286Y-77116174D01*
X199875905Y-77211412D01*
X199923524Y-77259031D01*
X200018762Y-77306650D01*
X200399715Y-77306650D01*
X199447334Y-76878079D02*
X199399715Y-76830460D01*
X199304477Y-76782841D01*
X199066381Y-76782841D01*
X198971143Y-76830460D01*
X198923524Y-76878079D01*
X198875905Y-76973317D01*
X198875905Y-77068555D01*
X198923524Y-77211412D01*
X199494953Y-77782841D01*
X198875905Y-77782841D01*
X199780667Y-81232841D02*
X200352096Y-81232841D01*
X200066382Y-81232841D02*
X200066382Y-80232841D01*
X200161620Y-80375698D01*
X200256858Y-80470936D01*
X200352096Y-80518555D01*
X199352096Y-81232841D02*
X199352096Y-80232841D01*
X199256858Y-80851889D02*
X198971143Y-81232841D01*
X198971143Y-80566174D02*
X199352096Y-80947127D01*
X226312866Y-77734581D02*
X226646200Y-77258390D01*
X226884295Y-77734581D02*
X226884295Y-76734581D01*
X226503342Y-76734581D01*
X226408104Y-76782200D01*
X226360485Y-76829819D01*
X226312866Y-76925057D01*
X226312866Y-77067914D01*
X226360485Y-77163152D01*
X226408104Y-77210771D01*
X226503342Y-77258390D01*
X226884295Y-77258390D01*
X225455723Y-77067914D02*
X225455723Y-77734581D01*
X225693819Y-76686962D02*
X225931914Y-77401248D01*
X225312866Y-77401248D01*
X214597057Y-105477941D02*
X214930391Y-105001750D01*
X215168486Y-105477941D02*
X215168486Y-104477941D01*
X214787533Y-104477941D01*
X214692295Y-104525560D01*
X214644676Y-104573179D01*
X214597057Y-104668417D01*
X214597057Y-104811274D01*
X214644676Y-104906512D01*
X214692295Y-104954131D01*
X214787533Y-105001750D01*
X215168486Y-105001750D01*
X213644676Y-105477941D02*
X214216105Y-105477941D01*
X213930391Y-105477941D02*
X213930391Y-104477941D01*
X214025629Y-104620798D01*
X214120867Y-104716036D01*
X214216105Y-104763655D01*
X212787533Y-104477941D02*
X212978010Y-104477941D01*
X213073248Y-104525560D01*
X213120867Y-104573179D01*
X213216105Y-104716036D01*
X213263724Y-104906512D01*
X213263724Y-105287465D01*
X213216105Y-105382703D01*
X213168486Y-105430322D01*
X213073248Y-105477941D01*
X212882771Y-105477941D01*
X212787533Y-105430322D01*
X212739914Y-105382703D01*
X212692295Y-105287465D01*
X212692295Y-105049370D01*
X212739914Y-104954131D01*
X212787533Y-104906512D01*
X212882771Y-104858893D01*
X213073248Y-104858893D01*
X213168486Y-104906512D01*
X213216105Y-104954131D01*
X213263724Y-105049370D01*
X214644676Y-101361274D02*
X214644676Y-102027941D01*
X214882772Y-100980322D02*
X215120867Y-101694608D01*
X214501819Y-101694608D01*
X214120867Y-102027941D02*
X214120867Y-101027941D01*
X214025629Y-101646989D02*
X213739914Y-102027941D01*
X213739914Y-101361274D02*
X214120867Y-101742227D01*
X213406581Y-101027941D02*
X212739914Y-101027941D01*
X213168486Y-102027941D01*
D14*
X258826909Y-111642000D02*
X259915480Y-111642000D01*
X260133194Y-111569428D01*
X260278337Y-111424285D01*
X260350909Y-111206571D01*
X260350909Y-111061428D01*
X258826909Y-112222571D02*
X258826909Y-113166000D01*
X259407480Y-112658000D01*
X259407480Y-112875714D01*
X259480051Y-113020857D01*
X259552623Y-113093428D01*
X259697766Y-113166000D01*
X260060623Y-113166000D01*
X260205766Y-113093428D01*
X260278337Y-113020857D01*
X260350909Y-112875714D01*
X260350909Y-112440286D01*
X260278337Y-112295143D01*
X260205766Y-112222571D01*
X271850909Y-110589714D02*
X271125194Y-110081714D01*
X271850909Y-109718857D02*
X270326909Y-109718857D01*
X270326909Y-110299429D01*
X270399480Y-110444571D01*
X270472051Y-110517143D01*
X270617194Y-110589714D01*
X270834909Y-110589714D01*
X270980051Y-110517143D01*
X271052623Y-110444571D01*
X271125194Y-110299429D01*
X271125194Y-109718857D01*
X270326909Y-111678286D02*
X271415480Y-111678286D01*
X271633194Y-111605714D01*
X271778337Y-111460571D01*
X271850909Y-111242857D01*
X271850909Y-111097714D01*
X271850909Y-113202286D02*
X271850909Y-112331429D01*
X271850909Y-112766857D02*
X270326909Y-112766857D01*
X270544623Y-112621714D01*
X270689766Y-112476572D01*
X270762337Y-112331429D01*
X271850909Y-114653715D02*
X271850909Y-113782858D01*
X271850909Y-114218286D02*
X270326909Y-114218286D01*
X270544623Y-114073143D01*
X270689766Y-113928001D01*
X270762337Y-113782858D01*
X258826909Y-84642000D02*
X259915480Y-84642000D01*
X260133194Y-84569428D01*
X260278337Y-84424285D01*
X260350909Y-84206571D01*
X260350909Y-84061428D01*
X259334909Y-86020857D02*
X260350909Y-86020857D01*
X258754337Y-85658000D02*
X259842909Y-85295143D01*
X259842909Y-86238571D01*
X271850909Y-83589714D02*
X271125194Y-83081714D01*
X271850909Y-82718857D02*
X270326909Y-82718857D01*
X270326909Y-83299429D01*
X270399480Y-83444571D01*
X270472051Y-83517143D01*
X270617194Y-83589714D01*
X270834909Y-83589714D01*
X270980051Y-83517143D01*
X271052623Y-83444571D01*
X271125194Y-83299429D01*
X271125194Y-82718857D01*
X270326909Y-84678286D02*
X271415480Y-84678286D01*
X271633194Y-84605714D01*
X271778337Y-84460571D01*
X271850909Y-84242857D01*
X271850909Y-84097714D01*
X271850909Y-86202286D02*
X271850909Y-85331429D01*
X271850909Y-85766857D02*
X270326909Y-85766857D01*
X270544623Y-85621714D01*
X270689766Y-85476572D01*
X270762337Y-85331429D01*
X271850909Y-87653715D02*
X271850909Y-86782858D01*
X271850909Y-87218286D02*
X270326909Y-87218286D01*
X270544623Y-87073143D01*
X270689766Y-86928001D01*
X270762337Y-86782858D01*
X258826909Y-98142000D02*
X259915480Y-98142000D01*
X260133194Y-98069428D01*
X260278337Y-97924285D01*
X260350909Y-97706571D01*
X260350909Y-97561428D01*
X258972051Y-98795143D02*
X258899480Y-98867714D01*
X258826909Y-99012857D01*
X258826909Y-99375714D01*
X258899480Y-99520857D01*
X258972051Y-99593428D01*
X259117194Y-99666000D01*
X259262337Y-99666000D01*
X259480051Y-99593428D01*
X260350909Y-98722571D01*
X260350909Y-99666000D01*
X271850909Y-97089714D02*
X271125194Y-96581714D01*
X271850909Y-96218857D02*
X270326909Y-96218857D01*
X270326909Y-96799429D01*
X270399480Y-96944571D01*
X270472051Y-97017143D01*
X270617194Y-97089714D01*
X270834909Y-97089714D01*
X270980051Y-97017143D01*
X271052623Y-96944571D01*
X271125194Y-96799429D01*
X271125194Y-96218857D01*
X270326909Y-98178286D02*
X271415480Y-98178286D01*
X271633194Y-98105714D01*
X271778337Y-97960571D01*
X271850909Y-97742857D01*
X271850909Y-97597714D01*
X271850909Y-99702286D02*
X271850909Y-98831429D01*
X271850909Y-99266857D02*
X270326909Y-99266857D01*
X270544623Y-99121714D01*
X270689766Y-98976572D01*
X270762337Y-98831429D01*
X271850909Y-101153715D02*
X271850909Y-100282858D01*
X271850909Y-100718286D02*
X270326909Y-100718286D01*
X270544623Y-100573143D01*
X270689766Y-100428001D01*
X270762337Y-100282858D01*
M02*
