G04 #@! TF.FileFunction,Paste,Bot*
%FSLAX46Y46*%
G04 Gerber Fmt 4.6, Leading zero omitted, Abs format (unit mm)*
G04 Created by KiCad (PCBNEW 4.0.7-e2-6376~58~ubuntu16.04.1) date Fri Jul 20 08:47:30 2018*
%MOMM*%
%LPD*%
G01*
G04 APERTURE LIST*
%ADD10C,0.100000*%
%ADD11R,0.900000X0.800000*%
%ADD12R,0.800000X0.900000*%
%ADD13R,1.500000X1.300000*%
%ADD14R,1.300000X1.500000*%
G04 APERTURE END LIST*
D10*
D11*
X196353780Y-115588640D03*
X196353780Y-117488640D03*
X194353780Y-116538640D03*
D12*
X225050000Y-116300000D03*
X226950000Y-116300000D03*
X226000000Y-118300000D03*
X193507240Y-79773920D03*
X191607240Y-79773920D03*
X192557240Y-77773920D03*
X219737820Y-79390380D03*
X217837820Y-79390380D03*
X218787820Y-77390380D03*
X197643300Y-120869340D03*
X195543300Y-120869340D03*
X196472360Y-74453380D03*
X194372360Y-74453380D03*
X228847200Y-121009040D03*
X226747200Y-121009040D03*
X222522600Y-74189220D03*
X220422600Y-74189220D03*
D13*
X208150000Y-115300000D03*
X205450000Y-115300000D03*
X207968680Y-65535440D03*
X205268680Y-65535440D03*
X238801740Y-113538900D03*
X236101740Y-113538900D03*
X233170560Y-65982480D03*
X230470560Y-65982480D03*
X208179500Y-105624260D03*
X205479500Y-105624260D03*
X206465000Y-57519200D03*
X203765000Y-57519200D03*
X238761100Y-106269420D03*
X236061100Y-106269420D03*
X232276480Y-57209320D03*
X229576480Y-57209320D03*
X208136320Y-70676400D03*
X205436320Y-70676400D03*
X243543940Y-113444920D03*
X246243940Y-113444920D03*
X210800800Y-117922940D03*
X213500800Y-117922940D03*
X237064400Y-66739400D03*
X239764400Y-66739400D03*
X208192200Y-75705600D03*
X205492200Y-75705600D03*
X243653160Y-119086260D03*
X246353160Y-119086260D03*
X210716980Y-123510940D03*
X213416980Y-123510940D03*
X237140600Y-71997200D03*
X239840600Y-71997200D03*
X209550000Y-59950000D03*
X212250000Y-59950000D03*
X243691260Y-103503360D03*
X246391260Y-103503360D03*
X239400000Y-57100000D03*
X242100000Y-57100000D03*
X209400000Y-54825000D03*
X212100000Y-54825000D03*
X243615060Y-108303960D03*
X246315060Y-108303960D03*
X212675000Y-108250000D03*
X215375000Y-108250000D03*
X237125000Y-54475000D03*
X234425000Y-54475000D03*
D14*
X188904720Y-114924480D03*
X188904720Y-117624480D03*
X220728380Y-107799780D03*
X220728380Y-110499780D03*
D13*
X201011620Y-79030460D03*
X198311620Y-79030460D03*
X227496200Y-78982200D03*
X224796200Y-78982200D03*
X212604200Y-103325560D03*
X215304200Y-103325560D03*
M02*
