G04 #@! TF.FileFunction,Soldermask,Top*
%FSLAX46Y46*%
G04 Gerber Fmt 4.6, Leading zero omitted, Abs format (unit mm)*
G04 Created by KiCad (PCBNEW 4.0.7-e2-6376~58~ubuntu16.04.1) date Wed Jul 18 14:04:07 2018*
%MOMM*%
%LPD*%
G01*
G04 APERTURE LIST*
%ADD10C,0.100000*%
%ADD11C,3.650000*%
%ADD12C,1.990000*%
%ADD13R,1.900000X1.700000*%
%ADD14R,2.100000X2.100000*%
%ADD15O,2.100000X2.100000*%
%ADD16C,7.400000*%
%ADD17C,1.560000*%
%ADD18O,3.600000X2.200000*%
%ADD19R,2.000000X2.000000*%
%ADD20O,2.000000X2.400000*%
%ADD21R,1.800000X1.800000*%
%ADD22C,1.800000*%
%ADD23C,4.972000*%
%ADD24R,4.360000X2.380000*%
%ADD25O,4.360000X2.380000*%
%ADD26C,2.600000*%
%ADD27R,1.700000X1.900000*%
%ADD28R,1.150000X0.650000*%
%ADD29R,1.000000X2.400000*%
%ADD30R,1.900000X1.000000*%
%ADD31R,2.150000X0.850000*%
%ADD32R,1.900000X1.650000*%
%ADD33R,2.900000X2.400000*%
%ADD34R,1.650000X1.900000*%
%ADD35R,2.400000X2.900000*%
%ADD36O,2.200000X2.200000*%
G04 APERTURE END LIST*
D10*
D11*
X119422500Y-98972500D03*
D12*
X128312500Y-100882500D03*
X125772500Y-102152500D03*
X128312500Y-103422500D03*
X125772500Y-104692500D03*
X128312500Y-105962500D03*
X125772500Y-107232500D03*
D11*
X119422500Y-109132500D03*
D13*
X141250000Y-69420000D03*
X138550000Y-69420000D03*
D14*
X116570000Y-129590000D03*
D15*
X116570000Y-124510000D03*
D16*
X154590000Y-114400000D03*
X154590000Y-75300000D03*
D14*
X181180000Y-114950000D03*
D15*
X183720000Y-114950000D03*
X181180000Y-127650000D03*
X183720000Y-127650000D03*
D17*
X266311480Y-126160000D03*
X266311480Y-124120000D03*
X268861480Y-125140000D03*
X268861480Y-127180000D03*
D18*
X268661480Y-131030000D03*
X268661480Y-120270000D03*
D19*
X253982080Y-45403400D03*
D20*
X253982080Y-48043400D03*
X251442080Y-45303400D03*
X251442080Y-48043400D03*
X248902080Y-45303400D03*
X248902080Y-48043400D03*
X246362080Y-45303400D03*
X246362080Y-48043400D03*
X243822080Y-45303400D03*
X243822080Y-48043400D03*
X241282080Y-45303400D03*
X241282080Y-48043400D03*
X238742080Y-45303400D03*
X238742080Y-48043400D03*
X236202080Y-45303400D03*
X236202080Y-48043400D03*
X233662080Y-45303400D03*
X233662080Y-48043400D03*
X231122080Y-45303400D03*
X231122080Y-48043400D03*
X228582080Y-45303400D03*
X228582080Y-48043400D03*
X226042080Y-45303400D03*
X226042080Y-48043400D03*
X223502080Y-45303400D03*
X223502080Y-48043400D03*
X220962080Y-45303400D03*
X220962080Y-48043400D03*
X218422080Y-45303400D03*
X218422080Y-48043400D03*
X215882080Y-45303400D03*
X215882080Y-48043400D03*
X213342080Y-45303400D03*
X213342080Y-48043400D03*
X210802080Y-45303400D03*
X210802080Y-48043400D03*
X208262080Y-45303400D03*
X208262080Y-48043400D03*
X205722080Y-45303400D03*
X205722080Y-48043400D03*
X203182080Y-45303400D03*
X203182080Y-48043400D03*
X200642080Y-45303400D03*
X200642080Y-48043400D03*
X198102080Y-45303400D03*
X198102080Y-48043400D03*
D19*
X253982080Y-93663400D03*
D20*
X253982080Y-96303400D03*
X251442080Y-93563400D03*
X251442080Y-96303400D03*
X248902080Y-93563400D03*
X248902080Y-96303400D03*
X246362080Y-93563400D03*
X246362080Y-96303400D03*
X243822080Y-93563400D03*
X243822080Y-96303400D03*
X241282080Y-93563400D03*
X241282080Y-96303400D03*
X238742080Y-93563400D03*
X238742080Y-96303400D03*
X236202080Y-93563400D03*
X236202080Y-96303400D03*
X233662080Y-93563400D03*
X233662080Y-96303400D03*
X231122080Y-93563400D03*
X231122080Y-96303400D03*
X228582080Y-93563400D03*
X228582080Y-96303400D03*
X226042080Y-93563400D03*
X226042080Y-96303400D03*
X223502080Y-93563400D03*
X223502080Y-96303400D03*
X220962080Y-93563400D03*
X220962080Y-96303400D03*
X218422080Y-93563400D03*
X218422080Y-96303400D03*
X215882080Y-93563400D03*
X215882080Y-96303400D03*
X213342080Y-93563400D03*
X213342080Y-96303400D03*
X210802080Y-93563400D03*
X210802080Y-96303400D03*
X208262080Y-93563400D03*
X208262080Y-96303400D03*
X205722080Y-93563400D03*
X205722080Y-96303400D03*
X203182080Y-93563400D03*
X203182080Y-96303400D03*
X200642080Y-93563400D03*
X200642080Y-96303400D03*
X198102080Y-93563400D03*
X198102080Y-96303400D03*
D21*
X199224820Y-74383060D03*
D22*
X191604820Y-74383060D03*
X199224820Y-61693060D03*
X199224820Y-56603060D03*
X199224820Y-66763060D03*
X191594820Y-61673060D03*
X191594820Y-56593060D03*
X191604820Y-66763060D03*
D23*
X193022080Y-49848400D03*
X259062080Y-46673400D03*
X259062080Y-94933400D03*
X193022080Y-91758400D03*
D24*
X178140200Y-48489500D03*
D25*
X178140200Y-43489500D03*
D21*
X200558240Y-120829500D03*
D22*
X192938240Y-120829500D03*
X200558240Y-108139500D03*
X200558240Y-103049500D03*
X200558240Y-113209500D03*
X192928240Y-108119500D03*
X192928240Y-103039500D03*
X192938240Y-113209500D03*
D21*
X231645340Y-120941260D03*
D22*
X224025340Y-120941260D03*
X231645340Y-108251260D03*
X231645340Y-103161260D03*
X231645340Y-113321260D03*
X224015340Y-108231260D03*
X224015340Y-103151260D03*
X224025340Y-113321260D03*
D21*
X225181000Y-74207000D03*
D22*
X217561000Y-74207000D03*
X225181000Y-61517000D03*
X225181000Y-56427000D03*
X225181000Y-66587000D03*
X217551000Y-61497000D03*
X217551000Y-56417000D03*
X217561000Y-66587000D03*
D11*
X267451480Y-48679240D03*
D12*
X258561480Y-50589240D03*
X261101480Y-51859240D03*
X258561480Y-53129240D03*
X261101480Y-54399240D03*
X258561480Y-55669240D03*
X261101480Y-56939240D03*
D11*
X267451480Y-58839240D03*
D26*
X269474800Y-66175500D03*
X264474800Y-66175500D03*
X264474800Y-71175500D03*
X269474800Y-71175500D03*
X266974800Y-68675500D03*
D27*
X251110000Y-67230000D03*
X251110000Y-69930000D03*
X246930000Y-69980000D03*
X246930000Y-72680000D03*
D13*
X250075000Y-53300000D03*
X252775000Y-53300000D03*
X245675000Y-57475000D03*
X248375000Y-57475000D03*
D17*
X266311480Y-112660000D03*
X266311480Y-110620000D03*
X268861480Y-111640000D03*
X268861480Y-113680000D03*
D18*
X268661480Y-117530000D03*
X268661480Y-106770000D03*
D17*
X266311480Y-85660000D03*
X266311480Y-83620000D03*
X268861480Y-84640000D03*
X268861480Y-86680000D03*
D18*
X268661480Y-90530000D03*
X268661480Y-79770000D03*
D17*
X266311480Y-99160000D03*
X266311480Y-97120000D03*
X268861480Y-98140000D03*
X268861480Y-100180000D03*
D18*
X268661480Y-104030000D03*
X268661480Y-93270000D03*
D28*
X135202500Y-110672500D03*
X135202500Y-111172500D03*
X135202500Y-111672500D03*
X135202500Y-112172500D03*
X132102500Y-110672500D03*
X132102500Y-111172500D03*
X132102500Y-112172500D03*
X132102500Y-111672500D03*
X137902500Y-102952500D03*
X137902500Y-103452500D03*
X137902500Y-103952500D03*
X137902500Y-104452500D03*
X134802500Y-102952500D03*
X134802500Y-103452500D03*
X134802500Y-104452500D03*
X134802500Y-103952500D03*
D29*
X151515000Y-65790000D03*
X152785000Y-65790000D03*
X154055000Y-65790000D03*
X165485000Y-65790000D03*
X166755000Y-65790000D03*
X168025000Y-65790000D03*
X168025000Y-56390000D03*
X166755000Y-56390000D03*
X165485000Y-56390000D03*
X154055000Y-56390000D03*
X152785000Y-56390000D03*
X151515000Y-56390000D03*
D30*
X164502500Y-107207500D03*
X164502500Y-105937500D03*
X164502500Y-104667500D03*
X164502500Y-103397500D03*
X164502500Y-102127500D03*
X164502500Y-100857500D03*
X164502500Y-99587500D03*
X164502500Y-98317500D03*
X155202500Y-98317500D03*
X155202500Y-99587500D03*
X155202500Y-100857500D03*
X155202500Y-102127500D03*
X155202500Y-103397500D03*
X155202500Y-104667500D03*
X155202500Y-105937500D03*
X155202500Y-107207500D03*
D31*
X170852500Y-102037500D03*
X170852500Y-102687500D03*
X170852500Y-103337500D03*
X170852500Y-103987500D03*
X170852500Y-104637500D03*
X170852500Y-105287500D03*
X170852500Y-105937500D03*
X170852500Y-106587500D03*
X170852500Y-107237500D03*
X170852500Y-107887500D03*
X170852500Y-108537500D03*
X170852500Y-109187500D03*
X170852500Y-109837500D03*
X170852500Y-110487500D03*
X178052500Y-110487500D03*
X178052500Y-109837500D03*
X178052500Y-109187500D03*
X178052500Y-108537500D03*
X178052500Y-107887500D03*
X178052500Y-107237500D03*
X178052500Y-106587500D03*
X178052500Y-105937500D03*
X178052500Y-105287500D03*
X178052500Y-104637500D03*
X178052500Y-103987500D03*
X178052500Y-103337500D03*
X178052500Y-102687500D03*
X178052500Y-102037500D03*
D27*
X173890000Y-60020000D03*
X173890000Y-57320000D03*
D13*
X166120000Y-70450000D03*
X163420000Y-70450000D03*
X141270000Y-78730000D03*
X138570000Y-78730000D03*
X167310000Y-124750000D03*
X164610000Y-124750000D03*
D32*
X173630000Y-69520000D03*
X171130000Y-69520000D03*
X167220000Y-78940000D03*
X169720000Y-78940000D03*
D33*
X151520000Y-47990000D03*
X151520000Y-43990000D03*
D34*
X149452500Y-108212500D03*
X149452500Y-105712500D03*
X152252500Y-108212500D03*
X152252500Y-105712500D03*
X184000000Y-108360000D03*
X184000000Y-105860000D03*
X167502500Y-108462500D03*
X167502500Y-105962500D03*
D32*
X167260000Y-128600000D03*
X164760000Y-128600000D03*
X167320000Y-120490000D03*
X164820000Y-120490000D03*
D35*
X167350000Y-116660000D03*
X163350000Y-116660000D03*
D11*
X119422500Y-81972500D03*
D12*
X128312500Y-83882500D03*
X125772500Y-85152500D03*
X128312500Y-86422500D03*
X125772500Y-87692500D03*
X128312500Y-88962500D03*
X125772500Y-90232500D03*
D11*
X119422500Y-92132500D03*
D22*
X117840000Y-70410000D03*
X117840000Y-67870000D03*
X117840000Y-76510000D03*
X117840000Y-73970000D03*
D36*
X118052500Y-117672500D03*
X118052500Y-115132500D03*
X120592500Y-117672500D03*
X120592500Y-115132500D03*
D27*
X145252500Y-112772500D03*
X145252500Y-110072500D03*
X144752500Y-104752500D03*
X144752500Y-102052500D03*
X142152500Y-110072500D03*
X142152500Y-112772500D03*
X141852500Y-102052500D03*
X141852500Y-104752500D03*
X138952500Y-110072500D03*
X138952500Y-112772500D03*
D13*
X257560000Y-71720000D03*
X254860000Y-71720000D03*
X257690000Y-65800000D03*
X254990000Y-65800000D03*
M02*
